<?xml version="1.0" encoding="utf-8"?>
<!-- Generator: Adobe Illustrator 25.2.0, SVG Export Plug-In . SVG Version: 6.00 Build 0)  -->
<svg version="1.1" id="Layer_1" xmlns="http://www.w3.org/2000/svg" xmlns:xlink="http://www.w3.org/1999/xlink" x="0px" y="0px"
	 viewBox="0 0 307.8 149.4" style="enable-background:new 0 0 307.8 149.4;" xml:space="preserve">
<style type="text/css">
	.st0{fill-rule:evenodd;clip-rule:evenodd;fill:#2A2D18;}
	.st1{fill-rule:evenodd;clip-rule:evenodd;fill:#EC4899;}
	.st2{fill-rule:evenodd;clip-rule:evenodd;fill:#F9A8D4;}
	.st3{fill:#2A2D18;}
</style>
<g>
	<path class="st0" d="M108.9,144.1c0.2,0.7,0.4,1.3,0.5,2l0.5,2.6l-2.7,0c-4.5,0-8.9-0.8-12.5-3.3c0,0.3,0.1,0.6,0.1,0.8l0.3,2.6
		l-2.6-0.2c-5.3-0.5-10.4-1.9-14.1-5.6l0,2.3l-2.6-0.5c-5.9-1.1-11.1-3.4-14.4-8.1c-0.1,0.7-0.2,1.4-0.3,2.1l-0.5,2.5l-2.5-0.9
		c-3.5-1.3-7-3.1-9.7-5.6c-5-4.5-6.4-9.5-8-15.8c-5.3-3.5-9.9-7.9-13.7-13C11.4,103.2,0.4,90,0.4,74.7c0-15.3,11.1-28.5,26.2-31.1
		c10-13.6,25.8-21.8,42.7-21.8c34.4,0,68.8,0,103.2,0c-1.4-0.7-2.7-1.6-3.9-2.8l-1.9-1.9l2.1-1.5c2.3-1.7,4.9-2.8,7.6-2.8
		c0-0.1-0.1-0.1-0.1-0.2l-1.5-2.2l2.4-1c3.2-1.3,6.4-2,9.7-1.3c0,0,0,0,0,0l-1.1-2.4l2.6-0.6c3.7-0.9,7.5-1.1,11,0.2
		c-0.2-0.7-0.4-1.3-0.5-2l-0.5-2.6l2.7,0c4.5,0,8.9,0.8,12.5,3.3c0-0.3-0.1-0.6-0.1-0.8l-0.3-2.6l2.6,0.2c5.3,0.5,10.4,1.9,14.1,5.6
		l0-2.3l2.6,0.5c5.9,1.1,11.1,3.4,14.4,8.1c0.1-0.7,0.2-1.4,0.3-2.1l0.5-2.5l2.5,0.9c3.5,1.3,7,3.1,9.7,5.6c5,4.5,6.4,9.5,8,15.8
		c5.3,3.5,9.9,7.9,13.7,13c15.1,2.6,26.2,15.8,26.2,31.1c0,15.3-11.1,28.5-26.2,31.1c-10,13.7-25.8,21.8-42.7,21.8
		c-34.4,0-68.8,0-103.2,0c1.4,0.7,2.7,1.6,3.9,2.8l1.9,1.9l-2.1,1.5c-2.3,1.7-4.9,2.8-7.6,2.8c0,0.1,0.1,0.1,0.1,0.2l1.5,2.2l-2.4,1
		c-3.2,1.3-6.4,2-9.7,1.3c0,0,0,0,0,0l1.1,2.4l-2.6,0.6C116.1,145.2,112.4,145.4,108.9,144.1"/>
	<path class="st1" d="M222.7,31.1c5.4-6.4,11.1-7.9,18.6-4.8c-2.8-0.1-5.6-0.1-7.7,0.5c1.2-0.2,8.3,0.1,9.2,0.6
		c-4.3,0-11.4,1-14.9,3c1.8-0.7,10-2.3,15-2c-0.8,0.6-2.4,1.4-3.9,1.6c1.3,0,2.5-0.1,3.4-0.3c-1.2,1-4,1.8-5.6,1.8
		c1.5,0.1,2.9,0.1,4-0.1C236.8,33.8,230.3,36,222.7,31.1 M210.4,27.7c3.8-6.3,8.6-8.3,15.5-6.4c-2.4,0.2-4.8,0.6-6.6,1.3
		c1-0.3,7.2-0.9,8-0.6c-3.7,0.5-9.7,2.2-12.6,4.4c1.5-0.8,8.4-3.2,12.8-3.5c-0.6,0.6-1.9,1.5-3.2,1.9c1.1-0.1,2.1-0.4,2.9-0.7
		c-0.9,1-3.2,2.1-4.6,2.2c1.3-0.1,2.5-0.3,3.5-0.6C223,28.4,217.6,31.1,210.4,27.7z M199.7,25.7c2.6-5.6,6.4-7.6,12.3-6.6
		c-2,0.3-4,0.9-5.3,1.6c0.8-0.3,5.9-1.3,6.6-1.1c-3,0.7-7.9,2.6-10,4.7c1.2-0.8,6.6-3.3,10.3-3.9c-0.5,0.6-1.5,1.4-2.5,1.8
		c0.9-0.2,1.7-0.5,2.4-0.8c-0.7,0.9-2.5,2-3.6,2.2c1.1-0.2,2-0.4,2.8-0.7C210.2,25.4,206,28.1,199.7,25.7z M187.5,27.5
		c1.8-5.9,5.3-8.3,11.1-8c-1.9,0.6-3.7,1.3-5,2.2c0.8-0.4,5.6-2,6.3-1.8c-2.9,1-7.3,3.5-9.1,5.8c1-0.9,6-4,9.5-5.1
		c-0.4,0.6-1.3,1.6-2.2,2.1c0.9-0.3,1.6-0.7,2.2-1c-0.5,1-2.2,2.3-3.2,2.6c1-0.3,1.9-0.7,2.7-1.1C197.7,25.9,193.9,29,187.5,27.5z
		 M177.9,28.6c1-4.8,3.5-7.1,8.1-7.2c-1.4,0.6-2.8,1.3-3.7,2.1c0.6-0.4,4.2-2,4.8-1.9c-2.2,1-5.5,3.3-6.7,5.3c0.7-0.8,4.4-3.7,7-4.8
		c-0.2,0.5-0.9,1.4-1.6,1.8c0.7-0.3,1.2-0.7,1.6-1c-0.3,0.8-1.5,2-2.3,2.3c0.8-0.3,1.5-0.7,2-1C185.8,26.6,183.1,29.4,177.9,28.6z
		 M170.2,17.5c4.5-3.2,8.4-3.2,12.7-0.3c-1.8-0.5-3.6-0.8-5-0.8c0.8,0.1,5.3,1.3,5.8,1.7c-2.7-0.6-7.4-1.1-10-0.3
		c1.3-0.2,6.7,0.1,9.9,1c-0.6,0.2-1.8,0.5-2.8,0.4c0.8,0.2,1.6,0.3,2.2,0.3c-0.9,0.4-2.8,0.5-3.9,0.3c0.9,0.3,1.8,0.5,2.6,0.5
		C178.8,21.2,174.3,21.6,170.2,17.5z M178.2,11.6c6.1-2.6,10.8-1.7,15.1,2.7c-2-1-4-1.8-5.7-2.1c0.9,0.3,6,2.7,6.4,3.3
		c-3.1-1.4-8.5-2.9-11.8-2.7c1.5,0.1,8,1.6,11.5,3.4c-0.8,0.1-2.2,0.2-3.4-0.2c0.9,0.4,1.8,0.7,2.6,0.9c-1.2,0.3-3.5-0.1-4.6-0.6
		c1,0.5,2.1,1,2.9,1.2C187.5,17.8,182,17.2,178.2,11.6z M189,7.2c7.3-1.7,12.3,0.1,16.2,5.6c-2-1.4-4.1-2.6-5.9-3.3
		c1,0.5,6.1,4,6.5,4.7c-3.2-2-8.9-4.7-12.6-5c1.7,0.4,8.5,3.2,12.1,5.8c-0.9,0-2.5-0.2-3.7-0.8c0.9,0.6,1.9,1.1,2.7,1.4
		c-1.4,0.1-3.9-0.7-5-1.5c1,0.8,2.1,1.4,3,1.8C198,15.6,192,13.9,189,7.2z M201.1,3c8.6,0.1,13.6,3.2,16.4,10c-1.8-2-3.8-3.8-5.6-5
		c1,0.8,5.7,5.7,5.9,6.6c-2.9-3-8.6-7.2-12.6-8.5c1.8,0.9,8.6,5.5,11.8,9.2c-1-0.2-2.7-0.9-3.9-1.8c0.9,0.9,1.8,1.6,2.6,2.2
		c-1.6-0.2-4.1-1.7-5.2-2.8c0.9,1.1,1.9,2,2.9,2.7C208.8,14.2,202.7,11,201.1,3z M215.6,3.1c9.2,0.8,14.4,4.5,16.8,12
		c-1.8-2.3-3.7-4.4-5.6-5.7c1,0.9,5.6,6.6,5.7,7.5c-2.9-3.4-8.5-8.4-12.7-10.1c1.8,1.1,8.7,6.6,11.9,10.7c-1-0.3-2.9-1.2-4-2.2
		c0.9,1,1.7,1.9,2.6,2.5c-1.7-0.4-4.3-2.2-5.3-3.4c0.9,1.2,1.9,2.3,2.8,3.1C222.9,15.6,216.6,11.6,215.6,3.1z M232.1,6.8
		c9.3,1.8,14.1,6.1,15.6,13.8c-1.5-2.5-3.3-4.8-5-6.4c0.9,1,4.9,7.2,4.9,8.1c-2.5-3.7-7.7-9.3-11.7-11.5c1.7,1.3,8.1,7.6,10.8,12
		c-1-0.4-2.8-1.5-3.8-2.7c0.8,1.1,1.5,2.1,2.3,2.8c-1.7-0.6-4.1-2.6-5-4c0.8,1.3,1.6,2.5,2.5,3.4C238,20.1,232,15.5,232.1,6.8z
		 M249.5,11.2c9.7,3.6,14.1,9,14.1,17.5c-1.1-2.9-2.5-5.7-4.1-7.6c0.7,1.2,3.8,8.5,3.6,9.5c-2-4.4-6.4-11.3-10.4-14.3
		c1.6,1.6,7.2,9.5,9.2,14.7c-1-0.6-2.7-2.1-3.6-3.6c0.6,1.3,1.2,2.5,1.9,3.4c-1.7-0.9-3.9-3.5-4.6-5.2c0.6,1.5,1.3,2.9,2,4.1
		C253.1,26.3,247.6,20.3,249.5,11.2z M236.3,37.1c5.4-6.4,11.1-7.9,18.6-4.8c-2.8-0.1-5.6-0.1-7.7,0.5c1.2-0.2,8.3,0.1,9.2,0.6
		c-4.3,0-11.4,1-14.9,3c1.8-0.7,10-2.3,15-2c-0.8,0.6-2.4,1.4-3.9,1.6c1.3,0,2.5-0.1,3.4-0.3c-1.2,1-4,1.8-5.6,1.8
		c1.5,0.1,2.9,0.1,4-0.1C250.4,39.8,243.9,42,236.3,37.1z"/>
	<path class="st2" d="M231.1,11.8c-0.7-1.1-8.9-7.5-3.9-1.1c-2.9-2.7-5.4-4.2-7.9-5.3c-5-2.3,0.7,6.9,2,8.2
		c-3.1-2.5-5.2-6.1-5.7-10.6c2.5,0.2,4.9,0.6,7.2,1.5C226.3,5.9,229.4,8.2,231.1,11.8 M216.1,10.1c-0.8-1-8.8-6.3-3.7-0.7
		c-2.9-2.3-5.3-3.5-7.7-4.4c-4.8-1.8,1.2,6.4,2.5,7.6c-3.1-2.1-5.3-5.4-6.1-9.5c2.3,0,4.6,0.2,6.8,0.9
		C211.2,4.9,214.2,6.8,216.1,10.1z M203.3,10.5c-0.9-0.7-8.9-3.9-3.3,0.1c-3-1.4-5.3-2-7.5-2.3c-4.5-0.6,2.4,5.5,3.8,6.2
		c-3.1-1.3-5.7-3.7-7.3-7.2c1.9-0.4,4-0.7,6-0.6C198,6.8,201,8,203.3,10.5z M191.3,12.5c-0.9-0.5-8.4-2.2-2.9,0.6
		c-2.9-0.8-5-1.1-7-1c-4,0.1,3,4.6,4.3,5c-2.9-0.7-5.6-2.5-7.6-5.5c1.6-0.7,3.3-1.2,5.1-1.4C186,10,188.8,10.5,191.3,12.5z
		 M180.9,16.1c-0.8-0.3-7.2-0.4-2.2,1c-2.5-0.2-4.2-0.1-5.8,0.3c-3.2,0.7,3.3,3.3,4.4,3.5c-2.5-0.1-5-1.2-7.1-3.3
		c1.2-0.8,2.5-1.6,3.9-2C176.2,14.9,178.6,14.9,180.9,16.1z M184,21.6c-0.7,0.2-4.9,3.7-0.9,2c-1.7,1.2-2.8,2.3-3.6,3.4
		c-1.6,2.3,4.2,0.7,5,0.2c-1.7,1.3-3.9,1.9-6.7,1.4c0.3-1.3,0.6-2.6,1.3-3.7C180.2,23.3,181.8,22,184,21.6z M196.1,19.5
		c-0.9,0.2-6.7,3.9-1.3,2.3c-2.4,1.3-3.8,2.5-5,3.8c-2.4,2.7,5.1,1.3,6.3,0.8c-2.3,1.4-5.2,1.8-8.6,1c0.5-1.6,1.1-3.1,2.1-4.4
		C191.1,21.1,193.2,19.7,196.1,19.5z M209.4,18.9c-0.9,0.1-7.3,3.1-1.7,2.1c-2.5,1-4.2,2-5.5,3.2c-2.7,2.4,5,1.9,6.3,1.5
		c-2.5,1.1-5.5,1.2-8.8,0c0.7-1.5,1.6-2.9,2.7-4.1C204.1,19.9,206.5,18.7,209.4,18.9z M222.9,20.6c-1.1,0-9.1,2.9-2.2,2.3
		c-3.2,0.9-5.2,1.9-7,3.2c-3.6,2.5,5.8,2.8,7.3,2.5c-3.1,1-6.8,0.8-10.6-1c1-1.7,2.2-3.3,3.7-4.5C216.4,21.3,219.3,20.1,222.9,20.6z
		 M237.9,25.2c-1.3-0.1-10.8,1.8-2.9,2.3c-3.7,0.5-6.2,1.4-8.5,2.5c-4.5,2.3,6.1,4,7.9,3.8c-3.7,0.7-7.8-0.1-11.8-2.6
		c1.4-1.7,3.1-3.3,5-4.4C230.5,24.9,234,24.1,237.9,25.2z M251.6,31.2c-1.3-0.1-10.8,1.8-2.9,2.3c-3.7,0.5-6.2,1.4-8.5,2.5
		c-4.5,2.3,6.1,4,7.9,3.8c-3.7,0.7-7.8-0.1-11.8-2.6c1.4-1.7,3.1-3.3,5-4.4C244.2,30.9,247.7,30.1,251.6,31.2z M263.3,25
		c-0.4-1.3-7.1-10.4-3.9-2.3c-2.3-3.6-4.4-5.9-6.7-7.9c-4.6-3.9-1.6,7.3-0.6,9.1c-2.5-3.5-3.5-7.9-2.5-12.7c2.6,1,5.1,2.2,7.3,3.8
		C260.1,17.4,262.6,20.8,263.3,25z M246.9,17.3c-0.6-1.2-8.1-8.5-3.9-1.5c-2.7-3-5-4.8-7.4-6.2c-4.8-2.8-0.2,7,1,8.5
		c-2.8-2.9-4.5-6.7-4.5-11.3c2.5,0.5,4.9,1.2,7.2,2.3C242.7,10.9,245.5,13.5,246.9,17.3z"/>
	<path class="st1" d="M69.2,80.1l-1.7,7.5l10-0.1l0.8-3.4c-2.9-1.4-5.9-2.6-8.8-3.8L69.2,80.1z M99,88.2
		c26.9,16.4,82.5,28.6,116.4,6.1c-0.6,5.3-34,43.1-119.5-3.1C97,90.3,98.1,89.3,99,88.2z M123.9,60.1c2.2,0,2.8,1.7,2.8,2.6
		l-3.3,15.5c-0.8,4-3.7,6.1-5.8,6.1c-1.2,0-3.5,0-3.5-5.3C114.2,72.5,118,60.2,123.9,60.1z M128.1,56.2l-0.8,3.6v-0.5
		c0-2-1.7-3.5-5.6-3.4c-12.1,0.2-17.8,14.9-17.8,24.1c0,8.1,4.5,10.9,9.2,10.9c4.9-0.1,8.2-3.3,10.3-6.5c0.6,4,3,6.3,6.8,6.3
		c3.7-0.1,5.1-2.2,6.9-7c-0.5,0.2-0.9,0.3-1.5,0.3c-1.9,0-2.8-0.6-2.8-2.5c0-0.6,0.1-1.3,0.3-2.2l5-23.3L128.1,56.2z M197.2,61
		c0,5.7-4.7,11.1-10.1,11.4c1.5-6.5,4.9-14.1,8.4-14.2C196.8,58.2,197.2,59.3,197.2,61z M186.5,77.8c0-0.6,0.1-1.4,0.1-2.1
		c8.3-0.6,15.9-6.7,15.9-14.6c0-3.4-1.5-6.5-7.6-6.5c-14.2,0.2-18.7,16.7-18.7,24.6c0,7.7,4.3,10.8,10.7,10.7
		c5.5-0.1,10.5-2.5,12-10.3c-2.2,1.9-5.5,3.7-8.2,3.7C188.4,83.4,186.5,82.1,186.5,77.8z M208.5,55.1l-7.3,34.2l10-0.1l5.5-26
		c1.7-1.6,3-2.6,5.1-2.7c2.1,0,0.1,4.5,4,4.5c3.4,0,5-2.7,5-5.1c0-2.6-1.7-5.1-4.8-5.1c-3.3,0-6,2.3-8.4,4.3l0.9-4.2L208.5,55.1z
		 M243.2,93.5c-1.3,3.2-2.9,6.2-4.4,8.2c-5,7.1-12,2.9-7.5-2.9c1.5-2,4.4-3.9,8.8-4.9C241,93.7,242,93.6,243.2,93.5z M234.6,54.7
		l-4.7,22c-2.7,13,9,13.6,15.3,8.5c0,1-0.2,2-0.4,3.1c-7.6,1.7-13.9,4.9-17,9.4c-8.1,11.9,15.1,25,22.9-3.4c4.6,1.1,8.2,3.4,4,8.5
		c8.7,1,11.1-11.8-2.5-13.9l9.5-34.5l-10,0.1l-4.7,22c-1,3.4-2.8,6-5.5,6.1c-1.6,0-2.1-1.4-2.1-3c0-0.5,0.1-1.2,0.2-1.7l5-23.3
		L234.6,54.7z M170.8,51.7c0.3,6.3-3.9,10.7-8.6,13.2l0.3,0c5.1-0.1,7.6,3.5,7.6,7.9c0,0.8-0.1,1.7-0.3,2.6l-0.8,3.4
		c-0.1,0.7-0.3,1.4-0.3,2.2c0,1.4,0.6,2.5,2.7,2.5c1.7,0,1.9-0.2,2.4-0.4c-0.3,4.9-4.6,7.1-6.4,7.1c-5.7,0.1-8.7-2.7-8.7-7.7
		c0-1.1,0.1-2.3,0.4-3.6l0.6-2.7c0.7-3.5-2.1-9.4-6.4-7.8c-1.6,7.2-3,14.3-4.5,21.6l-10,0.1l10-46.6l10.3-1.5l-5.1,23.3
		c3.5-1.2,9.4-6.7,10.1-10.5L170.8,51.7z M76.8,47.6l-5.7,24.5l0.3,0.1c3,1.1,6,2.3,9,3.6l2.7-11c1.2-0.2,2.6-0.2,3.2-0.2
		c5.1-0.1,6.6,3.8,6.6,8.6c0,19.2-18.5,22.3-30.2,18.3C48.2,86.4,48.7,70,70.1,78.2c5.8,2.2,11.1,4.7,16,7.4c1-1,1.8-2.1,2.5-3.4
		c-5.6-3-11.4-5.7-17.8-8c-30.3-10.7-31.2,17.7-9.2,23.2c18,4.5,46.4-8.5,40.4-28.8c-0.9-3.6-3.3-6.5-7.8-7.3
		c4.5-2.6,6.9-6.9,6.9-11c0-5.6-4.6-10.8-14.8-10.7c-13.1,0.2-25.2,9-25.2,18.4c0,4.6,2.8,6.2,7.4,6.2c-0.1-0.6-1-1.1-1-4.6
		c0-11.3,9.2-16.7,17.3-16.8c6.6-0.1,9.1,3.4,9.1,7.3c0,5.1-4.4,11.1-10,11.2l-0.4,0L87,46.1L76.8,47.6z"/>
	<path class="st2" d="M69.9,81.3l-0.2,1c2.1,0.9,4.2,1.8,6.3,2.8l-0.3,1.4l1.1,0l0.5-2C74.8,83.4,72.4,82.3,69.9,81.3 M99.2,89.4
		c-0.3,0.3-0.6,0.6-0.9,0.9c17.3,10.4,40.6,16.5,60.4,17.9c17.9,1.2,37.1-0.9,52.8-10.2c-1.6,2-3.6,3.7-5.7,5.3c2.5-1.7,5-3.9,7-6.3
		c-15.7,9.2-35,11.4-52.9,10.2C140.1,105.9,116.5,99.8,99.2,89.4z M132,89.5c2-0.7,2.9-2.5,3.7-4.5c-2.4,0-3.8-0.9-3.8-3.4
		c0-0.8,0.1-1.6,0.3-2.4l4.7-22.1l-8,0.1l0,0.1l6.8-0.1l-4.7,22.5c-0.2,0.8-0.3,1.6-0.3,2.4c0,2.6,1.4,3.5,3.8,3.5
		C133.8,87.1,133.1,88.6,132,89.5z M117,89.1c2.3-1,4.2-3,5.7-5.2l0.3-0.5l-0.2-1.1l-1.4,2.2C120.2,86.4,118.8,88,117,89.1z
		 M125.2,59.3c0.5,0.1,0.9,0.4,1.3,0.7v-0.7c0-2.2-3-2.5-4.6-2.4c-0.7,0-1.3,0.1-1.9,0.2c0.2,0,0.5,0,0.7,0
		C122.1,57,125,57.2,125.2,59.3z M119.2,84.9c-0.5,0.2-1,0.2-1.5,0.3c-3.8,0.1-4.4-3-4.4-6.2c0-5.3,3.1-18,9.3-19.6
		c-7.1,0.2-10.6,14.4-10.6,20.1c0,3.2,0.7,6.4,4.4,6.3C117.4,85.8,118.3,85.5,119.2,84.9z M190.4,74.1c5.9-1.8,11.2-6.5,11.2-13
		c0-4.3-2.6-5.5-6.6-5.5c-0.7,0-1.3,0.1-2,0.1c0.2,0,0.5,0,0.7,0c4.1-0.1,6.6,1.2,6.6,5.6C200.4,67.4,195.8,72,190.4,74.1z
		 M194.6,83.5c-1.3,0.5-2.6,0.8-3.8,0.9c-10.9,0.2-2.5-25,3.7-26.9c-0.1,0-0.2,0-0.3,0c-5,0.1-8.4,11-9.3,15.2
		c-0.3,1.4-0.6,4.2-0.6,5.6c0,3.6,1.3,6.7,5.3,6.7C191.2,84.9,192.9,84.3,194.6,83.5z M197.3,82c-0.4,0.3-0.9,0.5-1.3,0.8
		c-0.9,2.3-2.2,4.1-4,5.2C194.5,86.9,196.3,84.9,197.3,82z M226,64c2.3-0.1,3.8-1.8,3.8-4.1c0-2.3-1.4-4.1-3.8-4.1
		c-0.4,0-0.8,0-1.2,0.1c2.4,0,3.7,1.9,3.7,4.2C228.6,61.9,227.6,63.4,226,64z M209.3,56l0,0.1l6.8-0.1c-2.2,10.7-4.5,21.5-6.8,32.2
		l1.1,0l5.4-25.6l0.2-0.2c1.4-1.2,2.6-2.3,4.2-2.7c-1.1,0.1-1.9,0.3-2.7,0.8l-1.4,1.2c0.3-1.3,0.8-4,1.2-5.8L209.3,56z M236.4,105.4
		c-6.9,4.3-11.5-4-3.2-9.6C222.7,101.6,229.3,111.7,236.4,105.4z M241.2,108.3c4.6-3.1,7.2-9.4,8.6-14.3l-0.1,0l-0.9-0.2l-0.2,0.9
		C247.4,99.2,245.1,104.9,241.2,108.3z M242.8,83.3c-0.4,0.1-0.9,0.2-1.4,0.2c-2.3,0-3.1-2-3.1-3.9c0-0.6,0.1-1.3,0.2-1.9l4.7-22.1
		l-8,0.1l0,0.1l6.8-0.1l-4.7,22.5c-0.2,0.6-0.2,1.3-0.2,2c0,2,0.8,4,3.1,4C241.2,84.1,242.1,83.8,242.8,83.3z M258.2,101.3
		c4.5-2.1,4-9.9-6.1-11.5l-1.1-0.2l9.4-34.3l-8,0.1l0,0.1l6.8-0.1l-9.4,34.9l1.1,0.2C259.9,91.8,261.2,98.3,258.2,101.3z
		 M169.8,53.2l-1.3,0.6c-0.6,4.7-3.9,8.2-8.1,10.5l-3.4,1.9l4.2-0.1c4.3-0.1,6.7,2.8,6.7,7c0,0.8-0.1,1.6-0.3,2.4l-0.8,3.5
		c-0.2,0.8-0.4,1.6-0.4,2.4c0,2.3,1.4,3.5,3.7,3.5c0.5,0,0.9,0,1.2-0.1c-0.4,1.3-1.1,2.4-2.1,3.4c-0.2,0.2-0.5,0.4-0.8,0.6
		c0.8-0.3,1.6-0.8,2.1-1.3c1-0.9,1.8-2,2.1-3.3c-0.4,0-0.7,0.1-1.2,0.1c-2.3,0-3.7-1.1-3.7-3.4c0-0.8,0.2-1.6,0.4-2.4l0.8-3.4
		c0.2-0.8,0.3-1.6,0.3-2.4c0-4.2-2.3-7-6.7-6.9l-4.2,0.1l3.4-1.9C166,61.7,169.5,58.1,169.8,53.2z M88.6,92.3
		c8.7-4.7,15.5-12.9,12.4-23.5c-0.9-3.6-3.3-5.9-7-6.6l-2.6-0.5l2.3-1.3c3.6-2.1,6.4-5.8,6.4-10.1c0-6.6-6.1-9.2-11.8-9.6
		c5.3,0.7,10.6,3.4,10.6,9.7c0,4.4-2.8,8.2-6.4,10.3L90.2,62l2.6,0.5c3.7,0.7,6.1,3,7,6.7C102.8,79.4,96.7,87.4,88.6,92.3z
		 M85.4,84.1l0.5,0.3c0.5-0.6,0.9-1.2,1.3-1.8c-5.4-2.9-11-5.4-16.8-7.5c-4.5-1.6-12.4-3.5-17.7-1.3c5.3-1.5,12.3,0.3,16.5,1.8
		c5.8,2.1,11.4,4.7,16.8,7.6C85.8,83.5,85.6,83.8,85.4,84.1z M83.6,91.3c-6.4,3.3-14.7,3.2-21.4,1c-3.3-1.1-6.5-3.1-8.6-6
		c-1.5-2.1-2.5-4.9-1.4-7.4c0.6-1.5,1.7-2.5,3-3.1c-1.9,0.5-3.5,1.6-4.3,3.6c-1,2.5-0.1,5.4,1.4,7.5c2.1,2.9,5.3,4.9,8.6,6.1
		C68.1,95.5,77.1,95.3,83.6,91.3z M78.6,74l1,0.4c1.2-4.9,2.3-9.5,3.4-14.2l2.8-13l-1.3,0.2C82.5,57.1,80.9,64.5,78.6,74z
		 M147.9,89.1l-1.1,0c3.2-15.4,6.3-30.2,9.7-45.7l1.3-0.2C154,60.2,151.4,72.6,147.9,89.1z M67.2,63.3
		C67.2,63.3,67.2,63.2,67.2,63.3c-0.4-1.2-0.5-2.5-0.5-3.6c0-10.4,8.1-17.7,18.3-17.8c0.3,0,0.6,0,1,0c-0.7-0.1-1.5-0.1-2.2-0.1
		c-10.2,0.1-18.3,7.5-18.3,18.1c0,1.1,0.1,2.2,0.3,3.2C66.3,63.2,66.7,63.2,67.2,63.3z"/>
	<path class="st1" d="M85.6,118.3c-5.4,6.4-11.1,7.9-18.6,4.8c2.8,0.1,5.6,0.1,7.7-0.5c-1.2,0.2-8.3-0.1-9.2-0.6
		c4.3,0,11.4-1,14.9-3c-1.8,0.7-10,2.3-15,2c0.8-0.6,2.4-1.4,3.9-1.6c-1.3,0-2.5,0.1-3.4,0.3c1.2-1,4-1.8,5.6-1.8
		c-1.5-0.1-2.9-0.1-4,0.1C71.4,115.6,77.9,113.4,85.6,118.3 M97.8,121.7c-3.8,6.3-8.6,8.3-15.5,6.4c2.4-0.2,4.8-0.6,6.6-1.3
		c-1,0.3-7.2,0.9-8,0.6c3.7-0.5,9.7-2.2,12.6-4.4c-1.5,0.8-8.4,3.2-12.8,3.5c0.6-0.6,1.9-1.5,3.2-1.9c-1.1,0.1-2.1,0.4-2.9,0.7
		c0.9-1,3.2-2.1,4.6-2.2c-1.3,0.1-2.5,0.3-3.5,0.6C85.2,121,90.6,118.3,97.8,121.7z M108.5,123.7c-2.6,5.6-6.4,7.6-12.3,6.6
		c2-0.3,4-0.9,5.3-1.6c-0.8,0.3-5.9,1.3-6.6,1.1c3-0.7,7.9-2.6,10-4.7c-1.2,0.8-6.6,3.3-10.3,3.9c0.5-0.6,1.5-1.4,2.5-1.8
		c-0.9,0.2-1.7,0.5-2.4,0.8c0.7-0.9,2.5-2,3.6-2.2c-1.1,0.2-2,0.4-2.8,0.7C98,124,102.3,121.3,108.5,123.7z M120.7,121.9
		c-1.8,5.9-5.3,8.3-11.1,8c1.9-0.6,3.7-1.3,5-2.2c-0.8,0.4-5.6,2-6.3,1.8c2.9-1,7.3-3.5,9.1-5.8c-1,0.9-6,4-9.5,5.1
		c0.4-0.6,1.3-1.6,2.2-2.1c-0.9,0.3-1.6,0.7-2.2,1c0.5-1,2.2-2.3,3.2-2.6c-1,0.3-1.9,0.7-2.7,1.1
		C110.5,123.5,114.3,120.4,120.7,121.9z M130.3,120.8c-1,4.8-3.5,7.1-8.1,7.2c1.4-0.6,2.8-1.3,3.7-2.1c-0.6,0.4-4.2,2-4.8,1.9
		c2.2-1,5.5-3.3,6.7-5.3c-0.7,0.8-4.4,3.7-7,4.8c0.2-0.5,0.9-1.4,1.6-1.8c-0.7,0.3-1.2,0.7-1.6,1c0.3-0.8,1.5-2,2.3-2.3
		c-0.8,0.3-1.5,0.7-2,1C122.4,122.8,125.1,120,130.3,120.8z M138,131.9c-4.5,3.2-8.4,3.2-12.7,0.3c1.8,0.5,3.6,0.8,5,0.8
		c-0.8-0.1-5.3-1.3-5.8-1.7c2.7,0.6,7.4,1.1,10,0.3c-1.3,0.2-6.7-0.1-9.9-1c0.6-0.2,1.8-0.5,2.8-0.4c-0.8-0.2-1.6-0.3-2.2-0.3
		c0.9-0.4,2.8-0.5,3.9-0.3c-0.9-0.3-1.8-0.5-2.6-0.5C129.4,128.2,133.9,127.8,138,131.9z M130,137.8c-6.1,2.6-10.8,1.7-15.1-2.7
		c2,1,4,1.8,5.7,2.1c-0.9-0.3-6-2.7-6.4-3.3c3.1,1.4,8.5,2.9,11.8,2.7c-1.5-0.1-8-1.6-11.5-3.4c0.8-0.1,2.2-0.2,3.4,0.2
		c-0.9-0.4-1.8-0.7-2.6-0.9c1.2-0.3,3.5,0.1,4.6,0.6c-1-0.5-2.1-1-2.9-1.2C120.7,131.6,126.2,132.2,130,137.8z M119.3,142.2
		c-7.3,1.7-12.3-0.1-16.2-5.6c2,1.4,4.1,2.6,5.9,3.3c-1-0.5-6.1-4-6.5-4.7c3.2,2,8.9,4.7,12.6,5c-1.7-0.4-8.5-3.2-12.1-5.8
		c0.9,0,2.5,0.2,3.7,0.8c-0.9-0.6-1.9-1.1-2.7-1.4c1.4-0.1,3.9,0.7,5,1.5c-1-0.8-2.1-1.4-3-1.8C110.2,133.8,116.2,135.5,119.3,142.2
		z M107.1,146.4c-8.6-0.1-13.6-3.2-16.4-10c1.8,2,3.8,3.8,5.6,5c-1-0.8-5.7-5.7-5.9-6.6c2.9,3,8.6,7.2,12.6,8.5
		c-1.8-0.9-8.6-5.5-11.8-9.2c1,0.2,2.7,0.9,3.9,1.8c-0.9-0.9-1.8-1.6-2.6-2.2c1.6,0.2,4.1,1.7,5.2,2.8c-0.9-1.1-1.9-2-2.9-2.7
		C99.4,135.2,105.6,138.4,107.1,146.4z M92.6,146.3c-9.2-0.8-14.4-4.5-16.8-12c1.8,2.3,3.7,4.4,5.6,5.7c-1-0.9-5.6-6.6-5.7-7.5
		c2.9,3.4,8.5,8.4,12.7,10.1c-1.8-1.1-8.7-6.6-11.9-10.7c1,0.3,2.9,1.2,4,2.2c-0.9-1-1.7-1.9-2.6-2.5c1.7,0.4,4.3,2.2,5.3,3.4
		c-0.9-1.2-1.9-2.3-2.8-3.1C85.3,133.8,91.7,137.8,92.6,146.3z M76.1,142.6c-9.3-1.8-14.1-6.1-15.6-13.8c1.5,2.5,3.3,4.8,5,6.4
		c-0.9-1-4.9-7.2-4.9-8.1c2.5,3.7,7.7,9.3,11.7,11.5c-1.7-1.3-8.1-7.6-10.8-12c1,0.4,2.8,1.5,3.8,2.7c-0.8-1.1-1.5-2.1-2.3-2.8
		c1.7,0.6,4.1,2.6,5,4c-0.8-1.3-1.6-2.5-2.5-3.4C70.2,129.3,76.2,133.9,76.1,142.6z M58.7,138.2c-9.7-3.6-14.1-9-14.1-17.5
		c1.1,2.9,2.5,5.7,4.1,7.6c-0.7-1.2-3.8-8.5-3.6-9.5c2,4.4,6.4,11.3,10.4,14.3c-1.6-1.6-7.2-9.5-9.2-14.7c1,0.6,2.7,2.1,3.6,3.6
		c-0.6-1.3-1.2-2.5-1.9-3.4c1.7,0.9,3.9,3.5,4.6,5.2c-0.6-1.5-1.3-2.9-2-4.1C55.1,123.1,60.6,129.1,58.7,138.2z M71.9,112.3
		c-5.4,6.4-11.1,7.9-18.6,4.8c2.8,0.1,5.6,0.1,7.7-0.5c-1.2,0.2-8.3-0.1-9.2-0.6c4.3,0,11.4-1,14.9-3c-1.8,0.7-10,2.3-15,2
		c0.8-0.6,2.4-1.4,3.9-1.6c-1.3,0-2.5,0.1-3.4,0.3c1.2-1,4-1.8,5.6-1.8c-1.5-0.1-2.9-0.1-4,0.1C57.8,109.6,64.3,107.4,71.9,112.3z"
		/>
	<path class="st2" d="M77.1,137.6c0.7,1.1,8.9,7.5,3.9,1.1c2.9,2.7,5.4,4.2,7.9,5.3c5,2.3-0.7-6.9-2-8.2c3.1,2.5,5.2,6.1,5.7,10.6
		c-2.5-0.2-4.9-0.6-7.2-1.5C81.9,143.5,78.9,141.2,77.1,137.6 M92.1,139.3c0.8,1,8.8,6.3,3.7,0.7c2.9,2.3,5.3,3.5,7.7,4.4
		c4.8,1.8-1.2-6.4-2.5-7.6c3.1,2.1,5.3,5.4,6.1,9.5c-2.3,0-4.6-0.2-6.8-0.9C97,144.5,94,142.6,92.1,139.3z M104.9,138.9
		c0.9,0.7,8.9,3.9,3.3-0.1c3,1.4,5.3,2,7.5,2.3c4.5,0.6-2.4-5.5-3.8-6.2c3.1,1.3,5.7,3.7,7.3,7.2c-1.9,0.4-4,0.7-6,0.6
		C110.2,142.6,107.3,141.4,104.9,138.9z M116.9,136.9c0.9,0.5,8.4,2.2,2.9-0.6c2.9,0.8,5,1.1,7,1c4-0.1-3-4.6-4.3-5
		c2.9,0.7,5.6,2.5,7.6,5.5c-1.6,0.7-3.3,1.2-5.1,1.4C122.2,139.4,119.4,138.9,116.9,136.9z M127.3,133.3c0.8,0.3,7.2,0.4,2.2-1
		c2.5,0.2,4.2,0.1,5.8-0.3c3.2-0.7-3.3-3.3-4.4-3.5c2.5,0.1,5,1.2,7.1,3.3c-1.2,0.8-2.5,1.6-3.9,2
		C132,134.5,129.6,134.5,127.3,133.3z M124.2,127.8c0.7-0.2,4.9-3.7,0.9-2c1.7-1.2,2.8-2.3,3.6-3.4c1.6-2.3-4.2-0.7-5-0.2
		c1.7-1.3,3.9-1.9,6.7-1.4c-0.3,1.3-0.6,2.6-1.3,3.7C128,126.1,126.4,127.4,124.2,127.8z M112.1,129.9c0.9-0.2,6.7-3.9,1.3-2.3
		c2.4-1.3,3.8-2.5,5-3.8c2.4-2.7-5.1-1.3-6.3-0.8c2.3-1.4,5.2-1.8,8.6-1c-0.5,1.6-1.1,3.1-2.1,4.4
		C117.1,128.3,115,129.7,112.1,129.9z M98.8,130.5c0.9-0.1,7.3-3.1,1.7-2.1c2.5-1,4.2-2,5.5-3.2c2.7-2.4-5-1.9-6.3-1.5
		c2.5-1.1,5.5-1.2,8.8,0c-0.7,1.5-1.6,2.9-2.7,4.1C104.1,129.5,101.7,130.7,98.8,130.5z M85.3,128.8c1.1,0,9.1-2.9,2.2-2.3
		c3.2-0.9,5.2-1.9,7-3.2c3.6-2.5-5.8-2.8-7.3-2.5c3.1-1,6.8-0.8,10.6,1c-1,1.7-2.2,3.3-3.7,4.5C91.8,128.1,88.9,129.3,85.3,128.8z
		 M70.3,124.2c1.3,0.1,10.8-1.8,2.9-2.3c3.7-0.5,6.2-1.4,8.5-2.5c4.5-2.3-6.1-4-7.9-3.8c3.7-0.7,7.8,0.1,11.8,2.6
		c-1.4,1.7-3.1,3.3-5,4.4C77.7,124.5,74.2,125.3,70.3,124.2z M56.7,118.2c1.3,0.1,10.8-1.8,2.9-2.3c3.7-0.5,6.2-1.4,8.5-2.5
		c4.5-2.3-6.1-4-7.9-3.8c3.7-0.7,7.8,0.1,11.8,2.6c-1.4,1.7-3.1,3.3-5,4.4C64,118.5,60.6,119.3,56.7,118.2z M44.9,124.4
		c0.4,1.3,7.1,10.4,3.9,2.3c2.3,3.6,4.4,5.9,6.7,7.9c4.6,3.9,1.6-7.3,0.6-9.1c2.5,3.5,3.5,7.9,2.5,12.7c-2.6-1-5.1-2.2-7.3-3.8
		C48.1,132,45.6,128.6,44.9,124.4z M61.4,132.1c0.6,1.2,8.1,8.5,3.9,1.5c2.7,3,5,4.8,7.4,6.2c4.8,2.8,0.2-7-1-8.5
		c2.8,2.9,4.5,6.7,4.5,11.3c-2.5-0.5-4.9-1.2-7.2-2.3C65.5,138.5,62.7,135.9,61.4,132.1z"/>
	<path class="st1" d="M171.1,26.6c-1.2,0.8-3,1.9-3.9,3c-32.5,0.1-65.2,0.2-97.9,0.2c-14.4,0-27.9,6.9-36.4,18.6L31,50.8l-3.1,0.5
		C16.6,53.3,8.2,63.2,8.2,74.7c0,11.5,8.3,21.4,19.7,23.3l3.1,0.5c21.3,29.2,73.7,43.1,105.7,24.5c-15.2,9.8-34.6,11.9-53.3,8.3
		c-21.8-4.2-42.7-16-54.2-29.9l-1.9-0.3C14.5,99,5.1,87.7,5.1,74.7c0-13.1,9.4-24.3,22.3-26.4l1.9-0.3l1.1-1.5
		C39.5,34,53.8,26.5,69.3,26.5C103.2,26.5,137.1,26.6,171.1,26.6 M139.3,122.8h-2.2c1.2-0.8,3-1.9,3.9-3c32.5-0.1,65.2-0.2,97.9-0.2
		c14.4,0,27.9-6.9,36.4-18.6l1.9-2.6l3.1-0.5c11.4-1.9,19.7-11.8,19.7-23.3c0-11.5-8.3-21.4-19.7-23.3l-3.1-0.5
		c-21.3-29.2-73.7-43.1-105.7-24.5c15.2-9.8,34.6-11.9,53.3-8.3c21.8,4.2,42.7,16,54.2,29.9l1.9,0.3c12.9,2.2,22.3,13.4,22.3,26.4
		c0,13.1-9.4,24.3-22.3,26.4l-1.9,0.3l-1.1,1.5c-9.1,12.4-23.5,19.9-38.9,19.9C205.7,122.9,172.5,122.8,139.3,122.8z"/>
	<path class="st1" d="M281.7,69.1c3.1,0,5.6,2.5,5.6,5.6c0,3.1-2.5,5.6-5.6,5.6c-3.1,0-5.6-2.5-5.6-5.6
		C276.1,71.6,278.6,69.1,281.7,69.1 M26.5,69.1c3.1,0,5.6,2.5,5.6,5.6c0,3.1-2.5,5.6-5.6,5.6c-3.1,0-5.6-2.5-5.6-5.6
		C20.9,71.6,23.4,69.1,26.5,69.1z"/>
	<path class="st2" d="M281.7,70c-1.4,0-2.6,0.6-3.4,1.5c0.7-0.5,1.6-0.8,2.6-0.8c2.6,0,4.7,2.1,4.7,4.7c0,1.2-0.5,2.3-1.2,3.2
		c1.3-0.8,2.1-2.3,2.1-3.9C286.4,72.1,284.3,70,281.7,70 M26.5,70c-1.4,0-2.6,0.6-3.4,1.5c0.7-0.5,1.6-0.8,2.6-0.8
		c2.6,0,4.7,2.1,4.7,4.7c0,1.2-0.5,2.3-1.2,3.2c1.3-0.8,2.1-2.3,2.1-3.9C31.2,72.1,29.1,70,26.5,70z"/>
	<path class="st3" d="M148.2,11.5h4.3c0,0,0.1,0,0.1-0.1v-0.2c0-1.4,0-2.2,0-2.4c0-0.4-0.2-0.6-0.5-0.6c-0.1,0-0.3,0-0.4,0
		c-0.1,0-0.2,0-0.2-0.1c0-0.1,0.1-0.1,0.2-0.1c0.2,0,0.5,0,0.9,0c0.4,0,0.6,0,0.7,0c0.1,0,0.3,0,0.7,0c0.4,0,0.6,0,0.8,0
		c0.2,0,0.2,0,0.2,0.1c0,0.1-0.1,0.1-0.2,0.1c-0.1,0-0.2,0-0.3,0c-0.3,0-0.4,0.3-0.4,0.6c0,0.2,0,1.1,0,2.4v2c0,1.3,0,2.1,0.1,2.4
		c0,0.4,0.2,0.6,0.4,0.6c0.2,0,0.4,0,0.6,0c0.1,0,0.2,0,0.2,0.1c0,0.1-0.1,0.1-0.2,0.1c-0.3,0-0.6,0-1,0c-0.4,0-0.7,0-0.7,0
		c-0.1,0-0.3,0-0.6,0c-0.4,0-0.6,0-0.8,0c-0.2,0-0.2,0-0.2-0.1c0-0.1,0.1-0.1,0.2-0.1c0.1,0,0.2,0,0.3,0c0.2,0,0.3-0.2,0.3-0.6
		c0-0.3,0.1-1.1,0.1-2.4v-1c0,0,0-0.1-0.1-0.1h-4.3c0,0-0.1,0-0.1,0.1v1c0,1.3,0,2.1,0.1,2.4c0,0.4,0.2,0.6,0.4,0.6
		c0.2,0,0.4,0,0.6,0c0.1,0,0.2,0,0.2,0.1c0,0.1-0.1,0.1-0.2,0.1c-0.3,0-0.6,0-1,0c-0.4,0-0.7,0-0.7,0c-0.1,0-0.3,0-0.6,0
		c-0.4,0-0.6,0-0.8,0c-0.2,0-0.2,0-0.2-0.1c0-0.1,0.1-0.1,0.2-0.1c0.1,0,0.2,0,0.3,0c0.2,0,0.3-0.2,0.3-0.6c0-0.3,0.1-1.1,0.1-2.4
		v-2c0-1.4,0-2.2,0-2.4c0-0.4-0.2-0.6-0.5-0.6c-0.1,0-0.3,0-0.4,0c-0.1,0-0.2,0-0.2-0.1c0-0.1,0.1-0.1,0.2-0.1c0.2,0,0.5,0,0.9,0
		c0.4,0,0.6,0,0.7,0c0.1,0,0.3,0,0.7,0c0.4,0,0.6,0,0.8,0c0.2,0,0.2,0,0.2,0.1c0,0.1-0.1,0.1-0.2,0.1c-0.1,0-0.2,0-0.3,0
		c-0.3,0-0.4,0.3-0.4,0.6c0,0.2,0,1.1,0,2.4L148.2,11.5C148.1,11.5,148.2,11.5,148.2,11.5 M139.8,16.6c-0.7,0-1.2-0.1-1.7-0.3
		c-0.1-0.1-0.2-0.2-0.2-0.4c0-0.4,0-0.9,0.1-1.5c0-0.2,0.1-0.3,0.1-0.3c0.1,0,0.1,0.1,0.1,0.2c0,0.2,0,0.4,0.1,0.6
		c0.2,0.8,0.8,1.1,1.6,1.1c0.5,0,0.9-0.1,1.1-0.4c0.2-0.2,0.4-0.5,0.4-0.9c0-0.6-0.4-1.2-1.1-1.8l-0.5-0.4c-1.1-0.9-1.7-1.8-1.7-2.7
		c0-0.6,0.2-1.1,0.7-1.5c0.5-0.4,1.1-0.6,1.9-0.6c0.5,0,1,0.1,1.5,0.2c0.1,0,0.2,0.1,0.2,0.1c0,0,0,0.1,0,0.4c0,0.3,0,0.6,0,1
		c0,0.2,0,0.3-0.1,0.3c-0.1,0-0.1-0.1-0.1-0.2c0-0.3-0.1-0.5-0.3-0.8c-0.3-0.4-0.7-0.6-1.2-0.6c-0.4,0-0.7,0.1-1,0.3
		c-0.2,0.2-0.4,0.5-0.4,0.8c0,0.3,0.1,0.5,0.3,0.8c0.2,0.2,0.5,0.5,0.9,0.9l0.3,0.2c0.7,0.5,1.2,1,1.4,1.4c0.3,0.4,0.4,0.9,0.4,1.5
		c0,0.9-0.4,1.5-1.1,2C141.1,16.5,140.5,16.6,139.8,16.6z M130.2,13.2v-2c0-1.4,0-2.2,0-2.4c0-0.4-0.2-0.6-0.5-0.6
		c-0.1,0-0.3,0-0.4,0c-0.1,0-0.2,0-0.2-0.1c0-0.1,0.1-0.1,0.2-0.1c0.2,0,0.5,0,0.9,0c0.4,0,0.6,0,0.7,0c1.8,0,2.7,0,2.8,0
		c0.2,0,0.4,0,0.5-0.1c0.1,0,0.2,0,0.2,0c0,0,0.1,0,0.1,0.1c0,0,0,0.1,0,0.2c0,0.2,0,0.3-0.1,0.5c0,0.2,0,0.5-0.1,0.7
		c0,0.1-0.1,0.1-0.1,0.1c-0.1,0-0.1,0-0.1-0.1c0-0.1,0-0.2,0-0.2c0-0.1,0-0.1,0-0.2c-0.1-0.2-0.3-0.4-0.8-0.4c-0.3,0-0.8,0-1.6,0
		c-0.1,0-0.1,0-0.1,0.1v2.9c0,0.1,0,0.1,0.1,0.1c1,0,1.7,0,1.8,0c0.1,0,0.2,0,0.3,0c0.1,0,0.2-0.1,0.2-0.1c0.1-0.1,0.2-0.1,0.2-0.1
		c0.1,0,0.1,0,0.1,0.1c0,0,0,0.1,0,0.2c0,0.2,0,0.4-0.1,0.6c0,0.4,0,0.7,0,0.8c0,0.1,0,0.2-0.1,0.2c-0.1,0-0.1,0-0.1-0.1
		c0-0.1,0-0.2,0-0.4c-0.1-0.3-0.3-0.4-0.6-0.4c-0.2,0-0.8,0-1.6,0c0,0-0.1,0-0.1,0.1v2.7c0,0.4,0.1,0.7,0.3,0.8
		c0.2,0.1,0.5,0.2,1.1,0.2c0.5,0,0.9,0,1.1-0.1c0.3-0.1,0.4-0.4,0.5-0.8c0-0.1,0.1-0.2,0.1-0.2c0.1,0,0.1,0.1,0.1,0.2
		c0,0.5,0,0.9-0.1,1.3c0,0.1-0.1,0.2-0.2,0.3c-0.1,0-0.2,0-0.5,0c-0.7,0-1.3,0-2,0c-0.7,0-1,0-1.2,0c-0.1,0-0.3,0-0.6,0
		c-0.4,0-0.6,0-0.8,0c-0.2,0-0.2,0-0.2-0.1c0-0.1,0.1-0.1,0.3-0.1c0.1,0,0.2,0,0.3,0c0.2,0,0.3-0.2,0.3-0.6
		C130.2,15.3,130.2,14.5,130.2,13.2z M121.6,8.6v3.5c0,0.1,0,0.2,0.1,0.2c0.2,0.1,0.5,0.1,0.9,0.1c0.4,0,0.6-0.1,0.8-0.2
		c0.4-0.3,0.7-0.9,0.7-1.7c0-0.7-0.2-1.3-0.6-1.6c-0.3-0.3-0.7-0.4-1.1-0.4c-0.4,0-0.6,0-0.6,0.1C121.6,8.5,121.6,8.5,121.6,8.6z
		 M120.2,13.2v-2c0-1.4,0-2.2,0-2.4c0-0.4-0.2-0.6-0.5-0.6c-0.1,0-0.3,0-0.4,0c-0.1,0-0.2,0-0.2-0.1c0-0.1,0.1-0.1,0.2-0.1
		c0.2,0,0.5,0,0.9,0c0.4,0,0.6,0,0.6,0c0.1,0,0.4,0,0.8,0c0.4,0,0.7,0,0.8,0c0.9,0,1.6,0.2,2.1,0.5c0.2,0.1,0.4,0.3,0.5,0.6
		c0.2,0.3,0.3,0.6,0.3,1c0,0.9-0.5,1.7-1.5,2.5c0.8,1,1.3,1.6,1.4,1.7c0.4,0.6,0.8,1,1.1,1.3c0.4,0.4,0.8,0.7,1.3,0.8
		c0.1,0,0.2,0,0.3,0c0.1,0,0.2,0,0.2,0.1c0,0.1-0.1,0.1-0.2,0.1h-1.1c-0.5,0-1-0.1-1.2-0.2c-0.4-0.2-0.9-0.8-1.6-1.7
		c-0.3-0.5-0.7-1-1.1-1.6c0-0.1-0.1-0.1-0.2-0.1h-1c-0.1,0-0.1,0-0.1,0.1v0.2c0,1.3,0,2.1,0.1,2.4c0,0.4,0.2,0.6,0.4,0.6
		c0.2,0,0.4,0,0.6,0c0.1,0,0.1,0,0.1,0.1c0,0.1-0.1,0.1-0.2,0.1c-0.3,0-0.6,0-1,0c-0.4,0-0.6,0-0.7,0c-0.1,0-0.3,0-0.6,0
		c-0.3,0-0.6,0-0.8,0c-0.2,0-0.2,0-0.2-0.1c0-0.1,0.1-0.1,0.3-0.1c0.1,0,0.2,0,0.3,0c0.2,0,0.3-0.2,0.3-0.6
		C120.2,15.3,120.2,14.5,120.2,13.2z M113.2,12.2v0.9c0,1.3,0,2.1,0.1,2.4c0,0.4,0.2,0.6,0.4,0.6c0.2,0,0.4,0,0.6,0
		c0.1,0,0.2,0,0.2,0.1c0,0.1-0.1,0.1-0.3,0.1c-0.3,0-0.6,0-1,0c-0.4,0-0.6,0-0.7,0c-0.1,0-0.3,0-0.7,0c-0.4,0-0.6,0-0.8,0
		c-0.2,0-0.2,0-0.2-0.1c0-0.1,0.1-0.1,0.3-0.1c0.1,0,0.2,0,0.3,0c0.2,0,0.3-0.2,0.3-0.6c0-0.3,0.1-1.1,0.1-2.4v-2c0-1.4,0-2.2,0-2.4
		c0-0.4-0.2-0.6-0.5-0.6c-0.1,0-0.3,0-0.4,0c-0.1,0-0.2,0-0.2-0.1c0-0.1,0.1-0.1,0.3-0.1c0.2,0,0.5,0,0.9,0c0.4,0,0.6,0,0.7,0
		c1.8,0,2.8,0,3,0c0.1,0,0.3,0,0.5,0c0.1,0,0.2-0.1,0.2-0.1c0.1,0,0.1,0,0.1,0.1c0,0,0,0.1,0,0.2c0,0.1,0,0.2-0.1,0.3
		c0,0.3,0,0.6-0.1,0.9c0,0.1-0.1,0.2-0.1,0.2c-0.1,0-0.1-0.1-0.1-0.2c0-0.2,0-0.3-0.1-0.4c-0.1-0.2-0.3-0.3-0.8-0.3l-1.8,0
		c-0.1,0-0.1,0.1-0.1,0.2v2.8c0,0.1,0,0.1,0.1,0.1h1.5c0.3,0,0.5,0,0.5,0c0.2,0,0.4-0.1,0.5-0.2c0.1-0.1,0.1-0.1,0.1-0.1
		c0,0,0.1,0,0.1,0.1c0,0,0,0.1,0,0.3c0,0.2,0,0.3-0.1,0.5c0,0.3,0,0.6,0,0.8c0,0.1,0,0.2-0.1,0.2c0,0-0.1-0.1-0.1-0.2
		c0-0.1,0-0.2-0.1-0.3c-0.1-0.2-0.3-0.4-0.6-0.4c-0.2,0-0.7,0-1.7,0C113.2,12.1,113.2,12.2,113.2,12.2z M100.7,14.5v-0.9
		c0-0.4-0.1-0.8-0.3-1.2c0-0.1-0.3-0.6-0.9-1.5c-0.5-0.9-0.9-1.5-1.1-1.8c-0.3-0.4-0.5-0.7-0.8-0.8c-0.2-0.1-0.3-0.1-0.5-0.1
		C97,8.1,97,8,97,8c0-0.1,0.1-0.1,0.2-0.1c0.1,0,0.3,0,0.7,0c0.4,0,0.6,0,0.8,0c0.1,0,0.2,0,0.5,0c0.3,0,0.5,0,0.7,0
		c0.1,0,0.2,0,0.2,0.1c0,0-0.1,0.1-0.2,0.1c-0.1,0-0.2,0.1-0.2,0.2c0,0.1,0,0.2,0.1,0.4c0,0.1,0.7,1.2,1.9,3.4
		c0.5-0.9,1.1-2,1.7-3.1c0.1-0.2,0.2-0.4,0.2-0.6c0-0.2-0.1-0.2-0.2-0.3c-0.1,0-0.2-0.1-0.2-0.1c0-0.1,0.1-0.1,0.2-0.1
		c0.1,0,0.3,0,0.6,0c0.2,0,0.4,0,0.5,0c0.1,0,0.3,0,0.6,0c0.3,0,0.5,0,0.6,0c0.1,0,0.2,0,0.2,0.1c0,0.1-0.1,0.1-0.2,0.1
		c-0.1,0-0.3,0-0.5,0.1c-0.2,0.1-0.4,0.3-0.6,0.6c-0.2,0.2-0.6,0.8-1.1,1.8c-0.6,1-0.9,1.6-1,1.8c-0.1,0.3-0.2,0.7-0.2,1.1v0.9
		c0,0.7,0,1.1,0.1,1.3c0,0.3,0.2,0.4,0.4,0.5c0.2,0,0.4,0,0.6,0c0.1,0,0.2,0,0.2,0.1c0,0.1-0.1,0.1-0.2,0.1c-0.3,0-0.6,0-1,0
		c-0.4,0-0.6,0-0.7,0c-0.1,0-0.3,0-0.7,0c-0.4,0-0.6,0-0.8,0c-0.2,0-0.3,0-0.3-0.1c0,0,0.1-0.1,0.3-0.1c0.1,0,0.2,0,0.3,0
		c0.2,0,0.3-0.3,0.4-0.6C100.6,15.3,100.7,14.9,100.7,14.5z M92.6,11.2v2c0,0.9,0,1.4,0,1.7c0,0.4,0.1,0.7,0.2,0.7
		c0.2,0.2,0.6,0.2,1.4,0.2c0.7,0,1.1-0.1,1.3-0.3c0.2-0.2,0.3-0.4,0.3-0.7c0-0.1,0.1-0.2,0.1-0.2c0.1,0,0.1,0.1,0.1,0.2
		c0,0.5-0.1,0.9-0.2,1.3c0,0.2-0.1,0.3-0.3,0.3c-0.1,0-0.2,0-0.4,0c-0.6,0-1.2,0-1.9,0c-0.7,0-1.1,0-1.4,0c-0.1,0-0.3,0-0.6,0
		c-0.4,0-0.6,0-0.8,0c-0.2,0-0.2,0-0.2-0.1c0-0.1,0.1-0.1,0.2-0.1c0.1,0,0.2,0,0.3,0c0.2,0,0.3-0.2,0.3-0.6c0-0.3,0.1-1.1,0.1-2.4
		v-2c0-1.4,0-2.2,0-2.4c0-0.3-0.1-0.5-0.2-0.6c-0.1-0.1-0.3-0.1-0.6-0.1c-0.1,0-0.2,0-0.2-0.1c0-0.1,0.1-0.1,0.3-0.1
		c0.2,0,0.5,0,0.9,0c0.4,0,0.6,0,0.7,0c0.1,0,0.3,0,0.7,0c0.4,0,0.7,0,0.8,0c0.2,0,0.2,0,0.2,0.1c0,0.1-0.1,0.1-0.2,0.1
		c-0.2,0-0.3,0-0.4,0c-0.3,0-0.4,0.3-0.4,0.6C92.6,9,92.6,9.8,92.6,11.2z M84.6,13.2v-2c0-1.4,0-2.2,0-2.4c0-0.4-0.2-0.6-0.4-0.6
		c-0.1,0-0.3,0-0.4,0c-0.1,0-0.2,0-0.2-0.1c0-0.1,0.1-0.1,0.3-0.1c0.2,0,0.4,0,0.8,0c0.4,0,0.6,0,0.7,0c0.1,0,0.3,0,0.6,0
		c0.3,0,0.6,0,0.8,0c0.2,0,0.2,0,0.2,0.1c0,0.1-0.1,0.1-0.2,0.1c-0.1,0-0.2,0-0.4,0c-0.3,0-0.4,0.3-0.4,0.6c0,0.2,0,1.1,0,2.4v2
		c0,1.4,0,2.2,0,2.5c0,0.3,0.2,0.5,0.5,0.6c0.2,0,0.4,0,0.6,0c0.1,0,0.2,0,0.2,0.1c0,0.1-0.1,0.1-0.2,0.1c-0.3,0-0.6,0-1.1,0
		c-0.4,0-0.7,0-0.7,0c-0.1,0-0.3,0-0.6,0c-0.4,0-0.6,0-0.8,0c-0.2,0-0.2,0-0.2-0.1c0-0.1,0.1-0.1,0.3-0.1c0.1,0,0.2,0,0.3,0
		c0.2,0,0.3-0.2,0.3-0.6C84.6,15.3,84.6,14.5,84.6,13.2z M76,12.9h2.1c0.1,0,0.1,0,0.1-0.1l-1-2.8c0-0.1,0-0.1-0.1-0.1
		c0,0-0.1,0-0.1,0.1L76,12.9C75.9,12.9,75.9,12.9,76,12.9z M78.3,13.5h-2.5c0,0-0.1,0-0.1,0.1L75,15.2c-0.1,0.3-0.2,0.5-0.2,0.7
		c0,0.2,0.2,0.4,0.5,0.4h0.2c0.1,0,0.2,0,0.2,0.1c0,0.1-0.1,0.1-0.2,0.1c-0.1,0-0.3,0-0.6,0c-0.3,0-0.5,0-0.6,0c0,0-0.2,0-0.5,0
		c-0.3,0-0.6,0-0.8,0c-0.1,0-0.2,0-0.2-0.1c0-0.1,0-0.1,0.1-0.1c0.1,0,0.2,0,0.4,0c0.2,0,0.4-0.1,0.6-0.3c0.1-0.1,0.2-0.4,0.4-0.7
		L77,8.1c0.1-0.3,0.2-0.5,0.3-0.5c0.1,0,0.2,0.1,0.3,0.4c0.7,1.8,1.6,4.1,2.8,7c0.3,0.7,0.7,1.2,1,1.2c0.1,0,0.3,0,0.5,0
		c0.1,0,0.1,0,0.1,0.1c0,0,0,0.1-0.1,0.1c-0.1,0-0.2,0-0.4,0c-0.9,0-1.7,0-2.1,0c-0.2,0-0.3,0-0.3-0.1c0-0.1,0.1-0.1,0.2-0.1
		c0.1,0,0.2-0.1,0.1-0.3l-0.9-2.4C78.4,13.5,78.3,13.5,78.3,13.5z M64.7,11v1.4c0,1.2,0,2,0,2.3c0,0.5,0.1,0.8,0.1,0.9
		c0.2,0.3,0.7,0.5,1.5,0.5c1.1,0,2-0.3,2.6-0.8c0.6-0.5,0.9-1.5,0.9-2.8c0-1.2-0.4-2.1-1.1-2.8c-0.8-0.8-1.9-1.1-3.2-1.1
		c-0.4,0-0.6,0-0.7,0.1c-0.1,0-0.2,0.1-0.2,0.2C64.7,9.1,64.7,9.8,64.7,11z M57.7,10.8c0.7,0,1.3,0.6,1.3,1.3c0,0.7-0.6,1.3-1.3,1.3
		c-0.7,0-1.3-0.6-1.3-1.3C56.5,11.4,57,10.8,57.7,10.8z M159.7,10.8c0.7,0,1.3,0.6,1.3,1.3c0,0.7-0.6,1.3-1.3,1.3
		c-0.7,0-1.3-0.6-1.3-1.3C158.4,11.4,159,10.8,159.7,10.8z M63.3,13.2v-2c0-1.4,0-2.2,0-2.4c0-0.4-0.2-0.6-0.5-0.6
		c-0.1,0-0.3,0-0.4,0c-0.1,0-0.2,0-0.2-0.1c0-0.1,0.1-0.1,0.2-0.1c0.2,0,0.5,0,0.9,0c0.4,0,0.6,0,0.7,0c0.1,0,0.3,0,0.7,0
		c0.4,0,0.7,0,1,0c1,0,1.8,0.1,2.3,0.2c0.9,0.2,1.7,0.6,2.2,1.1c0.7,0.8,1.1,1.7,1.1,2.9c0,1.3-0.4,2.3-1.2,3.2
		c-0.9,0.9-2.1,1.3-3.8,1.3c-0.3,0-0.7,0-1.3-0.1c-0.6,0-0.9-0.1-1.1-0.1c-0.1,0-0.3,0-0.6,0c-0.4,0-0.6,0-0.8,0
		c-0.2,0-0.2,0-0.2-0.1c0-0.1,0.1-0.1,0.3-0.1c0.1,0,0.2,0,0.3,0c0.2,0,0.3-0.2,0.3-0.6C63.3,15.3,63.3,14.5,63.3,13.2z"/>
	<path class="st0" d="M213.2,140.2l1.1-7.5c0-0.2,0.1-0.3,0.2-0.3c0.1,0,0.2,0.1,0.3,0.4l3.2,6.5l3.1-6.6c0.1-0.2,0.2-0.3,0.3-0.3
		c0.1,0,0.2,0.1,0.2,0.4l1.1,7.1c0.1,0.4,0.1,0.7,0.2,0.8c0.1,0.2,0.2,0.3,0.4,0.3c0.3,0.1,0.5,0.1,0.7,0.1c0.1,0,0.2,0,0.2,0.1
		c0,0.1-0.1,0.1-0.3,0.1c-1,0-1.8,0-2.3-0.1c-0.2,0-0.3-0.1-0.3-0.1c0-0.1,0-0.1,0.1-0.1c0.1,0,0.1-0.2,0.1-0.5l-0.7-5.1h0l-2.5,5.3
		c-0.2,0.4-0.4,0.6-0.4,0.6c-0.1,0-0.2-0.2-0.4-0.6c-0.7-1.4-1.2-2.3-1.3-2.6c-0.3-0.6-0.7-1.4-1.2-2.6h0l-0.6,4.6
		c0,0.2,0,0.4,0,0.5c0,0.2,0.1,0.3,0.3,0.4c0.2,0,0.3,0.1,0.5,0.1c0.1,0,0.2,0,0.2,0.1c0,0.1-0.1,0.1-0.3,0.1c-0.2,0-0.4,0-0.7,0
		c-0.3,0-0.5,0-0.5,0c-0.1,0-0.2,0-0.5,0c-0.3,0-0.5,0-0.6,0c-0.1,0-0.2,0-0.2-0.1c0-0.1,0.1-0.1,0.2-0.1c0.1,0,0.2,0,0.3,0
		C213,141.1,213.2,140.8,213.2,140.2 M202.3,137.7V136c0-1.4,0-2.2,0-2.5c0-0.4-0.2-0.6-0.5-0.7c-0.1,0-0.3,0-0.5,0
		c-0.1,0-0.2,0-0.2-0.1c0-0.1,0.1-0.1,0.3-0.1c0.2,0,0.5,0,0.9,0c0.4,0,0.7,0,0.7,0c0.1,0,0.3,0,0.7,0c0.4,0,0.6,0,0.8,0
		c0.2,0,0.3,0,0.3,0.1c0,0.1-0.1,0.1-0.2,0.1c-0.1,0-0.2,0-0.3,0c-0.3,0-0.4,0.3-0.4,0.7c0,0.3,0,1.1,0,2.5v1.6
		c0,1.4,0.3,2.4,0.9,2.8c0.4,0.3,0.9,0.5,1.4,0.5c0.6,0,1.2-0.2,1.6-0.6c0.3-0.3,0.5-0.7,0.6-1.2c0.1-0.4,0.1-0.9,0.1-1.6V136
		c0-1.4,0-2.2,0-2.5c0-0.4-0.2-0.6-0.5-0.7c-0.1,0-0.2,0-0.4,0c-0.1,0-0.2,0-0.2-0.1c0-0.1,0.1-0.1,0.2-0.1c0.3,0,0.8,0,1.3,0
		c0,0,0.2,0,0.5,0c0.3,0,0.6,0,0.8,0c0.2,0,0.2,0,0.2,0.1c0,0.1-0.1,0.1-0.2,0.1c-0.1,0-0.2,0-0.3,0c-0.3,0-0.4,0.3-0.4,0.7
		c0,0.3,0,1.1,0,2.5v1.2c0,0.8-0.1,1.4-0.2,1.9c-0.2,0.7-0.5,1.2-0.9,1.6c-0.6,0.6-1.4,0.8-2.4,0.8c-1.1,0-2-0.3-2.6-0.8
		C202.7,140.1,202.3,139.1,202.3,137.7z M196.3,138v-2c0-1.4,0-2.2,0-2.5c0-0.4-0.2-0.6-0.4-0.6c-0.1,0-0.3,0-0.4,0
		c-0.1,0-0.2,0-0.2-0.1c0-0.1,0.1-0.1,0.3-0.1c0.2,0,0.4,0,0.8,0c0.4,0,0.6,0,0.7,0c0.1,0,0.3,0,0.6,0c0.3,0,0.6,0,0.8,0
		c0.2,0,0.2,0,0.2,0.1c0,0.1-0.1,0.1-0.2,0.1c-0.1,0-0.2,0-0.4,0c-0.3,0-0.4,0.3-0.4,0.7c0,0.3,0,1.1,0,2.5v2c0,1.4,0,2.2,0,2.5
		c0,0.3,0.2,0.5,0.5,0.6c0.2,0,0.4,0,0.6,0c0.1,0,0.2,0,0.2,0.1c0,0.1-0.1,0.1-0.2,0.1c-0.3,0-0.6,0-1.1,0c-0.4,0-0.7,0-0.7,0
		c-0.1,0-0.3,0-0.7,0c-0.4,0-0.6,0-0.8,0c-0.2,0-0.2,0-0.2-0.1c0-0.1,0.1-0.1,0.3-0.1c0.1,0,0.2,0,0.3,0c0.2,0,0.3-0.2,0.3-0.6
		C196.3,140.2,196.3,139.3,196.3,138z M182.2,140.2l1.1-7.5c0-0.2,0.1-0.3,0.2-0.3c0.1,0,0.2,0.1,0.3,0.4l3.2,6.5l3.1-6.6
		c0.1-0.2,0.2-0.3,0.3-0.3c0.1,0,0.2,0.1,0.2,0.4l1.1,7.1c0.1,0.4,0.1,0.7,0.2,0.8c0.1,0.2,0.2,0.3,0.4,0.3c0.3,0.1,0.5,0.1,0.7,0.1
		c0.1,0,0.2,0,0.2,0.1c0,0.1-0.1,0.1-0.3,0.1c-1,0-1.8,0-2.3-0.1c-0.2,0-0.3-0.1-0.3-0.1c0-0.1,0-0.1,0.1-0.1c0.1,0,0.1-0.2,0.1-0.5
		l-0.7-5.1h0l-2.5,5.3c-0.2,0.4-0.4,0.6-0.4,0.6c-0.1,0-0.2-0.2-0.4-0.6c-0.7-1.4-1.2-2.3-1.3-2.6c-0.3-0.6-0.7-1.4-1.2-2.6h0
		l-0.6,4.6c0,0.2,0,0.4,0,0.5c0,0.2,0.1,0.3,0.3,0.4c0.2,0,0.3,0.1,0.5,0.1c0.1,0,0.2,0,0.2,0.1c0,0.1-0.1,0.1-0.3,0.1
		c-0.2,0-0.4,0-0.7,0c-0.3,0-0.5,0-0.5,0c-0.1,0-0.2,0-0.5,0c-0.3,0-0.5,0-0.6,0c-0.1,0-0.2,0-0.2-0.1c0-0.1,0.1-0.1,0.2-0.1
		c0.1,0,0.2,0,0.3,0C182,141.1,182.1,140.8,182.2,140.2z M174.3,138v-2c0-1.4,0-2.2,0-2.5c0-0.4-0.2-0.6-0.5-0.7c-0.1,0-0.3,0-0.5,0
		c-0.1,0-0.2,0-0.2-0.1c0-0.1,0.1-0.1,0.3-0.1c0.2,0,0.5,0,0.9,0c0.4,0,0.6,0,0.7,0c1.8,0,2.8,0,2.9,0c0.2,0,0.4,0,0.5-0.1
		c0.1,0,0.2,0,0.2,0c0,0,0.1,0,0.1,0.1c0,0,0,0.1,0,0.2c0,0.2,0,0.3-0.1,0.5c0,0.2,0,0.5-0.1,0.8c0,0.1-0.1,0.1-0.1,0.1
		c-0.1,0-0.1,0-0.1-0.1c0-0.1,0-0.2,0-0.2c0-0.1,0-0.1,0-0.2c-0.1-0.2-0.4-0.4-0.8-0.4c-0.3,0-0.8,0-1.6,0c-0.1,0-0.1,0-0.1,0.1v2.9
		c0,0.1,0,0.1,0.1,0.1c1.1,0,1.7,0,1.9,0c0.1,0,0.2,0,0.3,0c0.1,0,0.2-0.1,0.3-0.1c0.1-0.1,0.2-0.2,0.2-0.2c0.1,0,0.1,0,0.1,0.1
		c0,0,0,0.1,0,0.2c0,0.2,0,0.4-0.1,0.6c0,0.4,0,0.7,0,0.8c0,0.1,0,0.2-0.1,0.2c-0.1,0-0.1,0-0.1-0.1c0-0.1,0-0.2,0-0.4
		c-0.1-0.3-0.3-0.4-0.6-0.5c-0.2,0-0.8,0-1.6,0c0,0-0.1,0-0.1,0.1v2.7c0,0.4,0.1,0.7,0.3,0.8c0.2,0.1,0.5,0.2,1.1,0.2
		c0.5,0,0.9,0,1.1-0.1c0.3-0.1,0.4-0.4,0.5-0.9c0-0.1,0.1-0.2,0.1-0.2c0.1,0,0.1,0.1,0.1,0.2c0,0.5-0.1,0.9-0.2,1.3
		c0,0.1-0.1,0.2-0.2,0.3c-0.1,0-0.2,0-0.5,0c-0.7,0-1.3,0-2,0c-0.7,0-1.1,0-1.2,0c-0.1,0-0.3,0-0.7,0c-0.4,0-0.6,0-0.8,0
		c-0.2,0-0.2,0-0.2-0.1c0-0.1,0.1-0.1,0.3-0.1c0.1,0,0.2,0,0.3,0c0.2,0,0.3-0.3,0.3-0.6C174.3,140.2,174.3,139.3,174.3,138z
		 M165.6,133.4v3.5c0,0.1,0,0.2,0.1,0.2c0.2,0.1,0.5,0.1,0.9,0.1c0.4,0,0.6-0.1,0.8-0.2c0.5-0.3,0.7-0.9,0.7-1.7
		c0-0.7-0.2-1.3-0.6-1.7c-0.3-0.3-0.7-0.4-1.1-0.4c-0.4,0-0.6,0-0.7,0.1C165.7,133.3,165.6,133.3,165.6,133.4z M164.3,138v-2
		c0-1.4,0-2.2,0-2.5c0-0.4-0.2-0.6-0.5-0.7c-0.1,0-0.3,0-0.5,0c-0.1,0-0.2,0-0.2-0.1c0-0.1,0.1-0.1,0.3-0.1c0.2,0,0.6,0,0.9,0
		c0.4,0,0.6,0,0.6,0c0.1,0,0.4,0,0.8,0c0.4,0,0.7,0,0.8,0c0.9,0,1.6,0.2,2.1,0.5c0.2,0.1,0.4,0.3,0.5,0.6c0.2,0.3,0.3,0.6,0.3,1
		c0,0.9-0.5,1.8-1.5,2.6c0.8,1.1,1.3,1.6,1.4,1.7c0.4,0.6,0.8,1,1.1,1.3c0.4,0.4,0.9,0.7,1.3,0.8c0.1,0,0.2,0,0.3,0
		c0.1,0,0.2,0.1,0.2,0.1c0,0.1-0.1,0.1-0.2,0.1h-1.1c-0.6,0-1-0.1-1.2-0.2c-0.4-0.2-0.9-0.8-1.6-1.7c-0.3-0.5-0.7-1-1.1-1.6
		c0-0.1-0.1-0.1-0.2-0.1h-1c-0.1,0-0.1,0-0.1,0.1v0.2c0,1.3,0,2.1,0.1,2.5c0,0.4,0.2,0.6,0.5,0.6c0.2,0,0.4,0,0.6,0
		c0.1,0,0.1,0,0.1,0.1c0,0.1-0.1,0.1-0.2,0.1c-0.3,0-0.6,0-1,0c-0.4,0-0.6,0-0.7,0c-0.1,0-0.3,0-0.6,0c-0.4,0-0.6,0-0.8,0
		c-0.2,0-0.2,0-0.2-0.1c0-0.1,0.1-0.1,0.3-0.1c0.1,0,0.2,0,0.3,0c0.2,0,0.3-0.3,0.3-0.6C164.3,140.2,164.3,139.3,164.3,138z
		 M228.9,135.7c0.7,0,1.3,0.6,1.3,1.3c0,0.7-0.6,1.3-1.3,1.3c-0.7,0-1.3-0.6-1.3-1.3C227.6,136.2,228.2,135.7,228.9,135.7z
		 M149.5,135.7c0.7,0,1.3,0.6,1.3,1.3c0,0.7-0.6,1.3-1.3,1.3c-0.7,0-1.3-0.6-1.3-1.3C148.2,136.2,148.8,135.7,149.5,135.7z
		 M155.4,138v-2c0-1.4,0-2.2,0-2.5c0-0.4-0.2-0.6-0.5-0.7c-0.1,0-0.3,0-0.5,0c-0.1,0-0.2,0-0.2-0.1c0-0.1,0.1-0.1,0.3-0.1
		c0.2,0,0.5,0,0.9,0c0.4,0,0.6,0,0.7,0c0.2,0,0.4,0,0.8,0c0.4,0,0.7,0,0.9,0c1,0,1.7,0.2,2.1,0.7c0.4,0.4,0.6,0.8,0.6,1.4
		c0,0.8-0.3,1.5-0.8,2c-0.5,0.5-1.2,0.8-2,0.8c-0.1,0-0.2,0-0.2,0c-0.1,0-0.1,0-0.1-0.1c0-0.1,0.1-0.1,0.3-0.1c0.4,0,0.7-0.2,1-0.5
		c0.4-0.4,0.5-0.9,0.5-1.4c0-0.7-0.2-1.3-0.7-1.7c-0.3-0.3-0.7-0.5-1.2-0.5c-0.2,0-0.4,0-0.4,0c-0.1,0-0.1,0.1-0.1,0.2v4.6
		c0,1.3,0,2.1,0.1,2.5c0,0.4,0.2,0.6,0.5,0.6c0.2,0,0.4,0,0.6,0c0.1,0,0.2,0,0.2,0.1c0,0.1-0.1,0.1-0.2,0.1c-0.3,0-0.6,0-1.1,0
		c-0.4,0-0.7,0-0.7,0c-0.1,0-0.3,0-0.7,0c-0.4,0-0.6,0-0.8,0c-0.2,0-0.2,0-0.2-0.1c0-0.1,0.1-0.1,0.3-0.1c0.1,0,0.2,0,0.3,0
		c0.2,0,0.3-0.3,0.3-0.6C155.4,140.2,155.4,139.3,155.4,138z"/>
</g>
</svg>
