<svg xml:space="preserve" enable-background="new 0 0 500 500" viewBox="0 0 500 500" xmlns="http://www.w3.org/2000/svg"><path fill="#094c44" d="M277.8 53.6c-12.4 1.9-25.6 1.4-36.8 6.9-10.2 5.1-17.8 14.7-28.3 19-11.7 4.8-24.8 2.4-37.4 1.4-12.6-1.1-26.8 0-35.2 9.4C150.9 56.5 173 26.6 201 4.8s61.9-35.7 97-41.5c10.6-1.8 21.7-2.9 32.2-.1 10.5 2.8 20.3 10.1 23.6 20.4 5.1 16.2-12.8 31.7-22.9 42.3-14.1 14.6-33 24.6-53.1 27.7z"/><path fill="#094c44" d="M485.9 55.2c-10.3 15.1-29.6 20.3-46.3 27.8-16.7 7.5-33.9 22.3-31.1 40.3 1.4 9.1 7.9 18.5 3.6 26.7-6.3 11.9-26.7 5.8-35.8 15.7-6.3 6.9-3.9 17.8-6.3 26.8-3 11.7-13.9 19.7-25.1 24.3-11.1 4.7-23.2 7.1-33.8 12.9-10.6 5.8-19.8 16.5-19 28.6-6-21.6-12.1-43.4-12.2-65.8s6.4-45.7 22.4-61.4c10.8-10.7 26.5-19.1 28.6-34.2 1.3-9.4-3.3-18.4-6.9-27.1-3.5-8.8-5.9-19.3-.6-27.2 5.7-8.5 17.7-10 25.6-16.5 10.4-8.6 11.5-23.8 16.8-36.2 8.7-20.6 30.4-34.2 52.7-36.4 21.7-2.2 51.5 3.9 61.1 25.6 9.7 21.8 21.2 54.3 6.3 76.1z"/><path fill="#06332c" d="M418.7 36.9c-18.7 11.2-38.9 20-59.9 25.9-.7.2-.4 1.3.3 1.1 20.3-5.8 39.9-14.1 58.1-24.8-2.3 2.9-4.6 5.7-7 8.5-26.8 32.1-56.1 62.7-77.3 99-.4.6-.7 1.3-1.1 1.9h-.1c-8.1 5.9-16.2 11.8-24.2 17.8-.6.4.2 1.3.8.8 7.4-5.4 14.8-10.8 22.1-16.2-.1.1-.2.3-.2.4-10.2 18.4-18.1 38.2-21.7 59-.1.7 1 1 1.1.3 3.6-20.4 11.1-39.4 20.8-57.3 1.1 8.6 2.2 17.2 3.4 25.8.1.7 1.2.4 1.1-.3l-3.6-27.3c10.1-18.2 22.5-35.2 35.6-51.3 11.3-14 23.2-27.5 34.9-41.1-9.8 23.6-16.1 48.5-18.5 73.9-.1.7 1.1.7 1.2 0 2.5-26.1 9-51.7 19.3-75.8.1-.2 0-.4 0-.5 15.2-17.8 30-36 42.6-55.8s22.7-41.2 28-64.2c.2-.7-.9-1-1.1-.3-8.7 37.7-30.2 70.3-54.1 100.1-.3.3-.4.3-.5.4z"/><path fill="#047a69" d="M474 146.8c-7.1 10.4-20.5 14.1-32 19.2-11.5 5.2-23.5 15.4-21.5 27.9 1 6.3 5.4 12.8 2.5 18.5-4.3 8.2-18.5 4-24.7 10.9-4.4 4.8-2.7 12.3-4.3 18.5-2.1 8.1-9.6 13.6-17.3 16.8-7.7 3.2-16.1 4.9-23.4 8.9s-13.7 11.4-13.1 19.7c-4.2-14.9-8.3-30-8.4-45.5s4.4-31.6 15.5-42.5c7.5-7.4 18.3-13.2 19.8-23.6.9-6.5-2.3-12.7-4.7-18.7-2.4-6.1-4.1-13.4-.4-18.8 3.9-5.9 12.3-6.9 17.7-11.4 7.2-6 8-16.4 11.6-25 6-14.3 21-23.7 36.4-25.2 15-1.5 35.6 2.7 42.2 17.7 6.4 15.1 14.4 37.6 4.1 52.6z"/><path fill="none" stroke="#056051" stroke-miterlimit="10" stroke-width=".25" d="M427.6 134.2c-13 7.8-26.9 13.8-41.4 17.9-.5.1-.3.9.2.8 14.1-4 27.6-9.8 40.2-17.2-1.6 2-3.2 3.9-4.8 5.9-18.5 22.2-38.8 43.3-53.5 68.4-.3.4-.5.9-.7 1.3h-.1l-16.8 12.3c-.4.3.1.9.6.6 5.1-3.7 10.2-7.5 15.3-11.2-.1.1-.2.2-.2.3-7.1 12.7-12.5 26.4-15 40.8-.1.5.7.7.8.2 2.5-14.1 7.6-27.2 14.4-39.6.8 6 1.6 11.9 2.3 17.9.1.5.8.3.8-.2-.8-6.3-1.6-12.6-2.5-18.8 7-12.6 15.6-24.3 24.6-35.5 7.8-9.7 16-19 24.1-28.4-6.8 16.3-11.1 33.5-12.8 51.1 0 .5.8.5.8 0 1.7-18 6.2-35.7 13.4-52.4.1-.1 0-.2 0-.3 10.5-12.3 20.7-24.9 29.4-38.6 8.7-13.7 15.7-28.5 19.3-44.4.1-.5-.7-.7-.8-.2-6 26.1-20.9 48.6-37.4 69.2-.1 0-.2 0-.2.1z"/><path fill="#094c44" d="M375.1 174.5v.3c.8.1 1.6.3 2.4.4 12.3 3.2 22.1 12.1 31.5 20.7-9.6-6.2-21.5-8.8-32.9-7.3 1.7 10.7 5.4 21.1 9.3 31.3 1.8 4.7 3.6 9.4 5.5 14.1 2.7 0 5.4.4 7.9 1.3 6.2 2.2 11.3 6.7 15.9 11.4-6-.6-12.2-1.2-18.1.1-.2 0-.3.1-.5.1 6.3 15.4 13 30.6 20.1 45.6.2-.3.5-.5.7-.8 8-8.2 19.1-12 30.2-15.9-4.1-7.1-9-13.9-14.5-20 8.1 2.1 14.8 7.6 21.2 12.9 1.2 1 2.4 2 3.5 3.1l2.7-1.2c6.8-3.2 13.1-7.4 18.7-12.4-9.5-9.4-21.7-16-34.8-18.8 7.3-4 16.3-2.1 24.4-.2 5.7 1.4 11.3 2.7 17 4.1 1.8.4 3.6.9 5.2 1.7 6.2-8.6 10.7-18.3 13.2-28.5-10.2-3.3-21.5-4-32.3-4.7 8.8-5.9 18.8-10.1 29.2-12.2 1.7-.4 3.6-.6 5.3-.5V197c-.2-11.8-3.5-23.9-10.1-33.6-7.9 1.8-15.7 3.5-23.6 5.3 2.1-4.2 4.5-8.3 8-11.5 1.8-1.7 3.9-3 6.2-3.9-.3-.2-.5-.4-.8-.6-13-9.7-32.9-10.3-44.7.5l-.9-2.1c-3.4-7-9.4-12.7-16.7-15.7-8.1-3.4-17.7-3.2-25.7.5l-.6.3c2.7 2.3 4.6 5.3 6.1 8.4 3.2 6.2 5.3 13 6.2 20-6-8.5-14.6-15-24.3-18.6-6.2 8-9.5 18.4-9.9 28.5z"/><path fill="#0a6159" d="M435.4 144.4c-3.3-3.8-7.4-6.9-12.1-8.8-8.1-3.4-17.7-3.2-25.7.5l-.6.3c2.7 2.3 4.6 5.3 6.1 8.4 3.2 6.2 5.3 13 6.2 20-6-8.5-14.6-15-24.3-18.6-6.2 7.8-9.5 18.2-9.9 28.4v.3c.8.1 1.6.3 2.4.4 12.3 3.2 22.1 12.1 31.5 20.7-9.6-6.2-21.5-8.8-32.9-7.3 1.7 10.7 5.4 21.1 9.3 31.3 1.8 4.7 3.6 9.4 5.5 14.1 2.7 0 5.4.4 7.9 1.3 6.2 2.2 11.3 6.7 15.9 11.4-6-.6-12.2-1.2-18.1.1-.2 0-.3.1-.5.1 6.3 15.4 13 30.6 20.1 45.6.2-.3.5-.5.7-.8 1.9-4.8 16.6-42 14.5-79.4s9.6-59.1 9.6-59.1l-5.6-8.9z"/><path fill="#2abcaa" d="M293.9-38.4c.6 11.3 2.3 22.6.4 33.8s-8.1 22.4-18.7 26.4c-10.5 4-24.9-2.5-25.7-13.8-.3-4.5.6-10.6-3.6-12.3-4-1.7-7.8 2.9-8.8 7.1-1.7 6.8-.7 14-.2 21s.2 14.5-3.7 20.4c-3.9 5.8-12.7 8.8-18.3 4.5-2.1-1.6-3.5-4.1-5.9-5.2-4-1.9-8.8 1-11.1 4.7s-3.1 8.2-5 12.2c-6.5 14.1-27.7 18.5-39.2 8.2-11.6-10.3-9.6-31.9 3.7-39.9 4.1-2.5 9-3.8 12.6-6.9s5.5-9.3 2.1-12.6c-3.5-3.4-9.3-1.5-14.1-2.6-7.9-1.8-11.3-12.2-8.2-19.7s10.7-12.2 18.2-15c7.6-2.9 15.7-4.4 22.8-8.2 2.5-1.3 5.2-3.5 4.9-6.3-.4-4.5-6.8-4.7-11.3-5.6-10.7-2.1-16.1-15.5-12.9-25.9 3.2-10.4 12.5-17.8 22.1-22.9 15.5-8.2 32.9-11.8 50-15 16.6-3.1 33.4-9 49.9-11.4 23.2-3.3 8 20.4 4.9 32.8-4.1 17-5.8 34.6-4.9 52.2z"/><path fill="#1f9b89" d="M206-63.4c-.7.3-.1 1.3.5 1 33.1-13.5 64-30.9 91.8-53.4-26 29.2-50.4 59.9-72.9 91.9h-.1c-12.6 6.8-25.9 12.2-39.7 16.1-.7.2-.4 1.3.2 1.1 13.2-3.7 26-8.8 38.1-15.2-4.9 7-9.7 14-14.4 21.1-8.7 13.1-17.2 26.4-25.3 39.9-.4.6.6 1.2 1 .6 8.5-14.1 17.3-28 26.5-41.7.2 8.2.3 16.4.5 24.6 0 .7 1.1.8 1.1 0-.2-8.7-.3-17.4-.5-26.1v-.2c16.2-24.2 33.5-47.6 51.7-70.4-3 21.3-4 42.9-3 64.4 0 .7 1.1.8 1.1 0-1.1-22.1 0-44.3 3.3-66.2 5.5-6.8 11-13.6 16.7-20.2 10.1-11.9 20.4-23.6 31-35 .5-.5-.3-1.3-.8-.8-3.3 3.6-6.6 7.2-9.8 10.8-.1 0-.2 0-.3.1C273.6-96.3 241-77.6 206-63.4z"/><path fill="#2abcaa" d="M457.7 104.4c5.1 35.4-2.3 58.3-1.9 87-16.7-32.9-3.2-78.1 1.2-86.2-10.1 9.9-19.2 21-26.8 32.9 1.6 22.1 8.2 40.4 3.2 64.6-11.6-19.4-7.5-51.9-4.4-62.7-6.7 10.7-12.3 22.1-16.6 34 5.8 17.5 8.5 35.6 8 53.4-7.9-14.3-11.6-31-10.1-47.3-3.1 9.5-5.4 19.3-7 29.3.6.3 1.1.6 1.7.9 7.5 12.5 11.1 26.8 10.5 40.7-7-10-11.6-21.8-13.1-33.8-.7 6-1 12-1.1 18.1 1.5 1.7 5.6 7.8 5.6 7.8 6.2 10.7 9.9 22 12.9 33.7-6.8-7.1-16.7-32-18.6-39.6 0 8.2.5 16.5 1.6 24.7.2.2.4.3.6.5 5.8 7 8.9 15.8 10.4 24.4s1.5 17.3 1.9 26c-16.9-13.6-12.5-34.9-13.9-51.8 0 0 .1 0 .1.1-1-7.4-1.6-14.8-1.8-22.2-5.9 11.6-10.3 24.1-14.3 36.9-1-13.8 3.2-27.3 11.4-37.3 0 0 2-1.4 2.9-1.4-.1-9.5.5-19 1.8-28.3.2-1.4.4-2.9.7-4.3-3.1 5-16.4 31.3-37.1 41.3 7.5-17.2 22.1-32.7 37.2-41.9 1.9-10.9 4.7-21.6 8.4-31.9-6.9 6.7-29.2 33.1-50.4 42.2 7.5-8 13.9-20.8 21.5-28.7 7.3-7.6 19.3-12.9 29.5-15.2 4.3-11.5 9.8-22.6 16.2-33-21.2 15.5-44.6 32.7-74.2 39.8 15.3-22.9 65.6-39.7 75.1-41.3 7.5-11.8 16.3-22.8 26.3-32.7-7.2 4-28.7 18.4-41 23-15 5.2-28.1 10.3-45.1 9.9 27.4-26.4 57.3-34.3 87.5-34.3 11.3-11.1 24-20.8 37.7-28.8.9-.5 2-.3 2.6.5s.3 1.8-.6 2.3c-13.9 7.8-26.9 17.5-38.5 28.7z"/><path fill="#047a69" d="M365.4 56.3c-33-5-53.4 3.3-79.8 3.4 31.8 17.5 72.1 2.2 79.2-2.5-8.2 11.1-17.4 21-27.7 29.4-20.5-1.4-37.9-8.2-59.7-2.5 18.9 12.2 48.4 7.4 58.1 3.8-9.2 7.4-19.2 13.6-29.7 18.4-16.7-6-33.6-8.6-49.9-7.8 13.9 8.4 29.6 12 44.4 10.2-8.5 3.5-17.2 6.2-26.3 7.9-.3-.6-.7-1.2-1-1.8-12.2-7.9-25.7-11.6-38.4-10.7 9.9 7.4 21.1 12.2 32.4 13.7-5.4.8-11 1.3-16.5 1.4-1.7-1.6-7.7-6-7.7-6-10.5-6.5-21.2-10.3-32.2-13.5 7.2 7.3 31 17.5 38.2 19.5-7.6.1-15.2-.3-22.9-1.3-.2-.2-.3-.4-.5-.6-7-6.1-15.3-9.3-23.4-10.8-8.1-1.5-16-1.3-24.1-1.6 14.2 18 33.3 13 48.9 14.2 0 0 0-.1-.1-.1 6.9 1 13.8 1.5 20.6 1.6-10.1 6.5-21.2 11.5-32.6 16 12.8.9 24.8-3.9 33.2-12.8 0 0 1.1-2.1 1-3.2 8.7 0 17.4-.8 25.8-2.4 1.3-.2 2.6-.5 3.9-.8-4.3 3.4-27.2 18.1-34.4 40.6 15.1-8.4 27.9-24.3 35-40.7 9.8-2.2 19.4-5.4 28.5-9.6-5.5 7.6-27.6 32-34 55 6.6-8.2 17.8-15.3 24.3-23.7 6.3-8 10-21 11.2-32 10.2-4.8 19.9-10.9 28.8-18-12.2 23.1-25.7 48.6-29.5 80.6 19.6-16.8 30.2-71.4 30.7-81.6 10.1-8.3 19.4-18 27.5-28.8-3 7.8-14.1 31.2-17.2 44.6-3.3 16.3-6.8 30.5-4.8 48.8 22.1-30 26.5-62.4 23.5-95 9.1-12.4 16.8-26.2 22.9-41.1.4-1 .1-2.2-.7-2.8-.8-.6-1.7-.3-2.1.6-6 15.2-13.7 29.3-22.9 42z"/><path fill="#094c44" d="M562.3 123.4c2.3 14.6 2 17.7.3 32.3-1.7 14.7-8.1 29.4-20.2 38-8.5 6.1-19.3 8.8-26.7 16.1-6.4 6.4-9.3 15.5-14.5 23-16.6 24-52.3 27.1-71 49.5 11.7-29 24.5-59.6 49.7-78.2 7.2-5.3 15.2-9.4 21.9-15.4 11.3-10.1 17.7-24.4 25-37.7s16.6-26.7 30.7-32.3l4.8 4.7z"/><path fill="#047a69" d="M555.1 113c8.4 12.1 9.5 15 14.3 29s5.5 30-1.6 43c-5 9.1-13.6 16.3-17 26.1-3 8.6-1.7 18-3.1 27-4.5 28.8-35.3 47.2-42.4 75.5-2.1-31.2-3.9-64.3 10.7-92 4.2-7.9 9.6-15.1 13-23.4 5.8-14 5.4-29.7 6.1-44.9.8-15.2 3.3-31.3 13.6-42.5l6.4 2.2z"/><path fill="#2abcaa" d="M621.1 97.2c5.5 10 11.9 19.6 15.1 30.6 3.2 10.9 2.4 23.9-5.5 32.2-7.8 8.3-23.7 8.6-29.4-1.3-2.3-4-4-9.9-8.6-9.7-4.3.2-5.8 6.1-5 10.3 1.4 7 5.5 13 9 19.2s6.5 13.1 5.5 20.2c-1 7-7.7 13.6-14.7 12-2.6-.6-5-2.2-7.6-2.1-4.5 0-7.6 4.7-8.1 9.2-.5 4.4.7 8.9.8 13.3.2 15.7-17.1 28.9-32.2 24.5-15-4.4-22.6-24.8-14-37.9 2.7-4.1 6.5-7.4 8.5-11.8s1-10.9-3.6-12.4c-4.7-1.6-9.1 2.6-13.9 3.7-8 1.8-15.6-6.2-16-14.4s4.4-15.7 10.1-21.6c5.6-5.9 12.3-10.9 17.2-17.4 1.7-2.3 3.2-5.4 1.7-7.9-2.4-3.9-8.2-1.3-12.7-.2-10.6 2.8-21.4-7.1-23-18s3.6-21.6 10.2-30.4c10.6-14.2 24.8-25 39-35.4 13.7-10 26.5-22.8 40.5-32.1 19.7-13.1 16.1 15.1 18.7 27.7 3.4 17.2 9.5 34.1 18 49.7z"/><path fill="#1f9b89" d="M530.2 112.8c-.5.5.4 1.2.9.7 24.3-26.7 44.8-56 60.3-88.6-11 37.9-19.8 76.5-26.4 115.4v.1c-8.5 11.7-18.3 22.4-29.1 31.9-.5.5.2 1.4.7.9 10.4-9.2 19.8-19.3 28.1-30.4-1.4 8.5-2.7 17-4 25.5-2.2 15.7-4.1 31.5-5.6 47.4-.1.7 1.1.8 1.1.1 1.6-16.5 3.6-33 6-49.5 3.7 7.4 7.4 14.8 11.2 22.2.3.6 1.4.2 1-.5-3.9-7.8-7.9-15.7-11.8-23.5 0-.1-.1-.1-.1-.1 4.2-29.1 9.7-58 16.4-86.6 6.5 20.7 15 40.8 25.3 60 .3.6 1.4.2 1-.5-10.6-19.7-19.3-40.3-25.9-61.7 2-8.6 4.1-17.1 6.4-25.7 4-15.2 8.3-30.4 13-45.4.2-.7-.8-1.1-1-.4-1.5 4.7-2.9 9.4-4.3 14.1-.1.1-.2.1-.2.2-15.8 34.9-37.3 66.1-63 94.4z"/><path fill="#094c44" d="M201.8 194.7c2.6-2.5 6.7-2.5 9.2.1s2.5 6.7-.1 9.2-6.7 2.5-9.2-.1c-2.4-2.5-2.4-6.7.1-9.2z"/><path fill="#2abcaa" d="M142.1 158.7c2.4-2.4 6.3-2.4 8.7 0s2.4 6.3 0 8.7-6.3 2.4-8.7 0-2.4-6.3 0-8.7zm4.9 94.6c2.7-2.7 7.1-2.6 9.7.1 2.7 2.7 2.6 7.1-.1 9.7-2.7 2.7-7.1 2.6-9.7-.1-2.6-2.6-2.6-7 .1-9.7zm50.8-145.5c1.2-1.2 3.1-1.2 4.3 0s1.2 3.1 0 4.3c-1.2 1.2-3.1 1.2-4.3 0s-1.2-3.1 0-4.3zM85.6 139.1c2.1-2.1 5.5-2.1 7.6 0s2.1 5.5 0 7.6-5.5 2.1-7.6 0c-2.2-2.1-2.2-5.5 0-7.6z"/><circle cx="71.2" cy="90.8" r="7.7" fill="#0a6159"/><circle cx="181.2" cy="223.9" r="2.7" fill="#094c44"/><path fill="#047a69" d="M406.5 338.5c2-1.9 5.1-1.9 7 0 1.9 2 1.9 5.1 0 7-2 1.9-5.1 1.9-7 0-2-1.9-1.9-5 0-7z"/><path fill="#2abcaa" d="M451.9 354c1.7-1.6 4.3-1.6 6 0 1.6 1.7 1.6 4.3 0 6a4.35 4.35 0 0 1-6 0c-1.7-1.7-1.7-4.4 0-6z"/><path fill="#047a69" d="M333.1 339c2.6-2.5 6.7-2.5 9.3.1s2.5 6.7-.1 9.3-6.7 2.5-9.3-.1c-2.5-2.6-2.5-6.7.1-9.3z"/><circle cx="96.2" cy="233.8" r="2.9" fill="#0a6159"/><path fill="#047a69" d="M236.7 91.5c-5.5 4.5-11 9.4-16.4 14.4-1.9 1.7-3.7 3.5-5.6 5.3 3.4 2.7 12.6 8 20.2-3.6 1.5-2.3 3-5.4 4.3-9.3 0 0 12.7-13.7 7 8.6l-1 1.5c-2.7 4-10.6 14.6-18.4 15.8 0 0 11.8 11 23.8 2.9 4.1-2.7 8.1-7.6 11.8-15.9.3-.6.5-1.2.8-1.8.1-.2.1-.4.2-.5 0 0 2.8-1.3 5.6-1.5 1.8-.1 3.6.3 4.6 2 .5.9.8 2.3.7 4.1-.3 4.1-2.4 7.8-5.6 10.3l-15.8 12.8s3.7 1.9 9.1 3.5c14.2 4.1 40.6 6.1 46.5-33.4.6-3.9 1-8.3 1.1-13.1 0 0-.4-12.1 2.1-22 2.5-10 8-17.8 19.7-9.4 0 0 1.4 1 3.1 3.2 4.1 5.3 9.8 17.6-.4 38.5-5.2 10.7-14.5 23.7-30.2 39.2l22.5-3.8c10-1.7 18.7-7.8 23.3-16.8 3.1-5.9 6.2-14 8.7-25 .7-3 1.3-6.2 1.9-9.6 0 0 3.5 1.8 5.9 6.6 3.9 7.6 5.2 22.7-14.2 49.8 0 0 36.6-4.6 41.7-31.5 0 0 3.1-11.7 1.4-31.7-.7-9.2-2.5-20.1-6-32.5-.5-1.6-1-3.3-1.5-4.9 0 0-1.8-15.1 10.4-15.4 0 0 6.5 1.1 10.9 11.4 2.7 6.2 4.6 15.8 3.9 30.5-.6 12.9-3.2 29.8-9.1 51.8 0 0 9.2 1.1 18.6-10.4 9.3-11.3 11.5-26.8 6.7-40.6-.9-2.5-2-5.4-3.2-8.6 0 0 2.5-4 12.9.6 0 0 1.9-5.5 1.6-13.3-.3-6-1.9-13.4-6.8-20.7-3.2-4.7-7.7-9.4-14-13.8-2.3-1.6-2.4-4.8-.4-6.5-18.4 2.8-104 17.9-182.4 82.8zm124.2-51.2c.6.3 1.1.9 1.5 1.5 2.8 4.1 5 9.1 6.3 14.1.6 2.1 1 4.3 1.2 6.4.6 5.3-2.3 20.8-11.4 15.5l-1.2-.9c-1.2-1.3-1.7-3.2-2.1-4.9-.8-3.9-1.2-7.9-1.1-11.8.1-5.6 1-11.2 2.9-16.5.6-1.9 2.2-4.1 3.9-3.4zm-62.2 18.3c3.3-.2 3.6 3.6 2.4 6.1-1 2.1-3 3.9-4.3 5.8-3.6 5.3-2.2 11.2-3.1 17.1-.4 2.4-.9 4.6-3.3 5.7-1.8.8-4.5.4-5.9-1-1.5-1.2-.4-8.7-.3-9.8.6-4.6 2-8.2 4.1-12.3 2.2-4.4 4.4-11.2 10.4-11.6z"/><linearGradient id="a" x1="868.799" x2="737.309" y1="249.886" y2="172.055" gradientTransform="rotate(-122.147 507.464 229.532)" gradientUnits="userSpaceOnUse"><stop offset=".001" stop-color="#28a884"/><stop offset=".233" stop-color="#35af89"/><stop offset=".415" stop-color="#16995f"/><stop offset=".566" stop-color="#008940"/><stop offset=".626" stop-color="#058d47"/><stop offset=".716" stop-color="#14975c"/><stop offset=".824" stop-color="#2ca97d"/><stop offset=".859" stop-color="#35af89"/></linearGradient><path fill="url(#a)" d="M355.8-13.8c-.5-.4-.9-.8-1.4-1.3-3.3-3.2-7.1-7.3-11.4-12.5-2.6-3.2-5.4-6.8-8.3-10.8 0 0-17-20.4-44.8-12 0 0-21.1 5.8-28.6 13.6 0 0-4.4 4.8 47.9 15.7 0 0 7.8.9 14.4 4.5C330.5-13 336-6.4 330.1 5c-.5 1-1.4 1.8-2.4 2.2 0 0-.1 0-.2.1-3.7 1.3-13 2.7-27.7-7.9-3.5-2.5-7.3-5.7-11.4-9.7 0 0-16.9-23.5-48 6.9 0 0-7.9 8.4-11.3 16.6 0 0 30.6-4.3 53.6-.6 11.4 1.9 20.9 5.7 23.7 13 .5 1.1.7 2.4.8 3.7 0 0 1.7 7.4-11.5 5.5-4.8-.7-11.7-2.6-21.3-6.6 0 0-2.6-1.5-6.7-3.2-9.3-3.7-26.4-8.1-38.8 3 0 0-8.5 7.5-13.9 32.3 0 0 10.8-5.9 20.6-7.7 7.3-1.3 14-.4 15.5 6.7 0 0-.5 9.8-25.8 11.6 0 0-8.9 15.2-11.9 39.1h.1c.1.2.6.6 1.3 1.1 1.8-1.8 3.7-3.6 5.6-5.3 5.4-5 10.9-9.9 16.4-14.4 78.4-64.9 164-80 182.4-82.6.3-.2.6-.5 1-.7.8-.4 1.8-.8 2.9-1.2 5.6-2 15.4-3.9 32.1-4.8 1.2-.1 2.4-.7 3.1-1.6 2.3-3-.2-7.3-4-6.8L414.8-.2s9.5-18 4.9-34.9c-.7-2.5-3.6-3.6-5.7-2l-9.4 6.8c.1-.4 2.2-7.1.5-15-.1-.7-.3-1.5-.5-2.2-3.8-13.3-18.9-28.6-70.1-23.2 0 0-12.2.3-24.6 9.4 0 0 34.6 7.7 54.2 24.5 3.1 2.7 5.9 5.6 8.1 8.8.1.1.1.1.1.2 6.9 10.5-7.1 22.5-16.5 14zm-26.4 35.7c.5 1.4-.1 3.2-1.4 4-1.2.8-2.6.7-4 .6-5.4-.7-10.9-3.8-14-8.4-.4-.6-.8-1.4-.6-2.1.2-.6.9-1 1.6-1.1.7-.1 1.3.1 2 .3 3.8 1.1 7.7 2.2 11.5 3.3 1.8.5 3.9 1.2 4.7 2.9.1.2.2.4.2.5z"/><path fill="#1b8977" d="M355.8-13.8c-.5-.4-.9-.8-1.4-1.3-3.3-3.2-7.1-7.3-11.4-12.5-2.6-3.2-5.4-6.8-8.3-10.8 0 0-17-20.4-44.8-12 0 0-21.1 5.8-28.6 13.6 0 0-4.4 4.8 47.9 15.7 0 0 7.8.9 14.4 4.5C330.5-13 336-6.4 330.1 5c-.5 1-1.4 1.8-2.4 2.2 0 0-.1 0-.2.1-3.7 1.3-13 2.7-27.7-7.9-3.5-2.5-7.3-5.7-11.4-9.7 0 0-16.9-23.5-48 6.9 0 0-7.9 8.4-11.3 16.6 0 0 30.6-4.3 53.6-.6 11.4 1.9 20.9 5.7 23.7 13 .5 1.1.7 2.4.8 3.7 0 0 1.7 7.4-11.5 5.5-4.8-.7-11.7-2.6-21.3-6.6 0 0-2.6-1.5-6.7-3.2-9.3-3.7-26.4-8.1-38.8 3 0 0-8.5 7.5-13.9 32.3 0 0 10.8-5.9 20.6-7.7 7.3-1.3 14-.4 15.5 6.7 0 0-.5 9.8-25.8 11.6 0 0-8.9 15.2-11.9 39.1h.1c.1.2.6.6 1.3 1.1 1.8-1.8 3.7-3.6 5.6-5.3 5.4-5 10.9-9.9 16.4-14.4 78.4-64.9 164-80 182.4-82.6.3-.2.6-.5 1-.7.8-.4 1.8-.8 2.9-1.2 5.6-2 15.4-3.9 32.1-4.8 1.2-.1 2.4-.7 3.1-1.6 2.3-3-.2-7.3-4-6.8L414.8-.2s9.5-18 4.9-34.9c-.7-2.5-3.6-3.6-5.7-2l-9.4 6.8c.1-.4 2.2-7.1.5-15-.1-.7-.3-1.5-.5-2.2-3.8-13.3-18.9-28.6-70.1-23.2 0 0-12.2.3-24.6 9.4 0 0 34.6 7.7 54.2 24.5 3.1 2.7 5.9 5.6 8.1 8.8.1.1.1.1.1.2 6.9 10.5-7.1 22.5-16.5 14zm-26.4 35.7c.5 1.4-.1 3.2-1.4 4-1.2.8-2.6.7-4 .6-5.4-.7-10.9-3.8-14-8.4-.4-.6-.8-1.4-.6-2.1.2-.6.9-1 1.6-1.1.7-.1 1.3.1 2 .3 3.8 1.1 7.7 2.2 11.5 3.3 1.8.5 3.9 1.2 4.7 2.9.1.2.2.4.2.5z"/><linearGradient id="b" x1="358.103" x2="504.396" y1="168.569" y2="255.671" gradientTransform="scale(1 -1) rotate(-7.025 -2840.398 -251.635)" gradientUnits="userSpaceOnUse"><stop offset=".001" stop-color="#28a884"/><stop offset=".233" stop-color="#35af89"/><stop offset=".415" stop-color="#16995f"/><stop offset=".566" stop-color="#008940"/><stop offset=".626" stop-color="#058d47"/><stop offset=".716" stop-color="#14975c"/><stop offset=".824" stop-color="#2ca97d"/><stop offset=".859" stop-color="#35af89"/></linearGradient><path fill="url(#b)" d="M487 79.2c-.8 2.5-3.7 3.8-6.1 2.4-6.6-3.9-12.8-6-18.4-6.9-8.7-1.3-16.1.4-21.7 2.6-7.2 3-11.4 7.1-11.4 7.1 8.5 7.5 6 11.4 6 11.4-3.4.2-6.5.4-9.1.7-14.6 1.4-27.6 10.1-33.9 23.3-6.4 13.4-1.5 21.3-1.5 21.3 17.4-14.7 31.6-24.2 43-30.2 13-6.8 22.5-9.2 29.2-9.4 11.2-.4 15 5 15 5 4.9 11.2-9.5 16-9.5 16-1.7.2-3.4.5-5.1.8-12.6 2.1-23.3 5.1-31.9 8.4-18.8 7-28.1 14.8-28.1 14.8-22.2 16-10.8 51.1-10.8 51.1 16.3-29 30.6-34.3 39.1-34 5.4.2 8.5 2.6 8.5 2.6-2.9 2-5.5 3.9-7.9 5.8-8.9 7-14.9 13.2-18.9 18.5-6.2 8-8.1 18.5-5.3 28.3l6.1 22c7.3-20.8 15.1-34.7 22.6-44 14.7-18.1 28.2-18.2 34.7-16.7 2.7.6 4.2 1.5 4.2 1.5 12.6 7.1 7.8 15.4-.1 21.8-8 6.5-19.1 11.2-19.1 11.2-4.3 2.2-8.1 4.4-11.4 6.6-33.2 22.2-20.2 45.2-10.5 56.3 3.8 4.3 7 6.8 7 6.8l4.8-19.7c1-3.9 3.4-7.4 7-9.4 1.6-.9 2.9-1.2 4-1.1 1.9.2 3 1.6 3.7 3.3 1 2.6 1 5.7 1 5.7l-.4.4c-.4.5-.9 1-1.3 1.4-5.9 6.8-8.7 12.6-9.4 17.4-2.2 14.3 12.7 20.3 12.7 20.3-2.2-7.5 4.1-19.2 6.5-23.3l.9-1.5c17.8-14.7 10.8 2.6 10.8 2.6-2.9 2.9-5.1 5.5-6.6 7.8-7.3 11.7 1.5 17.8 5.3 19.8.9-2.4 1.7-4.9 2.5-7.3 2.3-7 4.3-14 6.1-21C515.1 181 492.4 97 487 79.2zm-5.1 71c-4 3.9-8.7 7.1-13.7 9.6-3.6 1.7-7.3 3.1-11.2 4-1.7.4-3.7.7-5.3.2-.5-.2-.9-.4-1.3-.7-8.6-6 4.2-15.2 9.2-16.9 2-.7 4.1-1.2 6.3-1.6 5.1-.9 10.5-1 15.4-.2.7.1 1.5.3 2 .7 1.3 1.3 0 3.6-1.4 4.9zm5 73.6c-2.8 3.6-5.5 6.5-9.4 8.9-.9.6-7.3 4.7-9 3.9-1.9-.7-3.4-2.9-3.4-4.9 0-2.6 1.7-4 3.7-5.4 5-3.4 10.9-4.6 14.2-10.1 1.2-2 2-4.6 3.5-6.4 1.7-2.1 5.4-3.4 6.6-.4 2.1 5.6-3.1 10.4-6.2 14.4z"/><path fill="#094c44" d="M487 79.2c-.8 2.5-3.7 3.8-6.1 2.4-6.6-3.9-12.8-6-18.4-6.9-8.7-1.3-16.1.4-21.7 2.6-7.2 3-11.4 7.1-11.4 7.1 8.5 7.5 6 11.4 6 11.4-3.4.2-6.5.4-9.1.7-14.6 1.4-27.6 10.1-33.9 23.3-6.4 13.4-1.5 21.3-1.5 21.3 17.4-14.7 31.6-24.2 43-30.2 13-6.8 22.5-9.2 29.2-9.4 11.2-.4 15 5 15 5 4.9 11.2-9.5 16-9.5 16-1.7.2-3.4.5-5.1.8-12.6 2.1-23.3 5.1-31.9 8.4-18.8 7-28.1 14.8-28.1 14.8-22.2 16-10.8 51.1-10.8 51.1 16.3-29 30.6-34.3 39.1-34 5.4.2 8.5 2.6 8.5 2.6-2.9 2-5.5 3.9-7.9 5.8-8.9 7-14.9 13.2-18.9 18.5-6.2 8-8.1 18.5-5.3 28.3l6.1 22c7.3-20.8 15.1-34.7 22.6-44 14.7-18.1 28.2-18.2 34.7-16.7 2.7.6 4.2 1.5 4.2 1.5 12.6 7.1 7.8 15.4-.1 21.8-8 6.5-19.1 11.2-19.1 11.2-4.3 2.2-8.1 4.4-11.4 6.6-33.2 22.2-20.2 45.2-10.5 56.3 3.8 4.3 7 6.8 7 6.8l4.8-19.7c1-3.9 3.4-7.4 7-9.4 1.6-.9 2.9-1.2 4-1.1 1.9.2 3 1.6 3.7 3.3 1 2.6 1 5.7 1 5.7l-.4.4c-.4.5-.9 1-1.3 1.4-5.9 6.8-8.7 12.6-9.4 17.4-2.2 14.3 12.7 20.3 12.7 20.3-2.2-7.5 4.1-19.2 6.5-23.3l.9-1.5c17.8-14.7 10.8 2.6 10.8 2.6-2.9 2.9-5.1 5.5-6.6 7.8-7.3 11.7 1.5 17.8 5.3 19.8.9-2.4 1.7-4.9 2.5-7.3 2.3-7 4.3-14 6.1-21C515.1 181 492.4 97 487 79.2zm-5.1 71c-4 3.9-8.7 7.1-13.7 9.6-3.6 1.7-7.3 3.1-11.2 4-1.7.4-3.7.7-5.3.2-.5-.2-.9-.4-1.3-.7-8.6-6 4.2-15.2 9.2-16.9 2-.7 4.1-1.2 6.3-1.6 5.1-.9 10.5-1 15.4-.2.7.1 1.5.3 2 .7 1.3 1.3 0 3.6-1.4 4.9zm5 73.6c-2.8 3.6-5.5 6.5-9.4 8.9-.9.6-7.3 4.7-9 3.9-1.9-.7-3.4-2.9-3.4-4.9 0-2.6 1.7-4 3.7-5.4 5-3.4 10.9-4.6 14.2-10.1 1.2-2 2-4.6 3.5-6.4 1.7-2.1 5.4-3.4 6.6-.4 2.1 5.6-3.1 10.4-6.2 14.4z"/><linearGradient id="c" x1="568.392" x2="436.898" y1="304.172" y2="226.338" gradientTransform="scale(1 -1) rotate(-7.025 -2840.398 -251.635)" gradientUnits="userSpaceOnUse"><stop offset=".001" stop-color="#28a884"/><stop offset=".233" stop-color="#35af89"/><stop offset=".415" stop-color="#16995f"/><stop offset=".566" stop-color="#008940"/><stop offset=".626" stop-color="#058d47"/><stop offset=".716" stop-color="#14975c"/><stop offset=".824" stop-color="#2ca97d"/><stop offset=".859" stop-color="#35af89"/></linearGradient><path fill="url(#c)" d="M540.1 106.2h.2c3.8.6 7.6 1.9 11.4 3.6 23.5 10.6 45.2 38.7 45.2 38.7 2.9-15.1-2-26.3-2-26.3-16.8-48.6-37.1-55.8-50.7-53.6-.8.1-1.5.3-2.2.5-7.8 1.9-13 6.6-13.3 6.8l2.2-11.4c.5-2.6-1.7-4.8-4.3-4.3-17.3 3-29.6 19.3-29.6 19.3l-11.3-38.3c-1.1-3.7-6.1-4.1-7.8-.7-.6 1.1-.6 2.4-.1 3.5 6.2 15.4 8.6 25 9.2 31 .1 1.2.2 2.2.2 3.1 0 .4-.1.8-.2 1.2 5.4 17.8 28.1 101.7 2.6 200.2-1.8 6.9-3.8 13.9-6.1 21-.8 2.4-1.6 4.9-2.5 7.3.8.4 1.4.6 1.6.7h.1c20.5-12.9 30.4-27.4 30.4-27.4-9.1-23.7-.4-28.3-.4-28.3 7.1-1.7 10.8 4.1 12.7 11.2 2.6 9.7 1.8 21.9 1.8 21.9 20.2-15.4 23.3-26.3 23.3-26.3 4.8-16-6.4-29.6-13.8-36.4-3.2-3-5.7-4.7-5.7-4.7-7.7-7-12.4-12.4-15-16.5-7.3-11.2.1-12.8.1-12.8 1.2-.5 2.5-.7 3.7-.8 7.8-.5 15.3 6.4 21.8 16 13.1 19.2 22.2 48.7 22.2 48.7 6-6.5 10.2-17.2 10.2-17.2 14.3-41.1-14.2-46.4-14.2-46.4-5.4-2-9.9-4.1-13.6-6.2-15.8-8.8-18.6-17.8-18.9-21.7v-.2c-.1-1.1.2-2.2.9-3.1 7.8-10.2 16.1-8 22.4-3.4 6 4.4 10.2 11.1 10.2 11.1 32.1 42.7 34.5 36.7 34.5 36.7 3.9-10.1.2-31.7.2-31.7-4.3-28.8-29.9-35.4-29.9-35.4-4.9-1-9.4-2-13.4-2.9-6.5-1.7-11.9-3.4-16.1-5-.6-.2-1.2-.5-1.8-.7-11.6-4.9-6.7-22.7 5.8-20.8zm-26.4 59.7c1.9 0 3.4 1.6 4.7 3 2.6 3 5.3 6 7.9 9 .4.5.9 1 1.1 1.7.2.6.2 1.4-.3 1.9s-1.4.5-2.1.4c-5.5-.8-10.6-4.5-13.5-9.1-.7-1.2-1.4-2.5-1.2-3.9.2-1.5 1.5-2.8 3-2.9.1-.1.2-.1.4-.1z"/><path fill="#094c44" d="M540.1 106.2h.2c3.8.6 7.6 1.9 11.4 3.6 23.5 10.6 45.2 38.7 45.2 38.7 2.9-15.1-2-26.3-2-26.3-16.8-48.6-37.1-55.8-50.7-53.6-.8.1-1.5.3-2.2.5-7.8 1.9-13 6.6-13.3 6.8l2.2-11.4c.5-2.6-1.7-4.8-4.3-4.3-17.3 3-29.6 19.3-29.6 19.3l-11.3-38.3c-1.1-3.7-6.1-4.1-7.8-.7-.6 1.1-.6 2.4-.1 3.5 6.2 15.4 8.6 25 9.2 31 .1 1.2.2 2.2.2 3.1 0 .4-.1.8-.2 1.2 5.4 17.8 28.1 101.7 2.6 200.2-1.8 6.9-3.8 13.9-6.1 21-.8 2.4-1.6 4.9-2.5 7.3.8.4 1.4.6 1.6.7h.1c20.5-12.9 30.4-27.4 30.4-27.4-9.1-23.7-.4-28.3-.4-28.3 7.1-1.7 10.8 4.1 12.7 11.2 2.6 9.7 1.8 21.9 1.8 21.9 20.2-15.4 23.3-26.3 23.3-26.3 4.8-16-6.4-29.6-13.8-36.4-3.2-3-5.7-4.7-5.7-4.7-7.7-7-12.4-12.4-15-16.5-7.3-11.2.1-12.8.1-12.8 1.2-.5 2.5-.7 3.7-.8 7.8-.5 15.3 6.4 21.8 16 13.1 19.2 22.2 48.7 22.2 48.7 6-6.5 10.2-17.2 10.2-17.2 14.3-41.1-14.2-46.4-14.2-46.4-5.4-2-9.9-4.1-13.6-6.2-15.8-8.8-18.6-17.8-18.9-21.7v-.2c-.1-1.1.2-2.2.9-3.1 7.8-10.2 16.1-8 22.4-3.4 6 4.4 10.2 11.1 10.2 11.1 32.1 42.7 34.5 36.7 34.5 36.7 3.9-10.1.2-31.7.2-31.7-4.3-28.8-29.9-35.4-29.9-35.4-4.9-1-9.4-2-13.4-2.9-6.5-1.7-11.9-3.4-16.1-5-.6-.2-1.2-.5-1.8-.7-11.6-4.9-6.7-22.7 5.8-20.8zm-26.4 59.7c1.9 0 3.4 1.6 4.7 3 2.6 3 5.3 6 7.9 9 .4.5.9 1 1.1 1.7.2.6.2 1.4-.3 1.9s-1.4.5-2.1.4c-5.5-.8-10.6-4.5-13.5-9.1-.7-1.2-1.4-2.5-1.2-3.9.2-1.5 1.5-2.8 3-2.9.1-.1.2-.1.4-.1z"/><linearGradient id="d" x1="556.95" x2="655.226" y1="-63.445" y2="-63.445" gradientTransform="rotate(-139.934 552.051 62.585)" gradientUnits="userSpaceOnUse"><stop offset=".001" stop-color="#28a884"/><stop offset=".233" stop-color="#35af89"/><stop offset=".415" stop-color="#16995f"/><stop offset=".566" stop-color="#008940"/><stop offset=".626" stop-color="#058d47"/><stop offset=".716" stop-color="#14975c"/><stop offset=".824" stop-color="#2ca97d"/><stop offset=".859" stop-color="#35af89"/></linearGradient><path fill="url(#d)" d="m248.4 274 2.7-5.9C387.7 193.6 501.9 3.6 525.9-38.4c2.2.7 3.4 1.2 3.4 1.2l20.9-32.7c1.6-2.6 5.3-2.7 7.2-.3 1.2 1.6 1.2 3.9-.1 5.4l-25.1 29.9c24.9 86.8 1.4 56.2.6 55.1 7.9 31.5-12.3 50.9-12.3 50.9C507.7 37.4 505 54.3 505 54.3c12.3 52.5 2.2 49.7 2.2 49.7.1-4.7-8.1-9.7-8.1-9.7 2.6 18.5-.7 28.1-.7 28.1-10.8 7.2-15.4 14.8-15.4 14.8-6.6-64.9-11.7-51-11.7-51 8.7 76.2-21.3 97-21.3 97 1.6-32.1-3.5-53.8-7.3-65.1-.9-2.8-5.1-2.1-5 .9.7 15.1 6.1 40.8 6.1 40.8 8.3 42.4-25 53.6-25 53.6l-.6-29.4c-.1-5.2-7.9-5.4-8.2-.1-.7 13.4-.4 25.7-.4 25.7-7.6 32.9-28.3 33.6-28.3 33.6 4.6-14.9 4.6-24.6 3.4-30.4-.8-4-6.2-5.1-8.3-1.5-6.9 12-5.6 31.8-5.6 31.8-9.8 18.5-36.7 26.6-36.7 26.6 7-20.9-.5-24.4-.5-24.4l-11 17.6c-10.5 11.3-40.8 8.7-40.8 8.7l-.7-8.3c-24.8 18.3-32.7 10.7-32.7 10.7z"/><path fill="#047a69" d="m248.4 274 2.7-5.9C387.7 193.6 501.9 3.6 525.9-38.4c2.2.7 3.4 1.2 3.4 1.2l20.9-32.7c1.6-2.6 5.3-2.7 7.2-.3 1.2 1.6 1.2 3.9-.1 5.4l-25.1 29.9c24.9 86.8 1.4 56.2.6 55.1 7.9 31.5-12.3 50.9-12.3 50.9C507.7 37.4 505 54.3 505 54.3c12.3 52.5 2.2 49.7 2.2 49.7.1-4.7-8.1-9.7-8.1-9.7 2.6 18.5-.7 28.1-.7 28.1-10.8 7.2-15.4 14.8-15.4 14.8-6.6-64.9-11.7-51-11.7-51 8.7 76.2-21.3 97-21.3 97 1.6-32.1-3.5-53.8-7.3-65.1-.9-2.8-5.1-2.1-5 .9.7 15.1 6.1 40.8 6.1 40.8 8.3 42.4-25 53.6-25 53.6l-.6-29.4c-.1-5.2-7.9-5.4-8.2-.1-.7 13.4-.4 25.7-.4 25.7-7.6 32.9-28.3 33.6-28.3 33.6 4.6-14.9 4.6-24.6 3.4-30.4-.8-4-6.2-5.1-8.3-1.5-6.9 12-5.6 31.8-5.6 31.8-9.8 18.5-36.7 26.6-36.7 26.6 7-20.9-.5-24.4-.5-24.4l-11 17.6c-10.5 11.3-40.8 8.7-40.8 8.7l-.7-8.3c-24.8 18.3-32.7 10.7-32.7 10.7z"/><linearGradient id="e" x1="547.967" x2="705.001" y1="-82.011" y2="-82.011" gradientTransform="rotate(-139.934 552.051 62.585)" gradientUnits="userSpaceOnUse"><stop offset=".001" stop-color="#28a884"/><stop offset=".35" stop-color="#35af89"/><stop offset=".487" stop-color="#16995f"/><stop offset=".601" stop-color="#008940"/><stop offset=".678" stop-color="#058d47"/><stop offset=".792" stop-color="#14975c"/><stop offset=".93" stop-color="#2ca97d"/><stop offset=".975" stop-color="#35af89"/></linearGradient><path fill="url(#e)" d="m251.1 268.1 2.1-4.4c1.9-8 6.9-10.5 6.9-10.5 21.2-7 5.3-16.6 5.3-16.6-2.9-3.4 1-6.8 1-6.8 5.2-6.2 6.8-11.5 6.8-11.5l30.3-4.2c-.2-7.8-23.5-7.3-23.5-7.3l8.2-19.9c6.3-5.2 31.2-6.3 31.2-6.3-4.8-7.9-28.3-2.8-28.3-2.8 6.7-19.3 20.4-34.5 20.4-34.5l40.3-3.1c2.1-.2 2.2-3.1.2-3.5-16.7-3-40.6-1.3-40.6-1.3 10.5-22.7 16.5-19.6 17.9-21.3 1.2-1.4 57.9-16.1 74-20.2 2.4-.6 4-3 3.6-5.4-.4-2.9-3.2-4.8-6.1-4.1L339 100.3c8.2-19.9 28.6-36.3 28.6-36.3l68.2-23c-6.3-6.2-59.2 6.7-59.2 6.7 13.2-29 44.9-32.4 46.5-32.6l-20.2.2C411.4.7 456.8-.4 458.2-.4L427.7-5c15.7-28.9 50.1-22 50.1-22l-12-13c8.5-13.9 51.7-1.1 63.7 2.8-24.2 42-135.3 238.1-278.4 305.3z"/><path fill="#1b8977" d="m251.1 268.1 2.1-4.4c1.9-8 6.9-10.5 6.9-10.5 21.2-7 5.3-16.6 5.3-16.6-2.9-3.4 1-6.8 1-6.8 5.2-6.2 6.8-11.5 6.8-11.5l30.3-4.2c-.2-7.8-23.5-7.3-23.5-7.3l8.2-19.9c6.3-5.2 31.2-6.3 31.2-6.3-4.8-7.9-28.3-2.8-28.3-2.8 6.7-19.3 20.4-34.5 20.4-34.5l40.3-3.1c2.1-.2 2.2-3.1.2-3.5-16.7-3-40.6-1.3-40.6-1.3 10.5-22.7 16.5-19.6 17.9-21.3 1.2-1.4 57.9-16.1 74-20.2 2.4-.6 4-3 3.6-5.4-.4-2.9-3.2-4.8-6.1-4.1L339 100.3c8.2-19.9 28.6-36.3 28.6-36.3l68.2-23c-6.3-6.2-59.2 6.7-59.2 6.7 13.2-29 44.9-32.4 46.5-32.6l-20.2.2C411.4.7 456.8-.4 458.2-.4L427.7-5c15.7-28.9 50.1-22 50.1-22l-12-13c8.5-13.9 51.7-1.1 63.7 2.8-24.2 42-135.3 238.1-278.4 305.3z"/></svg>