<?xml version="1.0" encoding="utf-8"?>
<!-- Generator: Adobe Illustrator 25.2.0, SVG Export Plug-In . SVG Version: 6.00 Build 0)  -->
<svg version="1.1" id="Layer_1" xmlns="http://www.w3.org/2000/svg" xmlns:xlink="http://www.w3.org/1999/xlink" x="0px" y="0px"
	 viewBox="0 0 500 500" style="enable-background:new 0 0 500 500;" xml:space="preserve">
<style type="text/css">
	.st0{fill:#094C44;}
	.st1{fill:#06332C;}
	.st2{fill:#047A69;}
	.st3{fill:none;stroke:#056051;stroke-width:0.25;stroke-miterlimit:10;}
	.st4{fill:#0A6159;}
	.st5{fill:#2ABCAA;}
	.st6{fill:#1F9B89;}
	.st7{fill:url(#SVGID_1_);}
	.st8{fill:#1B8977;}
	.st9{fill:url(#SVGID_2_);}
	.st10{fill:url(#SVGID_3_);}
	.st11{fill:url(#SVGID_4_);}
	.st12{fill:url(#SVGID_5_);}
</style>
<g>
	<g>
		<path class="st0" d="M277.8,53.6c-12.4,1.9-25.6,1.4-36.8,6.9c-10.2,5.1-17.8,14.7-28.3,19c-11.7,4.8-24.8,2.4-37.4,1.4
			c-12.6-1.1-26.8,0-35.2,9.4C150.9,56.5,173,26.6,201,4.8s61.9-35.7,97-41.5c10.6-1.8,21.7-2.9,32.2-0.1
			c10.5,2.8,20.3,10.1,23.6,20.4l0,0c5.1,16.2-12.8,31.7-22.9,42.3C316.8,40.5,297.9,50.5,277.8,53.6z"/>
	</g>
	<g>
		<g>
			<path class="st0" d="M485.9,55.2L485.9,55.2c-10.3,15.1-29.6,20.3-46.3,27.8c-16.7,7.5-33.9,22.3-31.1,40.3
				c1.4,9.1,7.9,18.5,3.6,26.7c-6.3,11.9-26.7,5.8-35.8,15.7c-6.3,6.9-3.9,17.8-6.3,26.8c-3,11.7-13.9,19.7-25.1,24.3
				c-11.1,4.7-23.2,7.1-33.8,12.9c-10.6,5.8-19.8,16.5-19,28.6c-6-21.6-12.1-43.4-12.2-65.8s6.4-45.7,22.4-61.4
				c10.8-10.7,26.5-19.1,28.6-34.2c1.3-9.4-3.3-18.4-6.9-27.1c-3.5-8.8-5.9-19.3-0.6-27.2c5.7-8.5,17.7-10,25.6-16.5
				c10.4-8.6,11.5-23.8,16.8-36.2c8.7-20.6,30.4-34.2,52.7-36.4c21.7-2.2,51.5,3.9,61.1,25.6C489.3,0.9,500.8,33.4,485.9,55.2z"/>
		</g>
		<g>
			<path class="st1" d="M418.7,36.9c-18.7,11.2-38.9,20-59.9,25.9c-0.7,0.2-0.4,1.3,0.3,1.1c20.3-5.8,39.9-14.1,58.1-24.8
				c-2.3,2.9-4.6,5.7-7,8.5c-26.8,32.1-56.1,62.7-77.3,99c-0.4,0.6-0.7,1.3-1.1,1.9h-0.1c-8.1,5.9-16.2,11.8-24.2,17.8
				c-0.6,0.4,0.2,1.3,0.8,0.8c7.4-5.4,14.8-10.8,22.1-16.2l0,0c-0.1,0.1-0.2,0.3-0.2,0.4c-10.2,18.4-18.1,38.2-21.7,59
				c-0.1,0.7,1,1,1.1,0.3c3.6-20.4,11.1-39.4,20.8-57.3c1.1,8.6,2.2,17.2,3.4,25.8c0.1,0.7,1.2,0.4,1.1-0.3
				c-1.2-9.1-2.4-18.2-3.6-27.3c10.1-18.2,22.5-35.2,35.6-51.3c11.3-14,23.2-27.5,34.9-41.1c-9.8,23.6-16.1,48.5-18.5,73.9
				c-0.1,0.7,1.1,0.7,1.2,0c2.5-26.1,9-51.7,19.3-75.8c0.1-0.2,0-0.4,0-0.5c15.2-17.8,30-36,42.6-55.8s22.7-41.2,28-64.2
				c0.2-0.7-0.9-1-1.1-0.3c-8.7,37.7-30.2,70.3-54.1,100.1C418.9,36.8,418.8,36.8,418.7,36.9z"/>
		</g>
	</g>
	<g>
		<g>
			<path class="st2" d="M474,146.8L474,146.8c-7.1,10.4-20.5,14.1-32,19.2c-11.5,5.2-23.5,15.4-21.5,27.9c1,6.3,5.4,12.8,2.5,18.5
				c-4.3,8.2-18.5,4-24.7,10.9c-4.4,4.8-2.7,12.3-4.3,18.5c-2.1,8.1-9.6,13.6-17.3,16.8c-7.7,3.2-16.1,4.9-23.4,8.9
				s-13.7,11.4-13.1,19.7c-4.2-14.9-8.3-30-8.4-45.5s4.4-31.6,15.5-42.5c7.5-7.4,18.3-13.2,19.8-23.6c0.9-6.5-2.3-12.7-4.7-18.7
				c-2.4-6.1-4.1-13.4-0.4-18.8c3.9-5.9,12.3-6.9,17.7-11.4c7.2-6,8-16.4,11.6-25c6-14.3,21-23.7,36.4-25.2
				c15-1.5,35.6,2.7,42.2,17.7C476.3,109.3,484.3,131.8,474,146.8z"/>
		</g>
		<g>
			<path class="st3" d="M427.6,134.2c-13,7.8-26.9,13.8-41.4,17.9c-0.5,0.1-0.3,0.9,0.2,0.8c14.1-4,27.6-9.8,40.2-17.2
				c-1.6,2-3.2,3.9-4.8,5.9c-18.5,22.2-38.8,43.3-53.5,68.4c-0.3,0.4-0.5,0.9-0.7,1.3c0,0,0,0-0.1,0c-5.6,4.1-11.2,8.2-16.8,12.3
				c-0.4,0.3,0.1,0.9,0.6,0.6c5.1-3.7,10.2-7.5,15.3-11.2l0,0c-0.1,0.1-0.2,0.2-0.2,0.3c-7.1,12.7-12.5,26.4-15,40.8
				c-0.1,0.5,0.7,0.7,0.8,0.2c2.5-14.1,7.6-27.2,14.4-39.6c0.8,6,1.6,11.9,2.3,17.9c0.1,0.5,0.8,0.3,0.8-0.2
				c-0.8-6.3-1.6-12.6-2.5-18.8c7-12.6,15.6-24.3,24.6-35.5c7.8-9.7,16-19,24.1-28.4c-6.8,16.3-11.1,33.5-12.8,51.1
				c0,0.5,0.8,0.5,0.8,0c1.7-18,6.2-35.7,13.4-52.4c0.1-0.1,0-0.2,0-0.3c10.5-12.3,20.7-24.9,29.4-38.6
				c8.7-13.7,15.7-28.5,19.3-44.4c0.1-0.5-0.7-0.7-0.8-0.2c-6,26.1-20.9,48.6-37.4,69.2C427.7,134.1,427.6,134.1,427.6,134.2z"/>
		</g>
	</g>
	<g>
		<g>
			<path class="st0" d="M375.1,174.5c0,0.1,0,0.2,0,0.3c0.8,0.1,1.6,0.3,2.4,0.4c12.3,3.2,22.1,12.1,31.5,20.7
				c-9.6-6.2-21.5-8.8-32.9-7.3c1.7,10.7,5.4,21.1,9.3,31.3c1.8,4.7,3.6,9.4,5.5,14.1c2.7,0,5.4,0.4,7.9,1.3
				c6.2,2.2,11.3,6.7,15.9,11.4c-6-0.6-12.2-1.2-18.1,0.1c-0.2,0-0.3,0.1-0.5,0.1c6.3,15.4,13,30.6,20.1,45.6
				c0.2-0.3,0.5-0.5,0.7-0.8c8-8.2,19.1-12,30.2-15.9c-4.1-7.1-9-13.9-14.5-20c8.1,2.1,14.8,7.6,21.2,12.9c1.2,1,2.4,2,3.5,3.1
				c0.9-0.4,1.8-0.8,2.7-1.2c6.8-3.2,13.1-7.4,18.7-12.4c-9.5-9.4-21.7-16-34.8-18.8c7.3-4,16.3-2.1,24.4-0.2
				c5.7,1.4,11.3,2.7,17,4.1c1.8,0.4,3.6,0.9,5.2,1.7c6.2-8.6,10.7-18.3,13.2-28.5c-10.2-3.3-21.5-4-32.3-4.7
				c8.8-5.9,18.8-10.1,29.2-12.2c1.7-0.4,3.6-0.6,5.3-0.5c0-0.7,0-1.4,0-2.1c-0.2-11.8-3.5-23.9-10.1-33.6
				c-7.9,1.8-15.7,3.5-23.6,5.3c2.1-4.2,4.5-8.3,8-11.5c1.8-1.7,3.9-3,6.2-3.9c-0.3-0.2-0.5-0.4-0.8-0.6c-13-9.7-32.9-10.3-44.7,0.5
				c-0.3-0.7-0.6-1.4-0.9-2.1c-3.4-7-9.4-12.7-16.7-15.7c-8.1-3.4-17.7-3.2-25.7,0.5c-0.2,0.1-0.4,0.2-0.6,0.3
				c2.7,2.3,4.6,5.3,6.1,8.4c3.2,6.2,5.3,13,6.2,20c-6-8.5-14.6-15-24.3-18.6C378.8,154,375.5,164.4,375.1,174.5z"/>
		</g>
		<path class="st4" d="M435.4,144.4c-3.3-3.8-7.4-6.9-12.1-8.8c-8.1-3.4-17.7-3.2-25.7,0.5c-0.2,0.1-0.4,0.2-0.6,0.3
			c2.7,2.3,4.6,5.3,6.1,8.4c3.2,6.2,5.3,13,6.2,20c-6-8.5-14.6-15-24.3-18.6c-6.2,7.8-9.5,18.2-9.9,28.4c0,0.1,0,0.2,0,0.3
			c0.8,0.1,1.6,0.3,2.4,0.4c12.3,3.2,22.1,12.1,31.5,20.7c-9.6-6.2-21.5-8.8-32.9-7.3c1.7,10.7,5.4,21.1,9.3,31.3
			c1.8,4.7,3.6,9.4,5.5,14.1c2.7,0,5.4,0.4,7.9,1.3c6.2,2.2,11.3,6.7,15.9,11.4c-6-0.6-12.2-1.2-18.1,0.1c-0.2,0-0.3,0.1-0.5,0.1
			c6.3,15.4,13,30.6,20.1,45.6c0.2-0.3,0.5-0.5,0.7-0.8c1.9-4.8,16.6-42,14.5-79.4s9.6-59.1,9.6-59.1L435.4,144.4z"/>
	</g>
	<g>
		<g>
			<path class="st5" d="M293.9-38.4c0.6,11.3,2.3,22.6,0.4,33.8s-8.1,22.4-18.7,26.4c-10.5,4-24.9-2.5-25.7-13.8
				c-0.3-4.5,0.6-10.6-3.6-12.3c-4-1.7-7.8,2.9-8.8,7.1c-1.7,6.8-0.7,14-0.2,21s0.2,14.5-3.7,20.4c-3.9,5.8-12.7,8.8-18.3,4.5
				c-2.1-1.6-3.5-4.1-5.9-5.2c-4-1.9-8.8,1-11.1,4.7s-3.1,8.2-5,12.2c-6.5,14.1-27.7,18.5-39.2,8.2c-11.6-10.3-9.6-31.9,3.7-39.9
				c4.1-2.5,9-3.8,12.6-6.9s5.5-9.3,2.1-12.6c-3.5-3.4-9.3-1.5-14.1-2.6c-7.9-1.8-11.3-12.2-8.2-19.7s10.7-12.2,18.2-15
				c7.6-2.9,15.7-4.4,22.8-8.2c2.5-1.3,5.2-3.5,4.9-6.3c-0.4-4.5-6.8-4.7-11.3-5.6c-10.7-2.1-16.1-15.5-12.9-25.9
				c3.2-10.4,12.5-17.8,22.1-22.9l0,0c15.5-8.2,32.9-11.8,50-15c16.6-3.1,33.4-9,49.9-11.4c23.2-3.3,8,20.4,4.9,32.8
				C294.7-73.6,293-56,293.9-38.4z"/>
		</g>
		<path class="st6" d="M206-63.4c-0.7,0.3-0.1,1.3,0.5,1c33.1-13.5,64-30.9,91.8-53.4c-26,29.2-50.4,59.9-72.9,91.9c0,0,0,0-0.1,0
			c-12.6,6.8-25.9,12.2-39.7,16.1c-0.7,0.2-0.4,1.3,0.2,1.1c13.2-3.7,26-8.8,38.1-15.2c-4.9,7-9.7,14-14.4,21.1
			c-8.7,13.1-17.2,26.4-25.3,39.9c-0.4,0.6,0.6,1.2,1,0.6c8.5-14.1,17.3-28,26.5-41.7c0.2,8.2,0.3,16.4,0.5,24.6
			c0,0.7,1.1,0.8,1.1,0c-0.2-8.7-0.3-17.4-0.5-26.1c0-0.1,0-0.1,0-0.2c16.2-24.2,33.5-47.6,51.7-70.4c-3,21.3-4,42.9-3,64.4
			c0,0.7,1.1,0.8,1.1,0c-1.1-22.1,0-44.3,3.3-66.2c5.5-6.8,11-13.6,16.7-20.2c10.1-11.9,20.4-23.6,31-35c0.5-0.5-0.3-1.3-0.8-0.8
			c-3.3,3.6-6.6,7.2-9.8,10.8c-0.1,0-0.2,0-0.3,0.1C273.6-96.3,241-77.6,206-63.4z"/>
	</g>
	<g>
		<path class="st5" d="M457.7,104.4c5.1,35.4-2.3,58.3-1.9,87c-16.7-32.9-3.2-78.1,1.2-86.2c-10.1,9.9-19.2,21-26.8,32.9
			c1.6,22.1,8.2,40.4,3.2,64.6c-11.6-19.4-7.5-51.9-4.4-62.7c-6.7,10.7-12.3,22.1-16.6,34c5.8,17.5,8.5,35.6,8,53.4
			c-7.9-14.3-11.6-31-10.1-47.3c-3.1,9.5-5.4,19.3-7,29.3c0.6,0.3,1.1,0.6,1.7,0.9c7.5,12.5,11.1,26.8,10.5,40.7
			c-7-10-11.6-21.8-13.1-33.8c-0.7,6-1,12-1.1,18.1c1.5,1.7,5.6,7.8,5.6,7.8c6.2,10.7,9.9,22,12.9,33.7c-6.8-7.1-16.7-32-18.6-39.6
			c0,8.2,0.5,16.5,1.6,24.7c0.2,0.2,0.4,0.3,0.6,0.5c5.8,7,8.9,15.8,10.4,24.4s1.5,17.3,1.9,26c-16.9-13.6-12.5-34.9-13.9-51.8
			c0,0,0.1,0,0.1,0.1c-1-7.4-1.6-14.8-1.8-22.2c-5.9,11.6-10.3,24.1-14.3,36.9c-1-13.8,3.2-27.3,11.4-37.3c0,0,2-1.4,2.9-1.4
			c-0.1-9.5,0.5-19,1.8-28.3l0,0l0,0c0.2-1.4,0.4-2.9,0.7-4.3c-3.1,5-16.4,31.3-37.1,41.3c7.5-17.2,22.1-32.7,37.2-41.9
			c1.9-10.9,4.7-21.6,8.4-31.9c-6.9,6.7-29.2,33.1-50.4,42.2c7.5-8,13.9-20.8,21.5-28.7c7.3-7.6,19.3-12.9,29.5-15.2
			c4.3-11.5,9.8-22.6,16.2-33c-21.2,15.5-44.6,32.7-74.2,39.8c15.3-22.9,65.6-39.7,75.1-41.3c7.5-11.8,16.3-22.8,26.3-32.7
			c-7.2,4-28.7,18.4-41,23c-15,5.2-28.1,10.3-45.1,9.9c27.4-26.4,57.3-34.3,87.5-34.3c11.3-11.1,24-20.8,37.7-28.8l0,0
			c0.9-0.5,2-0.3,2.6,0.5s0.3,1.8-0.6,2.3C482.3,83.5,469.3,93.2,457.7,104.4z"/>
	</g>
	<g>
		<path class="st2" d="M365.4,56.3c-33-5-53.4,3.3-79.8,3.4c31.8,17.5,72.1,2.2,79.2-2.5c-8.2,11.1-17.4,21-27.7,29.4
			c-20.5-1.4-37.9-8.2-59.7-2.5c18.9,12.2,48.4,7.4,58.1,3.8c-9.2,7.4-19.2,13.6-29.7,18.4c-16.7-6-33.6-8.6-49.9-7.8
			c13.9,8.4,29.6,12,44.4,10.2c-8.5,3.5-17.2,6.2-26.3,7.9c-0.3-0.6-0.7-1.2-1-1.8c-12.2-7.9-25.7-11.6-38.4-10.7
			c9.9,7.4,21.1,12.2,32.4,13.7c-5.4,0.8-11,1.3-16.5,1.4c-1.7-1.6-7.7-6-7.7-6c-10.5-6.5-21.2-10.3-32.2-13.5
			c7.2,7.3,31,17.5,38.2,19.5c-7.6,0.1-15.2-0.3-22.9-1.3c-0.2-0.2-0.3-0.4-0.5-0.6c-7-6.1-15.3-9.3-23.4-10.8
			c-8.1-1.5-16-1.3-24.1-1.6c14.2,18,33.3,13,48.9,14.2c0,0,0-0.1-0.1-0.1c6.9,1,13.8,1.5,20.6,1.6c-10.1,6.5-21.2,11.5-32.6,16
			c12.8,0.9,24.8-3.9,33.2-12.8c0,0,1.1-2.1,1-3.2c8.7,0,17.4-0.8,25.8-2.4l0,0l0,0c1.3-0.2,2.6-0.5,3.9-0.8
			c-4.3,3.4-27.2,18.1-34.4,40.6c15.1-8.4,27.9-24.3,35-40.7c9.8-2.2,19.4-5.4,28.5-9.6c-5.5,7.6-27.6,32-34,55
			c6.6-8.2,17.8-15.3,24.3-23.7c6.3-8,10-21,11.2-32c10.2-4.8,19.9-10.9,28.8-18c-12.2,23.1-25.7,48.6-29.5,80.6
			c19.6-16.8,30.2-71.4,30.7-81.6c10.1-8.3,19.4-18,27.5-28.8c-3,7.8-14.1,31.2-17.2,44.6c-3.3,16.3-6.8,30.5-4.8,48.8
			c22.1-30,26.5-62.4,23.5-95c9.1-12.4,16.8-26.2,22.9-41.1l0,0c0.4-1,0.1-2.2-0.7-2.8c-0.8-0.6-1.7-0.3-2.1,0.6
			C382.3,29.5,374.6,43.6,365.4,56.3z"/>
	</g>
	<g>
		<path class="st0" d="M562.3,123.4c2.3,14.6,2,17.7,0.3,32.3c-1.7,14.7-8.1,29.4-20.2,38c-8.5,6.1-19.3,8.8-26.7,16.1
			c-6.4,6.4-9.3,15.5-14.5,23c-16.6,24-52.3,27.1-71,49.5c11.7-29,24.5-59.6,49.7-78.2c7.2-5.3,15.2-9.4,21.9-15.4
			c11.3-10.1,17.7-24.4,25-37.7s16.6-26.7,30.7-32.3L562.3,123.4z"/>
	</g>
	<g>
		<path class="st2" d="M555.1,113c8.4,12.1,9.5,15,14.3,29s5.5,30-1.6,43c-5,9.1-13.6,16.3-17,26.1c-3,8.6-1.7,18-3.1,27
			c-4.5,28.8-35.3,47.2-42.4,75.5c-2.1-31.2-3.9-64.3,10.7-92c4.2-7.9,9.6-15.1,13-23.4c5.8-14,5.4-29.7,6.1-44.9
			c0.8-15.2,3.3-31.3,13.6-42.5L555.1,113z"/>
	</g>
	<g>
		<g>
			<g>
				<path class="st5" d="M621.1,97.2c5.5,10,11.9,19.6,15.1,30.6c3.2,10.9,2.4,23.9-5.5,32.2c-7.8,8.3-23.7,8.6-29.4-1.3
					c-2.3-4-4-9.9-8.6-9.7c-4.3,0.2-5.8,6.1-5,10.3c1.4,7,5.5,13,9,19.2s6.5,13.1,5.5,20.2c-1,7-7.7,13.6-14.7,12
					c-2.6-0.6-5-2.2-7.6-2.1c-4.5,0-7.6,4.7-8.1,9.2c-0.5,4.4,0.7,8.9,0.8,13.3c0.2,15.7-17.1,28.9-32.2,24.5
					c-15-4.4-22.6-24.8-14-37.9c2.7-4.1,6.5-7.4,8.5-11.8c2-4.4,1-10.9-3.6-12.4c-4.7-1.6-9.1,2.6-13.9,3.7c-8,1.8-15.6-6.2-16-14.4
					s4.4-15.7,10.1-21.6c5.6-5.9,12.3-10.9,17.2-17.4c1.7-2.3,3.2-5.4,1.7-7.9c-2.4-3.9-8.2-1.3-12.7-0.2c-10.6,2.8-21.4-7.1-23-18
					s3.6-21.6,10.2-30.4l0,0c10.6-14.2,24.8-25,39-35.4c13.7-10,26.5-22.8,40.5-32.1c19.7-13.1,16.1,15.1,18.7,27.7
					C606.5,64.7,612.6,81.6,621.1,97.2z"/>
			</g>
			<path class="st6" d="M530.2,112.8c-0.5,0.5,0.4,1.2,0.9,0.7c24.3-26.7,44.8-56,60.3-88.6c-11,37.9-19.8,76.5-26.4,115.4
				c0,0,0,0,0,0.1c-8.5,11.7-18.3,22.4-29.1,31.9c-0.5,0.5,0.2,1.4,0.7,0.9c10.4-9.2,19.8-19.3,28.1-30.4c-1.4,8.5-2.7,17-4,25.5
				c-2.2,15.7-4.1,31.5-5.6,47.4c-0.1,0.7,1.1,0.8,1.1,0.1c1.6-16.5,3.6-33,6-49.5c3.7,7.4,7.4,14.8,11.2,22.2
				c0.3,0.6,1.4,0.2,1-0.5c-3.9-7.8-7.9-15.7-11.8-23.5c0-0.1-0.1-0.1-0.1-0.1c4.2-29.1,9.7-58,16.4-86.6c6.5,20.7,15,40.8,25.3,60
				c0.3,0.6,1.4,0.2,1-0.5c-10.6-19.7-19.3-40.3-25.9-61.7c2-8.6,4.1-17.1,6.4-25.7c4-15.2,8.3-30.4,13-45.4c0.2-0.7-0.8-1.1-1-0.4
				c-1.5,4.7-2.9,9.4-4.3,14.1c-0.1,0.1-0.2,0.1-0.2,0.2C577.4,53.3,555.9,84.5,530.2,112.8z"/>
		</g>
	</g>
</g>
<path class="st0" d="M201.8,194.7c2.6-2.5,6.7-2.5,9.2,0.1s2.5,6.7-0.1,9.2s-6.7,2.5-9.2-0.1C199.3,201.4,199.3,197.2,201.8,194.7z"
	/>
<path class="st5" d="M142.1,158.7c2.4-2.4,6.3-2.4,8.7,0s2.4,6.3,0,8.7s-6.3,2.4-8.7,0S139.7,161.1,142.1,158.7z"/>
<path class="st5" d="M147,253.3c2.7-2.7,7.1-2.6,9.7,0.1c2.7,2.7,2.6,7.1-0.1,9.7c-2.7,2.7-7.1,2.6-9.7-0.1
	C144.3,260.4,144.3,256,147,253.3z"/>
<path class="st5" d="M197.8,107.8c1.2-1.2,3.1-1.2,4.3,0s1.2,3.1,0,4.3c-1.2,1.2-3.1,1.2-4.3,0S196.6,109,197.8,107.8z"/>
<path class="st5" d="M85.6,139.1c2.1-2.1,5.5-2.1,7.6,0s2.1,5.5,0,7.6s-5.5,2.1-7.6,0C83.4,144.6,83.4,141.2,85.6,139.1z"/>
<circle class="st4" cx="71.2" cy="90.8" r="7.7"/>
<circle class="st0" cx="181.2" cy="223.9" r="2.7"/>
<path class="st2" d="M406.5,338.5c2-1.9,5.1-1.9,7,0c1.9,2,1.9,5.1,0,7c-2,1.9-5.1,1.9-7,0C404.5,343.6,404.6,340.5,406.5,338.5z"/>
<path class="st5" d="M451.9,354c1.7-1.6,4.3-1.6,6,0c1.6,1.7,1.6,4.3,0,6c-1.7,1.6-4.3,1.6-6,0C450.2,358.3,450.2,355.6,451.9,354z"
	/>
<path class="st2" d="M333.1,339c2.6-2.5,6.7-2.5,9.3,0.1s2.5,6.7-0.1,9.3s-6.7,2.5-9.3-0.1C330.5,345.7,330.5,341.6,333.1,339z"/>
<circle class="st4" cx="96.2" cy="233.8" r="2.9"/>
<g>
	<g>
		<g>
			<path class="st2" d="M236.7,91.5c-5.5,4.5-11,9.4-16.4,14.4c-1.9,1.7-3.7,3.5-5.6,5.3c3.4,2.7,12.6,8,20.2-3.6
				c1.5-2.3,3-5.4,4.3-9.3c0,0,12.7-13.7,7,8.6c0,0-0.4,0.6-1,1.5c-2.7,4-10.6,14.6-18.4,15.8c0,0,11.8,11,23.8,2.9
				c4.1-2.7,8.1-7.6,11.8-15.9c0.3-0.6,0.5-1.2,0.8-1.8c0.1-0.2,0.1-0.4,0.2-0.5c0,0,2.8-1.3,5.6-1.5c1.8-0.1,3.6,0.3,4.6,2
				c0.5,0.9,0.8,2.3,0.7,4.1c-0.3,4.1-2.4,7.8-5.6,10.3l-15.8,12.8c0,0,3.7,1.9,9.1,3.5c14.2,4.1,40.6,6.1,46.5-33.4
				c0.6-3.9,1-8.3,1.1-13.1c0,0-0.4-12.1,2.1-22c2.5-10,8-17.8,19.7-9.4c0,0,1.4,1,3.1,3.2c4.1,5.3,9.8,17.6-0.4,38.5
				c-5.2,10.7-14.5,23.7-30.2,39.2l22.5-3.8c10-1.7,18.7-7.8,23.3-16.8c3.1-5.9,6.2-14,8.7-25c0.7-3,1.3-6.2,1.9-9.6
				c0,0,3.5,1.8,5.9,6.6c3.9,7.6,5.2,22.7-14.2,49.8c0,0,36.6-4.6,41.7-31.5c0,0,3.1-11.7,1.4-31.7c-0.7-9.2-2.5-20.1-6-32.5
				c-0.5-1.6-1-3.3-1.5-4.9c0,0-1.8-15.1,10.4-15.4c0,0,6.5,1.1,10.9,11.4c2.7,6.2,4.6,15.8,3.9,30.5c-0.6,12.9-3.2,29.8-9.1,51.8
				c0,0,9.2,1.1,18.6-10.4c9.3-11.3,11.5-26.8,6.7-40.6c-0.9-2.5-2-5.4-3.2-8.6c0,0,2.5-4,12.9,0.6c0,0,1.9-5.5,1.6-13.3
				c-0.3-6-1.9-13.4-6.8-20.7c-3.2-4.7-7.7-9.4-14-13.8c-2.3-1.6-2.4-4.8-0.4-6.5C400.7,11.5,315.1,26.6,236.7,91.5z M360.9,40.3
				c0.6,0.3,1.1,0.9,1.5,1.5c2.8,4.1,5,9.1,6.3,14.1c0.6,2.1,1,4.3,1.2,6.4c0.6,5.3-2.3,20.8-11.4,15.5c-0.4-0.3-0.8-0.6-1.2-0.9
				c-1.2-1.3-1.7-3.2-2.1-4.9c-0.8-3.9-1.2-7.9-1.1-11.8c0.1-5.6,1-11.2,2.9-16.5C357.6,41.8,359.2,39.6,360.9,40.3z M298.7,58.6
				c3.3-0.2,3.6,3.6,2.4,6.1c-1,2.1-3,3.9-4.3,5.8c-3.6,5.3-2.2,11.2-3.1,17.1c-0.4,2.4-0.9,4.6-3.3,5.7c-1.8,0.8-4.5,0.4-5.9-1
				c-1.5-1.2-0.4-8.7-0.3-9.8c0.6-4.6,2-8.2,4.1-12.3C290.5,65.8,292.7,59,298.7,58.6z"/>
			
				<linearGradient id="SVGID_1_" gradientUnits="userSpaceOnUse" x1="868.7988" y1="249.8862" x2="737.3088" y2="172.0548" gradientTransform="matrix(-0.5321 -0.8467 0.8467 -0.5321 583.1414 781.3358)">
				<stop  offset="6.610600e-04" style="stop-color:#28A884"/>
				<stop  offset="0.2326" style="stop-color:#35AF89"/>
				<stop  offset="0.415" style="stop-color:#16995F"/>
				<stop  offset="0.5661" style="stop-color:#008940"/>
				<stop  offset="0.6263" style="stop-color:#058D47"/>
				<stop  offset="0.7163" style="stop-color:#14975C"/>
				<stop  offset="0.8243" style="stop-color:#2CA97D"/>
				<stop  offset="0.8593" style="stop-color:#35AF89"/>
			</linearGradient>
			<path class="st7" d="M355.8-13.8c-0.5-0.4-0.9-0.8-1.4-1.3c-3.3-3.2-7.1-7.3-11.4-12.5c-2.6-3.2-5.4-6.8-8.3-10.8
				c0,0-17-20.4-44.8-12c0,0-21.1,5.8-28.6,13.6c0,0-4.4,4.8,47.9,15.7c0,0,7.8,0.9,14.4,4.5C330.5-13,336-6.4,330.1,5c0,0,0,0,0,0
				c-0.5,1-1.4,1.8-2.4,2.2c0,0-0.1,0-0.2,0.1c-3.7,1.3-13,2.7-27.7-7.9c-3.5-2.5-7.3-5.7-11.4-9.7c0,0-16.9-23.5-48,6.9
				c0,0-7.9,8.4-11.3,16.6c0,0,30.6-4.3,53.6-0.6c11.4,1.9,20.9,5.7,23.7,13c0.5,1.1,0.7,2.4,0.8,3.7c0,0,1.7,7.4-11.5,5.5
				c-4.8-0.7-11.7-2.6-21.3-6.6c0,0-2.6-1.5-6.7-3.2c-9.3-3.7-26.4-8.1-38.8,3c0,0-8.5,7.5-13.9,32.3c0,0,10.8-5.9,20.6-7.7
				c7.3-1.3,14-0.4,15.5,6.7c0,0-0.5,9.8-25.8,11.6c0,0-8.9,15.2-11.9,39.1c0,0,0,0,0.1,0c0.1,0.2,0.6,0.6,1.3,1.1
				c1.8-1.8,3.7-3.6,5.6-5.3c5.4-5,10.9-9.9,16.4-14.4c78.4-64.9,164-80,182.4-82.6c0.3-0.2,0.6-0.5,1-0.7c0.8-0.4,1.8-0.8,2.9-1.2
				c5.6-2,15.4-3.9,32.1-4.8c1.2-0.1,2.4-0.7,3.1-1.6l0,0c2.3-3-0.2-7.3-4-6.8l-39.5,6.1c0,0,9.5-18,4.9-34.9
				c-0.7-2.5-3.6-3.6-5.7-2l-9.4,6.8c0.1-0.4,2.2-7.1,0.5-15c-0.1-0.7-0.3-1.5-0.5-2.2c-3.8-13.3-18.9-28.6-70.1-23.2
				c0,0-12.2,0.3-24.6,9.4c0,0,34.6,7.7,54.2,24.5c3.1,2.7,5.9,5.6,8.1,8.8c0.1,0.1,0.1,0.1,0.1,0.2
				C379.2-17.3,365.2-5.3,355.8-13.8z M329.4,21.9c0.5,1.4-0.1,3.2-1.4,4c-1.2,0.8-2.6,0.7-4,0.6c-5.4-0.7-10.9-3.8-14-8.4
				c-0.4-0.6-0.8-1.4-0.6-2.1c0.2-0.6,0.9-1,1.6-1.1c0.7-0.1,1.3,0.1,2,0.3c3.8,1.1,7.7,2.2,11.5,3.3c1.8,0.5,3.9,1.2,4.7,2.9
				C329.3,21.6,329.4,21.8,329.4,21.9z"/>
			<path class="st8" d="M355.8-13.8c-0.5-0.4-0.9-0.8-1.4-1.3c-3.3-3.2-7.1-7.3-11.4-12.5c-2.6-3.2-5.4-6.8-8.3-10.8
				c0,0-17-20.4-44.8-12c0,0-21.1,5.8-28.6,13.6c0,0-4.4,4.8,47.9,15.7c0,0,7.8,0.9,14.4,4.5C330.5-13,336-6.4,330.1,5c0,0,0,0,0,0
				c-0.5,1-1.4,1.8-2.4,2.2c0,0-0.1,0-0.2,0.1c-3.7,1.3-13,2.7-27.7-7.9c-3.5-2.5-7.3-5.7-11.4-9.7c0,0-16.9-23.5-48,6.9
				c0,0-7.9,8.4-11.3,16.6c0,0,30.6-4.3,53.6-0.6c11.4,1.9,20.9,5.7,23.7,13c0.5,1.1,0.7,2.4,0.8,3.7c0,0,1.7,7.4-11.5,5.5
				c-4.8-0.7-11.7-2.6-21.3-6.6c0,0-2.6-1.5-6.7-3.2c-9.3-3.7-26.4-8.1-38.8,3c0,0-8.5,7.5-13.9,32.3c0,0,10.8-5.9,20.6-7.7
				c7.3-1.3,14-0.4,15.5,6.7c0,0-0.5,9.8-25.8,11.6c0,0-8.9,15.2-11.9,39.1c0,0,0,0,0.1,0c0.1,0.2,0.6,0.6,1.3,1.1
				c1.8-1.8,3.7-3.6,5.6-5.3c5.4-5,10.9-9.9,16.4-14.4c78.4-64.9,164-80,182.4-82.6c0.3-0.2,0.6-0.5,1-0.7c0.8-0.4,1.8-0.8,2.9-1.2
				c5.6-2,15.4-3.9,32.1-4.8c1.2-0.1,2.4-0.7,3.1-1.6l0,0c2.3-3-0.2-7.3-4-6.8l-39.5,6.1c0,0,9.5-18,4.9-34.9
				c-0.7-2.5-3.6-3.6-5.7-2l-9.4,6.8c0.1-0.4,2.2-7.1,0.5-15c-0.1-0.7-0.3-1.5-0.5-2.2c-3.8-13.3-18.9-28.6-70.1-23.2
				c0,0-12.2,0.3-24.6,9.4c0,0,34.6,7.7,54.2,24.5c3.1,2.7,5.9,5.6,8.1,8.8c0.1,0.1,0.1,0.1,0.1,0.2
				C379.2-17.3,365.2-5.3,355.8-13.8z M329.4,21.9c0.5,1.4-0.1,3.2-1.4,4c-1.2,0.8-2.6,0.7-4,0.6c-5.4-0.7-10.9-3.8-14-8.4
				c-0.4-0.6-0.8-1.4-0.6-2.1c0.2-0.6,0.9-1,1.6-1.1c0.7-0.1,1.3,0.1,2,0.3c3.8,1.1,7.7,2.2,11.5,3.3c1.8,0.5,3.9,1.2,4.7,2.9
				C329.3,21.6,329.4,21.8,329.4,21.9z"/>
		</g>
		<g>
			
				<linearGradient id="SVGID_2_" gradientUnits="userSpaceOnUse" x1="358.1026" y1="168.569" x2="504.3961" y2="255.6712" gradientTransform="matrix(0.9925 0.1223 0.1223 -0.9925 9.4527 349.2697)">
				<stop  offset="6.610600e-04" style="stop-color:#28A884"/>
				<stop  offset="0.2326" style="stop-color:#35AF89"/>
				<stop  offset="0.415" style="stop-color:#16995F"/>
				<stop  offset="0.5661" style="stop-color:#008940"/>
				<stop  offset="0.6263" style="stop-color:#058D47"/>
				<stop  offset="0.7163" style="stop-color:#14975C"/>
				<stop  offset="0.8243" style="stop-color:#2CA97D"/>
				<stop  offset="0.8593" style="stop-color:#35AF89"/>
			</linearGradient>
			<path class="st9" d="M487,79.2c-0.8,2.5-3.7,3.8-6.1,2.4c-6.6-3.9-12.8-6-18.4-6.9c-8.7-1.3-16.1,0.4-21.7,2.6
				c-7.2,3-11.4,7.1-11.4,7.1c8.5,7.5,6,11.4,6,11.4c-3.4,0.2-6.5,0.4-9.1,0.7c-14.6,1.4-27.6,10.1-33.9,23.3
				c-6.4,13.4-1.5,21.3-1.5,21.3c17.4-14.7,31.6-24.2,43-30.2c13-6.8,22.5-9.2,29.2-9.4c11.2-0.4,15,5,15,5c4.9,11.2-9.5,16-9.5,16
				c-1.7,0.2-3.4,0.5-5.1,0.8c-12.6,2.1-23.3,5.1-31.9,8.4c-18.8,7-28.1,14.8-28.1,14.8c-22.2,16-10.8,51.1-10.8,51.1
				c16.3-29,30.6-34.3,39.1-34c5.4,0.2,8.5,2.6,8.5,2.6c-2.9,2-5.5,3.9-7.9,5.8c-8.9,7-14.9,13.2-18.9,18.5
				c-6.2,8-8.1,18.5-5.3,28.3l6.1,22c7.3-20.8,15.1-34.7,22.6-44c14.7-18.1,28.2-18.2,34.7-16.7c2.7,0.6,4.2,1.5,4.2,1.5
				c12.6,7.1,7.8,15.4-0.1,21.8c-8,6.5-19.1,11.2-19.1,11.2c-4.3,2.2-8.1,4.4-11.4,6.6c-33.2,22.2-20.2,45.2-10.5,56.3
				c3.8,4.3,7,6.8,7,6.8l4.8-19.7c1-3.9,3.4-7.4,7-9.4c1.6-0.9,2.9-1.2,4-1.1c1.9,0.2,3,1.6,3.7,3.3c1,2.6,1,5.7,1,5.7
				c-0.1,0.1-0.3,0.3-0.4,0.4c-0.4,0.5-0.9,1-1.3,1.4c-5.9,6.8-8.7,12.6-9.4,17.4c-2.2,14.3,12.7,20.3,12.7,20.3
				c-2.2-7.5,4.1-19.2,6.5-23.3c0.6-1,0.9-1.5,0.9-1.5c17.8-14.7,10.8,2.6,10.8,2.6c-2.9,2.9-5.1,5.5-6.6,7.8
				c-7.3,11.7,1.5,17.8,5.3,19.8c0.9-2.4,1.7-4.9,2.5-7.3c2.3-7,4.3-14,6.1-21C515.1,181,492.4,97,487,79.2z M481.9,150.2
				c-4,3.9-8.7,7.1-13.7,9.6c-3.6,1.7-7.3,3.1-11.2,4c-1.7,0.4-3.7,0.7-5.3,0.2c-0.5-0.2-0.9-0.4-1.3-0.7c-8.6-6,4.2-15.2,9.2-16.9
				c2-0.7,4.1-1.2,6.3-1.6c5.1-0.9,10.5-1,15.4-0.2c0.7,0.1,1.5,0.3,2,0.7C484.6,146.6,483.3,148.9,481.9,150.2z M486.9,223.8
				c-2.8,3.6-5.5,6.5-9.4,8.9c-0.9,0.6-7.3,4.7-9,3.9c-1.9-0.7-3.4-2.9-3.4-4.9c0-2.6,1.7-4,3.7-5.4c5-3.4,10.9-4.6,14.2-10.1
				c1.2-2,2-4.6,3.5-6.4c1.7-2.1,5.4-3.4,6.6-0.4C495.2,215,490,219.8,486.9,223.8z"/>
			<path class="st0" d="M487,79.2c-0.8,2.5-3.7,3.8-6.1,2.4c-6.6-3.9-12.8-6-18.4-6.9c-8.7-1.3-16.1,0.4-21.7,2.6
				c-7.2,3-11.4,7.1-11.4,7.1c8.5,7.5,6,11.4,6,11.4c-3.4,0.2-6.5,0.4-9.1,0.7c-14.6,1.4-27.6,10.1-33.9,23.3
				c-6.4,13.4-1.5,21.3-1.5,21.3c17.4-14.7,31.6-24.2,43-30.2c13-6.8,22.5-9.2,29.2-9.4c11.2-0.4,15,5,15,5c4.9,11.2-9.5,16-9.5,16
				c-1.7,0.2-3.4,0.5-5.1,0.8c-12.6,2.1-23.3,5.1-31.9,8.4c-18.8,7-28.1,14.8-28.1,14.8c-22.2,16-10.8,51.1-10.8,51.1
				c16.3-29,30.6-34.3,39.1-34c5.4,0.2,8.5,2.6,8.5,2.6c-2.9,2-5.5,3.9-7.9,5.8c-8.9,7-14.9,13.2-18.9,18.5
				c-6.2,8-8.1,18.5-5.3,28.3l6.1,22c7.3-20.8,15.1-34.7,22.6-44c14.7-18.1,28.2-18.2,34.7-16.7c2.7,0.6,4.2,1.5,4.2,1.5
				c12.6,7.1,7.8,15.4-0.1,21.8c-8,6.5-19.1,11.2-19.1,11.2c-4.3,2.2-8.1,4.4-11.4,6.6c-33.2,22.2-20.2,45.2-10.5,56.3
				c3.8,4.3,7,6.8,7,6.8l4.8-19.7c1-3.9,3.4-7.4,7-9.4c1.6-0.9,2.9-1.2,4-1.1c1.9,0.2,3,1.6,3.7,3.3c1,2.6,1,5.7,1,5.7
				c-0.1,0.1-0.3,0.3-0.4,0.4c-0.4,0.5-0.9,1-1.3,1.4c-5.9,6.8-8.7,12.6-9.4,17.4c-2.2,14.3,12.7,20.3,12.7,20.3
				c-2.2-7.5,4.1-19.2,6.5-23.3c0.6-1,0.9-1.5,0.9-1.5c17.8-14.7,10.8,2.6,10.8,2.6c-2.9,2.9-5.1,5.5-6.6,7.8
				c-7.3,11.7,1.5,17.8,5.3,19.8c0.9-2.4,1.7-4.9,2.5-7.3c2.3-7,4.3-14,6.1-21C515.1,181,492.4,97,487,79.2z M481.9,150.2
				c-4,3.9-8.7,7.1-13.7,9.6c-3.6,1.7-7.3,3.1-11.2,4c-1.7,0.4-3.7,0.7-5.3,0.2c-0.5-0.2-0.9-0.4-1.3-0.7c-8.6-6,4.2-15.2,9.2-16.9
				c2-0.7,4.1-1.2,6.3-1.6c5.1-0.9,10.5-1,15.4-0.2c0.7,0.1,1.5,0.3,2,0.7C484.6,146.6,483.3,148.9,481.9,150.2z M486.9,223.8
				c-2.8,3.6-5.5,6.5-9.4,8.9c-0.9,0.6-7.3,4.7-9,3.9c-1.9-0.7-3.4-2.9-3.4-4.9c0-2.6,1.7-4,3.7-5.4c5-3.4,10.9-4.6,14.2-10.1
				c1.2-2,2-4.6,3.5-6.4c1.7-2.1,5.4-3.4,6.6-0.4C495.2,215,490,219.8,486.9,223.8z"/>
			
				<linearGradient id="SVGID_3_" gradientUnits="userSpaceOnUse" x1="568.3916" y1="304.1718" x2="436.8977" y2="226.338" gradientTransform="matrix(0.9925 0.1223 0.1223 -0.9925 9.4527 349.2697)">
				<stop  offset="6.610600e-04" style="stop-color:#28A884"/>
				<stop  offset="0.2326" style="stop-color:#35AF89"/>
				<stop  offset="0.415" style="stop-color:#16995F"/>
				<stop  offset="0.5661" style="stop-color:#008940"/>
				<stop  offset="0.6263" style="stop-color:#058D47"/>
				<stop  offset="0.7163" style="stop-color:#14975C"/>
				<stop  offset="0.8243" style="stop-color:#2CA97D"/>
				<stop  offset="0.8593" style="stop-color:#35AF89"/>
			</linearGradient>
			<path class="st10" d="M540.1,106.2c0.1,0,0.1,0,0.2,0c3.8,0.6,7.6,1.9,11.4,3.6c23.5,10.6,45.2,38.7,45.2,38.7
				c2.9-15.1-2-26.3-2-26.3c-16.8-48.6-37.1-55.8-50.7-53.6c-0.8,0.1-1.5,0.3-2.2,0.5c-7.8,1.9-13,6.6-13.3,6.8l2.2-11.4
				c0.5-2.6-1.7-4.8-4.3-4.3c-17.3,3-29.6,19.3-29.6,19.3l-11.3-38.3c-1.1-3.7-6.1-4.1-7.8-0.7l0,0c-0.6,1.1-0.6,2.4-0.1,3.5
				C484,59.4,486.4,69,487,75c0.1,1.2,0.2,2.2,0.2,3.1c0,0.4-0.1,0.8-0.2,1.2c5.4,17.8,28.1,101.7,2.6,200.2
				c-1.8,6.9-3.8,13.9-6.1,21c-0.8,2.4-1.6,4.9-2.5,7.3c0.8,0.4,1.4,0.6,1.6,0.7c0,0,0.1,0,0.1,0c20.5-12.9,30.4-27.4,30.4-27.4
				c-9.1-23.7-0.4-28.3-0.4-28.3c7.1-1.7,10.8,4.1,12.7,11.2c2.6,9.7,1.8,21.9,1.8,21.9c20.2-15.4,23.3-26.3,23.3-26.3
				c4.8-16-6.4-29.6-13.8-36.4c-3.2-3-5.7-4.7-5.7-4.7c-7.7-7-12.4-12.4-15-16.5c-7.3-11.2,0.1-12.8,0.1-12.8
				c1.2-0.5,2.5-0.7,3.7-0.8c7.8-0.5,15.3,6.4,21.8,16c13.1,19.2,22.2,48.7,22.2,48.7c6-6.5,10.2-17.2,10.2-17.2
				c14.3-41.1-14.2-46.4-14.2-46.4c-5.4-2-9.9-4.1-13.6-6.2c-15.8-8.8-18.6-17.8-18.9-21.7c0-0.1,0-0.1,0-0.2
				c-0.1-1.1,0.2-2.2,0.9-3.1c0,0,0,0,0,0c7.8-10.2,16.1-8,22.4-3.4c6,4.4,10.2,11.1,10.2,11.1c32.1,42.7,34.5,36.7,34.5,36.7
				c3.9-10.1,0.2-31.7,0.2-31.7c-4.3-28.8-29.9-35.4-29.9-35.4c-4.9-1-9.4-2-13.4-2.9c-6.5-1.7-11.9-3.4-16.1-5
				c-0.6-0.2-1.2-0.5-1.8-0.7C522.7,122.1,527.6,104.3,540.1,106.2z M513.7,165.9c1.9,0,3.4,1.6,4.7,3c2.6,3,5.3,6,7.9,9
				c0.4,0.5,0.9,1,1.1,1.7c0.2,0.6,0.2,1.4-0.3,1.9c-0.5,0.5-1.4,0.5-2.1,0.4c-5.5-0.8-10.6-4.5-13.5-9.1c-0.7-1.2-1.4-2.5-1.2-3.9
				c0.2-1.5,1.5-2.8,3-2.9C513.4,165.9,513.5,165.9,513.7,165.9z"/>
			<path class="st0" d="M540.1,106.2c0.1,0,0.1,0,0.2,0c3.8,0.6,7.6,1.9,11.4,3.6c23.5,10.6,45.2,38.7,45.2,38.7
				c2.9-15.1-2-26.3-2-26.3c-16.8-48.6-37.1-55.8-50.7-53.6c-0.8,0.1-1.5,0.3-2.2,0.5c-7.8,1.9-13,6.6-13.3,6.8l2.2-11.4
				c0.5-2.6-1.7-4.8-4.3-4.3c-17.3,3-29.6,19.3-29.6,19.3l-11.3-38.3c-1.1-3.7-6.1-4.1-7.8-0.7l0,0c-0.6,1.1-0.6,2.4-0.1,3.5
				C484,59.4,486.4,69,487,75c0.1,1.2,0.2,2.2,0.2,3.1c0,0.4-0.1,0.8-0.2,1.2c5.4,17.8,28.1,101.7,2.6,200.2
				c-1.8,6.9-3.8,13.9-6.1,21c-0.8,2.4-1.6,4.9-2.5,7.3c0.8,0.4,1.4,0.6,1.6,0.7c0,0,0.1,0,0.1,0c20.5-12.9,30.4-27.4,30.4-27.4
				c-9.1-23.7-0.4-28.3-0.4-28.3c7.1-1.7,10.8,4.1,12.7,11.2c2.6,9.7,1.8,21.9,1.8,21.9c20.2-15.4,23.3-26.3,23.3-26.3
				c4.8-16-6.4-29.6-13.8-36.4c-3.2-3-5.7-4.7-5.7-4.7c-7.7-7-12.4-12.4-15-16.5c-7.3-11.2,0.1-12.8,0.1-12.8
				c1.2-0.5,2.5-0.7,3.7-0.8c7.8-0.5,15.3,6.4,21.8,16c13.1,19.2,22.2,48.7,22.2,48.7c6-6.5,10.2-17.2,10.2-17.2
				c14.3-41.1-14.2-46.4-14.2-46.4c-5.4-2-9.9-4.1-13.6-6.2c-15.8-8.8-18.6-17.8-18.9-21.7c0-0.1,0-0.1,0-0.2
				c-0.1-1.1,0.2-2.2,0.9-3.1c0,0,0,0,0,0c7.8-10.2,16.1-8,22.4-3.4c6,4.4,10.2,11.1,10.2,11.1c32.1,42.7,34.5,36.7,34.5,36.7
				c3.9-10.1,0.2-31.7,0.2-31.7c-4.3-28.8-29.9-35.4-29.9-35.4c-4.9-1-9.4-2-13.4-2.9c-6.5-1.7-11.9-3.4-16.1-5
				c-0.6-0.2-1.2-0.5-1.8-0.7C522.7,122.1,527.6,104.3,540.1,106.2z M513.7,165.9c1.9,0,3.4,1.6,4.7,3c2.6,3,5.3,6,7.9,9
				c0.4,0.5,0.9,1,1.1,1.7c0.2,0.6,0.2,1.4-0.3,1.9c-0.5,0.5-1.4,0.5-2.1,0.4c-5.5-0.8-10.6-4.5-13.5-9.1c-0.7-1.2-1.4-2.5-1.2-3.9
				c0.2-1.5,1.5-2.8,3-2.9C513.4,165.9,513.5,165.9,513.7,165.9z"/>
		</g>
	</g>
	<g>
		<g>
			
				<linearGradient id="SVGID_4_" gradientUnits="userSpaceOnUse" x1="556.9501" y1="-63.4453" x2="655.2265" y2="-63.4453" gradientTransform="matrix(-0.7653 -0.6437 0.6437 -0.7653 934.25 465.8371)">
				<stop  offset="6.610600e-04" style="stop-color:#28A884"/>
				<stop  offset="0.2326" style="stop-color:#35AF89"/>
				<stop  offset="0.415" style="stop-color:#16995F"/>
				<stop  offset="0.5661" style="stop-color:#008940"/>
				<stop  offset="0.6263" style="stop-color:#058D47"/>
				<stop  offset="0.7163" style="stop-color:#14975C"/>
				<stop  offset="0.8243" style="stop-color:#2CA97D"/>
				<stop  offset="0.8593" style="stop-color:#35AF89"/>
			</linearGradient>
			<path class="st11" d="M248.4,274l2.7-5.9C387.7,193.6,501.9,3.6,525.9-38.4c2.2,0.7,3.4,1.2,3.4,1.2l20.9-32.7
				c1.6-2.6,5.3-2.7,7.2-0.3l0,0c1.2,1.6,1.2,3.9-0.1,5.4l-25.1,29.9c24.9,86.8,1.4,56.2,0.6,55.1c7.9,31.5-12.3,50.9-12.3,50.9
				C507.7,37.4,505,54.3,505,54.3c12.3,52.5,2.2,49.7,2.2,49.7c0.1-4.7-8.1-9.7-8.1-9.7c2.6,18.5-0.7,28.1-0.7,28.1
				c-10.8,7.2-15.4,14.8-15.4,14.8c-6.6-64.9-11.7-51-11.7-51c8.7,76.2-21.3,97-21.3,97c1.6-32.1-3.5-53.8-7.3-65.1
				c-0.9-2.8-5.1-2.1-5,0.9c0.7,15.1,6.1,40.8,6.1,40.8c8.3,42.4-25,53.6-25,53.6l-0.6-29.4c-0.1-5.2-7.9-5.4-8.2-0.1
				c-0.7,13.4-0.4,25.7-0.4,25.7c-7.6,32.9-28.3,33.6-28.3,33.6c4.6-14.9,4.6-24.6,3.4-30.4c-0.8-4-6.2-5.1-8.3-1.5
				c-6.9,12-5.6,31.8-5.6,31.8c-9.8,18.5-36.7,26.6-36.7,26.6c7-20.9-0.5-24.4-0.5-24.4l-11,17.6c-10.5,11.3-40.8,8.7-40.8,8.7
				l-0.7-8.3C256.3,281.6,248.4,274,248.4,274z"/>
			<path class="st2" d="M248.4,274l2.7-5.9C387.7,193.6,501.9,3.6,525.9-38.4c2.2,0.7,3.4,1.2,3.4,1.2l20.9-32.7
				c1.6-2.6,5.3-2.7,7.2-0.3l0,0c1.2,1.6,1.2,3.9-0.1,5.4l-25.1,29.9c24.9,86.8,1.4,56.2,0.6,55.1c7.9,31.5-12.3,50.9-12.3,50.9
				C507.7,37.4,505,54.3,505,54.3c12.3,52.5,2.2,49.7,2.2,49.7c0.1-4.7-8.1-9.7-8.1-9.7c2.6,18.5-0.7,28.1-0.7,28.1
				c-10.8,7.2-15.4,14.8-15.4,14.8c-6.6-64.9-11.7-51-11.7-51c8.7,76.2-21.3,97-21.3,97c1.6-32.1-3.5-53.8-7.3-65.1
				c-0.9-2.8-5.1-2.1-5,0.9c0.7,15.1,6.1,40.8,6.1,40.8c8.3,42.4-25,53.6-25,53.6l-0.6-29.4c-0.1-5.2-7.9-5.4-8.2-0.1
				c-0.7,13.4-0.4,25.7-0.4,25.7c-7.6,32.9-28.3,33.6-28.3,33.6c4.6-14.9,4.6-24.6,3.4-30.4c-0.8-4-6.2-5.1-8.3-1.5
				c-6.9,12-5.6,31.8-5.6,31.8c-9.8,18.5-36.7,26.6-36.7,26.6c7-20.9-0.5-24.4-0.5-24.4l-11,17.6c-10.5,11.3-40.8,8.7-40.8,8.7
				l-0.7-8.3C256.3,281.6,248.4,274,248.4,274z"/>
			
				<linearGradient id="SVGID_5_" gradientUnits="userSpaceOnUse" x1="547.9673" y1="-82.0109" x2="705.0008" y2="-82.0109" gradientTransform="matrix(-0.7653 -0.6437 0.6437 -0.7653 934.25 465.8371)">
				<stop  offset="6.610600e-04" style="stop-color:#28A884"/>
				<stop  offset="0.3505" style="stop-color:#35AF89"/>
				<stop  offset="0.4875" style="stop-color:#16995F"/>
				<stop  offset="0.601" style="stop-color:#008940"/>
				<stop  offset="0.6778" style="stop-color:#058D47"/>
				<stop  offset="0.7923" style="stop-color:#14975C"/>
				<stop  offset="0.93" style="stop-color:#2CA97D"/>
				<stop  offset="0.9745" style="stop-color:#35AF89"/>
			</linearGradient>
			<path class="st12" d="M251.1,268.1l2.1-4.4c1.9-8,6.9-10.5,6.9-10.5c21.2-7,5.3-16.6,5.3-16.6c-2.9-3.4,1-6.8,1-6.8
				c5.2-6.2,6.8-11.5,6.8-11.5l30.3-4.2c-0.2-7.8-23.5-7.3-23.5-7.3l8.2-19.9c6.3-5.2,31.2-6.3,31.2-6.3c-4.8-7.9-28.3-2.8-28.3-2.8
				c6.7-19.3,20.4-34.5,20.4-34.5l40.3-3.1c2.1-0.2,2.2-3.1,0.2-3.5c-16.7-3-40.6-1.3-40.6-1.3c10.5-22.7,16.5-19.6,17.9-21.3
				c1.2-1.4,57.9-16.1,74-20.2c2.4-0.6,4-3,3.6-5.4l0,0c-0.4-2.9-3.2-4.8-6.1-4.1L339,100.3c8.2-19.9,28.6-36.3,28.6-36.3l68.2-23
				c-6.3-6.2-59.2,6.7-59.2,6.7c13.2-29,44.9-32.4,46.5-32.6l-20.2,0.2c8.5-14.6,53.9-15.7,55.3-15.7l-30.5-4.6
				c15.7-28.9,50.1-22,50.1-22l-12-13c8.5-13.9,51.7-1.1,63.7,2.8C505.3,4.8,394.2,200.9,251.1,268.1z"/>
			<path class="st8" d="M251.1,268.1l2.1-4.4c1.9-8,6.9-10.5,6.9-10.5c21.2-7,5.3-16.6,5.3-16.6c-2.9-3.4,1-6.8,1-6.8
				c5.2-6.2,6.8-11.5,6.8-11.5l30.3-4.2c-0.2-7.8-23.5-7.3-23.5-7.3l8.2-19.9c6.3-5.2,31.2-6.3,31.2-6.3c-4.8-7.9-28.3-2.8-28.3-2.8
				c6.7-19.3,20.4-34.5,20.4-34.5l40.3-3.1c2.1-0.2,2.2-3.1,0.2-3.5c-16.7-3-40.6-1.3-40.6-1.3c10.5-22.7,16.5-19.6,17.9-21.3
				c1.2-1.4,57.9-16.1,74-20.2c2.4-0.6,4-3,3.6-5.4l0,0c-0.4-2.9-3.2-4.8-6.1-4.1L339,100.3c8.2-19.9,28.6-36.3,28.6-36.3l68.2-23
				c-6.3-6.2-59.2,6.7-59.2,6.7c13.2-29,44.9-32.4,46.5-32.6l-20.2,0.2c8.5-14.6,53.9-15.7,55.3-15.7l-30.5-4.6
				c15.7-28.9,50.1-22,50.1-22l-12-13c8.5-13.9,51.7-1.1,63.7,2.8C505.3,4.8,394.2,200.9,251.1,268.1z"/>
		</g>
	</g>
</g>
</svg>
