<svg viewBox="0 0 2742 1828" xmlns="http://www.w3.org/2000/svg"><path fill="#8f54e2" d="M0 1830h2745V0H0Z"/><path fill="#de9284" d="M1309.52 553.05c-13 0-20.45-25.83-23.88-35.13-10.06-27.29-24.24-80.3-11.24-108.17 3.37-7.21 10.43-11.86 15.46-17.8 8.89-10.51 17.32-23.88 24.35-35.59 5.85-9.76 4.71-21.72 7.49-32.31 5.36-20.36 27.26-49.12 45.89-59.47 10.63-5.91 19.56-9.74 31-11.07 11.92-1.37 26-.68 38.27-.17 11.06.46 22.27-3.66 33.52-5.16 29.11-3.88 48.43-26.44 82.62-24.81 6.21.3 13.11 4.1 19.19 5.62 25.45 6.36 56.94 26.14 75.62 37.15 11.23 6.62 17.41 17.22 29.1 23.8 15.63 8.79 22.23 5.21 33.9 20.06 31.54 40.14 40.8 87.77 37 137.21-1.16 15.17.63 31.54-3.27 46.36-6.25 23.73-21.5 39.56-30.45 60.41-5.09 11.89-5.16 23.95-11.7 35.59-5.71 10.16-11.61 21-17.8 30.91C1678.11 630.9 1669 638.3 1664 650c-7.86 18.33-19.4 39.77-21.07 59.94-.49 5.83 8.6 25.52 4.21 29-9.73 7.79-32-2-45.89.94-12.69 2.72-24.91 7.45-37.93 8.9-17.87 2-37.79-4.93-55.73-6.09-15.56-1-32.22-.33-47.3-5.15-15.72-5-28.41-15.4-44-20.6-13.62-4.54-38.4 20-46.82 15-12.93-7.75 1.4-54.82 0-70.24-1.53-16.81-14.74-24.68-23-37Z"/><path fill="#fc3871" d="M1055.87 1024.85c-7.6-3.8-25 9-25 9l-32.37 117.54s-30.91 126.18-27.6 179.09c2.69 43 22.92 91 32.42 132.79 4.66 20.49 19.06 81.3 19.06 81.3s96.83 20.41 108.12 8c24.42-26.86 73.35-30.9 73.35-30.9s22 1.38 30.66.8c33.63-2.24 66.42-.5 100.28-1.91 29.8-1.24 56.26 3.77 85.78.82 33.9-3.39 70.44-7.57 104.29-6.55 52.17 1.59 104.5-2.26 156.63 0 36.22 1.58 167.13-40.27 167.13-40.27l-1.9-188s10.71-48.85 11.73-61.17c2.26-27 1.56-32 8.33-58.21 12.51-48.49 20.75-98.65 28.66-148.05 4.27-26.7 24.47-76.29 8.53-101.79-14-22.45-85.27-29.3-109.07-42.91-12.96-7.43-116.9-32.61-116.9-32.61s-34.11 40.23-136.47 83.64c-19.6 8.31-56.12-1.1-56.12-1.1l-96.85-39.62-47.33-46.22s-69.57 18.1-92.64 27.33c-7.62 3-15.64 18.51-23.62 20.51-1.19.3-13.26 3.77-7.64.95Z"/><path fill="#fc3871" d="M1900.18 916c-10.19 0-6.33 19.49-7.64 29.6-4 30.61-7 61.89-9.55 92.65-5 61.48-29.6 83.22-32.29 145-.37 8.54-2.59 40.15.24 48.64 7.74 23.22 40.53 69 51.8 90.61a527.57 527.57 0 0 0 33.07 54.34l-81 21.19c-17.37 4.53-134.72 30.44-139.85 43.26-7.47 18.68-.71 57.28-6.31 76.86-3.73 13.06 20.55 57.32 20.55 57.32s97.4 7.39 133.7 6.32c86.89-2.55 148.42 9.52 232.5-14.5 27.84-8 63.89-11.11 83.66-36.26 38.77-49.34 15.68-93.17 4.59-127.12-14.09-43.15-34.86-79.3-56.71-121.11-23.66-45.33-48.67-95.8-70.19-128.07-15.9-23.84-35.43-70.29-49.73-95.07-25.37-44-49.45-82.74-78.3-126Z"/><path fill="#b5b5b5" d="m177.51 1066.07 11.07-24.76 682.21 4.74s14.88.94 25.68 9.22 17.52 23.9 17.52 23.9l107.12 465.63 294 33.6 60.2 8-8.42 21.91-86.37 24.13-212.64 49.56-27.16-8.21-14.79 10.42-656.07-58.65-19-11.3-24.43-23.44Z"/><path fill="#ffe4ce" d="M1047.81 1045.51c-1.23-6.09 2.89-12.56 4.16-18.42 4.32-20 6.94-39.71 12.06-59.58 7.32-28.44 3.47-57.94 3.09-86.72-.14-10.67 2.72-21.41 1.1-32.06-1.87-12.39-3.11-23.31-10.15-33.69-4.36-6.41-16.31-18.88-21.15-25.08-10-12.77-19.31-20.19-24-36-3.14-10.51-.95-22.94-1.09-33.44-.09-6.8 0-18.52 2-25.41 1.47-5.18-.47-13.06 10.21-18.68s9.8 12.32 12.82 11.95c4.2-.52 3.74-11 5.1-14.26 6-14.47 8.4-54.41 23.54-60.54 15.43-6.25 17.26 9.58 18.69 21.24 2.6 21-2.32 39.67-8.93 59.64-2.78 8.38-2.85 21.47-.21 30.12.15.51 4.08 5.24 4.08 5.24s3.72-35.73 6.79-51.35c3.65-18.61 22.08-45.79 29.53-63 2.64-6.1 3.31-36.68 18-28.3 16.42 9.34 9.1 44.28 4.78 57.34-5.67 17.13-12 27.24-13.93 45.6-1.77 16.75 4 39.17 10.64 55.1 1.84 4.39 4.16 10.49 4.16 10.49s8.89-11.24 10.64-13.68c9.54-13.31 15.67-18.63 30.6-27.21 17.48-10 51.12 10.34 62.82 25.31 3.72 4.77 11 19.42 12.17 25.37 1 4.82 1.94 5 1.36 9.84-4.48 36.42-13.71 19.81-30.28.56-2.51-2.92-8.92-12-12.43-13.95-6.78-3.73-8.15-6.36-15.47-4.06-4.32 1.35-18.25 20.46-21.57 23.34-20.81 18.1.26 32.71 16 46.86 5.2 4.69 5.12 5.79 12.46 7.95 9 2.65 17-4.52 23.24-10.52 7.12-6.85 12.49-8.95 15.87-18.69 3.46-10 2.85-15.32 11.63-23 9-7.92 22.72-27.49 33-11.84 4.34 6.63.06 16.79-1.93 25.66-4.07 18.18-13.06 36.49-20.5 46.65-12.62 17.24-24.51 35.68-38.13 52.12-10.7 12.92-20.87 31.57-31.76 44.55-8.92 10.63-18.94 15.31-25 28-10.06 21.12-6.86 45.32-12.94 67.79-1.54 5.69-1.71 19.82-1.71 19.82s-33.87 3.78-49 1.92c-4-.49-50.91-.48-52.55-5.07Zm685.13 415.02c-4.66-1.39-18.77-4.42-22.37-3.9-14.11 2-35.58-7.07-49.22-10.68-33.42-8.83-54.14-13.19-86-25.26-53.88-20.38-142.83 35.42-178.12 73.13-4.61 4.93-15.51 11.22-17.84 17.65-4.08 11.26 1.67 8.8-9.22 20.44-3.3 3.53-10.67 15.48-7.37 21 5.84 9.75 19.91 1.31 27.92 6.65 3.91 2.6 6.33 14.74 11.22 16.83 11.63 5 24.16-2.29 35.15-4.87 5.23-1.22 3.41 3.9 7.61 5.72 7.43 3.23 16.72 3.55 24.68 3.28 26.51-.87 52.42-10.1 78.8-11.48 32.2-1.67 63.54 3.46 95.5-1.79 26.86-4.41 96-10.23 96-10.23s8.59-32.27 6.69-49.56c-1-9.24-6.93-23.72-5.42-32.85Z"/><path fill="#fff" d="M1466.89 668.65c12.75-2.36 27.61-2.91 40.68-3.28 9.61-.28 19.22 1.13 28.79 1 2.43 0 28.34.23 28.78 1 2.15 3.9-15.62 24-18.8 26.57a60.89 60.89 0 0 1-19.6 11c-14.2 4.78-35.76 3.45-57.71-22.5Z"/><path fill="#eeffd3" d="m288 1116.11 164.14 1a570.31 570.31 0 0 1 20.8 99.5c5.91 53.26 2.84 113.56 2.84 113.56l-156.27 2S326 1281 318.14 1227 288 1116.11 288 1116.11Z"/><path fill="#ffd6d3" d="m437.86 1210.54 186.51-8s14.23 86.89 16 141.57-8.9 77.11-8.9 77.11L455.63 1427s9.09-34.23 4.65-88.35-22.42-128.11-22.42-128.11Z"/><path fill="#fff7d3" d="m635.56 1128.84 205.44-2.47 16.52 146.52-1.74 72.78-195.27 6.46s6.76-30.19.52-86-25.47-137.29-25.47-137.29Z"/><path fill="#fff7d3" fill-opacity="0" d="m384 333.73 137.68.72-.68 70.65-8.65 68.47-140.56-1 12.45-71.31Z"/><path fill="#ffd6d3" fill-opacity="0" d="m586.29 332.06 137.69.71-.69 70.66-8.65 68.46-140.56-1 12.44-71.31Z"/><path fill="#fff7d3" fill-opacity="0" d="m2485.68 621.63-137.68.72.68 70.65 8.65 68.47 140.56-1-12.44-71.31Z"/><path fill="#ffd6d3" fill-opacity="0" d="m2530.8 991.84-137.69.72.7 70.65 8.65 68.47 140.55-1-12.44-71.32Z"/><path fill="#eeffd3" fill-opacity="0" d="m2216.2 621.1-137.69.72.69 70.66 8.65 68.47 140.56-1-12.41-71.28ZM387.26 573.52l137.68.71-.69 70.66-8.65 68.46-140.6-.95 12.44-71.32Z"/><path fill="#fff7d3" fill-opacity="0" d="M2121.32 291.58h134.52v140h-134.52Z"/><path fill="#ffd6d3" fill-opacity="0" d="M1920.08 291.21H2055v135.63h-134.92Z"/><path fill="#fff7d3" fill-opacity="0" d="M731.58 662.74h136.14v136.5H731.58Z"/><path fill="#949494" d="m1033.69 1592.12 152 18.93-66.69 19.86-71 16.09Z"/><path fill="#ffe4ce" d="M1343.94 838s67.39-6.52 70.13-56.25c1.12-20.41.91-40.54-5-52.48-6.61-13.46-18.15-26.22-24.76-39.1-4.76-9.27-5.85-23.3-9-33.23-2.61-8.18-8.69-24.84-11.84-32.58-1.33-3.29-12-4.75-18.52-9.17-8.57-5.77-21.33-17-21.33-17s-17.56-40.79-10.11-56.35c4-8.41 23.36-22.68 30-7.51 9.81 22.38 26.51 40.76 28.78 31.72 6.65-26.58-4.84-10.63 9.93-33.73 6.9-10.77 54.32-37 63.84-45.46 16.35-14.49 12.65-75.63 23.48-86.41 11.44-11.4 12-18.54 29.2-9 17.47 9.64 12.62 49.7 15.36 80.39 1.51 16.87 12.86 25 18.36 32.52 6.07 8.3 57.54.46 67.75 2.71 3.44.76 17.6 3.39 20.18 6 3 3.08 15.3 16 16.55 20.48 5.37 19.25 4.52 14 4.52 14s5.82 26.09 18.55 12.42c6.43-6.91 11.72-22.28 15.24-31.27 2.71-6.9 18 .55 23.42 3.3 24.52 12.52 15 43.87 7.33 60.48-8.33 18-29 16.68-36.7 28.59-8 12.48-6.24 28.56-12.58 42.92-5.5 12.48-11.25 27.07-18.66 38.55-8.19 12.69-23.57 23.53-27.78 38.22-5.17 18-3.23 54.53 9.9 69.93 20.19 23.69 60.47 31.2 60.47 31.2L1591 909.5l-73.74 20.91-72.63-14.86s-83.4-51.12-84.19-60Z"/><path fill="#fff" d="M1463.19 673.82c9.48-4.74 26.08-1.34 36.34-1.34 15 0 30.08-1.65 45.09-2.36 2.45-.12 13.5-1.18 14.47 2.69 2.14 8.59-14.09 18.25-19.18 22.88-16.11 14.64-36.36 22.7-55.86 8.07-4.86-3.64-6.12-9.14-10.09-13.12Z"/><path fill="#571419" d="M2188.75 1524.85a5.56 5.56 0 0 1-.06-11.11l488.2-5.6h.07a5.56 5.56 0 0 1 .07 11.11l-488.21 5.6Zm-1021.35 4.8a5.56 5.56 0 0 1-.05-11.11l213-2a5.56 5.56 0 0 1 .06 11.11l-213 2ZM68 1537.14a5.56 5.56 0 0 1 0-11.14l237.74-4a5.56 5.56 0 1 1 .19 11.11l-237.74 4Zm1869.35-151.85a5.53 5.53 0 0 1-4.41-2.18c-29.31-38.19-65.13-104.79-90-153.93a5.55 5.55 0 1 1 9.9-5c24.68 48.72 60.14 114.67 88.92 152.19a5.55 5.55 0 0 1-4.4 8.94Z"/><path fill="#571419" d="M1711 1459.78a5 5 0 0 1-.67 0 5.54 5.54 0 0 1-4.85-6.18c.93-7.74 3-16.94 10.53-19.46 123.77-41.06 292.81-81.72 350.12-75.84a5.54 5.54 0 0 1 5 6.09 5.6 5.6 0 0 1-6.09 5c-54-5.58-222.3 34.47-345.48 75.34 0 0-1.91 1-3 10.24a5.56 5.56 0 0 1-5.56 4.81Z"/><path fill="#571419" d="M1846.28 1404.35a5.55 5.55 0 0 1-5.55-5.37c-1-31.62-.45-68.65.2-107.84.37-22.46.75-45.67.83-68.84v-6.29c.06-41.55.16-104.33 27.06-131.11a5.56 5.56 0 0 1 7.84 7.88c-23.63 23.52-23.73 86-23.79 123.25v6.3c-.08 23.25-.46 46.5-.83 69-.64 39.06-1.25 76-.21 107.3a5.55 5.55 0 0 1-5.36 5.73Zm-654.01 58.97a6 6 0 0 1-1.1-.11 5.56 5.56 0 0 1-4.35-6.54c15.29-76 4.44-318.68-3.55-405.5-.62-6.76-9.74-10.54-22.55-15.15a5.55 5.55 0 0 1 3.76-10.45c13.38 4.81 28.53 10.26 29.85 24.59 8 87.3 18.89 331.65 3.38 408.7a5.56 5.56 0 0 1-5.44 4.46Z"/><path fill="#571419" d="M1128.1 1560.49a5.56 5.56 0 0 1-3.2-10.1l.44-.31c33.44-23.48 46-32.26 62.06-94.88a5.56 5.56 0 1 1 10.76 2.77c-17.13 66.58-31.56 76.72-66.43 101.2l-.44.31a5.48 5.48 0 0 1-3.19 1.01Zm-159.95-238.82h-.54a5.55 5.55 0 0 1-5-6.06c7.34-76.61 29.24-161.21 48.56-235.85 4.05-15.67 8-30.73 11.5-44.93 3.07-12.26 16.92-16.24 28.84-15.76a5.56 5.56 0 0 1 5.36 5.75 5.45 5.45 0 0 1-5.75 5.35c-5.42-.18-16.11 1.1-17.67 7.35-3.56 14.23-7.46 29.32-11.53 45-19.22 74.24-41 158.38-48.25 234.12a5.56 5.56 0 0 1-5.52 5.03Z"/><path fill="#571419" d="M1118.8 1067.44c-29.08 0-61.27-5-74.3-13.78-7.12-4.82-8.18-10.11-7.8-13.71a5.55 5.55 0 0 1 11 1.15c-.08.76 1.08 2.08 3 3.35 19 12.84 90.83 16.48 111.41 5.64 2.58-1.36 3.17-2.41 3.17-2.67a5.55 5.55 0 0 1 5.55-5.52 5.56 5.56 0 0 1 5.52 5.59c0 3.5-1.62 8.5-9.1 12.43-9.7 5.14-28.33 7.52-48.45 7.52ZM1512.58 935h-.85c-87.5-.89-162.17-79-167.88-87.81a5.55 5.55 0 1 1 9.33-6c5.14 8 77.24 81.9 158.66 82.73h.77c54.11 0 139-57.09 155.62-79.74a5.55 5.55 0 0 1 9 6.57c-18.11 24.59-106.29 84.25-164.65 84.25Zm218.72 644.31a5.56 5.56 0 0 1-4.73-8.47c16.77-27.28 17.82-64.42 11.42-89.13-3.4-13.16-8.85-22.93-14.57-26.15a5.55 5.55 0 1 1 5.45-9.68c8.55 4.81 15.61 16.54 19.88 33 6.48 25 7 65.62-12.72 97.74a5.53 5.53 0 0 1-4.73 2.69Z"/><path fill="#571519" d="M1156.48 1060.86h-.6a5.55 5.55 0 0 1-4.93-6.11c.26-2.43 6.4-59.58 10.9-74.53 4.84-15.5 15-26.54 25.78-38.22 7.23-7.84 14.71-16 20.7-25.73 17.56-29 32.37-50.3 45.28-65.09 11.85-13.86 19.14-25.16 23.56-45 .9-4.63 2.22-9.25 3.5-13.73 2-6.89 4.42-15.48 2.71-17.9-.48-.68-2-1.15-4.12-1.28-8.68-.56-18 16.28-24.8 28.56-4.18 7.49-7.79 14-11.5 17.69l-2 2.13c-8.48 9.3-24.26 26.61-43.54 17.77-9.67-4.59-23.94-18.24-32.63-35.49-6.27-11.39 19.06-46.28 25.89-51.49 10.64-8.12 25.59 1 35.67 13.67a68.45 68.45 0 0 1 4.33 6.83c3.33 5.67 8.89 15.14 13.53 15.77 1.39.2 3-.64 4.92-2.46 5.72-4.93.73-18.74-4.1-32.08l-1.56-4.34c-3.82-11.16-43.7-34.54-57.14-31-10.48 2.73-31.54 25.47-42.36 39.17a5.56 5.56 0 1 1-8.72-6.89c3.1-3.92 30.8-38.47 48.27-43 19.62-5.14 64.79 21.6 70.44 38.12l1.52 4.22c2.55 7 5 13.95 6.4 20.31 5.25-5.42 11.17-9 18-8.52 5.75.36 10 2.37 12.5 6 4.78 6.77 2 16.31-1.11 27.36-1.21 4.25-2.46 8.64-3.3 12.95-4.94 22.14-13.28 35.08-26 50-12.51 14.34-27 35.13-44.19 63.6-6.58 10.73-14.43 19.24-22 27.48-9.9 10.74-19.25 20.88-23.33 33.94-4.18 13.92-10.41 71.87-10.48 72.45a5.54 5.54 0 0 1-5.49 4.84Zm18.4-261.72c7.59 14.84 19.66 26.56 27.29 30.18 10.92 5 20.72-4.33 30.63-15.19l2.16-2.35c2.28-2.29 5-6.88 7.94-12.07h-.14c-10-1.36-16.71-12.8-21.61-21.15-1.33-2.28-2.6-4.43-3.51-5.63-7.11-8.92-16.57-14.42-20.18-11.66-6.52 4.95-22.99 31.53-22.58 37.87Zm-.21-.42.09.17Z"/><path fill="#571519" d="M1142.3 771.79a5.56 5.56 0 0 1-5.09-3.32c-.93-2.14-22.91-52.61-19-79.59 1-7.53 4-16.81 7.47-27.56 6-18.53 12.75-39.54 10.81-56.7-1.31-9-4.53-12.66-6.25-12.83-1.44-.13-4.51 2.18-7 9-1.83 6.71-6.17 16.59-9.68 24.53l-.78 1.79c-2.5 6-5.81 13.1-9 20-4.71 10.12-9.58 20.59-11.81 27.34-6.83 19.43-4.43 55.08-4.4 55.44a5.56 5.56 0 0 1-11.09.77c-.11-1.55-2.57-38.32 5-59.8 2.4-7.26 7.4-18 12.24-28.43 3.17-6.8 6.44-13.84 8.88-19.69l.84-1.9c3.2-7.28 7.6-17.25 9.16-23.13 0-.15.08-.29.13-.43 3.93-11.1 10.89-17.3 18.59-16.52 8.2.81 14.25 9.21 16.18 22.47 2.23 19.71-4.94 41.93-11.26 61.53-3.16 9.81-6.15 19.08-7 25.68-3.46 23.9 18 73.1 18.19 73.59a5.56 5.56 0 0 1-2.86 7.32 5.48 5.48 0 0 1-2.27.44Z"/><path fill="#571519" d="M1107.87 778.67a5.55 5.55 0 0 1-4.52-2.32c-6.27-8.75-37.43-53.21-35.78-69.61.72-7.2 2.87-18.37 4.94-29.17 2.36-12.28 4.8-25 4.92-30.58.8-22.6-4.35-29-5.94-30.44a3.07 3.07 0 0 0-2.42-1c-4.12.6-10 20.86-13.93 34.27l-1.4 4.79c-4.91 17.53-12.29 36-12.6 36.82a5.56 5.56 0 1 1-10.32-4.12c.08-.19 7.47-18.76 12.24-35.76l1.41-4.84c7.11-24.4 11.81-40.52 23-42.15a14 14 0 0 1 11.44 3.69c7.08 6.35 10.33 19.48 9.63 39-.13 6.46-2.54 19.05-5.1 32.37-2 10.56-4.13 21.48-4.8 28.18-.91 9 19.19 41.69 33.75 62a5.56 5.56 0 0 1-4.51 8.79Z"/><path fill="#571519" d="M1047.18 1052.8a5.78 5.78 0 0 1-1.3-.16 5.56 5.56 0 0 1-4.11-6.7c3.28-13.61 7.27-31.12 10.79-46.57 1.45-6.4 2.82-12.38 4-17.5 10.56-55.67 2.68-145.5 1.45-153.93-1.76-12.12-15-25.78-26.72-37.83-12.59-13-23.47-24.18-24-35.52-1.78-52.06.23-80.66 15.89-82.93a13.89 13.89 0 0 1 10.62 3.12c9.2 7.62 10.9 27.35 12.55 46.43.77 8.91 1.81 21 3.62 23.75 22 14.85 43 39.22 43.92 40.25a5.56 5.56 0 1 1-8.43 7.24c-.21-.25-21.13-24.48-41.93-38.44-5.57-3.66-6.66-13.44-8.25-31.84-1.17-13.61-3-34.18-8.57-38.84a2.62 2.62 0 0 0-2.17-.65c.13 0-4 1.63-5.82 21.72-1.29 14.46-.89 33.25-.33 49.73.35 7.06 10.8 17.83 20.91 28.24 13.5 13.91 27.46 28.29 29.74 44 1.25 8.62 9.3 100.5-1.57 157.81-1.22 5.32-2.59 11.3-4 17.69-3.53 15.48-7.53 33-10.81 46.7a5.58 5.58 0 0 1-5.48 4.23Zm2.82-307.71Zm-.39-.33Zm86.77 152.87a5.54 5.54 0 0 1-5-3.1c-10.71-21.75-18.72-45.38-24.56-62.63-2.21-6.54-4.12-12.18-5.75-16.47a5.55 5.55 0 1 1 10.38-3.95c1.71 4.48 3.65 10.22 5.89 16.85 5.75 17 13.62 40.19 24 61.29a5.55 5.55 0 0 1-5 8Z"/><path fill="#571419" d="M1381 1528.65a5.58 5.58 0 0 1-4.4-2.16 13 13 0 0 1-2.43-9.92c2.41-17.61 36.68-44.06 44-49.55 2-1.72 18.4-16.06 26.94-21.5 14.42-9.17 49.27-20.18 53.31-21.45 3.87-1.73 36.79-16.12 55.18-15.56 14.17.54 27.92 5.68 41.22 10.64 5.89 2.2 11.45 4.28 16.95 5.93 2 .6 5 1.55 8.73 2.75 23.82 7.6 79.6 25.41 111.61 26.25a5.56 5.56 0 0 1 5.41 5.7 5.43 5.43 0 0 1-5.7 5.41c-33.59-.89-90.43-19-114.7-26.78-3.69-1.18-6.61-2.11-8.54-2.69-5.85-1.75-11.85-4-17.65-6.16-12.48-4.66-25.37-9.48-37.76-10-13.67-.66-41.07 10.45-50.47 14.72a5.26 5.26 0 0 1-.66.25c-.37.12-37.22 11.57-51 20.31-8.18 5.21-25.57 20.47-25.75 20.62l-.35.29c-14.66 10.92-38.45 32.07-39.84 42.27-.16 1.14.11 1.49.21 1.62a5.56 5.56 0 0 1-4.39 9Z"/><path fill="#571419" d="M1383.89 1565.14c-9.38 0-19.63-3.54-21.87-5.49-4.9-4.28-5.88-9-5.83-12.11.15-10.79 11.76-20.37 21.1-28.07 1.8-1.49 3.47-2.87 4.84-4.09 10.76-9.61 62.93-45.08 98.79-56.86l4.31-1.41c13.42-4.38 31.79-10.37 38.74-15.57a5.55 5.55 0 1 1 6.66 8.89c-8.41 6.31-27 12.37-42 17.24l-4.29 1.4c-36.21 11.9-86.64 47.26-94.85 54.59-1.47 1.31-3.25 2.78-5.18 4.38-6.35 5.24-17 14-17.06 19.65 0 .79.18 1.88 1.74 3.34 3.37 1.69 16.4 4.64 20.33 2a5.55 5.55 0 1 1 6.13 9.26c-3.04 2.09-7.2 2.85-11.56 2.85Zm-14.56-13.86Z"/><path fill="#571419" d="M1413.64 1581.59a44.38 44.38 0 0 1-6-.4c-9-1.21-17.35-6.08-20.87-12.12a12 12 0 0 1-1-10.63c4.41-11 19.74-20 28-24.84 1-.57 1.82-1.07 2.49-1.48q5.1-3.13 10.31-6.4c16.65-10.41 33.88-21.17 52-28.42 4.31-1.72 10.66-3.68 18-6 14.08-4.33 31.59-9.73 43.06-16a5.56 5.56 0 1 1 5.34 9.75c-12.46 6.81-30.58 12.39-45.13 16.87-7.12 2.2-13.28 4.1-17.17 5.65-17.24 6.88-34 17.38-50.28 27.52-3.49 2.19-7 4.35-10.38 6.45-.72.44-1.63 1-2.67 1.59-6.07 3.57-20.29 11.92-23.28 19.4-.17 1.44 4.89 6.49 13.09 7.6 14.91 2 30.62-6.92 44.5-14.8 3.77-2.14 7.33-4.16 10.87-6 26.69-13.75 68.87-28.17 102.93-29.37a5.49 5.49 0 0 1 5.75 5.36 5.55 5.55 0 0 1-5.36 5.74c-32.34 1.14-72.64 15-98.23 28.14-3.38 1.74-6.88 3.73-10.47 5.78-13.73 7.87-29.14 16.6-45.5 16.61Z"/><path fill="#571419" d="M1460.75 1583.8c-10.56 0-20.37-1.78-25.89-8a5.56 5.56 0 1 1 8.29-7.4c5.93 6.64 28.49 3.83 40.6 2.32 2.94-.36 5.56-.69 7.71-.88 9.26-.84 18.7-2.17 27.84-3.46 13.56-1.91 27.58-3.89 41.7-4.39 9-.31 21.14-.32 35.14-.34 20.75 0 46.57 0 71.82-1.14 27.7-1.21 65.44-7.54 69.66-8.26a5.55 5.55 0 0 1 1.86 11c-4.28.73-42.66 7.17-71 8.41-25.48 1.11-51.43 1.13-72.29 1.15-13.9 0-25.9 0-34.76.34-13.53.47-27.26 2.41-40.54 4.28-9.27 1.31-18.85 2.66-28.39 3.53-2 .18-4.54.49-7.33.84a201.9 201.9 0 0 1-24.42 2Zm-208.5-714a5.56 5.56 0 0 1-1.42-10.93c21.25-5.63 44.48-12 70.27-20.11 4.72-1.49 9.43-2.91 14.1-4.32 36-10.85 67.14-20.22 68.36-51.65a5.56 5.56 0 0 1 11.11.43c-1.53 39.35-37.83 50.29-76.27 61.86-4.62 1.39-9.29 2.8-14 4.27-26 8.21-49.39 14.59-70.77 20.26a5.92 5.92 0 0 1-1.38.19Z"/><path fill="#571519" d="m1414.69 786.79-11.11-.17.82-52.87a5.56 5.56 0 0 1 5.56-5.46h.08a5.55 5.55 0 0 1 5.47 5.64Z"/><path fill="#571419" d="M1940.58 1587.81c-43.42 0-88.56-1.84-133.06-3.66-23.94-1-48.7-2-72.75-2.7-6.23-.18-12.7-8.53-15.11-16.17a5.55 5.55 0 1 1 10.59-3.35 18.19 18.19 0 0 0 5.51 8.44c23.91.71 48.46 1.71 72.21 2.68 103.81 4.24 211.15 8.63 290.39-10.72 30.11-7.34 58.92-16 80.59-40.81 36-41.25-8.95-137.63-18.33-156.53-65.49-131.89-126.76-244.23-171.5-326.26q-8.62-15.81-16.23-29.78c-40.29-74.08-73-95.31-97.08-105.54-20.13-8.56-55.12-17.71-92.16-27.4-28.22-7.39-57.41-15-84.15-23.37-4.71-1.48-9.43-2.88-14.1-4.27-38.84-11.58-75.54-22.5-77.08-61.87a5.55 5.55 0 0 1 5.33-5.77 5.63 5.63 0 0 1 5.77 5.33c1.24 31.43 32.71 40.8 69.15 51.66 4.72 1.4 9.48 2.82 14.25 4.31 26.48 8.27 55.54 15.87 83.65 23.23 37.44 9.8 72.81 19 93.69 27.93 25.69 10.93 60.56 33.36 102.49 110.45q7.59 14 16.23 29.77c44.78 82.11 106.11 194.55 171.69 326.64 13.95 28.11 56.4 123.38 16.75 168.78-23.79 27.24-55.69 36.82-86.33 44.3-46.39 11.32-101.82 14.68-160.41 14.68Z"/><path fill="#571519" d="M1613.85 793.4a5.54 5.54 0 0 1-5.55-5.39c0-1.4-1-34.41-.75-47.75a5.56 5.56 0 0 1 11.11.19c-.22 13.09.74 46.9.74 47.24a5.54 5.54 0 0 1-5.39 5.71Z"/><path fill="#571419" d="M319 1336a5.56 5.56 0 0 1-5.54-5.9c.05-.76 4.59-76.44-7.23-128.08-11.9-52-24.61-83.47-24.73-83.78a5.54 5.54 0 0 1 5.11-7.65l165.63-.84a5.56 5.56 0 0 1 5.19 3.57c.66 1.74 16.23 43.09 20.2 92.53a5.55 5.55 0 0 1-11.07.89c-3.19-39.71-14.41-74.81-18.23-85.86l-153.68.78c4.51 12.4 13.59 39.44 22.38 77.88 10.34 45.2 8.66 106 7.8 125.24l132.84-2.33a5.65 5.65 0 0 1 5.65 5.46 5.54 5.54 0 0 1-5.45 5.65l-138.8 2.44Zm341.78 21.57a5.54 5.54 0 0 1-5.48-6.43c0-.19 3.11-20.87.22-73.75-2.93-53.31-25.27-148-25.5-148.93a5.57 5.57 0 0 1 5.36-6.84l205.23-1.81a5.5 5.5 0 0 1 5.55 4.78c.13.87 12.37 88.08 16.41 142.16 4.09 54.77-1.84 79.5-2.09 80.53a5.56 5.56 0 0 1-5.22 4.21L661 1357.57Zm-18.38-224.9c5.24 22.91 21.66 97.6 24.21 144.11 2.08 38 1.16 59.59.36 69.48l183.48-5.73c1.42-8.89 4.07-32.5 1-73-3.47-46.42-13-117.56-15.67-136.61Z"/><path fill="#571419" d="M455.57 1431.37a5.55 5.55 0 0 1-5.38-6.9c.06-.27 6.6-27.26 4-80-2.6-53.29-20.78-132.24-21-133a5.56 5.56 0 0 1 5.2-6.81l185-7a5.53 5.53 0 0 1 5.7 4.71c.11.77 11.54 76.69 15.13 130.82 3.65 55-6.72 87.28-7.16 88.63a5.57 5.57 0 0 1-5.1 3.82l-176.26 5.7Zm-10-215.88c4.44 20.27 17.58 83.24 19.78 128.45 1.91 39.36-1.05 64.63-3 76.1l165.22-5.34c2.48-9.77 8.41-38.43 5.61-80.75-3-45.74-11.74-107.32-14.31-125Z"/><path fill="#571419" d="M1019.91 1688.13a25.27 25.27 0 0 1-3.55-.21l-599-51.61-39.72-4.64c-1.09-.13-26.37-3.43-43.46-23.14-10.4-12-13.22-19.19-16.79-28.28-.49-1.23-1-2.5-1.52-3.83-3.75-9.27-10.16-33.36-11.91-40a6.14 6.14 0 0 1-.57-1.34l-128.34-457.76c0-.14-.07-.29-.1-.44-.4-2.07-3.7-20.45 2.86-30.68 7.08-11 23.23-10.65 25.07-10.56l666 5.73c.57 0 19.94-.6 32.75 10.63 12.49 11 17.58 32.38 17.79 33.29l132 562.25c.44 2 3.91 19.37-5.31 29.34a35.5 35.5 0 0 1-26.2 11.25Zm-706.25-157.72a5.43 5.43 0 0 1 .66 1.54c.08.31 7.89 30.4 11.89 40.31.55 1.37 1.06 2.67 1.56 3.93 3.3 8.42 5.69 14.51 14.84 25.07 14.32 16.51 36.17 19.35 36.39 19.37l39.53 4.63 599.12 51.64a24.58 24.58 0 0 0 20.29-7.57c4.53-4.89 3.38-15.87 2.63-19.33l-132-562.18c0-.2-4.51-18.88-14.3-27.46-9.37-8.23-25.12-7.89-25.27-7.89l-666.4-5.73c-3.35-.09-12.31.61-15.42 5.45-3.49 5.45-2.14 18-1.34 22.37Z"/><path fill="#571419" d="M1063.67 1686.64c-9.27 0-19.29-1.59-25.1-7.33a5.56 5.56 0 1 1 7.81-7.91c6.23 6.17 27 4.08 36.11 2.1l265.51-64.65c.28-.06 9.5-2 15-7.56a27.74 27.74 0 0 0 4.69-6.66c-47.58 10.85-248 56.6-319.87 73.85a5.56 5.56 0 0 1-2.59-10.81c81.42-19.54 327.72-75.64 330.2-76.2a5.56 5.56 0 0 1 6.62 6.77c-.13.53-3.36 13.07-11.19 20.91s-20 10.44-20.47 10.54L1085 1684.32a108 108 0 0 1-21.33 2.32Z"/><path fill="#571419" d="M1376.05 1591h-.62l-350.65-39a5.56 5.56 0 1 1 1.23-11l350.65 39a5.55 5.55 0 0 1-.61 11.07Zm-330.26 60.12a5.56 5.56 0 0 1-1.28-11l113.89-27.08-123.68-15.04a5.56 5.56 0 0 1 1.35-11l154.44 18.83a5.55 5.55 0 0 1 .61 10.91l-144 34.25a5.24 5.24 0 0 1-1.33.13Z"/><path fill="#571519" d="M1308.43 559a5.51 5.51 0 0 1-3-.91c-38.93-25.61-35.47-83.62-35.3-86.08a5.55 5.55 0 0 1 11.08.74c0 .54-3.15 54 30.33 76.06a5.55 5.55 0 0 1-3.06 10.19Zm202.67 235.5h-.32c-1.41-.09-35-2.42-83-36.74-33.19-24.14-44.39-49.73-51.08-65-12.69-27.5-20.61-65.09-25.46-91a5.56 5.56 0 0 1 10.92-2c4.74 25.29 12.45 62 24.68 88.45 6.68 15.29 16.71 38.23 47.44 60.57 45.12 32.23 76.86 34.64 77.17 34.66a5.56 5.56 0 0 1-.34 11.1Zm-5.79-160.21a5.57 5.57 0 0 1-2.78-.74c-2.19-1.27-21.31-12.84-20.13-29.34.61-7.37 4.92-11.17 8.73-14.53 4.18-3.69 7.79-6.87 8.66-15.54.75-5.29-.48-14.06-3.73-27a5.56 5.56 0 0 1 10.78-2.7c3.7 14.81 4.93 24.4 4 31.08-1.27 12.78-7.66 18.42-12.33 22.54-3.3 2.92-4.78 4.32-5 7.06-.59 8.12 10.36 16.37 14.63 18.86a5.56 5.56 0 0 1-2.8 10.36Z"/><path fill="#571519" fill-rule="evenodd" d="M1420.38 562.15c0-10.62 5.79-19.31 13.52-20.27 7.72 0 14.47 7.72 14.47 19.3 0 10.62-5.79 19.3-13.51 20.27-6.76 0-13.51-8.69-14.48-19.3Z"/><path fill="#571519" d="M1360.55 630.43a5.5 5.5 0 0 1-1.13-.12c-27.14-5.61-47.79-26.29-52.59-52.69-2.78-19.45 0-33.58 8.19-42.22 6.56-6.91 16.2-9.85 28.66-8.71a5.56 5.56 0 0 1-1 11.07c-8.91-.81-15.49 1-19.6 5.29-7.15 7.54-6.82 22-5.28 32.79 3 16.43 16.32 37.89 43.88 43.6a5.55 5.55 0 0 1-1.12 11ZM1405 504a5.55 5.55 0 0 1-3.06-10.19c1.38-.91 34-21.86 69.35-3.16a5.55 5.55 0 1 1-5.2 9.81c-29.41-15.56-56.91 1.89-58.06 2.64a5.54 5.54 0 0 1-3.03.9Zm257.61 122.57a5.55 5.55 0 0 1-1.12-11c27.57-5.71 40.9-27.17 43.92-43.81 1.23-6.77 3.19-23.49-5.14-32.62-4.55-5-11.84-7.09-21.72-6.21a5.56 5.56 0 0 1-1-11.07c13.49-1.19 23.89 2.1 30.91 9.79 11.25 12.34 9.76 31.67 7.86 42.09-4.8 26.4-25.44 47.09-52.6 52.71a5.41 5.41 0 0 1-1.11.12Z"/><path fill="#571519" d="M1348 581.21a5.56 5.56 0 0 1-4.87-2.86c-1.55-2.78-5.17-7.77-8.24-9.31a5.55 5.55 0 0 1 5-9.93c7.12 3.56 12.41 12.81 13 13.85a5.55 5.55 0 0 1-2.16 7.55 5.49 5.49 0 0 1-2.73.7Zm329.09-1.93a5.46 5.46 0 0 1-2.69-.7 5.55 5.55 0 0 1-2.16-7.55c.58-1 5.87-10.29 13-13.85a5.56 5.56 0 0 1 5 9.94c-3.22 1.6-6.94 7-8.25 9.3a5.54 5.54 0 0 1-4.9 2.86ZM1409.77 559a5.55 5.55 0 0 1-3.41-9.94c10.24-8 36.16-12.37 51-2.12a5.56 5.56 0 1 1-6.32 9.14c-10-6.94-30.66-3.82-37.82 1.75a5.61 5.61 0 0 1-3.45 1.17Zm100.73 160.24h-1.47c-42.36-2.12-53.4-44.32-53.5-44.74a5.56 5.56 0 0 1 4.75-6.87 502.05 502.05 0 0 1 50.82-2.93 356.89 356.89 0 0 1 50.1 3.93 5.55 5.55 0 0 1 4.35 7.35c-.64 1.77-15.91 43.26-55.05 43.26Zm-42-41.29c4.28 10 15.64 28.9 41 30.17 23.7.68 37.25-19.07 42.73-29.54a343 343 0 0 0-41.08-2.79c-16.71 0-33.54 1.31-42.66 2.21Zm43.57 116.55a5.56 5.56 0 0 1 0-11.11c.47 0 27.38-.82 72.07-32.75 31.78-23.11 46.34-49 52.19-62.37 12.27-26.58 20-63.26 24.72-88.55a5.56 5.56 0 0 1 10.92 2c-4.85 25.87-12.77 63.45-25.5 91.06-6.26 14.3-21.9 42.15-55.83 66.83-48.25 34.49-77.36 34.89-78.57 34.89Z"/><path fill="#571519" fill-rule="evenodd" d="M1593.13 562.15c0-10.62-5.79-19.31-13.51-20.27-7.72 0-14.48 7.72-14.48 19.3 0 10.62 5.8 19.3 13.52 20.27 7.72 0 13.51-8.69 14.47-19.3Z"/><path fill="#571519" d="M1605.68 504a5.51 5.51 0 0 1-3-.91c-1.14-.74-28.65-18.19-58.05-2.63a5.55 5.55 0 0 1-5.2-9.81c35.32-18.7 68 2.25 69.35 3.16a5.55 5.55 0 0 1-3 10.19Zm-1.93 55a5.57 5.57 0 0 1-3.41-1.17c-6.83-5.32-27.39-9.77-37.59-1.92a5.56 5.56 0 0 1-6.78-8.81c14.72-11.31 40.56-6.32 51.19 2a5.55 5.55 0 0 1-3.41 9.94Z"/><path fill="#571519" d="M1640.41 551.29a5.55 5.55 0 0 1-5.46-4.62c-4.89-28.6-25.2-33.85-43.12-38.48-4.37-1.13-8.5-2.2-12.2-3.57-17.61-6.84-28.47-17.79-33.3-33.49-1.1-3.5-2.06-7.24-3-10.85-3.11-12.12-6.34-24.65-15.4-31.78a5.55 5.55 0 1 1 6.86-8.73c12 9.45 15.89 24.48 19.3 37.74.94 3.64 1.82 7.08 2.84 10.33 3.82 12.44 12.28 20.82 26.63 26.4 3.08 1.13 7 2.13 11 3.19 19.07 4.93 45.18 11.69 51.28 47.37a5.56 5.56 0 0 1-4.54 6.41 5.15 5.15 0 0 1-.89.08Zm17.39 16.41a5.56 5.56 0 0 1-3.77-9.64c10.65-9.83 17.85-28.55 8.49-46.42a5.56 5.56 0 1 1 9.85-5.15c12.07 23 2.86 47.12-10.81 59.74a5.56 5.56 0 0 1-3.76 1.47Zm-106.16-53.08a5.72 5.72 0 0 1-1-.09c-21.14-3.84-32.25-12.81-37.16-30-2.92-11.66-3.62-23.72-4.3-35.39-1-16.85-1.9-32.77-8.84-46.65-2.41-5.1-6.19-7.78-11.26-8.09-8.18-.51-17.81 5.41-23.47 14.37a5.55 5.55 0 0 1-9.39-5.93c7.84-12.42 21.24-20.27 33.52-19.53 9.16.55 16.48 5.64 20.59 14.32 7.91 15.82 8.94 33.64 10 50.86.67 11.68 1.31 22.7 3.93 33.17 3.1 10.85 9 18.4 28.42 21.94a5.55 5.55 0 0 1-1 11Zm76.57-42.62a42.19 42.19 0 0 1-18.08-4.29c-16.4-7.77-31.21-25.6-38.64-46.55a5.56 5.56 0 0 1 10.47-3.72c6.48 18.27 19.1 33.68 32.93 40.23 7.63 3.61 14.94 4.21 21.72 1.76a5.56 5.56 0 0 1 3.76 10.46 35.77 35.77 0 0 1-12.16 2.11Z"/><path fill="#571519" d="M1375 569.63a5.55 5.55 0 0 1-5.23-3.69c-10.19-28.53 9.36-40.56 30-53.31 24.87-15.31 55.82-34.37 60.36-88.95a5.56 5.56 0 0 1 11.08.92c-5 60.17-40 81.74-65.62 97.5-22 13.54-32.26 20.9-25.4 40.11a5.55 5.55 0 0 1-5.24 7.42Zm-18.33-8.69a5.54 5.54 0 0 1-3.43-1.19c-1.07-.86-26.15-21.3-11.41-61.29a5.55 5.55 0 1 1 10.42 3.84c-11.86 32.19 7.1 48.1 7.92 48.76a5.56 5.56 0 0 1-3.5 9.88Zm126.44-312.68c-20.6 0-32.39-6.76-40.67-23.34a5.55 5.55 0 1 1 9.93-5c6.35 12.7 14.4 17.2 30.74 17.2a5.56 5.56 0 1 1 0 11.11ZM1284.31 365a5.56 5.56 0 0 1-2.19-10.67c21-9 29.67-27 38.92-46.06 7.55-15.59 15.36-31.71 30.2-43.85 23.18-19.75 54.29-18.82 81.73-18 5.68.17 11 .33 16.37.33a5.56 5.56 0 0 1 0 11.11c-5.48 0-11.19-.17-16.71-.34-26.68-.8-54.26-1.63-74.27 15.42-13 10.66-20 25-27.33 40.16-9.72 20.07-19.77 40.82-44.54 51.43a5.44 5.44 0 0 1-2.18.47Z"/><path fill="#571519" d="M1271.77 450.92a5.54 5.54 0 0 1-4.93-3c-15.88-30.38 9.7-55.7 30.26-76 11.38-11.26 22.12-21.9 24.26-31.06a5.56 5.56 0 0 1 10.82 2.53c-2.86 12.28-14.72 24-27.26 36.42-19.82 19.62-40.31 39.9-28.24 63a5.55 5.55 0 0 1-4.91 8.12Zm384.14-182.08a72 72 0 0 1-22-3.47c-14.28-4.64-26.13-11.75-37.59-18.63-20.3-12.19-37.84-22.71-63.76-17-16.67 3.33-23.08 8.43-25.54 12.13a5.56 5.56 0 1 1-9.25-6.16c5.35-8 16-13.54 32.49-16.84 30.15-6.71 51.31 6 71.78 18.29 10.93 6.56 22.23 13.35 35.25 17.58 17.25 5.45 30.91 2.46 47-2a5.56 5.56 0 0 1 3 10.71c-10.55 2.97-20.58 5.39-31.38 5.39Zm114.8 171.47a5.55 5.55 0 0 1-2.06-.4c-27.89-11.15-32.53-49.88-35.3-73-3.9-34.11-30.09-65.12-63.68-75.46a5.56 5.56 0 1 1 3.27-10.62c37.68 11.6 67.06 46.46 71.44 84.78 3.21 26.74 8.31 56 28.39 64a5.55 5.55 0 0 1-2.06 10.71Zm-57.91 113.88a5.55 5.55 0 0 1-4.3-9.07c17.59-21.5 42.92-67.21 26.31-102.19a5.55 5.55 0 0 1 10-4.77c23.4 49.25-22.43 107.51-27.74 114a5.5 5.5 0 0 1-4.27 2.03Zm-349.36 165.99a5.46 5.46 0 0 1-2.25-.48 5.55 5.55 0 0 1-2.82-7.33c10.16-22.86-.86-70.13-21-90.32a5.55 5.55 0 1 1 7.85-7.86c23.66 23.66 35.44 75.48 23.35 102.69a5.56 5.56 0 0 1-5.13 3.3Zm12.56 16.41a5.56 5.56 0 0 1-1.19-11c.47-.12 7.08-2 11.49-13.05a5.55 5.55 0 1 1 10.31 4.13c-6.72 16.79-18.22 19.53-19.51 19.79a5.2 5.2 0 0 1-1.1.13Zm275-2.89a5.54 5.54 0 0 1-4.84-2.84c-17.34-30.82-1.65-54.59 12.19-75.57 8.75-13.25 17-25.77 17-39.1a5.56 5.56 0 1 1 11.11 0c0 16.66-9.58 31.18-18.84 45.22-13.27 20.11-25.8 39.09-11.79 64a5.54 5.54 0 0 1-2.12 7.56 5.46 5.46 0 0 1-2.71.73Zm-10.58 10.61a5.68 5.68 0 0 1-1.46-.19c-.49-.14-12.12-3.38-19.83-11.09a5.55 5.55 0 0 1 7.85-7.85c5.59 5.59 14.82 8.19 14.92 8.22a5.56 5.56 0 0 1-1.48 10.91Zm-179.5-381.21h-.15a5.55 5.55 0 0 1-5.41-5.7c2-78.11 54.44-86.35 55-86.42a5.55 5.55 0 1 1 1.54 11c-1.75.27-43.62 7.4-45.4 75.71a5.55 5.55 0 0 1-5.58 5.41Z"/><path fill="#b28bef" d="M667 730h-.05l-114.66-1.09a4.58 4.58 0 0 1-4.49-5.16c0-.45 5.86-45.84 7.89-73.8a253.76 253.76 0 0 0 0-38.81 4.57 4.57 0 0 1 4.55-5h113.64a4.6 4.6 0 0 1 3.25 1.35 4.54 4.54 0 0 1 1.33 3.25s-.07 16.28 0 38.91c.09 28.75-6.69 74.54-7 76.48A4.57 4.57 0 0 1 667 730Zm-109.53-10.21 105.52 1c1.66-11.87 6.39-47.89 6.32-71.16v-34.39H565.14a279.45 279.45 0 0 1-.36 35.36c-1.65 22.61-5.72 56.4-7.31 69.19Zm107.97-187.87-114.67-1.09a4.58 4.58 0 0 1-4.49-5.16c.06-.45 5.86-45.84 7.9-73.8a255.54 255.54 0 0 0 0-38.82 4.56 4.56 0 0 1 1.16-3.52 4.6 4.6 0 0 1 3.39-1.5h113.64a4.6 4.6 0 0 1 3.24 1.35 4.54 4.54 0 0 1 1.33 3.25s-.07 16.28 0 38.91c.09 28.75-6.69 74.54-7 76.48a4.57 4.57 0 0 1-4.5 3.9ZM556 521.73l105.52 1c1.65-11.87 6.39-47.89 6.31-71.16v-34.39H563.62a277.37 277.37 0 0 1-.36 35.35c-1.64 22.62-5.72 56.47-7.26 69.2Zm274.87 8.67-114.67-1.09a4.55 4.55 0 0 1-4.49-5.15c.05-.46 5.86-45.85 7.89-73.81a254.35 254.35 0 0 0 0-38.81 4.58 4.58 0 0 1 4.55-5H837.8a4.58 4.58 0 0 1 4.57 4.59s-.07 16.29 0 38.92c.09 28.75-6.69 74.55-7 76.48a4.57 4.57 0 0 1-4.5 3.87Zm-109.49-10.19 105.53 1c1.65-11.87 6.38-47.89 6.31-71.16-.05-15.49 0-28 0-34.39H729.05a277.52 277.52 0 0 1-.36 35.36c-1.64 22.61-5.69 56.44-7.31 69.19Zm1240.02 248a4.56 4.56 0 0 1-4.52-3.9c-.29-1.93-7.07-47.73-7-76.48.07-22.62 0-38.9 0-38.91a4.58 4.58 0 0 1 4.57-4.6h113.67a4.6 4.6 0 0 1 4.56 5 253.87 253.87 0 0 0 0 38.82c2 28 7.83 73.34 7.89 73.8a4.58 4.58 0 0 1-4.49 5.16l-114.66 1.08Zm-2.34-114.74v34.39c-.07 23.28 4.66 59.3 6.31 71.17l105.52-1c-1.58-12.76-5.65-46.58-7.3-69.2a279.45 279.45 0 0 1-.36-35.36Zm222.87 114.84a4.57 4.57 0 0 1-4.53-3.9c-.29-1.93-7.07-47.72-7-76.48.07-22.63 0-38.91 0-38.91a4.56 4.56 0 0 1 4.57-4.59h113.67a4.57 4.57 0 0 1 4.55 5 253.92 253.92 0 0 0 0 38.82c2 28 7.84 73.35 7.9 73.8a4.58 4.58 0 0 1-4.49 5.16l-114.6 1.1Zm-2.34-114.73v34.38c-.08 23.28 4.65 59.3 6.31 71.17l105.52-1c-1.58-12.76-5.66-46.58-7.31-69.2a278.79 278.79 0 0 1-.35-35.35Zm41.87 422.82a4.58 4.58 0 0 1-4.53-3.9c-.29-1.94-7.06-47.74-7-76.49.07-22.62 0-38.9 0-38.91a4.56 4.56 0 0 1 4.57-4.59h113.7a4.6 4.6 0 0 1 3.39 1.5 4.56 4.56 0 0 1 1.16 3.52 254 254 0 0 0 0 38.82c2 28 7.84 73.35 7.9 73.8a4.58 4.58 0 0 1-4.49 5.16l-114.67 1.09Zm-2.34-114.74v34.38c-.08 23.28 4.66 59.3 6.31 71.17l105.52-1c-1.58-12.76-5.66-46.58-7.3-69.2a277.37 277.37 0 0 1-.36-35.35ZM957.4 800.58H843.73a4.57 4.57 0 0 1-4.57-4.57V681.14a4.58 4.58 0 0 1 4.57-4.58H957.4a4.58 4.58 0 0 1 4.58 4.58V796a4.57 4.57 0 0 1-4.58 4.58Zm-109.09-9.15h104.52V685.71H848.31Zm1086.26-296.82H1820.9a4.58 4.58 0 0 1-4.58-4.57V375.16a4.57 4.57 0 0 1 4.58-4.57h113.67a4.57 4.57 0 0 1 4.57 4.57V490a4.58 4.58 0 0 1-4.57 4.61Zm-109.1-9.15H1930V379.74h-104.53ZM2101 497.44h-113.65a4.58 4.58 0 0 1-4.57-4.58V378a4.58 4.58 0 0 1 4.57-4.58H2101a4.58 4.58 0 0 1 4.58 4.58v114.86a4.58 4.58 0 0 1-4.58 4.58Zm-109.09-9.15h104.52V382.56h-104.5Z"/><path fill="#571419" d="M1026.63 864.46a4.58 4.58 0 0 1-2.28-8.55l43.8-25a4.57 4.57 0 0 1 4.54 7.94l-43.8 25.05a4.52 4.52 0 0 1-2.26.56Zm43 26.54a4.58 4.58 0 0 1-3.81-7.1l18.75-28.43a4.58 4.58 0 1 1 7.64 5l-18.75 28.43a4.57 4.57 0 0 1-3.83 2.1Zm-41.51-78.57a4.58 4.58 0 0 1-.61-9.11l29.84-4a4.58 4.58 0 1 1 1.22 9.07l-29.83 4a4.44 4.44 0 0 1-.62.04Z"/></svg>