<svg viewBox="0 0 2742 1828" xmlns="http://www.w3.org/2000/svg"><path fill="#8f54e2" fill-rule="evenodd" d="M0 0h2742v1828H0Z" data-name="Ñëîé 1"/><path fill="#b28bef" d="M2187.72 1004H485.14a5.71 5.71 0 1 1 0-11.42h1702.58a5.71 5.71 0 0 1 0 11.42ZM592.3 1502.05a5.7 5.7 0 0 1-5.11-3.16c-34.94-69.87-40-153.06-44.88-233.51-1.91-31.56-3.72-61.36-7.27-89.8-1.21-9.62-4.09-19.59-6.87-29.24-7.95-27.53-16.17-56 10.48-82.66 14.21-14.22 50.25-12 76.57-10.38 6.71.42 12.51.77 16.77.77 34 0 67.3-10.61 99.53-20.88 32.06-10.22 65.22-20.79 98.9-20.79a5.71 5.71 0 1 1 0 11.42c-31.9 0-62.76 9.84-95.43 20.25-33.06 10.53-67.24 21.43-103 21.43-4.61 0-10.57-.37-17.47-.79-21.4-1.33-57.22-3.52-67.79 7-21.89 21.88-15.26 44.84-7.59 71.41 2.91 10.07 5.92 20.48 7.23 31 3.6 28.8 5.42 58.79 7.35 90.52 4.81 79.31 9.79 161.32 43.69 229.11a5.71 5.71 0 0 1-5.11 8.26Zm1518.03-63.5a5.7 5.7 0 0 1-5.1-8.26c6.74-13.5 6.9-29.61 7.07-46.66.11-11.1.22-22.59 2.36-33.27q2.55-12.79 5-25.6c6.53-33.59 13.29-68.32 22.86-101.84.94-3.28 2.06-6.76 3.22-10.4 5.88-18.37 12.55-39.19 3.33-54.55-9.78-16.31-32.56-18.55-54.59-20.7-10.62-1-20.64-2-29.39-4.53-31.55-9-60.58-21.77-88.65-34.1-50.42-22.15-98-43.07-157.82-43.07a5.71 5.71 0 1 1 0-11.42c62.19 0 113.14 22.38 162.41 44 27.72 12.18 56.39 24.78 87.2 33.58 7.75 2.21 17.28 3.15 27.36 4.14 23.69 2.32 50.54 4.95 63.28 26.2 11.88 19.79 4.05 44.25-2.25 63.9-1.12 3.52-2.21 6.89-3.11 10.06-9.44 33-16.15 67.53-22.63 100.89-1.67 8.55-3.33 17.1-5 25.65-1.93 9.63-2 20.08-2.14 31.14-.17 17.6-.35 35.8-8.27 51.65a5.7 5.7 0 0 1-5.14 3.19Z" data-name="Ñëîé 4"/><g data-name="Ñëîé 3"><path fill="#cc8875" fill-rule="evenodd" d="M1240 240.65c-1-.19-11.39-3.45-18.12-7.75-8.57-5.48-14.77-12.44-26.62-14.69-13.45-2.55-26.57 4.41-35.71 12.64-2.48 2.23 17 1.27 24.93 9.14 3.8 3.77 2.53 13.38-.54 19.17s-8.45 1-17.26 2.16c-11.73 1.54-28.1 8.44-39 14.41-31 17.07-55.36 51.06-70.88 73.47a177.31 177.31 0 0 1-38.8 32.33c-22.16 13.45-53.69 24.89-74.11 46-10.06 10.38-19.78 22.7-25.5 33.77-16.56 32.08-3.34 44.36-2.44 55 .53 6.39 6.08 27.23 3.66 42.83-1.69 10.86-7.63 17-20.19 23.18-5.53 2.73-12.73 4.89-26-2.14-2.23-1.19 5.82 25.54 41.29 19.5 4.64-.78-6.85 4.65-21.71 18.37-9.88 9.11-22.08 23.09-29 37a72.69 72.69 0 0 0-6.83 30.54c.29 16.21 6.23 30.09 8.37 42.6.57 3.36 6.72 25.61-.67 41.22-12.09 25.55-41.07 51-46.53 78.21-3.68 18.32 6.32 28.48 13.92 35.25 4.19 3.74 3.5 11.45-2.63 25.72-4.42 10.28-13.85 25.73-16 37.24-3.46 18.72 6.12 35.85 14.34 47.76 3.83 5.54 12.9 27.3-4.71 49.83a254.55 254.55 0 0 1-25.82 25.89c-19.84 17-44 37.06-49.8 67-4.78 24.92-3.67 65.73 12.32 84.19a31.46 31.46 0 0 0 20.76 10.3c8.59.5 16.78-3.17 20.66-3.76 2.25-.34-25.12-13-29.1-34.46-2-10.77 0-27.47 3.61-38.63a72 72 0 0 1 14.2-25.62c3.34-4-6.3 31.14 1.13 58.13 6.34 23.06 29.74 38.69 33.57 34.84 47.51-47.65 178-13.1 187.1-15.83 33.49-10 131.41 14.71 169.85-15.9 133.75-106.5 581.8-181.71 593.24-179.59s20.67 2 33.3-8.68c7.42-6.29 18.87-20.05 23-30.24 7.18-17.72.42-49.63-4.08-61.15-3.59-9.21-14.84-26.73-23.66-31.69-6.33-3.56 1.41 11-.3 22s-12.83 18.21-18.89 18c-5.64-.2-23.23-6.67-31.67-17.83-10.47-13.85-11.4-33.16-11.79-36-1.07-7.64 1.77-28 5.45-43.76 5.13-21.95 11.79-41.75 10.88-65.94-.89-23.78-26.79-49.68-23.27-53.15 13-12.83 27-32.33 19.51-56-4.18-13.17-14.4-34.87-23.63-48.45-16.6-24.39-35.47-40.16-49.06-58.16-13.08-17.3-15.11-30.58-10.73-30.63 17.71-.21 30.84-16.59 37.57-27.4 3.1-5 5.33-18.91 3.28-24.21-4-10.22-7.68 10.14-19.27 4.15-5.25-2.71-15.75-10.45-21.65-17.68a73.48 73.48 0 0 1-12.34-21.81c-3.2-11.32-9-44.4-28.77-77.4-8.9-14.83-23-31.82-36.86-43-18.38-14.84-48.12-25.83-72-24.95-30.5 1.11-54 16.33-58.78 11.19-8.21-27.18-38.45-49.51-63.67-58-20.15-6.13-50-11.91-72.09-10.44s-38.89 9.4-53.8 14.4c-14.31 4.61-26.91 6.46-31.66 7.51Z"/><path fill="#ffe4ce" fill-rule="evenodd" d="M1236.85 795.77a154 154 0 0 1-30.4-53.5c-8.94-31.74-10.18-41-10.18-41s-23.71-11.78-38.93-28.28c-10.23-10.26-20.56-29.64-12.79-48.11 4.76-12 54.64-40.51 83.27-62.32 38.64-29.8 72.58-98.82 99-131.13s97.07-13 115.29-2.95c17.22 8.77 39.8 20.42 51.76 45.66s18 82.83 35.66 128.07c16.67 44 54 66.4 54 66.4l-.57-35.35s24.35 6.15 24 39.13c-.65 15.86-9 29.71-16.92 39.07-6.51 7.23-11.63 12.34-14.14 14.34a65.83 65.83 0 0 1-41.1 11.3s-1.76 5.5-18.91 36.57-50.54 54.63-50.54 54.63-69.47 41.66-117.08 37c-50.12-4.78-111.42-69.53-111.42-69.53Z"/><path fill="#ffe4ce" fill-rule="evenodd" d="m1230.7 781.09 255 18.57a51.27 51.27 0 0 1-1.15 16.59c-2.12 8.43-9.22 45.42-10.29 52.11s-4.86 27.82-5.32 35.37-.7 18.58.71 26.43 2.29 11.81 9.55 16.41 31.29 16.48 39.84 17.85 29.74 4.79 40.88 4.29 40.42 2.32 55.52.94 30.5-2.34 45.67-1.8 30.81 3.77 41.08 5.23 23.19 4.14 34.1 9.31 22.89 10.75 32.16 19.64 20.76 21.85 27.4 34.56 16.29 34.7 19.9 54.56 10.17 53.56 11.76 75.9 3.4 73.53 5 84.63.28 54.71 1.89 73.14-1.77 62.82-1.92 80-2.37 45.1-2.7 62.52-3.49 56.19-3.57 78-16.54 266.66-16.54 266.66l-178.19-1.09-.89-225.53-3.33-89.83-.52-77.79 3.34-64.18 8.54-65.93-32.42 2.51-53 15.35-60.32 12.77-54.79 6.91-45.33 5.7-76.2-6.07-91.33-1.17-17.14-5.37L1086 1301l-69-7.84 5.53 60.12 1.23 67.07-5.08 392.7-204.26 1.08 3.22-261.73.09-183.38 3.47-107.85 7.62-82.2 13.73-74.25 24.58-53.44 31.57-35.59 20.62-10.84 22.32-5.62-6.91 15.14-6.53 20.73-.35 25.59 18.78 23.8 21.8 15.71 12.38 15.38.47 24-13.52 9.52-20.23 1.59s14.31 17.84 42.64 16.69c19.53-.79 34.64-28.55 34.64-28.55l17.18-22.12 11.41 29.19 20.53 21.91 26.55 12.2 27.83-1.23 21.83-10.4 15-16.33-14.39 4.18-21-2.48-13.53-14.27-.54-22.93 10.42-29.26 23.37-26.89 24.22-18 35.34-23.65 28.77-21.06 21.73-27 9.36-28.5-4-30.8-14.43-33.33-14.53-33.38-6.56-19.68Z"/><path fill="#fff" fill-rule="evenodd" d="M1016.32 1292.74s13.17.72 24.53 2.25 34.51 3.64 44 4.69 34 5.07 52.79 8.41 26.08 4.21 43.5 6.12 42.8 9.19 42.8 9.19-22.59.31-32.69 1.57-23.39 3.87-35.81 4.56-28 3.36-41 4.21-31.23 3.39-43.06 5-22.94 4.84-30.38 5.6-20.13 4.86-20.13 4.86 0-15.49-.77-25.49-3.78-30.97-3.78-30.97Zm376.25 38.74a232.41 232.41 0 0 1 27-4.14c14.47-1.32 36.78-2.12 49.91-5s38.45-4.56 55.35-9.48 24.68-5.66 39.82-10.67 22.37-8.14 38.7-10.8a241 241 0 0 1 34.69-2.51s-1 15-2.13 25.12-4.89 24.11-5.32 34.17-.65 12.87-1 21.23a105 105 0 0 1-2.64 17.94s-17.27-6-33-10.38-35.47-11.08-58.82-16.23-49.11-10.68-63.55-14.11-23.18-5-32.39-6.38-13.62-3-24.92-4.45a177.19 177.19 0 0 1-21.7-4.31Z"/></g><g data-name="Ñëîé 2"><path fill="#571519" d="M1348.54 871a5.76 5.76 0 0 1-.82-.06c-1.62-.23-40.31-6.16-91.87-50-35.91-30.26-45.63-59.16-51.44-76.42-8.25-22.48-12.43-48.57-16-73.35a5.71 5.71 0 0 1 11.31-1.63c3.49 24.18 7.55 49.6 15.47 71.19 5.83 17.32 14.56 43.28 48 71.49 48.81 41.51 85.75 47.37 86.12 47.43a5.71 5.71 0 0 1-.81 11.36Zm19.03-219.83a5.62 5.62 0 0 1-3.38-1.12c-.94-.69-22.8-17.11-19.29-36 1.73-8.72 7.72-12.89 13-16.56 4.84-3.36 9-6.28 10.74-12.6.56-6.14-.88-20.62-1.49-25.79a5.71 5.71 0 0 1 11.34-1.36c.25 2.08 2.4 20.52 1.47 28.8a6.58 6.58 0 0 1-.14.75c-2.68 10.74-9.73 15.64-15.4 19.58-4.78 3.33-7.53 5.4-8.31 9.33-1.82 9.8 10.11 21.14 14.87 24.68a5.71 5.71 0 0 1-3.42 10.3Zm6.72-65.28Zm-39.35-79.52a5.67 5.67 0 0 1-2.77-.72c-35.08-19.48-66.91-1.22-68.25-.43a5.71 5.71 0 0 1-5.83-9.83c1.56-.93 38.67-22.47 79.63.27a5.71 5.71 0 0 1-2.78 10.71Zm222.42 187.79a5.71 5.71 0 0 1-4.37-9.39c1-1.12 9.52-11 19.43-12.67a5.71 5.71 0 1 1 1.89 11.26c-4.94.83-10.89 6.76-12.58 8.77a5.69 5.69 0 0 1-4.37 2.03Z"/><path fill="#571519" d="M1353.5 871.24a42.65 42.65 0 0 1-4.49-.19 5.71 5.71 0 0 1 1.26-11.35c.31 0 32 2.92 88.53-25.52 40-20.64 60.08-46.75 68.47-60.47 11-17.89 21.23-39.94 29.55-63.81a5.71 5.71 0 0 1 10.79 3.76c-8.59 24.63-19.17 47.46-30.6 66-9 14.73-30.47 42.74-73 64.68-48.27 24.31-79.43 26.9-90.51 26.9Zm154.89-338.52a5.68 5.68 0 0 1-4-1.66c-1.12-1.09-28-26.94-66.42-15.78a5.71 5.71 0 0 1-3.19-11c45.08-13.09 76.35 17.35 77.67 18.65a5.71 5.71 0 0 1-4 9.76Zm-319.78 121.07a5.73 5.73 0 0 1-5.09-3.1c-1.21-2.34-5.73-9.46-10.31-11.34a5.72 5.72 0 0 1 4.35-10.57c9.29 3.83 15.45 15.37 16.12 16.67a5.72 5.72 0 0 1-5.07 8.34Z"/><path fill="#571519" d="M1533.94 740.46a5.71 5.71 0 0 1-.25-11.42c32.35-1.39 65.6-20.92 67-61.44.36-6.78-.52-16.15-6.77-22.88-4.74-5.1-11.82-7.79-21.06-8a5.71 5.71 0 0 1 .11-11.42h.13c12.27.26 22.37 4.29 29.19 11.64 7.1 7.65 10.49 18.42 9.81 31.14-1.58 47.72-40.25 70.75-77.86 72.37Zm-336.16-36.7a5.91 5.91 0 0 1-1.75-.27c-40.94-13.09-63.62-42.37-60.67-78.31a5.71 5.71 0 1 1 11.38.93c-2.48 30.28 17.25 55.13 52.78 66.49a5.72 5.72 0 0 1-1.74 11.16Z"/><path fill="#571519" d="M1094.09 714.85a5.71 5.71 0 0 1-5.69-5.29c-4.62-62 51-97.62 75.17-110.06 53.09-29.43 90.77-54 127.89-124 24.37-46 60.94-100.75 97.37-99.4 17.78.56 32.83 14.22 44.74 40.59a5.72 5.72 0 0 1-10.42 4.7c-10-22.06-21.63-33.46-34.68-33.87h-.76c-23.32 0-54.66 33.93-86.15 93.34C1263 553.63 1224 579.07 1169 609.57c-22.28 11.48-73.28 43.95-69.17 99.14a5.7 5.7 0 0 1-5.27 6.12ZM1624.3 696a6.17 6.17 0 0 1-.94-.08c-2.73-.46-67.29-12.18-103.4-104.62-5.89-15.64-9.94-33.57-13.85-50.91-9.89-43.9-19.24-85.36-55.43-96.17a5.71 5.71 0 0 1 3.26-11c42.61 12.73 53.14 59.44 63.32 104.61 3.82 17 7.78 34.49 13.37 49.33 33.58 86 94 97.34 94.63 97.44a5.72 5.72 0 0 1-1 11.35Zm-163.69-284.74a5.08 5.08 0 0 1-1.08-.11 5.7 5.7 0 0 1-4.53-6.68c4.17-21.83.32-40.06-11.43-54.18-13.68-16.43-37.16-25.92-64.24-25.58a5.71 5.71 0 0 1 0-11.42c30.71-.23 57.22 10.63 73.09 29.69 13.85 16.64 18.65 38.64 13.87 63.64a5.73 5.73 0 0 1-5.68 4.64Z"/><path fill="#571519" d="M1602.58 686.73a5.73 5.73 0 0 1-4.07-1.7c-31.28-31.81-35.65-64.79-40.7-103-4.08-30.82-8.7-65.74-27.84-108.89a5.71 5.71 0 1 1 10.45-4.63c19.8 44.65 24.54 80.44 28.72 112 5 37.65 8.92 67.39 37.52 96.47a5.71 5.71 0 0 1-4.08 9.71ZM814.41 1814.46h-.08a5.73 5.73 0 0 1-5.64-5.8c.5-36.2.76-82.57 1.07-136.25 1-176 2.35-417.1 14.1-491.85l1.11-7c8.57-55 17.44-111.91 61.46-153 13.81-12.89 30.76-22 51.81-27.84a5.71 5.71 0 1 1 3.06 11c-19.24 5.35-34.64 13.59-47.07 25.2-41.14 38.4-49.7 93.31-58 146.41l-1.1 7.06c-11.61 73.9-13 314.47-14 490.13-.3 53.71-.56 100.1-1.06 136.35a5.71 5.71 0 0 1-5.66 5.59Zm416.87-988.26h-.28a5.71 5.71 0 0 1-5.48-5.94c.39-9.65.45-20 .16-31.49a5.71 5.71 0 1 1 11.42-.28c.29 11.79.24 22.34-.16 32.24a5.72 5.72 0 0 1-5.66 5.47Zm256.87 152.43a5.73 5.73 0 0 1-4-1.67c-36.33-36.33-16.85-112-5.21-157.14.93-3.62 1.81-7 2.6-10.2a5.71 5.71 0 0 1 11.08 2.78c-.8 3.19-1.68 6.63-2.62 10.27-11 42.82-29.49 114.49 2.23 146.21a5.71 5.71 0 0 1-4 9.75Z"/><path fill="#571519" d="M1811.84 1814.46h-.25a5.71 5.71 0 0 1-5.46-6c.33-7.74 3-55 5.74-105 3.05-54.89 6.21-111.65 6.59-120.85.92-22.11 2-44.36 3-66.7 5.07-107.46 10.31-218.58 1.42-325.18l-.84-10.3c-5.41-67.11-12.15-150.63-73.92-185.93-38.38-21.94-85.31-20.58-130.72-19.29-51.47 1.48-104.73 3-147.12-28.79a5.71 5.71 0 0 1 6.85-9.14c39.2 29.39 88.12 28 139.95 26.51 47-1.33 95.54-2.74 136.7 20.79 67 38.29 74.32 128.82 79.65 194.93l.84 10.28c9 107.34 3.69 218.83-1.4 326.66-1.05 22.32-2.1 44.55-3 66.63-.39 9.29-3.55 66.09-6.6 121-2.78 50-5.41 97.22-5.74 104.88a5.71 5.71 0 0 1-5.69 5.5Zm-793.17-1.09a5.71 5.71 0 0 1-5.71-5.68c-.22-31.06.69-95.07 1.74-169.18 1.7-119.89 3.62-255.76 1.43-299.28-1.59-31.62-9.22-108.34-45.59-137.73a5.71 5.71 0 0 1 7.18-8.89c38.52 31.13 47.75 104.86 49.82 146.05 2.21 43.88.28 179.95-1.42 300-1 74-1.95 138-1.73 168.94a5.73 5.73 0 0 1-5.68 5.76Z"/><path fill="#571519" d="M1630.39 1814.46h-.24a5.71 5.71 0 0 1-5.47-5.94c2-47.35.61-103.81-.8-163.59-4.22-178-9-379.85 63.25-496.31a5.71 5.71 0 1 1 9.71 6c-70.45 113.58-65.72 313.57-61.54 490 1.42 60 2.76 116.61.8 164.33a5.72 5.72 0 0 1-5.71 5.51Z"/><path fill="#571519" d="M1398.42 1334.37a5.71 5.71 0 0 1-.27-11.42c49.62-2.41 96.61-8.74 139.67-18.84 8.89-2.08 17.88-4.84 27.41-7.76 23-7.07 46.86-14.39 70.72-12.2a5.71 5.71 0 1 1-1 11.38c-21.59-2-44.33 5-66.32 11.74-9.29 2.85-18.89 5.8-28.16 8-43.73 10.25-91.41 16.68-141.71 19.12Zm-176.35-8.74a6 6 0 0 1-.73-.05c-25.19-3.19-50.73-6.92-75.42-10.52-41.38-6-84.17-12.27-126.31-16.14a5.71 5.71 0 0 1 1-11.38c42.44 3.9 85.39 10.16 126.92 16.22 24.64 3.59 50.12 7.31 75.21 10.49a5.71 5.71 0 0 1-.71 11.38Z"/><path fill="#571519" d="M1080.51 1302.8a5.64 5.64 0 0 1-4-1.68c-9-9-18-18.39-26.82-27.47-44.65-46.26-90.82-94.1-151.78-117.74-20.28-7.86-62.92-16.63-74.41-2.41-8 9.88-.07 30.14 4.18 41a5.71 5.71 0 0 1-10.64 4.16c-5.45-14-14.58-37.33-2.43-52.37 17.63-21.83 69.09-8.17 87.43-1.06 63.31 24.55 110.36 73.31 155.87 120.45 8.73 9 17.76 18.41 26.69 27.35a5.71 5.71 0 0 1-4 9.74Zm498.71-1.45h-.53a5.72 5.72 0 0 1-5.17-6.21c7-76.37 15-162.92 39.53-245.52l1.45-4.9c7.86-26.85 19.75-67.44 47.21-78.15a5.72 5.72 0 1 1 4.15 10.65c-22.22 8.67-33.6 47.51-40.4 70.71l-1.45 4.95c-24.24 81.51-32.14 167.47-39.11 243.3a5.71 5.71 0 0 1-5.68 5.17ZM1460.07 291.46a5.71 5.71 0 0 1-5.45-4c-15.76-49.92-94.72-67.55-132.67-63-12.44 1.49-24.08 5.58-36.4 9.9-14.26 5-29 10.17-45.26 11.09-11.75.65-21.65-6.34-30.41-12.52-7.32-5.16-14.2-10-20.15-9.06-6.74 1.11-15.13 5.08-21.87 8.27-1.85.87-3.61 1.71-5.25 2.44a5.71 5.71 0 0 1-4.69-10.41c1.58-.71 3.28-1.52 5.06-2.36 7.38-3.49 16.57-7.84 24.89-9.21 10.52-1.73 19.71 4.74 28.6 11 7.58 5.35 15.47 10.85 23.18 10.44 14.65-.82 28-5.51 42.12-10.46 12.36-4.34 25.14-8.82 38.83-10.46 42.37-5.08 127 14.29 144.92 70.92a5.71 5.71 0 0 1-5.45 7.43Zm-571.3 299.27a5.71 5.71 0 0 1-.8-11.37c11.64-1.67 19.35-5.57 23.56-11.91 8.22-12.37 2.63-33.74-2.31-52.6-1.51-5.79-2.94-11.26-4-16.48-3.07-15.05 4.93-32.29 12.24-45.63 17.37-31.74 45.93-47.15 73.54-62.05 14-7.56 28.49-15.37 41.38-25.24 14.38-11 24-24.63 34.26-39.05 7.46-10.52 15.18-21.41 24.9-31.2 23.17-23.34 57.32-38.61 91.34-40.85a5.71 5.71 0 1 1 .75 11.4c-31.32 2.06-62.72 16.07-84 37.5-9.06 9.12-16.5 19.61-23.69 29.76-10.26 14.47-20.88 29.44-36.63 41.5-13.62 10.44-28.5 18.47-42.9 26.24-27.36 14.76-53.2 28.7-69 57.48-6.37 11.63-13.38 26.44-11.05 37.85 1 4.92 2.39 10.24 3.87 15.88 5.54 21.18 11.81 45.18.77 61.81-6 9.09-16.62 14.77-31.46 16.9a5.76 5.76 0 0 1-.77.06Zm-56.83 296.65a5.65 5.65 0 0 1-3.42-1.14c-34.25-25.65-6.58-64 13.62-91.91 6.4-8.85 12.44-17.21 15.55-23.73 8.72-18.24 4.57-35.06.18-52.87-3.86-15.66-7.85-31.86-3.2-49.6 8.55-32.66 29.58-49.81 49.92-66.39 11.84-9.66 24.1-19.65 33.91-32.75a5.71 5.71 0 0 1 9.14 6.85c-10.65 14.22-23.45 24.66-35.83 34.75C892 626.73 873.33 642 865.72 671c-3.91 14.94-.43 29 3.24 44 4.68 19 9.52 38.59-1 60.52-3.56 7.46-9.89 16.22-16.59 25.5-23.4 32.38-39.44 58.55-16 76.08a5.71 5.71 0 0 1-3.43 10.28Z"/><path fill="#571519" d="M782.42 1236.34a33.44 33.44 0 0 1-22.6-8.41c-24.63-21.64-22.68-76.86-14.68-101.69 8.65-26.83 26.87-42.26 44.49-57.19 12.94-11 25.17-21.31 33.9-35.94 9.77-16.38 3.63-28.35-4.15-43.51-6.67-13-14.23-27.74-9.54-46.06 7.09-27.69 22.5-54.87 43.38-76.53 2.66-2.75 5.36-5.42 8-8.07 13.18-13.07 25.62-25.42 29-44.2a5.71 5.71 0 1 1 11.24 2c-4 22.32-18.37 36.53-32.23 50.27-2.61 2.59-5.25 5.2-7.84 7.89-19.25 20-34 46-40.55 71.43-3.61 14.12 2.34 25.73 8.64 38 7.89 15.36 16.82 32.77 3.8 54.59-9.71 16.26-23.24 27.72-36.33 38.8-17.15 14.53-33.35 28.25-41 52-8 24.7-7.51 73 11.34 89.6 8.26 7.24 19.22 7.49 33.52.74a5.71 5.71 0 1 1 4.87 10.33c-8.97 4.3-16.68 5.95-23.26 5.95Z"/><path fill="#571519" d="M805.71 1229.38a33.3 33.3 0 0 1-21-7.57c-9.79-7.81-16.58-21.34-17.72-35.3-2.61-32.1 15.21-72.78 48.57-82.52a5.71 5.71 0 0 1 3.2 11c-27 7.87-42.64 42.87-40.38 70.63.89 10.92 6 21.38 13.46 27.29a21.68 21.68 0 0 0 17.12 4.83 5.71 5.71 0 1 1 1.62 11.31 33.67 33.67 0 0 1-4.87.33Zm337.98-66.79a39.33 39.33 0 0 1-8-.82c-13-2.7-22.41-11.42-25.24-23.32-4.63-19.5 5.2-41.62 11.47-53.07 14.88-27.17 41.27-43.9 66.79-60.07 25.68-16.28 52.25-33.12 66.17-60.47 15.48-30.43 1.76-61-12.77-93.41-12.54-27.95-25.5-56.85-20-87.29a5.72 5.72 0 0 1 11.25 2c-4.89 27 7.34 54.21 19.17 80.57 15 33.41 30.49 68 12.52 103.27-15.34 30.14-43.25 47.83-70.24 64.94-25.41 16.11-49.41 31.32-62.88 55.9-4.41 8.06-14.26 28.58-10.37 45 1.77 7.48 7.92 13 16.44 14.77 9.31 1.94 18.86-1.18 23.78-7.75a5.72 5.72 0 0 1 9.15 6.86c-6.12 8.21-16.31 12.89-27.24 12.89Z"/><path fill="#571519" d="M1113 1185.67c-21 0-41.33-9.68-55.6-27.22-27.64-34-30.77-81.39-8.39-126.84a5.71 5.71 0 1 1 10.25 5.05c-20.35 41.33-17.74 84.16 7 114.57 15.31 18.83 38.75 26.94 61.16 21.18 20.67-5.32 35.32-21.18 39.17-42.43a5.71 5.71 0 1 1 11.24 2c-4.67 25.76-22.45 45-47.56 51.46a69.54 69.54 0 0 1-17.27 2.23Zm-155.72-29.35a42.71 42.71 0 0 1-11.23-1.46c-8.54-2.36-14.34-7.41-16.33-14.23a5.71 5.71 0 1 1 11-3.21c1.08 3.69 5.17 5.53 8.41 6.43 9 2.47 20.09.21 24-3.47 4.3-4 3.59-12.32 3-19l-.16-2c-.56-7.16-9.85-13.32-18-18.76-3-2-5.88-3.9-8.31-5.84-30.25-24.25-35.59-48.15-18.45-82.49 17-34.11 46.9-51.32 75.79-68 34.87-20.09 67.8-39.07 76.38-86.38a5.71 5.71 0 1 1 11.24 2c-9.52 52.52-46.33 73.73-81.92 94.24-27.42 15.8-55.77 32.14-71.27 63.18-14.59 29.22-10.42 47.78 15.38 68.46 2 1.63 4.67 3.38 7.48 5.24 9.85 6.54 22.11 14.68 23.11 27.38l.16 2c.74 8.69 1.75 20.59-6.63 28.36-5.2 4.79-14.39 7.55-23.65 7.55Z"/><path fill="#571519" d="M983.33 1172.9c-13.64 0-27.57-5.69-38.65-16.08a5.71 5.71 0 0 1 7.81-8.34c10.94 10.26 25.1 14.85 37.87 12.31 12.32-2.45 22.2-11.21 28.58-25.34a5.71 5.71 0 1 1 10.41 4.71c-7.85 17.37-20.9 28.68-36.75 31.84a47.29 47.29 0 0 1-9.27.9ZM1464 293.85a5 5 0 0 1-.94-.08 5.71 5.71 0 0 1-4.7-6.57c4.73-28.39 5.43-57.42-21.25-77.43a5.71 5.71 0 0 1 6.85-9.14c31.66 23.74 30.74 58 25.67 88.45a5.72 5.72 0 0 1-5.63 4.77Zm233.89 174.37c-10.39 0-20.66-9-27.71-16-14.86-14.86-19.84-34.71-24.65-53.9-3-11.88-5.79-23.09-10.77-33C1601 297.73 1545 269.37 1485 289.37a5.71 5.71 0 0 1-3.62-10.84c65.89-22 127 8.55 163.58 81.61 5.53 11.07 8.63 23.42 11.63 35.37 4.64 18.5 9 36 21.65 48.6 11.94 11.93 18 13 20.58 12.61.76-.12 3.07-.5 5.45-5.26a5.71 5.71 0 1 1 10.22 5.11c-4.13 8.26-9.81 10.77-13.84 11.43a17.27 17.27 0 0 1-2.76.22Z"/><path fill="#571519" d="M1670 514.18a5.71 5.71 0 1 1 0-11.42c14.93 0 24.26-11.5 28.5-18.36 9.4-15.22 11.43-34.93 4.93-47.94a5.71 5.71 0 0 1 10.22-5.11c8.31 16.62 6.13 40.36-5.43 59.06-9.31 15.11-23.22 23.77-38.22 23.77Z"/><path fill="#571519" d="M1723.65 711.89a5.72 5.72 0 0 1-2.55-10.83c28.51-14.25 35.1-36.95 20.73-71.43-9.59-23-25.3-40.72-41.92-59.44-14.57-16.41-29.64-33.38-40-54.14a5.71 5.71 0 1 1 10.22-5.11c9.71 19.41 23.61 35.08 38.34 51.66 16.52 18.6 33.6 37.84 43.93 62.63 16.69 40.07 7.89 69-26.18 86a5.69 5.69 0 0 1-2.57.66Z"/><path fill="#571519" d="M1713.46 716.08a5.71 5.71 0 1 1 0-11.42c5.91 0 11.92-15 11.92-23.38 0-19.1-9.41-38.37-30.44-38.37a5.71 5.71 0 0 1 0-11.42c28.76 0 41.86 25.81 41.86 49.79 0 12.14-8.02 34.8-23.34 34.8Z"/><path fill="#571519" d="M1782.45 922.85a33.69 33.69 0 0 1-12.54-2.5c-16.2-6.46-27.47-23.47-31.1-36.55-7.67-27.58-1.41-51.37 4.65-74.38 3-11.38 6.08-23.13 7.52-35.36 2.58-22-4.29-44-21-67.42a5.71 5.71 0 1 1 9.3-6.64c18.45 25.82 26 50.49 23.06 75.39-1.53 13-4.72 25.18-7.82 36.93-5.92 22.54-11.52 43.82-4.69 68.43 3 10.77 12.31 24.19 24.33 29a20.74 20.74 0 0 0 19.25-1.51c4.67-2.8 5.32-8.82 5.37-11.27.15-6.31-2.52-12.57-6.49-15.22a5.71 5.71 0 0 1 6.34-9.51c7.28 4.85 11.82 14.66 11.57 25-.21 9.18-4.19 16.77-10.91 20.8a32.44 32.44 0 0 1-16.84 4.81Z"/><path fill="#571519" d="M1787.54 1016.2a25.21 25.21 0 0 1-11.4-2.75 5.71 5.71 0 1 1 5.11-10.22c13.94 6.95 30.09-11.39 41.18-28 8.68-13 8.34-38.67-.83-62.37-7.45-19.29-19.07-32.59-31.07-35.59a5.72 5.72 0 0 1 2.77-11.09c15.84 4 30 19.47 39 42.56 8.81 22.79 12.13 54.15-.32 72.83-17.98 26.84-32.98 34.63-44.44 34.63ZM896.53 606.32a19.8 19.8 0 0 1-7.62-1.59c-16.62-6.89-30.37-34.58-30.37-45.81a5.71 5.71 0 0 1 11.42 0c0 7.63 12.2 30.65 23.32 35.25 3.27 1.36 5.76.83 8.35-1.76a5.71 5.71 0 0 1 8.08 8.08 18.43 18.43 0 0 1-13.18 5.83ZM1492 590a5.48 5.48 0 0 1-1.44-.19c-16.49-4.29-34-6-49.22-4.82a5.71 5.71 0 1 1-.89-11.38c16.51-1.29 35.32.54 53 5.15A5.71 5.71 0 0 1 1492 590Z"/><path fill="#571519" d="M1488.83 600.4h-.17a79.27 79.27 0 0 1-13.85-2 76 76 0 0 0-11.92-1.79 5.71 5.71 0 1 1 .44-11.41 83 83 0 0 1 13.76 2A70.72 70.72 0 0 0 1489 589a5.72 5.72 0 0 1-.16 11.43ZM1316 570.59a5.59 5.59 0 0 1-2.37-.53c-13.28-6.08-33.59-10.6-49.07-6.95a5.71 5.71 0 1 1-2.61-11.12c19.35-4.55 42.49 1.3 56.44 7.69a5.72 5.72 0 0 1-2.39 10.91Z"/><path fill="#571519" d="M1297.1 576.11a5.69 5.69 0 0 1-1.1-.11c-2.73-.56-4.75-1-6.3-1.32a29.31 29.31 0 0 0-8.91-1c-2.16 0-5.28 0-10.25-.18a5.7 5.7 0 0 1-5.55-5.86 5.54 5.54 0 0 1 5.86-5.56c4.86.13 7.92.16 10 .17a38.32 38.32 0 0 1 11.15 1.25c1.53.32 3.51.75 6.2 1.3a5.71 5.71 0 0 1-1.14 11.31Z"/><path fill="#ce5b47" fill-rule="evenodd" d="M1376.13 706.42c-17.65-1.57-82-21.32-75.86 20 1.82 12.22 15.18 2.42 20 9.32 6 8.49-7.74 30.6 3.38 34.93 13.46 5.23 12.49-27.58 19.17-31 17.5-8.89 42.64 5.11 61.39 2.31 10.09-1.5 19.68-14.22 13.11-23.58-4.46-6.4-25.17-10.56-41.19-11.98Z"/><path fill="#571519" d="M1326.41 776.92a13.19 13.19 0 0 1-4.81-1c-10.62-4.13-8.36-16-6.71-24.74.79-4.15 2-10.44.73-12.22-.59-.44-3.17-.34-4.54-.3-4.4.16-14.67.53-16.46-11.46-1.54-10.31.64-18.41 6.49-24.07 13.79-13.38 43.87-7.92 63.77-4.32 4.86.88 9.06 1.64 11.76 1.88 8.82.79 38.19 4.14 45.38 14.39a18.09 18.09 0 0 1 1.53 17.86c-3.27 7.6-10.69 13.49-18.48 14.65-8.86 1.33-18.59-.61-28-2.48-11.77-2.34-22.9-4.56-31.23-.6-1 1.5-2.23 6.4-3.07 9.7-2.23 8.84-4.55 18-11.22 21.42a11.22 11.22 0 0 1-5.14 1.29ZM1313 727.23c3.93 0 8.78.64 12 5.2 4 5.73 2.56 13.46 1.14 20.92-.8 4.22-2.13 11.28-.37 12a1.73 1.73 0 0 0 .68.18c2-1 4.31-10.13 5.3-14 2-8 3.64-14.39 8.53-16.88 11.9-6 25.72-3.28 39.07-.63 8.83 1.76 17.15 3.43 24.07 2.39 3.83-.57 8-4 9.65-7.85 1.11-2.58 1-4.86-.37-6.8-2-2.81-15.94-7.7-37-9.57-3.22-.28-7.65-1.09-12.78-2-16.54-3-44.21-8-53.79 1.28-3.09 3-4.12 7.63-3.14 14.18a4 4 0 0 0 .46 1.58c.54.29 2.89.21 4.29.16.65-.13 1.43-.16 2.26-.16Zm777.8 806.82a6.13 6.13 0 0 1-.74 0c-53.71-6.89-97.4-16.34-137.5-29.75-39-13-77.33-26.52-119.81-41.53a5.72 5.72 0 0 1 3.81-10.78c42.42 15 80.71 28.47 119.63 41.48 39.37 13.16 82.37 22.45 135.33 29.25a5.71 5.71 0 0 1-.72 11.38Zm-468.41-142.7a5.67 5.67 0 0 1-1.66-.25c-166.72-50.76-296.45-69.29-420.59-60.06-67.22 5-121.36 11.86-170.36 21.59a5.72 5.72 0 0 1-2.22-11.22c49.46-9.81 104-16.73 171.73-21.76 125.64-9.36 256.63 9.33 424.77 60.53a5.71 5.71 0 0 1-1.67 11.17ZM520.81 1567.38a5.71 5.71 0 0 1-1-11.34c84.77-14.73 165.6-61.73 243.77-107.18 15.09-8.78 30.69-17.85 46-26.5a5.71 5.71 0 0 1 5.62 10c-15.26 8.61-30.83 17.67-45.88 26.42-79 46-160.78 93.49-247.57 108.56a5.5 5.5 0 0 1-.94.04Z"/><path fill="#571519" d="M450.57 1532.61a5.71 5.71 0 0 1-.46-11.41l3.55-.29c65.81-5.46 133-20.71 197.9-35.47 22.58-5.13 45.93-10.43 68.75-15.21a5.72 5.72 0 0 1 2.34 11.19c-22.72 4.75-46 10-68.56 15.17-65.33 14.83-132.88 30.18-199.46 35.71l-3.58.29a3.85 3.85 0 0 1-.48.02Zm1464.02-80.83q-39.73 0-79.27-1.54a5.71 5.71 0 0 1-5.49-5.93 5.61 5.61 0 0 1 5.94-5.48 2044.38 2044.38 0 0 0 205.18-2.39c17.11-1.06 34.26-2.39 50.85-3.67 47.83-3.7 93-7.19 139.91-5.19a5.72 5.72 0 1 1-.49 11.42c-46.2-2-91.06 1.48-138.54 5.16-16.63 1.29-33.83 2.62-51 3.69a2052.33 2052.33 0 0 1-127.09 3.93ZM822.75 1227.29a5.72 5.72 0 0 1-2-.35c-32.47-12.07-45.91-53.48-33.44-103.06a5.71 5.71 0 1 1 11.08 2.79c-11 43.63-.39 79.63 26.34 89.56a5.71 5.71 0 0 1-2 11.06Z"/><path fill="#fff" d="M851.27 340.08a5.71 5.71 0 0 1-5.3-3.59l-8.57-21.39a5.71 5.71 0 0 1 10.6-4.25l8.57 21.39a5.71 5.71 0 0 1-5.3 7.84ZM817.25 360a5.71 5.71 0 0 1-.44-11.41l24.32-1.9A5.71 5.71 0 1 1 842 358l-24.32 1.9Zm29.04 36.86a5.81 5.81 0 0 1-1.58-.23 5.72 5.72 0 0 1-3.91-7.07l6.61-22.9a5.71 5.71 0 0 1 11 3.17l-6.61 22.9a5.72 5.72 0 0 1-5.51 4.13Zm24.95-51.31a5.71 5.71 0 0 1-3.73-10L886 319.6a5.71 5.71 0 0 1 7.45 8.66L875 344.17a5.67 5.67 0 0 1-3.76 1.38Zm25.03 30.69a5.62 5.62 0 0 1-2.89-.79l-20.54-12.09a5.71 5.71 0 1 1 5.79-9.84l20.54 12.09a5.71 5.71 0 0 1-2.9 10.63ZM1847.92 526a5.72 5.72 0 0 1-4.58-9.13l13.79-18.46a5.71 5.71 0 0 1 9.16 6.83l-13.79 18.46a5.68 5.68 0 0 1-4.58 2.3Zm-20.4 1.09a5.71 5.71 0 0 1-4.63-2.36L1808.6 505a5.71 5.71 0 1 1 9.26-6.7l14.29 19.7a5.71 5.71 0 0 1-4.63 9.06Zm-30.67 24.24a5.71 5.71 0 0 1-1.5-11.22l23-6.29a5.71 5.71 0 1 1 3 11l-23 6.29a5.6 5.6 0 0 1-1.5.22Zm80.01 2.07a5.72 5.72 0 0 1-1.76-.28l-23.21-7.5a5.71 5.71 0 0 1 3.51-10.87l23.22 7.5a5.71 5.71 0 0 1-1.76 11.15Zm-36.37 29.86a5.72 5.72 0 0 1-5.71-5.63l-.38-23.82a5.72 5.72 0 0 1 5.6-5.81h.09a5.72 5.72 0 0 1 5.72 5.62l.37 23.83a5.72 5.72 0 0 1-5.62 5.81ZM707.83 668a5.7 5.7 0 0 1-2.58-.62L684.7 657a5.71 5.71 0 1 1 5.16-10.19l20.55 10.41a5.71 5.71 0 0 1-2.58 10.78Zm-12.43 37.39a5.7 5.7 0 0 1-4.09-9.69l17-17.49a5.72 5.72 0 1 1 8.19 8l-17 17.48a5.68 5.68 0 0 1-4.1 1.7Zm46.17 8.61a5.72 5.72 0 0 1-5.17-3.29l-10.15-21.61a5.71 5.71 0 1 1 10.34-4.86l10.15 21.56a5.73 5.73 0 0 1-5.17 8.15Zm-15.13-55.06a5.46 5.46 0 0 1-.8-.05 5.71 5.71 0 0 1-4.86-6.45l3.4-24.17a5.71 5.71 0 0 1 11.31 1.59l-3.4 24.14a5.7 5.7 0 0 1-5.65 4.94Zm15.65 11a5.71 5.71 0 0 1-1.09-11.32l23.41-4.47a5.71 5.71 0 0 1 2.15 11.22l-23.41 4.47a5.79 5.79 0 0 1-1.06.1Z"/></g></svg>