<svg xml:space="preserve" enable-background="new 0 0 2490 2500" viewBox="0 0 2490 2500" xmlns="http://www.w3.org/2000/svg"><path fill="#06b6d4" d="M1245.1 503.3c-332 0-539.4 165.9-622.4 497.8C747.2 835.2 892.4 773 1058.4 814.4c94.7 23.7 162.4 92.4 237.3 168.4 122 123.8 263.3 267.2 571.9 267.2 331.9 0 539.4-165.9 622.4-497.8-124.5 165.9-269.7 228.2-435.7 186.7-94.7-23.7-162.4-92.4-237.3-168.4-122.1-123.9-263.4-267.2-571.9-267.2zM622.6 1250C290.7 1250 83.2 1415.9.2 1747.8c124.5-165.9 269.7-228.2 435.7-186.7 94.7 23.7 162.4 92.4 237.3 168.4 122 123.8 263.3 267.2 571.9 267.2 332 0 539.4-165.9 622.4-497.8-124.5 165.9-269.7 228.2-435.7 186.7-94.7-23.6-162.4-92.4-237.3-168.4-122-123.8-263.3-267.2-571.9-267.2z"/></svg>