<svg viewBox="0 0 2742 1828" xmlns="http://www.w3.org/2000/svg"><path fill="#8f54e2" d="M-1.48 5.57h2744.95v1829.89H-1.48z"/><path fill="#b28bef" d="M1984.69 1679.7c-8.24 19.53-18.24 38.72-32.47 54.6-14.52 16.2-32.69 28.18-52 38a456.86 456.86 0 0 1-44.3 19.19c-5.44 2.08-3.08 10.93 2.43 8.83 25.55-9.76 51.33-20.52 73.82-36.31a156 156 0 0 0 43.38-46 262.05 262.05 0 0 0 17.94-35.91c1-2.3-1-5-3.2-5.63-2.63-.76-4.67.93-5.63 3.2Zm91.12-85.7a200.6 200.6 0 0 0-35.52 7.1c-5.41 1.69-11.06 3.69-15.68 7.06-6.47 4.73-9.57 12.48-12.57 19.63-1 2.29 1 5 3.19 5.63 2.63.75 4.68-.93 5.63-3.2 2.32-5.52 5.11-12.18 9.91-15.21 4.3-2.72 9.25-4.32 14.1-5.73a200.57 200.57 0 0 1 30.94-6.14c2.45-.29 4.57-1.88 4.57-4.57 0-2.24-2.11-4.88-4.57-4.57ZM2345 1722q30.43 45.68 60.86 91.35c3.25 4.88 11.18.31 7.91-4.61l-60.87-91.36c-3.25-4.88-11.18-.31-7.9 4.62Zm-299.17-75.16A643.45 643.45 0 0 1 2155 1780.7q12.77 20.85 23.91 42.64c2.69 5.24 10.59.62 7.91-4.62a653.29 653.29 0 0 0-99.67-143.16q-16.76-18.27-34.87-35.19c-4.3-4-10.79 2.43-6.47 6.47ZM1636.4 619.42c74.21-4.12 147.92-14.24 222-19.44 34.33-2.41 68.73-2.38 103.06-4.63 29.39-1.92 60.33-3.42 85.33 14.75 23.87 17.33 39.89 43.81 51.52 70.42 13.41 30.67 22.06 63.71 28.81 96.42 14.37 69.56 17.67 140.63 20.36 211.4 2.73 71.7 6 143.38 7.22 215.13q.23 13.48.36 27c0 5.89 9.2 5.9 9.15 0-.73-72.82-3.79-145.58-6.66-218.34-2.85-72.42-5-145-17.59-216.58-6.07-34.49-14.39-68.83-26.53-101.71-10.33-28-24.27-55.54-45.24-77.1-10.18-10.46-22.06-19.62-35.74-24.91-13.9-5.38-29.14-6.74-43.93-6.73-15.5 0-30.93 1.59-46.39 2.31-17.7.83-35.43.75-53.13 1.61-75.24 3.68-149.94 14-225 19.5q-13.8 1-27.61 1.78c-5.86.33-5.89 9.48 0 9.15Z"/><path fill="#b28bef" d="M1973.38 792a1754.45 1754.45 0 0 1-62.83 165q-10 22.63-20.56 45c-2.51 5.3 5.38 9.94 7.9 4.62q38-80.16 67.87-163.84 8.57-24.06 16.45-48.35c1.82-5.62-7-8-8.83-2.44ZM755.8 1682.13c8.84 20.95 19.34 41.26 34.56 58.34 15 16.87 34.06 29.53 54.09 39.71a483.77 483.77 0 0 0 46.48 20.12c5.51 2.1 7.89-6.74 2.43-8.83-24.43-9.33-49-19.7-70.55-34.63a145.38 145.38 0 0 1-41.17-43.42 247.09 247.09 0 0 1-17-33.72c-1-2.3-3-3.89-5.62-3.2-2.16.57-4.16 3.35-3.2 5.63Zm-82.29-78.95a200.21 200.21 0 0 1 30.93 6.14c4.77 1.38 9.62 3 13.87 5.58 5 3.08 7.77 9.7 10.15 15.36.95 2.27 3 3.92 5.62 3.2 2.15-.6 4.17-3.33 3.2-5.63-3-7.16-6.1-14.89-12.57-19.63-4.61-3.37-10.28-5.37-15.68-7.06a200.6 200.6 0 0 0-35.52-7.1c-2.46-.3-4.57 2.31-4.57 4.57 0 2.72 2.11 4.27 4.57 4.57Zm-103.01-51.76a1142.85 1142.85 0 0 0-190 194.55q-23.52 30.62-44.93 62.77c-3.28 4.91 4.65 9.5 7.9 4.61a1134.22 1134.22 0 0 1 175.31-205.28Q547 1582 577 1557.89c4.58-3.7-1.93-10.14-6.47-6.47Zm126.5 88.95a652.78 652.78 0 0 0-110.28 135.15q-13 21.12-24.26 43.2c-2.68 5.23 5.21 9.87 7.9 4.62a644.33 644.33 0 0 1 98.68-141.8q16.55-18 34.43-34.7c4.31-4-2.17-10.5-6.47-6.47Zm415.91-1030.1c-88.07-4.9-175.48-18.26-263.65-21.77-19.75-.79-39.48-.85-59.21-2.15-17.86-1.18-35.85-2.28-53.63.4-17.26 2.61-32.23 9.78-45.59 20.92-13.2 11-24 24.75-32.91 39.38-19.72 32.36-31 69.69-39.87 106.29-9.74 40.41-15.48 81.71-19.16 123.08-3.81 42.76-5.15 85.64-6.93 128.52-1.84 44.32-4.05 88.63-6.05 133-4 89.38-7.18 178.89-4.61 268.36q.48 16.45 1.21 32.9c.27 5.87 9.42 5.9 9.15 0-3.93-88.06-1.84-176.24 1.8-264.27 1.81-43.74 4-87.47 6-131.2 2-43.08 3.1-86.2 5.77-129.24 2.57-41.25 6.61-82.47 14.14-123.14 7.08-38.22 16.58-77.08 32.46-112.69 7.08-15.86 15.6-31.35 26.5-44.93 10.52-13.11 23.61-25.73 39.28-32.39 15.92-6.76 33.72-7.46 50.76-6.95 17.57.52 35.06 2.31 52.64 2.55 87.18 1.16 173.59 13.91 260.4 20.46q15.77 1.18 31.54 2.07c5.89.33 5.87-8.82 0-9.15Z"/><path fill="#b28bef" d="M767.11 794.39q27.4 84.45 63.17 165.87 10.23 23.31 21.14 46.32c2.52 5.32 10.42.68 7.91-4.62a1754.2 1754.2 0 0 1-67.44-163q-8.31-23.37-16-47c-1.81-5.57-10.65-3.19-8.82 2.44ZM2119 213.14l-101.62 22.59-14.51 3.27c-5.74 1.28-3.31 10.1 2.44 8.82l101.62-22.58 14.54-3.23c5.75-1.28 3.32-10.1-2.43-8.83Zm56.18 70.32q-32.5 32.52-65 65l-9.25 9.26c-4.17 4.17 2.3 10.64 6.47 6.47l65-65q4.62-4.63 9.25-9.25c4.17-4.17-2.3-10.65-6.47-6.48Zm70.63 67.69L2227.63 442q-1.29 6.44-2.57 12.87c-1.15 5.75 7.66 8.21 8.82 2.43q9.09-45.43 18.17-90.88l2.58-12.87c1.15-5.75-7.67-8.21-8.82-2.43Z"/><path fill="#fc3871" d="M1716 1307.45c10.78 10 21.71 22.27 29.23 36.27 10.47 19.55 14.23 42.49 1.36 67.65 3.63-7.24 2.36-17.92-1.93-29.75-9-25-31.58-55.29-49.87-69.45-72.24-56.09-181.42-26.33-262.5-68.66-16-8.34-41.13-24.83-56.69-25.8-10.8-.63-26.43 8-40.29 16.2l-.27.16c-1.86-3.09-3.89-6.08-6.08-9-1.9-2.56-3.86-5-5.92-7.41 14-7.35 31.15-19.49 46.78-21.71a31.72 31.72 0 0 1 6.41-.34 36.92 36.92 0 0 1 5 .07c19.25 1.5 36.28 17.59 51 25.27 81.08 42.32 190.26 12.53 262.5 68.65 6 4.65 13.34 10.5 20.75 17.42a5 5 0 0 1 .52.43Z"/><path fill="#fc3871" d="M1231.61 846.29c-52.89 36.57-58.21 90.66-39 113.37 12.44 14.76 29.06 25.3 44.48 36.9 66.63 50.1 114.64 113.44 132.22 194.93l.54 4.42c-15.63 2.22-32.78 14.36-46.78 21.71-12.27-14.24-27.53-25.8-43.55-35.74-25.47-15.76-80.69-32.15-133.19-10.64s-88.26 62-114.13 108.61c-.66 1.2-1.33 2.4-1.93 3.62l-.5-.26c-18.15-78.83-3-147.11 32.42-219.85 13.53-27.8 64.76-149 149.94-212.65 18.28-13.66 38.13-24.66 59.51-31.48l.3 6.62a175.21 175.21 0 0 0-40.33 20.44Zm488.78 322.15c6.75 46.55 5.26 94.62-4.85 138.54-7.41-6.92-14.76-12.77-20.75-17.42-72.24-56.12-181.42-26.33-262.5-68.65-14.73-7.68-31.76-23.77-51-25.27l.31-4.15c17.55-81.49 65.59-144.83 132.22-194.93 15.42-11.6 32-22.14 44.48-36.9 23.27-27.53 10.5-101.17-79.33-133.81l.3-6.62c20.75 6.62 40 17.16 57.85 30.25 86.17 63.24 138 185.91 151.6 213.88q5.6 11.42 10.31 23.5c1.86 4.75 3.62 9.58 5.28 14.43.6 1.73 1.17 3.46 1.7 5.22 1.63 5 3.16 10 4.55 15.12.47 1.7.93 3.4 1.36 5.09.87 3.23 1.67 6.49 2.43 9.74 2 8.51 3.69 17.16 5.09 25.83.23 1.47.46 2.9.7 4.33.05.63.15 1.22.25 1.82Z"/><path fill="#edf4f9" d="m2337.09 1692.73-.32 18.27c-1.78 19.76-44.86 23.28-98.46 22.38s-97.21-8.49-95.65-25.7l.32-18.34c-.09 5.77 42.7 17.65 96.3 18.55 53.36.95 97.29-9.4 97.81-15.16Z"/><path fill="#fec76c" d="M2337.09 1692.67v.06c-.52 5.76-44.45 16.11-97.81 15.16-53.6-.9-96.39-12.78-96.3-18.55l-3.23-68.75-4.93-104.7-2.26-47.8-3.12-66.58-1.55-33.46 2.41-.11c-.2 10.3 51.81 19.53 116.14 20.64 63.55 1.1 115.36-6.2 116.74-16.29l-4.42 54.38-3.13 27.59-13.37 174.65Z"/><path fill="#ffe4ce" d="M2407.05 1450.6c-.26-4.92-.8-10-3.49-14.16-3.62-5.62-17.72-17.06-46.81-21.28h-3.12l.36 38.89-1.76 2.23c-11.07 3.39-14.06 2.46-25.17 5.85-3.85 1.2-17.18 6.39-24.2 14.43s-2.92 18.62-1.23 20.61a10.55 10.55 0 0 0 4.12 2.76c9.08 3.83 20.25-.36 30-1.76 5.29-.73 10.57-1.5 15.86-2.26l.1.63c-5.12 9.38-33.28 14.26-42.12 15.86-5.29 1-10.61 2.1-15.46 4.65a24.06 24.06 0 0 0-11.51 12.27c-2.19 5.62-1.83 12.77 1.77 17.32a7.42 7.42 0 0 0 2.56 2.16 8.75 8.75 0 0 0 3.59.47c9.47-.1 19-.17 28.45-.27 2.83 0 5.66 0 8.48-.3l.1.87c-20.11 2.49-24.53 20.64-24.1 24.73s6 9.21 7.48 9.48a107.89 107.89 0 0 0 21.68 1.56v.37c-22.15 10.34-19.78 33-2.37 32.48 8.78-.24 17.1-.5 24.88-1.7s14.79-3.32 21.3-7.24c1.2-.74 9.91-10.84 2.37-31.09l-7.52-1.1c1.93-.8 3.82-1.63 5.72-2.52a16.41 16.41 0 0 0 4.75-3c2.5-2.49 3.76-6.31 4.52-10.11 2.33-11.2 4.63-19.61.54-30l-4.62-.43c4-1.93 7.21-3.83 8.91-5.55 6.81-6.92 7.41-25.37 7.64-33.82a52.3 52.3 0 0 0-.36-9.7l-3.23-4.19a33.7 33.7 0 0 0 7.55-6.28c4.51-5.73 4.74-13.61 4.34-20.86Z"/><path fill="#ffd18f" d="M2363.21 1371.86v.43c-1.38 10.09-53.19 17.39-116.74 16.29-64.33-1.11-116.34-10.34-116.14-20.64s52.44-17.76 116.77-16.65 116.04 10.28 116.11 20.57Z"/><path fill="#e1e8ef" d="m2373.71 1242.09-10.5 129.77c-.07-10.29-51.95-19.48-116.14-20.57s-116.61 6.35-116.77 16.65l-2.41.11-6.15-130.37c-.11 7.47 56.18 14.45 125.77 15.64 69.22 1.21 125.49-3.85 126.2-11.23Z"/><path fill="#edf4f9" d="M2373.71 1242v.1c-.67 7.38-57 12.44-126.2 11.23-69.59-1.19-125.88-8.17-125.77-15.64s56.65-12.54 126.21-11.36 125.87 8.19 125.76 15.67Z"/><path fill="#ffe4ce" d="M1746.22 1196.5c-.43 49.74 1.17 106.92 0 146.72l-1 .5c-7.52-14-18.45-26.23-29.23-36.27 10-43.89 11.31-92.23 4.39-139-.1-.6-.2-1.19-.26-1.82-.2-1.43-.44-2.9-.7-4.33-1.4-8.67-3.12-17.32-5.09-25.83-.76-3.25-1.56-6.51-2.43-9.74-.43-1.69-.86-3.39-1.36-5.09-1.39-5.08-2.89-10.14-4.55-15.12-.53-1.76-1.1-3.49-1.7-5.22-1.66-4.85-3.42-9.68-5.28-14.43q-4.74-12.08-10.31-23.5c-13.6-28-65.43-150.64-151.6-213.88l.26-.4c40.63 4.56 105.79 5.82 149.41 9.91 37.77 3.56 84.21 10.77 115.4 34.24 30.42 22.95 54.69 64.73 74.93 96.42 44.55 69.75 78.4 145.52 116.13 219 32 62.17 88.2 142.43 129.7 202.13l9.11 66-2.9.4c-7.74.3-6.11-1.46-13.46 1.06s-14.16 7.42-17.49 14.43-2.36 16.29 3.5 21.41c5.71 5 24.72 6.27 31.4 9.9l5.56 101.87c-63.94-14.19-107.15-52-155.69-103.09s-205-257.16-236.41-326.28Z"/><path fill="#ffe4ce" d="m2132.08 1476.8 6.55 47.41-2 .26c-6.68-3.62-29.16-5.35-34.87-10.37-5.86-5.12-6.82-14.39-3.5-21.41s10.18-11.87 17.49-14.43 5.72-.76 13.46-1.06ZM1798 1720.09q11.92 12 23.11 24.54c6.78 7.61 13.59 15.29 19.14 23.84 11.64 17.91 17.29 39 22.78 59.64l-1032.85-2.06c11.27-68.29 37.33-144.66 63.2-208.85 2-4.82 3.89-9.68 5.85-14.5q33.06-82.12 66.19-164.27 15.47-38.4 30.92-76.76l9.18-22.77c7.58-18.79 15.16-37.57 24.73-55.43.6-1.22 1.27-2.42 1.93-3.62 25.87-46.64 61.64-87.1 114.13-108.61s107.72-5.12 133.19 10.64c16 9.94 31.28 21.5 43.55 35.74 2.06 2.39 4 4.85 5.92 7.41 2.19 3 4.22 6 6.08 9 30.06 48.94 24.24 112.84 21.84 171.22a1027.53 1027.53 0 0 0 2.5 124.7l3.75 5.09c24.61-20.88 55.86-34.08 87.64-30.85 22 2.26 42.45 12.07 62.14 22.14 100.52 51.44 204.68 112.84 285.08 193.76Z"/><path fill="#ffe4ce" d="M1756.77 1575c9.07 42.52 27.69 103.59 41.22 145.08-80.39-80.92-184.55-142.32-285.08-193.72-19.69-10.07-40.13-19.88-62.14-22.14-31.78-3.23-63 10-87.64 30.85l-3.75-5.09a1027.53 1027.53 0 0 1-2.5-124.7c2.4-58.38 8.22-122.28-21.84-171.22l.27-.16c13.86-8.15 29.49-16.83 40.29-16.2 15.56 1 40.69 17.46 56.69 25.8 81.08 42.33 190.26 12.57 262.5 68.66 18.29 14.16 40.83 44.41 49.87 69.45l-.6.23c-9 69.53-1.89 124.61 12.71 193.16Zm-766.49-359h-.13c-21.35 31.41-142 189.86-155.49 206.72v.5c44.79 4 90.4 7.78 129.16 14.56l1.63.66q-33.1 82.14-66.19 164.27l-2.36-1c-49.11 3-104.49 4.52-153.6 1.89-40.92-2.19-148.61-6.25-169.65-50.9s9.44-131.92 77.3-237.47 174.9-255.83 219.41-325.58c20.25-31.69 44.52-73.47 75-96.42 31.15-23.47 77.63-30.68 115.4-34.24 50.7-4.75 103-1.76 151.13-8.58l.24.3c-85.18 63.6-136.41 184.85-149.94 212.65-35.44 72.74-50.57 141-32.42 219.85l.5.26c-9.57 17.86-17.15 36.64-24.73 55.43l-9.18 22.77-.53-.23c-3.75-28.76-3.69-88.94-5.55-145.44Z"/><path fill="#ffcaa6" fill-rule="evenodd" d="M2302.94 1141.19c-31 24.49-78 75.47-27 159.94s164.95 34 180.94 8 48-88.47-7-154.45-146.94-13.49-146.94-13.49Z"/><path fill="#ff9b57" fill-rule="evenodd" d="M2312.23 1154.74c-26.49 20.94-66.66 64.53-23.07 136.76s141 29 154.69 6.83 41-75.64-6-132-125.62-11.59-125.62-11.59Z"/><path fill="#89666b" d="m2368.92 1236.15-77.09 37.95-11.07 5.45c-5.28 2.6-.65 10.5 4.62 7.91l77.09-38 11.07-5.45c5.28-2.6.65-10.49-4.62-7.9Z"/><path fill="#89666b" d="M2367.37 1344.64a109.06 109.06 0 0 1-97-60.38 111.83 111.83 0 0 1-10.21-33.06c-.88-5.81-9.7-3.34-8.83 2.43 6.55 43.25 37.29 80.19 78.8 94.14a118.5 118.5 0 0 0 37.22 6c5.88 0 5.89-9.12 0-9.15Z"/><path fill="#89666b" d="M2368.23 1329.08c-45.52-.25-84.46-33.45-92.32-78.2-1-5.78-9.84-3.33-8.83 2.44a102.58 102.58 0 0 0 101.15 84.9c5.89 0 5.9-9.11 0-9.14Z"/><path fill="#89666b" d="M2366.82 1238.89q-9.45 39.64-18.91 79.29-1.34 5.61-2.68 11.23c-1.36 5.72 7.46 8.17 8.82 2.43q9.47-39.64 18.92-79.29l2.67-11.23c1.37-5.73-7.45-8.17-8.82-2.43Z"/><path fill="#e7b890" fill-rule="evenodd" d="M1111.88 546.57C1138 492.36 1139 401 1191.19 331.74c47.18-62.24 122.48-96.38 167.65-96.38 23.09 0 59.23 31.13 84.33 29.12 30.12-2 76.3 2 98.38 34.13 9 13.05 41.16 56.22 51.2 92.36 10 35.14 30.12 125.49 43.17 152.59s55.21 98.39 45.18 134.53c-2 8-36.15 62.24-70.28 80.31-33.13 18.07-17.07 17.07-24.09 21.08-18.07 10-45.18-14.05-45.18-14.05s-15.06 18.07-49.19 28.11c-79.31 25.09-172.67 6-243.95-8a48.73 48.73 0 0 1-34.13-26.1s-4 7-17.07 10c-16.06 3-37.14-3-55.21-22.08-18.07-18.07-53.21-17.07-63.25-74.29-9.03-45.18 32.13-126.5 33.13-126.5Z"/><path fill="#ffe4ce" fill-rule="evenodd" d="M1200 877.45c21-35.65 79-55.91 79-55.91l-3.48-51.09s-23.09-26.11-35.14-52.21c-11-27.1-20.08-65.25-20.08-65.25s-38.22-32.55-49.26-40.58c0 0 16.36-17.07 52-42.08 13-21.08 28.4-30.78 46.48-54.88 25.09-34.13 31.11-79.31 65.25-93.36 50.19-21.08 91.35 2 97.38 5s28.11 9 42.16 30.12c20.08 31.12 38.66 90.92 56.73 121 8 14.06 50.51 38.42 50.51 38.42l-29.17 27.75c-3.18 2.05-15.31 2.69-16.12 6.4-2.46 11.28-8.64 37.3-17.78 59.38-12 29.11-39.15 63.25-39.15 63.25a485.25 485.25 0 0 0 .39 50.63c.54 8 35.22 19.28 48.26 30.75s37.22 27.17 40.21 71.62-77.6 77-128.17 141.2c-44.14 39.9-56.55 126.6-63.77 128s-30.63-85.91-70-136-109.79-83.87-118-107.74-9.25-38.76 11.75-74.42Z"/><path fill="#ffe4ce" fill-rule="evenodd" d="M1563.64 582.72c-4-15.06-9-30.12-9-30.12s28.11-5 32.13 19.07c5 24.1-10 53.21-15.06 53.21-.04 0-5.06-26.1-8.07-42.16Z"/><path fill="#571519" d="M1378.92 819.08c-.42 0-.83-.05-1.25-.09l-1.33-.13-1-.13c1 .13.21 0-.28-.05a117.26 117.26 0 0 1-13.63-3.07c-17.12-4.94-33.22-13.07-48.22-22.58-19.07-12.08-36.86-26.47-49.63-45.3-9-13.26-15.73-28.38-21.2-43.4-9.15-25.1-14.75-51.44-19.68-77.66-1.09-5.78-9.91-3.33-8.83 2.44 4.55 24.16 9.71 48.35 17.59 71.67 5.5 16.3 12.41 32.88 21.57 47.51 12.1 19.3 28.79 34.47 47.45 47.29 16.52 11.42 34.52 21.08 53.64 27.35 7.87 2.57 16.44 5 24.8 5.3 5.89.19 5.88-9 0-9.15Zm-8.43-249.63c-2.87 11.62-5.89 24-3.52 35.95 1.67 8.39 6.66 14 12.77 19.58 1.91 1.73 3.88 3.51 4.48 6.11.89 3.82-1 7.73-3.11 10.78a40.2 40.2 0 0 1-12.53 11.18c-5.08 3-.48 10.88 4.62 7.9 11.7-6.84 26.69-22.73 17.8-37-3.78-6.08-10.8-9.15-13.73-15.91-4.83-11.16-.71-25 2-36.12 1.41-5.71-7.41-8.15-8.83-2.43Z"/><path fill="#571519" fill-rule="evenodd" d="M1284.55 587.73c0-11 6-20.07 14.06-21.08 8 0 15.06 8 15.06 20.08 0 11-6 20.08-14.06 21.08-8.03 0-15.06-9.03-15.06-20.08Z"/><path fill="#571519" d="M1189.39 783.89a40.54 40.54 0 0 0 24.84-21c7.48-15.3 4.21-32.26-3-47-2.59-5.28-10.49-.65-7.9 4.62 5.78 11.75 9 26.1 2.74 38.34-4 7.77-11.2 14-19.08 16.18-5.67 1.56-3.26 10.39 2.43 8.82Zm225.89-531.68c-4.21-5.38-10.81-9.45-16.82-12.44-16.74-8.31-36-10.06-54.38-8-26.64 2.94-52.52 12.62-75.93 25.45a247 247 0 0 0-63.9 50.16c-19.87 21.85-34.09 46.77-45.24 74-12.43 30.35-21.51 61.89-30.53 93.38-8.27 28.86-16.59 57.79-28.82 85.28-11.79 26.5-24 53.21-27.12 82.39-1.47 13.92-1.19 29.09 3.39 42.45a73.14 73.14 0 0 0 16.54 26.43c14 14.73 32.55 24.91 44.73 41.36a59 59 0 0 1 7.41 13c2.18 5.39 11 3 8.83-2.44-7.84-19.4-23.81-31.86-39.49-44.77-7.47-6.16-15-12.6-20.79-20.41a60.73 60.73 0 0 1-11.55-30.4c-3.13-29.44 6.28-57.89 17.79-84.56 5.39-12.5 11.29-24.79 16.16-37.51 5.27-13.78 9.79-27.82 14-41.94 8.88-29.52 16.65-59.38 26.59-88.57 9.8-28.76 21.15-57.28 39-82.08 30.4-42.27 76.8-74.65 127.23-87.89 20.34-5.35 42.5-7.5 62.82-.88a62.72 62.72 0 0 1 15.72 7.6 29 29 0 0 1 4.24 3.23c1 .83 1.84 1.71 2.72 2.61a12.91 12.91 0 0 1 .91 1.05c3.63 4.63 10.07-1.89 6.47-6.47Z"/><path fill="#571519" d="M1336.05 514.52c-21.72-11.24-50.1-10.53-70.87 3-4.92 3.2-.34 11.12 4.62 7.9 18-11.73 42.72-12.8 61.63-3 5.23 2.7 9.86-5.2 4.62-7.9Zm-60.23 67.13c5.38-4.08 12.42-5.82 19.27-6.41 7.65-.65 15.8 0 22.29 4.4 4.9 3.3 9.48-4.63 4.62-7.9-7.74-5.21-17.8-6.42-26.91-5.65-8.12.7-17.25 2.62-23.89 7.66-2 1.49-3 3.94-1.64 6.26 1.13 1.93 4.28 3.14 6.26 1.64Zm53.61 132.51c13.35 9.37 30.62 13.3 46.74 13.43 18.52.16 36.84-5.18 51.16-17.16 4.52-3.78-2-10.22-6.47-6.47-23.06 19.28-62.45 19.4-86.81 2.3-4.83-3.39-9.41 4.54-4.62 7.9Zm50.49 114.07c6 .18 12.38-1.44 18.11-3 17.25-4.83 33.49-13.35 48.47-23 20.17-13 38.59-28.46 53.26-47.56 10.51-13.7 18.32-28.79 24.43-44.91 9.84-26 15.65-53.37 20.77-80.58 1.08-5.76-7.73-8.22-8.82-2.44-4.43 23.54-9.45 47.09-17 69.85-5.38 16.27-12.24 31.94-22 46.1-12.6 18.37-29.07 33.55-47.29 46.24-15.36 10.71-31.94 20.35-49.84 26.15a93.91 93.91 0 0 1-15.61 3.76h-.3l-1.15.12-1.68.13h-1.42c-5.88-.18-5.88 9 0 9.15Z"/><path fill="#571519" fill-rule="evenodd" d="M1463.25 586.73c0-11-6-20.08-14.06-21.08-8 0-15 8-15 20.08 0 11 6 20.08 14 21.08 8.03 0 15.06-8.03 15.06-20.08Z"/><path fill="#571519" d="M1413.35 522.42c18.92-9.79 43.64-8.72 61.64 3 5 3.22 9.54-4.7 4.62-7.9-20.77-13.54-49.15-14.25-70.88-3-5.23 2.7-.6 10.6 4.62 7.9Zm63.25 51.33c-6.68-5.08-15.7-7.21-23.89-8-9.15-.92-19.37.38-26.91 6-2 1.48-3 4-1.64 6.26 1.14 1.94 4.27 3.13 6.26 1.64 6.4-4.79 14.53-5.55 22.29-4.77 6.89.69 13.85 2.66 19.27 6.78 2 1.49 5.12.31 6.26-1.64 1.37-2.35.33-4.76-1.64-6.26Zm-206.66 196.69c.74 9.69 1.09 19.43 1.25 29.14.26 16.57.31 33.67-3.1 50-1.2 5.75 7.62 8.2 8.83 2.43 3.51-16.8 3.67-34.33 3.43-51.43-.14-10-.5-20.09-1.26-30.1-.45-5.83-9.6-5.88-9.15 0Zm204.8 1.01c-.77 10-1.12 20.06-1.27 30.09-.24 17.1-.08 34.64 3.44 51.44 1.2 5.76 10 3.32 8.82-2.43-3.41-16.29-3.36-33.39-3.09-50 .15-9.72.5-19.45 1.25-29.14.44-5.87-8.71-5.84-9.15 0ZM1155.66 659.8a101.74 101.74 0 0 0 25.27 97.82c4.14 4.2 10.61-2.28 6.47-6.47a92.39 92.39 0 0 1-22.92-88.91c1.59-5.68-7.24-8.11-8.82-2.44Z"/><path fill="#571519" d="M1406 414.76c-8.11-13.48-19.46-28.84-35.81-32.46-13.21-2.93-25.53 3.15-35.27 11.72-12.74 11.23-22.09 26.37-30 41.23-9.39 17.67-15.8 36.55-24.44 54.53a200.21 200.21 0 0 1-25.83 41c-9.19 11.11-19.62 21.08-30.37 30.66-11.84 10.55-24 20.76-35.63 31.53-6.93 6.4-14.4 12.19-21.24 18.7-10.83 10.3-20.71 22.07-27.23 35.6a80 80 0 0 0-6.59 51.1c1.16 5.77 10 3.32 8.82-2.44-5.64-28.23 7.68-53.67 27-73.38 6.78-6.92 14.21-13 21.54-19.34 10.49-9 20.62-18.51 31.06-27.61 21.42-18.67 41.63-38.16 56.41-62.68 9.29-15.41 15.66-31.94 22.7-48.42 7.14-16.72 15.38-33.25 26.05-48 7.85-10.87 19.2-24.19 33.51-25.73 17.25-1.85 29.69 15.8 37.41 28.63 3 5 11 .45 7.9-4.62Zm20.89 16.76c20.68 3.88 34.84 18.39 45 36 11.11 19.2 18.19 40.42 26.87 60.75 16.94 39.72 44.55 77.14 85.64 93.89 7.63 3.11 16.06 5.82 24.36 6.28 5.89.32 5.87-8.83 0-9.15-.45 0-.9-.08-1.35-.13-1.51-.15 1 .19-.52-.06-.79-.14-1.59-.26-2.38-.41a90.4 90.4 0 0 1-14-3.93c-15.92-5.81-30.26-15.7-42.35-27.47-18-17.56-31-39.31-41-62.29-8.7-20.2-15.7-41.25-26.52-60.48-11.36-20.18-27.86-37.41-51.43-41.83-5.76-1.08-8.23 7.73-2.44 8.82ZM1605 769.66a84.53 84.53 0 0 0 20-56.95c-.48-17.56-5.69-34.65-13.1-50.45a171.25 171.25 0 0 0-10.19-18.61c-3.13-5-11-.38-7.9 4.62 15.53 24.67 27.11 55.62 20 85a74.12 74.12 0 0 1-15.28 30c-3.74 4.5 2.7 11 6.47 6.47Z"/><path fill="#571519" d="m1437.45 277.46 1.46-.73c.3-.15.62-.28.93-.41-.33.14-.51.18.33-.13 1.62-.62 3.26-1.2 4.93-1.7 2-.61 4.11-1.12 6.19-1.56 2.48-.51 4.93-.9 6.87-1.1a87.47 87.47 0 0 1 38 4.42c40.44 14 67.42 54.11 83.56 91.72 15.09 35.16 18.76 74 28.49 110.72 7 26.45 15.51 52.78 27.28 77.52 9.57 20.08 21.57 39 30.35 59.41 4.79 11.15 9.31 23.36 10.95 35.43a63.89 63.89 0 0 1-5.88 35.61 122.52 122.52 0 0 1-18.73 28.58c-7.07 8-15.6 15.46-19.08 25.89a32.31 32.31 0 0 0-.63 16.48c1.11 5.77 9.93 3.33 8.83-2.44-2.24-11.61 4.82-19.89 12.23-27.87a158 158 0 0 0 21.14-28.14c6.08-10.5 10.41-21.93 11.53-34.06 1.22-13.29-2.23-26.26-6.49-38.73-7.34-21.51-18.92-41-29.41-61-12.92-24.7-22.34-50.71-30-77.47-6.09-21.1-10.57-42.54-15-64-3.63-17.72-7.69-35.35-14.27-52.24a232.92 232.92 0 0 0-35.41-61.87c-12.9-16-28.88-30.12-47.75-38.61-21.69-9.76-48.22-12.66-70.71-3.56a46.21 46.21 0 0 0-4.36 2c-5.2 2.77-.58 10.67 4.62 7.9Zm-89.65 27.73c18.76-2.14 38.74.43 54.47 11.55 17 12 22.67 32.19 21.26 52.14-.41 5.88 8.74 5.85 9.16 0C1434 351 1430 333 1418.2 319c-10.32-12.2-25.64-19.45-41.18-22.19a101.86 101.86 0 0 0-29.22-.81c-5.78.66-5.85 9.82 0 9.15Zm-175.62 315.98a66.52 66.52 0 0 0 18.15 22.21 70 70 0 0 0 12.87 8.09c5.33 2.56 11.12 4.91 17.1 5.09s5.89-9 0-9.15c-4.72-.14-9.54-2.34-13.71-4.44a60.64 60.64 0 0 1-10.81-6.87 59.8 59.8 0 0 1-15.7-19.55 4.62 4.62 0 0 0-6.26-1.65 4.67 4.67 0 0 0-1.64 6.27Zm26.1-24.1a53.42 53.42 0 0 1 5 8 4.58 4.58 0 0 0 6.26 1.64 4.56 4.56 0 0 0 2.1-2.73 5 5 0 0 0-.46-3.53 53.42 53.42 0 0 0-5-8 5.17 5.17 0 0 0-2.73-2.1 4.57 4.57 0 0 0-5.63 3.2 4.46 4.46 0 0 0 .46 3.52Z"/><path fill="#571519" d="M1576.75 612.53a61.89 61.89 0 0 1-15.69 20 51.37 51.37 0 0 1-10.52 6.63c-4.18 2-9.34 4.13-14 4.26-5.87.18-5.9 9.33 0 9.15s11.78-2.43 17.1-4.8a59.47 59.47 0 0 0 12.87-8 67.92 67.92 0 0 0 18.15-22.64 4.58 4.58 0 0 0-7.9-4.62Zm3.56 102.47c-7.35 20-10.78 43.34.5 62.59 1.16 2 2.48 3.83 3.79 5.71a19 19 0 0 0 1.13 1.68c.65.75-.09-.36-.09-.31a4.94 4.94 0 0 1 1.09-3.59c.66-.65 1.41-.62 2.09-1s.46.07 0 0a8 8 0 0 0-1.39-.06c-.28 0-.57-.06-.86-.09-.75-.08 1.17.19-.14 0-.91-.14-1.82-.31-2.72-.5a63.25 63.25 0 0 1-11.42-3.56c-9.55-4-18.72-10.74-20.31-21.62-.36-2.46-3.46-3.77-5.63-3.19-2.63.69-3.55 3.19-3.2 5.62 1.68 11.43 10.51 19.92 20.33 25.09 7.31 3.85 16.43 7.38 24.84 7.47 3.23 0 6.38-1.64 6.38-5.28 0-2.11-1.27-3.85-2.43-5.5-3.87-5.49-6.69-10.63-8.27-17-3.64-14.65 0-30.13 5.12-44 2-5.54-6.8-7.92-8.82-2.43Z"/><path fill="#571519" d="M1546.18 708.42c2.48 15 2.36 31.07-3.56 45.28a53.16 53.16 0 0 1-28.21 28.23c-8.52 3.71-17.84 5.43-27.07 6-5.85.38-5.89 9.53 0 9.15 17.54-1.14 35-6.11 48.35-18 12.14-10.87 18.54-26.24 20.48-42.17A108.31 108.31 0 0 0 1555 706c-1-5.79-9.78-3.33-8.82 2.44Zm-336.48 38.93c1.19 12.76 6.29 24.76 16.19 33.18 8.41 7.15 18.91 11.49 29.73 13.38a79 79 0 0 0 16.89 1.19c5.86-.26 5.89-9.41 0-9.15-11.32.49-23-1.57-33-7.11a39.28 39.28 0 0 1-20.62-31.49 4.69 4.69 0 0 0-4.57-4.57c-2.3 0-4.81 2.1-4.58 4.57ZM1591 615.62a104.5 104.5 0 0 1-23.4-26.26 128.91 128.91 0 0 1-12.78-29.36c-7.42-24-11.85-48.66-20.28-72.32a297.57 297.57 0 0 0-23.17-49.8c-3-5.08-10.87-.48-7.9 4.62 15.48 26.6 25.7 55 33.25 84.74 5.54 21.81 10.12 44.4 21.4 64.15a111.21 111.21 0 0 0 26.38 30.73c4.52 3.7 11-2.74 6.47-6.47Z"/><path fill="#571519" d="M1554.6 561.19c5.61-.64 10.42-.51 15.59 1.3a20.73 20.73 0 0 1 10.09 7.81c7.75 11.77 4.66 28.42 1 41.31-1.6 5.68 7.23 8.11 8.83 2.44 3.65-13 6.23-28 1.55-41.09a30.84 30.84 0 0 0-20.25-19.68 42 42 0 0 0-16.81-1.28c-2.45.28-4.57 1.9-4.57 4.57 0 2.26 2.1 4.86 4.57 4.58Z"/><path fill="#7a7272" fill-rule="evenodd" d="M1363.94 583.64s-29.79 50.77-46 56.19-91.4-3.39-100.2-19.63-23.42-63.65-22.07-95.47c150.31 7.45 166.28 34.53 166.28 34.53h24.17s17.75-27.08 168.05-34.53c1.36 31.82-15 79.22-23.84 95.47s-84 25-100.2 19.63-46-56.19-46-56.19Z"/><path fill="#571519" d="M1360 581.33a331.22 331.22 0 0 1-22.76 34c-5 6.45-10.39 13.55-17.16 18.2-4.65 3.2-9.63 3.2-15.7 3.31a218.9 218.9 0 0 1-56.17-6.76c-7.51-1.88-15.36-4-22-8.1-2.24-1.37-3.76-2.62-4.67-4.35a105 105 0 0 1-5-11.27 270.45 270.45 0 0 1-11.54-38.71c-3.11-14.06-5.34-28.48-4.8-42.92l-4.58 4.58c42.32 2.12 85.71 5.18 126.76 16.39 5.2 1.42 10.36 3 15.42 4.87a80 80 0 0 1 10 4.27 58.67 58.67 0 0 1 6.66 3.84l1.17.83c1.18.81-.67-.61.18.13.48.42 1 .82 1.44 1.27.29.28.56.64.87.9.88.74-.8-.73-.26-.36 1.51 1.07 1.91 2.17 4 2.39a62 62 0 0 0 6.25 0c5.84 0 12.09.66 17.9 0 2.06-.24 2.66-1.14 4-2.4-.82.75-.91.95-.23.37.34-.29.63-.64 1-.94l.65-.56c.87-.81.06-.07.09-.09a54.91 54.91 0 0 1 5.27-3.39c1.3-.72 2.62-1.41 4-2.05.73-.36 1.47-.7 2.2-1l1.11-.49.65-.28c1.13-.49-.9.36.27-.12 4.34-1.79 8.78-3.34 13.27-4.74 36.33-11.29 75.2-14.87 113-17.47q11.43-.78 22.86-1.34l-4.57-4.58c.52 14.13-1.92 28.22-5.22 41.9a280 280 0 0 1-12.57 39.48 90.92 90.92 0 0 1-5.61 12.1c-.6 1 .13.06-.73.95-.41.42-.83.83-1.28 1.21a30.78 30.78 0 0 1-4 2.58c-8.34 4.53-18 6.78-27.27 8.72a249.18 249.18 0 0 1-32.88 4.62c-8.09.6-17.92 1.17-25.19-.06a14.42 14.42 0 0 1-7.33-3 62.57 62.57 0 0 1-9.76-9.42 235.53 235.53 0 0 1-19.2-25.78c-3.58-5.41-6.59-11.5-10.49-16.67-2.61-3.46-8.66-2.27-12.5-2.27h-11.56c-5.88 0-5.89 9.15 0 9.15h20.11l-4-2.27a333.06 333.06 0 0 0 25.31 37.3c5.43 6.9 11.44 14.33 19.06 19 5.68 3.44 12.69 3.68 19.15 3.8a226.73 226.73 0 0 0 60.57-7.59c8-2.09 16.47-4.6 23.36-9.23 6.66-4.48 9.25-11.47 12.23-18.65a276.91 276.91 0 0 0 13.12-40.34c3.62-14.78 6.37-30.18 5.81-45.45a4.63 4.63 0 0 0-4.58-4.57c-41.36 2.07-83.43 5.28-123.78 15.16-14.48 3.54-30.66 7.75-42.94 16.67a20.77 20.77 0 0 0-5.28 5l3.95-2.26h-24.17l3.95 2.26c-3.18-5.35-10.48-8.7-15.83-11.17-22.57-10.43-48-14.75-72.43-18.22-27.18-3.87-54.56-6-82-7.4-2.53-.13-4.48 2.2-4.57 4.57-1 26.38 5.82 53.78 14.56 78.49 1.76 5 3.67 9.91 5.87 14.71 1.38 3 2.78 6 5.21 8.31 5.64 5.39 13.78 8.18 21.07 10.44 19.3 6 40.18 8.77 60.34 9.27 6.79.17 14.47.47 21-1.71 7.72-2.56 13.85-9.53 19-15.52 11.27-13.15 21-27.85 29.8-42.78 3-5.23-4.88-9.84-7.88-4.76Z"/><path fill="#544949" fill-rule="evenodd" d="M1347.58 584.51c-2.29 4.88-23.22 37.52-36.34 41.52s-73.84-2.5-81-14.51-11.48-44.15-10.39-67.66c121.42 5.5 123.48 21.58 126 24.67s4.02 11.09 1.73 15.98Z"/><path fill="#571519" d="M1343.63 582.2c-5 10.42-12.94 20.41-20.68 28.92-3.57 3.92-8.13 9.11-13.26 10.59-3.44 1-8 1-12.35.92a199.28 199.28 0 0 1-41.16-4.73A82 82 0 0 1 1240 613a27.18 27.18 0 0 1-4.72-2.71c-1.32-1.19-2-2.74-3-5.29-3.53-8.92-5.16-18.78-6.32-28.26a200.88 200.88 0 0 1-1.41-32.89l-4.58 4.57c32 1.47 64.95 3 96.3 10.34 3.85.9 7.68 1.93 11.43 3.18 1.28.43 2.55.9 3.81 1.38l.92.37c1 .42-.93-.41.06 0q.91.4 1.83.84a43 43 0 0 1 4.64 2.72c1.09.71-.7-.63 0 0 .23.2.48.38.69.6.4.39.77.81 1.18 1.19 1.06 1-.54-1 .15.18.18.3.39.61.59.9.37.52.82 1 1.15 1.55-.66-1 .39.79.44.92a17.78 17.78 0 0 1 1 3.73 13.29 13.29 0 0 1-.9 6.92c-2.24 5.44 6.61 7.81 8.82 2.43 1.75-4.25 1.64-9.25.52-13.65a18.24 18.24 0 0 0-2.18-5.26c-.68-1.06-1.54-2.25-.63-.85-.34-.53-.69-1.06-1.06-1.57a23.36 23.36 0 0 0-7.45-6.49c-5.39-3.12-11.51-5.06-17.49-6.68-11.38-3.07-23.09-4.87-34.77-6.4-22.89-3-46-4.48-69-5.54a4.66 4.66 0 0 0-4.57 4.58c-.85 19.74.73 41 6.77 59.92 1.83 5.71 3.94 11.32 9 14.8 4.82 3.29 10.79 5.11 16.37 6.62a204.21 204.21 0 0 0 45 6.46 86.1 86.1 0 0 0 17.21-.63c5.73-.93 10.4-4.42 14.58-8.27 6.59-6.07 12.16-13.32 17.36-20.58 3.49-4.88 7.23-9.94 9.85-15.36s-5.39-9.88-7.96-4.57Z"/><path fill="#544949" fill-rule="evenodd" d="M1401 584.51c2.29 4.88 23.22 37.52 36.34 41.52s73.84-2.5 81-14.51 11.48-44.15 10.39-67.66c-121.42 5.5-123.47 21.58-126 24.67s-4.02 11.09-1.73 15.98Z"/><path fill="#571519" d="M1397.05 586.82a98.34 98.34 0 0 0 8.15 12.94 166.3 166.3 0 0 0 14.86 18.8c4.44 4.76 9.69 9.91 16.07 11.88 4.75 1.47 10.19 1.38 15.11 1.34a209.23 209.23 0 0 0 44.8-5.33 81.62 81.62 0 0 0 18.23-6 19.9 19.9 0 0 0 10.09-10.94c4-9.4 5.76-19.7 7.1-29.76a204.68 204.68 0 0 0 1.79-35.85 4.64 4.64 0 0 0-4.57-4.58c-33.42 1.54-68 3.07-100.58 11.11-9.06 2.24-20.75 5.07-27.08 12.6a28.76 28.76 0 0 0-2 2.8c-.45.68.25-.28.44-.54a19.65 19.65 0 0 0-2.79 5c-1.75 4.82-2 10.73-.06 15.52 2.21 5.37 11.06 3 8.82-2.43a13.92 13.92 0 0 1 1.54-13c.4-.56 1.78-2.21.44-.74a30.79 30.79 0 0 1 2.28-2.29c.72-.64-1.07.7 0 0 .27-.17.51-.37.78-.54.82-.51 1.63-1 2.48-1.47a30.77 30.77 0 0 1 6.19-2.7c3.31-1.19 6.7-2.17 10.11-3a269.94 269.94 0 0 1 33.53-6c21.86-2.72 43.89-4.13 65.9-5.14l-4.58-4.57c.8 18.62-.65 38.26-6 56.17a45 45 0 0 1-3.4 8.61c-.66 1.24.11.37-1 1.38a10.31 10.31 0 0 1-2.07 1.46c-4.39 2.62-9.51 4-14.43 5.29a195.91 195.91 0 0 1-41.46 5.76c-2.83.1-5.66.15-8.48.07-1.77-.05-5.09-.27-5.92-.4-4.87-.75-8.5-3.88-12-7.33a133.86 133.86 0 0 1-15.67-19c-3-4.34-6.3-8.82-8.62-13.62-2.66-5.42-10.56-.79-8 4.5Zm972.66 650.86c.09-1.21.3-1 .75-1.93-.31.65-.59.42-.11.18-.41.21-.81.51-1.21.74-.61.34-1.45.68-1.23.59a65.88 65.88 0 0 1-10.75 3.06 279.6 279.6 0 0 1-35.4 4.93c-35.6 3.16-71.43 2.89-107.1 1.15-15.78-.77-31.55-1.86-47.26-3.58-10.88-1.19-21.9-2.53-32.53-5.24-1.58-.4-3.15-.84-4.7-1.37a13.77 13.77 0 0 1-3-1.26c-.66-.34-1.44-.41-.49-.24-.69-.12-.34-1.09-.05 0a3.89 3.89 0 0 1 .25 2.31c0-.16-.41 1.51-.4.84 0 .27-.69.38.24-.12.21-.11 1.78-.85.75-.42a34.3 34.3 0 0 1 4.31-1.38 109.14 109.14 0 0 1 12.16-2.34c14.4-2.09 29-2.86 43.55-3.44 20.38-.82 40.78-.9 61.16-.51 5.89.11 5.89-9 0-9.15-34.27-.65-69.11-.74-103.16 3.74-7.59 1-17.23 1.59-23.87 5.9-6.23 4-3.56 10.62 2.2 13.3 8.45 3.93 18.33 5.14 27.45 6.46 15.65 2.27 31.42 3.65 47.2 4.69 38.86 2.54 78 3.27 116.86.3 15-1.15 30.22-2.62 44.93-5.93 6.06-1.37 18-3.36 18.59-11.32.43-5.87-8.72-5.84-9.15 0ZM2357.6 1371c0 .92.18-1.18 0-.27.33-1.65.34-.19 0-.16-.5 0 .45-.53 0 0a4.15 4.15 0 0 1-.72.67c.88-.61-1 .62-1.35.81-.5.28-1.93 1-2 1-5 2.18-10.58 3.33-15.93 4.37-17.28 3.37-35 4.49-52.59 5.13-22.83.85-45.73.5-68.53-.92-18.73-1.17-37.56-2.93-56-6.67a122.72 122.72 0 0 1-18.09-4.82 29.94 29.94 0 0 1-5.22-2.42c-.58-.35-1.62-1.08-1.21-.77a5.77 5.77 0 0 1-.63-.58c-.71-.76.11-.22-.22-.26 0 0 .08.3.07.41 0 .57-.41 1 0 .43-.87 1.11.32-.32.64-.55-.5.37.93-.58 1.54-.91 3.86-2.13 8.86-3.32 13.48-4.36 16.44-3.71 33.46-5 50.24-5.79 22.7-1.13 45.47-1 68.16.12 21.27 1.06 42.71 2.82 63.6 7.13 6.52 1.34 13.26 2.82 19.39 5.47a22.88 22.88 0 0 1 4.79 2.69c-1.05-.83 1.57 1.85.45.45.7.88-.11-.17 0-.14a3.64 3.64 0 0 1 .14.47c-.09-.82-.11-1-.1-.5.11 5.88 9.26 5.9 9.15 0-.18-9.66-14.76-13.12-21.94-15-18.13-4.86-37.14-6.86-55.8-8.38a681.89 681.89 0 0 0-74.55-1.92c-20.14.56-40.48 1.78-60.31 5.46a90.81 90.81 0 0 0-17.62 4.74c-3.8 1.55-8.13 3.66-9.79 7.69-4 9.75 10.42 14.6 17.05 16.67 17 5.29 35.22 7.28 52.88 9a677.63 677.63 0 0 0 74 2.85c20.81-.3 41.74-1.37 62.33-4.6a119.4 119.4 0 0 0 20-4.51c4-1.36 8.52-3.06 11.4-6.36a9 9 0 0 0 2.28-5.57c.5-6.02-8.65-6-8.99-.1Zm-25.47 320.65a12.22 12.22 0 0 0 .33-1.48c.12-.49.25-.51.28-.41s-.06.1-.53.37a22.63 22.63 0 0 1-3.44 1.64 100.89 100.89 0 0 1-13.85 3.87 289.42 289.42 0 0 1-44.78 5.8c-34.08 2.07-69.21.28-102.49-7.77a116.83 116.83 0 0 1-16-4.82 40.14 40.14 0 0 1-4.14-2c-.31-.17-.58-.4-.89-.59.9.55 0 0 0 0-.31.13.13-.24.25.39-.22-1.2.25 1.25.25 1.3-.28-5.86-9.43-5.89-9.14 0 .37 7.86 13.15 10.69 19 12.41 15.08 4.47 30.81 6.89 46.42 8.63 37.52 4.19 76.91 3.69 113.91-4.46a89.15 89.15 0 0 0 16.64-5c3.5-1.54 6.92-3.64 7.29-7.8.53-5.86-8.62-5.83-9.15 0Z"/><path fill="#571519" d="M2339 1620.69c-2.24 23.17-4.57 46.33-6.74 69.51-.36 3.89-.26 7.82-.33 11.72-.06 2.63.13 5.39-.16 8a9.67 9.67 0 0 1-2.55 5c-4.94 5.22-13.07 7.16-19.83 8.64-11.19 2.43-22.71 3.23-34.12 3.69-28.45 1.17-57.52.76-85.78-3-10.33-1.38-20.94-3.21-30.7-7a31.9 31.9 0 0 1-8.79-4.79 11.07 11.07 0 0 1-2.18-2.31 7.57 7.57 0 0 1-.79-1.42c.32.8-.32-1.71-.2-.71-.85-6.85.52-14.11.31-21-.11-3.78-.33-7.57-.5-11.35q-1.23-27.33-2.45-54.66-1.86-41.88-3.74-83.75-2.16-48.24-4.31-96.5-2.07-46.47-4.15-92.94l-3.27-73.08-1.65-36.89c0-.56 0-1.11-.07-1.66-.26-5.87-9.41-5.9-9.15 0q.6 13.23 1.18 26.48 1.53 34 3 67.91l4.11 92.06q2.2 49.47 4.42 98.92 2 44.1 3.94 88.21l2.72 60.92c.48 10.74.7 21.19.49 31.95-.11 5.66.2 10.4 4.24 14.84 5.34 5.85 13.79 8.75 21.18 10.88 25.29 7.28 52.78 8 78.91 8.43 14.26.21 28.55.16 42.78-.83 11-.76 22.21-1.89 32.83-5 7.12-2.07 14.72-5.17 19.41-11.2 3.88-5 3.83-10.41 3.95-16.39.47-24.52 3.84-49 6.2-73.39l.9-9.3c.57-5.86-8.58-5.82-9.15 0Zm30.79-379.64-6.27 72.35-10 115.35q-1.16 13.26-2.3 26.52c-.51 5.86 8.64 5.83 9.15 0l6.27-72.36 10-115.35q1.16-13.26 2.3-26.51c.51-5.87-8.64-5.83-9.15 0Z"/><path fill="#571519" d="M2132.08 1472.23c-4.42.12-8.84-.59-13.26-.32a34.46 34.46 0 0 0-13.43 3.87c-7.49 3.76-14.13 10.38-16.27 18.67-2 7.79-.25 17.26 6.15 22.61 4.64 3.88 11.37 5.06 17.12 6.31 3.58.77 7.19 1.47 10.77 2.28 1.62.37 3.24.76 4.84 1.24.61.19 1.21.4 1.81.6.25.08 1.06.45.13 0l.88.43c5.21 2.74 9.84-5.15 4.62-7.89-4.55-2.39-9.85-3.26-14.83-4.29a133.31 133.31 0 0 1-16.52-4.1c-.1 0-1-.38-.5-.18s-.22-.1-.24-.11a14.21 14.21 0 0 1-1.4-.72c-.21-.12-1.14-.8-.67-.42.65.53-.37-.39-.5-.52a10 10 0 0 1-.77-.82 13.22 13.22 0 0 1-2.55-8.58c.15-6.59 4.66-12 10.07-15.25a25.44 25.44 0 0 1 10.94-4c4.52-.35 9.07.42 13.61.3 5.87-.17 5.9-9.32 0-9.15ZM2351 1452c-8.92 2.67-18.34 3.34-27.11 6.52-8.08 2.94-16.21 7.08-22.47 13.08a22.46 22.46 0 0 0-5.2 25.35c4.09 9.65 16.6 9.92 25.46 8.62 5.84-.85 11.56-2.3 17.41-3.13l19.32-2.75c6-.85 11.84-1.61 17.39-4.12s10.6-6.37 15.67-9.79c4.6-3.11 9.84-6 13.63-10.1s5.57-9.18 6.26-14.58c1.15-9.07.76-20.5-4.76-28.17-10.06-14-28-19.39-44.24-21.84-5.76-.86-8.25 8-2.44 8.83 12.79 1.92 27.16 5.33 36.5 15a19.86 19.86 0 0 1 2.6 3.1c2.36 3.5 3.08 7.3 3.37 11.47.3 4.42.51 9-.59 13.37-1.18 4.7-4.09 7.63-8 10.32-4.29 2.95-8.63 5.83-12.95 8.74-4.5 3-8.9 5.9-14.24 7.2-10 2.44-20.56 3.15-30.71 4.62-9 1.29-20.29 6-29 1.88-5.83-2.74-3.47-12.72-.11-16.42 12.07-13.3 30.71-13.58 46.65-18.36 5.63-1.68 3.23-10.51-2.43-8.82Z"/><path fill="#571519" d="M2394 1483.19c1 7.41.21 16.06-.78 23.47-.74 5.46-1.92 13.17-6.43 16.59-5 3.8-11.56 6-17.38 8.24-7.29 2.75-14.71 5.19-22.15 7.52-8.38 2.62-16.55 5.32-25.41 5.52-5.43.12-10.87.11-16.3.16l-9 .09c-2.08 0-6.36.8-8.13-.38-3.16-2.09-2.88-8.43-2.07-11.55a18.39 18.39 0 0 1 8.18-10.61c6.61-4.19 14.72-4.92 22.25-6.39a146.2 146.2 0 0 0 22.19-5.78c6.16-2.24 13.21-5.16 16.7-11.07 3-5.08-4.9-9.68-7.9-4.61-2.91 4.91-11.32 7-16.47 8.59a195.79 195.79 0 0 1-20.87 4.78c-9.67 1.78-19.73 4.06-26.66 11.6-6.71 7.3-9.34 18.3-4.75 27.41 2.59 5.12 6.7 7.23 12.29 7.21 6.49 0 13-.13 19.47-.19 6.22-.06 12.53.16 18.71-.63a90.91 90.91 0 0 0 14.78-3.65c8.11-2.48 16.2-5.06 24.18-8 7.31-2.65 15-5.38 21.62-9.53 7.36-4.62 10.18-12.37 11.6-20.63 1.69-9.84 2.53-20.74 1.14-30.64-.81-5.81-9.63-3.34-8.82 2.43Z"/><path fill="#571519" d="M2382.39 1532.7a33.27 33.27 0 0 1 1.55 17.18c-.82 5.26-1.47 11.64-3.94 16.41s-9.77 6.55-14.38 8.21a110.14 110.14 0 0 1-18.37 4.91 102.13 102.13 0 0 1-18.23 1.53q-4.36 0-8.73-.39c-1.59-.13-3.17-.3-4.75-.51-.69-.1-1.38-.22-2.06-.31l-1.34-.22c.4.17.42.16.06 0-2.26-1.38-4.21-4.15-4.14-6.46 0 0 .14-.94.41-2a23.92 23.92 0 0 1 1.19-3.49c3.48-7.83 10.74-12.53 19.18-13.41 5.8-.61 5.86-9.76 0-9.15-10.73 1.12-20.33 6.08-25.87 15.62-3.87 6.67-6 14.56-1 21.25a21 21 0 0 0 5.41 5.35c2.61 1.67 5.94 1.73 8.94 2.1a109.22 109.22 0 0 0 24.18.23 115.8 115.8 0 0 0 22.42-4.47c6.83-2.1 15.12-4.56 20.8-9 6.27-5 7.28-13.85 8.65-21.19 1.57-8.36 1.88-16.46-1.11-24.55-2-5.47-10.87-3.1-8.82 2.44Z"/><path fill="#571519" d="M2374.38 1579.51a40.69 40.69 0 0 1 2.86 15.09 19.24 19.24 0 0 1-.54 4.42c-.17.75-.37 1.49-.61 2.21-.11.34-.23.67-.34 1-.45 1.22.39-.78-.14.33-.45 1-1 1.8-1.52 2.71-.08.13-.6.79-.07.1a5.11 5.11 0 0 1-.6.62c.12.08.79-.82.72-.57s-1.36.79-1.65 1c-1 .54-2 1.06-3 1.53a48.21 48.21 0 0 1-7.41 2.6c-10.35 2.82-21.61 3.32-32.3 3.25a9.52 9.52 0 0 1-4-.64c-.13-.05-.82-.33-.11 0a11.7 11.7 0 0 1-1.11-.58l-.69-.44c-.87-.57.36.38-.32-.27-.23-.23-1.36-1.59-.83-.83a12.71 12.71 0 0 1-1-1.68c.42.84-.25-.84-.33-1.13s-.15-.66-.2-1-.05-.26 0 .21v-.83a9.84 9.84 0 0 1 .59-4 15.9 15.9 0 0 1 2.48-4.7c2.56-3.48 6.64-6.16 10.68-8.09 2.23-1.07 2.81-4.25 1.64-6.26a4.66 4.66 0 0 0-6.26-1.64c-8.88 4.25-16.92 11.92-18.13 22.12a16.56 16.56 0 0 0 11.16 18c5.13 1.72 11 .89 16.33.65a135.44 135.44 0 0 0 19.58-2.06 61.15 61.15 0 0 0 17.52-6.07 13.79 13.79 0 0 0 5.67-5.27c5.92-9.58 4.42-22.07.77-32.13a4.7 4.7 0 0 0-5.63-3.19c-2.24.61-4 3.29-3.19 5.63Zm-837-725.75c53.74 5.94 108 5.08 161.76 11.2 27.34 3.11 55.5 8.11 80.48 20.15 25.24 12.17 43.79 33 59.9 55.47 17.2 23.95 32.84 49.36 48 74.67 17.15 28.71 32.81 58.28 47.94 88.1 27.29 53.81 52.1 109 84.26 160.12 30.36 48.3 63.84 94.55 96.62 141.21q5.21 7.42 10.38 14.85c3.34 4.81 11.27.24 7.9-4.61-32.31-46.49-65.71-92.24-96.55-139.73-14.52-22.35-28.61-45.07-40.82-68.78-15.32-29.73-29.91-59.83-44.87-89.75-28.88-57.77-60-114.16-96-167.86-15.57-23.22-33-46.91-56.48-62.71-23.3-15.68-51.61-22.94-79-27.34-54.71-8.79-110.55-8-165.68-12.46q-8.89-.72-17.77-1.68c-5.84-.65-5.8 8.51 0 9.15ZM1477.73 836a79 79 0 0 1 8.73 4.6c3 1.79 6 3.62 9.15 5.22 7.35 3.76 15.23 5.95 23.55 5.42a4.67 4.67 0 0 0 4.57-4.57 4.62 4.62 0 0 0-4.57-4.58c-7.42.47-14-1.51-20.39-4.93-6.22-3.35-12-7.3-18.6-10-2.29-.93-5 1-5.63 3.19-.72 2.62.9 4.7 3.19 5.63Zm662.17 785.46a223.48 223.48 0 0 1-68.88-28.14c-21.51-13.32-40.78-29.86-58.93-47.42-23.67-22.91-45.18-47.45-65.93-73-24.36-30-48-60.6-71.08-91.54-24.72-33.06-48.94-66.53-72.14-100.69-17.43-25.67-35.08-51.71-49.07-79.47q-1.72-3.43-3.33-6.91c-2.44-5.35-10.33-.71-7.9 4.61 12.2 26.75 29.08 51.59 45.37 76 22.84 34.18 46.85 67.58 71.33 100.6q35.73 48.15 73.17 95c19.45 24.2 39.33 47.88 61.14 70 35.88 36.37 75.84 69.4 125.35 84.87 6.08 1.9 12.25 3.52 18.47 4.92 5.74 1.28 8.18-7.54 2.43-8.83Z"/><path fill="#571519" d="M2010.19 1466.6a112.6 112.6 0 0 1 12.75-38.33c3.86-7 6.87-11.79 12.46-16.82 14.22-12.81 34.5-16 53-15.5 5.89.16 5.89-9 0-9.15-17.55-.45-35.95 2.28-51 11.82-11.22 7.09-18.51 17.32-24.42 29.08a120.06 120.06 0 0 0-11.55 36.47c-.84 5.76 8 8.25 8.83 2.43Zm-799.55-620.49c-29.65 4.13-59.69 4.51-89.57 5.32-28.21.76-56.38 2-84.37 5.84-24.6 3.34-49.26 8.63-71.85 19.19-22.39 10.46-40 27.36-55.09 46.61-15.56 19.79-28.65 41.29-42.14 62.5-9.07 14.26-18.44 28.34-27.86 42.37-25.06 37.3-50.59 74.28-76 111.34-28 40.8-56 81.63-83.39 122.81-28.94 43.46-57.84 87.11-80.93 134-10.41 21.15-19.8 42.93-26.8 65.46-5.45 17.53-9.58 35.8-10.1 54.22-.4 14 1.38 28.9 8.17 41.35 7.28 13.38 21 22.16 34.63 28.14 33.54 14.76 71.61 18.65 107.8 21.25a1296.3 1296.3 0 0 0 142.42 1.92q20.67-.79 41.32-2c5.85-.35 5.89-9.5 0-9.15-53.48 3.2-107 4.34-160.54 1.53-34.15-1.8-68.71-4.25-101.88-13.1-15.41-4.11-31.58-9.6-44.19-19.71-10.57-8.48-15.78-19.91-17.74-33.14-2.31-15.55-.24-31.7 3.09-46.94 4.54-20.7 11.78-40.81 20.18-60.24 20.67-47.8 48.35-92 76.89-135.41 26.41-40.18 53.47-79.93 80.63-119.61 26.11-38.14 52.37-76.16 78.34-114.39 10.47-15.4 20.89-30.84 31.13-46.39 10.93-16.62 21.31-33.59 32.2-50.24 13.55-20.7 28.14-41.41 47-57.7 18.29-15.81 41.28-24.43 64.54-29.93 53.79-12.7 109.46-10.15 164.25-13.11 14.16-.77 28.28-2 42.33-4 5.81-.81 3.34-9.63-2.43-8.82Zm60.36-16.42a263.4 263.4 0 0 1-46 13.4c-2.43.48-3.82 3.36-3.2 5.62a4.67 4.67 0 0 0 5.63 3.2 264.24 264.24 0 0 0 46-13.39c2.29-.92 3.9-3.06 3.19-5.63-.6-2.18-3.32-4.11-5.62-3.2Z"/><path fill="#571519" d="M837.9 1426c18.12-22.64 35.42-46 53-69.06q38.76-51 77-102.39c8.86-12 17.84-23.87 26.22-36.18 3.32-4.88-4.6-9.46-7.9-4.62-18.36 27-38.51 52.81-58.11 78.87q-37.2 49.47-74.82 98.63c-7.65 10-14.23 18.75-21.85 28.28-3.65 4.55 2.78 11.06 6.47 6.47Zm901.6-44c-6.13 47.77-4.44 95.48 3.13 143 7 44.07 17.78 87.26 30.34 130q9.85 33.55 20.73 66.81c1.82 5.57 10.66 3.19 8.82-2.44-12.93-39.67-25.21-79.65-35.39-120.13-11.15-44.32-19.79-90-22-135.68a467.62 467.62 0 0 1 3.48-81.6c.75-5.83-8.4-5.78-9.15 0Zm10.22-280.84c-3.44 10.19-4.56 21.22-5.55 31.88-1.44 15.37-2 30.83-2.28 46.25-.73 36.22-.07 72.45.13 108.66.09 18.45.14 36.92-.41 55.36-.17 5.89 9 5.89 9.15 0 1-34 .28-68 .06-102-.22-33.77-.61-67.7 1.92-101.4.91-12.1 1.9-24.72 5.8-36.3 1.89-5.59-6.94-8-8.82-2.43Z"/><path fill="#571519" d="M970.42 1096.71c2.74 4.23 3.76 7.67 5.18 12.85a174.54 174.54 0 0 1 4 20.14c2.67 18 3.83 36.31 4.78 54.5 2.19 41.89 2.39 83.84 3.69 125.76.53 17.18 1 34.5 3.16 51.58.74 5.76 9.9 5.83 9.15 0-1.93-15.07-2.44-30.33-3-45.5-.7-20.34-1.06-40.7-1.53-61.06-.92-40.63-1.32-81.67-6.68-122-1.77-13.36-3.36-29.26-10.9-40.87-3.2-4.93-11.12-.34-7.9 4.61ZM1867.45 1827c-4-15-8.1-30.09-14.45-44.34-6.56-14.74-16.18-27.1-26.82-39.09a667.23 667.23 0 0 0-64.73-63.55c-46.48-40-97.56-74.29-150.36-105.26-26.23-15.39-52.94-30-79.91-44-27.38-14.26-56-30.63-87.64-31.46-28.33-.74-55.71 10.84-77.83 28-23.7 18.33-41.07 43.29-54.34 69.9-14.22 28.48-24.51 58.89-34.56 89q-16.35 49-29.55 98.92-3.21 12.12-6.23 24.29c-1.42 5.72 7.41 8.15 8.83 2.43q12.09-48.67 27.13-96.55c9.59-30.47 19.61-61 31.85-90.55 11.28-27.22 25.49-54.12 46.06-75.52 19-19.73 43.56-35 70.82-39.54 30.85-5.19 59.21 7.61 86 21.34 26.17 13.4 52.12 27.25 77.68 41.8 51.79 29.49 102.2 61.87 148.53 99.46a701.83 701.83 0 0 1 65.07 59.6c10.47 10.94 21.25 22.11 30.13 34.42 9 12.46 14.81 26.59 19.32 41.2 2.24 7.26 4.2 14.6 6.15 22 1.51 5.69 10.34 3.27 8.83-2.44Z"/><path fill="#571519" d="M1558.91 1669.48c-2.5 47.64 27.62 90.31 24.13 137.91-.43 5.88 8.72 5.85 9.15 0 3.5-47.73-26.62-90.35-24.13-137.91.3-5.88-8.85-5.86-9.15 0ZM1364 1530.1a1086 1086 0 0 1-2-135.72c1.69-37.59 3.94-75.89-3.86-113-3.73-17.77-10-35.17-19.72-50.59-10.35-16.47-24.31-30-39.89-41.53-12.94-9.56-26.53-17.52-41.7-23a169.59 169.59 0 0 0-53.1-9.82c-77-1.74-138.77 55.93-174.34 119.15-10.58 18.82-18.82 38.8-26.89 58.79q-12.91 32-25.82 64.09l-52.38 130c-17.16 42.59-34.61 85.07-51.35 127.82-16 40.91-30.93 82.43-40.83 125.31q-3.64 15.78-6.32 31.76c-1 5.76 7.86 8.24 8.82 2.43 14.38-86.16 51-167 83.42-247.45l50.95-126.45c16.92-42 33.11-84.34 51-125.94 14.37-33.52 32.94-65.52 58.22-92 24.75-26 56.92-47.65 92.38-55.28 33.34-7.17 70.91-2.06 101.06 14 32.31 17.24 59.47 44.51 71.71 79.39 12.06 34.34 11.91 71.59 10.6 107.51-.73 20-1.89 39.87-2.24 59.84q-.58 33.82 1.06 67.64.8 16.53 2.13 33c.47 5.83 9.62 5.88 9.15 0Z"/><path fill="#571519" d="M923.14 1532.11a904.65 904.65 0 0 0-35.67 216.32q-1.31 31.32-.42 62.65c.16 5.87 9.31 5.9 9.15 0a894.32 894.32 0 0 1 20.54-217.28q6.6-29.88 15.22-59.26c1.66-5.66-7.17-8.08-8.82-2.43ZM1386 1192.8a299.31 299.31 0 0 1 42.18-100.61c20.07-30.6 45.58-57.34 73.83-80.48 15.8-13 33.32-23.82 48.53-37.46 8.8-7.9 16.35-16.35 19.88-27.78 6.26-20.3 1-42.94-8.94-61.14-17.09-31.36-48.51-51.77-81.29-63.8-5.54-2-7.93 6.8-2.44 8.82 28.63 10.5 56.16 27.87 72.64 54.16 10.5 16.73 16.88 38.09 11.79 57.46-2.76 10.5-9 17.44-17.14 24.93-14.52 13.27-31.43 23.75-46.73 36.08-27.93 22.52-53.14 48.48-73.59 78a307 307 0 0 0-47.54 109.38c-1.25 5.74 7.57 8.2 8.82 2.43Z"/><path fill="#571519" d="M1478.05 823.75c34.91 11.26 65.09 33.52 90.66 59.37s47 55.42 65.9 86.35a814.39 814.39 0 0 1 40.22 75.21c3.69 7.76 7.31 15.55 11 23.3a344.78 344.78 0 0 1 24.23 70.41c11.42 49.26 13.56 101.33 4.88 151.21-1 5.91-2.22 11.78-3.55 17.63s7.51 8.18 8.82 2.43c11.42-50 11.75-102.39 2.91-152.85a368.78 368.78 0 0 0-20.7-73.56c-4.9-12.22-10.69-24-16.28-35.93-11.52-24.57-23.77-48.79-37.51-72.21-18.56-31.68-39.63-62.11-64.63-89.2-25.5-27.67-55.53-51.95-90.59-66.27-4.26-1.74-8.58-3.3-13-4.71-5.62-1.81-8 7-2.43 8.82Z"/><path fill="#571519" d="M1684.77 1065.76c28 57.75 38.78 123.88 34.14 187.68a348.77 348.77 0 0 1-7.83 52.53c-1.31 5.74 7.51 8.18 8.83 2.44 14.63-64.09 11.72-132.67-7.15-195.57a348.08 348.08 0 0 0-20.09-51.7c-2.57-5.3-10.46-.66-7.9 4.62Z"/><path fill="#571519" d="M1325.14 1221.77c16-8.46 32.19-21.45 51.09-21.52s33.16 12.34 48.52 21.71c30.89 18.85 68.69 24.68 104 28.78 36.25 4.21 73.19 5.89 108.48 15.91 16.62 4.72 32.63 11.43 47 21a224.87 224.87 0 0 1 31.88 26.29c12.08 11.8 23.34 25.49 29.41 41.44a65.49 65.49 0 0 1-2.94 53.75c-2.63 5.25 5.26 9.89 7.9 4.62 8.1-16.12 11-33.92 6.73-51.59-3.83-15.85-12.7-30-23.1-42.35-9.4-11.14-20.32-20.9-31.71-30a170.67 170.67 0 0 0-45-26.14c-70.79-27.43-152.2-11-220.85-45.67-18.44-9.3-34.21-25.55-55.85-27-22.77-1.49-41.11 12.66-60.25 22.75-5.21 2.75-.6 10.65 4.62 7.9Z"/><path fill="#571519" d="M1337.6 1238c8.65-5.07 17.49-10.43 27.05-13.63 7.09-2.38 13-2.2 20.07.15 15.49 5.15 29.32 14.58 43.63 22.22 30 16 63.58 22.23 97 26.25 62.71 7.55 136.66 6.89 182.27 57.84a182.52 182.52 0 0 1 28.37 42 87.92 87.92 0 0 1 7.44 21.11c1 4.87 1.44 10.65-.76 15.23-2.53 5.29 5.36 9.94 7.9 4.62 5.28-11 2.08-24.08-2.07-34.94-5.64-14.78-14-28.53-23.47-41.13-9-11.9-19-23-31-31.78-13.86-10.14-29.55-17.55-45.82-22.91-67.57-22.23-143.38-9.62-208.48-40.83-17.09-8.2-32.72-19.39-50.63-25.89-8.2-3-16.13-3.94-24.63-1.5-11.16 3.22-21.47 9.42-31.42 15.25-5.07 3-.47 10.89 4.62 7.9Zm36.11-47.63a306.17 306.17 0 0 0-40.64-99c-19.16-30.15-43.37-56.88-70.47-80.07-14.6-12.5-30.35-23.33-45.54-35.06-10.27-7.93-22-17.23-26.55-28.74-7.12-17.82-2.91-38.8 5.72-55.53 15.62-30.32 45.61-50.16 76.9-61.64 5.48-2 3.11-10.86-2.43-8.82-30 11-58.3 28.72-76.36 55.66-12.2 18.21-19.31 40.95-15.41 62.88a49.46 49.46 0 0 0 11.26 23.95c13.45 15.52 31.27 26.42 47.44 38.79 29.16 22.29 55.89 48.31 77.36 78.16a301.16 301.16 0 0 1 49.89 111.84c1.26 5.76 10.08 3.32 8.83-2.43Z"/><path fill="#571519" d="M1270.38 814.93c-34.44 11.1-64.59 32.3-90.33 57.38s-47.3 53.83-66.38 84a765.63 765.63 0 0 0-42.14 76.66c-13.3 27.53-26.83 55.18-36.67 84.16-16.18 47.63-21.57 97.8-13.44 147.57a326.06 326.06 0 0 0 3.91 19.83c1.31 5.74 10.13 3.31 8.82-2.43a291.25 291.25 0 0 1 4.59-146.88c9.2-31.68 23.41-61.33 37.52-91 11.65-24.48 24.19-48.55 38.2-71.77 17.86-29.59 38-58 61.76-83.16 23.89-25.34 51.93-48 84.49-61.14q6-2.4 12.11-4.37c5.58-1.8 3.19-10.64-2.44-8.82ZM682.73 1477c22.64-27.3 53.51-48.77 89.47-52.79 14.27-1.6 28.21.4 42.43 1.77 23.79 2.29 47.62 4.28 71.41 6.58 25.58 2.49 51.17 5.29 76.51 9.69 5.76 1 8.24-7.81 2.44-8.82-47.15-8.2-95-11.41-142.62-15.87-15.8-1.48-31.72-4.19-47.62-2.76a130.62 130.62 0 0 0-43.65 11.91c-21.44 10-39.8 25.69-54.84 43.82-3.74 4.5 2.7 11 6.47 6.47Z"/><path fill="#ffe0b6" d="M2191.92 1425.13a11.32 11.32 0 0 1 1.17 3.66 16.7 16.7 0 0 1 .09 1.67v.92c0 .06-.18 1.46 0 .57a15.31 15.31 0 0 1-1 3.38c.33-.78-.38.71-.47.85a14.52 14.52 0 0 1-1 1.63c-.43.58.41-.46-.08.08-.19.2-.38.42-.57.63-.4.41-.82.79-1.24 1.17s.5-.34-.08.08c-.23.17-.47.34-.71.49-.54.35-1.11.65-1.68 1-.74.42-.29.15-.09.07-.26.11-.54.21-.81.3a14.26 14.26 0 0 1-1.7.47c-.28.07-.57.12-.86.17.76-.13 0 0-.13 0a17.35 17.35 0 0 1-2.28 0c-.3 0-.6 0-.9-.07.22 0 .75.17-.11 0-.57-.13-1.15-.25-1.71-.42-.29-.09-1.6-.64-.94-.32a18.59 18.59 0 0 1-1.7-.92 11.73 11.73 0 0 1-1.24-.84c.58.45-.5-.48-.7-.67-.41-.4-.79-.82-1.16-1.26.48.57 0 0-.06-.09-.24-.35-.49-.71-.71-1.08a16.9 16.9 0 0 1-.8-1.52c.35.76-.27-.76-.32-.93-.17-.57-.3-1.14-.43-1.71 0-.14-.13-.89 0-.11-.05-.37-.07-.75-.09-1.13a16 16 0 0 1 0-1.83c0-.12.11-1 0-.51s.08-.38.11-.49a16.34 16.34 0 0 1 .45-1.7c.09-.28.19-.55.29-.82.17-.46-.25.41.14-.3s.68-1.26 1.08-1.86c.16-.23.32-.47.5-.69-.4.5 0 0 .23-.23.44-.47.91-.9 1.37-1.35s.24-.23.07-.09a10.4 10.4 0 0 1 1-.73c.55-.35 1.12-.64 1.7-.94s-.59.21.1 0c.34-.13.68-.25 1-.36a15.64 15.64 0 0 1 2.15-.51h.12c.45 0 .91 0 1.37-.06a4.58 4.58 0 0 0 0-9.15 21.41 21.41 0 0 0-17.59 9.55 21.13 21.13 0 0 0-1.35 20.42 20.83 20.83 0 0 0 15.23 11.64 21 21 0 0 0 22.17-30.58 4.58 4.58 0 1 0-7.9 4.62Zm42.08 45.95c.09.21.62 2.35.66 2.36-.11 0-.09-1 0-.33v2.07c0 .47-.23 0 .06-.34a3.17 3.17 0 0 0-.11.57 11 11 0 0 1-.29 1.13c-.06.19-.13.36-.18.55-.21.64-.08-.26.13-.29a8.91 8.91 0 0 0-.61 1.16c-.2.34-.43.65-.64 1-.31.5.61-.64.18-.24-.14.14-.26.3-.39.44s-.56.56-.85.82-.68.43-.12.11-.13.08-.27.16a10 10 0 0 1-1.05.62 4 4 0 0 1-.55.27c.17.05.84-.32.22-.11-.39.13-.77.26-1.17.36l-.6.13c-1 .26 1 0 0 0h-1.19c-.18 0-1.05-.17-1.17-.07.06 0 1.16.22.35 0-.2 0-.39-.07-.58-.12-.42-.1-.83-.23-1.25-.36-1.06-.34.58.33-.12 0-.34-.19-.68-.36-1-.56-.09 0-1-.64-1-.65s.74.65.24.16c-.21-.2-.44-.39-.65-.6a7.32 7.32 0 0 0-.78-.88c.1.07.58.86.17.21-.1-.17-.22-.34-.33-.51-.21-.35-.4-.71-.58-1.07-.3-.56-.11.12.08.24-.13-.09-.21-.59-.26-.73a11.53 11.53 0 0 1-.31-1.19c-.24-1.14 0 .89-.05-.26v-1.78c0-.9.14 0-.05.2.19-.17.24-1.15.31-1.42l.18-.56c.05-.16.37-1 .08-.27s0 0 .07-.11.22-.43.34-.64.78-1.23.8-1.22-.76.86-.16.24l.5-.54c.09-.1.87-.94 1-.89s-.8.56-.21.18c.26-.17.51-.34.77-.49s1.77-.83.57-.34c2.21-.9 4-3.09 3.2-5.63-.69-2.13-3.26-4.16-5.63-3.2a17 17 0 0 0-10.27 10.89 16.43 16.43 0 0 0 2.44 14.2 16.79 16.79 0 0 0 13 6.91 16.41 16.41 0 0 0 13-5.87 16.59 16.59 0 0 0 2.91-16.19c-.84-2.23-3.13-4-5.63-3.19-2.18.7-4.1 3.23-3.2 5.63Zm-38.93 5.56c0 .35-.07.71-.05 1 0 0 .19-1 .06-.57 0 .16-.06.33-.1.5a8.29 8.29 0 0 1-.25.85c0 .14-.14.33-.17.48.21-1 .32-.69.1-.3s-.28.51-.43.76l-.28.41c-.39.6.2-.3.26-.34a5.28 5.28 0 0 0-.67.73l-.27.25c-.51.52 0 0 .26-.17-.53.27-1.08.66-1.59 1s.95-.3.4-.16l-.36.12a7.17 7.17 0 0 1-1.1.3c-1.07.23.86 0 .06 0h-1.05c-.35 0-1.25-.11-.44 0s-.42-.11-.65-.17a8.93 8.93 0 0 0-1-.33s.89.45.51.21c-.13-.09-.3-.15-.44-.23s-.5-.29-.74-.45-.28-.22-.41-.29c.28.14.78.68.26.17-.21-.2-.42-.4-.62-.61a2.73 2.73 0 0 0-.32-.37s.65.94.26.34c-.16-.24-.32-.48-.47-.73l-.24-.44c-.22-.39-.1-.71.1.3-.12-.6-.37-1.23-.52-1.83s.06.61.06.57a4.73 4.73 0 0 0 0-.52 11.78 11.78 0 0 1 0-1.19c.07-1-.19.84 0 .06.07-.34.15-.67.25-1s.41-1.18.12-.4.22-.37.33-.57.41-.53.55-.82c-.46.9-.5.61-.24.35s.27-.31.42-.45l.36-.34c.29-.29.7-.35-.26.17.29-.16.54-.39.83-.56s1.31-.62.56-.33.44-.14.64-.2.68-.12 1-.22c-1.08.31-.81.08-.44.07h.79a4.58 4.58 0 1 0 0-9.15 14.32 14.32 0 0 0-11.4 5.88 14 14 0 0 0-2.16 12 14.32 14.32 0 0 0 8.59 9.36 14 14 0 0 0 12.14-1 14.28 14.28 0 0 0 6.9-12.11 4.62 4.62 0 0 0-4.57-4.58 4.68 4.68 0 0 0-4.58 4.58Zm2.04 68.25c0 .35-.07.71-.05 1 0 0 .19-1 .07-.57 0 .17-.07.34-.11.5s-.15.57-.24.86a3.8 3.8 0 0 0-.18.47c.21-1 .32-.68.1-.3s-.27.52-.43.76-.19.27-.27.41c-.4.61.2-.3.26-.34a5.93 5.93 0 0 0-.68.73 3.2 3.2 0 0 1-.27.25c-.51.52 0 0 .26-.16-.53.26-1.08.66-1.59 1s.95-.3.4-.16a3.62 3.62 0 0 0-.35.13 10.06 10.06 0 0 1-1.11.3c-1.07.22.86 0 .06 0h-1.05c-.35 0-1.25-.11-.44 0s-.42-.11-.65-.17a8.22 8.22 0 0 0-1-.33s.89.46.51.21a3 3 0 0 0-.44-.22c-.25-.14-.5-.29-.74-.45a4.27 4.27 0 0 0-.41-.29c.28.14.79.68.26.16-.21-.2-.42-.39-.62-.6a1.9 1.9 0 0 0-.32-.38c.06 0 .65 1 .26.34-.16-.24-.32-.48-.47-.73s-.15-.29-.24-.44c-.21-.38-.1-.71.1.3-.12-.6-.37-1.23-.52-1.83s.07.61.07.57v-.52a9.45 9.45 0 0 1 0-1.19c.07-1-.19.84 0 .06.07-.33.15-.66.25-1 0-.18.41-1.18.12-.4s.22-.37.33-.56.41-.54.56-.83c-.47.9-.51.62-.25.35l.42-.45.36-.34c.29-.28.7-.34-.26.17.29-.15.55-.39.83-.56s1.31-.61.56-.33.45-.14.64-.19.68-.13 1-.22c-1.07.3-.81.08-.44.06h.79a4.58 4.58 0 1 0 0-9.15 14.35 14.35 0 0 0-11.4 5.88 14 14 0 0 0-2.16 12 14.32 14.32 0 0 0 8.59 9.36 14 14 0 0 0 12.15-1 14.33 14.33 0 0 0 6.9-12.11 4.58 4.58 0 0 0-9.16 0Z"/><path fill="#571519" d="M2260.18 1251.2c-.23-1.59-.5-4-.67-6.09s-.3-4.42-.36-6.64a117.88 117.88 0 0 1 .43-13.29c.21-2.39-2.25-4.68-4.58-4.58a4.7 4.7 0 0 0-4.57 4.58 123.13 123.13 0 0 0 .92 28.45c.35 2.38 3.49 3.89 5.63 3.19 2.6-.84 3.57-3.08 3.2-5.62Z"/><path fill="#571519" d="M2259.58 1225.18a109.09 109.09 0 1 1 200.71 68.56c-20.12 31.53-55.62 50.72-92.92 50.9-5.89 0-5.9 9.17 0 9.15 35.88-.17 70.66-16.58 93.1-44.71a118.14 118.14 0 1 0-208-97.62 129.18 129.18 0 0 0-2 13.72c-.56 5.85 8.6 5.82 9.15 0Z"/><path fill="#571519" d="M2275.91 1250.88a98.2 98.2 0 0 1-.36-28.51c.31-2.38-2.33-4.67-4.57-4.57-2.75.12-4.25 2-4.58 4.57a105 105 0 0 0 .68 31c.41 2.44 3.43 3.8 5.63 3.19 2.59-.71 3.61-3.18 3.2-5.63Z"/><path fill="#571519" d="M2275.39 1223.59a93.59 93.59 0 1 1 92.84 105.49c-5.88 0-5.9 9.18 0 9.14 30.64-.16 60.32-14 79.62-37.87a102.68 102.68 0 0 0-122-158.39c-31.74 14.2-54.52 44.81-59.32 79.19-.34 2.47.6 4.89 3.2 5.63 2.13.61 5.28-.75 5.63-3.19Z"/><path fill="#571519" d="M2400 1145.69q-14.91 41.91-29.8 83.82-2.1 5.92-4.21 11.86c-2 5.55 6.86 8 8.82 2.43l29.8-83.82q2.1-5.94 4.21-11.86c2-5.56-6.86-7.95-8.82-2.43Z"/><path fill="#571519" d="m2368 1243.34 58.81 53.64 8.36 7.63c4.34 4 10.83-2.49 6.47-6.47l-58.81-53.65-8.36-7.62c-4.35-4-10.83 2.49-6.47 6.47Z"/><path fill="#571519" d="m2320.91 1152.67 40.57 78.52 5.8 11.22c2.7 5.23 10.6.61 7.9-4.62q-20.28-39.26-40.57-78.52c-1.94-3.73-3.87-7.48-5.8-11.22-2.71-5.23-10.61-.61-7.9 4.62Z"/><path fill="#571519" d="m2372.45 1244.51 79.11-25.62 11.12-3.6c5.58-1.81 3.19-10.64-2.44-8.82l-79.12 25.62-11.1 3.6c-5.58 1.81-3.2 10.65 2.43 8.82Z"/><path fill="#571519" d="m2274.07 1214.86 83.38 25.9 11.73 3.64c5.63 1.75 8-7.08 2.43-8.82l-83.38-25.9-11.73-3.68c-5.63-1.75-8 7.08-2.43 8.82Z"/><path fill="#fff4f3" fill-rule="evenodd" d="m2194 1366.07-30.58-285.8a30.62 30.62 0 0 0-17-24.44l-109.21-53.6s-4.9-5.11 1.58-11 12.25-1.73 12.25-1.73l109.49 55.51a30.64 30.64 0 0 1 16.63 24.36l30.65 296.65Z"/><path fill="#571519" d="M2198.6 1366.07q-3.26-30.3-6.49-60.59-6.48-60.63-13-121.25l-10-94c-1.18-11-2.05-21.33-9.76-30.24-4.22-4.87-9.63-7.67-15.26-10.44l-18.89-9.27-54.85-26.92-21.72-10.65-6.47-3.18c-.54-.27-2-1.3-2.58-1.27 1.48-.09.74 1.8.61.1a3.3 3.3 0 0 1 .24-2c1.17-2.91 5.4-4.25 7.56-3.38a26.16 26.16 0 0 1 2.34 1.24l14.81 7.5 53.16 27q19.33 9.81 38.68 19.62c8.47 4.31 14.42 11.42 15.67 21.07.2 1.58.33 3.17.49 4.74l8.58 83 12.76 123.52q4.2 40.59 8.39 81.2c.14 1.38.28 2.76.43 4.14.6 5.8 9.75 5.86 9.15 0q-3.12-30.12-6.22-60.23l-12.72-123q-5.13-49.61-10.25-99.22c-.74-7.19-.79-15.51-3.16-22.39-3.28-9.49-10.1-16.46-18.93-20.94l-15.13-7.67c-30.61-15.52-61.42-30.71-91.85-46.57a20.51 20.51 0 0 0-4.85-2.06c-7.47-1.74-16.36 3.59-18.11 11.14-.88 3.83.34 8.9 3.81 11.15a34.28 34.28 0 0 0 3.22 1.58l44.49 21.83 51.34 25.19c3.34 1.64 6.71 3.23 10 4.92a26.87 26.87 0 0 1 14.84 21.15c2.76 23.64 5.06 47.35 7.59 71q6.67 62.31 13.33 124.62 4.56 42.63 9.13 85.26l.45 4.28c.62 5.79 9.78 5.86 9.16 0Z"/></svg>