<svg viewBox="0 0 2742 1828" xmlns="http://www.w3.org/2000/svg"><path fill="#8f54e2" d="M.05.16H2745v1829.89H.05z"/><path fill="#b28bef" d="M350.55 1720c-13.86.45-26.73-2.38-28-19-.22-2.81-.19-5.66-.28-8.47q-.68-20-1.34-40.06-2.55-76-5.09-152.12l-7.08-211.34L301 1059.6q-3.41-101.74-6.8-203.5-2.25-66.93-4.48-133.87c-.32-9.32-.95-18.69-.94-28 0-14.82 12.54-23.18 26.49-23.69 15.71-.57 31.48-.36 47.19-.54l102.29-1.18 148.38-1.7L797.28 665l209.85-2.42 224.49-2.58 231.3-2.66 227.08-2.63 212.84-2.45 187.81-2.16 154.57-1.78 110.38-1.27 56.08-.64c13.91-.16 29.9 5.8 31.31 21.92.52 5.93.16 12.08.24 18l1.56 119.48q1.26 97.57 2.54 195.14 1.49 113.55 3 227.09 1.42 109.35 2.86 218.7 1.08 83.32 2.17 166.66c.31 23.87 1.84 48.08.94 71.94-.59 15.53-16.74 22.11-27.78 19.59-7.75-1.77-15.58-5.73-23-8.48l-98.15-36.1c-25.93-9.54-51.75-19.48-77.82-28.63-4-1.39-6.56-1.52-10.7-1.51l-65.81.18-127 .34-174.93.47-208 .55-225.55.6-230.86.62-220.69.59-196.09.52q-78.21.23-156.43.42l-103.87.28-27.32.07c-3.54 0-7.81-.63-11.16.71-7.08 2.84-14.24 9.86-20.47 14.18l-41.81 28.94-60.59 42c-4.81 3.33-.24 11.27 4.62 7.9l65-45 41.94-29c4.23-2.93 8.75-5.68 12.8-8.87 1.93-1.51 5-2.21 1-1.58 13.43-2.11 28.83-.08 42.36-.12l110.24-.29 163.26-.44 201.45-.53 224.78-.61 232.2-.62 227-.6 205.86-.55 169.88-.46 119.07-.32c17.64 0 35.79-1.33 53.4-.14 3 .21-1.05-.5 1.77.38 8.49 2.64 16.8 6.18 25.15 9.25l101.31 37.27c24.29 8.94 48.73 20.09 73.66 27.1 20.67 5.81 40.35-8.14 40.43-29.65.1-28.16-.74-56.34-1.1-84.49l-2.3-176.27q-1.47-112.1-2.93-224.19-1.48-114.13-3-228.26-1.23-94.26-2.45-188.5-.69-52.34-1.37-104.66c-.21-16.15-4.69-29.92-21.59-37.18-6.94-3-13.29-3-20.42-2.91l-60.35.7-114.94 1.25-159.14 1.83-193.11 2.22-216.75 2.5-230.19 2.65-233.29 2.68-226.12 2.61-208.65 2.4-180.15 2.07-143.08 1.65-94.81 1.1c-12 .14-24.2-.21-36.24.41-20.2 1.05-34.38 15.54-33.72 35.32l1.11 33.16q2.42 72 4.82 143.92 3.51 105 7 210.1 3.87 115.92 7.76 231.83l7 209.07q2.37 70.93 4.75 141.85.53 15.57 1 31.12c.05 1.47 0 3 .15 4.42 1.68 21.13 18.53 27.6 37.15 27 5.87-.19 5.9-9.34 0-9.15Z"/><path fill="#b28bef" d="m2432.65 1676.42-1.38-98.92-3.3-237.56-4-287.42q-1.72-124.26-3.46-248.51l-1.14-81.91c-.17-12.69 1-26.26-.54-38.88a13.75 13.75 0 0 1 0-1.7 4.64 4.64 0 0 0-4.58-4.57l-56.4.58-152.14 1.57-226.46 2.33-275.39 2.84-301.61 3.11-304.42 3.14L814 693.45l-239.86 2.47-172.5 1.78c-27.23.28-54.5.18-81.72.85h-3.52a4.63 4.63 0 0 0-4.57 4.58q1.71 49 3.44 98l8.22 234.15 10 284.19q4.31 122.37 8.59 244.74 1.43 40.36 2.84 80.72c.44 12.56-.37 25.94 1.34 38.41a16.6 16.6 0 0 1 .07 1.72c.11 3.3 3.85 5.94 6.88 4l96.36-63.11c10.31-6.75 17.89-12.16 30.07-12.17l107.85-.12 206.69-.23 273-.31 303.56-.34 301.24-.33 265.21-.3 195.42-.21c30.61 0 61.3.57 91.91-.11a21.69 21.69 0 0 1 2.55 0c1 .12-1.84-.4.86.4 13.57 4 26.9 9.3 40.29 13.93l133.1 46c7.73 2.68 18.46 8.88 26.84 8.88 5.89 0 5.9-9.15 0-9.15 1.58 0-.52-.3-1.26-.55-2.08-.7-4.16-1.44-6.24-2.15l-21.89-7.57-65.95-22.8-67.82-23.45c-11.56-4-23.83-10-35.85-12.39-5.31-1.06-11.32-.3-16.7-.29h-47.1l-175.19.19-252 .29-298 .33-306 .34-284 .31-224.15.25-133.16.15c-6.93 0-14.1-.52-21 0-10.62.83-19.66 8.6-28.25 14.23l-58.92 38.59-36.19 23.69 6.89 4q-1.73-49-3.44-98l-8.22-234.15-10-284.19q-4.23-122.34-8.53-244.72-1.41-40.37-2.83-80.72-.45-12.59-.89-25.17c-.13-3.77.8-9.65-.46-13.24a6.55 6.55 0 0 1-.06-1.72l-4.58 4.57 56.41-.58 152.13-1.57 226.46-2.33 275.4-2.84 301.61-3.11 304.41-3.14 283.84-2.93 239.87-2.48L2329 687l53.82-.56c9.11-.09 18.85.79 27.91-.29a34.22 34.22 0 0 1 3.51 0l-4.57-4.58q.69 49.47 1.37 98.92 1.66 118.78 3.31 237.56l4 287.43 3.45 248.5 1.14 81.91c.18 12.69-1 26.26.54 38.88a16 16 0 0 1 0 1.7c.1 5.83 9.25 5.85 9.17-.05Z"/><path fill="#b28bef" d="M313.12 717.89a64.3 64.3 0 0 0 1.1 8.25q1.32 9.21 2.71 18.42 4.92 33 10 66.06 7.38 48.58 14.83 97.15 9 58.85 18 117.68 9.89 64.29 19.78 128.6 10 65 20 130.07 9.3 60.39 18.61 120.77Q426.09 1456 434 1507.2l11.31 73.27c1.78 11.55 3.2 23.23 5.36 34.72.1.5.16 1 .24 1.5.89 5.8 9.71 3.34 8.82-2.43q-1.85-11.9-3.68-23.78l-10-64.74-14.79-95.82q-9-58.51-18-117-9.9-64.17-19.78-128.36l-20-129.79q-9.33-60.68-18.62-121.35-7.91-51.52-15.76-103-5.7-37.41-11.34-74.84-1.8-11.93-3.56-23.88-.58-3.92-1.15-7.84c-.13-1-.27-1.94-.41-2.91-.1-.73-.39-3.06-.14-1a19.25 19.25 0 0 1-.23-2c-.07-5.88-9.22-5.9-9.15 0Zm18.55-13.53a69 69 0 0 0 1.09 8.31q1.29 9.21 2.65 18.42 4.86 33.42 9.85 66.83 7.25 48.83 14.56 97.66 8.87 59.34 17.76 118.68 9.76 65.09 19.54 130.17l19.66 130.76L435.11 1397q7.74 51.43 15.49 102.87l11.15 73.94c1.75 11.66 3.13 23.46 5.28 35 .09.5.15 1 .23 1.52.87 5.8 9.69 3.34 8.82-2.43q-1.8-12-3.62-24-4.92-32.67-9.85-65.34l-14.56-96.71q-8.9-59-17.78-118.09-9.74-64.74-19.47-129.49-9.84-65.46-19.66-130.91-9.15-61-18.27-122-7.77-51.95-15.51-103.89-5.6-37.6-11.13-75.21-1.77-12-3.51-24.1c-.38-2.63-.76-5.27-1.12-7.91-.14-1-.28-2-.41-2.94a8.81 8.81 0 0 1-.14-1 19.13 19.13 0 0 1-.23-2c-.07-5.88-9.22-5.9-9.15 0Zm2078.13-7.73c0 1.07.22-1.34.07-.48-.08.48-.15 1-.23 1.45-.29 1.74-.6 3.47-.91 5.21q-1.68 9.47-3.45 18.92-6.24 33.74-12.63 67.44-9.29 49.27-18.64 98.54-11.34 59.79-22.72 119.58-12.37 65.07-24.79 130.13-12.5 65.78-25.09 131.58L2278 1391.46q-9.86 51.54-19.71 103.09-7.1 37.17-14.22 74.35c-2.24 11.73-4.58 23.45-6.73 35.2-.09.5-.2 1-.29 1.51-1.1 5.75 7.72 8.21 8.82 2.43l4.62-24.15q6.33-33 12.64-66 9.32-48.7 18.62-97.41l22.71-118.88q12.44-65.14 24.87-130.32 12.6-66.06 25.18-132.13 11.71-61.5 23.39-123 9.9-52.12 19.75-104.26 7.13-37.73 14.17-75.47c2.28-12.2 4.73-24.39 6.68-36.64a22 22 0 0 0 .44-3.11c.09-5.89-9.06-5.89-9.15 0Zm-20.88-13.53c0 1.13.2-1.24.08-.47-.08.49-.15 1-.23 1.46-.29 1.76-.58 3.52-.89 5.28q-1.66 9.6-3.4 19.19-6.14 34.22-12.42 68.4-9.11 49.77-18.27 99.55-11.11 60.39-22.27 120.78-12.21 66.2-24.46 132.37-12.33 66.69-24.68 133.38l-23 124.18q-9.67 52.24-19.37 104.48-7 37.56-13.94 75.12c-2.21 11.91-4.5 23.79-6.63 35.71-.09.51-.19 1-.28 1.53-1.07 5.75 7.75 8.22 8.82 2.43q2.28-12.26 4.55-24.5 6.2-33.36 12.38-66.71l18.3-98.71q11.18-60.25 22.34-120.52 12.24-66.06 24.46-132.12 12.35-66.77 24.68-133.53 11.52-62.37 23-124.74 9.73-52.86 19.43-105.73l14-76.55c2.24-12.37 4.64-24.73 6.57-37.15a22.21 22.21 0 0 0 .43-3.13c.09-5.89-9.06-5.89-9.15 0Zm-71.11 3.21q-16.48 87.3-29.65 175.19-13.66 90.09-24.77 180.52-11.32 91-20.84 182.22-9.57 90.66-18 181.43-8.39 89.26-16.28 178.58-1 10.71-1.91 21.41c-.53 5.86 8.63 5.83 9.15 0q7.92-88.56 16-177.09 8.4-90.16 17.62-180.26 9.46-91.23 20.41-182.28 11-90.25 24.11-180.21 13-88.22 29-176 1.95-10.56 3.94-21.12c1.09-5.76-7.73-8.22-8.82-2.43Zm-103.1.62q-14.51 88-28.08 176.15-13.65 89.64-25.45 179.56c-7.8 60.18-14.78 120.47-20.6 180.88s-10.48 120.74-13.58 181.25c-3.05 59.45-4.6 119-4.15 178.51q.08 11 .25 21.91c.1 5.88 9.25 5.9 9.15 0-.92-59.07.16-118.15 2.78-177.16 2.68-60.14 7-120.2 12.41-180.15 5.51-60.43 12.22-120.74 19.79-181s16-120.12 25-180q13.22-88 27.76-175.9 1.77-10.82 3.55-21.63c.95-5.76-7.86-8.23-8.82-2.43Zm-121.1 3.91c-3.88 59.31-9.29 118.5-15.36 177.62-6.14 59.79-12.95 119.5-19.56 179.23-6.59 59.48-13 119-18.29 178.6-5.3 59.38-9.55 118.86-11.84 178.44s-2.62 119.16-.08 178.7q.46 11 1.08 22c.32 5.85 9.47 5.89 9.15 0-3.23-59.18-3.55-118.48-1.79-177.71 1.78-59.84 5.65-119.62 10.7-179.27s11.25-119.13 17.77-178.6S2078.73 951 2085 891.5s12-119 16.25-178.62q.78-11 1.51-22c.38-5.88-8.77-5.85-9.15 0Zm-112.7-1.39q-16 179-27.19 358.39-11 177.93-16.93 356.13-3.36 100.88-5.09 201.8c-.1 5.88 9 5.89 9.15 0q3.11-179.7 11.32-359.25 8.17-178.08 21.39-355.89 7.44-100.63 16.5-201.18c.52-5.87-8.63-5.83-9.15 0ZM1878.9 688q-17.88 178.29-27.63 357.25-9.68 178-11.27 356.31-.88 101 .81 201.91c.09 5.88 9.25 5.9 9.15 0q-3-179.14 2.15-358.31 5.13-178.18 18.36-356Q1878 788.49 1888 688c.59-5.85-8.56-5.81-9.14 0Zm-113.62 1.82q-5.43 179.59-10.88 359.21c-3.63 119.73-7.6 239.45-10.2 359.21-1.46 67.21-2.44 134.43-2.53 201.65 0 5.89 9.15 5.9 9.16 0 .16-119.79 3.13-239.54 6.64-359.27s7.23-239.47 10.86-359.21q3-100.8 6.1-201.59c.18-5.89-9-5.89-9.15 0Zm-117.09 1.4.54 357.5q.27 177.84.53 355.68.16 100.32.3 200.64c0 5.89 9.16 5.9 9.15 0q-.26-178.76-.53-357.5-.27-177.84-.53-355.68-.17-100.32-.31-200.64c0-5.89-9.15-5.9-9.15 0Zm-110.51 4.72c7.32 58.62 9.13 117.53 6.64 176.52-1.24 29.49-3.07 59-3.59 88.49-.52 29.35.1 58.71.92 88.06q5 177.57 10.58 355.14l6 199.41c.18 5.88 9.33 5.9 9.15 0l-10.65-357.13-5.3-177.66c-.87-29.34-1.75-58.69-1.69-88s1.46-58.94 2.87-88.39c3.15-65.71 2.43-131-5.73-196.39-.72-5.77-9.88-5.84-9.15 0ZM1430 692.17q2.48 90.29 5.69 180.56 3.16 90.53 6.76 181 3.52 90.07 7.14 180.17 3.54 89.41 6.83 178.86 3.16 87.2 5.76 174.43l.6 21.28c.16 5.88 9.31 5.9 9.15 0q-2.42-87-5.57-173.91-3.16-88.8-6.71-177.6-3.54-90-7.13-180-3.59-90.94-6.89-181.89-3.22-90.35-5.86-180.7-.32-11.13-.62-22.27c-.16-5.88-9.31-5.9-9.15 0Zm-121.78 6.63c9.73 60.51 15.79 121.54 20.19 182.65 4.33 60 7.15 120.2 10.23 180.32l8.88 174.46 9 177.06q4.42 87 8.87 174 .54 10.85 1.1 21.66c.3 5.86 9.45 5.9 9.15 0q-4.44-87-8.87-174l-9-177.85q-4.47-88-9-175.91c-3.06-60-5.84-120-9.84-180-4.06-60.76-9.53-121.46-18.34-181.73q-1.69-11.55-3.55-23.08c-.93-5.8-9.75-3.34-8.82 2.43Zm-104.02-1.53C1211.6 757 1217.37 817 1222.13 877c4.79 60.39 8.58 120.86 12 181.34 3.43 59.87 6.54 119.76 10 179.63 3.44 59.42 7.21 118.83 12 178.16 4.71 57.93 10.43 115.79 17.9 173.44q1.38 10.65 2.85 21.29c.79 5.81 9.61 3.34 8.82-2.43-7.88-57.61-13.9-115.46-18.85-173.38-5-58.63-8.89-117.34-12.38-176.07-3.55-59.8-6.67-119.62-10-179.43-3.38-60.18-7-120.34-11.54-180.44s-10-120.09-17-179.93q-1.29-11-2.65-21.94c-.71-5.77-9.87-5.84-9.15 0Zm-105.74 2.83c8.31 120.23 16.23 240.49 25.21 360.67 8.81 117.71 18.67 235.34 30.37 352.79q9.78 98.16 21.48 196.12c.7 5.77 9.86 5.84 9.15 0-14.08-117-25.75-234.34-36-351.76-10.27-118.15-18.88-236.43-27-354.74l-14-203.08c-.41-5.84-9.56-5.89-9.15 0ZM980 697q21.12 177.75 42.26 355.52 21 176.87 42 353.72l23.82 200.32c.68 5.77 9.84 5.84 9.15 0l-42.23-355.5-42-353.71Q1001.06 797.18 989.16 697c-.69-5.78-9.85-5.85-9.15 0Zm-113.08 6.06q28.37 176.09 53.76 352.63 25.43 176.82 47.85 354.07 12.54 99.2 24.15 198.5c.68 5.79 9.84 5.85 9.15 0q-20.82-178-44.64-355.71-23.67-176.49-50.31-352.55-15.09-99.75-31.14-199.36c-.93-5.79-9.75-3.33-8.82 2.44Zm-111.22.61c13.92 58 24.81 116.75 34.29 175.66s17.58 117.75 26 176.69 16.74 117.68 25.12 176.52q12.72 89.25 25.45 178.48 12.56 88.17 25.08 176.32 1.54 10.82 3.07 21.62c.82 5.81 9.64 3.33 8.82-2.43q-12.48-88-25-176L853.14 1253q-12.6-88.38-25.17-176.79c-8.4-59.14-16.53-118.33-25.7-177.36s-19.49-117.78-32.7-176q-2.46-10.82-5-21.58c-1.37-5.72-10.2-3.3-8.83 2.43Zm-113.06 2.18q32.58 175.35 63.7 351t60.77 351.49q16.68 99 32.91 198c1 5.8 9.77 3.34 8.82-2.43q-28.83-176-59.12-351.78t-62.05-351.25q-17.86-98.77-36.21-197.47c-1.07-5.78-9.89-3.33-8.82 2.44ZM529 707.82q17.29 88.62 34.29 177.31Q580.14 973 596.65 1061 613 1148.15 629 1235.34q16 87.53 31.7 175.12 15.93 89.14 31.46 178.34l3.84 22.09c1 5.79 9.83 3.34 8.82-2.43q-15.43-89-31.27-177.86-15.71-88.14-31.79-176.2-15.94-87.2-32.24-174.33-16.35-87.46-33.06-174.86-17-88.94-34.32-177.81l-4.29-22c-1.13-5.78-10-3.33-8.82 2.43Zm-116.09-.73q22.83 86.83 43.23 174.27t38.35 175.4c12 58.7 23 117.59 33.68 176.53q16.16 88.74 31.77 177.56 15.66 88.61 31.52 177.16l4 22.11c1 5.78 9.87 3.33 8.82-2.43q-16.11-88.65-31.66-177.41T541 1253c-10.71-59-21.51-118-33.3-176.85S483.37 958.91 470 900.57s-27.63-116.47-42.65-174.41q-2.79-10.75-5.61-21.5c-1.5-5.69-10.33-3.28-8.83 2.43Z"/><path fill="#b28bef" d="M2405 734.6c-33.73 7.29-68.28 11-102.58 14.32-51.22 5-102.6 8.38-154 11.22-138.28 7.63-276.79 11.2-415.25 13.57q-244.73 4.2-489.5 2.71-239.52-1.15-479-7.22c-127.94-3.41-256-7.75-383.67-16.22q-18.15-1.2-36.28-2.55c-5.87-.44-5.84 8.71 0 9.15 122.62 9.17 245.61 13.66 368.5 17.32 157.36 4.69 314.79 7.19 472.21 8.32q247.59 1.78 495.18-1.53c142.62-2 285.27-5.33 427.74-12.32 93-4.56 187.48-8.32 279.4-24.17 6.57-1.13 13.12-2.37 19.64-3.78 5.76-1.24 3.32-10.07-2.43-8.82Zm-14.29 95.4c-21.52 6.66-45.31 7.91-67.58 10-42.39 4.09-84.93 6.72-127.45 9.07-129 7.16-258.28 11-387.48 14.07q-245.48 5.79-491 6.51c-166.09.6-332.19-.29-498.25-3.64-139.58-2.81-279.27-6.89-418.57-16.4q-20.46-1.39-40.91-3c-5.87-.46-5.84 8.69 0 9.15 133.8 10.49 268.09 14.91 402.24 18.13 165.21 4 330.5 5.25 495.76 5q248.47-.32 496.92-5.46c135.27-2.86 270.57-6.62 405.71-13.39 46.44-2.33 92.88-5 139.22-8.82 27.85-2.31 56.19-4.36 83.62-10 3.44-.71 6.88-1.49 10.23-2.53 5.61-1.73 3.22-10.57-2.43-8.82Zm-42.11 79.46c-82.59 22.23-170.37 27.92-255.32 34-128.31 9.12-257 12.81-385.62 14.93-150.56 2.47-301.16 2.28-451.73.64q-227.78-2.47-455.48-9.33-194.38-5.8-388.65-14.83l-40.38-2c-5.88-.3-5.87 8.85 0 9.15 126.19 6.4 252.45 11.25 378.73 15.24q225.58 7.13 451.3 10.21c152.16 2 304.36 2.63 456.53.73 132.55-1.65 265.19-4.9 397.51-13.13 91.22-5.67 184.21-11.63 273.67-31.45q11-2.43 21.88-5.34c5.67-1.53 3.26-10.36-2.44-8.83Zm-17.72 109.23q-188.1 12.87-376.48 20.84-191 8.1-382.13 11.23-190.8 3.15-381.61 1.36-190.34-1.8-380.57-8.6-189.6-6.81-379-18.82-23.28-1.47-46.54-3c-5.88-.4-5.86 8.75 0 9.15q188.1 12.62 376.5 20 191 7.53 382.15 9.91 190.79 2.41 381.61-.12 190.32-2.53 380.55-9.94 189.6-7.4 379-19.72 23.26-1.53 46.54-3.12c5.84-.4 5.88-9.55 0-9.15ZM2310.12 1121c-249.33 17.66-499.3 25.08-749.24 25-123.76 0-247.47-2.68-371.22-4.38-123.42-1.69-246.85-2.83-370.25-5.89-140.81-3.5-281.6-9.56-422-21.58-5.86-.5-5.83 8.66 0 9.15 248.44 21.27 497.9 23.66 747.07 26.87 248 3.2 495.71 7.49 743.69.58q211.14-5.89 421.91-20.61c5.84-.41 5.88-9.56 0-9.15Zm-14.04 117.52c-246.25 14.24-492.94 19.4-739.58 19-243.66-.39-487.27-6.13-730.8-13.46q-204.7-6.16-409.44-13.15c-5.88-.19-5.88 9 0 9.15 243.83 7.93 487.64 16.42 731.54 21.62 244.31 5.21 488.73 7.13 733.06 2q207.73-4.34 415.22-16c5.86-.34 5.9-9.49 0-9.15Zm-12.76 118.63q-361.11 15.19-722.66 14.66-361.42-.12-722.7-13.31-202.8-7.17-405.46-17.8c-5.88-.31-5.87 8.84 0 9.15q360.11 18.74 720.66 26.7 361.56 7.58 723.26 1.76 203.52-3.51 406.9-12c5.87-.25 5.9-9.4 0-9.15Zm-37.1 114.2q-177.85 7.5-355.83 12-174.14 4.29-348.34 5.38-171.87 1-343.74-1.2-173.6-2.26-347.13-7.85-176.76-5.65-353.4-14.54-22.21-1.09-44.41-2.26c-5.88-.31-5.86 8.84 0 9.15q177.2 9.21 354.51 15.37 173.77 6 347.66 8.67 171.82 2.65 343.7 2 173.88-.63 347.73-4.57 177.38-4 354.65-11.15 22.3-.9 44.6-1.84c5.87-.24 5.9-9.4 0-9.15Zm26.86 8.37q74.58-27.88 149-56.22c5.45-2.07 3.09-10.92-2.43-8.82q-74.42 28.33-149 56.22c-5.46 2-3.1 10.89 2.44 8.82Zm25.03-114.51c39.13-19.44 82.29-29.45 120.61-50.71 5.15-2.86.54-10.77-4.62-7.9-38.3 21.25-81.48 31.27-120.61 50.71-5.28 2.62-.64 10.51 4.62 7.9Zm19.36-118.3a376.38 376.38 0 0 0 101.65-49.46c4.81-3.33.24-11.26-4.62-7.91a368 368 0 0 1-99.46 48.55c-5.6 1.75-3.21 10.58 2.43 8.82Zm22.98-120.53a727.43 727.43 0 0 0 74.61-45.32c4.81-3.33.24-11.26-4.61-7.9a732.23 732.23 0 0 1-74.62 45.32c-5.21 2.76-.59 10.65 4.62 7.9ZM2362 1019.7a169.47 169.47 0 0 0 54.17-29.7c1.92-1.56 1.62-4.85 0-6.47-1.89-1.89-4.55-1.57-6.47 0a157.31 157.31 0 0 1-50.15 27.39c-5.56 1.83-3.18 10.67 2.44 8.82Zm20.49-109.63a106.49 106.49 0 0 0 31.66-19c1.86-1.62 1.66-4.81 0-6.47a4.68 4.68 0 0 0-6.48 0 90 90 0 0 1-13.1 9.51 96.48 96.48 0 0 1-14.52 7.15c-2.22.86-4 3.11-3.19 5.63.7 2.16 3.24 4.12 5.63 3.19Z"/><path fill="#b28bef" d="M2397.94 836.75c1.14-1 2.31-2 3.5-3l-.28.22.43-.33 1-.72q.93-.68 1.89-1.32a67.35 67.35 0 0 1 7.94-4.59 4.6 4.6 0 0 0 1.65-6.26 4.7 4.7 0 0 0-6.26-1.64 70.74 70.74 0 0 0-16.31 11.14 4.61 4.61 0 0 0 0 6.47 4.67 4.67 0 0 0 6.47 0Z"/><path fill="#b28bef" d="M2387.51 833.21c-7.29 50.33-9.4 101.23-9.69 152-.29 51.19 1.3 102.37 1.7 153.55.43 54.55-.88 109.09-2.9 163.59-2 55-4.65 110-7.25 165q-3.87 82-8.12 163.93-.52 10.14-1.06 20.28c-.31 5.89 8.84 5.87 9.15 0q4.27-81.54 8.18-163.11c2.61-54.7 5.2-109.41 7.4-164.14 2.19-54.54 3.83-109.1 3.84-163.69 0-51-1.63-102.07-1.81-153.11s.93-102.51 7-153.38q1.09-9.28 2.44-18.54c.83-5.76-8-8.25-8.83-2.43Zm-39.95 202.99q-13.23 114.87-26.54 229.73-13.24 114.33-26.47 228.67-7.47 64.67-14.93 129.32c-.67 5.84 8.49 5.79 9.15 0q13.24-114.86 26.55-229.72 13.23-114.35 26.46-228.68 7.47-64.65 14.93-129.32c.67-5.83-8.48-5.79-9.15 0ZM333.2 855c-.15 15.36.35 30.72.89 46.06.81 22.93 1.89 45.85 3.06 68.77q2.18 42.64 4.72 85.26 2.83 48.44 5.92 96.87 3.22 51 6.61 102t6.83 102q3.27 48.4 6.6 96.81 2.93 42.59 5.83 85.15 2.35 34.3 4.64 68.62c1 15.29 2 30.57 2.91 45.87.14 2.4.28 4.8.4 7.2.31 5.85 9.46 5.89 9.15 0-.69-13.18-1.56-26.35-2.42-39.52q-2.07-31.82-4.26-63.62-2.77-40.77-5.58-81.54-3.24-47.3-6.47-94.58-3.43-50.57-6.81-101.14-3.41-51.26-6.7-102.53-3.16-49.38-6.15-98.77-2.65-44.25-5.05-88.51c-1.32-24.4-2.52-48.89-3.51-73.4-.7-17.35-1.34-34.7-1.47-52.06V855c0-5.89-9.1-5.89-9.15 0Zm25.36 169.49c9.08 79 16.84 158.06 24.37 237.18 7.64 80.43 15 160.9 23.1 241.3q6.6 65.71 14.06 131.33c.66 5.78 9.82 5.84 9.15 0-9.09-79-16.85-158.06-24.37-237.18-7.65-80.44-15-160.91-23.1-241.31q-6.61-65.7-14.06-131.32c-.67-5.78-9.83-5.85-9.15 0Z"/><path fill="#b28bef" d="M2420 1546.56c-45.5 17.12-91.61 32.61-138.54 45.35q-20.53 5.58-41.25 10.5c-5.72 1.36-3.3 10.19 2.44 8.82a1402.1 1402.1 0 0 0 139.82-41.23q20.09-7 40-14.57c5.46-2.05 3.1-10.9-2.43-8.82Zm-1992.3-79-74.95-18.39c-5.71-1.41-8.15 7.42-2.43 8.82l74.94 18.4c5.72 1.4 8.16-7.42 2.44-8.83Zm-15.91-128.77q-36.39-10.71-71.77-24.45c-5.49-2.14-7.87 6.71-2.43 8.82q35.36 13.72 71.76 24.45c5.66 1.67 8.08-7.16 2.44-8.82Zm-16.19-109.66a422.37 422.37 0 0 1-57.86-13.94c-5.63-1.78-8 7-2.43 8.82a422.23 422.23 0 0 0 57.85 13.99c2.44.41 4.93-.64 5.63-3.19.61-2.2-.74-5.22-3.19-5.63Zm-16.31-116.4a309.85 309.85 0 0 0-44.74-19.39c-5.58-1.91-8 6.93-2.43 8.83a293.13 293.13 0 0 1 42.55 18.46c5.2 2.76 9.83-5.14 4.62-7.9Zm-16.4-95.25a362.81 362.81 0 0 1-34.46-24c-1.94-1.52-4.58-1.89-6.47 0-1.59 1.59-1.95 4.94 0 6.47a382.09 382.09 0 0 0 36.31 25.46c5 3.1 9.62-4.81 4.62-7.9Zm-11.38-86.71-20.66-14a4.59 4.59 0 0 0-6.26 1.64 4.69 4.69 0 0 0 1.64 6.26l20.66 13.95a4.59 4.59 0 0 0 6.26-1.64 4.67 4.67 0 0 0-1.64-6.25ZM453.11 1604c-33.46-7.65-67-15-100.45-22.65-5.73-1.31-8.18 7.51-2.43 8.83 33.46 7.64 67 15 100.45 22.64 5.73 1.31 8.18-7.51 2.43-8.82Z"/><path fill="#fc3871" d="M1057.59 1338.21c.51 8.71-4.61 16.66-1.08 25.63a37.89 37.89 0 0 0 5.34 8.62c2 2.61 4 5.25 6 7.86l-.09.06a69.15 69.15 0 0 1-21.19 13.81l-.54-1.3c-.6-30.32.06-56.53 1.69-83l4.32.26c-.49 9.85 5.01 18.45 5.55 28.06Zm104.08 143.97a11.67 11.67 0 0 0 2.39-.26l.32 1.82a259.25 259.25 0 0 0 208.92 111.68c47.4.83 91.46-10.69 129.53-31.81a256.41 256.41 0 0 0 91.68-86.49l-.06-.26a115.61 115.61 0 0 0 16.79-5.75l.32.73c11.48 15.14 32.54 69.47 83.41 100.07l-.07.1c-.54 67.4.32 185.45 1.53 252.73l-642.12-1.15c-.82-62.92-1.65-208.48-2.48-271.4l-.47-.57c23-17.18 50.38-41.55 84.42-76.5l.1-.8c9 4.01 18.54 7.89 25.79 7.86Zm408.51-345.27c-5.25 4.2-7 11-6.11 17.75h-.07a262.24 262.24 0 0 0-29.49-26.05 259.5 259.5 0 0 0-340.18 23.32h-.09a16.48 16.48 0 0 0-5.48-10.06 10.26 10.26 0 0 0-6.71-2.76 15.3 15.3 0 0 0-6.17 1.87c-25.32 11.9-51.63 24.56-68.8 46.6-8.88 11.39-14.92 24.82-24 36-7 8.58-16 16.15-19.34 26.75-3.79 12.09.7 25.73-3.56 37.66l.15.09c-4.35 6.81-8 14.07-8.3 22l-4.32-.26c.12-2.07.25-4.13.38-6.2l-5.28-.35c-37.35 3.47-121.26-13.14-160.13-26.69-11.52-4-19.09-7.76-20.36-10.66-5.54-12.43 18.38-170 22-198s15.87-118.84 48.06-161.5c39.23-52 255.57-130.83 334.71-155l.16.58c-45.11 40.27 7.51 158.09 113.59 158.09s162.33-126.25 106.4-157.49l1-2.86c27 7.69 244.84 70.87 297.2 128 40.34 44 58 118.33 65.53 177.53 9.77 67.91 37.25 198.18 31.72 210.61-1.25 2.77-8.21 6.3-18.84 10.12-38.2 13.65-123.8 30.73-161.66 27.23l-1.78.38c-1.17-5.66-3.78-11-6.84-16.16l.16-.09c-3.85-12.06 1.12-25.55-2.26-37.76-3-10.69-11.7-18.58-18.38-27.42-8.75-11.48-14.32-25.13-22.78-36.81-16.41-22.65-42.24-36.2-67.15-49a15 15 0 0 0-6.11-2.1 10.44 10.44 0 0 0-6.87 2.64Z"/><path fill="#ffe4ce" d="M1614 1419.61c.32-.58.6-1.18.92-1.75 3.88-7.38 7.8-14.79 10.09-22.78 1.55-5.44 2.35-11.1 4.32-16.38l.38-1.75a192 192 0 0 1-42.5-14.19c-3.5-1.62-7.12-3.56-9-6.93a11.83 11.83 0 0 1-1.24-3.72 23.19 23.19 0 0 1-.28-4.42c0-6.78 1.65-14.22 7.09-18.27 4.64-3.4 10.82-3.52 16.57-3.52 10.88 0 21.73.06 32.61.06h4.42c-.25-6.78-2.16-26.91-2.9-33.34a39.1 39.1 0 0 0-8.14-4c-8.17-3.28-19-6.33-24.11-8.91a60.27 60.27 0 0 1-10.75-6.93 41.65 41.65 0 0 1-10.72-12.06c-4.84-8.39-6-19.21-1.53-27.77a14.62 14.62 0 0 1 5.6-6.1 13.13 13.13 0 0 1 7.82-1.24 43.07 43.07 0 0 1 7.29 1.59q7.59 2.14 15.17 4.32c13.4 3.79 26.75 7.57 40.15 11.39 3.62 1.05 7.31 2.1 10.4 4.26 3.69 2.55 6.23 6.46 8.65 10.24q7.55 11.75 15.08 23.48c1.4 2.2 2.83 4.42 4.13 6.68 3.06 5.12 5.67 10.5 6.84 16.16a27.79 27.79 0 0 1 .7 6.11c.1 9.89-5.69 18.32-6.58 27.9-.83 8.71 4 16.79.19 25.67a37.71 37.71 0 0 1-5.63 8.43c-5.28 6.49-10.56 13-15.81 19.49l1.14.93c-1.71 5.69 2.13 11.61 1.82 17.53-.26 4.9-3.31 9.22-6.24 13.2q-9.45 12.88-18.89 25.73c-2.42 3.31-4.87 6.65-8.14 9.16-4.17 3.25-9.39 4.93-14.48 6.56-4.83 1.49-10.88 4.13-17.18 6.71a115.61 115.61 0 0 1-16.79 5.75 33.69 33.69 0 0 1-9 1.12c-10.5-.42-14.35-13-11-22.11 3.08-8.36 10.81-14.38 19-18.42 4.39-2.19 9.09-3.94 12.78-7.12 3.31-2.94 5.6-6.82 7.75-10.76Z"/><path fill="#ffe4ce" d="M1615.35 1230.59a257.7 257.7 0 0 0-22.56-40.62l.23-.25c-8.24-7-17.72-12.89-23.93-21.79a29.52 29.52 0 0 1-5-13.27c-.86-6.77.86-13.55 6.11-17.75a10.44 10.44 0 0 1 6.8-2.51 15 15 0 0 1 6.11 2.1c24.91 12.75 50.74 26.3 67.15 49 8.46 11.68 14 25.33 22.78 36.81 6.68 8.84 15.43 16.73 18.38 27.42 3.38 12.21-1.59 25.7 2.26 37.76l-.16.09c-1.3-2.26-2.73-4.48-4.13-6.68q-7.55-11.73-15.08-23.48c-2.42-3.78-5-7.69-8.65-10.24-3.09-2.16-6.78-3.21-10.4-4.26-13.4-3.82-26.75-7.6-40.15-11.39Zm-460.17-28.66a257 257 0 0 0-16.6 32.58l.19.72q-19.32 4.83-38.68 9.58c-3.66.89-7.38 1.84-10.56 3.88-3.79 2.42-6.43 6.24-9 9.93q-7.92 11.49-15.87 23c-1.46 2.13-3 4.3-4.36 6.52l-.15-.09c4.26-11.93-.23-25.57 3.56-37.66 3.34-10.6 12.34-18.17 19.34-26.75 9.13-11.2 15.17-24.63 24-36 17.17-22 43.48-34.7 68.8-46.6a15.3 15.3 0 0 1 6.17-1.87 10.26 10.26 0 0 1 6.71 2.76 16.48 16.48 0 0 1 5.48 10.06c1.24 7-1.09 15.11-5.48 21-6.83 9.13-17.2 14.79-26 22a85.25 85.25 0 0 0-7.55 6.94Z"/><path fill="#ffe4ce" d="m1118.92 1296.72 1.11.13a316 316 0 0 0-2.29 31.72l11.36.38q11.51.33 23 .73a51 51 0 0 1 8.81.83 17.38 17.38 0 0 1 7.63 3.27c3.12 2.48 4.87 6.11 5.76 10a34.61 34.61 0 0 1 .7 8.43c-.06 2.8-.38 5.7-1.81 8.09-2 3.33-5.7 5.12-9.26 6.64a193.93 193.93 0 0 1-42.91 12.73l.28 1.72c1.82 5.37 2.39 11 3.76 16.54 2 8 5.66 15.61 9.29 23.09 2.22 4.58 4.51 9.29 8.33 12.79 3.56 3.27 8.21 5.22 12.5 7.54 8 4.32 15.52 10.59 18.29 19.08a20.16 20.16 0 0 1-.06 12.41c-1.5 4.48-4.65 8.11-9.32 9a11.67 11.67 0 0 1-2.39.26c-7.25 0-16.79-3.85-25.79-7.86-6.11-2.74-12-5.53-16.67-7.22-5-1.78-10.18-3.63-14.26-7-3.18-2.61-5.53-6-7.82-9.42l-18-26.37c-2.8-4.1-5.73-8.52-5.79-13.42-.1-5.95 3.94-11.71 2.45-17.47l1.17-.89c-3.08-4-6.13-8.11-9.19-12.18-2-2.61-4-5.25-6-7.86a37.89 37.89 0 0 1-5.34-8.62c-3.53-9 1.59-16.92 1.08-25.63-.54-9.61-6-18.23-5.6-28.09.35-7.95 4-15.21 8.3-22 1.4-2.22 2.9-4.39 4.36-6.52q8-11.49 15.87-23c2.58-3.69 5.22-7.51 9-9.93 3.18-2 6.9-3 10.56-3.88q19.32-4.77 38.68-9.58l16.22-4c.32-.07.61-.16.93-.22 5-1.25 10.62-2.42 15.1.19a14.15 14.15 0 0 1 5.38 6.26c4.23 8.72 2.64 19.5-2.48 27.74s-13.33 14.13-22.11 18.2c-2.58 1.17-6.46 2.54-10.72 4-7.76 2.65-16.76 5.6-21.06 8.5-.32.32-.7.61-1.05.89Z"/><path fill="#ffe4ce" d="M1046.52 1394.19a69.15 69.15 0 0 0 21.19-13.81l.09-.06c3.06 4.07 6.11 8.15 9.19 12.18l-1.17.89c1.49 5.76-2.55 11.52-2.45 17.47.06 4.9 3 9.32 5.79 13.42l18 26.37c2.29 3.37 4.64 6.81 7.82 9.42 4.08 3.4 9.23 5.25 14.26 7 4.7 1.69 10.56 4.48 16.67 7.22l-.1.8c-34 35-61.39 59.32-84.42 76.5-33.69 25.16-58.15 35.09-80.83 40.75-17.31 4.32-52.87 9.41-80.83-3.22-32.73-14.79-24.85-42.94-30.06-72.43-6.11-34.51 1.24-76 6-107.61q9.93-65.8 16.83-132l.16-.48c38.87 13.55 122.78 30.16 160.13 26.69l5.28.35c-.13 2.07-.26 4.13-.38 6.2-1.63 26.5-2.29 52.71-1.69 83Zm626.69-2.9c5.25-6.48 10.53-13 15.81-19.49a37.71 37.71 0 0 0 5.63-8.43c3.85-8.88-1-17-.19-25.67.89-9.58 6.68-18 6.58-27.9a27.79 27.79 0 0 0-.7-6.11l1.78-.38c37.86 3.5 123.46-13.58 161.66-27.23l4.26.19c3.92 32.45 8.43 71.42 11.71 108.19 4.2 39.66 11.9 79.9 9.16 119.7-.92 13.2-11.93 54.39-17 66.64-22 53.63-76.86 28.12-124.79 20.2a146.18 146.18 0 0 1-52.2-19.09c-50.87-30.6-71.93-84.93-83.41-100.07l-.32-.73c6.3-2.58 12.35-5.22 17.18-6.71 5.09-1.63 10.31-3.31 14.48-6.56 3.27-2.51 5.72-5.85 8.14-9.16q9.45-12.84 18.89-25.73c2.93-4 6-8.3 6.24-13.2.31-5.92-3.53-11.84-1.82-17.53Z"/><path fill="#fff" d="M1634.46 1292.62c.74 6.43 2.65 26.56 2.9 33.34h-4.42v-.26c-1.72-13.51-7-36.23-7-36.23l.38-.89a39.1 39.1 0 0 1 8.14 4.04ZM1316.84 1588c14.79.25 32.73-8 32.73-8a310 310 0 0 0 55.54-1.81 416.5 416.5 0 0 0 57.17-10.91s26 1.21 40.17-4.33l.38.67c-38.07 21.12-82.13 32.64-129.53 31.81a260.13 260.13 0 0 1-56.52-7.19Zm252.25-420.07c6.21 8.9 15.69 14.76 23.93 21.79l-.23.25a257.7 257.7 0 0 1 22.56 40.62l-.26.89q-7.59-2.19-15.17-4.32a43.07 43.07 0 0 0-7.29-1.59c-11.54-31.85-43.26-68.17-43.26-68.17.13-8 .61-15.75-15.26-28.22l.41-.57a262.24 262.24 0 0 1 29.49 26.05h.06a29.52 29.52 0 0 0 5.02 13.27Z"/><path fill="#5c5e58" d="M1632.94 1325.7v.26c-10.88 0-21.73 0-32.61-.06-5.75 0-11.93.12-16.57 3.52-5.44 4-7.06 11.49-7.09 18.27a23.19 23.19 0 0 0 .28 4.42l-7.35 1.14c-2.13-13.33-5-22.58-7.25-36.17 10.15-10.43 28.73-43.86 28.73-43.86l.38-.48a60.27 60.27 0 0 0 10.75 6.93c5.06 2.58 15.94 5.63 24.11 8.91l-.38.89s5.28 22.72 7 36.23Zm-3.25 51.3-.38 1.75c-2 5.28-2.77 10.94-4.32 16.38-2.29 8-6.21 15.4-10.09 22.78-.32.57-.6 1.17-.92 1.75-6.65 2.35-32.67 5.47-41.9 2.45 1.31-35-.12-54.3-2.48-68.81l7.35-1.14a11.83 11.83 0 0 0 1.24 3.72c1.88 3.37 5.5 5.31 9 6.93a192 192 0 0 0 42.5 14.19Z"/><path fill="#fff" d="M1614 1419.61c-2.13 3.94-4.42 7.82-7.83 10.72-3.69 3.18-8.39 4.93-12.78 7.12-8.15 4-15.88 10.06-19 18.42-3.31 9.07.54 21.69 11 22.11a33.69 33.69 0 0 0 9-1.12l.06.26a256.41 256.41 0 0 1-91.68 86.49l-.38-.67c-14.22 5.54-40.17 4.33-40.17 4.33l28.37-65c23-13.77 81.43-80.25 81.43-80.25 9.29 3.06 35.31-.02 41.98-2.41Zm-21.37-194.04a13.13 13.13 0 0 0-7.82 1.24 14.62 14.62 0 0 0-5.6 6.1c-4.52 8.56-3.31 19.38 1.53 27.77a41.65 41.65 0 0 0 10.72 12.06l-.38.48s-18.58 33.43-28.73 43.86l-99.28-34.1-47.68-104.91 45.27-58.21c7.66 2.71 53.78 12.5 88.71 37.54 0 0 31.72 36.32 43.26 68.17Z"/><path fill="#fff" d="M1569.6 1353.25c2.36 14.51 3.79 33.81 2.48 68.81 0 0-58.46 66.48-81.43 80.25a324.94 324.94 0 0 1-97.85-29.31l-13.67-114.07 83.94-75.9 99.28 34.1c2.23 13.54 5.12 22.79 7.25 36.12Z"/><path fill="#5c5e58" d="M1534.11 1129.18c15.87 12.47 15.39 20.2 15.26 28.22-34.93-25-81-34.83-88.71-37.54-37.38-32.16-60.76-37.38-60.76-37.38s16.41-1 26.08-1.49l.1-.48a258.2 258.2 0 0 1 108.44 48.1Zm-43.46 373.13-28.37 65a416.5 416.5 0 0 1-57.17 10.91 310 310 0 0 1-55.54 1.81l-43.8-56.68c28-10.79 57.26-29 87-50.36a324.94 324.94 0 0 0 97.88 29.32Zm-75.26-324.23 47.68 104.9-83.94 75.9-99.6-58.05 22.42-111.72 113.44-11.03z"/><path fill="#fff" d="m1460.66 1119.86-45.27 58.21-113.43 11-59.71-43.17c13.83-19.69 21.44-31.11 50.13-55.06l-.16-.41a261.12 261.12 0 0 1 133.86-10l-.1.48c-9.67.48-26.08 1.49-26.08 1.49s23.38 5.3 60.76 37.46Zm-81.53 239.02L1392.8 1473c-29.77 21.35-59 39.57-87 50.36 0 0-55.6-19-97.4-55.92-14.38-36.68-15.24-109.56-15.24-109.56l86.4-57Z"/><path fill="#fff" d="m1305.77 1523.31 43.8 56.68s-17.94 8.27-32.73 8l-.06.22a259.88 259.88 0 0 1-152.4-104.49l-.32-1.82c4.67-.92 7.82-4.55 9.32-9l1 .35s26.65-4.71 34-5.85c41.79 36.95 97.39 55.91 97.39 55.91Zm-3.77-334.2-22.43 111.72-86.4 57s-16.09-11.45-18.64-14.06l-.22.06c-.89-3.94-2.64-7.57-5.76-10a17.38 17.38 0 0 0-7.63-3.27v-.16c-8-4.93-21.44-24.15-21.44-24.15.22-6.17.8-12.46 1.65-18.73v-.07c4.26-1.46 8.14-2.83 10.72-4 8.78-4.07 17-10 22.11-18.2s6.71-19 2.48-27.74a14.15 14.15 0 0 0-5.38-6.26c-4.48-2.61-10.08-1.44-15.1-.19-.32.06-.61.15-.93.22l-.16-.58c5.44-16.47 10.21-27.51 10.21-27.51s42.85-42.34 77.21-57.2Z"/><path fill="#5c5e58" d="m1292.22 1090.47.16.41c-28.69 23.95-36.3 35.37-50.13 55.06-34.36 14.86-77.21 57.2-77.21 57.2l-2.29-8.24c8.82-7.22 19.19-12.88 26-22 4.39-5.85 6.72-14 5.48-21h.09a259.58 259.58 0 0 1 97.9-61.43Zm-99.09 267.36s.86 72.88 15.24 109.56c-7.32 1.14-34 5.85-34 5.85l-1-.35a20.16 20.16 0 0 0 .06-12.41c-2.77-8.49-10.27-14.76-18.29-19.08-4.29-2.32-8.94-4.27-12.5-7.54-3.82-3.5-6.11-8.21-8.33-12.79-3.63-7.48-7.29-15-9.29-23.09-1.37-5.51-1.94-11.17-3.76-16.54l-.28-1.72a193.93 193.93 0 0 0 42.92-12.72c3.56-1.52 7.28-3.31 9.26-6.64 1.43-2.39 1.75-5.29 1.81-8.09a34.61 34.61 0 0 0-.7-8.43l.22-.06c2.51 2.6 18.64 14.05 18.64 14.05Z"/><path fill="#fff" d="m1162.75 1194.9 2.29 8.24s-4.77 11-10.21 27.51l.16.58-16.22 4-.19-.72a257 257 0 0 1 16.6-32.58 85.25 85.25 0 0 1 7.57-7.03Z"/><path fill="#5c5e58" d="M1160.91 1330.35v.16a51 51 0 0 0-8.81-.83q-11.46-.39-23-.73v-.1l10.37-22.65s13.53 19.22 21.44 24.15Z"/><path fill="#fff" d="M1141.09 1287.4v.07c-.85 6.27-1.43 12.56-1.65 18.73l-10.37 22.65v.1l-11.36-.38a316 316 0 0 1 2.29-31.72l-1.11-.13c.35-.28.73-.57 1.11-.82 4.33-2.9 13.33-5.85 21.09-8.5Z"/><path fill="#de9284" fill-rule="evenodd" d="M1140.56 328.31c0-10.7 19.47-6.81 35-24.33 18.49-21.41 31.15-54.51 56.45-75.92 30.18-26.28 48.67-18.5 78.85-18.5 27.25 0 48.66-18.49 90.52-22.38 41.85-2.92 70.08 6.81 99.28 22.38 31.14 16.55 49.64 60.35 88.57 75.93 21.42 7.78-6.81 13.62-6.81 13.62l13.66 40.89s5.85 35 3.9 63.27-27.26 105.12-35 108c-8.76 3.9-50.61 23.36-50.61 23.36s-115.83-24.33-152.82-24.33c-23.36 0-71 8.76-116.8 11.68-19.47 1-42.83-8.76-56.46-15.58-12.65-5.84-31.14-62.29-32.12-103.17s7.79-68.13 7.79-68.13-23.4 4.9-23.4-6.79Z"/><path fill="#ffe4ce" fill-rule="evenodd" d="M1252.32 817.76c-14-39.24 6.47-61.48 19-65.21a369.69 369.69 0 0 0 .64-50.47 160.24 160.24 0 0 1-28.23-44.78C1233 631 1224.27 594 1224.27 594s-38-4.87-47.7-44.78c-11.68-43.8 24.34-49.64 24.34-49.64l13.62 1.95s28.23 31.15 26.29 11.68c-1-5.84-6.82-18.49-2.92-44.77 1.94-10.71 2.92-14.6 2.92-14.6s33.09 0 61.32-16.55 50.61-49.64 50.61-49.64 3.89 23.36-5.84 50.61-32.12 58.4-31.15 62.3c1 2.92 30.18-9.74 53.54-28.23 16.54-13.63 30.17-34.07 30.17-34.07l-4.87 31.15-4.86 16.59s20.44-8.76 34.06-27.25c12.66-18.49 4.87-40.88 16.55-45.75 12.65-5.84 15.57 12.66 32.12 24.34 20.44 13.62 42.83 15.57 42.83 17.52 6.81 37-6.82 61.32-1 63.27 10.7 4.86 28.22-22.39 28.22-22.39s27.26-2.92 35 21.41c2 6.81 1 19.47-1 32.12C1571.75 573.6 1528 594 1528 594s-4.87 29.2-16.54 57.42-30.23 54.58-30.23 54.58a415.33 415.33 0 0 0-2 46.11c29 9 37.91 34.13 20.86 72.06s-63.58 86.1-121 86.63c-64.24.56-112.79-53.8-126.77-93.04Z"/><path fill="#571519" d="M1378.06 756.88q-.6 0-1.2-.09c-.45 0-.9-.09-1.34-.13a5.57 5.57 0 0 1-1.13-.15 114.56 114.56 0 0 1-13.44-3c-16.54-4.8-32.1-12.67-46.61-21.87-18.44-11.69-35.65-25.62-48-43.83-8.6-12.7-15.08-27.15-20.35-41.52-9-24.49-14.45-50.22-19.27-75.81-1.08-5.78-9.91-3.33-8.82 2.44 4.43 23.52 9.45 47.07 17.14 69.77 5.36 15.82 12.09 31.92 21 46.1 11.65 18.48 27.63 33 45.52 45.37 16.15 11.13 33.69 20.65 52.37 26.77 7.65 2.5 16 4.88 24.1 5.15 5.89.19 5.88-9 0-9.15Zm-14.15-239.49c2.65 10.69 6.56 23.9 2.1 34.68-2.82 6.82-10 9.81-13.61 16-8.26 13.92 6.18 29.17 17.51 35.79 5.09 3 9.7-4.93 4.62-7.9a39.18 39.18 0 0 1-11.94-10.57c-2-2.83-3.83-6.41-3.29-10 .41-2.73 2.38-4.57 4.33-6.34 5.94-5.42 10.83-10.84 12.49-19 2.37-11.66-.58-23.72-3.39-35-1.41-5.71-10.23-3.29-8.82 2.44Z"/><path fill="#571519" fill-rule="evenodd" d="M1286.56 532.72c0-10.71 5.84-19.47 13.63-20.45 7.79 0 14.6 7.79 14.6 19.47s-5.84 15.12-13.63 16.09c-6.81 0-13.63-4.41-14.6-15.11Z"/><path fill="#571519" d="M1217.7 499.1c-10.35-2.24-22.18-3-31.5 3-7.09 4.54-11.37 12.08-13.14 20.18-4.28 19.53 1.68 41 14.43 56.16 9.59 11.39 23 18.84 37.51 22 5.74 1.24 8.19-7.57 2.43-8.82-21.23-4.62-38.76-19.62-44.43-40.94-3.17-11.87-4.33-29.41 5.36-38.74 7.07-6.8 18.1-5.92 26.92-4 5.74 1.24 8.19-7.58 2.43-8.83Zm119.84-37.5c-21.11-10.91-48.67-10.23-68.86 2.92-4.92 3.21-.34 11.13 4.62 7.91 17.41-11.35 41.32-12.39 59.62-2.93 5.22 2.71 9.86-5.19 4.62-7.9Zm204.28 40.49c8.4-1.4 18.31-1.73 25.54 3.54 5.25 3.82 7.8 10.12 8.74 16.36 2.44 16.23-3.44 34.56-14.31 46.64-8.53 9.48-19.74 15.4-32.13 18.08-5.76 1.24-3.32 10.06 2.43 8.82 24.4-5.27 44.64-23.32 51-47.74 4.09-15.84 5-37.08-9-48.52-9.76-7.95-22.8-8-34.63-6-5.8 1-3.34 9.79 2.43 8.83Z"/><path fill="#571519" d="M1200.55 538.61a15.29 15.29 0 0 1 2.38 1.53l-.93-.72a29.19 29.19 0 0 1 5 5.19l-.72-.93a40.33 40.33 0 0 1 3.34 5 4.58 4.58 0 1 0 7.9-4.62c-.62-1.11-1.33-2.18-2.06-3.23a40.55 40.55 0 0 0-5.74-6.8 21.11 21.11 0 0 0-4.55-3.29 4.85 4.85 0 0 0-3.52-.46 4.69 4.69 0 0 0-2.74 2.1c-1.1 2.09-.63 5.11 1.65 6.26Zm353.32-10.82a24 24 0 0 0-7.08 5.93 51.81 51.81 0 0 0-4.58 6.24c-.24.38-.47.76-.69 1.15a4.82 4.82 0 0 0-.46 3.53 4.58 4.58 0 0 0 8.36 1.09 40.33 40.33 0 0 1 3.34-5l-.72.93a29.91 29.91 0 0 1 5-5.19l-.92.72a14.84 14.84 0 0 1 2.38-1.53 4.58 4.58 0 0 0 1.64-6.26 4.69 4.69 0 0 0-6.26-1.64Zm-274.73-.86c5.19-3.94 12-5.62 18.62-6.19 7.45-.63 15.29 0 21.53 4.25a4.58 4.58 0 0 0 4.62-7.9c-7.52-5.07-17.3-6.25-26.15-5.5-7.91.68-16.79 2.54-23.24 7.44-2 1.49-3 4-1.64 6.26 1.13 1.94 4.28 3.15 6.26 1.64Z"/><path fill="#fff" fill-rule="evenodd" d="M1378.06 641.73a506.17 506.17 0 0 0-50.62 2.92s9.74 38.93 48.67 40.88c37 1 51.59-39.91 51.59-39.91a358.26 358.26 0 0 0-49.64-3.89Z"/><path fill="#571519" d="M1378.06 637.16a450.78 450.78 0 0 0-50.62 2.92c-3 .33-5.2 2.65-4.41 5.79 4 15.67 15.51 30.76 29.84 38.15 12.6 6.5 28 8.12 41.39 3.2 11.47-4.2 20.68-12.27 27.83-22a73.93 73.93 0 0 0 10-18.36c.77-2.15-.88-5.26-3.2-5.63a331.85 331.85 0 0 0-50.85-4.05c-5.89 0-5.9 9.13 0 9.15a315.36 315.36 0 0 1 48.42 3.72l-3.19-5.62a4.55 4.55 0 0 1-.38 1c-.71 1 .07-.15-.13.32s-.52 1.17-.8 1.75a78.7 78.7 0 0 1-5.18 9.34c-5.28 8.17-12.26 15.39-21 19.85-21 10.76-45.62.45-57.43-18.67a49.12 49.12 0 0 1-6.53-14.54l-4.41 5.8a450.78 450.78 0 0 1 50.62-2.92c5.91-.07 5.97-9.22.03-9.2ZM1379 766c5.8.18 12-1.38 17.48-2.92 16.61-4.63 32.25-12.8 46.7-22.09 19.58-12.59 37.53-27.52 51.79-46a169 169 0 0 0 23.8-43.39c9.7-25.34 15.37-52.15 20.38-78.75 1.08-5.76-7.74-8.23-8.83-2.44-7.26 38.62-15.33 80.06-38.11 113-12.2 17.61-28.08 32.16-45.61 44.35-14.82 10.32-30.81 19.61-48.07 25.2a90.61 90.61 0 0 1-15.15 3.65h-.29l-1.15.12-1.57.12H1379c-5.89-.19-5.88 9 0 9.15Z"/><path fill="#571519" fill-rule="evenodd" d="M1460.79 532.72c0-10.71-5.84-19.47-13.62-20.45s-14.61 7.79-14.61 19.47 5.84 15.12 13.63 16.09c7.81-.97 13.63-4.41 14.6-15.11Z"/><path fill="#571519" d="M1411.51 469.5c18.3-9.46 42.21-8.42 59.63 2.93 4.94 3.22 9.53-4.7 4.61-7.91-20.18-13.15-47.75-13.83-68.85-2.92-5.24 2.71-.61 10.61 4.61 7.9Zm62.3 49.5c-6.5-4.94-15.28-7-23.24-7.8-8.89-.89-18.83.37-26.15 5.86-2 1.47-3 3.95-1.65 6.25 1.14 1.95 4.27 3.14 6.26 1.65 6.2-4.64 14-5.37 21.54-4.61 6.64.66 13.38 2.57 18.62 6.55 2 1.5 5.12.31 6.26-1.64 1.37-2.35.33-4.76-1.64-6.26Zm.29-137.81c30.55 35.81 45.9 84.62 38.75 130.81a85.91 85.91 0 0 1-2 9.78c-1.1 3.91 3.27 7.07 6.72 5.16 6.43-3.56 12.14-9.12 17-14.58 12.33-14 20.49-31.21 24.66-49.3a163.4 163.4 0 0 0 3.46-46.16c-.34-5.86-9.49-5.89-9.15 0 2.07 35.88-6.45 75.05-35.56 98.7-1.12.91.13-.08-.59.46l-1 .74c-.6.44-1.2.86-1.82 1.26s-1 .68-1.58 1l6.72 5.17c2.84-10.14 3.67-21.15 3.89-31.62a173 173 0 0 0-13.68-71 181.71 181.71 0 0 0-29.35-46.86c-3.82-4.49-10.27 2-6.47 6.47Zm-219.72 32.42c-20.39 29.59-26.11 67.19-16.63 101.75a70.1 70.1 0 0 0 2.55 7.87l5.62-5.63a27.76 27.76 0 0 1-4-1.23l-1-.37c-1-.39.54.25-.26-.11s-1.56-.71-2.33-1.1a50.78 50.78 0 0 1-5.3-3.08c-9.58-6.37-16.8-16.75-20.54-28-3.52-10.58-4.47-21.69-4.18-32.79.16-5.89-9-5.88-9.15 0-.78 29.39 9.38 61.51 38.59 73.57a32.36 32.36 0 0 0 5.65 1.9c3 .63 7.06-2.13 5.63-5.63-4.08-10-5.88-21.31-6.5-32a111.93 111.93 0 0 1 19.67-70.55c3.35-4.86-4.58-9.44-7.91-4.61Zm-93.44-58.41c-18.36 38.24-8.09 83.5 6.56 121.19 3.88 10 8.23 19.8 12.91 29.44 2.57 5.29 10.47.66 7.9-4.62-10.5-21.62-19.36-44.24-24.35-67.8-5.13-24.22-6.08-50.76 4.88-73.59 2.54-5.28-5.35-9.93-7.9-4.62Zm423.92-27.62c18.07 47.51 9.32 101.25-8.1 147.64a242.07 242.07 0 0 1-9.93 23.07c-2.62 5.25 5.27 9.89 7.9 4.61a288.39 288.39 0 0 0 19.51-51.9c7-25.57 11-52.43 9.27-79a160.45 160.45 0 0 0-9.83-46.88c-2.07-5.45-10.92-3.08-8.82 2.43Zm-244.45-110.89c16.86-13.44 38.21-21 59.38-24.13a137 137 0 0 1 120.89 43.14c11.07 12 20.93 24.71 34 34.66 9 6.88 18.68 13.24 29.14 17.76 3.49 1.51 7.25 3.19 11.06 3.72l-2.73-2.1c.7.95 0 0 0-.6 0-1-.41.21 0-.28a12.12 12.12 0 0 1-1.79 2 24.12 24.12 0 0 1-9 4.22c-11.21 3.11-23.22.95-33.64-3.8-5.32-2.43-10 5.46-4.62 7.9 13.13 6 28.3 8.8 42.34 4.23 6.3-2 18.07-7.78 15.46-16.38-1.45-4.79-8.55-5.13-12.53-6.8-11.94-5-23.37-12.66-33.19-21-16.36-13.92-28-32.39-44.93-45.81a146.66 146.66 0 0 0-84.16-31.28c-32.45-1.37-66.6 7.68-92.21 28.1-4.6 3.67 1.91 10.11 6.47 6.47Zm-30.24-9.59a90.33 90.33 0 0 0-63.06 5.81c-19.15 9.15-32.88 24.17-44.31 41.65-11.88 18.18-23.5 37.63-40.08 52-6.21 5.37-13.09 9.5-20 13.8-4.59 2.84-7.6 6.86-4.42 12.28 4 6.72 13.92 7.93 20.9 7.82a56.38 56.38 0 0 0 32.38-11.09c4.67-3.48.11-11.42-4.62-7.91a48.36 48.36 0 0 1-24.94 9.72 34 34 0 0 1-10.32-.55 16.67 16.67 0 0 1-3.38-1.09c-.73-.35-2-1.25-1.86-1.14-.72-.86-.39-.55-.31-1a12.75 12.75 0 0 1-.71 2.11c-.4 1.21-.12-.12-.05.1-.07-.23.63-.46.24-.2 2-1.27 4-2.45 6-3.66a124.47 124.47 0 0 0 20.37-15.27c14.55-13.51 25.35-30.92 36.15-47.42 4.7-7.17 9.19-14.45 15-20.83a92.64 92.64 0 0 1 22.08-18 81.28 81.28 0 0 1 62.51-8.33c5.69 1.56 8.12-7.26 2.44-8.82Zm93.49 200.05c0 .66-.33 3-.17 1.87a78.48 78.48 0 0 1-1.56 8 97.34 97.34 0 0 1-10.17 25.29c-13 22.6-35.63 41.76-60.38 50.15a78.23 78.23 0 0 1-12.51 3.16c-.83.13-1.34.07-2.83.31a7.43 7.43 0 0 1-1.25.06l4 6.88a307.91 307.91 0 0 0 23-39.53c5.31-10.84 10.1-22.1 13.07-33.83a152.14 152.14 0 0 0 4.38-40.61 133.3 133.3 0 0 0-2-21.93c-1.1-5.77-9.92-3.33-8.82 2.44 3.22 16.88 2.35 36.82-1.49 54.05-4.86 21.85-15.75 42.19-27.29 61.18-2.8 4.6-5.66 9.18-8.72 13.62-2 2.91.67 6.89 4 6.88 5.31 0 10.83-1.35 15.88-2.86 13-3.87 25.14-10.6 35.91-18.85 20.37-15.6 36.38-36 43.38-60.94a72.31 72.31 0 0 0 2.85-15.37c.31-5.88-8.85-5.86-9.15 0Z"/><path fill="#571519" d="M1429.12 333.42c7.92 23.89 10.11 51.25 6.67 76.07-3.64 26.33-16.54 50.1-37.91 66.18a73.23 73.23 0 0 1-13.37 8.32q3.12 3.13 6.26 6.26c10.09-17.62 16.4-38.9 16.57-59.19 0-5.89-9.11-5.89-9.15 0-.16 18.7-6 38.33-15.32 54.57-2.44 4.25 2.28 8.07 6.26 6.26 14.23-6.48 26.7-18.49 35.91-30.84 21.21-28.44 24-65.71 19.37-99.85-1.38-10.14-3.23-20.46-6.46-30.21-1.84-5.56-10.68-3.18-8.83 2.43Zm-79.76 48.94c-8.92 35.33-44.3 57.18-78 64.58a98.36 98.36 0 0 1-25.71 2.36c-5.88-.28-5.87 8.87 0 9.15 17.58.84 35.42-3.41 51.55-10.19 17.84-7.51 34.52-18.71 46.46-34.12a79.76 79.76 0 0 0 14.49-29.35c1.44-5.71-7.38-8.15-8.82-2.43Z"/><path fill="#571519" d="M1438.35 409.46c2.07 4.81 5.49 9.2 8.79 13.2 8.51 10.33 19.5 18.65 31.29 24.89a141.84 141.84 0 0 0 30.78 11.71c5.71 1.47 8.14-7.35 2.44-8.82-24.5-6.34-49.88-19.78-63.07-41.31a33.56 33.56 0 0 1-2.33-4.29c-2.33-5.39-10.21-.73-7.9 4.62Zm-172.91 290.67c.72 9.39 1.06 18.82 1.21 28.24.26 16 .31 32.63-3 48.41-1.2 5.75 7.61 8.2 8.82 2.43 3.41-16.29 3.57-33.3 3.33-49.89-.13-9.73-.48-19.48-1.22-29.19-.44-5.83-9.6-5.88-9.15 0ZM1478.6 705c-.74 9.7-1.08 19.46-1.22 29.19-.24 16.58-.08 33.59 3.33 49.89 1.21 5.76 10 3.32 8.83-2.43-3.3-15.79-3.25-32.36-3-48.42.16-9.41.5-18.84 1.21-28.23.45-5.88-8.7-5.85-9.15 0Zm-478.8 364.08 27.11 65.37c4.39 10.59 8.81 21.18 13.17 31.78 4.05 9.82 8.15 20 9.38 30.61 1.3 11.29-.4 22.77-1.49 34q-1.59 16.26-3.07 32.51c-1.81 20.22-3.38 40.45-4.35 60.73-1.11 23.11-1.38 46.26-.94 69.4.11 5.88 9.26 5.9 9.15 0-.78-41.23 1.13-82.33 4.7-123.41q1.38-15.94 3-31.9c1.11-11.5 2.84-23.14 2.61-34.71-.44-22.24-11.48-43-19.83-63.1l-30.57-73.72c-2.22-5.36-11.08-3-8.82 2.44Zm710.8 5.43q-7.68 13.73-15.37 27.45c-3.52 6.3-8 12.58-10.38 19.43-2.79 8-3 17.14-3.42 25.51-1.06 23.47.13 47 1.1 70.49.33 7.88 1.06 15.94.61 23.83-.33 5.88 8.82 5.86 9.15 0 .37-6.5-.17-13.12-.44-19.61-.45-11.06-.93-22.11-1.24-33.16-.34-11.76-.54-23.53-.24-35.29.22-8.77.38-17.85 2.45-26.38.21-.86.44-1.73.72-2.57l.33-1c.42-1.12-.2.35.18-.41 2.09-4.2 4.6-8.25 6.89-12.35l17.56-31.37c2.88-5.15-5-9.77-7.9-4.62Z"/><path fill="#571519" d="M1062.73 1289.83c3.53-10.66 1-21.63 2.44-32.51 1.4-10.46 8.69-17.84 15.41-25.37 14.54-16.31 22.54-37.23 38.72-52.2 15.18-14 34.08-23.34 52.61-32.1 4.62-2.19 9.13-5.33 13.24-.57 2.68 3.09 3.36 7.3 3 11.27-.86 9.53-7.59 16.49-14.75 22.13-9.09 7.17-18.63 13.28-26.28 22.13a95.2 95.2 0 0 0-17.3 29.54c-2 5.54 6.8 7.92 8.82 2.43a83.6 83.6 0 0 1 17.86-28.7c7.7-8.07 17.28-13.67 25.73-20.86 7.9-6.72 13.83-15.15 15-25.66 1-9.21-2.93-19.78-12.15-23.3-6-2.28-11.31.64-16.64 3.16-5.06 2.39-10.11 4.8-15.1 7.34a203.93 203.93 0 0 0-29.18 17.46 114 114 0 0 0-23.66 22.98c-7.48 9.92-13 21.16-20.32 31.17s-17.29 17.71-21.89 29.38c-5.06 12.86-.1 27-4.38 39.89-1.85 5.6 7 8 8.82 2.43Z"/><path fill="#571519" d="m1081.86 1394.41-12.94-17.16c-3.71-4.91-9.24-10.37-10.58-16.56-1.26-5.78 1.27-11.85 1.88-17.58.65-6-.91-11.93-2.64-17.68s-3.59-11.69-2.47-17.87 4.14-11.56 7.42-16.71c3.62-5.66 7.56-11.12 11.38-16.63s7.43-11.5 11.71-16.74 9.74-6.64 16.09-8.21L1123 1244l21.3-5.26c6-1.49 13.08-4.43 19.34-3.91 6 .5 8.38 7.29 8.74 12.48a27.58 27.58 0 0 1-4.89 17.19c-5.82 8.68-15.49 14.19-25.14 17.61s-21.23 5.7-29.11 12.48c-9.17 7.89-6.44 20.08-6.68 30.72-.13 5.9 9 5.89 9.15 0 .12-5.43-.78-11-.12-16.42.58-4.74 3.31-7.76 7.47-9.9 9-4.61 19.09-6.56 28.3-10.62 11.16-4.9 21.9-13.19 27-24.57 4.86-11 5.16-27.64-5.79-35.3-5.3-3.7-11.91-3.08-17.88-1.73-7.72 1.75-15.38 3.79-23.06 5.69l-23.5 5.81c-6.76 1.67-14.16 2.77-20.47 5.86-6.1 3-9.92 8.57-13.67 14l-13.37 19.33c-7.43 10.74-15.93 22.66-14.91 36.43.55 7.36 3.57 14 5 21.2 1.54 7.53-1.62 14.41-1.8 21.88-.21 8.31 4.22 14.45 9 20.77L1074 1399c3.5 4.64 11.45.08 7.9-4.62Z"/><path fill="#571519" d="M1069.59 1395.21c.83 4.18-1.64 8.57-2.29 12.66a21.88 21.88 0 0 0 2.75 14c2.4 4.5 5.61 8.63 8.47 12.83l10.28 15.07c5.72 8.39 10.88 15.59 20.5 19.7 7.68 3.29 15.44 6.26 23.08 9.66 12.25 5.45 32.82 15.35 41.81-.33 9.2-16-3.78-32.44-17.49-40.19-4.56-2.58-9.84-4.46-13.54-8.3-3.91-4-6.12-9.71-8.5-14.71a100.84 100.84 0 0 1-6.67-16.92c-1.6-5.91-2.26-12-4.11-17.87-1.77-5.6-10.6-3.21-8.82 2.43 3 9.43 4 19.08 7.79 28.3 3.37 8.08 6.92 17 12.57 23.81 9.35 11.21 32.66 13.64 32.6 31.86 0 5.32-2.67 10.94-8.59 11-6.89.06-14.13-3.35-20.31-6-6.83-3-13.5-6.31-20.5-8.87a52.19 52.19 0 0 1-10.71-4.78c-3.7-2.4-6.19-6-8.64-9.59-6.48-9.45-13.15-18.82-19.37-28.45-2.94-4.54-4.41-8.34-3-13.7 1.25-4.78 2.51-9 1.53-14-1.14-5.77-10-3.33-8.83 2.44Z"/><path fill="#571519" d="M1081.57 1387.79a203.26 203.26 0 0 0 47.8-4.86 194.54 194.54 0 0 0 23.52-6.83c6.44-2.31 14.35-4.56 19.5-9.29 8.95-8.24 6.71-27.63-2.05-35.31-5.26-4.62-12.18-5.47-18.91-5.76-8.22-.34-16.45-.54-24.68-.81-9.13-.3-18.57-1.28-27.67-.28s-17.42 4.73-25.67 8.57c-5.34 2.49-.69 10.38 4.62 7.9 6.06-2.83 12.2-5.65 18.81-6.94 6.88-1.34 14.13-.62 21.09-.39l21.32.7c6.23.2 12.94-.24 19 1.1 5.61 1.23 8.68 4.86 9.81 10.39 1 4.91 1.45 11.83-3.1 15-5.1 3.59-12 5.45-17.86 7.43a197.33 197.33 0 0 1-19.53 5.53 193.28 193.28 0 0 1-46 4.69c-5.89-.1-5.89 9 0 9.14Zm-18.89-10.05a68.89 68.89 0 0 1-39.48 17.88c-13.81 1.56-27.72.18-41.52-.84-11.91-.88-23.76-1.39-35.6.49a132.31 132.31 0 0 0-33.52 10.14c-13 5.86-25.18 14.3-33.13 26.34-3.25 4.92 4.67 9.51 7.9 4.61 12.95-19.6 39.36-28.88 61.57-32.33 25.34-3.94 51 3.78 76.48.47a78.26 78.26 0 0 0 43.77-20.29c4.33-4-2.15-10.47-6.47-6.47Zm633.6-90.91c-3.42-11.67.65-24-1.82-35.86-2.24-10.74-9.89-19-16.66-27.14-7.86-9.49-13.23-20.5-19.51-31a110.92 110.92 0 0 0-21.45-26.21 172.18 172.18 0 0 0-27.52-19.59c-4.83-2.85-9.75-5.54-14.71-8.16s-10.24-6.1-15.68-7.77c-10.36-3.2-19.33 6.43-21 15.93-1.72 9.88 1.75 19.56 8 27.19 7.88 9.71 19.18 15.85 27.9 24.72a83.63 83.63 0 0 1 19.73 32.5c1.83 5.56 10.66 3.18 8.82-2.44a93.46 93.46 0 0 0-14.1-27.21c-6.28-8.33-13.84-14.88-22-21.28-7.36-5.76-15.68-12.13-18.52-21.46a21.09 21.09 0 0 1-.53-11.49c1.09-4.08 4.57-8.89 9.32-7.64 2.36.62 4.73 2.29 6.89 3.41s4.41 2.28 6.61 3.45c4.77 2.51 9.51 5.1 14.17 7.83a165.16 165.16 0 0 1 25.29 17.67 101.92 101.92 0 0 1 20.23 24c5.86 9.64 10.75 19.87 17.56 28.9 6.54 8.68 15.73 16.61 18.25 27.59 2.76 12-1.57 24.45 2 36.51 1.65 5.63 10.48 3.23 8.82-2.44Z"/><path fill="#571519" d="m1671.78 1398.64 14.92-18.42c4.36-5.37 9.68-10.79 11.46-17.68 1.73-6.7-.35-13.06-.91-19.72s2.06-12.72 4.07-18.91c2.13-6.55 3.09-13.08 1.83-19.91s-4.54-13.28-8.11-19.22c-3.79-6.3-7.89-12.43-11.86-18.61-3.86-6-7.41-12.52-12.09-18-4.36-5.07-10.18-7.34-16.45-9.14-7.76-2.23-15.52-4.42-23.28-6.63l-23.29-6.62c-6.62-1.88-13.84-4.85-20.85-4.23-14 1.25-18.59 17.67-16.69 29.5 2.1 13.05 11.39 23.32 22.28 30.14 9.91 6.19 21.44 8.38 32.06 13 4.65 2 8.82 4.65 9.44 10.11.7 6.1-1 12.44-1.08 18.56-.08 5.89 9.07 5.9 9.15 0 .13-9.25 3.66-20.08-2.11-28.37-5.3-7.61-15.46-10.27-23.78-13.11-9.4-3.22-18.35-6.4-25.91-13.17-8.4-7.51-14.43-19.53-10-30.78 1-2.57 2.64-5.31 5.33-6.33 3.09-1.17 6.66-.13 9.7.68 7 1.86 13.94 4 20.91 5.94l20.37 5.79c6.66 1.9 13.61 3.4 20.09 5.84 6.2 2.33 9.29 7.41 12.71 12.75l11.1 17.31c6.65 10.36 15.82 22.31 13.45 35.41-1.19 6.56-4.32 12.59-5.58 19.14-1.37 7 .45 13.28 1 20.26.61 8-4.25 13.1-9 18.93l-15.39 19c-3.68 4.54 2.76 11 6.47 6.47Z"/><path fill="#571519" d="M1668.12 1391.6c-1 4.28-.29 8.17.72 12.37 1.22 5.08 1 8.67-1.79 13.17-5.3 8.44-11.81 16.29-17.71 24.33-2.67 3.65-5.21 7.53-8.31 10.83a26.69 26.69 0 0 1-10.94 6.72c-7.13 2.55-14.15 5.13-21.17 8-6.82 2.78-14 5.88-21.36 6.82-6.08.77-10.29-1.75-11.34-8-1.18-7.06 2.9-13.27 8-17.69 6.1-5.25 13.92-7.27 20.45-11.76 8.25-5.67 12.53-15.52 16.78-24.24a94.77 94.77 0 0 0 6.09-15.22c1.57-5.44 2.43-11 4.34-16.4 2-5.55-6.87-8-8.83-2.43-1.74 4.91-2.62 10-4 15a83 83 0 0 1-6.16 15.63c-2.18 4.38-4.37 8.85-7 13-2.83 4.56-6.47 7.37-11.22 9.71-8.06 4-15.94 7.85-21.66 15.06-5 6.23-7.3 13.84-5.75 21.73 1.34 6.84 6.14 13.07 13.19 14.55 7.64 1.6 16.14-1.41 23.22-4 7.79-2.86 15.3-6.49 23.18-9.12 9.25-3.1 17.08-6.3 23.28-14.19 7.82-9.93 15.19-20.34 22.55-30.61 3.09-4.32 5.92-9.07 6.13-14.52s-3.23-11-2-16.32c1.31-5.73-7.51-8.17-8.83-2.43Z"/><path fill="#571519" d="M1665.35 1377.22c-26.82-.5-53.93-6.38-78.16-18-2.32-1.12-5.1-2.35-6.54-4.6s-1.31-5.73-1.15-8.46c.28-4.88 1.71-10.59 6.32-13.12 5.36-3 12.71-1.93 18.59-1.92H1625c8 0 16.24-.6 24.12.62 7.63 1.18 14.56 4.72 21.37 8.19 5.24 2.66 9.87-5.23 4.62-7.9-6.83-3.48-13.85-7.08-21.4-8.71-8.18-1.78-16.71-1.32-25-1.34h-25c-7.27 0-15.27-.62-21.94 2.88-5.65 3-9.09 8.61-10.49 14.69s-1.89 13.66 1.21 19.23c3.43 6.17 10.92 8.85 17 11.45a200.94 200.94 0 0 0 22.18 8 203.33 203.33 0 0 0 53.68 8.17c5.89.11 5.89-9 0-9.15Zm16.82 2.65c6.87 7.89 13.2 15.83 21.55 22.28a99.19 99.19 0 0 0 42.48 19.24c13.72 2.53 27.89 2 41.51 5.1 12 2.69 23.82 7.87 34.58 13.74 12.06 6.57 24.37 15.09 30.68 27.69 2.63 5.27 10.53.64 7.9-4.61-5.58-11.15-15.53-19.54-25.84-26.18a161.9 161.9 0 0 0-35-16.54c-13-4.47-26.29-5.13-39.83-6.46-16.28-1.59-31.35-6.08-45.15-15.06-10.66-6.93-18.22-16.22-26.45-25.68-3.88-4.45-10.32 2-6.47 6.48Zm-486.39-224.12a254.9 254.9 0 0 1 363.18 2.74c4.12 4.22 10.58-2.25 6.46-6.47-37.8-38.69-87.11-65.49-140.35-75.41a264.05 264.05 0 0 0-235.76 72.67c-4.18 4.15 2.29 10.63 6.47 6.47Zm-55.06 81.65a263.75 263.75 0 0 1 17.51-34.06c3.08-5-4.83-9.65-7.9-4.62a264.4 264.4 0 0 0-17.51 34.06c-1 2.28-.68 4.91 1.64 6.26 1.92 1.13 5.29.65 6.26-1.64Zm-20.19 91.85a293.75 293.75 0 0 1 2.27-31.79c.31-2.45-2.33-4.57-4.58-4.57-2.73 0-4.26 2.11-4.57 4.57a293.75 293.75 0 0 0-2.27 31.79 4.58 4.58 0 0 0 9.15 0Zm468.23 146.17c-34.59 53.8-88.55 93.27-150.77 108.65-64.81 16-134.9 5.82-192.29-28.33a257.22 257.22 0 0 1-79.17-73.7c-3.35-4.79-11.28-.22-7.9 4.62 39 55.84 98.64 95.67 165.59 108.88s138.34.36 195.5-37.28a265.41 265.41 0 0 0 77-78.23c3.19-5-4.73-9.56-7.91-4.61Z"/><path fill="#571519" d="M1628.9 1295.81c1.13 10.23 1.7 20.6 2.08 30.89a4.68 4.68 0 0 0 4.58 4.58 4.62 4.62 0 0 0 4.57-4.58c-.38-10.29-1-20.66-2.08-30.89-.27-2.46-1.91-4.58-4.58-4.58-2.26 0-4.85 2.11-4.57 4.58Zm-41.85-102.91a263.33 263.33 0 0 1 22.56 40.59c1 2.26 4.29 2.79 6.26 1.64 2.32-1.36 2.65-4 1.64-6.26a263.33 263.33 0 0 0-22.56-40.59 4.67 4.67 0 0 0-6.25-1.64 4.62 4.62 0 0 0-1.65 6.26Zm-291.32-4.42q-9.81 48.94-19.63 97.9-1.39 6.91-2.78 13.84a4.74 4.74 0 0 0 2.1 5.17l87.22 50.83 12.36 7.2a4.7 4.7 0 0 0 5.55-.71l73.58-66.5 10.37-9.38c1.62-1.46 1.54-3.74.72-5.54q-20.88-46-41.77-91.9l-5.92-13a4.41 4.41 0 0 0-4-2.26q-49.69 4.82-99.38 9.66l-14 1.36c-5.81.57-5.87 9.72 0 9.15l99.37-9.66 14.06-1.36-3.95-2.27q20.88 45.94 41.77 91.89 3 6.53 5.92 13 .36-2.78.71-5.55l-73.57 66.5-10.38 9.38 5.54-.72-87.21-50.83-12.37-7.2q1.05 2.58 2.11 5.16 9.81-48.95 19.63-97.89 1.4-6.91 2.78-13.85c1.15-5.74-7.67-8.2-8.83-2.42Zm92.95 281.12c-26.85 19.24-55 37.9-85.94 49.89-3.44 1.34-4.22 4.8-2 7.65l26.76 34.64 14.87 19.25c.91 1.17 1.78 2.75 3.1 3.52 2 1.18 5.59.84 7.8.92 31.73 1.23 63.57-2.79 94.49-9.75 4.17-.94 8.37-1.88 12.49-3 2-.55 3.51-1.31 4.5-3.19 3-5.63 5.15-11.8 7.69-17.62l20.37-46.67c1-2.35.51-6.27-2.73-6.72-33.53-4.73-66.26-14.14-96.77-28.89-5.28-2.55-9.92 5.34-4.62 7.9a333.92 333.92 0 0 0 99 29.81l-2.74-6.72-24.81 56.83c-1.18 2.72-2.37 5.44-3.55 8.15l2.73-2.1a371.15 371.15 0 0 1-56 10.74c-18.28 2.15-37.15 3.26-55.54 1.82l3.23 1.34-38.38-49.68-5.43-7-2 7.64c31.75-12.3 60.56-31.06 88.12-50.81 4.68-3.45.16-11.39-4.64-7.95Zm-232.15-272.87 2.31 8.22a4.62 4.62 0 0 0 7.64 2 388.59 388.59 0 0 1 38.13-32.9c10.63-8 21.75-15.7 33.76-21.55 3.05-1.48 5.12-2.38 7.12-5.23 1.75-2.48 3.49-5 5.25-7.44 3-4.19 6-8.33 9.32-12.32 10-12.16 21.7-22.72 33.75-32.8 4.53-3.78-2-10.22-6.47-6.47-11 9.23-21.83 18.86-31.22 29.8-3.6 4.18-7 8.55-10.25 13q-2.31 3.15-4.56 6.35c-.79 1.11-1.58 2.23-2.36 3.35a20.26 20.26 0 0 1-1.36 1.93c-1.14 1.26.53 0-1.2.7-12 5-23 12.86-33.39 20.54-9.89 7.32-19.41 15.13-28.62 23.29-4.88 4.32-9.72 8.71-14.36 13.28l7.64 2-2.31-8.21c-1.59-5.66-10.42-3.26-8.82 2.43Zm372.54-63.73c4.86 3.89 10.26 8.38 12.67 14.31 1.4 3.44 1.32 7 1.26 10.69l6.88-4c-23.23-16.5-50.38-26.78-77.63-34.53-3.49-1-7-1.89-10.48-2.94a8.1 8.1 0 0 1-1.47-.46c1.12.61.11-.26-.51-.86-.87-.84-1.88-1.58-2.81-2.35q-5.45-4.49-11.1-8.72a191 191 0 0 0-31.92-19.82c-4.65-2.22-9.58-4.56-14.64-5.71-.41 3-.82 6-1.22 9 8.69-.53 17.37-1 26.06-1.47 5.86-.3 5.9-9.45 0-9.15-8.69.43-17.37.94-26.06 1.47-4.91.3-6.51 7.79-1.22 9a55.81 55.81 0 0 1 10.18 3.72 179.09 179.09 0 0 1 30.18 17.94c3.39 2.43 6.71 5 10 7.56s6.66 6.6 10.55 8.2a75 75 0 0 0 8.22 2.37c11.06 3.08 22 6.46 32.78 10.53 16.37 6.21 32.21 14 46.51 24.15 2.94 2.09 6.83-.74 6.89-4 .08-4.88-.13-9.65-2-14.21-2.95-7.1-8.68-12.54-14.58-17.26-4.55-3.65-11.06 2.79-6.47 6.47Zm-397.81 198.76 10.36-22.65h-7.9c2.68 3.81 5.53 7.52 8.45 11.15 4.26 5.28 8.84 11 14.63 14.65a4.58 4.58 0 1 0 4.62-7.9c-.3-.19-.59-.39-.88-.59s-1-.76 0 0c-.57-.47-1.14-.94-1.68-1.43-1.15-1-2.23-2.12-3.29-3.23-2.44-2.56-4.72-5.25-6.94-8-.5-.62-1-1.25-1.49-1.88l-.75-1c-.21-.26-.15-.18.19.25l-.41-.52-2.36-3.15c-.75-1-1.48-2-2.2-3-1.77-2.51-6.35-3.4-7.9 0l-10.36 22.65c-1 2.24-.64 4.92 1.64 6.26 2 1.15 5.23.62 6.26-1.64Zm38.21 15.85c5.7 5.66 13 10.12 19.54 14.76l-2.27-3.95c.34 27.31 2.57 55 7.63 81.84a164.2 164.2 0 0 0 7.78 28.94l3.19-5.62c-11.34 1.81-22.65 3.85-34 5.83-5.79 1-3.34 9.84 2.43 8.83 11.31-2 22.62-4 34-5.84 2.29-.36 4-3.51 3.2-5.63-8.33-21.54-10.94-45.4-12.92-68.25q-1.24-14.26-1.82-28.59c-.15-3.91.27-8.24-.42-12.12-.63-3.54-6.23-6.23-8.9-8.18-3.69-2.68-7.72-5.27-11-8.48-4.19-4.15-10.67 2.32-6.47 6.46Zm415.86-76.1c-3.82 6.88-7.84 13.65-12 20.33-3.32 5.36-6.74 10.68-10.44 15.79-1.38 1.88-2.8 3.74-4.35 5.48-2.46 2.77-2.67 4.42-2 8 2.87 16.42 7.3 32.34 8.67 49 1.43 17.47 1.16 35.05.54 52.55a4.66 4.66 0 0 0 3.36 4.41c7.32 2.24 15.75 1.57 23.26.94 7-.57 14.52-1.14 21.18-3.42 5.54-1.9 3.16-10.74-2.43-8.82-5.93 2-12.55 2.58-18.75 3.09-6.68.56-14.31 1.39-20.83-.61l3.36 4.41c.67-18.93 1-38-.94-56.88a275.44 275.44 0 0 0-5.59-32.39c-1.25-5.62-2.44-11.24-3.38-16.92l-1.18 4.45c7.4-7.73 13.09-17.31 18.65-26.39 3.72-6.06 7.34-12.19 10.8-18.4 2.86-5.15-5-9.77-7.9-4.62Z"/><path fill="#571519" d="M1619.73 1291.29q1.49 6.39 2.81 12.81 1.21 5.84 2.3 11.68.51 2.82 1 5.65c.15.93.3 1.87.44 2.8.07.45.13.9.19 1.35s0 .3 0-.12c0 .28.07.56.11.85.31 2.45 1.88 4.57 4.57 4.57 2.23 0 4.89-2.1 4.58-4.57a375.1 375.1 0 0 0-7.14-37.45 4.58 4.58 0 0 0-8.83 2.43Zm-164.11-174.06-39.67 51-5.61 7.21c-1.51 1.94-1.9 4.56 0 6.46 1.58 1.58 5 2 6.47 0l39.67-51 5.6-7.2c1.52-2 1.91-4.58 0-6.47-1.57-1.58-4.94-2-6.46 0Zm-217.49 33.28q26.13 18.88 52.27 37.76l7.44 5.38-2.11-5.17q-9.81 48.94-19.63 97.9-1.39 6.91-2.78 13.84l2.1-2.73-75.65 49.89-10.76 7.09c-4.9 3.23-.32 11.16 4.62 7.9l79.65-52.52c2.69-1.78 7.8-4 8.89-7.3 1.25-3.77 1.62-8.11 2.4-12l11.37-56.7q4.32-21.46 8.62-42.94a4.8 4.8 0 0 0-2.11-5.16q-26.13-18.88-52.27-37.76l-7.44-5.38c-4.78-3.45-9.35 4.48-4.61 7.9Zm134.61 208.96q6 50 12 99.92.84 7.08 1.7 14.16c.69 5.77 9.85 5.85 9.15 0q-6-50-12-99.91-.85-7.1-1.7-14.17c-.69-5.77-9.85-5.84-9.15 0Zm87.31-71.47 86.75 29.79 12.53 4.3c5.58 1.92 8-6.92 2.43-8.83l-86.76-29.77-12.52-4.3c-5.58-1.92-8 6.91-2.44 8.82Zm84.28-126.76c5.94 6.8 11.43 14 16.69 21.35 10 14 19.62 28.88 25.53 45.11 2 5.49 10.84 3.12 8.82-2.43-6.2-17-15.93-32.63-26.45-47.3-5.71-8-11.67-15.81-18.11-23.2-3.88-4.44-10.33 2-6.48 6.47Zm22.73 258.18c-19.55 22.22-39.76 44.19-61.55 64.24-5.94 5.47-12 11.08-19 15.29-5 3-.43 11 4.62 7.9 14.36-8.71 26.55-21.8 38.27-33.64 12.47-12.59 24.55-25.57 36.43-38.73 2.57-2.85 5.13-5.7 7.67-8.59 3.88-4.4-2.57-10.9-6.47-6.47Zm-261.88 100.07c-23.31-8-45.85-19.73-66.49-33.06a243.94 243.94 0 0 1-28.9-21.68c-4.4-3.87-10.9 2.58-6.47 6.47 26.8 23.55 58.77 41.22 91.87 54.26 2.5 1 5 2 7.55 2.83 5.59 1.92 8-6.92 2.44-8.82Zm40.28 57.16-.75.33-.45.2c-.71.31 1.16-.48.35-.15l-1.15.47c-2.54 1-5.12 2-7.72 2.79a94.74 94.74 0 0 1-10.18 2.69 46.33 46.33 0 0 1-10.51 1 4.58 4.58 0 0 0 0 9.15c11.93.13 24.25-3.68 35-8.63 2.24-1 2.8-4.27 1.64-6.26-1.35-2.3-4-2.67-6.26-1.64Zm115.03-4.19c5 .22 10 .14 15-.11 8.81-.43 18.09-1.23 26.4-4.4a4.7 4.7 0 0 0 3.19-5.62c-.61-2.21-3.31-4.08-5.63-3.2-8 3-16 3.71-24.46 4.1-4.82.22-9.67.29-14.49.08a4.62 4.62 0 0 0-4.58 4.57 4.67 4.67 0 0 0 4.58 4.58Zm-325.6-285.61c-.89 6.63-1.57 13.27-1.8 20a4.58 4.58 0 1 0 9.15 0c.11-3 .3-6.09.56-9.14a188.95 188.95 0 0 1 .7-6.63c0-.44.11-.87.16-1.3 0-.24.22-1.62.06-.45a5.06 5.06 0 0 0-.46-3.52 4.58 4.58 0 0 0-6.26-1.64 4.37 4.37 0 0 0-2.11 2.73Zm24.41-85.43c-4 9.34-7.49 19-10.68 28.61a4.6 4.6 0 0 0 3.19 5.63 4.69 4.69 0 0 0 5.63-3.19q3.3-10 7.09-19.79 1.08-2.78 2.21-5.54c.21-.51 1.12-2.59.24-.58.08-.17.15-.35.22-.52 1-2.19.72-5-1.64-6.26-2-1-5.25-.7-6.26 1.64Zm-28.55 271.08c-29 29.74-59.24 59.16-93.45 83-19.12 13.3-39.6 24.46-62 31a161.29 161.29 0 0 1-45.36 6.7 105.88 105.88 0 0 1-32.84-4.74c-9.08-3-18.32-7.65-24-15.65-9.67-13.73-7.84-32.49-9.73-48.37-1.33-11.28-3.19-22.26-3.33-33.67a305.11 305.11 0 0 1 2.11-37c2.72-24.58 7.08-49 10.51-73.47q5.74-41 10.34-82.24 1.14-10.14 2.19-20.3c.61-5.85-8.54-5.8-9.15 0q-4.44 42.57-10.13 85c-3.49 26-7.79 51.85-11.28 77.82-3.32 24.76-5.56 50-1.79 74.88 1.45 9.54 2.23 19 3 28.64.7 8.46 1.67 17.08 4.91 25 8.07 19.75 28.8 28.62 48.73 31.71 19.73 3.06 40.28 1.54 59.65-3.17 22.28-5.43 43.16-15.08 62.46-27.39 33.47-21.34 63-48.74 91.11-76.62q7.28-7.24 14.43-14.59c4.12-4.22-2.35-10.7-6.47-6.47Zm557.78 100.11c-.54 67.44 0 134.9.78 202.33q.3 25.2.73 50.41c.1 5.89 9.25 5.9 9.15 0q-1.8-101.11-1.68-202.27 0-25.23.17-50.47c0-5.88-9.1-5.89-9.15 0Z"/><path fill="#571519" d="M1045.46 1552.78c.45 33.86.7 67.73 1 101.6q.48 59.08 1 118.17.24 25.83.55 51.64c.07 5.88 9.22 5.9 9.15 0-.45-33.86-.7-67.73-1-101.6q-.48-59.08-1-118.18-.24-25.82-.55-51.63c-.08-5.88-9.23-5.9-9.15 0Zm816.2-275.92c3.41 28.19 6.66 56.4 9.49 84.66 1.47 14.73 2.81 29.46 4.65 44.15 1.88 15 3.91 30 5.35 45.11a356.14 356.14 0 0 1 1.81 45.13 137.56 137.56 0 0 1-3.55 26.25c-2.16 9.64-4.65 19.21-7.38 28.7-2.17 7.52-4.26 15.26-7.65 22.34-4.06 8.46-9.82 16.09-18.05 20.85-7.15 4.13-15.38 5.72-23.56 6-19.57.57-38.91-5-57.85-9.2-10.19-2.24-20.57-3.65-30.69-6.19a140.32 140.32 0 0 1-28.88-10.61 155.93 155.93 0 0 1-43.52-32.9 232.16 232.16 0 0 1-28.16-37.54c-5.91-9.58-11.07-19.61-17.05-29.14-.92-1.47-1.88-2.92-2.92-4.31-3.49-4.65-11.44-.1-7.9 4.61 6 8.07 10.47 17.46 15.57 26.14a279.79 279.79 0 0 0 26.55 38.32 173.14 173.14 0 0 0 42 36.7 150.73 150.73 0 0 0 27.91 13.31c10.47 3.76 21.18 5.76 32.08 7.82 20.27 3.84 40.19 9.86 60.81 11.72 18.3 1.64 37.52-1.26 50.79-15.08 13-13.53 17.52-33 22.2-50.63 2.5-9.38 4.85-18.83 6.6-28.38 2.1-11.53 2.15-23.32 1.86-35-.8-31.25-6.2-62.09-9.46-93.12-3.14-29.88-6-59.77-9.49-89.62q-1.17-10-2.39-20.05c-.7-5.78-9.85-5.84-9.15 0Z"/><path fill="#571519" d="M1482.4 754.08c11.16 3.1 22.25 6.43 33.33 9.8q39.81 12.14 79.1 25.82c31.48 11 62.75 22.79 93.24 36.3 26.38 11.69 53.07 24.4 76.36 41.62 28.8 21.3 45.82 55.26 57.48 88.32a445 445 0 0 1 17.24 65.85c3.51 18.69 5.73 37.58 8.77 56.36 6.14 37.85 13.3 75.53 19.77 113.33 2.7 15.79 5.4 31.61 7.43 47.51.7 5.47 1.34 11 1.67 16.48.12 2 .21 4 .16 5.93 0 .69-.07 1.37-.09 2-.06 1.37 0-.77-.14.87-.08 1-.37.92 0 .24-.39.75.37-.34.21-.23s-.4.46-.63.65c-.94.73.57-.27-.69.54-.72.46-1.43.91-2.17 1.33a75.78 75.78 0 0 1-12.22 5.26 392 392 0 0 1-42.16 12c-32.75 7.8-66.58 14.3-100.3 15.51a147.06 147.06 0 0 1-18.42-.33c-5.86-.52-5.82 8.63 0 9.15 14.29 1.28 28.82 0 43-1.6 18-2 35.83-5 53.55-8.53 16.49-3.3 32.9-7.1 49.06-11.77 10.87-3.14 22.5-6.34 32.39-12 2.87-1.64 5.87-3.73 7-7 1-3 .86-6.35.76-9.42-.42-12.57-2.51-25.15-4.4-37.56-5.76-37.8-13-75.37-19.54-113-3.05-17.51-6.17-35-8.59-52.66-3-22.2-6.75-44.24-12.22-66-5.59-22.19-12.82-44-22.59-64.77-8.69-18.42-19.63-36.57-34-51.14-18.56-18.8-43.43-31.67-66.88-43.18-30.41-14.93-61.95-27.56-93.71-39.29-29.09-10.73-58.49-20.63-88.08-29.92-16.24-5.11-32.53-10.06-48.91-14.7l-2.31-.65c-5.68-1.58-8.11 7.25-2.43 8.83Z"/><path fill="#571519" d="M1262.17 749.44c-21.38 19.34-20.46 51.82-11.42 76.95 11.79 32.77 37.23 60.5 68.59 75.52 36.29 17.39 79.53 17.9 116.05.93a138.67 138.67 0 0 0 69.51-73.43c9.42-23.69 12-56.07-9.22-74.46a49.69 49.69 0 0 0-8-5.63c-5.13-2.91-9.75 5-4.62 7.9 21.54 12.24 22.59 39 16.09 60.8-8.85 29.61-30.63 55.29-57 70.92-32.13 19-71.84 22.29-106.94 9.76-31.06-11.09-57.1-34.92-71.38-64.59-10.41-21.63-16.19-51.68-.66-72.35a43.56 43.56 0 0 1 5.46-5.86c4.37-4-2.11-10.41-6.47-6.46Z"/><path fill="#571519" d="M1041 1299.33c-14.72 1.32-29.7-.06-44.33-1.75-18.1-2.08-36.09-5.2-53.94-8.89-16.67-3.44-33.29-7.38-49.59-12.31-9.56-2.89-20.28-5.38-28.13-11.37 1.15.87-.29-.45-.6-.68a1.3 1.3 0 0 1 .36.63c-.09-.44-.2-.89-.3-1.33-.22-.91.1 1 0 .2 0-.35-.08-.7-.09-1a112 112 0 0 1 .06-11.59c.61-12.89 2-25.75 3.43-38.56 3.63-32.56 8.12-65 12.68-97.47 3.12-22.23 6-44.55 9.3-66.53 5.74-37.84 13.3-76.81 29-111.9 6.15-13.59 12.88-25.78 23.35-35.64 8.9-8.35 19.1-15.25 29.41-21.71 29-18.14 60.18-32.85 91.41-46.7 34.82-15.44 70.25-29.52 106-42.77 29.29-10.88 58.8-21.28 88.61-30.68q7.5-2.37 15-4.6c5.63-1.67 3.24-10.5-2.43-8.83-27.29 8.07-54.22 17.38-81 27-36 12.94-71.72 26.74-107 41.65-33.65 14.24-67.13 29.36-99 47.36-22.25 12.58-46.32 26.7-60.65 48.54-10.92 16.65-18.1 35.77-23.93 54.7a513.14 513.14 0 0 0-14.12 59.55c-2.61 14.35-4.73 28.78-6.61 43.24-.1.81-.21 1.61-.31 2.42s0 .17 0 .27c-.07.54-.15 1.09-.22 1.63l-.9 6.46q-1.21 8.65-2.44 17.31c-4.6 32.48-9.17 65-13.13 97.53-1.82 15-3.56 29.91-4.8 44.92-.74 8.84-2.1 18.47-.59 27.31 1.3 7.58 10.59 10.67 16.8 13.18 13.39 5.4 27.52 9.14 41.51 12.61 34.93 8.67 71.16 15.7 107.19 17.22a150.34 150.34 0 0 0 19.91-.27c5.82-.52 5.87-9.67 0-9.15Z"/><path fill="#fff" d="M1213.39 1102.27s-1.51-12.46-5.15-19-9.4-7.2-9.4-7.2 5.77-.64 9.4-7.2 5.15-19 5.15-19 1.5 12.46 5.14 19 9.4 7.2 9.4 7.2-5.77.64-9.4 7.2-5.14 19-5.14 19ZM1560 1681.74s-3.11-25.67-10.59-39.17-19.37-14.81-19.37-14.81 11.88-1.33 19.37-14.82 10.59-39.16 10.59-39.16 3.09 25.66 10.58 39.16 19.36 14.82 19.36 14.82-11.87 1.32-19.36 14.81-10.58 39.17-10.58 39.17ZM1143.36 1104s2.75-22.74 9.38-34.69 17.15-13.13 17.15-13.13-10.52-1.18-17.15-13.13-9.38-34.7-9.38-34.7-2.75 22.74-9.38 34.7-17.16 13.13-17.16 13.13 10.52 1.17 17.16 13.13 9.38 34.69 9.38 34.69Zm463.91 465.13s1.42-11.69 4.82-17.83 8.82-6.75 8.82-6.75-5.4-.6-8.82-6.75-4.82-17.84-4.82-17.84-1.41 11.69-4.82 17.84-8.82 6.75-8.82 6.75 5.41.6 8.82 6.75 4.82 17.83 4.82 17.83Z"/></svg>