<svg id="Layer_1" data-name="Layer 1" xmlns="http://www.w3.org/2000/svg" viewBox="0 0 720.44 448.2"><defs><style>.cls-1{opacity:0.2;}.cls-2{fill:#14b8a6;}.cls-10,.cls-11,.cls-12,.cls-2,.cls-3,.cls-4,.cls-5,.cls-6,.cls-7,.cls-8{stroke:#1a2e35;}.cls-10,.cls-11,.cls-2,.cls-6,.cls-7,.cls-8{stroke-miterlimit:10;}.cls-10,.cls-11,.cls-3,.cls-7{fill:none;}.cls-10,.cls-12,.cls-3,.cls-4,.cls-5{stroke-linecap:round;}.cls-12,.cls-3,.cls-4,.cls-5{stroke-linejoin:round;}.cls-4,.cls-6{fill:#fff;}.cls-5,.cls-8,.cls-9{fill:#1a2e35;}.cls-10,.cls-11{stroke-width:2px;}.cls-12{fill:#b8b8b8;}</style></defs><g class="cls-1"><path class="cls-2" d="M492,44.22s-54.24-40.07-123.57-18S270.9,107.9,231.61,149.83c-20.57,22-51.33,31.11-75.92,48.41-78.6,55.33-64.94,171-3,212,53.66,35.53,120,36.47,205.78,4.53s147.23-51.57,199.41-134.19S558.89,98.92,492,44.22Z"/></g><line class="cls-3" x1="598.94" y1="373.35" x2="604.34" y2="357.93"/><line class="cls-3" x1="599.32" y1="331.71" x2="599.32" y2="389.16"/><path class="cls-2" d="M590.49,361.52s-8-8.73-16-7.27S562.84,365.16,562.84,371s8,24.74,8,24.74,5.82-6.55,18.92-16S603.58,360.79,590.49,361.52Z"/><path class="cls-3" d="M590.49,361.52a40,40,0,0,0-16,16.74"/><path class="cls-2" d="M603.53,351.27s6.61-7.17,13.2-6,9.57,9,9.55,13.81-6.64,20.37-6.64,20.37-4.79-5.41-15.55-13.23S592.74,350.64,603.53,351.27Z"/><path class="cls-3" d="M603.53,351.27a33,33,0,0,1,13.15,13.82"/><line class="cls-3" x1="598.17" y1="341.74" x2="608.19" y2="327.08"/><path class="cls-2" d="M596.49,337.5s-.17-9.76-5.9-13.23-13.14.36-16.32,4-8.58,19.63-8.58,19.63,7.17-.86,20.41.47S605,344.21,596.49,337.5Z"/><path class="cls-3" d="M596.49,337.5a32.9,32.9,0,0,0-19,1.57"/><path class="cls-2" d="M605.11,324.42s.12-7.18,4.34-9.74,9.67.27,12,2.91S627.78,332,627.78,332a76.9,76.9,0,0,0-15,.34C603,333.36,598.87,329.36,605.11,324.42Z"/><path class="cls-3" d="M605.11,324.42a24.27,24.27,0,0,1,14,1.16"/><polygon class="cls-4" points="623.82 384.23 572.14 384.23 577.38 438.03 618.59 438.03 623.82 384.23"/><path class="cls-5" d="M610.12,407.66a2.32,2.32,0,1,0,2.31-2.31A2.32,2.32,0,0,0,610.12,407.66Z"/><path class="cls-5" d="M601.64,407.66a2.31,2.31,0,1,0,2.31-2.31A2.31,2.31,0,0,0,601.64,407.66Z"/><polygon class="cls-5" points="573.86 401.88 622.11 401.88 622.33 399.57 573.64 399.57 573.86 401.88"/><polygon class="cls-5" points="620.04 423.09 621.02 413.06 574.95 413.06 575.93 423.09 620.04 423.09"/><path class="cls-5" d="M618.6,407.66a2.32,2.32,0,0,0,2.31,2.32,2.71,2.71,0,0,0,.41,0l.43-4.43a2.31,2.31,0,0,0-3.15,2.15Z"/><path class="cls-5" d="M593.16,407.66a2.31,2.31,0,1,0,2.31-2.31A2.31,2.31,0,0,0,593.16,407.66Z"/><path class="cls-5" d="M576.19,407.66a2.32,2.32,0,1,0,2.31-2.31A2.32,2.32,0,0,0,576.19,407.66Z"/><path class="cls-5" d="M584.67,407.66a2.32,2.32,0,1,0,2.32-2.31A2.32,2.32,0,0,0,584.67,407.66Z"/><path class="cls-2" d="M246.43,438.15c6.39-7.87,17.81-21.78,21.73-25.42a129.17,129.17,0,0,0,10.71-11.51s-6.74,13.1,4.77,23.42,45.64,2.38,53.18-3.18,8.34-19.84,1.59-40.88-16.27-59.93-15.88-73.42-8.33-51.6-12.3-61.92S290,227.38,273.32,223.81s-61.52,15.08-61.52,15.08l-9.13,3.58s-37.31,20.63-47.23,29-5.16,31.35-7.54,53.58-2.38,48-2.38,48-23,20.24-39.69,43.26c-8,11.08-12.63,17.82-15.27,21.85Z"/><path class="cls-6" d="M328.29,395.16S315,392,301,401.39s-10.13,23.39,2.34,26.51,28.85,3.12,37.42-10.14S334.52,394.38,328.29,395.16Z"/><path class="cls-6" d="M331.59,395.05s-10.34-2.44-21.29,4.87-7.92,18.25,1.82,20.69,22.52,2.43,29.21-7.91S336.46,394.44,331.59,395.05Z"/><path class="cls-7" d="M300.78,306.28c.44-7.24.72-12.18.72-12.62"/><path class="cls-7" d="M278.87,401.22s14.29-13.89,16.67-29.77c1.47-9.78,3.39-36.46,4.65-55.86"/><path class="cls-7" d="M317.67,333.18c-3.6,11.56-10.26,28.9-20.54,40.66"/><path class="cls-7" d="M321,321.05s-.57,2.67-1.75,6.93"/><path class="cls-7" d="M319.7,366.3a97.76,97.76,0,0,1-24.55,20.24"/><path class="cls-7" d="M326.5,357.56a69.94,69.94,0,0,1-4.73,6.32"/><path class="cls-7" d="M340.39,391.3s-18.25-6.75-40.48.79-19.84,24.61-17.86,27.39"/><path class="cls-8" d="M280.15,114.73s0-4.68-6.43-14.62-39.17-5.85-50.28,5.26,4.68,25.14-2.34,33.33-30.4,4.09-38,18.71S194.8,179,198.89,184.3s-7,7-5.85,12.28,19.29,5.84,19.29,5.84-11.69,3.51-5.84,8.19a43.49,43.49,0,0,0,28.06,8.77c11.69-.59,8.77-23.39,7.6-40.34s14-35.67,31.57-33.91,36.25,21.63,33.33,30.4,4.67-1.75,20.46-11.69,8.77-30.4,5.26-34.5-15.2-5.26-17.54-12.86-7.6-15.2-17.54-15.2S290.09,114.14,280.15,114.73Z"/><path class="cls-6" d="M230.06,219.84s-7.54,2-10.72,6-15.87,11.11-16.67,16.67,4,34.13,13.5,45.64,14.28,12.3,14.28,12.3,2.78-11.11,4.77-11.91,20.24,10.72,20.24,10.72,3.17-18.65,5.16-18.65,8.33,6.35,8.33,6.35,2.38-15.88.8-28.18-11.91-27.39-19.45-32.55S236.8,216.27,230.06,219.84Z"/><path class="cls-6" d="M234,204.76l-14.62,35.08s3.77,16.34,8.72,26.84c6.75,14.28,23.44,21.1,23.44,21.1a54,54,0,0,1,5.26-24,129.77,129.77,0,0,1,11.69-19.29S242.15,218.79,234,204.76Z"/><path class="cls-8" d="M237.74,218.06s6.73,38.44,16.34,50.46l9.13-17.3-24-37.49Z"/><path class="cls-6" d="M232,332.16s23.42-61.12,26.59-64.69,10.32-9.92,13.5-14.29S284,237.7,287.21,237.7s10.72,2.78,14.29,3.57,5.95,2,6.35,7.94-4.76,6.35-4.76,6.35l-2-2.38s-14.29,21.43-18.65,24.21a37.33,37.33,0,0,1-8.34,4l-19.05,71Z"/><path class="cls-6" d="M314.65,154.91s5.55,4.63,1.85,20.35-4.62,23.58-4.62,32.83-2.78,22.2-10.64,30.52S283.67,259,272.11,258.49c-18.31-.73-27.28-25.89-33.29-37.45s-7.4-27.28-7.4-33.76.92-21.73,9.25-33.29,31-16.18,40.69-14.8S303.09,142,314.65,154.91Z"/><path class="cls-8" d="M235.58,196.53s1.85-6.47,10.17-10.17,13.41-10.18,10.64-16.19-1.39-12,10.63-15.26,15.26,8.79,26.82,6.94,14.8-6.47,20.81-3.7,3.24,10.64,3.24,10.64,7.4-13.41-6.94-28.67-49-20.81-73.06-3.24-10.17,58.73-10.17,58.73S229.11,197.46,235.58,196.53Z"/><polyline class="cls-7" points="293.38 204.39 291.99 231.21 282.28 227.51"/><path class="cls-7" d="M286,240.92s-9.25,1.39-13.41-5.09"/><path class="cls-9" d="M275.78,204.11c-.43,2.64-1.91,4.61-3.29,4.38s-2.16-2.55-1.73-5.2,1.9-4.61,3.28-4.38S276.21,201.46,275.78,204.11Z"/><path class="cls-9" d="M305.4,204.85c-.43,2.65-1.9,4.61-3.29,4.39s-2.16-2.56-1.73-5.2,1.91-4.61,3.29-4.39S305.83,202.21,305.4,204.85Z"/><path class="cls-10" d="M264,192s10-8.66,18-1.92"/><path class="cls-10" d="M298.93,190.11s6.74-5.78,12.51-.32"/><path class="cls-11" d="M288.34,197.81s-14.11-2.25-35.93,1.28c0,0-1.92,14.76,8.34,21.18s20.22.32,22.78-3.21C288.61,210.08,288.34,197.81,288.34,197.81Z"/><path class="cls-11" d="M320.75,195.79S310.65,193.64,295,197c0,0-1.38,14.11,6,20.25s14.46.3,16.29-3.07C320.94,207.52,320.75,195.79,320.75,195.79Z"/><path class="cls-11" d="M288.34,197.81s1.53-4.15,6.7-.8"/><line class="cls-11" x1="230.92" y1="190.43" x2="252.41" y2="199.09"/><path class="cls-6" d="M237.43,198.84s-3.24-19-12-9.71-.93,18.5,3.23,22.66,9.25,0,9.25,0"/><path class="cls-2" d="M202.79,292.26a106.08,106.08,0,0,1,11.39,33.95c2.78,19.05,2.38,22.62,2.38,22.62l13.89-16.67s22.63,15.88,26.2,21,4,6.74,4,6.74,0,31-13.1,49.62-19.45,18.65-32.15,18.65-29-11.91-37.7-31.75-15.88-48.82-17.46-51.6-6.75-18.65-6.75-18.65"/><path class="cls-7" d="M197.57,372.09c-1.44,1.7-2.7,3.13-3.63,4.13"/><path class="cls-7" d="M216.56,348.83s-7.42,9.32-14.07,17.38"/><path class="cls-6" d="M218.55,346.85a103.76,103.76,0,0,1,24.6,10.71c13.5,7.94,14.69,16.67,18.66,13.5S269,358,265,352.4s-16.27-18.65-25-22.62-12.3-1.59-15.08,4.37S215.77,343.27,218.55,346.85Z"/><path class="cls-7" d="M218.05,379.33a46.08,46.08,0,0,0,1.69,11.17"/><path class="cls-7" d="M218.55,346.85s-1,13.3-.75,25.7"/><path class="cls-7" d="M232,353.59s2.78,15.48,6,22.23"/><path class="cls-6" d="M326.1,392.09s-13.49,23.82-11.51,26.59,46,0,46,0l2.39-9.52s9.12,3.57,16.27,3.57,1.59-2-.8-4.37-16.27-11.11-17.46-11.9S336.82,389.71,326.1,392.09Z"/><path class="cls-6" d="M354.86,389.35s6.38-1.92,8.09,2.12.85,21.27.21,25.73-3.62,4.26-4.89,0S354,390,354,390Z"/><path class="cls-6" d="M341.47,391.26s9.57-6.59,12.33-3.19,5.32,30.2,6.17,32.11-3.62,3.4-5.32,1.49-6.59-11.7-8.08-15.31S341.47,391.26,341.47,391.26Z"/><path class="cls-6" d="M322.54,398.49s5.32-9.78,9.78-12.55,9.36,2.34,11.7,6.17,4.25,13.82,5.32,18.71,4,10.42,2.34,11.06-8.3-4.89-10.21-7.87-6.59-14.46-6.59-14.46"/><path class="cls-6" d="M331.26,417s-7.65-7.44-10.21-9.78-6.16-3.4-8.71-.64-3.83,6.17,0,9.78,13,8.3,18.92,8.3,4.89-3,3.4-4.68A19.48,19.48,0,0,0,331.26,417Z"/><rect class="cls-12" x="255.51" y="430.05" width="279.03" height="7.98" transform="translate(790.05 868.08) rotate(180)"/><rect class="cls-5" x="255.51" y="430.05" width="97.95" height="7.98" transform="translate(608.97 868.08) rotate(180)"/><path class="cls-5" d="M345.57,430.05H526.74l10.46-120.5a9.37,9.37,0,0,0-9.48-10.39H367.33A11.55,11.55,0,0,0,356,309.55Z"/><path class="cls-12" d="M349.05,430.05H530.21l10.47-120.5a9.37,9.37,0,0,0-9.49-10.39H370.8a11.55,11.55,0,0,0-11.29,10.39Z"/><path class="cls-5" d="M440.84,360.8a12.62,12.62,0,0,1,12.34-11.36,10.25,10.25,0,0,1,10.38,11.36,12.64,12.64,0,0,1-12.35,11.35A10.24,10.24,0,0,1,440.84,360.8Z"/><line class="cls-7" x1="672.22" y1="438.03" x2="48.23" y2="438.03"/></svg>