<svg id="Layer_1" data-name="Layer 1" xmlns="http://www.w3.org/2000/svg" xmlns:xlink="http://www.w3.org/1999/xlink" viewBox="0 0 720.44 448.2"><defs><style>.cls-1,.cls-9{fill:#fff;}.cls-1,.cls-12,.cls-13,.cls-16,.cls-3,.cls-4,.cls-5,.cls-6,.cls-7{stroke:#1a2e35;}.cls-1,.cls-12,.cls-13,.cls-14,.cls-7{stroke-linecap:round;}.cls-1,.cls-12,.cls-13,.cls-14,.cls-4,.cls-5,.cls-6,.cls-7{stroke-linejoin:round;}.cls-2{opacity:0.2;}.cls-16,.cls-3{fill:#14b8a6;stroke-miterlimit:10;}.cls-14,.cls-4,.cls-5,.cls-6,.cls-7{fill:none;}.cls-5{stroke-dasharray:6.94 6.94;}.cls-6{stroke-dasharray:7.08 7.08;}.cls-8{fill-opacity:0.7;opacity:0.3;}.cls-10{clip-path:url(#clip-path);}.cls-11{fill:#1a2e35;}.cls-12,.cls-18{fill:#5ae4a7;}.cls-13{fill:#bfbfbf;}.cls-14{stroke:#000;stroke-width:2px;}.cls-14,.cls-16,.cls-18{opacity:0.4;}.cls-15{opacity:0.7;}.cls-17{clip-path:url(#clip-path-2);}</style><clipPath id="clip-path"><path class="cls-1" d="M424.67,291.31l-162.6,51.62-39.8-207.42L220,123.71,364.86,53.62a5.4,5.4,0,0,1,7.4,3.64l3,11.71,54.37,213.11A7.53,7.53,0,0,1,424.67,291.31Z"/></clipPath><clipPath id="clip-path-2"><path class="cls-1" d="M405.45,167.31s-8.24,15.06-8.16,18.47,15.75,27.06,16.19,29.74,11.78,7.86,15.92,10.6,9.39-17.15,8.71-31.48S405.45,167.31,405.45,167.31Z"/></clipPath></defs><g class="cls-2"><path class="cls-3" d="M144.81,249a114.33,114.33,0,0,1,6.09-67.86c12.15-30,38.25-51.38,67.5-63.83,42.51-18.1,84.23-18.45,118.78-53.91,10.66-10.94,19.6-23.47,30.49-34.19,32.1-31.6,79.09-27.76,114.18-2.7,73.2,52.27,99.53,155.79,95.46,241.38-1.83,38.41-20.16,74.15-49.19,99.35-65.64,57-177.1,47.41-252.49,17.66C219.41,362.72,158,311,144.81,249Z"/></g><line class="cls-4" x1="478.74" y1="66.1" x2="475.24" y2="66.1"/><line class="cls-5" x1="468.3" y1="66.1" x2="235.69" y2="66.1"/><line class="cls-4" x1="232.22" y1="66.1" x2="228.72" y2="66.1"/><line class="cls-4" x1="481.29" y1="365.78" x2="481.29" y2="362.28"/><line class="cls-6" x1="481.29" y1="355.2" x2="481.29" y2="75.68"/><line class="cls-4" x1="481.29" y1="72.14" x2="481.29" y2="68.64"/><rect class="cls-4" x="478.74" y="63.55" width="5.1" height="5.1"/><polygon class="cls-7" points="523.89 81.34 486.86 65.78 502.42 102.82 506.71 90.29 514.98 98.56 519.63 93.91 511.36 85.64 523.89 81.34"/><path class="cls-7" d="M452.52,407.72H416a5.7,5.7,0,0,1-5.43-4.67l-4.07-25.52a3.89,3.89,0,0,1,3.94-4.67H447a5.71,5.71,0,0,1,5.43,4.67l4.07,25.52A3.89,3.89,0,0,1,452.52,407.72Z"/><path class="cls-7" d="M452.52,407.72A4.69,4.69,0,0,0,457.2,403V374.26a4.67,4.67,0,0,0-4.35-4.65l-1.14-2.92a1.42,1.42,0,0,0-1.33-.91H438.43a1.42,1.42,0,0,0-1.32.91L436,369.58H416a4.69,4.69,0,0,0-4.44,3.18"/><path class="cls-7" d="M315.06,407.72H278.52a5.7,5.7,0,0,1-5.43-4.67L269,377.53a3.89,3.89,0,0,1,3.94-4.67h36.55a5.69,5.69,0,0,1,5.42,4.67L319,403.05A3.89,3.89,0,0,1,315.06,407.72Z"/><path class="cls-7" d="M315.06,407.72a4.69,4.69,0,0,0,4.69-4.69V374.26a4.67,4.67,0,0,0-4.35-4.65l-1.14-2.92a1.42,1.42,0,0,0-1.33-.91H301a1.43,1.43,0,0,0-1.33.91l-1.12,2.89h-20a4.69,4.69,0,0,0-4.44,3.18"/><path class="cls-7" d="M383.79,407.72H347.24a5.69,5.69,0,0,1-5.42-4.67l-4.07-25.52a3.89,3.89,0,0,1,3.94-4.67h36.54a5.7,5.7,0,0,1,5.43,4.67l4.07,25.52A3.89,3.89,0,0,1,383.79,407.72Z"/><path class="cls-7" d="M383.79,407.72a4.68,4.68,0,0,0,4.68-4.69V374.26a4.67,4.67,0,0,0-4.34-4.65L383,366.69a1.43,1.43,0,0,0-1.33-.91h-12a1.42,1.42,0,0,0-1.33.91l-1.13,2.89h-20a4.67,4.67,0,0,0-4.43,3.18"/><path class="cls-3" d="M403.89,123l9.9-12.24a11.86,11.86,0,0,0,2.38-10l-9.4-43.61a7.26,7.26,0,0,0-7.1-5.74H381.46a12,12,0,0,0-3.81.63L201.48,124.21l44.65,231.84c6.26,9.41,182.4-51.45,182.4-51.45a11.86,11.86,0,0,0,7.78-14l-36-151.73A18.46,18.46,0,0,1,403.89,123Z"/><path class="cls-8" d="M378.12,56.6l55.76,239s-188.53,70.23-179.65,48.5c0,0-44.87-213.49-41.08-214.28S378.12,56.6,378.12,56.6Z"/><path class="cls-9" d="M424.67,291.31l-162.6,51.62-39.8-207.42L220,123.71,364.86,53.62a5.4,5.4,0,0,1,7.4,3.64l3,11.71,54.37,213.11A7.53,7.53,0,0,1,424.67,291.31Z"/><g class="cls-10"><path class="cls-11" d="M375.26,69l-151.83,69.5L220,123.71,364.86,53.62a5.4,5.4,0,0,1,7.4,3.64Z"/><path class="cls-12" d="M367.65,63.83a3.34,3.34,0,0,1-3.36,3.61,4,4,0,0,1-3.37-4.08,3.34,3.34,0,0,1,3.37-3.6A4,4,0,0,1,367.65,63.83Z"/><path class="cls-12" d="M359,68.12a3.1,3.1,0,0,1-3.12,3.35,3.66,3.66,0,0,1-3.12-3.78,3.1,3.1,0,0,1,3.12-3.35A3.66,3.66,0,0,1,359,68.12Z"/><path class="cls-12" d="M350.78,71.84A2.9,2.9,0,0,1,347.86,75a3.44,3.44,0,0,1-2.92-3.54,2.9,2.9,0,0,1,2.92-3.13A3.42,3.42,0,0,1,350.78,71.84Z"/><path class="cls-8" d="M424.67,291.31l-162.6,51.62-39.8-207.42L220,123.71,364.86,53.62a5.4,5.4,0,0,1,7.4,3.64l3,11.71,54.37,213.11A7.53,7.53,0,0,1,424.67,291.31Z"/></g><path class="cls-7" d="M424.67,291.31l-162.6,51.62-39.8-207.42L220,123.71,364.86,53.62a5.4,5.4,0,0,1,7.4,3.64l3,11.71,54.37,213.11A7.53,7.53,0,0,1,424.67,291.31Z"/><path class="cls-1" d="M415.05,281.09l-160.4,63L215.38,139.43l-2.23-11.64,142.9-80.21a5,5,0,0,1,7.3,3.12l2.95,11.5L420,271.51A8.13,8.13,0,0,1,415.05,281.09Z"/><path class="cls-11" d="M366.3,62.2,216.53,142.31l-3.38-14.52,142.9-80.21a5,5,0,0,1,7.3,3.12Z"/><path class="cls-12" d="M358.8,57.59a3.36,3.36,0,1,1-3.32-3.84A3.61,3.61,0,0,1,358.8,57.59Z"/><path class="cls-12" d="M350.24,62.49a3.11,3.11,0,1,1-3.08-3.56A3.35,3.35,0,0,1,350.24,62.49Z"/><path class="cls-12" d="M342.16,66.78a2.91,2.91,0,1,1-2.88-3.34A3.13,3.13,0,0,1,342.16,66.78Z"/><path class="cls-8" d="M364.61,67.38l47.23,184.93a1.61,1.61,0,0,1-.9,1.87l-4.31,1.9a1.58,1.58,0,0,1-2.17-1.06l-46-183.88a2.16,2.16,0,0,1,1-2.41l3.56-2A1,1,0,0,1,364.61,67.38Z"/><path class="cls-13" d="M360.56,72.72l2.61-1.44a1.86,1.86,0,0,1,2.7,1.18l4.82,19.37a2.16,2.16,0,0,1-1.09,2.45L366.42,96a1.35,1.35,0,0,1-1.94-.86l-5-20A2.18,2.18,0,0,1,360.56,72.72Z"/><line class="cls-14" x1="384.14" y1="279.79" x2="280.82" y2="322.33"/><line class="cls-14" x1="398.11" y1="266.82" x2="266.86" y2="322.33"/><polygon class="cls-8" points="385.21 210.99 374.63 165.95 345.92 179.66 356.41 224.54 385.21 210.99"/><polygon class="cls-8" points="334.22 129.63 344.19 172.27 372.85 158.39 362.58 114.69 334.22 129.63"/><polygon class="cls-8" points="361.67 110.83 353.27 75.13 324.95 89.96 333.34 125.86 361.67 110.83"/><polygon class="cls-8" points="357.45 229 367.11 270.3 396.16 257.57 386.4 216.04 357.45 229"/><path class="cls-3" d="M201.48,124.21l44.65,231.84C260.42,339.73,362.49,265,362.49,265A24.51,24.51,0,0,0,372,239.71L324.73,37.06a10.39,10.39,0,0,0-17-5.48S212.76,91.21,201.48,124.21Z"/><g class="cls-15"><path class="cls-9" d="M363.91,246.94a3,3,0,0,1-2.91-2.28q-1.2-5-2.37-10a3,3,0,1,1,5.83-1.36q1.16,4.95,2.36,9.9a3,3,0,0,1-2.2,3.62A2.92,2.92,0,0,1,363.91,246.94Z"/></g><g class="cls-15"><path class="cls-9" d="M357.8,220.31a3,3,0,0,1-2.92-2.33L313.94,38.21a.37.37,0,0,0-.23-.26.31.31,0,0,0-.33,0C302.87,45,267.29,68.84,250.8,82c-10.5,8.75-20.12,18.8-31.17,32.54a3,3,0,1,1-4.66-3.75c11.3-14.07,21.18-24.38,32.05-33.43,16.26-13,49.5-35.38,63-44.39a6.35,6.35,0,0,1,9.71,3.88l41,179.77a3,3,0,0,1-2.25,3.58A3.14,3.14,0,0,1,357.8,220.31Z"/></g><path class="cls-9" d="M238.49,441.58c-1.41-12.71-3.31-30.37-5-47.19-2.4-24.55-4.27-47.29-3.25-50.16A28.7,28.7,0,0,0,232.12,333c5-.56,7.24-7.39,7.24-7.39l-2.69-24s1.68-46-.38-59-10.44-21.8-10.61-25.28,6.53-18.74,8.73-23.11.94-29-2.62-36.66a8,8,0,0,0-4-4.18c-3.74-1.67-8,.21-8,.21a68.62,68.62,0,0,1-9.18,30.89h0c-3.45,6-6.64,9.87-7.21,13-1.23,6.78-16.19,24.27-19,33.31s-3.74,39.81-8.17,51.92c-2.09,5.71-9.6,23.88-11.58,79.31a475.86,475.86,0,0,1-10,79.54Z"/><path class="cls-16" d="M234.41,194.2c-2.2,4.37-8.91,19.64-8.73,23.11s8.54,12.22,10.61,25.28.38,59,.38,59l2.69,24s-2.24,6.83-7.24,7.39a28.7,28.7,0,0,1-1.85,11.24c-1,2.87.85,25.61,3.25,50.16C231,383.79,229,375.6,229,375.6s-1.1,13-2.51,23.34-4.81,24.95-4.81,24.95-7.52-70.89-5.78-82.73,6.06-9.91,2.72-15.57S195,315,197,310.74s17.79,3.31,18.45,3.62c-.54-.43-9.33-7.47-9.26-10.73s14.11,5.25,14.11,5.25a47.8,47.8,0,0,0,10.14-8.4c4.29-4.92-2.08-52-3.28-55.4s-8.72-2.92-10.92-5.75,3.78-4.1,2.63-8.42-4.23-3.93-4.23-3.93,4.94-7.22,4.49-13.53,7.75-13.89,7.16-18.44c-2.3-17.7-12.84-5.5-15.7-10.54h0a68.62,68.62,0,0,0,9.18-30.89s4.27-1.88,8-.21a8,8,0,0,1,4,4.18C235.35,165.23,236.62,189.83,234.41,194.2Z"/><path class="cls-7" d="M158,423.89A462.79,462.79,0,0,0,164.61,362c2-55.43,9.5-73.6,11.58-79.31,4.44-12.11,5.36-42.87,8.17-51.92s17.78-26.54,19-33.31,14.57-16.9,16.39-43.93c0,0,8.47-3.72,12,4s4.83,32.29,2.62,36.66-8.91,19.64-8.74,23.11,8.55,12.22,10.61,25.28.39,59,.39,59l2.68,24s-2.23,6.84-7.23,7.39a28.41,28.41,0,0,1-1.85,11.23c-1.58,4.46,3.77,56.6,7.33,89.28"/><path class="cls-7" d="M225.67,217.31s-2.64,7.36-7.75,7.34"/><path class="cls-7" d="M224,220.61s1.56,8.93-4,14.62"/><path class="cls-7" d="M205.25,193.11s6.21-1.22,10.1,1.12"/><path class="cls-7" d="M200.94,312.28s20.16,6.33,23.35,9.54S232.12,333,232.12,333"/><path class="cls-7" d="M216.69,309.18c3,3.33,9.59,7.14,12.73,10.1s4.69,9.55,4.69,9.55"/><path class="cls-7" d="M229.93,307.62s4.66-2.31,7-9.6"/><path class="cls-7" d="M224.49,334.49c-4.42,2.22-4.54,27.56-2.21,56.24"/><path class="cls-7" d="M226.8,339.73c0,2.81,3.8,24.18,5.53,42.15"/><path class="cls-9" d="M405.45,167.31s-8.24,15.06-8.16,18.47,15.75,27.06,16.19,29.74,11.78,7.86,15.92,10.6,9.39-17.15,8.71-31.48S405.45,167.31,405.45,167.31Z"/><g class="cls-17"><path class="cls-16" d="M405.45,167.31s-8.24,15.06-8.16,18.47,15.75,27.06,16.19,29.74,11.78,7.86,15.92,10.6,9.39-17.15,8.71-31.48S405.45,167.31,405.45,167.31Z"/></g><path class="cls-7" d="M405.45,167.31s-8.24,15.06-8.16,18.47,15.75,27.06,16.19,29.74,11.78,7.86,15.92,10.6,9.39-17.15,8.71-31.48S405.45,167.31,405.45,167.31Z"/><path class="cls-7" d="M411.09,195.31s8.1-3.69,16.91,6.13"/><path class="cls-9" d="M578.22,335.39l-49.47,55.83s-8.13-10.12-18.31-22.5C496,351.13,477.4,329,472.15,325c-6.42-4.92-48.14-33.45-59.66-47.57-1.66-2-3.09-3.82-4.36-5.46h0c-7.61-9.79-9.12-14-12.91-27.68-4.4-16-9.26-24.82-10.49-30.73,0-.17-.07-.36-.11-.55-1.27-6.56-3.5-26.3-6.4-31.32-3-5.18,8.88-7.68,13.4-4.8s15.81,16.86,15.09,28.91c0,0,8.87,21.85,13.39,21.26,0,0-.58-21.89-3.59-27.24a17.58,17.58,0,0,1-2.31-8,10.09,10.09,0,0,1,.06-2s-13.95-15-18-25.17-12.14-25.72-13.68-40.89c0,0-1.8-10.9,4.8-15.85,2.53-1.89,4.85-2.42,7.2.84a25.5,25.5,0,0,1,2.93,6.15c9.9,27.94,22.13,38.65,22.13,38.65a94,94,0,0,1,14,4.84,21.76,21.76,0,0,1,2.87,1.69h0c2.6,1.75,5.76,4.28,9,6.76,4.69,3.56,9.58,7,13.26,7.82,12.79,2.78,18.95,9.28,18.95,9.28s8.5-1.81,13,6.1c4.36,7.66,6.77,9.19,6.77,9.19s3.2,0,5.78,5.66c4.54,9.92,18.2,62.82,18.87,65,5.49,17.49,21.82,36.26,40.5,52.72h0C567.7,327,573,331.32,578.22,335.39Z"/><path class="cls-18" d="M436.46,160h0Z"/><path class="cls-16" d="M450.22,181.48s-14.79-2.66-17.7-9.37-15.3-21-18.26-22a4.68,4.68,0,0,0-4.81,1.15s-5.13-8.11-9-15.1c-3.66-6.65-21.78-26.58-5.92-27.49a25.5,25.5,0,0,1,2.93,6.15c9.9,27.94,22.13,38.65,22.13,38.65a94,94,0,0,1,14,4.84,21.76,21.76,0,0,1,2.87,1.69c-.39-.09-6.3-1.56-5.13,1.47s10.84,11.86,15.9,15.69S450.22,181.48,450.22,181.48Z"/><path class="cls-16" d="M562.6,322.53c-8.37-4.58-21-12.14-25.22-18.08-6.51-9.16-11.33-13.74-15.67-19.05s-12.54-9.64-10.61-8.91,10.61,3.71,10.61,3.71a84.49,84.49,0,0,1-11.57-21.55c-5.06-13.5-14.27-61-21.12-66.25S489,239,489,239a153.24,153.24,0,0,1-9.73-31.59c-3.14-17-6-25.4-9.7-27.71s-10.8,2.55-12.73,0,.25-3.48-11.38-12.88c4.69,3.56,9.58,7,13.26,7.82,12.79,2.78,18.95,9.28,18.95,9.28s8.5-1.81,13,6.1c4.36,7.66,6.77,9.19,6.77,9.19s3.2,0,5.78,5.66c4.54,9.92,18.2,62.82,18.87,65C527.59,287.3,543.92,306.07,562.6,322.53Z"/><path class="cls-16" d="M425,237.08c-.54,3.2-4.52-6.16-4.88-4.71s-1.43,6.19-1.5,4.71-8.5-6.16-10-13.15-2.4-10-3.13-11.73-2,1.17-2.09-3.08c-.07-3.79-12.29-7.79-18.81,3.86-1.27-6.56-3.5-26.3-6.4-31.32-3-5.18,8.88-7.68,13.4-4.8s15.81,16.86,15.09,28.91c0,0,8.87,21.85,13.39,21.26,0,0-.58-21.89-3.59-27.24a17.58,17.58,0,0,1-2.31-8l4.4.6c1.19,2.61-1.13,6.32,0,8.21s8.27,15.59,5.91,22.68S425.52,233.88,425,237.08Z"/><path class="cls-16" d="M510.44,368.72C496,351.13,477.4,329,472.15,325c-6.42-4.92-48.14-33.45-59.66-47.57-1.66-2-3.09-3.82-4.36-5.46,6.14,7.5,13.63,11.44,16.91,13.21,5.79,3.13,22.55,5.83,34.24,18.52,5.68,6.16,8.92,10.65,15.91,18.36s17.11,8.2,23.13,18.81C501.35,346.17,506.37,358.15,510.44,368.72Z"/><path class="cls-7" d="M528.75,391.22S481.1,331.86,472.15,325c-6.42-4.93-48.13-33.45-59.66-47.58s-12.85-17.17-17.26-33.15-9.26-24.82-10.5-30.73-3.53-26.7-6.51-31.87,8.88-7.68,13.4-4.8,15.8,16.87,15.09,28.91c0,0,8.87,21.85,13.39,21.26,0,0-.59-21.89-3.59-27.24a16.63,16.63,0,0,1-2.24-10s-14-15.05-18-25.18-12.14-25.72-13.68-40.89c0,0-1.81-10.9,4.81-15.85,3.56-2.67,6.71-2.63,10.12,7,9.9,27.94,22.13,38.65,22.13,38.65a94,94,0,0,1,14,4.84c5.89,2.77,17.9,14.7,25.16,16.28,12.79,2.78,18.94,9.28,18.94,9.28s8.51-1.81,13,6.1c4.36,7.66,6.76,9.19,6.76,9.19s3.19,0,5.79,5.65c4.55,9.93,18.2,62.82,18.87,65,7,22.26,31.55,46.6,56.12,65.58"/><path class="cls-7" d="M419.6,153.5s12.11,16.76,20.58,20"/><path class="cls-7" d="M439.52,177.19c8.17,2.62,13.44,4.17,14.94,10.33s5.87,20.07,8,25.55,7.15,19.3,7.15,19.3"/><path class="cls-7" d="M420.1,227s5.56,7.23,4.19,14.31"/><path class="cls-7" d="M417.75,225.86s-.25,7.86,1.73,13.12"/><path class="cls-7" d="M414.27,189.78s4.45,2.4,5.52,5.23"/><path class="cls-7" d="M417.51,202.44a32.21,32.21,0,0,0,4.14,6.68c2.15,2.37,3.17,10.06,3.17,10.06"/><path class="cls-7" d="M384.73,213.53s4.81-5.41,9.77-6.15"/><path class="cls-7" d="M407.49,152.44s5.58-4.19,9.83-1.3"/><path class="cls-7" d="M500.57,212.82c1.12,3.06,6.84,30.7,8.28,34.63"/><path class="cls-7" d="M461.44,181.14s5.26-3.77,11.85.85,6.6,6.85,10.66,5.76,6.73,2.25,6.73,2.25"/><path class="cls-7" d="M482.65,200.6c1.05,6.21,5.51,36.53,7.67,44.15"/></svg>