<svg id="Layer_1" data-name="Layer 1" xmlns="http://www.w3.org/2000/svg" xmlns:xlink="http://www.w3.org/1999/xlink" viewBox="0 0 720.44 448.2"><defs><style>.cls-1,.cls-13,.cls-4,.cls-9{fill:#14b8a6;}.cls-1,.cls-2,.cls-4,.cls-5,.cls-8{stroke:#1a2e35;}.cls-1,.cls-2,.cls-5,.cls-7,.cls-8{stroke-linecap:round;stroke-linejoin:round;}.cls-14,.cls-2{fill:#fff;}.cls-3{opacity:0.2;}.cls-4{stroke-miterlimit:10;}.cls-5,.cls-7{fill:none;}.cls-6{fill:#1a2e35;}.cls-7{stroke:#fff;}.cls-8{fill:#5ae4a7;}.cls-10{clip-path:url(#clip-path);}.cls-11{fill-opacity:0.7;opacity:0.3;}.cls-12,.cls-13{opacity:0.4;}.cls-15{clip-path:url(#clip-path-2);}.cls-16{clip-path:url(#clip-path-3);}.cls-17{clip-path:url(#clip-path-4);}.cls-18{clip-path:url(#clip-path-5);}.cls-19{clip-path:url(#clip-path-6);}</style><clipPath id="clip-path"><path class="cls-1" d="M238.71,359.87c18.62,10,38.13-.31,38.13-.31C292.17,369.84,300,368,300,368l38.53,63.8,168.36-3.31s1.77-44.53,0-59.23c-9.16-76.16-46.87-91.64-86.45-101.39s-80.33-8.19-112.83.47c-44.25,11.79-68.94,35.56-68.94,35.56s-22.92,4.61-28,17.86C210.71,321.76,228.29,354.29,238.71,359.87Z"/></clipPath><clipPath id="clip-path-2"><path class="cls-2" d="M286.16,398.36l-47.44,24.46L157.8,412.7l-3.52-3.65,3.38-1.57h0l47.66-22.08A81.47,81.47,0,0,1,247,383.34a147.84,147.84,0,0,1,34.11,12.27C284.35,397.26,286.16,398.36,286.16,398.36Z"/></clipPath><clipPath id="clip-path-3"><path class="cls-2" d="M374.26,404.66l-3.36,4.74-52.22,23.82-80-10.4,4.86-2.51,42.58-21.95a108.79,108.79,0,0,1,33.93-5c17.43.07,50.07,10.06,53.81,11.23Z"/></clipPath><clipPath id="clip-path-4"><path class="cls-1" d="M259.7,347.52c-5.86,20.37-33.1,29.85-33.1,29.85s-36.79,14-39.2-20.44c0,0,1.83-16.81,12.81-23.07,0,0,8-15.84,20-22.61"/></clipPath><clipPath id="clip-path-5"><path class="cls-1" d="M457.91,284.76c24.25,1.37,72.76,50.6,83.71,62.76s28.85,30.34,34.62,44.72c8.8,21.95-13.3,42.14-35.21,41s-67.48-48.33-67.48-48.33-34.77-32.4-25.21-61.66"/></clipPath><clipPath id="clip-path-6"><path class="cls-1" d="M526.55,365.1c-24,3.25-53.17,17.41-62,14.45s-29.8,10-29.8,10l-12.32.16s-9.12,20.21-3.65,34.85l12.8,1.25s-.94,8.1,32.54,10.26S559.7,440.8,571.8,419"/></clipPath></defs><g class="cls-3"><path class="cls-4" d="M120.06,194.18A125.19,125.19,0,0,1,146.3,124.3c21.6-28.18,55.39-43.09,89.92-47.71,50.16-6.7,94.33,5.12,141.17-22.25,14.44-8.44,27.55-19.06,42.17-27.2,43.12-24,91.63-6.23,121.37,30.48,62,76.56,59.62,193.57,30.33,282.76-13.14,40-42.94,72.42-80.94,90.56-86,41-200.86-1.64-271.79-55.06C165.64,336,115.91,263.46,120.06,194.18Z"/></g><path class="cls-5" d="M157.52,265s8.85-4.49,11.59-4.15-4.88,3.46,0,3.46,6.71-1.73,6.71-.69.35,1.9,2.77,1.38,3,.14,4.24.15a24.76,24.76,0,0,0,6.33-1c2.21-.7,4.65-1.56,6.17-.35s.92,1.87,6.41,1.37a40.21,40.21,0,0,1,9.45.16"/><path class="cls-5" d="M157.31,285.49c4.29-.83,13.81-5.49,11-5s-8,3.63-1.22,3.81,8.28-2.25,10.12-2.94,8.29,0,9.21,0-5.22,1.31,0,1.6,5.72-.64,7.77,0a14.21,14.21,0,0,0,5.42,0s1,1,5.85,1.16,8.57,0,8.57,0"/><path class="cls-5" d="M153.93,274.67s12.89-.59,15.34-1.28,1.23-2.42,4.61-1.73,5.52-.66,8.44-.16,10.49,0,7.21-1.22-9.47,2.94-2.44,3.11,10.11-.5,10.72-1,4.32,1,4.32,1,4-1.37,5.81-1,9.51,1.2,9.51,1.2"/><path class="cls-5" d="M530,278a20.8,20.8,0,0,0,1.15,10.7,20.54,20.54,0,0,0,2.49,4.67A21.1,21.1,0,1,0,530,278Z"/><path class="cls-5" d="M540.88,289.32s4.71-4.79,10.4-3.92a10.64,10.64,0,0,1,7.84,5.76"/><path class="cls-5" d="M557.38,272.63a8.53,8.53,0,0,0,6.48,4.39"/><path class="cls-5" d="M561.15,277.81a1.84,1.84,0,1,1-1.54-2.09A1.84,1.84,0,0,1,561.15,277.81Z"/><path class="cls-5" d="M561,278.6s1.8.46.94,2.49,2.7,2.49,3.22,3.2-1.23,3.33.71,4.16,1.79,2.53,1.22,3.89a2.7,2.7,0,0,0,.33,1.92"/><path class="cls-5" d="M559.06,279.35c0,1.84-.62,3,2,4.76s.06,3.8.52,4.86,3.45.5,1.69,3.76a5.49,5.49,0,0,0,.42,5.25"/><path class="cls-5" d="M547.21,271.08a8.53,8.53,0,0,1-7.49,2.26"/><path class="cls-5" d="M542.06,274.9a1.84,1.84,0,1,0,2.1-1.54A1.84,1.84,0,0,0,542.06,274.9Z"/><path class="cls-5" d="M531.15,288.73A2.7,2.7,0,0,0,532,287c-.14-1.47.21-3.14,2.32-3.35s1.21-3.25,1.92-3.77,4.23.11,4-2.09,1.65-2.1,1.65-2.1"/><path class="cls-5" d="M533.64,293.4c1.13-1.11,2.36-2.83,2-4.89-.71-3.63,2-2.21,2.73-3.08s-1.08-3.59,1.94-4.48,2.77-2.2,3.33-4"/><path class="cls-5" d="M433.63,126a30,30,0,0,0,8.72,12.77,29,29,0,0,0,6.32,4.21,30.3,30.3,0,1,0-15-17Z"/><path class="cls-5" d="M479.84,108s-2.94,5.52-15.73,9.5a59.94,59.94,0,0,1-20.42,2.78s5.29,21.23,25.71,15.88S479.84,108,479.84,108Z"/><path class="cls-5" d="M464.63,100.61s-.22-8.8,7.79-1.39"/><path class="cls-5" d="M450.7,105.55s-5.07-4.71-5.6,3.37"/><path class="cls-5" d="M467.37,127.65s4.82-5.56,8.3-4.94,2.74,7.28-7.06,10.76-14-1.07-13.72-4.6S467.37,127.65,467.37,127.65Z"/><path class="cls-5" d="M474.31,98.55s9.39-2.65,7.93,1.68S474.31,98.55,474.31,98.55Z"/><path class="cls-5" d="M443.29,109.56s-7.94,1.77-6,4.88S443.29,109.56,443.29,109.56Z"/><path class="cls-5" d="M481.27,164.52s9.51-4.82,12.45-4.45-5.24,3.71,0,3.71,7.21-1.86,7.21-.74.38,2,3,1.48,3.25.15,4.56.17a26.81,26.81,0,0,0,6.8-1.09c2.37-.75,5-1.68,6.63-.38s1,2,6.88,1.47a43.5,43.5,0,0,1,10.16.18"/><path class="cls-5" d="M482.75,212.26s9.5-4.83,12.45-4.46-5.24,3.71,0,3.71,7.21-1.85,7.21-.74.38,2,3,1.49,3.25.14,4.56.16a26.87,26.87,0,0,0,6.81-1.09c2.37-.75,5-1.67,6.63-.37s1,2,6.88,1.46a43.5,43.5,0,0,1,10.16.18"/><path class="cls-5" d="M481.27,175.47c5.43-.84,17.45-5.53,14-5s-10.08,3.65-1.55,3.83,10.47-2.26,12.79-3,10.47,0,11.63,0-6.59,1.32,0,1.62,7.23-.65,9.82,0,6.85,0,6.85,0,1.21,1,7.39,1.16,10.83,0,10.83,0"/><path class="cls-5" d="M482.51,234.25c4.62-.89,14.84-5.9,11.88-5.34s-8.58,3.9-1.32,4.08,8.9-2.41,10.88-3.16,8.9,0,9.89,0-5.61,1.41,0,1.73,6.15-.69,8.35,0,5.83,0,5.83,0,1,1.06,6.29,1.25,9.21,0,9.21,0"/><path class="cls-5" d="M481.27,204.12c4.59-.89,14.75-5.9,11.8-5.34s-8.52,3.9-1.31,4.08,8.85-2.41,10.81-3.15,8.85,0,9.83,0-5.57,1.4,0,1.72,6.11-.69,8.3,0,5.79,0,5.79,0,1,1.06,6.25,1.25,9.15,0,9.15,0"/><path class="cls-5" d="M479.63,185.32c4.54-1.11,5.44-4.66,8.47-3.55s6.65.46,7.55-.21a13.47,13.47,0,0,1,5.14-1.79c1.21,0,0,1.33,0,2.78s3.93.55,4.84,0,2.41-1.22,3.47,0l1.06,1.22s2.12,0,2.72-1.22a4.91,4.91,0,0,1,5.44-2.78c3,.67-.91,1.43,1.21,2.72s2.72-2.72,4.83-.94,0,2.66,1.82,2.66,11.29-1.53,15.71-.44"/><path class="cls-5" d="M481.27,194.69s13.77-.64,16.39-1.38,1.31-2.6,4.91-1.86,5.9-.71,9-.17,11.21,0,7.7-1.31-10.11,3.16-2.6,3.34,10.79-.54,11.45-1.1,4.61,1.1,4.61,1.1,4.24-1.47,6.2-1.1,10.16,1.29,10.16,1.29"/><path class="cls-5" d="M478.89,222.63s13.85-.64,16.48-1.38,1.32-2.6,4.95-1.86,5.94-.71,9.07-.17,11.28,0,7.75-1.31-10.18,3.15-2.62,3.34,10.86-.54,11.52-1.11,4.64,1.11,4.64,1.11,4.26-1.47,6.24-1.11,10.22,1.3,10.22,1.3"/><path class="cls-5" d="M369.47,76.24A34.58,34.58,0,1,0,311.9,91.87l-.07,4.57,30.43,8.25,2.24-4A34.58,34.58,0,0,0,369.47,76.24Z"/><path class="cls-5" d="M328.83,130.71l-18.56-5a4.93,4.93,0,0,1-3.57-5.58l4-24L343.35,105l-8.62,22.7A4.93,4.93,0,0,1,328.83,130.71Z"/><path class="cls-5" d="M329.07,131.23c-.89,3.25-5.91,4.71-11.23,3.27s-8.91-5.25-8-8.5"/><polyline class="cls-5" points="317.62 70.81 325.36 72.91 332.94 64.06 333.26 85.1 343.86 69.3 344.73 77.74 350.32 79.25"/><line class="cls-5" x1="351.38" y1="20.82" x2="362.01"/><line class="cls-5" x1="381.95" y1="42.5" x2="398.93" y2="36.67"/><line class="cls-5" x1="381.34" y1="81.88" x2="397.11" y2="84.27"/><line class="cls-5" x1="312.22" y1="27.18" x2="303.66" y2="2.39"/><line class="cls-5" x1="289.5" y1="67.98" x2="277.73" y2="66.2"/><path class="cls-5" d="M199.12,118.67c4.53-.88,7.35-5.1,12.28-4.4l.7.7L210,117.09c2.82,2.11,5.64,0,8.45,0,.71,0,.71,1.41,1.41,1.41,6.34.7,12.68-.71,19-1.41a9.27,9.27,0,0,0,9.18,1.64"/><path class="cls-5" d="M198.89,140.67c4.76-.34,8.29-3.16,12.51-5.27-2.11,1.4-4.22,0-5.63,2.81,4.22,2.82,9.86,0,14.08-1.41,3.52-1.4,7-.7,10.47-.53-1.31.59-3.08-.25,0,0-1.31.59-3.75,1.26-.82,1.65s6.3-.85,9.07.05"/><path class="cls-5" d="M197.65,110.54c4.59-.89,14.74-5.91,11.8-5.35s-8.52,3.9-1.32,4.08,8.85-2.41,10.82-3.15,8.84,0,9.83,0-5.57,1.4,0,1.72,6.11-.69,8.3,0,5.79,0,5.79,0,1,1.06,6.24,1.25,22.37,1,22.37,1"/><path class="cls-5" d="M197.65,101.1s13.76-.63,16.38-1.38,1.31-2.6,4.92-1.85,5.9-.72,9-.18,11.21,0,7.7-1.31-10.12,3.16-2.6,3.34,10.79-.54,11.45-1.1,4.6,1.1,4.6,1.1,4.24-1.47,6.21-1.1,10.16,1.29,10.16,1.29"/><path class="cls-5" d="M195.26,129s13.85-.64,16.49-1.38,1.32-2.6,4.95-1.86,5.93-.71,9.07-.17,11.27,0,7.74-1.31-10.17,3.16-2.61,3.34,10.86-.54,11.52-1.1,4.63,1.1,4.63,1.1,4.27-1.47,6.25-1.1,10.22,1.29,10.22,1.29"/><path class="cls-6" d="M345.63,160.53s4.71-37.51,30.82-29.15,32.7,37.9,28.62,64.58.55,31.57.55,31.57-7.52-8.67-4.88-27.69c0,0-4,21.34-.37,29.85,0,0-1.9,4.27-7.53,2.93,0,0-9.5-22.47-9.43-43.36S345.63,160.53,345.63,160.53Z"/><g class="cls-3"><path class="cls-7" d="M356.54,150.64s3.85-17.56,19.37-16.42"/><path class="cls-7" d="M367.79,157.1s4.81-11.61,13.77-11,18.23,17.5,17.47,31.52-7.5,34.26-1.39,49.79"/><path class="cls-7" d="M374.43,164.14s11-3.18,13.87,7.05,0,33.29,0,33.29"/></g><path class="cls-8" d="M343.1,157.48s.91-5,8.89-3.42,23.4,9.11,15.8,15.73S343.1,157.48,343.1,157.48Z"/><path class="cls-9" d="M238.71,359.87c18.62,10,38.13-.31,38.13-.31C292.17,369.84,300,368,300,368l38.53,63.8,168.36-3.31s1.77-44.53,0-59.23c-9.16-76.16-46.87-91.64-86.45-101.39s-80.33-8.19-112.83.47c-44.25,11.79-68.94,35.56-68.94,35.56s-22.92,4.61-28,17.86C210.71,321.76,228.29,354.29,238.71,359.87Z"/><g class="cls-10"><path class="cls-11" d="M477.14,395.74,306.36,378.46,300,368s-7.87,1.84-23.2-8.44c0,0-13.12,6.92-28.1,3.91,22.27-23.61,4.12-46,4.12-46a16.75,16.75,0,0,1,10.54,10.1s-.09-11.84,3.09-10.1,13.24,20.32,13.24,20.32c-5-44.61,12.44-49.77,12.44-49.77-10.81,32,15.37,77.4,55.49,87.28s91.65,4.91,91.65,4.91c-4.57-5.72-3.32-16.78-3.32-16.78,3.91,4.57,18.82,11.87,18.82,11.87-5.94-14.73,5.92-26.15,5.92-26.15Z"/><path class="cls-11" d="M424.53,303.9c-28,31.07-67.35,10.42-67.35,10.42-28.33,10-38.58-18.56-38.85-21.18-1.34-13.42,4.92-23,14.57-29.82a236.62,236.62,0,0,1,87.59,4.55q4.23,1,8.42,2.2C434.49,279.66,435.78,291.42,424.53,303.9Z"/></g><path class="cls-5" d="M238.71,359.87c18.62,10,38.13-.31,38.13-.31C292.17,369.84,300,368,300,368l38.53,63.8,168.36-3.31s1.77-44.53,0-59.23c-9.16-76.16-46.87-91.64-86.45-101.39s-80.33-8.19-112.83.47c-44.25,11.79-68.94,35.56-68.94,35.56s-22.92,4.61-28,17.86C210.71,321.76,228.29,354.29,238.71,359.87Z"/><path class="cls-1" d="M344.59,317.82s-15.53-4.31-7-29.54,17-42.31,42.1-42,43.12,21.82,44.68,30.24-9.61,37.62-32.77,46.69"/><path class="cls-5" d="M292.17,345.71S283,315.86,290,300.61"/><g class="cls-12"><path class="cls-5" d="M358.15,347.71a110.43,110.43,0,0,0,3.64,25.88"/><path class="cls-5" d="M359.22,335.59a38.11,38.11,0,0,0-.89,6.29"/><path class="cls-5" d="M382.18,374.09c.42,1.27.87,2.52,1.38,3.75"/><path class="cls-5" d="M374.43,337.75c2.93,10.75,2.93,22.27,6.47,32.12"/><path class="cls-5" d="M393,335.59s14.29,30.81,16.72,45"/><path class="cls-5" d="M416.56,339.21c6.35,14,12.18,28.48,15.53,43.5"/><path class="cls-5" d="M411.19,328c1.17,2.29,2.29,4.61,3.38,6.94"/><path class="cls-5" d="M345.63,330.43A134.59,134.59,0,0,0,340,372.88"/><path class="cls-5" d="M323.64,333.67A91.43,91.43,0,0,0,319.12,368"/><path class="cls-5" d="M331,319.18a44.07,44.07,0,0,0-5.35,9.39"/><path class="cls-5" d="M315.44,304s-15.4,17.63-17.27,38.3"/><path class="cls-5" d="M440,336.06a61.26,61.26,0,0,1,2.85,6.22"/><path class="cls-5" d="M417,308.46a93.31,93.31,0,0,1,20.5,23.35"/><path class="cls-5" d="M427.6,292.59s17.33,2.88,24.93,12.91"/><path class="cls-5" d="M427.6,276.54s12.56-1.43,22.94,3.59"/><path class="cls-5" d="M306.22,289.22a23.13,23.13,0,0,1,6.18-.94"/><path class="cls-5" d="M294.86,294.56a43,43,0,0,1,6.84-3.71"/><path class="cls-5" d="M290.6,288c-7.38-.72-33.27,18.6-33.27,18.6a14.87,14.87,0,0,0-12.4,4.67"/><path class="cls-5" d="M283.53,321.25,275,326.17s-4.62,7.73-11.62,7.5"/><path class="cls-5" d="M287.42,349.11s-3.89,2.37-6.93,1.72c0,0-13.3,9.38-20.79,6"/></g><g class="cls-12"><path class="cls-5" d="M359.22,313.4s-3.36,4.26,2.57,9.73"/><path class="cls-5" d="M379.21,319.36a10.29,10.29,0,0,1,.5,3.77"/><path class="cls-5" d="M374.26,311.25a25.87,25.87,0,0,1,3.15,4.2"/><path class="cls-5" d="M388.3,302.16s6.72,1.52,9.34,11.24"/><path class="cls-5" d="M410.82,294.82a22.33,22.33,0,0,1,2.06,5.79"/><path class="cls-5" d="M399,286.23a15.54,15.54,0,0,1,8.6,4.31"/><path class="cls-5" d="M401.31,267.87s10.18-5.83,18.39,6.93"/><path class="cls-5" d="M393,255.6c1.48-1.94,4.23-2.56,6.54-2.67"/><path class="cls-5" d="M345.63,313.4s-1.59-5,2.34-7.9"/></g><path class="cls-13" d="M591.16,429.38c-15.14,19-164.23,13-171.76,8.1s-17.16-7.19-17.16-7.19-35.32,4.45-42,.62-20.67-2.43-20.67-2.43L306.32,442,127.91,418.35l42.64-14.74s-26.3-2.71-31.4-11.8,29-34.54,29-34.54L297.39,373l-46.67,4L226,388.32l64.75,12.28,72.57-2.9,133.17-.48,102.26,12.43C598.94,415,597.25,421.74,591.16,429.38Z"/><line class="cls-5" x1="101.13" y1="349.11" x2="619.31" y2="412.15"/><polygon class="cls-1" points="317.65 437.09 148.18 415.02 209.15 388.32 378.62 410.4 317.65 437.09"/><path class="cls-14" d="M286.16,398.36l-47.44,24.46L157.8,412.7l-3.52-3.65,3.38-1.57h0l47.66-22.08A81.47,81.47,0,0,1,247,383.34a147.84,147.84,0,0,1,34.11,12.27C284.35,397.26,286.16,398.36,286.16,398.36Z"/><g class="cls-15"><path class="cls-11" d="M286.16,398.36l-47.44,24.46L157.8,412.7l-3.52-3.65,3.38-1.57h0a92.46,92.46,0,0,1,28-1c19.11,2.4,41.11,9.83,41.11,9.83s5.74,4.12,8.47-.86,15.62-5,22.06-7c6.2-2,16.13-11.35,23.77-12.85C284.35,397.26,286.16,398.36,286.16,398.36Z"/></g><path class="cls-5" d="M286.16,398.36l-47.44,24.46L157.8,412.7l-3.52-3.65,3.38-1.57h0l47.66-22.08A81.47,81.47,0,0,1,247,383.34a147.84,147.84,0,0,1,34.11,12.27C284.35,397.26,286.16,398.36,286.16,398.36Z"/><path class="cls-14" d="M374.26,404.66l-3.36,4.74-52.22,23.82-80-10.4,4.86-2.51,42.58-21.95a108.79,108.79,0,0,1,33.93-5c17.43.07,50.07,10.06,53.81,11.23Z"/><g class="cls-16"><path class="cls-11" d="M374.26,404.66l-3.36,4.74-52.22,23.82-80-10.4,4.86-2.51c10.34-2.47,24.64-4.75,36.14-2.78a278.76,278.76,0,0,1,38,9.53s42.66-18.14,56.2-22.51Z"/></g><path class="cls-5" d="M374.26,404.66l-3.36,4.74-52.22,23.82-80-10.4,4.86-2.51,42.58-21.95a108.79,108.79,0,0,1,33.93-5c17.43.07,50.07,10.06,53.81,11.23Z"/><path class="cls-5" d="M238.71,422.83s12.09-4.87,34.1-5.45,44.89,9.68,44.89,9.68l52.81-21.42"/><path class="cls-5" d="M252.86,421.19a250.05,250.05,0,0,1,65,9.24L340,421.11"/><path class="cls-5" d="M154.28,409.05s12.61-5.46,42.83-1.35,40.2,13.41,40.2,13.41"/><path class="cls-5" d="M156.51,411.37s13.32-3.37,38,0,39.9,9.74,39.9,9.74"/><g class="cls-12"><path class="cls-5" d="M244.51,414.11s-5.08-.1-4.42-2-5-1.63-6.72-3.23-4.25-1.86-5.62-2.75,2.05-1-2.73-2.56-6,1-10.79-.69,2.64-1.82-4.26-2.31-3.33.34-9.76,0-6,1.48-7.79,0-18.21,1.58-18.21,1.58"/><path class="cls-5" d="M254.06,409.42l-3.85-1.73c-.51-.23-1.08-.54-1.18-1.08-.06-.34.08-.71-.09-1s-.59-.35-.93-.37l-3.47-.16a4.38,4.38,0,0,0-3.16-2.22,39.44,39.44,0,0,1-3.92-.8,16.09,16.09,0,0,1-2.46-1.22A39.43,39.43,0,0,0,216.32,396l1.61-1.2a29.1,29.1,0,0,0-13.22,1.42,2,2,0,0,0,.66-1.52L190.53,396"/><path class="cls-5" d="M263.77,405.49a2.22,2.22,0,0,1-2.32-2.35,1.33,1.33,0,0,0,0-.84c-.23-.4-.83-.3-1.28-.42-1.19-.3-1.25-2-2.16-2.87a3.64,3.64,0,0,0-1.89-.72l-9.32-1.64a3.2,3.2,0,0,1-1.7-.65c-.38-.37-.57-.9-.94-1.27a3.47,3.47,0,0,0-2.43-.72l-9-.34a4,4,0,0,1-1.92-.38,1.41,1.41,0,0,1-.73-1.65c-3.57-1.54-7.57-1.68-11.46-1.74q-7.2-.12-14.42,0"/><path class="cls-5" d="M263.28,413.3a40.47,40.47,0,0,1,11.19-2.36,2.42,2.42,0,0,1,1.14.12c.34.17.58.48.9.68a3.17,3.17,0,0,0,1.73.34l9.87.12c.07.3.13.6.2.9h10.56l.22.93,9.16-.1a1.24,1.24,0,0,1,.74.15,2.05,2.05,0,0,1,.46.75c.54,1,1.89,1.14,3,1.25a19.28,19.28,0,0,1,8.21,2.81"/><path class="cls-5" d="M276.9,406.65l6-1.5a1.08,1.08,0,0,1,.73,0c.29.14.4.48.62.71a1.77,1.77,0,0,0,1.32.34,15.49,15.49,0,0,0,5.08-1.08,11.23,11.23,0,0,1,2.15-.76,9.26,9.26,0,0,1,3.92.49,35.37,35.37,0,0,0,7.45,1.1c1.64.05,3.28,0,4.91.16a35.33,35.33,0,0,1,5.18,1.09l6.84,1.79c4.2,1.11,8.5,2.25,12,4.75"/><path class="cls-5" d="M285.66,401.43l5.68-.33a13.75,13.75,0,0,1,6.45-2.12,26.88,26.88,0,0,1,4.39.18l5.62.54a47.33,47.33,0,0,0,8.9.29c0,.77,1,1,1.81,1l4.71-.18a2,2,0,0,0,.8,1.74,3.84,3.84,0,0,0,1.31.57,30.53,30.53,0,0,0,10.92,1.16,2.8,2.8,0,0,1,1.44.14,6.67,6.67,0,0,1,.88.71,5,5,0,0,0,2,.73,16.54,16.54,0,0,1,6.5,3.15l-.23-1.52"/><path class="cls-5" d="M357.92,404.47c-1.76,1-3.65-1-5.45-1.94s-3.84-.83-5.81-1c-4.51-.39-8.75-2.25-13.17-3.23a68.65,68.65,0,0,0-10.41-1.25l-11-.76"/></g><path class="cls-9" d="M259.7,347.52c-5.86,20.37-33.1,29.85-33.1,29.85s-36.79,14-39.2-20.44c0,0,1.83-16.81,12.81-23.07,0,0,8-15.84,20-22.61"/><g class="cls-17"><path class="cls-11" d="M252.17,360.65C242,372,226.6,377.37,226.6,377.37s-36.23,13.77-39.14-19.66l3.67-6.88s2.18-14.31,13.85-14.77,21.4,3.35,23.54,17.75c1.72,11.7-1.78,15.64-3.14,16.71,2.32-1.61,11.39-9.33,5.26-28a6.68,6.68,0,0,1,8.08,3.16c2.82,5-1.26,23.06-1.4,23.68A119,119,0,0,0,252.17,360.65Z"/></g><path class="cls-5" d="M259.7,347.52c-5.86,20.37-33.1,29.85-33.1,29.85s-36.79,14-39.2-20.44c0,0,1.83-16.81,12.81-23.07,0,0,8-15.84,20-22.61"/><path class="cls-5" d="M241.32,317.43s21.06,7.22,14.86,31.34"/><path class="cls-2" d="M226.55,358.8c-.88,10.46-9.63,12.85-9.63,12.85l-5.35,3.61-13.25,7.29,1.89,4.47c10,0,11,2.92,10,6s-14.79,4.65-17.2,5.16-13.77-3.27-16.86-4.47-4.07-7.36-4.07-7.36l-2.13-25.16A14.59,14.59,0,0,1,176,353s2.7-5.24,5.62-6.44,11.78.93,11.78.93,7.62-11.71,19-9.49C223.61,340.19,227.08,352.55,226.55,358.8Z"/><path class="cls-5" d="M193.41,347.52a82.11,82.11,0,0,1,8.87,2.51"/><polygon class="cls-1" points="206.61 391.27 212.88 397.73 210.67 389.01 165.61 308.46 161.55 310.73 206.61 391.27"/><path class="cls-1" d="M164.38,317.55l-5.86-10.48s.33-1.18,2.35-2.31a4.79,4.79,0,0,1,3.25-.82l11.3,20.21a5.69,5.69,0,0,0-3.24.82,4.07,4.07,0,0,0-2,2.12l8.65,15.46-1.5-.16L164.23,319Z"/><path class="cls-14" d="M181.12,360.35s7.91,4.65,10.32,8.26c0,0,11.7,6.65,11.7,11.7,0,4.39-2.93,4.58-2.93,4.58s4,2.39,4.65,5.44-1.72,5.66-2.41,5.39-23.92-6.29-29.42-8.87-9.29-5.85-4.3-20.82a19.78,19.78,0,0,1,1.2-4.82c.86-1.89,5.34-6.42,5.34-6.42"/><path class="cls-5" d="M181.12,360.35s7.91,4.65,10.32,8.26c0,0,11.7,6.65,11.7,11.7,0,4.39-2.93,4.58-2.93,4.58s4,2.39,4.65,5.44-1.72,5.66-2.41,5.39-23.92-6.29-29.42-8.87-9.29-5.85-4.3-20.82a19.78,19.78,0,0,1,1.2-4.82c.86-1.89,5.34-6.42,5.34-6.42"/><path class="cls-5" d="M171.14,369.84c.86,2.73,10.87,5.14,14.55,7.89s14.52,7.16,14.52,7.16"/><path class="cls-14" d="M213.63,354.79s4.82,1.83,6.65,5.5,2.07,10.33,0,12.16S208.81,383,207.44,384.61s-8.95-3.67,0-14.91c0,0-.23-6.19,1.37-8.26"/><path class="cls-5" d="M213.63,354.79s4.82,1.83,6.65,5.5,2.07,10.33,0,12.16S208.81,383,207.44,384.61s-8.95-3.67,0-14.91c0,0-.23-6.19,1.37-8.26"/><path class="cls-5" d="M221.75,334.93s9.8,2.26,11.32,15.9-2.74,22-12.85,26.54"/><g class="cls-12"><path class="cls-5" d="M224.67,321.81c2.49-2.87,5.75-5.91,9.7-6.36"/><path class="cls-5" d="M218,331.81a54.84,54.84,0,0,1,3.43-5.7"/><path class="cls-5" d="M234.37,343.85s14.81-2,20.28-8.26"/><path class="cls-5" d="M246.42,361.53a20.07,20.07,0,0,0,7.09-5.38"/><path class="cls-5" d="M234.37,365.1a43,43,0,0,0,7.19-1.64"/></g><path class="cls-9" d="M457.91,284.76c24.25,1.37,72.76,50.6,83.71,62.76s28.85,30.34,34.62,44.72c8.8,21.95-13.3,42.14-35.21,41s-67.48-48.33-67.48-48.33-34.77-32.4-25.21-61.66"/><g class="cls-18"><path class="cls-11" d="M520.93,366s-36.24,12.4-52.43,13.59c-1.76-2-3.84-4.4-6-7.24-2.76-6.65-7.6-20.38-1.17-21.56,8.51-1.56,6.73,13.24,11.55,20.33,0,0,8.21-19.55,19.16-19.5s6.37,13.43,6.37,13.43S517.29,359.4,520.93,366Z"/><path class="cls-11" d="M541,433.22c-3.81-.2-8.32-1.79-13.19-4.28,17.83-2.42,34.88-6.53,39.89-15.3s2.27-26.49-2.53-39.24c4.76,6.14,8.8,12.27,11,17.84C585,414.19,562.94,434.38,541,433.22Z"/></g><path class="cls-5" d="M457.91,284.76c24.25,1.37,72.76,50.6,83.71,62.76s28.85,30.34,34.62,44.72c8.8,21.95-13.3,42.14-35.21,41s-67.48-48.33-67.48-48.33-34.77-32.4-25.21-61.66"/><path class="cls-5" d="M432.09,358.82s11.22,16.82,36.9,21.36"/><path class="cls-2" d="M434.76,391.26l-19.95.26s-27.11-8.74-30.66-11-26.54,9.16-29.33,10.37a21.81,21.81,0,0,0-5.11,3.28,19.79,19.79,0,0,1-4.41,3.18c-2,.91-5.36,6.3-5.36,6.3s-8.76,2.08-5.5,4.6,14,1.06,18.09-.24,11.74-.15,11.74-.15,11.33,16.79,41.2,10.53L435.16,421"/><path class="cls-5" d="M339.94,403.61s7.57-2.88,11.24-4.5,14-2.73,14-2.73-1.19-5.07,3.65-6.89,5.58-5.36,5.58-5.36"/><path class="cls-5" d="M349.71,394.13s9.74-3.34,12.08-3.37"/><path class="cls-11" d="M462.24,379.16l0,0a9.36,9.36,0,0,1,2.33.42,3.94,3.94,0,0,0,.49.14A8.67,8.67,0,0,1,462.24,379.16Z"/><path class="cls-11" d="M520.93,366s-25.81,8.83-43.59,12.31c11.68-3,28.25-9.35,43.59-12.32Z"/><path class="cls-9" d="M526.55,365.1c-24,3.25-53.17,17.41-62,14.45s-29.8,10-29.8,10l-12.32.16s-9.12,20.21-3.65,34.85l12.8,1.25s-.94,8.1,32.54,10.26S559.7,440.8,571.8,419"/><g class="cls-19"><path class="cls-11" d="M571.8,419c-12.1,21.8-74.21,19.26-107.69,17.1s-32.53-10.26-32.53-10.26l-9.54-.93c-.26-7.58.58-21.82,10-26.66,0,0-1.59,21.3,0,24.31s45.39,11.51,69.08,9.23c23.53-2.25,58.42-4.82,66.39-17.85Z"/></g><path class="cls-5" d="M526.55,365.1c-24,3.25-53.17,17.41-62,14.45s-29.8,10-29.8,10l-12.32.16s-9.12,20.21-3.65,34.85l12.8,1.25s-.94,8.1,32.54,10.26S559.7,440.8,571.8,419"/><path class="cls-5" d="M479.77,377.84c.66-.34,6.78-15.53,13.18-16.88"/><path class="cls-5" d="M431.57,425.84c0-1.49-4.18-21,.51-27.59"/><path class="cls-5" d="M455.87,315.45s5.86-16.11,21.47-17.74"/><g class="cls-12"><path class="cls-5" d="M484,338.49c.52,1.94-.63,4.25,2.83,5.4,8.07,1.15,11.52,6.91,16.13,12.68a18.84,18.84,0,0,1,6.39,4.39"/><path class="cls-5" d="M465,313.4a90.5,90.5,0,0,1,16.58,20.65"/><path class="cls-5" d="M450.79,395.46c-2.68.87-5.35,1.79-8,2.79"/><path class="cls-5" d="M537.67,375.46c-24.31,12.22-50.82,11.07-77.33,16.83-1.15,0-3.46,1.16-5,1.76"/><path class="cls-5" d="M479.77,302.16c10.54,4.85,18.6,14.07,26.67,22.14,8.07,10.37,15,21.89,27.66,27.66,3.46,2.3,6.92,5.76,6.92,11.52,1.15,2.31,5.76,4.61,1.38,9.21"/><path class="cls-5" d="M510.92,406.05c-22.92,3.53-46,10.45-69.55,7.22"/><path class="cls-5" d="M563.17,378.35c3.59,17.39-19.14,20.78-31.22,23.43q-8.44,1.86-16.93,3.48"/><path class="cls-5" d="M452.82,429.38A52.5,52.5,0,0,1,440,425.84"/><path class="cls-5" d="M574.72,402.19C574.44,413,564.07,418.8,556,421.11c-32.27,11.52-65.69,10.37-98.84,8.88"/><path class="cls-5" d="M462.67,347.48c4.16,4.34,9.58,6.52,11.58,12.61,1.23,3.72,2.39,8.27,6.85,9.31"/><path class="cls-5" d="M452.53,330.43a54.69,54.69,0,0,0,7.12,13.42"/></g><path class="cls-2" d="M359.22,308.46c-.14-.18-.3-.37-.46-.55-4.83-5.66-16.55-9.75-20.11-10.89l-1-.33s8.15-60.63,46.89-41.08S364.55,315.47,359.22,308.46Z"/><path class="cls-6" d="M358.76,307.91c-4.83-5.66-16.55-9.75-20.11-10.89.68-1.84,1.29-3.07,1.29-3.07l34.48-20.78S375.37,297.19,358.76,307.91Z"/><path class="cls-2" d="M388.3,235.6c-.92-52.12-36.29-89.32-82.76-62.54-38,21.88-33.89,63.52-13,84.89,12.38,12.64,2.48,24.66,21.86,41,6.59,5.57,23.32,11.75,29.14,9.87,20.49-6.64,37.28-29.31,34.28-38.61"/><path class="cls-5" d="M311.24,243.28s7.78-10,23.06-7.46"/><path class="cls-5" d="M294.86,248.59s-7.8-2.74-8.51.31"/><ellipse class="cls-6" cx="328.4" cy="250.08" rx="1.95" ry="3.25" transform="translate(-84.24 239.47) rotate(-35.82)"/><path class="cls-6" d="M302.07,258c1.05,1.46,1.19,3.15.32,3.78s-2.44,0-3.49-1.49-1.19-3.15-.32-3.78S301,256.52,302.07,258Z"/><path class="cls-2" d="M302.81,255.6c3.66,3.08,8.16,7.66,4.08,16.43s6,9.78,11.44,6.06"/><path class="cls-2" d="M322,276.54s3.56-3.28-2.18-6.75"/><path class="cls-2" d="M319.12,287.63c1,1.74,6.4-.5,8-.85a42.69,42.69,0,0,1,4.2-2.52c1.53-.73,6.12-3.09,6.33-5.78"/><path class="cls-2" d="M322.77,290.78c4.82,4.69,13.18-.44,14.84-7.42"/><path class="cls-6" d="M325.07,158.86c-33.41,6.2-51.62,28.65-52,48.78,0,0-12.66,23.73-2.85,41,0,0,.49-.6,1.28-1.41a60.23,60.23,0,0,1-.7-8.68,42.8,42.8,0,0,1,.86-8.68,27.73,27.73,0,0,1,3.18-8,27.26,27.26,0,0,0-2.5,8.16,41.66,41.66,0,0,0-.15,8.5,55,55,0,0,0,1.09,7.11c1.84-1.52,4.25-3,6.51-2.76a19,19,0,0,0,3.11.06c-.47-2.36-.87-4.74-1.13-7.13a64.08,64.08,0,0,1-.32-8.31,39.79,39.79,0,0,1,1.21-8.16,39.6,39.6,0,0,0-.17,8.14,62.66,62.66,0,0,0,1.33,8c.58,2.38,1.28,4.71,2.06,7a19.32,19.32,0,0,0,7.35-3.57,8.7,8.7,0,0,1,2-1.14c-.18-1.15-.34-2.31-.46-3.48a59.66,59.66,0,0,1-.34-9.82,33.64,33.64,0,0,1,1.86-9.53,32.76,32.76,0,0,0-.12,9.48,57.69,57.69,0,0,0,2,9.19c.39,1.33.83,2.64,1.3,3.94a9.93,9.93,0,0,0,4.23.3c2.52-.55,5.09-.36,7.49-1.34-.29-.82-.59-1.64-.86-2.47a62.81,62.81,0,0,1-2-8.76,43.16,43.16,0,0,1-.31-8.94,42.06,42.06,0,0,0,1,8.82,61.36,61.36,0,0,0,2.64,8.42c.3.74.64,1.46,1,2.18a7.93,7.93,0,0,0,1.55-1.3c3.16-3.33,7.81-5.61,10.58-4.19a16.48,16.48,0,0,0,1.8.77c-.1-.32-.21-.64-.31-1a90.2,90.2,0,0,1-2.12-9.28,56.44,56.44,0,0,1-.69-9.44,54.89,54.89,0,0,0,1.71,9.22,90.13,90.13,0,0,0,3.07,8.82c.33.78.68,1.54,1,2.32,2.2.28,4.31-.22,5-2.62a2.71,2.71,0,0,1,.94-1.5c-.17-.43-.33-.87-.5-1.31a67.73,67.73,0,0,1-2.12-6.9,58.27,58.27,0,0,1-1.35-7,54.48,54.48,0,0,1-.48-7.09,54.69,54.69,0,0,0,1.5,6.88,56,56,0,0,0,2.31,6.6,64.16,64.16,0,0,0,3,6.26c.46.85.95,1.7,1.46,2.54a12.77,12.77,0,0,1,2.18,1s-5.94-14.77-4.77-29c0,0,7.15,30.41,28.83,41.48l4.54,8.08s7.73-6.34,13.82-.61,8.25,1.83,8.25,1.83,9.6-18.72-1.91-54.25S351.73,153.91,325.07,158.86Z"/><path class="cls-2" d="M379.45,258.77s-.43,3,3.2,3.28,6.71-7.3,8.52-21.07c1.93-14.62-2.55-23.4-11.24-23.49s-11.06,9.14-11.79,14.47a39.06,39.06,0,0,0,.55,13.58"/><path class="cls-8" d="M385.57,256.84a2,2,0,1,1-2-2A2,2,0,0,1,385.57,256.84Z"/><path class="cls-2" d="M333.17,280.5s-5.29,1.33-6.61,1.77-2.78,2.49-2.78,2.49-3.24.08-3.95,1.47"/><g class="cls-3"><path class="cls-7" d="M319.83,189.39s-6.48,13.45-3.68,32.83"/><path class="cls-7" d="M307.63,189.39s-13.54,17.47-5.79,42.36"/><path class="cls-7" d="M286.35,235.41c.22-1.11-6.62-27.33,5.46-41"/><path class="cls-7" d="M268.79,231.75s3.39-25.47,15.83-34.6"/><path class="cls-7" d="M338.65,189.39s14.74,24.85,34.1,23.48"/><path class="cls-7" d="M345.63,181.71s18.47,16.57,34.08,12.7"/></g></svg>