<svg id="Layer_1" data-name="Layer 1" xmlns="http://www.w3.org/2000/svg" viewBox="0 0 720.44 448.2"><defs><style>.cls-1{opacity:0.2;}.cls-2{fill:#2dd4bf;}.cls-3{fill:#1a2e35;}.cls-3,.cls-4,.cls-5,.cls-6,.cls-7,.cls-8{stroke:#1a2e35;}.cls-3,.cls-4,.cls-5,.cls-6,.cls-7,.cls-8,.cls-9{stroke-miterlimit:10;}.cls-4{fill:#fff;}.cls-5{fill:#14b8a6;}.cls-6{fill:#e0e0e0;}.cls-7{fill:#b8b8b8;}.cls-8,.cls-9{fill:none;}.cls-9{stroke:#fff;}</style></defs><g class="cls-1"><path class="cls-2" d="M687,103A192,192,0,0,0,618,43.41C581.11,24.68,522.83-.76,479.53,0,411.22,1.24,257.47,85.14,177.16,101.1S-21.27,176.65,3.3,297.94,93.06,455.42,217.79,439.46,386.93,407.54,488,427.76s217.32,6.38,229.61-138.33C726.63,183.49,713.34,139.71,687,103Z"/></g><path class="cls-3" d="M77.7,107.56l2.69,32.86S57,136.58,50.75,149,44.53,193.94,59,211.21c10.45,12.45,21.62,7.32,27.05,3.48l2.82,35.91c0,13.41,25.76,38.11,57.54,38.11S204,264,204,250.6l11.21-143ZM67.33,196.7c-9-7.6-4.14-40.77,0-44.91,3.08-3.08,10.33-.83,13.88.53l3.7,47.3C80.28,200.79,73,201.48,67.33,196.7Z"/><ellipse class="cls-4" cx="146.45" cy="107.56" rx="68.75" ry="29.02"/><ellipse class="cls-4" cx="146.45" cy="107.56" rx="61.17" ry="25.82"/><ellipse class="cls-5" cx="146.45" cy="125.93" rx="42.98" ry="7.45"/><path class="cls-3" d="M389.61,184s32.7,77.67,40.57,81.77,238.58-15.92,238.58-15.92l-6.54-7.28-.32-50.27,8.63-.38L582.4,75.81,383.23,90.35s-10.68,7.41-12.11,13.81-1.1,16.07-1.1,16.07Z"/><path class="cls-6" d="M661.9,192.26,435.56,210.49a27.85,27.85,0,0,0-12.31,20.24c-1.66,14.12,4.06,28.47,8.3,30.53a27.72,27.72,0,0,0,9.77,2.23l220.9-21Z"/><path class="cls-5" d="M431.6,16.85,340.31,142.91s-5,4.9-4.74,16.9.85,31.61,4.43,33,267.72,21.42,267.72,21.42l61-140.87-4.77-2,1.66-34.68,4-11.25L438.31,14.53Z"/><path class="cls-4" d="M348.52,146.49s-8.26-2.55-10.6,5.39,3.42,36.71,3.42,36.71,4.93,2,7.2,2.12S605,207.57,605,207.57L663.94,71.3l1.66-34.68-56.37,122.1Z"/><path class="cls-6" d="M603.4,158.45l-254.88-12s-8.26-2.55-10.6,5.39,3.42,36.71,3.42,36.71,4.93,2,7.2,2.12S605,207.57,605,207.57l-.35-48Z"/><path class="cls-5" d="M382.76,404.75s9.34,13.47,19.1,13.25c65.07-1.44,177.26,29.7,190.29,29.7s22.69-1.16,22.69-3.92-45.79-184-45.79-184L560,257.05l31.19,176.86s-38.69-5.53-116.86-18.55-75-24-84.43-22.06S382.76,404.75,382.76,404.75Z"/><path class="cls-3" d="M601.42,443c-13.42-.79-39.53-7.59-103.94-20.81s-112.75-21.24-112.75-21.24l-1.36,4.65c2.23,2.93,10.21,12.6,18.49,12.41,65.07-1.44,177.26,29.7,190.29,29.7s22.69-1.16,22.69-3.92C614.84,443.55,608.12,443.38,601.42,443Z"/><path class="cls-5" d="M171.94,252.76s-4.73,1.58-5.52,5.13-46.19,185.55-41.85,185.94,243.58,2,246.35-.79,11.84-38.29,11.84-38.29L362.63,432,155,426.86,179.84,257.1Z"/><path class="cls-3" d="M370.92,443c2.76-2.76,11.84-38.29,11.84-38.29l-1.33,1.8L368.94,438.7,127,441.82l-2.42,2C128.91,444.23,368.15,445.81,370.92,443Z"/><polygon class="cls-4" points="177.47 250.39 171.94 252.76 133.65 437.91 368.94 438.7 384.73 398.04 163.65 408.7 184.18 249.99 177.47 250.39"/><polygon class="cls-6" points="149.44 414.62 138.72 432.46 133.65 437.91 368.94 438.7 384.73 398.04 163.65 408.7 149.44 414.62"/><polygon class="cls-7" points="384.73 398.04 384.73 361.72 194.84 382.64 180.63 407.51 384.73 398.04"/><path class="cls-6" d="M186.16,230.25l-5.53.79L149.44,414.62s25.66-2,60.4-10.27S315.25,383.43,338.94,387s43.82,17.77,43.82,17.77,29.56,5.87,62.72,12.58,82.51,17,115.28,22.5S601.42,443,601.42,443l-40.66-189.1-4-1.19L578.52,424s-136.94-37.85-155.1-37.85-28-19.34-64.35-26.45-77,7.11-111.33,13a475.51,475.51,0,0,0-63.56,15.79l9.08-158.31Z"/><polygon class="cls-4" points="163.65 408.7 149.44 414.62 180.63 231.04 193.26 230.25 163.65 408.7"/><path class="cls-4" d="M380,205.78s3.55-6.32,35.92,2,66.28,29.16,93.91,33.11,45.8,7.9,45.8,7.9L593.13,439s-61.19-8.29-118.83-23.68S392.23,389.75,384.73,398Z"/><path class="cls-8" d="M477.79,257.76s2,0,67.76,14.45"/><path class="cls-8" d="M478.44,265.77s1.84.09,24.54,5c10.44,2.24,25.55,5.67,44,9.71"/><path class="cls-8" d="M479.1,273.77s2.7.18,24.82,4.92c11,2.36,27.24,6.19,44.43,10"/><path class="cls-8" d="M479.75,281.77s3.57.27,25.12,4.89c11.51,2.47,28.92,6.71,44.88,10.22"/><path class="cls-8" d="M480.4,289.78s4.43.35,25.41,4.85c12,2.59,30.61,7.23,45.35,10.47"/><path class="cls-8" d="M481.06,297.78s5.29.45,25.7,4.83c12.57,2.7,32.29,7.74,45.8,10.71"/><path class="cls-8" d="M481.71,305.78s6.15.54,26,4.8c13.11,2.82,34,8.26,46.26,11"/><path class="cls-8" d="M482.37,313.79s7,.62,26.28,4.76c13.64,2.94,35.66,8.78,46.71,11.21"/><path class="cls-8" d="M483,321.79s7.87.71,26.57,4.73c14.17,3.06,37.35,9.3,47.17,11.46"/><path class="cls-8" d="M483.67,329.79s8.74.81,26.87,4.7c14.7,3.17,39,9.82,47.62,11.71"/><path class="cls-8" d="M484.33,337.79a259.27,259.27,0,0,1,27.15,4.68c15.24,3.28,40.72,10.33,48.08,11.95"/><path class="cls-8" d="M485,345.8a260,260,0,0,1,27.45,4.64c15.77,3.4,42.39,10.86,48.54,12.2"/><path class="cls-8" d="M485.64,353.8a263.28,263.28,0,0,1,27.73,4.61c16.31,3.52,44.08,11.38,49,12.46"/><path class="cls-8" d="M486.29,361.8a268.39,268.39,0,0,1,28,4.58c16.83,3.64,45.76,11.9,49.45,12.71"/><path class="cls-8" d="M486.94,369.81a275.15,275.15,0,0,1,28.32,4.54c17.37,3.76,47.45,12.42,49.91,13"/><path class="cls-8" d="M487.6,377.81a280.89,280.89,0,0,1,28.61,4.52c17.9,3.86,49.13,12.93,50.36,13.2"/><path class="cls-8" d="M488.25,385.81a288.19,288.19,0,0,1,28.9,4.49c18.44,4,50.82,13.45,50.82,13.45"/><path class="cls-8" d="M392.37,226a115.45,115.45,0,0,1,27.85,4.84c12.52,4,22.2,12.52,47.63,24.22"/><path class="cls-8" d="M468.49,263.15c-23.85-11-33.43-19.18-46.88-23.54-14.44-4.69-28.63-5.25-29.19-5.07"/><path class="cls-8" d="M469.12,271.27C446.86,261,437.38,253.11,423,248.41c-15.31-5-29.42-5.65-30.53-5.29"/><path class="cls-8" d="M469.75,279.39c-20.67-9.51-30.05-17.15-45.36-22.17-16.18-5.3-30.2-6.06-31.87-5.53"/><path class="cls-8" d="M470.38,287.52C451.3,278.74,442,271.37,425.77,266c-17-5.6-31-6.46-33.2-5.75"/><path class="cls-8" d="M471,295.64c-17.49-8.05-26.67-15.14-43.85-20.81-17.91-5.91-31.76-6.86-34.54-6"/><path class="cls-8" d="M471.64,303.77c-15.89-7.32-25-14.13-43.09-20.14-18.78-6.22-32.55-7.26-35.88-6.2"/><path class="cls-8" d="M472.27,311.89C458,305.3,449,298.77,429.94,292.44c-19.65-6.53-33.33-7.67-37.22-6.44"/><path class="cls-8" d="M472.9,320c-12.71-5.85-21.6-12.11-41.58-18.77-20.51-6.83-34.11-8.07-38.55-6.66"/><path class="cls-8" d="M473.53,328.14c-11.12-5.12-19.9-11.1-40.82-18.09-21.38-7.14-34.89-8.48-39.89-6.89"/><path class="cls-8" d="M474.16,336.26c-9.53-4.39-18.21-10.09-40.06-17.41-22.25-7.44-35.67-8.88-41.23-7.11"/><path class="cls-8" d="M474.79,344.38c-7.94-3.65-16.52-9.08-39.3-16.72-23.12-7.75-36.46-9.29-42.56-7.34"/><path class="cls-8" d="M475.42,352.51c-6.35-2.93-14.83-8.08-38.55-16.05-24-8.06-37.23-9.69-43.89-7.57"/><path class="cls-8" d="M476.05,360.63c-4.76-2.19-13.14-7.06-37.79-15.36-24.85-8.37-38-10.09-45.23-7.8"/><path class="cls-8" d="M476.69,368.76c-3.18-1.47-11.46-6.06-37-14.69s-38.8-10.49-46.57-8"/><path class="cls-8" d="M477.32,376.88c-1.59-.73-9.77-5.05-36.28-14s-39.59-10.9-47.91-8.25"/><path class="cls-8" d="M478,385s-8.08-4-35.53-13.32-40.36-11.3-49.24-8.48"/><path class="cls-4" d="M380,205.78,384.73,398s-14.21-29.22-52.11-28-121.59,30.4-135,33.16-34,5.53-34,5.53l22.51-183.58S285.64,207,306.57,200.65s39.08-13,52.5-9.87S380,196.3,380,205.78Z"/><line class="cls-8" x1="207.81" y1="247.26" x2="281.56" y2="230.82"/><path class="cls-8" d="M207,255.48s46.82-10.55,47.91-10.9,26.46-6,26.46-6"/><path class="cls-8" d="M206.2,263.7s46.12-10.51,48.3-11.2c2-.63,26.68-6.11,26.68-6.11"/><path class="cls-8" d="M205.39,271.92s45.42-10.47,48.69-11.5c3-.95,26.91-6.25,26.91-6.25"/><path class="cls-8" d="M204.58,280.14s44.73-10.43,49.08-11.8c4-1.26,27.15-6.38,27.15-6.38"/><path class="cls-8" d="M203.77,288.37s44-10.4,49.48-12.11c5-1.58,27.37-6.52,27.37-6.52"/><path class="cls-8" d="M203,296.59s43.33-10.36,49.87-12.42c6-1.89,27.6-6.64,27.6-6.64"/><path class="cls-8" d="M202.15,304.81s42.64-10.32,50.27-12.72c7-2.2,27.83-6.78,27.83-6.78"/><path class="cls-8" d="M201.34,313s41.94-10.28,50.66-13c8-2.52,28.06-6.91,28.06-6.91"/><path class="cls-8" d="M200.53,321.25s41.24-10.24,51.05-13.32c9-2.84,28.29-7.05,28.29-7.05"/><path class="cls-8" d="M199.72,329.47s40.55-10.2,51.45-13.63c10-3.15,28.52-7.17,28.52-7.17"/><path class="cls-8" d="M198.91,337.69s39.85-10.16,51.84-13.93c11-3.46,28.75-7.31,28.75-7.31"/><path class="cls-8" d="M198.1,345.91s39.16-10.12,52.24-14.23c12-3.78,29-7.44,29-7.44"/><path class="cls-8" d="M197.29,354.13s38.46-10.08,52.63-14.53c13-4.1,29.21-7.58,29.21-7.58"/><path class="cls-8" d="M196.48,362.36s37.76-10.05,53-14.84c14-4.41,29.44-7.71,29.44-7.71"/><path class="cls-8" d="M195.67,370.58s37.07-10,53.42-15.15c15-4.72,29.66-7.84,29.66-7.84"/><path class="cls-8" d="M194.86,378.8s36.37-10,53.81-15.45c16-5,29.9-8,29.9-8"/><path class="cls-8" d="M292,227.83s68.76-21.92,78.72-11"/><path class="cls-8" d="M291.8,235.8s23.33-7.52,44.33-11.47c16-3,30.69-3.62,34.64.73"/><path class="cls-8" d="M291.58,243.77s23.76-7.73,44.47-11.57c16.44-3,31.07-3,34.75,1.05"/><path class="cls-8" d="M291.36,251.74s24.17-8,44.6-11.67c16.87-3,31.45-2.4,34.88,1.37"/><path class="cls-8" d="M291.15,259.72s24.59-8.23,44.73-11.77c17.29-3,31.83-1.8,35,1.68"/><path class="cls-8" d="M290.93,267.69s25-8.45,44.87-11.87c17.71-3,32.2-1.19,35.1,2"/><path class="cls-8" d="M290.71,275.66s25.44-8.67,45-12c18.14-3.05,32.59-.58,35.22,2.32"/><path class="cls-8" d="M290.49,283.63s25.86-8.88,45.14-12.06c18.56-3.06,33,0,35.33,2.63"/><path class="cls-8" d="M290.27,291.6s26.29-9.1,45.27-12.16,33.34.63,35.45,2.95"/><path class="cls-8" d="M290.06,299.58s26.7-9.31,45.4-12.27c19.42-3.06,33.72,1.24,35.56,3.27"/><path class="cls-8" d="M289.84,307.55S317,298,335.37,295.19c19.85-3.07,34.1,1.84,35.68,3.58"/><path class="cls-8" d="M289.62,315.52s27.55-9.73,45.67-12.46c20.28-3.06,34.48,2.45,35.79,3.9"/><path class="cls-8" d="M289.4,323.49s28-9.93,45.81-12.56c20.7-3.05,34.85,3.06,35.91,4.22"/><path class="cls-8" d="M289.18,331.46s28.41-10.13,45.94-12.65c21.13-3,35.24,3.66,36,4.53"/><path class="cls-8" d="M289,339.44S317.8,329.13,335,326.68c21.56-3,35.61,4.27,36.14,4.85"/><path class="cls-8" d="M288.75,347.41S318,336.89,335,334.55c22-3,36,4.88,36.26,5.17"/><path class="cls-8" d="M288.53,355.38s29.68-10.73,46.34-12.95c22.42-3,36.37,5.48,36.37,5.48"/><path class="cls-8" d="M453.58,414.38c4.89,1,7.95,1.78,7.95,1.78"/><path class="cls-8" d="M377.66,398a58.7,58.7,0,0,1,5.1,6.73,108.32,108.32,0,0,1,39.39-6.56c12.39.36,18.47,13.61,27.84,15.46"/><path class="cls-8" d="M367,387.93a69.77,69.77,0,0,1,8.05,7.2"/><path class="cls-8" d="M307.37,379.16c7-1.9,27.9-5.7,46.29,1.27a53.6,53.6,0,0,1,13.33,7.5"/><path class="cls-8" d="M356.06,386.2A84.79,84.79,0,0,0,329,381.43c-24-.57-79.84,12-79.84,12"/><path class="cls-8" d="M365.19,390.55A34.82,34.82,0,0,0,360.5,388"/><line class="cls-8" x1="361.67" y1="406.75" x2="210.56" y2="414.01"/><line class="cls-8" x1="375.89" y1="406.06" x2="367.64" y2="406.46"/><line class="cls-8" x1="248.92" y1="421.12" x2="257.72" y2="420.9"/><line class="cls-8" x1="174" y1="423.02" x2="243.86" y2="421.25"/><line class="cls-8" x1="347.46" y1="425.39" x2="355.22" y2="425.14"/><line class="cls-8" x1="242.89" y1="428.85" x2="341.24" y2="425.6"/><line class="cls-8" x1="313.31" y1="418.07" x2="292.7" y2="418.78"/><line class="cls-8" x1="370.06" y1="416.13" x2="318.95" y2="417.88"/><line class="cls-8" x1="217.74" y1="429.57" x2="224.87" y2="429.38"/><line class="cls-8" x1="146.98" y1="431.5" x2="213.29" y2="429.69"/><path class="cls-3" d="M265.72,211s14.7-19.33,24-27.38,25.17-20.75,31.61-20.75,8.05,4,8.46,5.44,5.84,21.75,5.84,22.76-5.64,2.61-6,1.41-2.82-18.53-3.83-21.75-.81-5-8.46-1.81-30.2,27.38-34.83,33-9.06,11.48-9.06,11.48S267.94,211,265.72,211Z"/><path class="cls-4" d="M514.55,230.72c-.48-.69-1.1-1.47-1.55-1.59-.71-.17-5.43,7.84-6.59,9.83a13,13,0,0,1,2.16-2.17c0,.6-2.42,12.48-4.63,18.12s-1.61,8.25.6,8,5.24-10.27,7-15.91A78.12,78.12,0,0,0,514.55,230.72Z"/><path class="cls-3" d="M514.41,226.52c-.81-3.63-6,1-8.26,4.22s-12.28,14.1-17.92,19.54-26.78,23.56-29,25.17-4.83,4.43-6.44,4.63-5.84,0-7.85-1.21-3-3.42-12.69-8.66-51.55-17.32-54.57-17.52-5.43,2.82-9.66,4.63-11.28,2.22-14.3-.4-6.65-9.26-8.66-14.09-5.23-6-8.05-7.66-36.65-16.51-42.89-18.52A83.39,83.39,0,0,0,278.81,213a20.55,20.55,0,0,0-5.43.41s-.41.6-2-.61-6.84-3.42-8.46-.2-4,10.67-2.61,13.49l1.41,2.82s-1.41,18.12-.81,24.37,5.44,14.29,9.47,19.13,20.13,13.89,32,16.71,19.13,1.21,22.35-1,13.09-13.29,15.51-15.9,2.21-4.23,10.07-1.82,10.67,8.06,12.08,12.29,6.64,21.14,10.87,26.58a50.69,50.69,0,0,0,20.54,16.31c10.27,4.43,17.12,7.85,26.78,6.64s14.9-5.64,17.92-10.87,5-15.71,6.05-18.93a11,11,0,0,1,4.22-5.24s4-1.81,5.24-4.63,10.67-11.47,10.67-11.47S480,269,485.82,262.36s22.75-26.18,22.75-25.57-2.42,12.48-4.63,18.12-1.61,8.25.6,8,5.24-10.27,7-15.91S515.21,230.14,514.41,226.52ZM343.25,259.74a12.11,12.11,0,0,1-1.61,3.42c-1.21,1.82-9.26,14.7-14.3,18.73s-10.87,7.45-16.91,6.85-21.55-6.45-33-15.51-13.09-20.94-11.88-32.42,5.24-19.33,11.28-20.54,26,3.83,39.67,11.08,25.37,16.11,26.17,19.13S343.25,259.74,343.25,259.74ZM439.7,301c-1.21,10.47-3.62,16.51-7.25,21.35s-7.85,7-19.13,6-19.73-5.24-27.58-10.88-10.47-13.09-13.49-20.13-8.26-21.15-5.24-30,11.88-6.64,11.88-6.64,7.45,1.61,8.06,1.81,45.1,13.29,47.11,16.31S440.91,290.55,439.7,301Z"/><path class="cls-9" d="M340.43,241.62s1.81,1.21,3.62,6.24,4.43,13.29,11.68,14.9,14.5-4.63,14.5-4.63"/><path class="cls-9" d="M378.89,257.32s32.42,8.06,46.72,14.5,15.7,12.08,16.31,12.49,6.64,3,9.66.8"/><path class="cls-9" d="M263.91,214.64s3.63,3.22,6.45,2.41a20.08,20.08,0,0,1,11.07-.4c4.23,1.21,19.73,4.63,36.65,12.28s20.74,10.88,20.74,10.88"/><path class="cls-9" d="M263.91,249.87s-.8,13.29,8.26,21.15"/></svg>