<svg id="Layer_1" data-name="Layer 1" xmlns="http://www.w3.org/2000/svg" viewBox="0 0 720.44 448.2"><defs><style>.cls-1{opacity:0.2;}.cls-2{fill:#2dd4bf;}.cls-3,.cls-7{fill:none;}.cls-3,.cls-4,.cls-5,.cls-6,.cls-7{stroke:#1a2e35;}.cls-3,.cls-5,.cls-6,.cls-7{stroke-linecap:round;stroke-linejoin:round;}.cls-4{fill:#14b8a6;stroke-miterlimit:10;}.cls-5,.cls-8{fill:#1a2e35;}.cls-6{fill:#fff;}.cls-7{stroke-width:2px;}</style></defs><g class="cls-1"><path class="cls-2" d="M668.65,159S566.6,47.43,410.77,9.46,232,95.73,187.7,144.72s-125,43.51-164.53,103.63,3.95,166.12,197.75,193,181.94-76.73,302.18-57.74S781.76,300.56,668.65,159Z"/></g><line class="cls-3" x1="22.58" y1="313.95" x2="692.8" y2="313.95"/><path class="cls-4" d="M213.65,242.47s1.95-54.84,8.26-56.3,22.81,3.88,75.72,1.94,81.06-.48,83,1,8.74,83.49,5.83,84.47-63.59-5.34-88.83-4.86-76.21,4.86-80.58,3.88S213.65,242.47,213.65,242.47Z"/><path class="cls-4" d="M551.64,242.47s-1.94-54.84-8.25-56.3-22.82,3.88-75.73,1.94-81.06-.48-83,1-1.11,83.49,1.8,84.47,56-5.34,81.2-4.86,76.21,4.86,80.58,3.88S551.64,242.47,551.64,242.47Z"/><rect class="cls-4" x="214.14" y="327.43" width="346.58" height="22.33"/><rect class="cls-4" x="214.14" y="268.21" width="174.91" height="38.54"/><rect class="cls-4" x="388.42" y="268.21" width="171.01" height="38.54"/><rect class="cls-4" x="214.14" y="290.05" width="174.91" height="38.54"/><rect class="cls-4" x="388.42" y="290.05" width="171.01" height="38.54"/><path class="cls-5" d="M269.68,196.84s-16.5,13.59-32,14.08-22.33-3.4-31.55,1.45,16.5,59.71,25.24,62.62,55.34-7.77,60.68-9.71-12.14-50-14.56-57.76S275,194.41,269.68,196.84Z"/><path class="cls-6" d="M295.2,214.33s-17-5.34-19.41-3.89,3.39,30.1,4.85,37.86-1.46,18.94,1.46,20.39,60.19,3.4,67.95,2.43-8.25-43.2-9.7-55.34S339.86,205.1,334,207,308.31,214.33,295.2,214.33Z"/><path class="cls-5" d="M496.14,196.84s16.5,13.59,32,14.08,22.33-3.4,31.56,1.45S543.22,272.08,534.49,275s-55.34-7.77-60.68-9.71,12.13-50,14.56-57.76S490.8,194.41,496.14,196.84Z"/><path class="cls-6" d="M470.61,214.33s17-5.34,19.42-3.89-3.4,30.1-4.85,37.86,1.45,18.94-1.46,20.39-60.19,3.4-68,2.43,8.25-43.2,9.71-55.34.49-10.68,6.31-8.74S457.51,214.33,470.61,214.33Z"/><path class="cls-4" d="M200.35,235.68H214a5.09,5.09,0,0,1,5.09,5.09V360.48a4.32,4.32,0,0,1-4.32,4.32H199.58a4.32,4.32,0,0,1-4.32-4.32V240.77A5.09,5.09,0,0,1,200.35,235.68Z"/><path class="cls-4" d="M554.49,235.68H568.1a5.09,5.09,0,0,1,5.09,5.09V360.48a4.32,4.32,0,0,1-4.32,4.32H553.72a4.32,4.32,0,0,1-4.32-4.32V240.77A5.09,5.09,0,0,1,554.49,235.68Z"/><path class="cls-6" d="M663.56,293.78c-.46-3.69-14.48-8.31-14.48-8.31l-19.15.91-19.15-.91s-14,4.62-14.49,8.31-8.4,57.69-8.4,57.69a138.35,138.35,0,0,0,35.5,5.08h13.08a138.45,138.45,0,0,0,35.5-5.08S664,297.47,663.56,293.78Z"/><ellipse class="cls-6" cx="629.93" cy="281.55" rx="24.02" ry="9.26"/><path class="cls-6" d="M584.23,263.41l8.23,11.66c0,5.75,16.77,10.4,37.47,10.4s37.47-4.65,37.47-10.4l8.22-11.66Z"/><ellipse class="cls-6" cx="629.93" cy="263.41" rx="45.7" ry="9.8"/><polyline class="cls-7" points="630.02 260.99 636.2 192.29 581.13 143.39"/><path class="cls-6" d="M581.81,143.8a7.89,7.89,0,0,0,3.44-5.79c.52-3.94-1.46-7.45-4.42-7.84s-5.77,2.49-6.29,6.44a7.84,7.84,0,0,0,1.84,6.47c-5.73,1.33-10.86,8.82-12.12,18.44a33.94,33.94,0,0,0-.28,4.33L587.91,169a33.29,33.29,0,0,0,.84-4.25C590,155.12,587,146.55,581.81,143.8Z"/><rect class="cls-6" x="614.58" y="257.65" width="30.88" height="6.69"/><polygon class="cls-5" points="484.55 344.18 494.8 394.42 491.98 394.42 475.83 344.95 484.55 344.18"/><polygon class="cls-5" points="297.18 344.18 286.93 394.42 289.75 394.42 305.89 344.95 297.18 344.18"/><polygon class="cls-5" points="288.72 367.25 278.47 417.49 281.29 417.49 297.44 368.02 288.72 367.25"/><polygon class="cls-5" points="494.8 367.25 505.05 417.49 502.23 417.49 486.08 368.02 494.8 367.25"/><polygon class="cls-6" points="529.06 364.8 511.2 337.62 269 337.62 251.14 364.8 529.06 364.8"/><rect class="cls-5" x="251.14" y="364.8" width="277.54" height="4.85"/><path class="cls-6" d="M398,352.58,395.61,354H378.52l-2.41-1.46a58.71,58.71,0,0,0-7.88-3.77,4.59,4.59,0,0,1-3-5.3l5.49-21.11H403.4l5.49,21.11a4.59,4.59,0,0,1-3,5.3A57.57,57.57,0,0,0,398,352.58Z"/><path class="cls-6" d="M395.61,354H378.52c-1.87,0-3.26-3.31-2.85-6.81l2.86-24.83h17.06l2.87,24.83C398.87,350.73,397.48,354,395.61,354Z"/><polygon class="cls-5" points="370.73 322.4 365.71 314.89 375.2 320.03 376.39 313.31 379.15 314.1 377.18 306.59 385.09 312.52 391.02 299.86 392.2 312.91 399.72 308.96 397.74 314.89 406.44 311.33 401.7 318.06 405.65 318.45 403.4 322.4 370.73 322.4"/><path class="cls-8" d="M113.78,163.13h0a.11.11,0,0,0-.06-.12.09.09,0,0,0-.12.05,124.91,124.91,0,0,0-6.55,20.54,191,191,0,0,0-3.61,21.28l-.52,5.38c-.07.9-.17,1.8-.24,2.69l-.14,2.7c-.08,1.8-.19,3.6-.24,5.41l0,5.4.06,2.7c0,.9.1,1.8.16,2.7.14,1.8.25,3.6.41,5.39.35,3.58.89,7.15,1.44,10.7a.1.1,0,0,0,.1.08.09.09,0,0,0,.09-.1h0c0-1.8-.09-3.59-.13-5.39s-.2-3.57-.18-5.37,0-3.58-.06-5.36l0-2.68,0-2.68,0-5.36.15-5.36,0-2.68c0-.89.11-1.78.16-2.67L105,205a190,190,0,0,1,3-21.23A124.22,124.22,0,0,1,113.78,163.13Z"/><path class="cls-8" d="M114.55,191.15a.1.1,0,0,0-.06-.12.09.09,0,0,0-.12.06,127.49,127.49,0,0,0-3.81,13.6,124.24,124.24,0,0,0-2.25,14c-.48,4.69-1,9.38-1.07,14.09a117.18,117.18,0,0,0,.5,14.14.12.12,0,0,0,.09.09.1.1,0,0,0,.1-.09c.55-4.69.88-9.37,1.2-14.06s.38-9.37.69-14a140.65,140.65,0,0,1,4.73-27.65Z"/><path class="cls-8" d="M130.08,201a.1.1,0,0,0-.13,0A47.16,47.16,0,0,0,119.57,210a40.56,40.56,0,0,0-4.06,5.64l-.84,1.58-.65,1.63a14.8,14.8,0,0,0-.57,1.66c-.17.56-.36,1.12-.51,1.68a67.26,67.26,0,0,0-2.15,13.7,79.56,79.56,0,0,0,.52,13.8.1.1,0,0,0,.09.08.11.11,0,0,0,.1-.09l1.18-13.66a121,121,0,0,1,1.73-13.47c.13-.55.28-1.08.42-1.63a14.9,14.9,0,0,1,.48-1.61l.56-1.58.71-1.49a40.79,40.79,0,0,1,3.72-5.65,46.92,46.92,0,0,1,9.75-9.49h0A.09.09,0,0,0,130.08,201Z"/><path class="cls-8" d="M122.57,218.55a15.15,15.15,0,0,0-4.73,5.68,33.39,33.39,0,0,0-2.64,7c-.19.6-.34,1.2-.47,1.81l-.42,1.81a30.49,30.49,0,0,0-.46,3.69c0,1.24,0,2.48,0,3.71a30.55,30.55,0,0,0,.49,3.69.1.1,0,0,0,.07.08.11.11,0,0,0,.12-.08,35.94,35.94,0,0,0,.65-3.63c.19-1.2.38-2.4.52-3.59s.34-2.38.43-3.58.25-2.4.51-3.57a32.62,32.62,0,0,1,2-6.89,15.3,15.3,0,0,1,4-5.92h0a.11.11,0,0,0,0-.12A.09.09,0,0,0,122.57,218.55Z"/><path class="cls-8" d="M100.78,232.23c-.51-6.06-1.51-12.07-2.45-18.07s-2-12-3.09-17.95-2.33-11.92-3.62-17.85a.08.08,0,0,0-.1-.07.09.09,0,0,0-.08.11c1,6,2,12,2.86,18s1.77,12,2.53,18,1.32,12,2.07,18.05l2.22,18a.08.08,0,0,0,.09.08.09.09,0,0,0,.1-.09c.07-1.52.07-3,.11-4.56s-.07-3-.09-4.57C101.27,238.3,101,235.27,100.78,232.23Z"/><path class="cls-8" d="M97.15,232.14c-.33-2.4-.77-4.78-1.23-7.17l-.85-3.54c-.28-1.18-.54-2.36-.89-3.52a99.71,99.71,0,0,0-4.63-13.79l-.73-1.67L88,200.82c-.51-1.1-1.13-2.15-1.72-3.21a26.88,26.88,0,0,0-4.38-5.8.09.09,0,0,0-.13.13h0a26.68,26.68,0,0,1,4,5.94c.53,1.08,1.09,2.14,1.54,3.25l.71,1.65.63,1.68a98.7,98.7,0,0,1,4,13.8c.55,2.33.92,4.71,1.37,7.06l.57,3.55c.21,1.18.46,2.36.63,3.55.37,2.37.81,4.73,1.22,7.1s.81,4.76,1.31,7.13a.09.09,0,0,0,.09.08.1.1,0,0,0,.1-.09c0-2.42,0-4.85-.17-7.27S97.4,234.56,97.15,232.14Z"/><path class="cls-8" d="M92.13,232.45c-1.12-3.18-2.42-6.29-3.84-9.35a83.32,83.32,0,0,0-4.83-8.85.1.1,0,0,0-.13,0,.1.1,0,0,0,0,.13,83,83,0,0,1,4.12,9.13c1.23,3.1,2.34,6.25,3.27,9.45s1.63,6.44,2.48,9.65,1.61,6.45,2.6,9.69a.1.1,0,0,0,.09.07.1.1,0,0,0,.1-.09A48.8,48.8,0,0,0,95,242.16,62.18,62.18,0,0,0,92.13,232.45Z"/><path class="cls-8" d="M91.92,243.05a21.5,21.5,0,0,0-2.67-5.6,23.12,23.12,0,0,0-3.88-4.82,18.43,18.43,0,0,0-2.47-1.87,10.3,10.3,0,0,0-2.81-1.26.09.09,0,0,0-.06.17h0a13.91,13.91,0,0,1,4.65,3.61,21.81,21.81,0,0,1,3.24,4.9c.92,1.75,1.4,3.67,2.2,5.47.35.92.7,1.84,1.11,2.76a23.52,23.52,0,0,0,1.22,2.8h0a.1.1,0,0,0,.08.05.09.09,0,0,0,.1-.09,21.37,21.37,0,0,0-.11-3.1C92.38,245.07,92.16,244.06,91.92,243.05Z"/><path class="cls-4" d="M92.3,187a17.25,17.25,0,0,1-12.23-13c-2.3-10.7,5.09-6.12-1.53-22.93s-5.1-20.64-2.8-25.48,3.56-3.31,5.6,3.06,9.43,16.3,12.23,34.9S92.3,187,92.3,187Z"/><path class="cls-4" d="M111.91,169s-6.62-2.29-6.88-14.78,4.85-9.93,5.61-25.47,1.78-26.5,4.59-26.75,10.19,7.64,12.73,25-3.31,28.79-8.4,33.89S111.91,169,111.91,169Z"/><path class="cls-4" d="M88.73,202.07s-1.53-9.17-4.59-13.5-9.68-8.15-14-16.56-9.17-12.49-8.92-.51,5.61,18.09,12.23,22.16S88.73,202.07,88.73,202.07Z"/><path class="cls-4" d="M85.93,217.87s-6.12-11.72-15-20.38-16.05-13-13.51-8.67,5.61,4.08,9.94,11.72,3.06,13.25,9.17,17.58S85.93,217.87,85.93,217.87Z"/><path class="cls-4" d="M85.16,232.9c-.25-.77-.51-6.37-9.17-11s-16.81-2.8-15.79-.51,6.36,6.12,11.71,8.41S85.16,232.9,85.16,232.9Z"/><path class="cls-4" d="M111.4,202.58s-3.82-4.84-1.78-15,6.62-7.64,11.72-13,4.08-6.12,9.17-11.72,9.68-8.67,11.72-6.37-1,9.42-4.08,13.5-7.89,6.11-10.19,11.21-1.27,13.25-7.13,17.07S111.4,202.58,111.4,202.58Z"/><path class="cls-4" d="M124.14,205.38s9.17-10.44,15.8-18.09,9.17-13.5,9.42-8.4,2.3,9.17-3.05,15.79S124.14,205.38,124.14,205.38Z"/><path class="cls-4" d="M119.3,222.2s-.25-4.08,14.27-13.5,20.64-11.21,19.11-7.39-7.9,7.64-14.78,14.52S119.3,222.2,119.3,222.2Z"/><path class="cls-3" d="M92.9,186s-3.41-18.27-7-31.27-5.86-20.89-5.86-20.89"/><path class="cls-3" d="M111.33,169.14s6.19-19.81,8.23-31.78-.26-20.89-1.28-26.24"/><path class="cls-3" d="M87.93,201.69a97,97,0,0,0-9.39-13.38c-5.61-6.62-9.94-10.19-12.49-16.56"/><path class="cls-3" d="M111.4,202.58s2-12.23,6.88-18.6,14.52-16.3,18.35-22.67"/><path class="cls-3" d="M84.56,232.62S76,227,69.88,224"/><path class="cls-5" d="M133.65,284c-.57-15.46-17.75-25.76-17.75-25.76H89.57S72.4,268.51,71.82,284s19.47,72.15,19.47,72.15h22.89S134.22,299.43,133.65,284Z"/><polygon class="cls-5" points="119.29 243 85.7 243 89.57 258.21 115.42 258.21 119.29 243"/></svg>