<svg viewBox="0 0 1019.05 1542.81" xmlns="http://www.w3.org/2000/svg"><path fill="#7e2448" d="M491.11 53c-21.34-6.2-43.71-9.29-65.73-5.51-8.61 1.38-16.87 4.82-25.13 7.92-6.54 2.41-12.73 4.82-18.92 7.23-8.61 3.09-16.52 7.91-24.1 13.07a108.56 108.56 0 0 0-13.76 11c-3.79 3.78-6.2 8.6-9 13.42a108.41 108.41 0 0 0-7.47 17.19h-3.79c3.79 2.06 8.26 2.75 12.39 4.13 8.61 2.75 17.21 6.54 25.47 10a189.56 189.56 0 0 1 29.25 14.11 259.48 259.48 0 0 1 37.86 24.09c8.95 7.23 18.58 13.76 26.84 22a321.46 321.46 0 0 1 23.41 25.13c8.6 10.32 15.48 22.37 22.37 34.07a305.92 305.92 0 0 1 19.61 41.64c4.13 12.39 8.61 24.44 11.36 37.17 3.1 14.11 6.54 28.22 7.57 42.33a97.69 97.69 0 0 0 1.38 14.11c.69 9.3-.69 18.59-1.38 27.88-1 13.08-4.13 26.16-7.57 38.54A106.9 106.9 0 0 1 520 479c-3.1 4.82-5.51 10-8.26 15.15-5.85 10-13.77 18.58-19.27 28.56a145.19 145.19 0 0 0-14.11 30.63c-4.13 12.74-7.23 25.81-7.57 39.24 0 4.81.68 9.29.68 14.11 7.23 2.41 14.46 4.82 22 6.54 4.82 1.37 10-.69 14.8 0a26.79 26.79 0 0 0 7.57-1c7.57-2.06 14.8-5.5 22.37-6.19 6.88-.69 12 4.13 16.52 8.26 7.57 6.54 18.24 9 28.22 8.6a51.86 51.86 0 0 0 16.52-3.1c9-2.75 16.18-8.25 24.44-12.73 8.6-4.47 17.89-7.91 27.87-7.57 8.61-.34 16.52 3.1 24.78 4.82 6.2 1.37 12.39 2.75 18.59 2.06 14.45-1.72 27.18-9.29 37.51-19.27 6.88-6.19 13.08-13.77 16.86-22.37 3.1-6.19 4.13-13.08 7.23-18.93l4.13-8.26c1.38-3.1 4.82-4.82 7.23-7.23 10.32-8.94 18.24-21.33 18.93-35.1.68-7.57-2.07-14.8-3.79-22-2.07-9.29-7.57-17.2-11.36-25.81-6.54-12.73-2.06-27.53-7.57-40.26-3.78-8.61-10.67-16.52-19.62-19.62-7.91-2.75-16.52-3.79-23.4-9-5.85-4.47-9.29-11.36-10.32-18.58-1.72-8.26-1.72-17.21 2.06-24.78 2.41-6.89 5.51-13.77 6.54-21.34a76.53 76.53 0 0 0-1.38-21.68c-2.4-13.77-6.53-27.53-14.11-39.24-7.22-10-15.48-18.58-24.09-26.84-5.16-4.82-7.57-11-10.67-17.21-5.16-10-11-20.3-20-26.84a41.56 41.56 0 0 0-20.3-9c-5.51-1-11.36-1-16.52-2.75A52.61 52.61 0 0 1 594 159.65c-6.54-6.2-11-14.46-14.45-22.72-3.44-6.88-5.85-14.11-10.33-20.3-3.09-5.51-7.57-10.67-11.7-15.49C547.21 86 533.1 72.92 516.23 65c-8.6-5.16-16.51-9.63-25.12-12Z"/><path fill="#ac3062" d="M52 291.8a163.77 163.77 0 0 1 20-44.05 13.92 13.92 0 0 1-.35 3.79 26 26 0 0 1 4.13-4.82l3.1-2.07a57.62 57.62 0 0 1 7.92-18.24c1-1.72 2.75-3.78 1.72-5.85 5.16-7.57 12-13.76 17.89-21 4.82-5.51 10.67-10 15.15-15.83 3.78-4.82 8.26-8.26 13.08-12.05.34 0 1 .35 1.37.35a6.13 6.13 0 0 1 1.38-1.72 54.42 54.42 0 0 1 13.42-11.7c4.13-3.1 8.26-5.86 12.73-8.61 11-6.54 23.06-11.36 34.42-17.21 27.53-13.07 58.51-18.24 88.79-19.61 7.23 0 14.46.69 21.68.69a80.53 80.53 0 0 1 15.49 2.4c3.79 2.07 8.26 2.76 12.39 4.13 8.6 2.76 17.21 6.54 25.47 10A190.53 190.53 0 0 1 391 144.51a259.17 259.17 0 0 1 37.86 24.09c8.95 7.22 18.58 13.76 26.84 22a321.46 321.46 0 0 1 23.41 25.13c8.6 10.32 15.48 22.37 22.37 34.07 7.57 13.42 14.45 27.19 19.61 41.64 4.48 12.39 8.61 24.43 11.36 37.17 3.1 14.11 6.54 28.22 7.57 42.33a97.69 97.69 0 0 0 1.38 14.11c.69 9.29-.69 18.58-1.38 27.88-1 13.07-4.13 26.15-7.57 38.54a107.22 107.22 0 0 1-11.7 26.5c-3.1 4.82-5.51 10-8.26 15.15-5.85 10-13.42 18.58-19.27 28.56a145.19 145.19 0 0 0-14.11 30.63c-4.13 12.73-7.23 25.81-7.58 39.23 0 4.82.69 9.3.69 14.11-11.7-3.78-23.4-8.26-33-16.17-15.14-12.73-26.84-28.91-39.23-44-12.73-15.15-28.57-27.88-46.46-36.14-14.46-6.54-29.6-11.36-44.05-17.9-29.95-13.42-58.17-30.28-85.35-48.52-23.41-16.18-46.81-32.7-72.62-44.74-7.92-3.79-15.83-6.2-24.09-9.29-5.85-2.07-11.36-5.17-16.87-7.92-5.16-2.41-10.32-4.47-15.48-6.88-6.89-3.79-14.46-6.2-20-11.7a5.78 5.78 0 0 1 1 6.53c-1.38 0-2.75.35-4.13-.34-2.07-1.38-5.16.34-6.88-1.72-4.82-4.82-8.26-11.36-11-17.55a73.1 73.1 0 0 1-5.85-21c-.34-4.47-.34-8.94-.34-13.07A90.19 90.19 0 0 1 52 291.8Z"/><path fill="#38312d" d="M853.16 1542.47c-1-2.07-1.72-4.13-2.75-6.2-3.1-7.91-5.85-15.83-9.64-23.4-10-21.34-20-42.67-28.56-64.36-3.1-8.26-7.23-16.17-11-24.09-3.1-6.88-5.85-14.11-9.3-20.65-7.57-13.76-12.73-28.91-19.61-43-2.76-5.5-5.51-11.35-8.26-16.86-.35 0-1 0-1 .34a111.48 111.48 0 0 1-6.53 17.9c-5.17 12-11 23.4-16.52 35.1-7.92 17.21-15.15 34.42-23.41 51.63a165.92 165.92 0 0 0-7.57 17.89c-3.78 11-8.6 22-12.73 33-2.75 6.54-3.44 13.77-5.16 20.65-1.72 7.57-3.45 15.15-4.82 22.72H219.57c-1.72-5.17-3.44-10.33-5.16-15.15-3.44-8.94-5.51-18.24-9.29-26.84-3.44-7.92-5.17-16.52-9.3-24.09-2.4-4.48-4.47-8.95-6.53-13.42a113 113 0 0 0-11.71-19.64c1 0 1.73.34 2.41.34-3.09-4.13-6.54-8.26-8.94-13.07a41.22 41.22 0 0 0-5.17-8.26 112.84 112.84 0 0 1-12.39-18.93c-1.37-3.1-3.78-5.51-6.19-7.92a24.43 24.43 0 0 1-5.16-10.32c-1.72-5.51-4.13-10.67-5.51-16.18-2.06-8.6-4.47-17.55-3.79-26.5.69-9.29 1.73-18.24 4.82-27.19 1.72-4.81 3.1-10 5.51-14.45 4.47-8.26 9.64-15.83 13.77-24.09 6.88-14.11 11-28.91 14.79-43.71 1.72-6.54 4.13-13.42 4.48-20.3.34-9.3 1.72-18.59 1.72-27.88-.35-20.31-.35-41-2.75-61.26.68 8.26-1.38 16.52-2.41 24.78-1.38 7.91 0 15.83.34 24.09.34 10 .69 20-1 29.6-4.48-8.26-7.23-16.87-10.67-25.47a418.08 418.08 0 0 1-14.11-46.12 188.81 188.81 0 0 0 2.41 24.09c1.37 7.23 1.72 14.8 4.47 21.68 3.1 7.58 6.2 15.15 10 22.72 2.07 3.78 4.82 7.23 6.54 11 .69 4.13-1 8.26-1.72 12a153.71 153.71 0 0 1-9.29 30.28c-4.82 12-9.29 24.09-16.52 35.11-3.79 6.19-6.2 13.08-9.64 19.27-3.44 6.54-4.82 13.77-5.85 20.65-1 7.91-2.41 16.17-2.06 24.09a88.44 88.44 0 0 0 4.82 21c2.4 7.92 6.88 14.46 10.66 21.69a39.7 39.7 0 0 0 6.89 10c5.5 6.88 11 14.11 15.83 21.33 4.13 5.51 5.5 12 9.63 17.21 0 .35.35.69.35 1a10.48 10.48 0 0 0-1.38 3.45c-2.75 12.73-6.88 25.12-10.32 37.85-2.07 7.92-3.79 16.18-5.16 24.09-2.07 11-5.17 21.69-7.92 32.7H0c.34-1.72.34-3.44.69-4.82 1.37-13.42 2.41-26.84 4.13-40.27 2.41-19.61 3.78-39.23 7.23-58.5 2.06-13.08 4.13-25.81 5.16-38.89 1.37-18.59 3.78-36.83 8.6-54.72 2.07-8.26 2.76-16.87 3.79-25.13 2.06-13.76 3.78-27.53 7.57-41 2.75-8.6 3.78-17.55 5.85-26.16 3.44-14.8 6.54-29.94 10.32-44.74 2.41-17.55 5.86-35.1 8.95-52.31 3.44-17.55 8.26-35.1 12.74-52.31 3.09-9.29 5.16-18.93 8.26-28.22 1.72-5.16 4.13-10.33 5.85-15.49.34-1 2.41-4.82 2.75-5.85 3.1-6.19 6.54-12.39 9.64-18.58h.68v-1c3.45-6.88 6.89-13.76 10.67-20.3 4.13-5.85 7.92-12.39 14.46-15.83 4.13-3.1 7.57-6.89 11.7-10.33 7.23-6.19 14.45-12.39 22-18.24 11-8.6 23.05-15.48 34.07-24.09 5.85-4.47 12-8.6 17.89-13.08 6.89-5.16 13.08-11.7 19.62-17.55a139.53 139.53 0 0 0 14.11-14.45c2.75-3.44 5.16-7.23 8.26-10.67 3.79-4.48 6.54-9.64 10.32-14.46 4.82-6.54 7.92-14.45 11.71-21.33 1.72-3.1 2.06-7.23 4.81-9.3 1.38-5.5 3.1-10.67 4.82-15.83 3.44-9.63 4.82-19.61 5.51-29.59a193.13 193.13 0 0 1 .69-20c.69 0 1.72.35 2.41.35v-1.38l.34.69c0 .34.34 1 .69 1 3.1 4.82 9.64 5.85 14.45 8.26 6.2 2.76 12.74 5.51 19.62 6.2 10.33 1.37 20.65-1.38 31-1 7.58-.34 14.8-1.37 22.37-1.72 5.86-.34 11.71-2.06 17.9-2.06 5.85-.35 11-3.1 16.86-4.48a134.56 134.56 0 0 0 16.87-5.16c12.39-4.82 25.47-7.91 37.51-14.45 4.13-1.72 7.23-5.16 11-7.23a118.84 118.84 0 0 0 15.49-10c3.1-2.75 6.54-4.82 9.29-7.57 1.72-1.72 1.72-4.13 2.07-6.54 5.85 5.16 7.23 13.42 10.32 20.3a185.54 185.54 0 0 1 10.33 27.19c1.72 5.51 4.47 10.33 6.54 15.49 2.75 6.19 4.82 12.73 8.6 18.24 9.29 14.45 18.59 28.91 30.29 41.64 1.72 2.07 3.78 4.13 5.5 6.2l.35.34 6.19 7.23a313.3 313.3 0 0 0 31.66 24.78c12.74 9 25.47 17.21 38.55 25.47s26.5 16.17 38.89 25.12c8.26 5.85 17.55 10.32 26.5 15.49C749.57 976 773 993.88 794 1013.5c8.95 8.6 18.24 16.86 26.5 26.16 4.82 5.16 8.26 11 12.73 16.52 4.82 6.88 9.3 14.11 13.43 21.33 3.78 6.54 6.19 13.77 10.32 20 3.79 5.86 7.57 11.71 10.67 17.56 3.44 6.19 6.19 12.73 10 18.93a176.27 176.27 0 0 1 9.29 17.89c7.23 15.14 12.74 31 20.31 45.77 3.78 7.23 7.91 14.46 10.32 22 2.75 7.57 4.82 15.14 7.57 22.71 5.51 13.77 11 27.19 16.18 41 3.1 7.57 4.82 15.14 7.23 22.71q4.63 15 10.32 29.94c5.51 15.15 10.67 30.29 15.49 45.78 4.13 14.8 9 29.6 13.08 44.39 2.75 9.3 18.92 69.87 31.66 116.67H853.16Z"/><path fill="#ee5c30" d="M63 367.17c3.79-5.16 10.67-5.85 16.52-6.88 5.16-1.38 10-2.75 15.14-4.13 0-1-.34-2.06-.34-3.1-2.07-7.22-2.75-14.79-3.79-22.37-.34-5.85-1.72-11.7-.69-17.55 3.45 10.67 6.54 21.34 10.67 32a7.71 7.71 0 0 0 1 3.44c.34.34.34.69 1 1 .34 1.38.69 3.1 1 4.48 7.92-2.41 15.83-4.82 23.75-7.58a107 107 0 0 0 21.34-9.63c.34-6.54 1-13.08 1-19.62 0-7.57 1-14.8.34-22.37a79.18 79.18 0 0 0-1-12.73c.34 2.06.69 4.13 1 6.19a2.64 2.64 0 0 0 .69 1.72c0 5.17 1.38 10 2.07 14.8a136.16 136.16 0 0 0 2.4 16.52c.69 3.44 1 7.23 2.76 10.67h1.72c1-1.72 2.75-2.75 4.47-3.79a346.88 346.88 0 0 1 62.64-26.84c-1.72-11.36-1.72-22.71-3.44-34.07-1.38-7.23-2.07-14.8-3.79-22 5.85 17.55 11 35.45 15.14 53.35 16.87-5.17 34.42-8.95 51.63-13.08-4.82-16.18-9.29-32.7-15.15-48.53-3.44-7.91-5.5-16.17-10-23.4a9 9 0 0 0 2.07 1.72A318.22 318.22 0 0 1 285 257c4.13 8.95 7.23 18.24 11 26.85 6.2-1.38 12.39-3.1 18.93-3.1 3.44.35 6.54-2.06 9.64-2.75 3.78-1 7.57-2.76 11.7-3.79h2.07c-5.17 3.44-10 7.23-15.15 10.67-2.75 2.07-5.16 4.82-8.26 6.2a45.78 45.78 0 0 0-7.22 3.44c-14.46 11-31 19.27-47.84 26.15-13.42 6.2-26.16 13.77-39.58 19.28-14.11 5.5-27.19 13.07-40.95 19.27-6.2 2.75-12.74 5.16-18.93 8.26-6.54 3.1-13.43 6.19-20 9.63-13.41 7.62-27.18 14.89-40.6 22.76-10 5.51-18.24 13.77-27.19 21a310.54 310.54 0 0 1-8.26-35.45C63.32 378.88 64 373 63 367.17Z"/><path fill="#f2844f" d="M353.45 252.23c-4.13-1.72-8.95-1-13.08-2.76-.69 0-1.72.35-2.06.35a33.84 33.84 0 0 0 .34 5.85c1.35 5.16 1.35 10.33 2.41 15.83-1.72.69-3.1 1.38-4.82 2.06h2.07c-5.17 3.45-10 7.23-15.15 10.67-2.75 2.07-5.16 4.82-8.26 6.2a45.78 45.78 0 0 0-7.22 3.44c-14.46 11-31 19.27-47.84 26.15-13.42 6.2-26.16 13.77-39.58 19.28-14.11 5.5-27.19 13.08-40.95 19.27-6.2 3.1-12.74 5.16-18.93 8.26-6.54 3.1-13.42 6.19-20 9.64-13.38 7.53-27.15 14.8-40.57 22.71-10 5.51-18.24 13.77-27.19 21 1.72 6.54 4.13 12.39 6.19 18.93 3.79 10.67 6.54 21.34 11 31.67 2.4 5.85 4.81 12 7.57 17.89 3.44 6.2 5.85 12.74 8.94 18.93 3.45 7.57 7.92 14.45 12 22 6.19 11.7 12.39 23.74 18.93 35.1 4.82 8.6 9.29 17.21 14.45 25.47a114 114 0 0 1 6.54 11c7.92-3.79 17.21-3.79 25.81-2.41 10.67 2.41 21 7.23 28.22 15.83a127.7 127.7 0 0 1 11.36 15.49 46.31 46.31 0 0 1 6.54 28.56c-.69 6.89-4.13 13.08-6.19 19.62a20.7 20.7 0 0 1-5.51 8.61 228.93 228.93 0 0 0 33 30.28c10 7.23 18.93 15.49 29.94 21a5.81 5.81 0 0 0 3.44 1 14 14 0 0 1 8.26 2.75c6.2 3.79 13.42 4.13 20.31 4.82 5.85.34 11.7 2.41 17.55 1 8.6-2.41 17.21-4.47 25.12-8.26a76.46 76.46 0 0 1 16.87-6.19c4.81-1 10-2.41 13.42-5.85 13.08-12.39 27.87-22.72 38.89-37.17a162.49 162.49 0 0 0 14.45-22 59.51 59.51 0 0 1 6.54-9.64c2.41-3.09 5.51-5.5 7.57-8.6 4.13-6.19 6.54-13.42 9.29-20 2.41-6.2 4.48-12.39 6.54-18.58.69-3.1 5.17-2.41 6.2-5.17 2.06-4.13 3.1-8.6 4.82-13.08h3.78c0 2.41 0 5.17-1 7.58-2.41 7.91-4.82 15.83-8.26 23.4-6.54 13.42-13.42 27.19-17.9 41.64-3.09 9.29-7.91 17.9-11.7 26.85-2.06 4.47-3.78 8.94-5.85 13.76a69.6 69.6 0 0 0-5.16 14.11c-2.07 9.64-5.51 18.59-8.6 27.88-2.07 6.19-3.79 12.39-6.54 18.58-1.38 3.79-2.41 7.58-4.13 11.36q-1.56 3.62-3.1 7.23a128.64 128.64 0 0 0 22.37-6.54c7.23-2.75 14.8-5.16 22.37-7.92 5.16-1.72 9.64-4.47 14.8-5.85 4.13-1.72 7.23-5.16 11-7.22a119.89 119.89 0 0 0 15.49-10c3.1-2.76 6.54-4.82 9.29-7.58 1.72-1.72 1.72-4.13 2.07-6.53.34-8.26-1.72-16.18-2.41-24.44-1-12.73-1.72-25.12-2.76-37.86 0-12.73-1-25.46-1-38.2-1-13.76.35-27.88.69-41.64 1-7.23.34-14.46 1-21.68.35-11.36 2.41-22.72 2.76-34.07.68-6.89.68-14.12 1-21 0-3.1 1-5.85.34-8.95-2.06-10.67-4.82-21.68-7.91-32-2.07-9.3-4.13-18.59-6.54-27.54-3.44-14.11-8.26-27.53-10.67-42-3.79-8.95-5.85-18.24-10.33-26.85-6.54-13.42-13.07-26.5-21.68-38.89a411.1 411.1 0 0 0-40.61-47.49 219.94 219.94 0 0 0-31.32-24.78 180 180 0 0 0-26.72-14.31Z"/><path fill="#ee5c30" d="M564.42 309c-10-3.78-20.65-4.13-31-2.41-9 2.41-17.89 4.48-25.81 9.29-5.16 3.45-11.36 6.2-14.45 11.71-1.72 4.81-1.72 10-2.07 14.79-.69 4.82-2.06 9.64-2.75 14.8-1 7.92-2.41 15.49-3.1 23.06-.69 8.26 0 16.52-.34 24.78 2.41 14.11 7.22 27.88 10.67 42 2.4 9.29 4.47 18.24 6.53 27.53 3.1 10.67 5.85 21.34 7.92 32 .34-1.72 2.41-1.72 3.79-2.41 6.88-1.72 13.42-4.13 20-6.2 10.32-3.44 21.33-7.57 29.25-15.48 6.19-5.17 12.05-10.33 16.18-16.87a142.81 142.81 0 0 1 7.91-12 93.9 93.9 0 0 0 9.64-20.65c1.72-4.82 3.78-9.64 5.16-14.8 1.72-6.2 2.06-12.39 3.44-18.59 1.72-8.25 1-16.51.35-24.77-.74-7.95-2.74-15.87-4.84-23.78a112 112 0 0 0-7.57-18.59 63.69 63.69 0 0 0-14.46-15.83c-4.13-3.09-8.95-6.19-14.45-7.58ZM387.86 418.45c.69-1.37-.68-2.75-1.72-3.09-4.13.34-6.54 4.47-10.32 5.85-4.48 1.72-9.29 2.75-13.77 4.81-9.63 4.13-20 7.92-28.56 14.12-4.82 3.09-8.95 7.22-13.77 10-4.82 3.44-10 6.88-13.76 11.7-3.45 4.47-8.95 7.22-13.08 11-1 1-1 2.41-1.38 3.79 7.23 1.72 14.46 2.4 21.68.68 2.76-1 6.54-1.37 8.26-4.13 1.72-3.09 4.13-5.5 6.54-8.26 2.07-2.4 5.51-2.4 8.61-3.09 7.22-1.38 14.45-1.72 21.33-4.13 2.76-.69 6.2-.69 7.92-3.1 3.1-3.44 6.88-6.54 9.63-10.32a56.92 56.92 0 0 0 7.23-14.46c1.72-3.82 3.79-7.58 5.16-11.37ZM188.6 511c-2.07-.69-4.48-2.06-6.89-1-1.72.69-3.09 2.75-4.47 3.78-4.82 0-9.29 0-13.77 1-1 2.06.35 4.13 1.38 6.19a42.31 42.31 0 0 1-7.91 5.85c-2.41 1.38-5.51 2.41-6.54 5.17-2.07 3.78-6.2 6.88-6.89 11.7 0 .34.35 1.37.35 1.72 4.47-4.82 9.29-10 15.48-12.74 5.17-1.72 11-1.72 16.52-2.41 3.45 5.51 9.64 7.92 13.43 13.08a241.54 241.54 0 0 1 21 31.66 47.16 47.16 0 0 1 4.82 11.36c1.37 4.48.34 9.64 2.41 13.77 1.72 2.75 5.5 3.44 8.6 4.13 7.23 1.72 14.46 4.13 21.68 5.5 1.72.35 4.13 1 5.51-.34-.35-3.1-4.13-3.79-6.54-4.47-5.85-1-12-3.45-16.52-7.58a13.26 13.26 0 0 1 .34-5.16c1.38-4.47 2.41-9.29 5.17-13.42 3.09-4.47 3.44-10 2.75-15.14-1-4.48 0-9-1-13.08a92.85 92.85 0 0 0-4.51-16.82c-2.75-6.89-6.88-13.08-13.07-16.87-2.41-1.72-5.17-1.72-7.58-2.41-5.5-1-10.66-2.41-16.17-2.41-3.11-.68-5.52-.34-7.58-1.06Zm224.04 7.26c-4.13-.69-7.91-1.72-12-1-3.79.34-7.57 1-11.7 1.37-5.85.35-11.36 2.41-16.87 4.13-5.85 2.07-10.32 6.2-14.8 10-5.16 4.82-7.91 11.36-11 17.56-2.06 4.81-4.47 10-4.47 15.14 0 3.78 1 7.57.69 11.7-.35 4.82 1.72 9.64 4.13 14.11 4.13 6.88 7.91 14.45 14.11 20 5.85 4.48 11 9.64 18.24 11.7 4.81 1.38 9.63 0 14.79.35 8.26.68 16.52-2.07 24.1-5.17 6.88-3.44 15.14-5.85 19.61-12.73 3.1-3.79 1.72-9.29 5.17-12.73 4.47-5.85 5.5-13.77 5.16-21 .69-6.88.69-14.11-1.38-20.65-1-3.09-3.1-5.85-4.47-8.6-1-2.41-1.72-4.82-3.44-6.88a33.14 33.14 0 0 0-11.71-9c-3.44-1.72-6.19-4.13-9.63-5.85a276.6 276.6 0 0 1-6.2 33.73c-1.37 4.47-3.09 8.94-4.47 13.42-1 2.75-1.72 5.85-4.47 7.22 1-5.85 1.72-12 3.44-17.89 1.72-7.23 1.72-14.8 3.78-22a73.13 73.13 0 0 0 3.39-16.93Zm71.59 74.68h-3.79c-1.72 4.47-2.75 8.95-4.82 13.08-1 2.75-5.5 2.06-6.19 5.16-1.72 6.2-4.13 12.39-6.54 18.59-2.75 6.88-5.16 14.11-9.29 20-2.07 3.44-5.16 5.5-7.57 8.6a94.22 94.22 0 0 0-6.54 9.64A172.13 172.13 0 0 1 425 690c-11 14.46-25.81 24.78-38.89 37.17-3.78 3.44-8.6 4.82-13.42 5.85a76.23 76.23 0 0 0-16.86 6.2c-7.92 3.78-16.52 5.85-25.13 8.26-5.85 1.72-11.7-.69-17.55-1-6.88-.68-14.45-1-20.3-4.81a14 14 0 0 0-8.26-2.76c2.75 1.72 2.75 5.17 4.13 7.57 1.37 3.45 1.72 6.89 3.09 10.33 1.73 6.88 2.07 14.45 2.76 21.68 0 .35.34 1 .69 1 4.81 3.1 9.63 5.17 14.45 8.26a56.79 56.79 0 0 0 19.62 6.2c10.32 1.37 20.65-1.38 31-1 7.57-.35 14.8-1.73 22.37-1.73 5.85-.34 11.7-2.06 17.9-2.06 5.85-.34 11-3.1 16.86-4.47a136.8 136.8 0 0 0 16.87-5.17c12.39-4.81 25.46-7.91 37.51-14.45-5.16 1.38-9.64 4.13-14.8 5.85-7.57 2.41-14.8 4.82-22.37 7.92a119.52 119.52 0 0 1-22.37 6.53 32.76 32.76 0 0 1 3.1-7.22c1.72-3.79 2.41-7.57 4.13-11.36 2.41-6.2 4.47-12.39 6.54-18.58 3.09-9.3 6.53-18.25 8.6-27.88a69.39 69.39 0 0 1 5.16-14.11c2.07-4.48 3.79-8.95 5.85-13.77 3.79-8.95 8.61-17.55 11.7-26.84 4.48-14.46 11.36-28.22 17.9-41.65 3.44-7.57 5.85-15.48 8.26-23.4a57 57 0 0 0 .69-7.62Zm-300.45 5.51c-8.6-1.38-17.9-1.72-25.81 2.41 4.13 6.54 7.57 13.42 12 20 14.8 22.71 29.94 45.77 48.53 66.08a17.83 17.83 0 0 0 5.51-8.61c2.06-6.54 5.5-12.73 6.19-19.62a45.79 45.79 0 0 0-6.54-28.56 162.51 162.51 0 0 0-11.36-15.49c-7.53-8.99-17.85-13.46-28.52-16.21Z"/><path fill="#4f3e37" d="M405.07 407.44c-5.16-3.44-11.7-2.75-17.89-2.41a140.74 140.74 0 0 0-41.3 7.23c-15.49 4.47-29.6 12.39-43.37 20.65-6.54 4.13-13.42 8.95-16.86 16.17a38.33 38.33 0 0 0-2.75 8.26c-.69-2.75-1-5.5-3.1-7.22a18.29 18.29 0 0 0 .34 8.6c-.68 0-1.72-.34-2.41-.34a27.6 27.6 0 0 0 1.73 7.22 55.73 55.73 0 0 0 7.91 12c4.13-.69 7.23-3.44 10-6.54 11.36-11.7 23.75-22.37 38.2-29.94 8.26-4.48 16.52-8.61 25.13-12.74 14.11-6.19 28.22-12 42-18.58a5.39 5.39 0 0 0 2.37-2.36Z"/><path fill="#15100d" d="M354.48 455.62c-2.41-1.37-5.51-1-8.26.35-2.41.68-2.75 3.78-3.1 6.19-.68 6.2 3.45 11.7 7.92 15.49 3.1 2.75 8.6 3.1 11.36 0s2.75-7.57 1.37-11c-1.72-4.83-4.77-8.96-9.29-11.03Z"/><path fill="#fbbb9e" d="M378.92 474.21c-3.1 2.06-5.51 4.81-8.61 7.22s-6.19 4.82-9.29 6.89c-2.06 1.37-4.82 2.41-6.19 4.82 4.47-.69 7.91-3.45 11.35-5.86 3.79-2.75 7.57-5.16 10.67-8.6 1.38-1.03 1.72-2.75 2.07-4.47Z"/><path fill="#4f3e37" d="M198.58 498.3c-11.7-7.92-26.5-7.57-39.58-3.79-15.83 4.82-31 12.39-42.68 24.44-1.72 1.37-.68 3.44-.68 5.5a11 11 0 0 0 5.85-.34c17.55-6.2 36.48-7.92 54.72-9 10.67-.34 21 1 31.32 1.72.68-1.72 2.41-3.44 1-5.16-3.44-6.19-4.13-14.8-11-18.24.36 1.77.7 3.49 1.05 4.87Z"/><path fill="#15100d" d="M176.9 533.4a8 8 0 0 0-9.3 2.41c-1.37 2.07-1 4.82-.68 7.23 1 4.47 4.47 7.91 7.57 11 2.41 2.41 6.54 2.75 8.95.69 1.72-1.38 2.06-3.1 2.4-5.16 1.04-6.88-3.44-13.07-8.94-16.17Z"/><path fill="#fbbb9e" d="M201 553a3.88 3.88 0 0 0-3.79 1 55.11 55.11 0 0 1-16.86 9.64c-2.76.69-5.85 1-8.26 2.41 5.85 1 11.7-1.38 17.21-3.44 4.8-2.02 9.28-5.12 11.7-9.61Z"/><path fill="#c13e24" d="M333.14 623.23c-.69.34-1.72 1-2.41 1.37-4.81 3.44-8.6 8.26-14.45 10-1 1.72-1.72 3.45-3.1 4.48-1.37.34-2.75-.35-3.78-.35 0 1 .34 2.07.34 3.45a76.34 76.34 0 0 1-6.54 4.82 31.18 31.18 0 0 1-2.75-4.47c-.69.34-1.38.34-2.07.69 1 2.06 1.72 4.13 2.76 6.19-4.13 2.07-8.61 4.13-12.74 6.2a41.08 41.08 0 0 1-7.91-10.67c-.69 0-1.72 0-2.07.34.69 4.82 4.13 8.26 7.23 11.36-2.41.34-5.16 2.41-7.23.34-3.44-3.09-4.82-7.57-8.6-10.32-.35 4.82 3.1 8.6 6.19 12-3.09-.34-7.22 0-9.29-2.75a31.7 31.7 0 0 0-5.85-7.57c.69 3.79 2.75 6.88 4.47 10-5.16-1.72-7.91-6.19-12.39-9q1.56 3.61 3.1 7.23c1 1 2.41 2.06 3.44 3.1 5.51 2.75 12.05 2.06 18.24 1.72 7.58-.35 14.11-3.79 20.65-7.23 12.05-6.19 21-16.86 32.35-24.09a14.94 14.94 0 0 0 2.41-6.84Z"/><path fill="#da4e33" d="M330.73 624.6c-6.19 0-11.7 2.07-17.89 2.76-5.51.68-11.36 2.06-16.87 2.41-7.22 1-14.11 3.44-21 5.5-.34.35-1 .69-1.38 1-1.37 1-2.75 3.1-4.81 2.76-1.72-.35-3.1-1-4.82-1.38h-1.72c-4.48.35-10 1.38-11.7 6.2a12.83 12.83 0 0 0 5.16 12l-3.1-7.23c4.47 2.76 7.23 7.58 12.39 8.95-1.72-3.1-3.79-6.19-4.47-10a31.9 31.9 0 0 1 5.85 7.57c2.06 2.76 6.19 2.41 9.29 2.76-2.75-3.45-6.54-6.89-6.2-12 3.79 2.41 5.51 7.23 8.61 10.33 2.06 2.06 4.82.34 7.23-.35-3.1-3.44-6.54-6.88-7.23-11.36.69 0 1.72 0 2.06-.34a47.76 47.76 0 0 0 7.92 10.67c4.13-2.07 8.6-4.13 12.73-6.2-1-2.06-1.72-4.13-2.75-6.19.69-.34 1.38-.34 2.06-.69a31 31 0 0 1 2.76 4.48 46.37 46.37 0 0 0 6.54-4.82c0-1-.35-2.07-.35-3.44 1.38.34 2.41 1 3.79.34 1.38-1 2.06-3.1 3.1-4.47 6.2-1 10.33-5.86 14.8-9.26Z"/><path fill="#b95d38" d="M354.48 452.52c-10.32 2.76-20.65 7.23-28.22 15.15a22.91 22.91 0 0 0-4.47 7.23h-2.41a21.72 21.72 0 0 1 7.22-12.39c7.92-7.58 18.24-13.08 28.91-14.46 4.13-.34 10 .69 11.7 5.16-4.13-1.03-8.21-2.06-12.73-.69ZM229.9 526.17a31 31 0 0 1 5.85 11c2.06 5.5 4.13 11 4.47 16.86.35 4.82 1 10 0 14.8-1.38 7.23-5.16 13.77-7.91 20.65-.69 2.41-1.38 6.19.68 8.26a63.52 63.52 0 0 0 17.56 6.54c2.41.69 5.16 1 7.22 2.75-.69 1.72-2.41 2.07-4.13 2.07-6.19-.35-11.7-3.45-17.2-5.17-3.79-1-7.92-2.75-9.64-6.54-2.07-3.44.69-7.22 1.72-10.66 1.38-5.51 4.82-10 6.54-15.15 3.1-15.14.34-32-8.95-44.74-2.06-2.41-2.75-5.85-4.13-8.6 3.79 1.05 6.2 4.49 7.92 7.93ZM149 537.53a60.18 60.18 0 0 1 18.24-8.95 31.15 31.15 0 0 1 18.58 0 81.2 81.2 0 0 0-33 9.64c-2.76 1.38-4.82 4.47-8.26 5.16a12.71 12.71 0 0 1 4.44-5.85Zm113.59 52.31a5.91 5.91 0 0 1 5.51 6.54c-3.1 2.41-8.61.35-10.33-3.1-.69-2.75 2.76-3.78 4.82-3.44Zm11.41 21c4.13 7.22 2.41 16.17 1.38 24.43-.35.35-1 .69-1.38 1 0-3.78.69-7.57.69-11-.05-4.8-1.09-9.61-.69-14.43Zm-10 1.03c3.44 8.26 2.06 17.55.34 26.16h-1.72c.35-5.17 1.38-10.67 1.38-15.84 0-3.44-.38-6.88 0-10.32Zm54.69 133.53c4.13 1 8.26.35 12.39-.34 6.54-1 13.08-2.07 19.62-4.48 7.57-2.75 14.79-6.88 21.68-11 10.67-6.19 20-14.45 28.91-22.71 10.67-10.33 21-21 29.94-32.7 10-13.08 19.27-26.15 28.22-39.92 2.06-4.82 5.51-9.29 7.91-13.77 4.13-7.57 7.58-15.48 11.71-23.06 3.44-8.25 6.88-16.51 12-23.4-1 4.48-3.1 8.61-4.13 13.08-1.72 5.51-3.1 11.36-5.85 16.52-5.16 9.29-10 19.27-14.8 28.56-4.47 8.26-8.26 16.87-14.11 24.1-4.82 5.85-7.91 12.39-12.73 18.24-3.79 5.16-7.92 10-12.05 14.79-4.47 4.82-8.26 10.33-13.08 14.8-10.32 9.64-20.3 20-32 27.54-6.89 4.47-14.46 7.91-21.68 11.35-7.92 3.79-16.52 5.17-24.78 6.89-3.1.68-6.2 0-9.3 0a72.51 72.51 0 0 1-8.6 0c-5.51-1-11.36-1.72-16.86-3.45-5.1-1.73-10.29-3.44-14.1-6.89a149.46 149.46 0 0 0 16.86 4.13c4.5.32 10.01.32 14.83 1.72Z"/><path fill="#f85939" d="M331.08 629.77c-11.36 7.22-20.31 17.89-32.35 24.09-6.54 3.44-13.08 6.88-20.65 7.22-6.2.35-12.74.69-18.24-1.72-.35 4.48 2.41 8.95 5.5 12a31.68 31.68 0 0 0 15.84 5.85c9.63 1.38 19.27-2.41 26.5-8.26 6.88-4.47 11.35-11 15.83-17.55 2.75-7.18 6.19-14.06 7.57-21.63Z"/><path fill="#7e2448" d="M121.83 240.87c.69-18.24 2.41-36.83 8.61-54.38a61.79 61.79 0 0 1 6.88-13.42c-1.38-.34-2.41-.69-3.79-1 3.79-3.1 7.23-6.54 11-8.95 10-2.41 19.61-6.54 29.59-7.92 7.57-1 14.8-.68 22.37-1.72 7.92-1 16.18.35 24.09.69 9.3 1.38 18.93 3.1 27.54 7.23 6.88 3.1 13.76 5.51 20.3 9.29 6.89 3.79 14.11 7.23 20.65 12.05 18.24 12.73 32 30.63 42.33 50.24 2.76 5.51 6.54 10.67 8.95 16.52.69 1.72 0 3.44-.69 4.82a66.68 66.68 0 0 0-4.13-7.23c-5.5-9.63-12-20.3-21-27.18a28.74 28.74 0 0 1-2.75-4.13c-6.54-9.3-15.15-16.87-23.75-24.1-5.16-4.47-11-7.57-16.86-10.66a76.25 76.25 0 0 0-12.05-5.51 169.79 169.79 0 0 1 18.24 26.15c11 18.93 20 39.24 27.53 59.89a171.74 171.74 0 0 1 5.85 18.93c0 .34 0 .69.35.69a4.43 4.43 0 0 0-2.07.34c-.69-1.72-1-3.79-1.72-5.51-6.88-20.65-14.8-41-25.12-59.88-5.51-10.33-11.36-20.31-18.59-29.25q-4.12-5.18-8.26-10.33c-2.06-3.1-5.85-4.47-9.29-5.5-5.85-1.73-11.7-3.79-17.55-5.17 3.44 7.23 7.92 13.77 11 21a480 480 0 0 1 24.78 60.22c4.48 13.43 8.95 26.85 12.39 41-.69.34-1.37 1-2.06 1.37-1-3.78-2.07-7.22-3.1-10.66a710.13 710.13 0 0 0-25.47-70.21c-6.19-14.11-12-27.88-20-41-1-1.37-2.06-2.75-3.78-3.09a138.14 138.14 0 0 0-17.21-2.07c12.73 30.29 22 61.61 29.94 93.61 3.1 13.08 6.19 26.16 8.6 39.24a3.9 3.9 0 0 0-2.75 1c-4.82-25.13-11.7-49.9-18.93-74.34-6.19-20-12.39-40.27-20.3-59.54a83.92 83.92 0 0 0-16.18.69c-.34 10.32 1 21 2.07 31.32 1.37 14.8 3.44 29.25 5.85 43.71 3.78 23.05 9.63 45.77 15.14 68.83-.69 0-1 .34-1.72.69-7.23-26.85-14.11-54-18.93-81.57-3.44-20.65-6.88-41.64-6.2-62.64-7.22.69-14.11 2.41-21 4.13-4.47 12.74-6.19 26.5-6.19 39.93-.35 19.27 1.72 38.54 3.78 57.81 2.07 18.93 4.82 37.86 7.92 56.79a10 10 0 0 0 .69 3.1h-2.07c-.34 0-.34 0-.34.34-.35-1.72-.69-3.44-1-5.16-4.13-20.31-6.88-40.61-9.29-60.92-2.06-17.2-4.13-34.41-4.13-52a134.56 134.56 0 0 1 2.41-26.16c1-4.47 2.75-8.6 3.79-13.08-4.13 1-7.92 1.72-11.7 3.44-1.72.35-2.41 2.07-3.1 3.44-7.23 13.08-10 27.88-12.39 42.34a270.09 270.09 0 0 0-2.41 52.65c.69 17.21 1.72 34.07 3.44 50.94.69 5.5 1.38 10.67 2.41 16.17a54.13 54.13 0 0 0 1.72 7.23h-.34a4.43 4.43 0 0 0-2.07.34c0-.34-.34-1-.34-1.37-3.79-13.77-5.16-28.22-6.54-42.68-1-10.67-1.72-21.68-2.41-32.69.05-9.6-.98-18.2-.64-27.15ZM100.49 244c-1.37 8.6-1.72 17.55-2.41 26.15 0 15.83-1 32 1.73 47.5a41.51 41.51 0 0 0 0 13.07l-.35-.34a36.64 36.64 0 0 0 .35 8.6 3.12 3.12 0 0 0-2.07-2.06c-1-10.33-1-21-2.75-31.32-2.76-17.9-2.41-36.14-.69-54 1-7.92 2.06-16.18 4.82-23.75 2.41-5.85 3.78-12 6.88-17.9a111.41 111.41 0 0 1 13.42-22c2.76-3.44 5.85-7.23 9.64-10 0 4.13-3.1 7.23-5.16 10.32A163.7 163.7 0 0 0 108.75 214c-1 2.76-1.72 5.51-2.75 8.26-3.1 6.91-4.13 14.48-5.51 21.74Zm-14.11-17.24c1-1.72 2.76-3.79 1.72-5.85a86.69 86.69 0 0 0-8.94 15.48 135 135 0 0 1-7.23 11.71c0 5.5-1.38 11.35-2.07 16.86-2.41 25.47.35 50.93 5.51 75.71 1.72 5.85 2.07 12.39 6.54 16.87-.69-5.85-2.75-11.36-3.79-16.87a254.21 254.21 0 0 1-4.47-45.42 264.86 264.86 0 0 1 1-28.57c1.75-13.77 4.16-28.22 11.73-39.92Z"/><path fill="#ac3062" d="M487 598.45Z"/><path fill="#150f0c" d="M294.94 779.82c4.82 3.1 9.64 5.16 14.46 8.26-4.82-2.41-11.02-3.44-14.46-8.26Zm221.29 41.64c-4.47 3.1-9.29 5.51-13.42 9.29-3.44 3.1-8.26 4.82-12.39 7.23l-2.42-2.41a130.72 130.72 0 0 1 11-8.26c8.26-5.51 15.83-11.36 23.4-17.55 2.06-1.72 4.47-3.79 6.88-4.82 2.07-1 3.79.69 5.51 1.38-4.44 6.19-12.02 10.32-18.56 15.14ZM530 841.42c-4.13 4.13-8.6 7.23-13.08 11-5.85 4.82-12.39 9-18.24 13.77-.34-.69-1-1.72-1.37-2.41l1.72-1.72c0-.34 0-1.38.34-1.72 4.82-3.1 10-6.19 14.11-10.32-.34-1-.69-1.73-1-2.76l10.29-9.26c4.82-4.82 8.61-10.32 13.43-15.14 1.37-1.72 3.44-1.38 5.16-1.72-.69 5.16-3.79 9.29-6.88 13.07-2.07 2.05-2.41 5.15-4.48 7.21Zm-402 486.29c1-7.22 2.41-14.45 5.85-20.64s5.85-13.08 9.63-19.28c6.89-11 11.36-23.4 16.52-35.1a234 234 0 0 0 9.29-30.29c.69-4.13 2.41-7.91 1.73-12-1.73-3.79-4.48-7.23-6.54-11a222.5 222.5 0 0 1-10-22.71c-2.76-6.88-3.1-14.45-4.48-21.68a143.68 143.68 0 0 1-2.41-24.09c4.13 15.48 9 31 14.11 46.11 3.1 8.61 6.2 17.56 10.67 25.47a169.45 169.45 0 0 0 1-29.6c0-7.91-1.72-15.83-.34-24.09s3.44-16.52 2.41-24.78c2.41 20.31 2.75 40.61 2.75 61.26 0 9.3-1.37 18.59-1.72 27.88-.34 6.88-2.75 13.42-4.47 20.31-3.79 14.79-8.26 29.94-14.8 43.7-4.13 8.26-9.29 16.18-13.77 24.09-2.41 4.48-3.78 9.64-5.5 14.46-3.1 8.6-4.13 17.9-4.82 27.19-.69 9 1.72 17.89 3.78 26.5 1.38 5.5 3.79 10.67 5.51 16.17 1.38 3.79 2.75 7.23 5.16 10.33 2.07 2.41 4.48 4.82 6.2 7.91a118.77 118.77 0 0 0 12.39 18.93 48.43 48.43 0 0 1 5.16 8.26 67.77 67.77 0 0 0 9 13.08c-.69 0-1.72-.34-2.41-.34-1.72-1.73-3.1-3.79-4.82-5.51a33.23 33.23 0 0 1 .69 5.85c-4.13-5.16-5.51-12-9.64-17.21-4.82-7.23-10.32-14.45-15.83-21.34a47 47 0 0 1-6.88-10c-3.44-7.22-8.26-14.11-10.67-21.68-2.07-6.88-4.13-13.76-4.82-21a118.08 118.08 0 0 1 2.07-25.16Zm617.79-17.2c-5.85-9.3-7.23-20-9.3-30.29a340.63 340.63 0 0 1-4.47-67.45c.34-8.26.34-16.87.69-25.13h2.41c1.72 11.7 0 23.41 1.37 35.11 1.73 6.54 2.07 13.42 3.1 20q2.07 15.48 5.16 31a94 94 0 0 0 4.13 16.87c3.1 8.94 5.85 18.24 8.61 27.53 2.06 6.54 2.75 13.42 6.54 19.27.69 1.38 2.41 3.79.34 4.82-1.72 1-3.44-1-4.47-2.41-3.79-5.16-6.2-11-8.95-16.52-2.07-4.2-2.75-8.67-5.16-12.8ZM706.9 1240c3.78 13.08 10.32 24.78 15.14 37.52 5.51 13.42 11 27.19 18.93 39.92 2.41 5.51 5.85 10.32 8.95 15.83 2.06 3.44 4.47 6.54 6.19 10-3.44-2.75-6.19-6.19-9.29-9.29-5.16-5.51-8.6-12.39-12.73-18.93-7.58-12.39-12.74-25.81-18.24-39.23-6.2-15.49-11.71-31.32-15.15-47.5h2.41c1.38 3.38 2.41 7.5 3.79 11.68Zm-202.02 228.13a232.4 232.4 0 0 0 25.12-11c5.85-2.76 11.36-6.89 16.52-10.67a224.86 224.86 0 0 0 29.94-27.19 245.6 245.6 0 0 0 24.09-32.35c7.92-12.05 15.15-24.78 22-37.86a3.52 3.52 0 0 0 1-.34l-7.23 19.62c-2.75 13.07-11.7 23.4-17.2 35.44-4.13 8.61-11.36 14.8-17.56 21.69-12.39 12.38-26.15 24.43-42.33 31.66-7.57 3.09-14.45 6.88-22.37 9.63-8.26 2.76-16.86 5.51-25.46 7.58-2.41.34-4.48-.35-6.89-.35v-1.38c7.29-1.73 13.83-2.76 20.37-4.48Z"/><path fill="#cc492f" d="M536.2 378.88c6.19-13.77 15.14-28.91 29.94-34.76 2.41-1 3.44 2.75 1 3.78-14.11 5.51-22.71 21.34-28.22 34.76a119.58 119.58 0 0 0-9.64 47.49c0 2.41-4.13 2.41-4.13 0a126 126 0 0 1 11.05-51.27Z"/></svg>