<svg xml:space="preserve" xmlns:xlink="http://www.w3.org/1999/xlink" enable-background="new 0 0 180 180" viewBox="0 0 180 180" xmlns="http://www.w3.org/2000/svg"><defs><path id="a" d="M0 0h180v180H0z"/></defs><use xlink:href="#a" fill="#9a2de0" overflow="visible"/><clipPath id="b"><use xlink:href="#a" overflow="visible"/></clipPath><g clip-path="url(#b)"><path fill="#7e2448" d="M84.7 25c2.8-.8 5.7-1.2 8.5-.7 1.1.2 2.2.6 3.3 1 .8.3 1.7.6 2.5.9 1.1.4 2.1 1 3.1 1.7.6.4 1.2.9 1.8 1.4.5.5.8 1.1 1.2 1.7.4.7.7 1.5 1 2.2h.5c-.5.3-1.1.4-1.6.5-1.1.4-2.2.8-3.3 1.3-1.3.5-2.6 1.1-3.8 1.8-1.7.9-3.3 1.9-4.9 3.1-1.2.9-2.4 1.8-3.5 2.9-1.1 1-2.1 2.1-3 3.3-1.1 1.3-2 2.9-2.9 4.4-1 1.7-1.8 3.5-2.5 5.4-.5 1.6-1.1 3.2-1.5 4.8-.4 1.8-.8 3.7-1 5.5 0 .6-.1 1.2-.2 1.8-.1 1.2.1 2.4.2 3.6.1 1.7.5 3.4 1 5 .4 1.2.8 2.4 1.5 3.4.4.6.7 1.3 1.1 2 .8 1.3 1.8 2.4 2.5 3.7.8 1.2 1.4 2.6 1.8 4 .5 1.7.9 3.3 1 5.1 0 .6-.1 1.2-.1 1.8-.9.3-1.9.6-2.9.8-.6.2-1.3-.1-1.9 0-.4 0-.7 0-1-.1-1-.3-1.9-.7-2.9-.8-.9-.1-1.6.5-2.1 1.1-1 .8-2.4 1.2-3.7 1.1-.8 0-1.5-.2-2.1-.4-1.2-.4-2.1-1.1-3.2-1.7s-2.3-1-3.6-1c-1.1 0-2.1.4-3.2.6-.8.2-1.6.4-2.4.3-1.9-.2-3.5-1.2-4.9-2.5-.9-.8-1.7-1.8-2.2-2.9-.4-.8-.5-1.7-.9-2.5-.2-.4-.4-.7-.5-1.1-.2-.4-.6-.6-.9-.9-1.3-1.2-2.4-2.8-2.5-4.6-.1-1 .3-1.9.5-2.9.3-1.2 1-2.2 1.5-3.3.8-1.7.3-3.6 1-5.2.5-1.1 1.4-2.1 2.5-2.5 1-.4 2.1-.5 3-1.2.8-.6 1.2-1.5 1.3-2.4.2-1.1.2-2.2-.3-3.2-.3-.9-.7-1.8-.8-2.8-.1-.9 0-1.9.2-2.8.3-1.8.8-3.6 1.8-5.1.9-1.3 2-2.4 3.1-3.5.7-.6 1-1.4 1.4-2.2.7-1.3 1.4-2.6 2.6-3.5.8-.6 1.7-1 2.6-1.2.7-.1 1.5-.1 2.1-.4.9-.3 1.7-.8 2.4-1.4.8-.8 1.4-1.9 1.9-2.9.4-.9.8-1.8 1.3-2.6.4-.7 1-1.4 1.5-2 1.3-2 3.2-3.7 5.4-4.7 1-.3 2.1-.9 3.2-1.2z"/><path fill="#ac3062" d="M141.6 56c-.6-2-1.4-3.9-2.6-5.7v.5c-.1-.2-.3-.4-.5-.6-.1-.1-.3-.2-.4-.3-.2-.8-.5-1.7-1-2.4-.1-.2-.4-.5-.2-.8-.7-1-1.6-1.8-2.3-2.7-.6-.7-1.4-1.3-2-2.1-.5-.6-1.1-1.1-1.7-1.6h-.2c0-.1-.1-.1-.2-.2-.5-.6-1.1-1.1-1.7-1.5-.5-.4-1.1-.8-1.7-1.1-1.4-.8-3-1.5-4.5-2.2-3.6-1.7-7.6-2.4-11.5-2.5-.9 0-1.9.1-2.8.1-.7 0-1.3.1-2 .3-.5.3-1.1.4-1.6.5-1.1.4-2.2.8-3.3 1.3-1.3.5-2.6 1.1-3.8 1.8-1.7.9-3.3 1.9-4.9 3.1-1.2.9-2.4 1.8-3.5 2.9-1.1 1-2.1 2.1-3 3.3-1.1 1.3-2 2.9-2.9 4.4-1 1.7-1.9 3.5-2.5 5.4-.6 1.6-1.1 3.2-1.5 4.8-.4 1.8-.8 3.7-1 5.5 0 .6-.1 1.2-.2 1.8-.1 1.2.1 2.4.2 3.6.1 1.7.5 3.4 1 5 .4 1.2.8 2.4 1.5 3.4.4.6.7 1.3 1.1 2 .8 1.3 1.7 2.4 2.5 3.7.8 1.2 1.4 2.6 1.8 4 .5 1.7.9 3.3 1 5.1 0 .6-.1 1.2-.1 1.8 1.5-.5 3-1.1 4.3-2.1 2-1.7 3.5-3.7 5.1-5.7 1.7-2 3.7-3.6 6-4.7 1.9-.8 3.8-1.5 5.7-2.3 3.9-1.7 7.5-3.9 11.1-6.3 3-2.1 6.1-4.2 9.4-5.8 1-.5 2.1-.8 3.1-1.2.8-.3 1.5-.7 2.2-1s1.3-.6 2-.9c.9-.5 1.9-.8 2.6-1.5-.2.3-.3.5-.1.8h.5c.3-.2.7 0 .9-.2.6-.6 1.1-1.5 1.4-2.3.4-.8.6-1.8.8-2.7V59c0-1-.2-2-.5-3z"/><path fill="#38312d" d="M37.8 218.1c.1-.3.2-.5.4-.8.4-1 .8-2.1 1.2-3 1.3-2.8 2.6-5.5 3.7-8.3.4-1.1.9-2.1 1.4-3.1l1.2-2.7c1-1.8 1.7-3.7 2.5-5.6.4-.7.7-1.5 1.1-2.2h.1c.2.8.5 1.6.8 2.3.7 1.6 1.4 3 2.1 4.6 1 2.2 2 4.5 3 6.7.4.8.7 1.5 1 2.3.5 1.4 1.1 2.9 1.7 4.3.4.8.4 1.8.7 2.7.2 1 .4 2 .6 2.9h60.5c.2-.7.4-1.3.7-2 .4-1.2.7-2.4 1.2-3.5.4-1 .7-2.1 1.2-3.1.3-.6.6-1.2.8-1.7.4-.9.9-1.7 1.5-2.5h-.3c.4-.5.8-1.1 1.2-1.7.2-.4.4-.8.7-1.1.6-.8 1.2-1.6 1.6-2.5.2-.4.5-.7.8-1 .4-.4.5-.8.7-1.3.2-.7.5-1.4.7-2.1.3-1.1.6-2.3.5-3.4-.1-1.2-.2-2.4-.6-3.5-.2-.6-.4-1.3-.7-1.9-.6-1.1-1.2-2.1-1.8-3.1-.9-1.8-1.4-3.7-1.9-5.7-.2-.8-.5-1.7-.6-2.6 0-1.2-.2-2.4-.2-3.6 0-2.6 0-5.3.4-7.9-.1 1.1.2 2.1.3 3.2.2 1 0 2.1 0 3.1 0 1.3-.1 2.6.1 3.8.6-1.1.9-2.2 1.4-3.3.7-2 1.3-3.9 1.8-6 0 1-.1 2.1-.3 3.1-.2.9-.2 1.9-.6 2.8-.4 1-.8 2-1.3 2.9-.3.5-.6.9-.8 1.4-.1.5.1 1.1.2 1.6.3 1.3.7 2.7 1.2 3.9.6 1.6 1.2 3.1 2.1 4.6.5.8.8 1.7 1.2 2.5s.6 1.8.8 2.7c.1 1 .3 2.1.3 3.1-.1.9-.3 1.8-.6 2.7-.3 1-.9 1.9-1.4 2.8-.2.5-.5.9-.9 1.3-.7.9-1.4 1.8-2.1 2.8-.5.7-.7 1.6-1.2 2.2v.1c.1.1.1.3.2.4.4 1.7.9 3.3 1.3 4.9.3 1 .5 2.1.7 3.1.3 1.4.7 2.8 1 4.2h19.3c0-.2 0-.4-.1-.6-.2-1.7-.3-3.5-.5-5.2-.3-2.5-.5-5.1-.9-7.6-.3-1.7-.5-3.3-.7-5-.2-2.4-.5-4.8-1.1-7.1-.3-1.1-.4-2.2-.5-3.3-.3-1.8-.5-3.6-1-5.3-.4-1.1-.5-2.3-.8-3.4-.4-1.9-.8-3.9-1.3-5.8-.3-2.3-.8-4.6-1.2-6.8-.4-2.3-1.1-4.6-1.7-6.8-.4-1.2-.7-2.5-1.1-3.7-.2-.7-.5-1.3-.8-2 0-.1-.3-.6-.4-.8l-1.2-2.4h-.1v-.1c-.4-.9-.9-1.8-1.4-2.6s-1-1.6-1.9-2.1c-.5-.4-1-.9-1.5-1.3-.9-.8-1.9-1.6-2.9-2.4-1.4-1.1-3-2-4.4-3.1-.8-.6-1.6-1.1-2.3-1.7-.9-.7-1.7-1.5-2.5-2.3-.6-.6-1.3-1.2-1.8-1.9-.4-.4-.7-.9-1.1-1.4-.5-.6-.8-1.2-1.3-1.9-.6-.8-1-1.9-1.5-2.8-.2-.4-.3-.9-.6-1.2l-.6-2.1c-.4-1.2-.6-2.5-.7-3.8 0-.8 0-1.7-.1-2.6h-.3v-.2.1s0 .1-.1.1c-.4.6-1.2.8-1.9 1.1-.8.4-1.7.7-2.5.8-1.3.2-2.7-.2-4-.1-1 0-1.9-.2-2.9-.2-.8 0-1.5-.3-2.3-.3s-1.4-.4-2.2-.6c-.8-.2-1.5-.4-2.2-.7-1.6-.6-3.3-1-4.9-1.9-.5-.2-.9-.7-1.4-.9-.7-.4-1.4-.8-2-1.3-.4-.4-.8-.6-1.2-1-.2-.2-.2-.5-.3-.8-.8.7-.9 1.7-1.3 2.6-.5 1.1-1 2.3-1.3 3.5-.2.7-.6 1.3-.8 2-.4.8-.6 1.7-1.1 2.4-1.2 1.9-2.4 3.7-3.9 5.4-.2.3-.5.5-.7.8-.3.3-.5.6-.8.9-1.3 1.2-2.7 2.2-4.1 3.2-1.7 1.2-3.3 2.2-5 3.3-1.7 1.1-3.4 2.1-5 3.3-1.1.8-2.3 1.3-3.4 2-3.3 1.8-6.3 4.1-9 6.7-1.2 1.1-2.4 2.2-3.4 3.4-.6.7-1.1 1.4-1.7 2.1-.6.9-1.2 1.8-1.7 2.8-.5.8-.8 1.8-1.3 2.6s-1 1.5-1.4 2.3-.8 1.7-1.3 2.5c-.4.8-.8 1.5-1.2 2.3-.9 2-1.7 4-2.6 5.9-.5.9-1 1.9-1.3 2.9-.4 1-.6 2-1 2.9-.7 1.8-1.4 3.5-2.1 5.3-.4 1-.6 2-.9 2.9-.4 1.3-.8 2.6-1.3 3.9-.7 2-1.4 3.9-2 5.9-.5 1.9-1.2 3.8-1.7 5.8-.4 1.2-2.5 9.1-4.1 15.1l21 .5z"/><path fill="#ee5c30" d="M140.2 65.8c-.5-.7-1.4-.8-2.1-.9-.7-.2-1.3-.4-2-.5V64c.3-.9.4-1.9.5-2.9 0-.8.2-1.5.1-2.3-.4 1.4-.8 2.8-1.4 4.1 0 .1 0 .3-.1.4 0 0 0 .1-.1.1 0 .2-.1.4-.1.6-1-.3-2.1-.6-3.1-1-.9-.3-1.9-.7-2.8-1.2 0-.8-.1-1.7-.1-2.5 0-1-.1-1.9 0-2.9 0-.5 0-1.1.1-1.7 0 .3-.1.5-.1.8 0 .1 0 .2-.1.2 0 .7-.2 1.3-.3 1.9 0 .7-.2 1.4-.3 2.1-.1.4-.1.9-.4 1.4h-.2c-.1-.2-.4-.4-.6-.5-2.6-1.4-5.3-2.6-8.1-3.5.2-1.5.2-2.9.4-4.4.2-.9.3-1.9.5-2.9-.8 2.3-1.4 4.6-2 6.9-2.2-.7-4.5-1.2-6.7-1.7.6-2.1 1.2-4.2 2-6.3.4-1 .7-2.1 1.3-3-.1.1-.2.2-.3.2-1.1 1.7-2 3.5-2.8 5.4-.5 1.2-.9 2.4-1.4 3.5-.8-.2-1.6-.4-2.5-.4-.4 0-.8-.3-1.2-.4-.5-.1-1-.4-1.5-.5h-.3c.7.4 1.3.9 2 1.4.4.3.7.6 1.1.8.3.1.7.3.9.4 1.9 1.4 4 2.5 6.2 3.4 1.7.8 3.4 1.8 5.1 2.5 1.8.7 3.5 1.7 5.3 2.5.8.4 1.7.7 2.5 1.1s1.7.8 2.6 1.2c1.7 1 3.5 1.9 5.3 2.9 1.3.7 2.4 1.8 3.5 2.7.4-1.5.8-3 1.1-4.6 0-.5-.1-1.3.1-2z"/><path fill="#f2844f" d="M102.5 50.9c.5-.2 1.2-.1 1.7-.4h.3v.8c-.2.7-.2 1.3-.3 2.1l.6.3h-.3c.7.4 1.3.9 2 1.4.4.3.7.6 1.1.8.3.1.7.3.9.4 1.9 1.4 4 2.5 6.2 3.4 1.7.8 3.4 1.8 5.1 2.5 1.8.7 3.5 1.7 5.3 2.5.8.4 1.7.7 2.5 1.1s1.7.8 2.6 1.2c1.7 1 3.5 1.9 5.3 2.9 1.3.7 2.4 1.8 3.5 2.7-.2.8-.5 1.6-.8 2.5-.5 1.4-.8 2.8-1.4 4.1-.3.8-.6 1.6-1 2.3-.4.8-.8 1.7-1.2 2.5-.4 1-1 1.9-1.6 2.9-.8 1.5-1.6 3.1-2.5 4.6-.6 1.1-1.2 2.2-1.9 3.3-.3.4-.6.9-.8 1.4-1-.5-2.2-.5-3.3-.3-1.4.3-2.7.9-3.7 2.1-.5.6-1 1.3-1.5 2-.7 1.1-1 2.4-.8 3.7.1.9.5 1.7.8 2.5.1.4.4.8.7 1.1-1.3 1.5-2.8 2.8-4.3 3.9-1.3.9-2.5 2-3.9 2.7-.1.1-.3.1-.4.1-.4 0-.8.1-1.1.4-.8.5-1.7.5-2.6.6-.8 0-1.5.3-2.3.1-1.1-.3-2.2-.6-3.3-1.1-.7-.4-1.4-.6-2.2-.8-.6-.1-1.3-.3-1.7-.8-1.7-1.6-3.6-2.9-5-4.8-.7-.9-1.3-1.8-1.9-2.9-.2-.4-.5-.8-.8-1.2-.3-.4-.7-.7-1-1.1-.5-.8-.8-1.7-1.2-2.6-.3-.8-.6-1.6-.8-2.4-.1-.4-.7-.3-.8-.7-.3-.5-.4-1.1-.6-1.7h-.5c0 .3 0 .7.1 1 .3 1 .6 2.1 1.1 3 .8 1.7 1.7 3.5 2.3 5.4.4 1.2 1 2.3 1.5 3.5.3.6.5 1.2.8 1.8.3.6.5 1.2.7 1.8.3 1.2.7 2.4 1.1 3.6.3.8.5 1.6.8 2.4.2.5.3 1 .5 1.5.1.3.3.6.4.9-1-.2-2-.5-2.9-.8-.9-.4-1.9-.7-2.9-1-.7-.2-1.2-.6-1.9-.8-.5-.2-.9-.7-1.4-.9-.7-.4-1.4-.8-2-1.3-.4-.4-.8-.6-1.2-1-.2-.2-.2-.5-.3-.8 0-1.1.2-2.1.3-3.2.1-1.7.2-3.3.4-4.9 0-1.7.1-3.3.1-5 .1-1.8 0-3.6-.1-5.4-.1-.9 0-1.9-.1-2.8 0-1.5-.3-2.9-.4-4.4-.1-.9-.1-1.8-.1-2.7 0-.4-.1-.8 0-1.2.3-1.4.6-2.8 1-4.1.3-1.2.5-2.4.8-3.6.4-1.8 1.1-3.6 1.4-5.4.5-1.2.8-2.4 1.3-3.5.8-1.7 1.7-3.4 2.8-5 1.6-2.2 3.3-4.2 5.3-6.2 1.2-1.2 2.6-2.3 4.1-3.2 1-.6 2.2-1.3 3.4-1.8z"/><path fill="#ee5c30" d="M75.2 58.2c1.3-.5 2.7-.5 4-.3 1.2.3 2.3.6 3.3 1.2.7.4 1.5.8 1.9 1.5.2.6.2 1.3.3 1.9.1.6.3 1.2.4 1.9.1 1 .3 2 .4 3 .1 1.1 0 2.1 0 3.2-.3 1.8-.9 3.6-1.4 5.4-.3 1.2-.6 2.4-.8 3.6-.4 1.4-.8 2.8-1 4.1 0-.2-.3-.2-.5-.3-.9-.2-1.7-.5-2.6-.8-1.3-.4-2.8-1-3.8-2-.8-.7-1.6-1.3-2.1-2.2-.3-.5-.7-1.1-1-1.6-.5-.8-.9-1.7-1.2-2.7-.2-.6-.5-1.2-.7-1.9-.2-.8-.3-1.6-.4-2.4-.2-1.1-.1-2.1 0-3.2.1-1 .4-2.1.6-3.1.3-.8.6-1.7 1-2.4.5-.8 1.2-1.5 1.9-2.1.3-.2 1-.6 1.7-.8zm22.9 14.2c-.1-.2.1-.4.2-.4.5 0 .8.6 1.3.8l1.8.6c1.2.5 2.6 1 3.7 1.8.6.4 1.2.9 1.8 1.3.6.4 1.3.9 1.8 1.5.4.6 1.2.9 1.7 1.4.1.1.1.3.2.5-.9.2-1.9.3-2.8.1-.4-.1-.8-.2-1.1-.5-.2-.4-.5-.7-.8-1.1-.3-.3-.7-.3-1.1-.4-.9-.2-1.9-.2-2.8-.5-.4-.1-.8-.1-1-.4-.4-.4-.9-.8-1.2-1.3-.4-.6-.7-1.2-.9-1.9-.4-.5-.7-1-.8-1.5zm25.8 12c.3-.1.6-.3.9-.1.2.1.4.4.6.5.6 0 1.2 0 1.8.1.1.3 0 .5-.2.8.3.3.7.6 1 .8.3.2.7.3.8.7.3.5.8.9.9 1.5v.2c-.6-.6-1.2-1.3-2-1.7-.7-.2-1.4-.2-2.1-.3-.4.7-1.2 1-1.7 1.7-1 1.3-1.9 2.7-2.7 4.1-.3.5-.5.9-.6 1.5-.2.6 0 1.2-.3 1.8-.2.4-.7.4-1.1.5-.9.2-1.9.5-2.8.7-.2 0-.5.1-.7 0 0-.4.5-.5.8-.6.8-.1 1.6-.4 2.1-1v-.7c-.2-.6-.3-1.2-.7-1.7-.4-.6-.4-1.3-.4-2 .1-.6 0-1.2.1-1.7.1-.8.3-1.5.6-2.2.4-.9.9-1.7 1.7-2.2.3-.2.7-.2 1-.3.7-.1 1.4-.3 2.1-.3.3-.1.6 0 .9-.1zm-29 .9c.5-.1 1-.2 1.6-.1.5 0 1 .1 1.5.2.8 0 1.5.3 2.2.5.8.3 1.3.8 1.9 1.3.7.6 1 1.5 1.4 2.3.3.6.6 1.3.6 2 0 .5-.1 1-.1 1.5 0 .6-.2 1.2-.5 1.8-.5.9-1 1.9-1.8 2.6-.8.6-1.4 1.2-2.4 1.5-.6.2-1.2 0-1.9 0-1.1.1-2.1-.3-3.1-.7-.9-.4-2-.8-2.5-1.7-.4-.5-.2-1.2-.7-1.7-.6-.8-.7-1.8-.7-2.7-.1-.9-.1-1.8.2-2.7.1-.4.4-.8.6-1.1.1-.3.2-.6.4-.9.4-.5.9-.9 1.5-1.2.4-.2.8-.5 1.2-.8.2 1.5.4 2.9.8 4.4.2.6.4 1.2.6 1.7.1.4.2.8.6.9-.1-.8-.2-1.6-.4-2.3-.2-.9-.2-1.9-.5-2.9-.3-.4-.5-1.2-.5-1.9zM85.6 95h.5c.2.6.4 1.2.6 1.7.1.4.7.3.8.7.2.8.5 1.6.8 2.4.4.9.7 1.8 1.2 2.6.3.4.7.7 1 1.1s.6.8.8 1.2c.5 1 1.2 1.9 1.9 2.9 1.4 1.9 3.3 3.2 5 4.8.5.4 1.1.6 1.7.8.8.2 1.5.4 2.2.8 1 .5 2.1.8 3.3 1.1.8.2 1.5-.1 2.3-.1.9-.1 1.9-.1 2.6-.6.3-.2.7-.4 1.1-.4-.4.2-.4.7-.5 1-.2.4-.2.9-.4 1.3-.2.9-.3 1.9-.4 2.8 0 0 0 .1-.1.1-.6.4-1.2.7-1.9 1.1-.8.4-1.7.7-2.5.8-1.3.2-2.7-.2-4-.1-1 0-1.9-.2-2.9-.2-.8 0-1.5-.3-2.3-.3s-1.4-.4-2.2-.6c-.8-.2-1.5-.4-2.2-.7-1.6-.6-3.3-1-4.9-1.9.7.2 1.2.5 1.9.8 1 .3 1.9.6 2.9 1 .9.4 1.9.7 2.9.8-.1-.3-.2-.6-.4-.9-.2-.5-.3-1-.5-1.5-.3-.8-.6-1.6-.8-2.4-.4-1.2-.8-2.4-1.1-3.6-.1-.6-.4-1.2-.7-1.8s-.5-1.2-.8-1.8c-.5-1.2-1.1-2.3-1.5-3.5-.6-1.9-1.5-3.7-2.3-5.4-.4-1-.8-2-1.1-3v-1zm38.9.7c1.1-.2 2.3-.2 3.3.3-.5.8-1 1.7-1.6 2.6-1.9 2.9-3.9 5.9-6.3 8.6-.4-.3-.6-.7-.7-1.1-.3-.8-.7-1.7-.8-2.5-.1-1.3.2-2.6.8-3.7.4-.7.9-1.4 1.5-2 1.1-1.2 2.4-1.8 3.8-2.2z"/><path fill="#4f3e37" d="M95.8 71c.7-.4 1.5-.4 2.3-.3 1.8 0 3.6.4 5.4.9 2 .6 3.8 1.6 5.6 2.7.8.5 1.7 1.2 2.2 2.1.2.4.3.7.4 1.1.1-.4.1-.7.4-.9.1.4 0 .8 0 1.1h.3c0 .3-.1.6-.2.9-.3.5-.6 1.1-1 1.6-.5-.1-.9-.4-1.3-.8-1.5-1.5-3.1-2.9-5-3.9-1.1-.6-2.1-1.1-3.3-1.7-1.8-.8-3.7-1.6-5.4-2.4l-.4-.4z"/><path fill="#15100d" d="M102.4 77.2c.3-.2.7-.1 1.1 0 .3.1.4.5.4.8.1.8-.4 1.5-1 2-.4.4-1.1.4-1.5 0s-.4-1-.2-1.4c.2-.6.6-1.1 1.2-1.4z"/><path fill="#fbbb9e" d="M99.2 79.6c.4.3.7.6 1.1.9l1.2.9c.3.2.6.3.8.6-.6-.1-1-.4-1.5-.8s-1-.7-1.4-1.1c-.1 0-.1-.3-.2-.5z"/><path fill="#4f3e37" d="M122.6 82.7c1.5-1 3.4-1 5.1-.5 2.1.6 4 1.6 5.5 3.2.2.2.1.4.1.7h-.8c-2.3-.8-4.7-1-7.1-1.2-1.4 0-2.7.1-4.1.2-.1-.2-.3-.4-.1-.7.4-.8.5-1.9 1.4-2.4.1.3 0 .6 0 .7z"/><path fill="#15100d" d="M125.4 87.3c.4-.2.9 0 1.2.3.2.3.1.6.1.9-.1.6-.6 1-1 1.4-.3.3-.8.4-1.2.1-.2-.2-.3-.4-.3-.7-.1-.8.5-1.6 1.2-2z"/><path fill="#fbbb9e" d="M122.3 89.8c.2 0 .4 0 .5.1.7.5 1.4 1 2.2 1.2.4.1.8.1 1.1.3-.8.1-1.5-.2-2.2-.4-.7-.2-1.3-.6-1.6-1.2z"/><path fill="#c13e24" d="M105.2 98.9c.1 0 .2.1.3.2.6.4 1.1 1.1 1.9 1.3.1.2.2.4.4.6h.5v.4c.3.2.6.4.8.6.1-.2.3-.4.4-.6.1 0 .2 0 .3.1-.1.3-.2.5-.4.8.5.3 1.1.5 1.7.8.4-.4.8-.8 1-1.4h.3c-.1.6-.5 1.1-.9 1.5.3 0 .7.3.9 0 .4-.4.6-1 1.1-1.3 0 .6-.4 1.1-.8 1.6.4 0 .9 0 1.2-.4.2-.4.4-.7.8-1-.1.5-.4.9-.6 1.3.7-.2 1-.8 1.6-1.2-.1.3-.3.6-.4.9l-.4.4c-.7.4-1.6.3-2.4.2-1 0-1.8-.5-2.7-.9-1.6-.8-2.7-2.2-4.2-3.1-.3-.2-.4-.5-.4-.8z"/><path fill="#da4e33" d="M105.5 99.1c.8 0 1.5.3 2.3.4.7.1 1.5.3 2.2.3.9.1 1.8.4 2.7.7 0 0 .1.1.2.1.2.1.4.4.6.4s.4-.1.6-.2h.2c.6 0 1.3.2 1.5.8.1.6-.2 1.2-.7 1.6.1-.3.3-.6.4-.9-.6.4-.9 1-1.6 1.2.2-.4.5-.8.6-1.3-.3.3-.5.6-.8 1s-.8.3-1.2.4c.4-.4.8-.9.8-1.6-.5.3-.7.9-1.1 1.3-.3.3-.6 0-.9 0 .4-.4.8-.9.9-1.5h-.3c-.3.5-.6 1-1 1.4-.5-.3-1.1-.5-1.7-.8.1-.3.2-.5.4-.8-.1 0-.2 0-.3-.1-.1.2-.3.4-.4.6-.3-.2-.6-.4-.8-.6v-.4c-.2 0-.3.1-.5 0s-.3-.4-.4-.6c-.6-.3-1.1-.9-1.7-1.4z"/><path fill="#b95d38" d="M102.4 76.8c1.3.4 2.7.9 3.7 2 .3.3.4.6.6.9h.3c-.1-.6-.4-1.2-.9-1.6-1-1-2.4-1.7-3.7-1.9-.5 0-1.3.1-1.5.7.4-.1.9-.3 1.5-.1zm16.1 9.6c-.4.4-.6.9-.8 1.4-.3.7-.5 1.4-.6 2.2 0 .6-.1 1.3 0 1.9.2.9.7 1.8 1 2.7.1.3.2.8-.1 1.1-.7.4-1.5.7-2.3.8-.3.1-.7.1-.9.4.1.2.3.3.5.3.8 0 1.5-.4 2.2-.7.5-.1 1-.4 1.2-.8.3-.4-.1-.9-.2-1.4-.2-.7-.6-1.3-.8-2-.4-2 0-4.1 1.2-5.8.3-.3.4-.8.5-1.1-.3.1-.6.5-.9 1zm10.5 1.4c-.7-.5-1.5-.9-2.4-1.2-.8-.3-1.7-.2-2.4 0 1.5.1 2.9.5 4.3 1.2.4.2.6.6 1.1.7-.1-.2-.3-.5-.6-.7zm-14.7 6.8c-.4 0-.8.4-.7.8.4.3 1.1 0 1.3-.4.1-.3-.3-.4-.6-.4zm-1.5 2.7c-.5.9-.3 2.1-.2 3.2 0 0 .1.1.2.1 0-.5-.1-1-.1-1.4 0-.6.2-1.2.1-1.9zm1.3.2c-.4 1.1-.3 2.3 0 3.4h.2c0-.7-.2-1.4-.2-2.1 0-.4.1-.9 0-1.3zm-7.1 17.3c-.5.1-1.1 0-1.6 0-.8-.1-1.7-.3-2.5-.6-1-.4-1.9-.9-2.8-1.4-1.4-.8-2.6-1.9-3.7-2.9-1.4-1.3-2.7-2.7-3.9-4.2-1.3-1.7-2.5-3.4-3.7-5.2-.3-.6-.7-1.2-1-1.8l-1.5-3c-.4-1.1-.9-2.1-1.6-3 .1.6.4 1.1.5 1.7.2.7.4 1.5.8 2.1.7 1.2 1.3 2.5 1.9 3.7.6 1.1 1.1 2.2 1.8 3.1.6.8 1 1.6 1.7 2.4.5.7 1 1.3 1.6 1.9s1.1 1.3 1.7 1.9c1.3 1.2 2.6 2.6 4.1 3.6.9.6 1.9 1 2.8 1.5 1 .5 2.1.7 3.2.9.4.1.8 0 1.2 0h1.1c.7-.1 1.5-.2 2.2-.4.7-.2 1.3-.4 1.8-.9-.7.2-1.5.4-2.2.5-.5-.1-1.2-.1-1.9.1z"/><path fill="#f85939" d="M105.4 99.8c1.5.9 2.6 2.3 4.2 3.1.8.4 1.7.9 2.7.9.8 0 1.7.1 2.4-.2 0 .6-.3 1.2-.7 1.6-.6.4-1.3.7-2.1.8-1.2.2-2.5-.3-3.4-1.1-.9-.6-1.5-1.4-2.1-2.3-.3-.9-.8-1.8-1-2.8z"/><path fill="#7e2448" d="M132.6 49.4c-.1-2.4-.3-4.8-1.1-7-.2-.6-.5-1.2-.9-1.7.2 0 .3-.1.5-.1-.5-.4-.9-.8-1.4-1.2-1.3-.3-2.5-.8-3.8-1-1-.1-1.9-.1-2.9-.2s-2.1 0-3.1.1c-1.2.2-2.5.4-3.6.9-.9.4-1.8.7-2.6 1.2-.9.5-1.8.9-2.7 1.6-2.4 1.7-4.1 4-5.5 6.5l-1.2 2.1c-.1.2 0 .4.1.6.2-.4.4-.7.5-.9.7-1.2 1.6-2.6 2.7-3.5.1-.2.3-.4.4-.5.8-1.2 2-2.2 3.1-3.1.7-.6 1.4-1 2.2-1.4.5-.3 1-.5 1.6-.7-.9 1.1-1.7 2.2-2.4 3.4-1.4 2.5-2.6 5.1-3.6 7.8-.3.8-.5 1.6-.8 2.5v.1h.3c.1-.2.1-.5.2-.7.9-2.7 1.9-5.3 3.3-7.8.7-1.3 1.5-2.6 2.4-3.8.4-.4.7-.9 1.1-1.3.3-.4.8-.6 1.2-.7.8-.2 1.5-.5 2.3-.7-.4.9-1 1.8-1.4 2.7-1.2 2.5-2.3 5.1-3.2 7.8-.6 1.7-1.2 3.5-1.6 5.3.1 0 .2.1.3.2.1-.5.3-.9.4-1.4.9-3.1 2.1-6.2 3.3-9.1.8-1.8 1.6-3.6 2.6-5.3.1-.2.3-.4.5-.4.7-.1 1.5-.2 2.2-.3-1.7 3.9-2.9 8-3.9 12.1-.4 1.7-.8 3.4-1.1 5.1.1 0 .3 0 .4.1.6-3.3 1.5-6.5 2.5-9.6.8-2.6 1.6-5.2 2.6-7.7.7 0 1.4 0 2.1.1 0 1.3-.1 2.7-.3 4.1-.2 1.9-.4 3.8-.8 5.7-.5 3-1.2 5.9-2 8.9.1 0 .1 0 .2.1.9-3.5 1.8-7 2.5-10.6.4-2.7.9-5.4.8-8.1.9.1 1.8.3 2.7.5.6 1.7.8 3.4.8 5.2 0 2.5-.2 5-.5 7.5s-.6 4.9-1 7.4c0 .1 0 .3-.1.4h.3c0-.2.1-.4.1-.7.5-2.6.9-5.3 1.2-7.9.3-2.2.5-4.5.5-6.7 0-1.1-.1-2.3-.3-3.4-.1-.6-.4-1.1-.5-1.7.5.1 1 .2 1.5.4.2 0 .3.3.4.4.9 1.7 1.3 3.6 1.6 5.5.3 2.3.4 4.6.3 6.8-.1 2.2-.2 4.4-.4 6.6l-.3 2.1c0 .3-.1.6-.2.9h.3v-.2c.5-1.8.7-3.7.8-5.5l.3-4.2c0-1.3.1-2.5.1-3.6zm2.7.4c.2 1.1.2 2.3.3 3.4 0 2.1.1 4.1-.2 6.2.1.6.1 1.2 0 1.7v1.1c0-.1.1-.2.3-.3.1-1.3.1-2.7.4-4.1.4-2.3.3-4.7.1-7-.1-1-.3-2.1-.6-3.1-.3-.8-.5-1.6-.9-2.3-.5-1-1-2-1.7-2.9-.4-.4-.8-.9-1.2-1.3 0 .5.4.9.7 1.3.8 1.1 1.4 2.2 2 3.3.1.4.2.7.4 1.1.1 1 .2 1.9.4 2.9zm1.8-2.2c-.1-.2-.4-.5-.2-.8.4.6.8 1.3 1.2 2l.9 1.5c0 .7.2 1.5.3 2.2.3 3.3 0 6.6-.7 9.8-.2.8-.3 1.6-.8 2.2.1-.8.4-1.5.5-2.2.4-2 .6-3.9.6-5.9 0-1.2 0-2.5-.1-3.7-.4-1.8-.7-3.6-1.7-5.1z"/><path fill="#ac3062" d="M85.2 95.7c.1.1.1.1 0 0z"/><path fill="#150f0c" d="M110.1 119.2c-.6.4-1.2.7-1.9 1.1.7-.3 1.5-.4 1.9-1.1zm-28.7 5.4c.6.4 1.2.7 1.7 1.2.4.4 1.1.6 1.6.9l.3-.3c-.4-.4-.9-.7-1.4-1.1-1.1-.7-2.1-1.5-3-2.3-.3-.2-.6-.5-.9-.6s-.5.1-.7.2c.6.9 1.6 1.4 2.4 2zm-1.8 2.6c.5.5 1.1.9 1.7 1.4l2.4 1.8c0-.1.1-.2.2-.3l-.2-.2v-.2c-.6-.4-1.3-.8-1.8-1.3 0-.1.1-.2.1-.4-.4-.4-.9-.8-1.3-1.2-.6-.6-1.1-1.3-1.7-2-.2-.2-.4-.2-.7-.2.1.7.5 1.2.9 1.7.1.3.2.7.4.9zm52.1 63.1c-.1-.9-.3-1.9-.8-2.7-.4-.8-.8-1.7-1.2-2.5-.9-1.4-1.5-3-2.1-4.6-.5-1.3-.9-2.6-1.2-3.9-.1-.5-.3-1-.2-1.6.2-.5.6-.9.8-1.4.5-.9.9-1.9 1.3-2.9.4-.9.4-1.9.6-2.8.2-1 .3-2.1.3-3.1-.5 2-1.2 4-1.8 6-.4 1.1-.8 2.3-1.4 3.3-.2-1.3-.2-2.5-.1-3.8 0-1 .2-2.1 0-3.1-.2-1.1-.4-2.1-.3-3.2-.3 2.6-.4 5.3-.4 7.9 0 1.2.2 2.4.2 3.6 0 .9.4 1.7.6 2.6.5 1.9 1.1 3.9 1.9 5.7.5 1.1 1.2 2.1 1.8 3.1.3.6.5 1.2.7 1.9.4 1.1.5 2.3.6 3.5s-.2 2.3-.5 3.4c-.2.7-.5 1.4-.7 2.1-.2.5-.4.9-.7 1.3-.3.3-.6.6-.8 1-.4.9-1 1.7-1.6 2.5-.3.3-.4.7-.7 1.1-.3.6-.7 1.2-1.2 1.7h.3c.2-.2.4-.5.6-.7 0 .3-.1.5-.1.8.5-.7.7-1.6 1.2-2.2.6-.9 1.3-1.9 2.1-2.8.4-.4.7-.8.9-1.3.4-.9 1.1-1.8 1.4-2.8.3-.9.5-1.8.6-2.7.3-1.3.1-2.4-.1-3.4zm-80-2.3c.8-1.2.9-2.6 1.2-3.9.5-2.9.7-5.8.6-8.7 0-1.1 0-2.2-.1-3.3h-.3c-.2 1.5 0 3-.2 4.6-.2.8-.3 1.7-.4 2.6-.2 1.3-.4 2.7-.7 4-.1.8-.3 1.5-.5 2.2-.4 1.2-.8 2.4-1.1 3.6-.3.8-.4 1.7-.8 2.5-.1.2-.3.5 0 .6.2.1.4-.1.6-.3.5-.7.8-1.4 1.2-2.1.1-.7.2-1.2.5-1.8zm5-9.1c-.5 1.7-1.3 3.2-2 4.9s-1.4 3.5-2.5 5.2c-.3.7-.8 1.3-1.2 2.1-.3.4-.6.8-.8 1.3l1.2-1.2c.7-.7 1.1-1.6 1.7-2.5 1-1.6 1.7-3.3 2.4-5.1.8-2 1.5-4.1 2-6.2h-.3c-.2.4-.3.9-.5 1.5zm26.2 29.6c-1.1-.4-2.2-.9-3.3-1.4-.8-.4-1.5-.9-2.1-1.4-1.4-1.1-2.7-2.2-3.9-3.5-1.2-1.3-2.2-2.7-3.1-4.2-1-1.6-2-3.2-2.9-4.9h-.1c.3.8.6 1.7.9 2.5.4 1.7 1.5 3 2.2 4.6.5 1.1 1.5 1.9 2.3 2.8 1.6 1.6 3.4 3.2 5.5 4.1 1 .4 1.9.9 2.9 1.2 1.1.4 2.2.7 3.3 1h.9v-.2c-.9-.3-1.8-.4-2.6-.6z"/><path fill="#cc492f" d="M78.8 67.3c-.8-1.8-2-3.7-3.9-4.5-.3-.1-.4.4-.1.5 1.8.7 2.9 2.8 3.7 4.5.8 2 1.2 4.1 1.2 6.2 0 .3.5.3.5 0 .1-2.4-.4-4.6-1.4-6.7z"/></g></svg>