<?xml version="1.0" encoding="utf-8"?>
<!-- Generator: Adobe Illustrator 25.2.0, SVG Export Plug-In . SVG Version: 6.00 Build 0)  -->
<svg version="1.1" id="OBJECTS" xmlns="http://www.w3.org/2000/svg" xmlns:xlink="http://www.w3.org/1999/xlink" x="0px" y="0px"
	 viewBox="0 0 500 500" style="enable-background:new 0 0 500 500;" xml:space="preserve">
<style type="text/css">
	.st0{opacity:0.16;}
	.st1{fill:#373F4C;}
	.st2{fill:#F4D27A;}
	.st3{fill:#555C66;}
	.st4{fill:#9A9AEF;}
	.st5{fill:#C1C1F4;}
	.st6{fill:none;stroke:#4D5560;stroke-width:2.2836;stroke-linejoin:round;stroke-miterlimit:10;}
	.st7{fill:#6D747C;}
	.st8{fill:#8E97A0;}
	.st9{fill:#FFFFFF;}
</style>
<g>
	<g id="XMLID_4_">
		<path id="XMLID_82_" class="st0" d="M339.2,72.7l-13.7-45l3.6-2.3l4-0.4l3.9-2.1l4-0.2l2.6-1.9c0,0,2.3,0.2,2.8,0.3
			c0.5,0.1,4.5-1.5,4.5-1.5l1.5-1.6l0.2-0.1l14.3,46.8l-0.3,0.1l-3.1-1.6l-3.8,2.4c0,0-4.4,0.9-4.7,0.8c-0.3-0.1-2.6-0.1-3.3,0.7
			c-0.8,0.7-2.9,2.5-2.9,2.5s-5.1,0.3-5.3,0.2c-0.2-0.1-3.1,1-3.1,1L339.2,72.7z"/>
		<path id="XMLID_81_" class="st0" d="M164.3,22.3l-5.6,51.6l-4.6,0.8l-4.2-1.3l-4.9,0.4l-4.1-1.5l-3.4,0.8c0,0-2.3-1.2-2.7-1.5
			c-0.4-0.4-5.2-0.5-5.2-0.5l-2.2,1l-0.2,0l5.8-53.5l0.4,0l2.5,3l4.9-0.8c0,0,4.9,1,5.1,1.2c0.3,0.2,2.6,1.2,3.7,0.8
			c1.1-0.4,4-1.2,4-1.2s5.3,1.9,5.4,2.1c0.2,0.2,3.5,0.3,3.5,0.3L164.3,22.3z"/>
		<path id="XMLID_13_" class="st0" d="M423,403.8v-3h1.3l0-0.2l-5.7-86.5l-1.4,1.4l-3.5,4.8l4.9-10.2l-6-263.9L141.4,64
			c0,0.7,0,1.3,0,1.5c0.1,0.6,1.2,4.7,1.2,5.1c0,0.4-1.2,3.2-1.2,3.2l-0.9,5l-0.4-9.3l-0.9-3.3l-0.9-2.1H83.5v172.7l2.4,3.1l2.6,4.9
			l1.7,2.5l-2.3-2.4l-1.7-2.3l-2.4-2.8l-0.3-0.6v161.5c1.4,0.1,3,0.2,4,0.3v-0.1h2.8v1.3c1.8,1.2,4.5,3,4.8,3.1
			c0.5,0.2,6.9,1.4,8.4,1.2c1.5-0.2,5.8-0.9,7.3-1.8c0.6-0.3,2.5-0.7,4.6-1v-2.9h2.8v2.5c1-0.1,2-0.2,2.8-0.3v-2.2h2.8v1.8l2.8-0.9
			v-0.9h2.8v0.7c0.8,0.1,1.8,0.3,2.8,0.5v-1.2h2.8v1.6c0.7,0.1,1.2,0.2,1.4,0.2c0.2,0,0.7,0.1,1.4,0.1v-2h2.8v2c1,0,2,0,2.8,0v-2
			h2.8v2.2l2.8,0.7v-2.8h2.8v3h-2.2l4.2,1c0,0,5.6-0.9,6.5-0.9c0.2,0,0.9,0,1.9-0.1h-2v-3h2.8v2.9c0.8-0.1,1.8-0.1,2.8-0.2v-2.7h2.8
			v2.5c1.1-0.1,2.1-0.2,2.8-0.2v-2.3h2.8v3h-1.7l-0.3,4.5c0,0,0.6,5.3,0,9.4c0,0,1.6,26.7-9.8,63.7h42.1c7-23.2,9.8-77.1,9.8-77.1
			s1.4-1.3,1.6-1.3c0,0,0.1,0,0.2,0v-2.2h2.8v2.3c0.7,0,1.3,0,1.5,0c0.3,0,0.7-0.1,1.3-0.2v-2.1h2.8v1.7c0.7,0.1,2,0.3,2.8,0.3v-2.1
			h2.8v2.6c0.9,0.3,1.8,0.5,1.8,0.5l1.5-0.2h-0.5v-3h2.8v2.7l0.2,0l2.6-0.7v-2h2.8v1.6l2.8,0.3v-1.9h2.8v1.9l2.8,0v-2h2.8v2.5
			l0.5,0.2l2.1-0.7l0,1.5l-3.5,77.1h40.1l3.3-77.6h-0.6v-3h0.7l0.1-1.3l0.5,1.3h1.5v3h-0.4l0,0l-1,77.6l44.1,4.8l0.7-82.4h-1.4v-3
			h1.4l1.6-1.3l2.3,81.9H384l-2.3-81.9l1.6,1.5l5.1,84.2l39.8-3.7l-3.8-77.6H423z M95.9,403.8h-2.8v-3h2.8V403.8z M101.5,403.8h-2.8
			v-3h2.8V403.8z M107.1,403.8h-2.8v-3h2.8V403.8z M112.6,403.8h-2.8v-3h2.8V403.8z M157.4,403.8h-2.8v-3h2.8V403.8z M179.7,403.8
			h-2.8v-3h2.8V403.8z M185.3,403.8h-2.8v-3h2.8V403.8z M190.9,403.8h-2.8v-3h2.8V403.8z M196.5,403.8h-2.8v-3h2.8V403.8z
			 M202.1,403.8h-2.8v-3h2.8V403.8z M207.7,403.8h-2.8v-3h2.8V403.8z M213.3,403.8h-2.8v-3h2.8V403.8z M258,403.8h-2.8v-3h2.8V403.8
			z M263.6,403.8h-2.8v-3h2.8V403.8z M269.2,403.8h-2.8v-3h2.8V403.8z M274.8,403.8H272v-3h2.8V403.8z M280.4,403.8h-2.8v-3h2.8
			V403.8z M286,403.8h-2.8v-3h2.8V403.8z M291.6,403.8h-2.8v-3h2.8V403.8z M302.7,403.8H300v-3h2.8V403.8z M308.3,403.8h-2.8v-3h2.8
			V403.8z M313.9,403.8h-2.8v-3h2.8V403.8z M319.5,403.8h-2.8v-3h2.8V403.8z M325.1,403.8h-2.8v-3h2.8V403.8z M330.7,403.8h-2.8v-3
			h2.8V403.8z M336.3,403.8h-2.8v-3h2.8V403.8z M347.5,403.8h-2.8v-3h2.8V403.8z M353.1,403.8h-2.8v-3h2.8V403.8z M358.7,403.8h-2.8
			v-3h2.8V403.8z M364.3,403.8h-2.8v-3h2.8V403.8z M369.8,403.8H367v-3h2.8V403.8z M375.4,403.8h-2.8v-3h2.8V403.8z M381,403.8h-2.8
			v-3h2.8V403.8z M386.6,403.8h-2.8v-3h2.8V403.8z M392.2,403.8h-2.8v-3h2.8V403.8z M397.8,403.8H395v-3h2.8V403.8z M403.4,403.8
			h-2.8v-3h2.8V403.8z M409,403.8h-2.8v-3h2.8V403.8z M414.6,403.8h-2.8v-3h2.8V403.8z M420.2,403.8h-2.8v-3h2.8V403.8z"/>
		<path id="XMLID_113_" class="st1" d="M411.3,386.2v-3h1.3l0-0.2v-87.8l-1.4,1.4l-3.5,4.8l4.9-10.2V46.3H129.7c0,0.7,0,1.3,0,1.5
			c0.1,0.6,1.2,4.7,1.2,5.1c0,0.4-1.2,3.2-1.2,3.2l-0.9,5l-0.4-9.3l-0.9-3.3l-0.9-2.1H71.8v172.7l2.4,3.1l2.6,4.9l1.7,2.5l-2.3-2.4
			l-1.7-2.3l-2.4-2.8l-0.3-0.6V383c1.4,0.1,3,0.2,4,0.3v-0.1h2.8v1.3c1.8,1.2,4.5,3,4.8,3.1c0.5,0.2,6.9,1.4,8.4,1.2
			c1.5-0.2,5.8-0.9,7.3-1.8c0.6-0.3,2.5-0.7,4.6-1v-2.9h2.8v2.5c1-0.1,2-0.2,2.8-0.3v-2.2h2.8v1.8l2.8-0.9v-0.9h2.8v0.7
			c0.8,0.1,1.8,0.3,2.8,0.5v-1.2h2.8v1.6c0.7,0.1,1.2,0.2,1.4,0.2c0.2,0,0.7,0.1,1.4,0.1v-2h2.8v2c1,0,2,0,2.8,0v-2h2.8v2.2l2.8,0.7
			v-2.8h2.8v3h-2.2l4.2,1c0,0,5.6-0.9,6.5-0.9c0.2,0,0.9,0,1.9-0.1h-2v-3h2.8v2.9c0.8-0.1,1.8-0.1,2.8-0.2v-2.7h2.8v2.5
			c1.1-0.1,2.1-0.2,2.8-0.2v-2.3h2.8v3h-1.7l-0.3,4.5c0,0,0.6,5.3,0,9.4c0,0,1.6,26.7-9.8,63.7h42.1c7-23.2,9.8-77.1,9.8-77.1
			s1.4-1.3,1.6-1.3c0,0,0.1,0,0.2,0v-2.2h2.8v2.3c0.7,0,1.3,0,1.5,0c0.3,0,0.7-0.1,1.3-0.2v-2.1h2.8v1.7c0.7,0.1,2,0.3,2.8,0.3v-2.1
			h2.8v2.6c0.9,0.3,1.8,0.5,1.8,0.5l1.5-0.2h-0.5v-3h2.8v2.7l0.2,0l2.6-0.7v-2h2.8v1.6l2.8,0.3v-1.9h2.8v1.9l2.8,0v-2h2.8v2.5
			l0.5,0.2l2.1-0.7l0,1.5l-3.5,77.1h40.1l3.3-77.6h-0.6v-3h0.7l0.1-1.3l0.5,1.3h1.5v3h-0.4l0,0l-1,77.6l44.1,4.8l0.7-82.4h-1.4v-3
			h1.4l1.6-1.3l2.3,81.9h39.6l-2.3-81.9l1.6,1.5l5.1,84.2l39.8-3.7l-3.8-77.6H411.3z M84.2,386.2h-2.8v-3h2.8V386.2z M89.8,386.2H87
			v-3h2.8V386.2z M95.4,386.2h-2.8v-3h2.8V386.2z M100.9,386.2h-2.8v-3h2.8V386.2z M145.7,386.2h-2.8v-3h2.8V386.2z M168,386.2h-2.8
			v-3h2.8V386.2z M173.6,386.2h-2.8v-3h2.8V386.2z M179.2,386.2h-2.8v-3h2.8V386.2z M184.8,386.2H182v-3h2.8V386.2z M190.4,386.2
			h-2.8v-3h2.8V386.2z M196,386.2h-2.8v-3h2.8V386.2z M201.6,386.2h-2.8v-3h2.8V386.2z M246.3,386.2h-2.8v-3h2.8V386.2z
			 M251.9,386.2h-2.8v-3h2.8V386.2z M257.5,386.2h-2.8v-3h2.8V386.2z M263.1,386.2h-2.8v-3h2.8V386.2z M268.7,386.2h-2.8v-3h2.8
			V386.2z M274.3,386.2h-2.8v-3h2.8V386.2z M279.9,386.2h-2.8v-3h2.8V386.2z M291,386.2h-2.8v-3h2.8V386.2z M296.6,386.2h-2.8v-3
			h2.8V386.2z M302.2,386.2h-2.8v-3h2.8V386.2z M307.8,386.2H305v-3h2.8V386.2z M313.4,386.2h-2.8v-3h2.8V386.2z M319,386.2h-2.8v-3
			h2.8V386.2z M324.6,386.2h-2.8v-3h2.8V386.2z M335.8,386.2H333v-3h2.8V386.2z M341.4,386.2h-2.8v-3h2.8V386.2z M347,386.2h-2.8v-3
			h2.8V386.2z M352.6,386.2h-2.8v-3h2.8V386.2z M358.1,386.2h-2.8v-3h2.8V386.2z M363.7,386.2h-2.8v-3h2.8V386.2z M369.3,386.2h-2.8
			v-3h2.8V386.2z M374.9,386.2h-2.8v-3h2.8V386.2z M380.5,386.2h-2.8v-3h2.8V386.2z M386.1,386.2h-2.8v-3h2.8V386.2z M391.7,386.2
			h-2.8v-3h2.8V386.2z M397.3,386.2h-2.8v-3h2.8V386.2z M402.9,386.2h-2.8v-3h2.8V386.2z M408.5,386.2h-2.8v-3h2.8V386.2z"/>
		<path id="XMLID_115_" class="st2" d="M164.5,22.1l-13.1,50.2l-4.7,0.1l-3.9-1.9l-4.9-0.3l-3.8-2.1l-3.5,0.3c0,0-2.1-1.5-2.5-1.9
			c-0.4-0.4-5.1-1.2-5.1-1.2l-2.3,0.6l-0.2-0.1L134,13.7l0.4,0.1l2,3.3l5-0.1c0,0,4.7,1.7,4.9,1.9c0.2,0.2,2.4,1.5,3.5,1.3
			c1.2-0.2,4.1-0.6,4.1-0.6s5,2.6,5.1,2.8c0.1,0.2,3.5,0.8,3.5,0.8L164.5,22.1z"/>
		<path id="XMLID_109_" class="st2" d="M333.5,70.9l-8.9-46.2l3.8-1.9l4,0l4.1-1.7l4,0.2l2.7-1.6c0,0,2.3,0.4,2.8,0.6
			c0.5,0.2,4.7-1,4.7-1l1.7-1.4l0.2,0l9.3,48l-0.3,0.1l-3-1.9l-4.1,2c0,0-4.5,0.4-4.7,0.3c-0.3-0.1-2.5-0.3-3.4,0.3
			c-0.9,0.6-3.1,2.1-3.1,2.1s-5.1-0.2-5.3-0.3c-0.2-0.1-3.2,0.7-3.2,0.7L333.5,70.9z"/>
		<g id="XMLID_58_">
			<path id="XMLID_57_" class="st3" d="M256.1,444.8L256.1,444.8c-0.3,0-0.5-0.3-0.5-0.6l1.8-43.1c0-0.3,0.3-0.5,0.6-0.5l0,0
				c0.3,0,0.5,0.3,0.5,0.6l-1.8,43.1C256.7,444.6,256.4,444.8,256.1,444.8z"/>
			<path id="XMLID_59_" class="st3" d="M260.1,439.7l-0.3,0c-0.2,0-0.4-0.2-0.4-0.4l1.4-33.2c0-0.2,0.2-0.4,0.4-0.4l0.3,0
				c0.2,0,0.4,0.2,0.4,0.4l-1.4,33.2C260.5,439.6,260.3,439.7,260.1,439.7z"/>
			<path id="XMLID_60_" class="st3" d="M263.6,436.8L263.6,436.8c-0.3,0-0.5-0.3-0.5-0.6l1.1-27.1c0-0.3,0.3-0.5,0.6-0.5l0,0
				c0.3,0,0.5,0.3,0.5,0.6l-1.1,27.1C264.2,436.6,263.9,436.8,263.6,436.8z"/>
		</g>
		<g id="XMLID_62_">
			<path id="XMLID_65_" class="st3" d="M302.3,446.1L302.3,446.1c-0.3,0-0.6-0.2-0.6-0.5l-1.4-43.1c0-0.3,0.2-0.6,0.5-0.6l0,0
				c0.3,0,0.6,0.2,0.6,0.5l1.4,43.1C302.9,445.9,302.6,446.1,302.3,446.1z"/>
			<path id="XMLID_64_" class="st3" d="M305.9,440.8l-0.3,0c-0.2,0-0.4-0.2-0.4-0.4l-1-33.2c0-0.2,0.2-0.4,0.4-0.4l0.3,0
				c0.2,0,0.4,0.2,0.4,0.4l1,33.2C306.3,440.6,306.1,440.7,305.9,440.8z"/>
			<path id="XMLID_63_" class="st3" d="M309.2,437.6L309.2,437.6c-0.3,0-0.6-0.2-0.6-0.5l-0.9-27.1c0-0.3,0.2-0.6,0.5-0.6l0,0
				c0.3,0,0.6,0.2,0.6,0.5l0.9,27.1C309.8,437.3,309.5,437.6,309.2,437.6z"/>
		</g>
		<g id="XMLID_66_">
			<path id="XMLID_69_" class="st3" d="M349.3,444.7L349.3,444.7c-0.3,0-0.6-0.2-0.6-0.5l-1.4-43.1c0-0.3,0.2-0.6,0.5-0.6l0,0
				c0.3,0,0.6,0.2,0.6,0.5l1.4,43.1C349.9,444.5,349.6,444.7,349.3,444.7z"/>
			<path id="XMLID_68_" class="st3" d="M353,439.4l-0.3,0c-0.2,0-0.4-0.2-0.4-0.4l-1-33.2c0-0.2,0.2-0.4,0.4-0.4l0.3,0
				c0.2,0,0.4,0.2,0.4,0.4l1,33.2C353.3,439.2,353.2,439.3,353,439.4z"/>
			<path id="XMLID_67_" class="st3" d="M356.3,436.2L356.3,436.2c-0.3,0-0.6-0.2-0.6-0.5l-0.9-27.1c0-0.3,0.2-0.6,0.5-0.6l0,0
				c0.3,0,0.6,0.2,0.6,0.5l0.9,27.1C356.8,435.9,356.6,436.2,356.3,436.2z"/>
		</g>
		<g id="XMLID_70_">
			<path id="XMLID_73_" class="st3" d="M391.9,444.2L391.9,444.2c-0.3,0-0.6-0.2-0.6-0.5l-1.4-43.1c0-0.3,0.2-0.6,0.5-0.6l0,0
				c0.3,0,0.6,0.2,0.6,0.5l1.4,43.1C392.5,444,392.2,444.2,391.9,444.2z"/>
			<path id="XMLID_72_" class="st3" d="M395.5,438.9l-0.3,0c-0.2,0-0.4-0.2-0.4-0.4l-1-33.2c0-0.2,0.2-0.4,0.4-0.4l0.3,0
				c0.2,0,0.4,0.2,0.4,0.4l1,33.2C395.9,438.7,395.8,438.9,395.5,438.9z"/>
			<path id="XMLID_71_" class="st3" d="M398.9,435.7L398.9,435.7c-0.3,0-0.6-0.2-0.6-0.5l-0.9-27.1c0-0.3,0.2-0.6,0.5-0.6l0,0
				c0.3,0,0.6,0.2,0.6,0.5l0.9,27.1C399.4,435.4,399.2,435.7,398.9,435.7z"/>
		</g>
		<g id="XMLID_74_">
			<path id="XMLID_77_" class="st3" d="M171.4,447.4L171.4,447.4c-0.3,0-0.5-0.3-0.5-0.6l3.6-43c0-0.3,0.3-0.5,0.6-0.5l0,0
				c0.3,0,0.5,0.3,0.5,0.6l-3.6,43C172,447.2,171.7,447.4,171.4,447.4z"/>
			<path id="XMLID_76_" class="st3" d="M175.6,442.4l-0.3,0c-0.2,0-0.4-0.2-0.4-0.4l2.7-33.1c0-0.2,0.2-0.4,0.4-0.4l0.3,0
				c0.2,0,0.4,0.2,0.4,0.4l-2.7,33.1C176,442.3,175.8,442.5,175.6,442.4z"/>
			<path id="XMLID_75_" class="st3" d="M179.2,439.7L179.2,439.7c-0.3,0-0.5-0.3-0.5-0.6l2.2-27c0-0.3,0.3-0.5,0.6-0.5l0,0
				c0.3,0,0.5,0.3,0.5,0.6l-2.2,27C179.8,439.5,179.5,439.7,179.2,439.7z"/>
		</g>
		<g id="XMLID_168_">
			<g id="XMLID_6_">
				<rect id="XMLID_98_" x="111.8" y="80" class="st4" width="266.8" height="171.3"/>
				<path id="XMLID_95_" class="st5" d="M378.6,182.4v68.9H111.8v-58l22.7-8.4l51-21.5l48.7,15l51.5,6.6c0,0,42.6-13.1,48.7-15
					C338.3,168.6,362.2,176.6,378.6,182.4z"/>
				<rect id="XMLID_90_" x="111.8" y="80" class="st6" width="266.8" height="171.3"/>
				<g id="XMLID_97_">
					<path id="XMLID_108_" class="st1" d="M313.7,108.6v141.4H176.5V108.6c0-3.3,2.7-6,6-6h125.2C311,102.6,313.7,105.2,313.7,108.6
						z"/>
					<g id="XMLID_107_">
						<g id="XMLID_105_">
							<path id="XMLID_80_" class="st7" d="M270.2,203.9h-50.9c-0.5,0-1-0.4-1-1v-1.1c0-0.5,0.4-1,1-1h50.9c0.5,0,1,0.4,1,1v1.1
								C271.1,203.5,270.7,203.9,270.2,203.9z"/>
							<path id="XMLID_99_" class="st7" d="M270.2,214.2h-50.9c-0.5,0-1-0.4-1-1v-1.1c0-0.5,0.4-1,1-1h50.9c0.5,0,1,0.4,1,1v1.1
								C271.1,213.7,270.7,214.2,270.2,214.2z"/>
							<path id="XMLID_100_" class="st7" d="M270.2,224.4h-50.9c-0.5,0-1-0.4-1-1v-1.1c0-0.5,0.4-1,1-1h50.9c0.5,0,1,0.4,1,1v1.1
								C271.1,224,270.7,224.4,270.2,224.4z"/>
						</g>
						<g id="XMLID_104_">
							<g id="XMLID_87_">
								<path id="XMLID_91_" class="st7" d="M212.7,153.9c0,2.9-2.3,5.2-5.2,5.2c-2.9,0-5.2-2.3-5.2-5.2c0-2.9,2.3-5.2,5.2-5.2
									C210.4,148.7,212.7,151.1,212.7,153.9z"/>
								<path id="XMLID_94_" class="st7" d="M287.1,153.9c0,2.9-2.3,5.2-5.2,5.2c-2.9,0-5.2-2.3-5.2-5.2c0-2.9,2.3-5.2,5.2-5.2
									C284.8,148.7,287.1,151.1,287.1,153.9z"/>
							</g>
							<ellipse id="XMLID_93_" class="st7" cx="244.7" cy="165.4" rx="13.3" ry="15.7"/>
							<ellipse id="XMLID_83_" class="st1" cx="244.7" cy="157.9" rx="13.3" ry="15.7"/>
						</g>
					</g>
					<path id="XMLID_106_" class="st8" d="M313.7,108.6v13.8H176.5v-13.8c0-3.3,2.7-6,6-6h125.2C311,102.6,313.7,105.2,313.7,108.6z
						"/>
					<path id="XMLID_11_" class="st1" d="M303.6,115h-58.2c-1.4,0-2.5-1.1-2.5-2.5l0,0c0-1.4,1.1-2.5,2.5-2.5h58.2
						c1.4,0,2.5,1.1,2.5,2.5l0,0C306.1,113.8,305,115,303.6,115z"/>
					<path id="XMLID_88_" class="st1" d="M193.4,112.2c0,2.4-1.9,4.3-4.3,4.3c-2.4,0-4.3-1.9-4.3-4.3s1.9-4.3,4.3-4.3
						C191.5,108,193.4,109.9,193.4,112.2z"/>
					<path id="XMLID_101_" class="st1" d="M208,112.2c0,2.4-1.9,4.3-4.3,4.3s-4.3-1.9-4.3-4.3s1.9-4.3,4.3-4.3S208,109.9,208,112.2z
						"/>
					<circle id="XMLID_102_" class="st1" cx="218.3" cy="112.2" r="4.3"/>
				</g>
			</g>
			<g id="XMLID_7_">
				<g id="XMLID_84_">
					<path id="XMLID_85_" class="st9" d="M142.5,111.6c1.8-0.5,3.2,0,3.6,1.5c0.6,2-1.4,2.9-1,4.5l-1.8,0.5c-0.6-2.1,1-2.7,0.7-4
						c-0.2-0.6-0.6-0.7-1.2-0.6c-0.7,0.2-0.9,0.7-0.7,1.5l-1.9,0.5C139.8,113.6,140.6,112.1,142.5,111.6z M146,119.7
						c0.2,0.7-0.2,1.3-0.8,1.5c-0.7,0.2-1.3-0.2-1.5-0.8c-0.2-0.7,0.1-1.3,0.8-1.5C145.2,118.7,145.8,119,146,119.7z"/>
				</g>
				<g id="XMLID_20_">
					<path id="XMLID_110_" class="st9" d="M343.9,122.6c1.8,0.6,2.6,1.7,2.2,3.2c-0.6,2-2.8,1.7-3.3,3.2l-1.8-0.6
						c0.6-2.1,2.3-1.7,2.7-3c0.2-0.6-0.1-0.9-0.7-1.1c-0.7-0.2-1.1,0.1-1.4,0.9l-1.8-0.6C340.4,122.8,342,122,343.9,122.6z
						 M342.3,131.3c-0.2,0.7-0.8,1-1.5,0.8c-0.7-0.2-1-0.8-0.8-1.5c0.2-0.7,0.8-1,1.5-0.8C342.2,130,342.6,130.7,342.3,131.3z"/>
				</g>
				<g id="XMLID_164_">
					<path id="XMLID_165_" class="st9" d="M353.1,201.9c1.7,0.8,2.4,2.1,1.7,3.5c-0.9,1.9-3,1.3-3.6,2.8l-1.7-0.8
						c0.9-2,2.5-1.4,3.1-2.6c0.2-0.5,0-0.9-0.5-1.2c-0.6-0.3-1.1-0.1-1.5,0.7l-1.7-0.8C349.7,201.7,351.3,201.1,353.1,201.9z
						 M350.5,210.4c-0.3,0.7-1,0.9-1.6,0.6c-0.6-0.3-0.9-1-0.6-1.6c0.3-0.7,0.9-0.9,1.6-0.6C350.5,209.1,350.8,209.7,350.5,210.4z"
						/>
				</g>
				<g id="XMLID_156_">
					<path id="XMLID_157_" class="st9" d="M291.7,87.3c1.8,0.6,2.6,1.7,2.2,3.2c-0.6,2-2.8,1.7-3.3,3.2l-1.8-0.6
						c0.6-2.1,2.3-1.7,2.7-3c0.2-0.6-0.1-0.9-0.7-1.1c-0.7-0.2-1.1,0.1-1.4,0.9l-1.8-0.6C288.3,87.5,289.8,86.7,291.7,87.3z
						 M290.2,96c-0.2,0.7-0.8,1-1.5,0.8c-0.7-0.2-1-0.8-0.8-1.5c0.2-0.7,0.8-1,1.5-0.8C290,94.7,290.4,95.3,290.2,96z"/>
				</g>
				<g id="XMLID_160_">
					<path id="XMLID_161_" class="st9" d="M151.4,172.4c1.7-0.8,3.1-0.5,3.8,1c0.9,1.9-1,3.1-0.3,4.6l-1.7,0.8c-0.9-2,0.6-2.8,0.1-4
						c-0.2-0.5-0.7-0.6-1.3-0.4c-0.6,0.3-0.8,0.8-0.4,1.6l-1.7,0.8C149,174.8,149.6,173.2,151.4,172.4z M156.1,179.9
						c0.3,0.7,0.1,1.3-0.6,1.6c-0.6,0.3-1.3,0-1.6-0.6c-0.3-0.7-0.1-1.3,0.6-1.6C155.2,179,155.8,179.2,156.1,179.9z"/>
				</g>
			</g>
		</g>
	</g>
	<path class="st3" d="M335.9,320.2H115.8c-1.8,0-3.2-1.4-3.2-3.2v-10.7c0-1.8,1.4-3.2,3.2-3.2h220.1c1.8,0,3.2,1.4,3.2,3.2V317
		C339.1,318.8,337.7,320.2,335.9,320.2z"/>
	<path class="st3" d="M299.1,294.6H115.8c-1.8,0-3.2-1.4-3.2-3.2v-10.7c0-1.8,1.4-3.2,3.2-3.2h183.2c1.8,0,3.2,1.4,3.2,3.2v10.7
		C302.2,293.2,300.8,294.6,299.1,294.6z"/>
	<path class="st3" d="M286.7,345.7H115.8c-1.8,0-3.2-1.4-3.2-3.2v-10.7c0-1.8,1.4-3.2,3.2-3.2h170.9c1.8,0,3.2,1.4,3.2,3.2v10.7
		C289.9,344.3,288.5,345.7,286.7,345.7z"/>
</g>
</svg>
