<svg xml:space="preserve" enable-background="new 0 0 500 500" viewBox="0 0 500 500" xmlns="http://www.w3.org/2000/svg"><path d="m339.2 72.7-13.7-45 3.6-2.3 4-.4 3.9-2.1 4-.2 2.6-1.9s2.3.2 2.8.3c.5.1 4.5-1.5 4.5-1.5l1.5-1.6.2-.1 14.3 46.8-.3.1-3.1-1.6-3.8 2.4s-4.4.9-4.7.8c-.3-.1-2.6-.1-3.3.7-.8.7-2.9 2.5-2.9 2.5s-5.1.3-5.3.2c-.2-.1-3.1 1-3.1 1l-1.2 1.9zM164.3 22.3l-5.6 51.6-4.6.8-4.2-1.3-4.9.4-4.1-1.5-3.4.8s-2.3-1.2-2.7-1.5c-.4-.4-5.2-.5-5.2-.5l-2.2 1h-.2l5.8-53.5h.4l2.5 3 4.9-.8s4.9 1 5.1 1.2c.3.2 2.6 1.2 3.7.8 1.1-.4 4-1.2 4-1.2s5.3 1.9 5.4 2.1c.2.2 3.5.3 3.5.3l1.8-1.7z" opacity=".16"/><path d="M423 403.8v-3h1.3v-.2l-5.7-86.5-1.4 1.4-3.5 4.8 4.9-10.2-6-263.9L141.4 64v1.5c.1.6 1.2 4.7 1.2 5.1 0 .4-1.2 3.2-1.2 3.2l-.9 5-.4-9.3-.9-3.3-.9-2.1H83.5v172.7l2.4 3.1 2.6 4.9 1.7 2.5-2.3-2.4-1.7-2.3-2.4-2.8-.3-.6v161.5c1.4.1 3 .2 4 .3v-.1h2.8v1.3c1.8 1.2 4.5 3 4.8 3.1.5.2 6.9 1.4 8.4 1.2 1.5-.2 5.8-.9 7.3-1.8.6-.3 2.5-.7 4.6-1v-2.9h2.8v2.5c1-.1 2-.2 2.8-.3v-2.2h2.8v1.8l2.8-.9v-.9h2.8v.7c.8.1 1.8.3 2.8.5v-1.2h2.8v1.6c.7.1 1.2.2 1.4.2.2 0 .7.1 1.4.1v-2h2.8v2h2.8v-2h2.8v2.2l2.8.7v-2.8h2.8v3h-2.2l4.2 1s5.6-.9 6.5-.9c.2 0 .9 0 1.9-.1h-2v-3h2.8v2.9c.8-.1 1.8-.1 2.8-.2v-2.7h2.8v2.5c1.1-.1 2.1-.2 2.8-.2v-2.3h2.8v3h-1.7l-.3 4.5s.6 5.3 0 9.4c0 0 1.6 26.7-9.8 63.7h42.1c7-23.2 9.8-77.1 9.8-77.1s1.4-1.3 1.6-1.3h.2v-2.2h2.8v2.3h1.5c.3 0 .7-.1 1.3-.2v-2.1h2.8v1.7c.7.1 2 .3 2.8.3v-2.1h2.8v2.6c.9.3 1.8.5 1.8.5l1.5-.2h-.5v-3h2.8v2.7h.2l2.6-.7v-2h2.8v1.6l2.8.3v-1.9h2.8v1.9h2.8v-2h2.8v2.5l.5.2 2.1-.7v1.5l-3.5 77.1h40.1l3.3-77.6h-.6v-3h.7l.1-1.3.5 1.3h1.5v3h-.4l-1 77.6 44.1 4.8.7-82.4h-1.4v-3h1.4l1.6-1.3 2.3 81.9H384l-2.3-81.9 1.6 1.5 5.1 84.2 39.8-3.7-3.8-77.6H423zm-327.1 0h-2.8v-3h2.8v3zm5.6 0h-2.8v-3h2.8v3zm5.6 0h-2.8v-3h2.8v3zm5.5 0h-2.8v-3h2.8v3zm44.8 0h-2.8v-3h2.8v3zm22.3 0h-2.8v-3h2.8v3zm5.6 0h-2.8v-3h2.8v3zm5.6 0h-2.8v-3h2.8v3zm5.6 0h-2.8v-3h2.8v3zm5.6 0h-2.8v-3h2.8v3zm5.6 0h-2.8v-3h2.8v3zm5.6 0h-2.8v-3h2.8v3zm44.7 0h-2.8v-3h2.8v3zm5.6 0h-2.8v-3h2.8v3zm5.6 0h-2.8v-3h2.8v3zm5.6 0H272v-3h2.8v3zm5.6 0h-2.8v-3h2.8v3zm5.6 0h-2.8v-3h2.8v3zm5.6 0h-2.8v-3h2.8v3zm11.1 0H300v-3h2.8v3zm5.6 0h-2.8v-3h2.8v3zm5.6 0h-2.8v-3h2.8v3zm5.6 0h-2.8v-3h2.8v3zm5.6 0h-2.8v-3h2.8v3zm5.6 0h-2.8v-3h2.8v3zm5.6 0h-2.8v-3h2.8v3zm11.2 0h-2.8v-3h2.8v3zm5.6 0h-2.8v-3h2.8v3zm5.6 0h-2.8v-3h2.8v3zm5.6 0h-2.8v-3h2.8v3zm5.5 0H367v-3h2.8v3zm5.6 0h-2.8v-3h2.8v3zm5.6 0h-2.8v-3h2.8v3zm5.6 0h-2.8v-3h2.8v3zm5.6 0h-2.8v-3h2.8v3zm5.6 0H395v-3h2.8v3zm5.6 0h-2.8v-3h2.8v3zm5.6 0h-2.8v-3h2.8v3zm5.6 0h-2.8v-3h2.8v3zm5.6 0h-2.8v-3h2.8v3z" opacity=".16"/><path fill="#373f4c" d="M411.3 386.2v-3h1.3v-88l-1.4 1.4-3.5 4.8 4.9-10.2V46.3H129.7v1.5c.1.6 1.2 4.7 1.2 5.1 0 .4-1.2 3.2-1.2 3.2l-.9 5-.4-9.3-.9-3.3-.9-2.1H71.8v172.7l2.4 3.1 2.6 4.9 1.7 2.5-2.3-2.4-1.7-2.3-2.4-2.8-.3-.6V383c1.4.1 3 .2 4 .3v-.1h2.8v1.3c1.8 1.2 4.5 3 4.8 3.1.5.2 6.9 1.4 8.4 1.2 1.5-.2 5.8-.9 7.3-1.8.6-.3 2.5-.7 4.6-1v-2.9h2.8v2.5c1-.1 2-.2 2.8-.3v-2.2h2.8v1.8l2.8-.9v-.9h2.8v.7c.8.1 1.8.3 2.8.5v-1.2h2.8v1.6c.7.1 1.2.2 1.4.2.2 0 .7.1 1.4.1v-2h2.8v2h2.8v-2h2.8v2.2l2.8.7v-2.8h2.8v3h-2.2l4.2 1s5.6-.9 6.5-.9c.2 0 .9 0 1.9-.1h-2v-3h2.8v2.9c.8-.1 1.8-.1 2.8-.2v-2.7h2.8v2.5c1.1-.1 2.1-.2 2.8-.2v-2.3h2.8v3h-1.7l-.3 4.5s.6 5.3 0 9.4c0 0 1.6 26.7-9.8 63.7h42.1c7-23.2 9.8-77.1 9.8-77.1s1.4-1.3 1.6-1.3h.2v-2.2h2.8v2.3h1.5c.3 0 .7-.1 1.3-.2v-2.1h2.8v1.7c.7.1 2 .3 2.8.3V383h2.8v2.6c.9.3 1.8.5 1.8.5l1.5-.2h-.5v-3h2.8v2.7h.2l2.6-.7v-2h2.8v1.6l2.8.3v-1.9h2.8v1.9h2.8v-2h2.8v2.5l.5.2 2.1-.7v1.5l-3.5 77.1H280l3.3-77.6h-.6v-3h.7l.1-1.3.5 1.3h1.5v3h-.4l-1 77.6 44.1 4.8.7-82.4h-1.4v-3h1.4l1.6-1.3 2.3 81.9h39.6l-2.3-81.9 1.6 1.5 5.1 84.2 39.8-3.7-3.8-77.6h-1.5zm-327.1 0h-2.8v-3h2.8v3zm5.6 0H87v-3h2.8v3zm5.6 0h-2.8v-3h2.8v3zm5.5 0h-2.8v-3h2.8v3zm44.8 0h-2.8v-3h2.8v3zm22.3 0h-2.8v-3h2.8v3zm5.6 0h-2.8v-3h2.8v3zm5.6 0h-2.8v-3h2.8v3zm5.6 0H182v-3h2.8v3zm5.6 0h-2.8v-3h2.8v3zm5.6 0h-2.8v-3h2.8v3zm5.6 0h-2.8v-3h2.8v3zm44.7 0h-2.8v-3h2.8v3zm5.6 0h-2.8v-3h2.8v3zm5.6 0h-2.8v-3h2.8v3zm5.6 0h-2.8v-3h2.8v3zm5.6 0h-2.8v-3h2.8v3zm5.6 0h-2.8v-3h2.8v3zm5.6 0h-2.8v-3h2.8v3zm11.1 0h-2.8v-3h2.8v3zm5.6 0h-2.8v-3h2.8v3zm5.6 0h-2.8v-3h2.8v3zm5.6 0H305v-3h2.8v3zm5.6 0h-2.8v-3h2.8v3zm5.6 0h-2.8v-3h2.8v3zm5.6 0h-2.8v-3h2.8v3zm11.2 0H333v-3h2.8v3zm5.6 0h-2.8v-3h2.8v3zm5.6 0h-2.8v-3h2.8v3zm5.6 0h-2.8v-3h2.8v3zm5.5 0h-2.8v-3h2.8v3zm5.6 0h-2.8v-3h2.8v3zm5.6 0h-2.8v-3h2.8v3zm5.6 0h-2.8v-3h2.8v3zm5.6 0h-2.8v-3h2.8v3zm5.6 0h-2.8v-3h2.8v3zm5.6 0h-2.8v-3h2.8v3zm5.6 0h-2.8v-3h2.8v3zm5.6 0h-2.8v-3h2.8v3zm5.6 0h-2.8v-3h2.8v3z"/><path fill="#f4d27a" d="m164.5 22.1-13.1 50.2-4.7.1-3.9-1.9-4.9-.3-3.8-2.1-3.5.3s-2.1-1.5-2.5-1.9c-.4-.4-5.1-1.2-5.1-1.2l-2.3.6-.2-.1L134 13.7l.4.1 2 3.3 5-.1s4.7 1.7 4.9 1.9c.2.2 2.4 1.5 3.5 1.3 1.2-.2 4.1-.6 4.1-.6s5 2.6 5.1 2.8c.1.2 3.5.8 3.5.8l2-1.1zM333.5 70.9l-8.9-46.2 3.8-1.9h4l4.1-1.7 4 .2 2.7-1.6s2.3.4 2.8.6c.5.2 4.7-1 4.7-1l1.7-1.4h.2l9.3 48-.3.1-3-1.9-4.1 2s-4.5.4-4.7.3c-.3-.1-2.5-.3-3.4.3-.9.6-3.1 2.1-3.1 2.1s-5.1-.2-5.3-.3c-.2-.1-3.2.7-3.2.7l-1.3 1.7z"/><path fill="#555c66" d="M256.1 444.8c-.3 0-.5-.3-.5-.6l1.8-43.1c0-.3.3-.5.6-.5s.5.3.5.6l-1.8 43.1c0 .3-.3.5-.6.5zM260.1 439.7h-.3c-.2 0-.4-.2-.4-.4l1.4-33.2c0-.2.2-.4.4-.4h.3c.2 0 .4.2.4.4l-1.4 33.2c0 .3-.2.4-.4.4zM263.6 436.8c-.3 0-.5-.3-.5-.6l1.1-27.1c0-.3.3-.5.6-.5s.5.3.5.6l-1.1 27.1c0 .3-.3.5-.6.5zM302.3 446.1c-.3 0-.6-.2-.6-.5l-1.4-43.1c0-.3.2-.6.5-.6s.6.2.6.5l1.4 43.1c.1.4-.2.6-.5.6zM305.9 440.8h-.3c-.2 0-.4-.2-.4-.4l-1-33.2c0-.2.2-.4.4-.4h.3c.2 0 .4.2.4.4l1 33.2c0 .2-.2.3-.4.4zM309.2 437.6c-.3 0-.6-.2-.6-.5l-.9-27.1c0-.3.2-.6.5-.6s.6.2.6.5l.9 27.1c.1.3-.2.6-.5.6zM349.3 444.7c-.3 0-.6-.2-.6-.5l-1.4-43.1c0-.3.2-.6.5-.6s.6.2.6.5l1.4 43.1c.1.4-.2.6-.5.6zM353 439.4h-.3c-.2 0-.4-.2-.4-.4l-1-33.2c0-.2.2-.4.4-.4h.3c.2 0 .4.2.4.4l1 33.2c-.1.2-.2.3-.4.4zM356.3 436.2c-.3 0-.6-.2-.6-.5l-.9-27.1c0-.3.2-.6.5-.6s.6.2.6.5l.9 27.1c0 .3-.2.6-.5.6zM391.9 444.2c-.3 0-.6-.2-.6-.5l-1.4-43.1c0-.3.2-.6.5-.6s.6.2.6.5l1.4 43.1c.1.4-.2.6-.5.6zM395.5 438.9h-.3c-.2 0-.4-.2-.4-.4l-1-33.2c0-.2.2-.4.4-.4h.3c.2 0 .4.2.4.4l1 33.2c0 .2-.1.4-.4.4zM398.9 435.7c-.3 0-.6-.2-.6-.5l-.9-27.1c0-.3.2-.6.5-.6s.6.2.6.5l.9 27.1c0 .3-.2.6-.5.6zM171.4 447.4c-.3 0-.5-.3-.5-.6l3.6-43c0-.3.3-.5.6-.5s.5.3.5.6l-3.6 43c0 .3-.3.5-.6.5zM175.6 442.4h-.3c-.2 0-.4-.2-.4-.4l2.7-33.1c0-.2.2-.4.4-.4h.3c.2 0 .4.2.4.4L176 442c0 .3-.2.5-.4.4zM179.2 439.7c-.3 0-.5-.3-.5-.6l2.2-27c0-.3.3-.5.6-.5s.5.3.5.6l-2.2 27c0 .3-.3.5-.6.5z"/><path fill="#9a9aef" d="M111.8 80h266.8v171.3H111.8z"/><path fill="#c1c1f4" d="M378.6 182.4v68.9H111.8v-58l22.7-8.4 51-21.5 48.7 15 51.5 6.6s42.6-13.1 48.7-15c3.9-1.4 27.8 6.6 44.2 12.4z"/><path fill="none" stroke="#4d5560" stroke-linejoin="round" stroke-miterlimit="10" stroke-width="2.2836" d="M111.8 80h266.8v171.3H111.8z"/><path fill="#373f4c" d="M313.7 108.6V250H176.5V108.6c0-3.3 2.7-6 6-6h125.2c3.3 0 6 2.6 6 6z"/><path fill="#6d747c" d="M270.2 203.9h-50.9c-.5 0-1-.4-1-1v-1.1c0-.5.4-1 1-1h50.9c.5 0 1 .4 1 1v1.1c-.1.6-.5 1-1 1zM270.2 214.2h-50.9c-.5 0-1-.4-1-1v-1.1c0-.5.4-1 1-1h50.9c.5 0 1 .4 1 1v1.1c-.1.5-.5 1-1 1zM270.2 224.4h-50.9c-.5 0-1-.4-1-1v-1.1c0-.5.4-1 1-1h50.9c.5 0 1 .4 1 1v1.1c-.1.6-.5 1-1 1zM212.7 153.9c0 2.9-2.3 5.2-5.2 5.2-2.9 0-5.2-2.3-5.2-5.2 0-2.9 2.3-5.2 5.2-5.2 2.9 0 5.2 2.4 5.2 5.2zM287.1 153.9c0 2.9-2.3 5.2-5.2 5.2-2.9 0-5.2-2.3-5.2-5.2 0-2.9 2.3-5.2 5.2-5.2 2.9 0 5.2 2.4 5.2 5.2z"/><ellipse cx="244.7" cy="165.4" fill="#6d747c" rx="13.3" ry="15.7"/><ellipse cx="244.7" cy="157.9" fill="#373f4c" rx="13.3" ry="15.7"/><path fill="#8e97a0" d="M313.7 108.6v13.8H176.5v-13.8c0-3.3 2.7-6 6-6h125.2c3.3 0 6 2.6 6 6z"/><path fill="#373f4c" d="M303.6 115h-58.2c-1.4 0-2.5-1.1-2.5-2.5s1.1-2.5 2.5-2.5h58.2c1.4 0 2.5 1.1 2.5 2.5 0 1.3-1.1 2.5-2.5 2.5zM193.4 112.2c0 2.4-1.9 4.3-4.3 4.3s-4.3-1.9-4.3-4.3 1.9-4.3 4.3-4.3c2.4.1 4.3 2 4.3 4.3zM208 112.2c0 2.4-1.9 4.3-4.3 4.3s-4.3-1.9-4.3-4.3 1.9-4.3 4.3-4.3 4.3 2 4.3 4.3z"/><circle cx="218.3" cy="112.2" r="4.3" fill="#373f4c"/><path fill="#fff" d="M142.5 111.6c1.8-.5 3.2 0 3.6 1.5.6 2-1.4 2.9-1 4.5l-1.8.5c-.6-2.1 1-2.7.7-4-.2-.6-.6-.7-1.2-.6-.7.2-.9.7-.7 1.5l-1.9.5c-.4-1.9.4-3.4 2.3-3.9zm3.5 8.1c.2.7-.2 1.3-.8 1.5-.7.2-1.3-.2-1.5-.8-.2-.7.1-1.3.8-1.5.7-.2 1.3.1 1.5.8zM343.9 122.6c1.8.6 2.6 1.7 2.2 3.2-.6 2-2.8 1.7-3.3 3.2l-1.8-.6c.6-2.1 2.3-1.7 2.7-3 .2-.6-.1-.9-.7-1.1-.7-.2-1.1.1-1.4.9l-1.8-.6c.6-1.8 2.2-2.6 4.1-2zm-1.6 8.7c-.2.7-.8 1-1.5.8-.7-.2-1-.8-.8-1.5.2-.7.8-1 1.5-.8.7.2 1.1.9.8 1.5zM353.1 201.9c1.7.8 2.4 2.1 1.7 3.5-.9 1.9-3 1.3-3.6 2.8l-1.7-.8c.9-2 2.5-1.4 3.1-2.6.2-.5 0-.9-.5-1.2-.6-.3-1.1-.1-1.5.7l-1.7-.8c.8-1.8 2.4-2.4 4.2-1.6zm-2.6 8.5c-.3.7-1 .9-1.6.6-.6-.3-.9-1-.6-1.6.3-.7.9-.9 1.6-.6.6.3.9.9.6 1.6zM291.7 87.3c1.8.6 2.6 1.7 2.2 3.2-.6 2-2.8 1.7-3.3 3.2l-1.8-.6c.6-2.1 2.3-1.7 2.7-3 .2-.6-.1-.9-.7-1.1-.7-.2-1.1.1-1.4.9l-1.8-.6c.7-1.8 2.2-2.6 4.1-2zm-1.5 8.7c-.2.7-.8 1-1.5.8-.7-.2-1-.8-.8-1.5.2-.7.8-1 1.5-.8.6.2 1 .8.8 1.5zM151.4 172.4c1.7-.8 3.1-.5 3.8 1 .9 1.9-1 3.1-.3 4.6l-1.7.8c-.9-2 .6-2.8.1-4-.2-.5-.7-.6-1.3-.4-.6.3-.8.8-.4 1.6l-1.7.8c-.9-2-.3-3.6 1.5-4.4zm4.7 7.5c.3.7.1 1.3-.6 1.6-.6.3-1.3 0-1.6-.6-.3-.7-.1-1.3.6-1.6.7-.3 1.3-.1 1.6.6z"/><path fill="#555c66" d="M335.9 320.2H115.8c-1.8 0-3.2-1.4-3.2-3.2v-10.7c0-1.8 1.4-3.2 3.2-3.2h220.1c1.8 0 3.2 1.4 3.2 3.2V317c0 1.8-1.4 3.2-3.2 3.2zm-36.8-25.6H115.8c-1.8 0-3.2-1.4-3.2-3.2v-10.7c0-1.8 1.4-3.2 3.2-3.2H299c1.8 0 3.2 1.4 3.2 3.2v10.7c0 1.8-1.4 3.2-3.1 3.2zm-12.4 51.1H115.8c-1.8 0-3.2-1.4-3.2-3.2v-10.7c0-1.8 1.4-3.2 3.2-3.2h170.9c1.8 0 3.2 1.4 3.2 3.2v10.7c0 1.8-1.4 3.2-3.2 3.2z"/></svg>