<svg id="Layer_1" data-name="Layer 1" xmlns="http://www.w3.org/2000/svg" viewBox="0 0 149.39 149.39"><defs><style>.cls-1{fill:#8b5cf6;}</style></defs><path class="cls-1" d="M.3,17.3h0A58.86,58.86,0,0,1,59.16,76.16v55.93a0,0,0,0,1,0,0h0A58.86,58.86,0,0,1,.3,73.23V17.3A0,0,0,0,1,.3,17.3Z"/><path class="cls-1" d="M64.32,84.5h0V54.79a37.49,37.49,0,0,1,37.5-37.49h0V47A37.5,37.5,0,0,1,64.32,84.5Z"/><path class="cls-1" d="M64.32,90.33h43a41.76,41.76,0,0,1,41.76,41.76v0a0,0,0,0,1,0,0h-43A41.76,41.76,0,0,1,64.32,90.33v0A0,0,0,0,1,64.32,90.33Z"/></svg>