<svg xml:space="preserve" enable-background="new 0 0 149.4 149.4" viewBox="0 0 149.4 149.4" xmlns="http://www.w3.org/2000/svg"><path fill="#14b8a6" d="m24.6 54.4 33.2-33.2s20.5 23 47.6 20.4c10 22 21.5 68.9 24.7 82.3L84.9 78.6c1.5-2.7 1.1-6-1.2-8.3-2.7-2.7-7.1-2.7-9.9 0-2.7 2.7-2.7 7.2 0 9.9 2.2 2.2 5.6 2.6 8.3 1.2l45.3 45.3C113.9 123.5 67 112 45 102c2.6-27.1-20.4-47.6-20.4-47.6z"/><path d="M45 102c22 10 68.9 21.5 82.3 24.7L82.1 81.4c-2.7 1.5-6.1 1.1-8.3-1.2-2.7-2.7-2.7-7.2 0-9.9L41.2 37.8 24.6 54.4S47.6 74.9 45 102z" opacity=".2"/><path fill="#14b8a6" d="m18.3 38.7 24-24c1.1-1.1 3-1.1 4.1 0l6.6 6.6c1.1 1.1 1.1 3 0 4.1l-24 24c-1.1 1.1-3 1.1-4.1 0l-6.6-6.6c-1.2-1.1-1.2-2.9 0-4.1z"/><path fill="#007cff" d="m18.7 49 33.8-33.8c1.4-1.4 3.6-1.4 5 0l6.3 6.3c1.4 1.4 1.4 3.6 0 5L30 60.3c-1.4 1.4-3.6 1.4-5 0L18.7 54c-1.3-1.4-1.3-3.6 0-5z"/><path fill="#169e8a" d="m18.7 49 33.8-33.8c1.4-1.4 3.6-1.4 5 0l6.3 6.3c1.4 1.4 1.4 3.6 0 5L30 60.3c-1.4 1.4-3.6 1.4-5 0L18.7 54c-1.3-1.4-1.3-3.6 0-5z"/><path fill="#fff" d="M47.3 20.4H54v15.9h-6.7z" opacity=".24" transform="rotate(134.999 50.677 28.322)"/><path fill="#fff" d="M42.8 26.9h2.7v15.9h-2.7z" opacity=".24" transform="rotate(-45.001 44.142 34.854)"/></svg>