<?xml version="1.0" encoding="utf-8"?>
<!-- Generator: Adobe Illustrator 25.2.0, SVG Export Plug-In . SVG Version: 6.00 Build 0)  -->
<svg version="1.1" id="Layer_1" xmlns="http://www.w3.org/2000/svg" xmlns:xlink="http://www.w3.org/1999/xlink" x="0px" y="0px"
	 viewBox="0 0 149.4 149.4" style="enable-background:new 0 0 149.4 149.4;" xml:space="preserve">
<style type="text/css">
	.st0{fill:#14B8A6;}
	.st1{opacity:0.2;}
	.st2{fill:#007CFF;}
	.st3{fill:#169E8A;}
	.st4{opacity:0.24;fill:#FFFFFF;}
</style>
<g>
	<g>
		<path class="st0" d="M24.6,54.4l33.2-33.2c0,0,20.5,23,47.6,20.4c10,22,21.5,68.9,24.7,82.3L84.9,78.6c1.5-2.7,1.1-6-1.2-8.3
			c-2.7-2.7-7.1-2.7-9.9,0c-2.7,2.7-2.7,7.2,0,9.9c2.2,2.2,5.6,2.6,8.3,1.2l45.3,45.3C113.9,123.5,67,112,45,102
			C47.6,74.9,24.6,54.4,24.6,54.4z"/>
		<path class="st1" d="M45,102c22,10,68.9,21.5,82.3,24.7L82.1,81.4c-2.7,1.5-6.1,1.1-8.3-1.2c-2.7-2.7-2.7-7.2,0-9.9L41.2,37.8
			L24.6,54.4C24.6,54.4,47.6,74.9,45,102z"/>
	</g>
	<path class="st0" d="M18.3,38.7l24-24c1.1-1.1,3-1.1,4.1,0l6.6,6.6c1.1,1.1,1.1,3,0,4.1l-24,24c-1.1,1.1-3,1.1-4.1,0l-6.6-6.6
		C17.1,41.7,17.1,39.9,18.3,38.7z"/>
	<g>
		<g>
			<path class="st2" d="M18.7,49l33.8-33.8c1.4-1.4,3.6-1.4,5,0l6.3,6.3c1.4,1.4,1.4,3.6,0,5L30,60.3c-1.4,1.4-3.6,1.4-5,0L18.7,54
				C17.4,52.6,17.4,50.4,18.7,49z"/>
			<path class="st3" d="M18.7,49l33.8-33.8c1.4-1.4,3.6-1.4,5,0l6.3,6.3c1.4,1.4,1.4,3.6,0,5L30,60.3c-1.4,1.4-3.6,1.4-5,0L18.7,54
				C17.4,52.6,17.4,50.4,18.7,49z"/>
		</g>
		
			<rect x="47.3" y="20.4" transform="matrix(-0.7071 0.7071 -0.7071 -0.7071 106.5367 12.5144)" class="st4" width="6.7" height="15.9"/>
		
			<rect x="42.8" y="26.9" transform="matrix(0.7071 -0.7071 0.7071 0.7071 -11.7159 41.4214)" class="st4" width="2.7" height="15.9"/>
	</g>
</g>
</svg>
