<svg xml:space="preserve" xmlns:xlink="http://www.w3.org/1999/xlink" enable-background="new 0 0 180 180" viewBox="0 0 180 180" xmlns="http://www.w3.org/2000/svg"><defs><path id="a" d="M0 0h180v180H0z"/></defs><use xlink:href="#a" fill="#ea2130" overflow="visible"/><clipPath id="b"><use xlink:href="#a" overflow="visible"/></clipPath><g clip-path="url(#b)"><path fill="#38312d" d="M86.2 16.7c3.4-.3 6.8-.4 10.2 0 2.3.3 4.6.9 6.9 1.6 1.7.5 3.3 1.2 4.9 2.1.8.5 1.5 1.2 2.4 1.7 1.2.7 2.4 1.5 3.5 2.5 1.7 1.3 3.3 2.9 4.5 4.7.7 1 1.2 2.2 2 3.2 1.2 1.4 2.1 2.9 2.7 4.6.7 1.5 1.3 3.1 1.7 4.7.7 2.5 1.2 5 1.4 7.6 0 1.5.1 3.1-.1 4.6s-.2 3-.4 4.6c-.2 1.7-.3 3.4-.6 5-.5 3-1.5 6-2.3 9-.1.4-.2.9-.5 1.2-.2.7-.1 1.6-.8 2.1-.1.4-.3.8-.6 1.1-.5.5-1.4.4-1.8-.1-.9-.9-1.2-2.1-1.5-3.3-.2-.7-.3-1.5-.6-2.1-.5-4-.8-8-.8-12 0-.9.2-1.8-.2-2.7-1.2-3.6-2.3-7.2-3.6-10.8-.1-.3-.2-.6-.5-.8-1.7-1.5-3.7-2.8-5.7-3.9-1.6-.9-3.2-1.7-5-2.2-.8-.1-1.5 0-2.3 0-2.4 0-4.8 0-7.2.1-1.3.1-2.6.2-3.9.4-.4 0-.8.2-1.1.4-.2.1-.7.1-.7-.2-2.2.1-4.4.8-6.5 1.4-3.3 1-6.5 2.5-9.7 4.1-.6.4-1.3.6-1.8 1.1-1.5 1.8-2.9 3.8-3.9 6-1.8 4-2.5 8.5-3.5 12.7-.2.6 0 1.2.1 1.8 0 2.1 0 4.3.1 6.5 0 .4-.1.8-.2 1.2 0 1.1.1 2.1.1 3.3 0 .4-.3.7-.4 1.1-.2.5-.7 1-1 1.5-.4.5-1.3.4-1.6-.2-.5-1-.6-2.1-.7-3.2-.1-1.7-.3-3.4-.5-5.2-.1-1.2-.6-2.3-.9-3.5-.4-1.7-.9-3.4-1.2-5.2-.8-3.9-1.1-7.9-1-11.9 0-1.3 0-2.7.1-4.1 0-2.2.2-4.3.5-6.5.4-3.1 1.7-6 3.3-8.7 1.2-2 2.5-4 4.2-5.5 2.1-1.7 4.1-3.5 6.7-4.4.8-.3 1.6-.8 2.4-1.1 2.1-.8 4.1-1.6 6.2-2.1 3.2-1.2 6.2-1.8 9.2-2.2z"/><path fill="#dfaf33" d="M209 208.5c-.3-.9-.8-1.8-1.6-2.5v-.9c-.3-1.5-.8-2.9-1.2-4.4l-.9-2.7c-1.2-3.2-2.4-6.4-3.7-9.5-1.1-2.3-2.3-4.5-3.6-6.6-.8-1.4-1.5-2.9-2.4-4.3-.6-1.1-1.2-2.2-1.9-3.3-.7-1.2-1.3-2.4-2-3.6-.7-1.1-1.3-2.3-2.1-3.3-2.1-2.9-4.4-5.6-7.3-7.8-1.1-.8-2.2-1.4-3.4-2.1-1.4-.8-2.8-1.7-4.2-2.4-1.1-.6-2.2-1-3.3-1.5-1.1-.4-2.1-.9-3.3-1.3-3.2-1.2-6.3-2.7-9.4-4-1.1-.4-2.1-1-3.2-1.5-2.2-.9-4.5-2-6.8-2.7-1.6-.6-3.2-1.1-4.9-1.6-2.8-.8-5.5-1.8-8.2-2.6-3.8-1.3-7.7-2.6-11.1-4.9-1-.7-2.1-1.2-3.2-1.9-.9-.7-1.2-2.1-2.4-2.5v.7c-.2-.1-.4-.4-.8-.3-.1.4.4.5.4.8-1.4 1.8-3.3 3.1-5.2 4.2-1.6.8-3.1 1.8-4.9 2.5-3.7 1.5-7.6 3-11.6 3.8-3.3.7-6.8.8-10.2.6-3.6-.1-7.2-.6-10.8-1.4-2.5-.6-5-1.3-7.5-2.2-1.3-.5-2.7-1.1-4.1-1.6l-3.3-1.2c-.3-.2-.5 0-.7.2l.1.1c-.4.2-.6.6-.8.9.2-.4.4-.7.7-1.1v-.4l.1.4.4-.4c0-.3.1-.7.1-1h-.5c-1.2.8-1.8 2.1-2.6 3.3-1.2 1.7-2.3 3.7-3.8 5.1l-3.3 3c-1.7 1.4-3.2 2.9-4.9 4.3-2.1 1.7-4.1 3.3-6.3 4.7-2.6 1.7-5.1 3.6-7.7 5.3-2.1 1.3-4.1 2.8-6.2 4.1-2.3 1.4-4.5 2.9-6.6 4.4-2.1 1.4-4.1 3.1-6.2 4.7-3.7 3-7.3 6.3-10.5 9.8-.8.9-1.7 1.9-2.4 3-1.2 1.8-2.5 3.7-3.6 5.6-1.4 2.7-2.7 5.4-3.5 8.3-.7 2.5-1.2 5.1-1.5 7.7H209z"/><path fill="#f2844f" d="M106.5 33.4c1.4-.3 2.9.1 4.1.8.6.7 1.2 1.2 1.8 1.8.8.9 1.7 1.7 2.2 2.8.8 1.5 1.7 3 2.5 4.6.7 1.7 1.3 3.3 1.8 5.1.7 2.6 1.1 5.2 1.7 7.8.4 1.2.5 2.6.6 3.9.1 1.2.1 2.4 0 3.7 0 2-.4 3.9-.4 5.8 0 1.7-.5 3.4-.1 5.1.5.1 1 0 1.4-.3-.2.6-.3 1.2-.4 1.8-.3 2.6-.6 5.3-.8 7.9-.4 1.7-.5 3.6-.7 5.4-.1 1.6-.5 3-.8 4.6-.7 2.9-1.2 5.8-2.1 8.6-.5 1.6-1 3.2-1.6 4.7-.2-.8-.3-1.7-.6-2.5 0-.2-.2-.3-.4-.4 0 .8.1 1.6.1 2.3 0 .8 0 1.7-.1 2.6-.4-1.9-.1-3.9-1-5.7-.1.6-.1 1.2 0 1.9-.4-1.1-.7-2.2-1.4-3.1 0 .6.2 1.1.3 1.7-.5-.8-.5-1.8-1.3-2.4v.6c-.8-.8-1.7-1.6-2.5-2.2-3.2-2.2-6.9-3.8-10.8-4.4-1.3-.2-2.7-.3-4-.5 0 0-.3-.4-.3-.5-.6.1-1.2.4-1.8.4-.6.1-1.3.1-1.9.2-2.3.1-4.6.4-6.7 1-2 .5-4.1.9-5.9 2-1.5.8-2.7 1.8-4 2.9-.7.6-1.3 1.4-2 2.1-.4.4-.9.8-1.1 1.3-.3.5-.4 1-.6 1.5-.1-.4-.3-.7-.4-1.1-.2.8-.2 1.7-.3 2.6-.3-.7-.5-1.4-.8-2.1 0 1-.2 2.1-.1 3v1.2c-.4-1.3-.4-2.7-.9-4-.3 1.1-.1 2.2-.1 3.4-.3-1.2-.4-2.5-.8-3.7-.2.8-.2 1.6-.3 2.4-.4-1.1-.3-2.3-.7-3.4-.1.7-.1 1.3-.2 2-.2-.9-.3-1.7-.5-2.6l-.3 1.2c-.9-1.8-1.8-3.7-2.5-5.5-1.5-3.5-2.6-7.3-3.2-11-.1-.4-.2-.9-.4-1.3-.2-2.4-.2-4.8-.3-7.2 0-1.2.1-2.3-.1-3.4.4-.1.8-.4 1.2-.6-.2-4.1-.2-8.2-.1-12.2.2-2.9.4-5.7.8-8.6.2-1.6.8-3.1 1.2-4.7.5-2.4 1.1-4.9 2.2-7.1.7-1.4 1.4-2.9 2.3-4.2.4-.6.8-1.2 1.6-1.4.9-.2 1.7-.7 2.7-.8 3.1-.2 6.2-.2 9.3.3 3.2.2 6.5.4 9.7.4 2.9-.1 5.9-.7 8.7-1.7 3.1-1.2 6.1-2.1 9.1-2.8z"/><path fill="#fcae88" d="M68.7 43.2c1.3-1.3 3-2.2 4.8-2.6 0 0 0 .2-.1.3-1.4.5-2.7 1.3-3.8 2.3l-.9.6v-.6z"/><path fill="#b95c36" d="M94 53.6c1.3-.2 2.7-.5 4.1-.5v.3c-2 .7-4.1.9-6.2 1.2-1.6.1-3.2-.1-4.8-.2-1.2 0-2.4-.1-3.6.1-.9.1-1.7.4-2.7.4.8-.7 1.8-.8 2.7-1 1.1-.2 2.2-.1 3.4-.1 1.1 0 2.3.2 3.4.1 1.2 0 2.4-.1 3.7-.3z"/><path fill="#b85b36" d="M92.8 55.6c1.7-.1 3.3-.5 5-.5-1.1.4-2.1.6-3.3.9-2 .4-4.1.4-6.2.4-1.2-.1-2.5-.3-3.7-.3-1.5.1-3 .5-4.5.8.4-.3.8-.5 1.2-.7 1.2-.3 2.4-.6 3.6-.5 2.7 0 5.3 0 7.9-.1z"/><path fill="#b75b36" d="M95.3 57.2c.6-.1 1.2-.2 1.9-.2v.4c-1.6.5-3.2.8-4.8 1.1-2.4.4-4.7.1-7.1.1-1.2 0-2.4.3-3.6.3.9-.7 2.1-.9 3.3-.9h4.2c2 0 4.1-.3 6.1-.8z"/><path fill="#b25835" d="M106.8 60.3c1.8-.2 3.6 0 5.4.4 2.1.4 3.9 1.8 4.8 3.7.2.4.1 1.1-.4 1.2-2.2.5-4.5.2-6.7.2-3.2.2-6.3.8-9.4 1.6-.5.1-1.2.2-1.5-.3-.4-.6-.4-1.4-.3-2.1.1-.6.2-1.2.5-1.7.7-.9 1.6-1.6 2.7-1.9 1.6-.6 3.3-.9 4.9-1.1zm-37.7 3.1c1.8-.4 3.7-.6 5.5-.5 1.5 0 3 .3 4.6.5 1.3.2 2.6 1.2 3 2.5.3 1 .5 2.1.2 3.2-.9.1-1.9 0-2.8 0-2.6-.2-5.3 0-7.9.1-2.3.1-4.5.5-6.7.7-1.3.1-2.7 0-4.1 0 0-.5 0-1 .3-1.4.4-.5.5-1 .8-1.6.4-.5.9-1 1.4-1.4 1.6-1.2 3.7-1.8 5.7-2.1z"/><path fill="#f95939" d="M126.4 68.9c1.2-.7 2.8-.8 4.1-.2.8.4 1.3 1.2 1.7 2.1.8 2 .8 4.1.6 6.2-.5 2.6-1.2 5.3-2.3 7.7-1.7 3.7-4 7.3-7.2 9.9-.8.7-1.9 1.2-2.8 1.9 0 .1-.1.3-.1.4 0-.7 0-1.3.1-2 .3-2.6.7-5.1.7-7.7-.1-1-.1-2 0-3 .3-2.6.6-5.3.8-7.9 0-.6.1-1.2.4-1.8.2-.4.4-.9.4-1.4 0-.7.6-1.2.9-1.7.8-1 1.7-1.9 2.7-2.5zm-76.1.6c1.2-.6 2.5-.7 3.7-.4 1.1.2 2.1.8 2.9 1.5.2 2 .5 3.9 1 5.8.2 1.1 0 2.3.1 3.4.1 2.4.1 4.8.3 7.2v2.4c.1.7.2 1.4.2 2.2 0 .7 0 1.5.1 2.2.1.4 0 .9-.1 1.3 0-.1-.1-.4-.2-.4-1.7-.1-3.3-1-4.5-2.1-1.3-1.2-2.4-2.6-3.2-4.2-.4-.8-.6-1.6-1.1-2.3-.7-1-1.1-2.1-1.6-3.2-.5-1.2-.8-2.5-1.2-3.8-.5-2.2-.4-4.6.5-6.6.7-1.3 1.8-2.3 3.1-3z"/><path fill="#fd7858" d="M131.4 75.8c-.1-.4-.1-.9 0-1.3.1.4.1.8 0 1.3z"/><path fill="#b95c36" d="M107.7 77.2c1.2 0 2.5-.3 3.7-.4-.2.3-.5.5-.9.6-1.6.4-3.3.8-4.9.4-.4-.1-.8-.4-1.2-.6 1.2-.1 2.3.1 3.3 0z"/><path fill="#b95d38" d="M108.2 78.5c.7-.1 1.4-.4 2.1-.5-.4.6-1 .7-1.6.9-.8.2-1.6.4-2.3.3-.3 0-.4-.2-.4-.4.6-.1 1.4-.1 2.2-.3z"/><path fill="#bc5e38" d="M69.4 78.4c.7 0 1.3.4 2 .5 1.7.4 3.5.3 5.2 0 0 .1 0 .2-.1.3-1.2.4-2.6.6-4 .5-1.1 0-2.3-.4-3.1-1.3z"/><path fill="#b65b36" d="M70.2 80.6c0-.1.2-.3.3-.4 1.6.2 3.1.4 4.7.1v.4c-1.2.4-2.5.5-3.7.4-.5 0-.9-.2-1.3-.5z"/><path fill="#fbb28f" d="M100.9 83.3c2.1-1.2 4.6-1.5 7-1.4 2.1 0 4.1.1 6.2.4v.4c-2.3-.1-4.6-.4-6.9-.1-2.1.2-4.2.6-6.3 1.2v-.5z"/><path fill="#fcb290" d="M88.1 85.7c.1-.8 0-1.6.5-2.2.1.8 0 1.7 0 2.5-.1 1.5-.3 3-.4 4.5 0 .4-.2.8-.4 1.1-.2-2 .1-4 .3-5.9z"/><path fill="#b65a35" d="M121.1 84c-.1 1 0 2 0 3 0 2.6-.4 5.2-.7 7.7-.1.7-.2 1.3-.1 2 0 1.5-.3 3.1-.6 4.6-.4 1.7-.8 3.3-1.2 4.9-.4 1.6-.7 3.2-1.2 4.8-.3.9-.7 1.9-1 2.8-.1.5-.3.9-.5 1.4-.8 2.2-2.1 4.1-3.5 6-1.3 2-2.9 3.7-4.5 5.4-1 .9-2.1 1.8-3.1 2.7-.7.5-1.4 1-2 1.5-1 .8-2.3 1.3-3.5 1.8-3 1.1-6.2 1.3-9.4 1-1.2-.1-2.5-.3-3.7-.7-1.3-.4-2.6-1-3.8-1.6-1.2-.7-2.5-1.2-3.6-2-.8-.6-1.7-1.1-2.5-1.7-2.1-1.5-3.9-3.3-5.6-5.1-1.6-1.8-3.1-3.7-4.3-5.8-.4-.8-1-1.4-1.4-2.1-.7-1.2-1-2.5-1.9-3.6-.9-1.9-1.3-4-2-5.9-.9-3.2-1.9-6.4-2.4-9.7V95c.1-.4.2-.9.1-1.3-.1-.7-.1-1.4-.1-2.2 0-.7-.1-1.4-.2-2.2-.1-.8 0-1.6 0-2.4.1.4.3.9.4 1.3.7 3.8 1.7 7.5 3.2 11 .7 1.9 1.6 3.7 2.5 5.5l.3-1.2c.1.9.3 1.8.5 2.6 0-.7.1-1.3.2-2 .4 1.1.4 2.3.7 3.4 0-.8 0-1.6.3-2.4.4 1.2.5 2.5.8 3.7 0-1.1-.1-2.3.1-3.4.5 1.3.5 2.7.9 4v-1.2c-.1-1 .1-2.1.1-3 .3.7.5 1.4.8 2.1 0-.9 0-1.8.3-2.6.2.4.3.7.4 1.1l.6-1.5c.3-.5.7-.9 1.1-1.3.7-.7 1.3-1.4 2-2.1 1.2-1.1 2.5-2.1 4-2.9 1.8-1 3.9-1.4 5.9-2 2.2-.6 4.5-.9 6.7-1-.8.2-1.7.4-2.5.5-.4.7-.8 1.3-1.1 2-.3.6.2 1.4.9 1.4.6 0 1.2-.2 1.8-.5 1.2-.6 2.4-1.4 3.4-2.2.5-.4 1-.9 1.3-1.5 0 0 .1.1.1.2 1.3.2 2.7.4 4 .5 3.9.6 7.5 2.2 10.8 4.4.9.7 1.7 1.4 2.5 2.2v-.6c.8.6.8 1.6 1.3 2.4-.1-.5-.3-1.1-.3-1.7.7.9 1.1 2 1.4 3.1 0-.6-.1-1.2 0-1.9.9 1.7.6 3.8 1 5.7 0-.8.1-1.7.1-2.6 0-.8-.2-1.6-.1-2.3.1 0 .3.2.4.4.3.8.4 1.7.6 2.5.6-1.6 1.1-3.1 1.6-4.7.9-2.8 1.4-5.7 2.1-8.6.3-1.5.7-3 .8-4.6.3-1.5.4-3.3.8-5.1z"/><path fill="#fbb28f" d="M68.8 85.6c2.1-.8 4.5-1.2 6.7-1.4h1.4c1.4.1 2.9.2 4.2.7v.4c-.3-.1-.6-.1-.8-.2-4.4-.5-8.8.3-12.9 1.7.1-.7.9-1 1.4-1.2z"/><path fill="#733f2a" d="M92.2 95.1c.6-.1 1.2-.3 1.8-.4 0 .1.1.2.2.3-.3.6-.8 1.1-1.3 1.5-1.1.8-2.2 1.7-3.4 2.2-.6.3-1.2.5-1.8.5-.7 0-1.2-.8-.9-1.4.3-.7.7-1.3 1.1-2 .8-.1 1.7-.3 2.5-.5.5-.1 1.1-.1 1.8-.2z"/><path fill="#f2844f" d="M81.8 101.6c1.7-.6 3.6-.8 5.4-.8 2.3 0 4.5.2 6.8.1 2 0 4 .1 6 .4.8.1 1.6.2 2.2.7 1.2.8 2.1 1.7 3 2.8 1 1.3 1.2 3 .8 4.6-.2 2.4-1.4 4.6-2.5 6.6-.6 1.1-1.5 2.1-2.3 3.1-.9 1.1-2.3 1.7-3.7 2-1.2.2-2.7.2-3.7-.6-.9-.6-1.5-1.7-1.7-2.7-.2.1-.4.3-.4.6-.2.9-.7 1.7-1.3 2.4-.9 1-2.5 1.4-3.8.9-.9-.3-1.8-.7-2.7-1.1-1.6-.8-2.9-2-4-3.3-1.4-1.6-2.5-3.5-2.9-5.6-.2-.9-.2-1.9-.2-2.9 0-1.2.3-2.3.7-3.3.9-1.9 2.4-3.3 4.3-3.9z"/><path fill="#fffef3" d="M97.9 105c.5 0 1 0 1.4.1-.2.1-.4.3-.6.4-.2-.2-.5-.3-.8-.5z"/><path fill="#e56324" d="M63.1 111.1c.9 1 1.2 2.4 1.9 3.6.4.8 1 1.4 1.4 2.1 1.2 2.1 2.7 4 4.3 5.8 1.7 1.8 3.6 3.6 5.6 5.1.8.6 1.7 1.1 2.5 1.7 1.1.8 2.4 1.3 3.6 2 1.2.6 2.5 1.2 3.8 1.6 1.2.3 2.4.5 3.7.7 3.2.3 6.4.1 9.4-1 1.2-.5 2.5-1 3.5-1.8.7-.5 1.3-1 2-1.5 1.1-.8 2.1-1.8 3.1-2.7 1.7-1.7 3.2-3.5 4.5-5.4 1.4-1.8 2.7-3.8 3.5-6 0 1.9.4 3.8.7 5.7.2 1.2.3 2.5.7 3.7.4 1.3.7 2.6 1.1 3.9.2.8.7 1.4.8 2.2 0 .4.3.8.5 1.2.1.7-.2 1.4-.4 2.1-1 3-2.1 6.1-3.5 9-1.1 2.3-2.1 4.6-3.7 6.6-1.3 1.6-3 2.9-4.6 4.2-1.4 1-2.8 2.1-4.4 2.8-2.1.9-4.2 1.5-6.4 1.9-1.8.3-3.6.3-5.4.3s-3.6-.5-5.3-.9c-1.5-.5-2.9-1-4.5-1.3-1.5-.3-2.9-.9-4.4-1.3-2.1-.7-4-1.9-5.8-3.2-1.2-.9-2.3-1.9-3.4-2.8-.5-.5-1-1.1-1.5-1.6-2-2.1-3.5-4.4-5-6.8-.4-.7-.9-1.3-1.1-2.1 0-.7-.2-1.4-.1-2.1.5-1.1.8-2.2 1.4-3.3 1.3-2.9 2.6-5.8 3.1-9 .2-1.1.1-2.3.1-3.4-.1-2.3 0-4.6-.7-6.8-.3-1.1-.7-2.1-1-3.2z"/><path fill="#e46224" d="M93.2 112.7c1.1 0 2.2-.3 3.3-.5-.3 1.3.3 2.6.8 3.9-1.6.2-3.2 0-4.7.1-1.9 0-3.7.3-5.6.4.4-1.3.4-2.7.2-4 2 .3 4 .2 6 .1z"/><path fill="#38312d" d="M105.6 64.1c1.7-.2 3.4-.1 5.1-.1 1.7.1 3.3.2 4.9.8.7.2 1.4.5 2 1 .6.6 1 1.5 1.1 2.4.6 0 1.2 0 1.9.1 1 .1 2 .1 2.9.4.7.3 1.4.4 2.1.7v.4c-.4.3-.8.5-1 .8-.6.2-1.2-.1-1.8 0-1.3-.1-2.5-.1-3.8-.2 0 2.1 0 4.1-.3 6.2-.1 1.4-.6 2.8-1 4.2-.2.8-.6 1.6-.9 2.3-.4 1-1.2 1.7-2 2.5-.9 1-2.2 1.7-3.6 2.1-1.1.3-2.2.6-3.3.6-2.3 0-4.6-.1-6.8-.9-.8-.4-1.7-.6-2.4-1.1-1.6-1.1-2.7-2.7-3.3-4.5-.7-1.8-.8-3.7-1.1-5.6 0-1.8-.3-3.7-.1-5.5-.4.1-.8.1-1.1 0-1.8-.3-3.7-.3-5.5 0-.4 0-.8.2-1.2.1-.2 0-.4-.1-.6-.1-.1.4-.2.7-.1 1.1.1 1.7 0 3.3.1 5 .2 2-.1 4-.2 5.9-.2 1.2-.8 2.4-1.3 3.5-.3.5-.5 1-.9 1.4-.7.6-1.3 1.4-2.2 1.7-1.1.4-2.1.8-3.2 1.3-1.4.4-2.8.5-4.2.7-.9 0-1.9.1-2.9.1-1.9 0-3.7-.3-5.5-1.1-.8-.3-1.3-1.1-1.9-1.6-1-.7-1.5-1.7-1.9-2.8-.6-1.6-1.1-3.2-1.3-4.9-.2-1.3-.4-2.6-.4-3.9-.1-.9-.1-1.8-.1-2.7.1-1 0-2.1.2-3-.8 0-1.6-.2-2.4-.2-.8 0-1.4-.5-2-.9-.4-.3-.3-.9.2-1 1.6-.6 3.3-.4 4.9-.1.4-.7 1-1.1 1.6-1.6.8-.5 1.7-.7 2.5-1 2.8-.8 5.8-1 8.7-1.2 2.6 0 5.3-.2 7.8.5 1.2.2 2.4.6 3.1 1.6.4.5.7 1.2.9 1.8 1.1-.6 2.4-.7 3.7-.8 1.8-.1 3.7-.1 5.4.3.2-.7.5-1.5 1.1-1.9.8-.5 1.6-1.2 2.5-1.5 2.6-.7 5.1-1 7.6-1.3zm-1.8 1.9c-2.1.2-4.3.6-6.2 1.6-.4.2-.8.6-1.1.9-.3.3-.3.7-.4 1-.2 1.4-.2 2.9-.1 4.3 0 1.8.1 3.6.4 5.4.2 1.3.8 2.5 1.4 3.6.3.4.7.8 1 1.2.6.8 1.5 1.3 2.4 1.7 1.5.6 3.1.9 4.7 1.1 2.2.1 4.6-.1 6.5-1.4.7-.3 1.1-.9 1.6-1.5.7-.7 1.1-1.7 1.5-2.6 1.2-3.1 1.8-6.5 1.7-9.9 0-1 .1-2.1-.2-3.1-.4-.9-1.5-1.4-2.3-1.8-1.6-.6-3.2-.7-4.9-.8-2 0-4 0-6 .3zm-30.4 1.2c-1.9.1-3.9.3-5.8.6-1.2.2-2.5.4-3.6.9-.4.2-.9.5-1.2 1-.4.5-.7 1-.8 1.6-.2 1.2-.4 2.3-.4 3.5.2 2.5.4 4.9.9 7.3.5 2 1.2 4 2.4 5.7.4.5 1.1.8 1.8 1.1 1.2.4 2.4.6 3.6.8 1.4 0 2.8.1 4.2-.1 1.3-.1 2.5-.6 3.8-.9.9-.3 1.8-.6 2.5-1.2s1.4-1.4 1.9-2.2c.5-1.1.9-2.2 1.2-3.3.7-3.7.6-7.5-.1-11.2-.1-.8-.4-1.7-.9-2.3-.4-.4-.9-.4-1.3-.7-.9-.4-2-.5-3-.6h-5.2z"/><path fill="#b65a35" d="M85.7 70.8c.2 0 .4.1.6.1.1.8.4 1.6.4 2.5.1 2.2.3 4.3.1 6.5-.2 1.8-.3 3.6-.5 5.4-.2 2.3-.7 4.6-.9 6.9-.1.7-.1 1.5 0 2.2.2.1.5.3.8.4 1.5.3 3 0 4.5-.1 1.3 0 2.6-.4 3.9-.3.2.2.3.4.3.6-1.9.5-3.8.7-5.8.9-.6.1-1.2 0-1.9 0-.8 0-1.6-.1-2.2-.5-.4-.3-.6-.8-.6-1.4 0-2.2.4-4.3.7-6.4.1-1.6.4-3.2.4-4.8.1-2 .4-4 .2-5.9-.1-1.7 0-3.3-.1-5 0-.4.1-.7.1-1.1z"/><path fill="#160e0b" d="M108 71.4c.7-.3 1.4.2 1.5.9.2.8.1 1.9-.7 2.4-.6.4-1.5-.1-1.6-.8-.1-.8-.1-2 .8-2.5zM72.8 73c.4-.2 1.1 0 1.2.5.1.9.3 2-.2 2.8-.3.5-1.1.6-1.4.1-.5-.7-.4-1.6-.4-2.4.1-.4.4-.9.8-1z"/><path fill="#e56324" d="M81.4 103.2c1.1-.6 2.5-.7 3.7-.6 2.5 0 4.9 0 7.3.1 1.7.1 3.5-.1 5.3.1 1.2.2 2.4.2 3.4.8.6 1.1.5 2.5-.3 3.4-1 1.1-2.1 2.2-3.3 3-1.7 1-3.7 1.2-5.6 1.2-2-.1-4-.4-5.9-1.1-1.8-.7-3.5-1.9-4.6-3.6-.4-.6-.4-1.3-.6-2-.1-.3.1-.9.6-1.3z"/><path fill="#fff" d="M82 103.8c1.8-.2 3.6 0 5.4.2 2 .4 4.1.3 6.1.3 2.1 0 4.3-.6 6.5-.4.4 0 .9.2 1.1.6.1.3 0 .5-.1.8-.3.6-.8 1.2-1.4 1.7-.5.4-1.2.5-1.8.8-.8.3-1.7.6-2.6.8-1.7.1-3.3.4-5 .3-2.9-.4-5.7-1.3-8-3.1-.3-.3-.6-.5-.6-.9-.1-.5-.1-1.1.4-1.1z"/><path fill="#f7a983" d="M90.7 109.6c1.7-.1 3.4-.3 5.1-.4v.3c-1.1.4-2.3.5-3.4.6-.6-.1-1.3 0-1.7-.5z"/><path fill="#784074" d="M129.2 138.2c.3-.4.8 0 .7.4-.3 2.6-1.1 5.1-2.2 7.4-.5 1.2-1.2 2.2-1.8 3.3-.8 1.4-1.6 2.9-2.5 4.2-1.2 1.8-2.8 3.5-4.2 5.2l-.4.4h.7c-.3 0-.6.1-.8.1-.8.8-1.6 1.6-2.5 2.3-1.2 1-2.4 2.1-3.7 2.9-1.9 1.2-3.9 2.2-5.9 3.2-2 .9-4.1 1.7-6.2 2.1-1.7.3-3.4.6-5.1.7-4 0-7.9-.1-11.8-1.1-3.4-.7-6.9-1.7-10.2-3-.3-.1-.5-.3-.8-.4-1.2-.4-2.2-1-3.3-1.6-1.2-.6-2.3-1.3-3.4-2.1-1-.7-2.1-1.3-3-2-2-1.5-4.1-2.9-5.8-4.8-.8-1-1.6-2-2.4-2.9-.8-1.1-1.7-2.2-2-3.6-.3-.8-.8-1.5-.7-2.4 0-.3.3-.4.5-.5.3.3.2.6.2.9 0 .3.3.5.4.8.1.3 0 .6.1.9.3 1 .9 1.8 1.6 2.6.8 1.1 1.7 2.1 2.5 3.1 1.7 2 3.8 3.4 5.9 5 .9.7 1.8 1.2 2.8 1.8 4.8 3.3 10.3 5.3 15.9 6.6 1.2.2 2.4.6 3.7.8 3.3.6 6.7.7 10 .7 2.7-.2 5.4-.7 8.1-1.5 2.7-.9 5.2-2.2 7.7-3.6 1.9-1 3.5-2.5 5.2-3.8 1.2-1.1 2.4-2.2 3.5-3.4 1.6-1.7 3-3.6 4.3-5.6 1.5-2.6 2.9-5.3 4-8.1.2-1.4.8-3.2.9-5z"/><path fill="#916693" d="M72.3 166c.3.1.5.2.8.4-.4.1-.8.2-1.3.3v-.4c-.3 0-.6-.1-.9-.1.4-.1 1 0 1.4-.2z"/><path fill="#a88ba4" d="M191.1 169.8c.1.1.3.2.4.3-.2.1-.3.3-.5.3-.7 0-1.5 0-2.2-.1h1.8c.2 0 .3-.3.5-.5z"/><path fill="#774074" d="M-6.5 201.7c.6-.4 1.3-.6 2.1-.7 2.9-.6 5.8-.7 8.7-.4 1.6.3 3.3.4 4.9.8 1.7.4 3.5.9 5.3 1.2.6 2 1.1 4 1.6 5.9h.9c-.1-.5-.2-1-.4-1.5-.4-1.7-.9-3.4-1.4-5.1-.6-1.7-1.1-3.4-1.9-5 1.2-1 2.7-1.5 4.2-1.9l4.5-1.2c2.4-.5 4.8-.9 7.2-1.3 3.2-.4 6.3-1.2 9.5-1.9s6.3-1.4 9.3-2.6c1.4-.5 2.8-.9 4.2-1.3 2.7-.8 5.4-1.4 8.2-2 3-.6 5.9-1.4 8.9-1.9 1.7-.3 3.5-.5 5.3-.8 3-.4 6.1-.8 9.1-1.2 3.7-.5 7.3-1.3 10.9-1.9 3-.4 6-1.1 9.1-1.4 2.4-.3 4.8-.3 7.2-.5 2.9-.1 5.7-.4 8.5-.6 1.1-.1 2.3-.1 3.4-.2 3.7 0 7.3-.2 11 0 2.6 0 5.2.1 7.9.1 1.7 0 3.3.2 5 .1 1.2.1 2.4.1 3.7.2 2.4.1 4.8.4 7.2.4.6 0 1.2.1 1.8.1 1.1 0 2.2.2 3.4.1.9 0 1.8.1 2.7.1 1.1 0 2.2.2 3.3.1 1.3 0 2.6.2 3.9.1 1.8 0 3.7.2 5.4.1.3 2.1.5 4.1.8 6.2.2 1.4.4 2.9.6 4.3.3 3.5 1.1 7 1.8 10.4-.3-.2-.7-.4-1.1-.4-3.8-.1-7.5-.8-11.3-1.5-3-.5-6.1-.7-9.2-1.1-3.5-.4-7-.6-10.6-.8-1.2 0-2.5-.2-3.8-.1-3.8-.1-7.6-.3-11.4.3-6.2.8-12.4 2.4-18.6 3.3-3.3.5-6.5.9-9.8 1.2s-6.7.5-10 .9c-3.1.4-6.2.6-9.4 1.1-3.9.6-7.9 1.3-11.8 2.1-4.5.8-9 2.1-13.6 2.1-2 .2-4 .1-6 .1-3.2 0-6.3 0-9.5.2-2.1.2-4.1.4-6.1.8-1.4.2-2.8.6-4.1.9-.4.1-.9.2-1.4.3h4.6c1-.2 2-.4 3-.5 2.8-.4 5.5-.7 8.3-.6 5.5 0 11.1.3 16.5-.6 2.9-.5 5.8-1.1 8.7-1.7 3.8-.8 7.6-1.5 11.4-2 2.8-.4 5.6-.7 8.4-1 3.4-.4 6.8-.7 10.2-1 3.1-.3 6.2-.7 9.3-1.2 6.2-1 12.4-2.7 18.6-3.7 1.5-.2 3-.4 4.6-.5 1.9-.1 3.7 0 5.6 0 5.3.2 10.6.4 15.8.9 3.3.4 6.7.6 10.1 1.1 3.3.5 6.7 1.1 10.1 1.3.8 0 1.6.3 2.4.4.2.8.4 1.5.6 2.2.6 2.2 1.2 4.4 1.7 6.6h.8c0-.4-.1-.7-.2-1-.4-1.5-.8-3-1.1-4.6 3.4-.5 6.9-.9 10.3-1.7 3.2-.6 6.4-1.2 9.6-1.1 1 0 2 .3 2.9 0v-.5c-.1 0-.3-.1-.3-.1-1.7-.3-3.3-.4-5-.3-3.6.2-7.1 1-10.7 1.7-2.4.4-4.8.6-7 1.3-.5-1.6-.8-3.2-1.2-4.8-.7-3.2-1.3-6.3-1.7-9.5 2.3-1 4.8-1.7 7.2-2.3 1.4-.3 2.8-.4 4.2-.8 2-.4 4-.6 6-.8.5.3 1.1.2 1.7.1 0-.1.1-.3.2-.4-.2-.2-.4-.4-.6-.5-.7-.1-1.3-.1-2.1-.1-1.9.1-3.7.3-5.5.7-1.6.3-3.2.4-4.7.8-2.2.5-4.4 1.1-6.4 2.2-.4-2-.6-4.1-.8-6.1-.1-1.2-.4-2.3-.4-3.5-.2-1.7-.4-3.4-.2-5.1 1.8-.7 3.7-1.2 5.7-1.6.8-.2 1.6-.4 2.4-.4h4.1c.3 0 .4-.3.5-.4-.5-.1-1.1-.1-1.6-.1-1.1 0-2.1-.1-3.1-.2-1.1 0-2.1.3-3.2.4-1.6.3-3.2.7-4.6 1.4.2-1 .4-2.1.7-3.1.7-2.5 1.3-5.1 2.3-7.5.1-.4.7-.5.6-1 0-.4-.4-.4-.7-.3-1.1 1.9-1.7 4.1-2.3 6.2-1.2-.5-2.5-.8-3.7-1l-5.4-1.2c-2.8-.6-5.5-1.3-8.3-1.7-1.7-.3-3.4-.3-5.1-.6-4.7-.7-9.4-1.2-14.1-1.8-3.6-.4-7.1-.9-10.7-1.2-1.7-.2-3.4-.3-5.2-.2-.9.1-1.8 0-2.7.1-1.6.2-3.3.1-4.8.7l-.4.4h.7c1.1-.2 2.2-.2 3.3-.3 1.7-.1 3.4-.1 5.1-.2 3.3 0 6.6.5 9.9.8 3.7.4 17.2 2.1 20.3 2.5 2.9.2 5.8.7 8.7 1.4 3 .7 6 1.4 9.1 2 .7.3 1.3.6 2.1.7.4 0 1.1.1.9.7-.4 1.7-.9 3.3-1.2 5s-.1 3.5 0 5.2c-7.2-.4-14.4-.7-21.5-1.1-6.8-.5-13.6-.9-20.4-.9-3.7-.2-7.3-.1-11-.1-.9 0-1.9.1-2.9.1-3.3.1-6.6.5-10 .8-3.3.3-6.6.3-9.9.8-3.1.4-6.2 1.1-9.4 1.6-3 .5-6 1.2-9 1.6-3.3.5-6.6.9-9.9 1.3-3.2.4-6.3.9-9.5 1.7-2.1.5-4.1.9-6.2 1.3-1.5.4-3.1.7-4.6 1.1-2.4.7-4.8 1.4-7.1 2.3-2.9 1-5.9 1.7-8.9 2.3-2.9.6-5.8 1.3-8.8 1.7-3.2.6-6.4 1-9.4 2-2.2.6-4.6 1.1-6.3 2.6-.7-1.4-1.5-2.6-2.2-4-.4-.8-.9-1.5-1.3-2.3-.5-1.2-1.2-2.2-2-3.2 1.3-.6 2.7-1.3 4-2 2.1-1 4.5-1.3 6.6-2.2 2.4-1 4.9-1.9 7.2-3 1.4-.6 2.9-1.2 4.2-1.8 2.5-1.1 5-2 7.6-2.9 4.5-1.3 9-2.4 13.5-3.5 4-.9 8-2 12-2.9 1.4-.3 2.8-.8 4.2-1 1.7-.3 3.3-.5 5-.9v-.4c-.3 0-.6-.1-.9-.1-1.7.1-3.4.4-5 .8-2.9.7-5.8 1.2-8.6 2-5.2 1.3-10.4 2.5-15.6 3.8-2.2.7-4.5 1.2-6.7 2.1-2.6.9-5.2 2-7.7 3.2-1.8.7-3.6 1.6-5.4 2.3-1.2.5-2.5 1-3.7 1.5-2.6 1.1-5.4 1.6-7.9 2.9-1.1.5-2.1 1.1-3.1 1.7-.5-1.1-1.4-2-2.4-2.7-.3-.2-.6-.4-.9-.4-.2.1-.4.2-.7.4.5.5 1.2.9 1.7 1.4 1.7 1.8 2.9 4 4.2 6 .7 1 1.2 2.2 1.8 3.3.7 1.2 1.3 2.3 1.9 3.5.6 1.3 1 2.7 1.5 4-2.5-.7-4.9-1.5-7.4-1.7-1.7-.3-3.4-.5-5.2-.5s-3.6.2-5.4.5c-.9.2-1.9.5-2.7 1-.3.1-.4.4-.4.7 0 1.1.2 1.2.3 1.1z"/></g></svg>