<svg xml:space="preserve" xmlns:xlink="http://www.w3.org/1999/xlink" enable-background="new 0 0 180 180" viewBox="0 0 180 180" xmlns="http://www.w3.org/2000/svg"><defs><path id="a" d="M0 0h180v180H0z"/></defs><use xlink:href="#a" fill="#713de2" overflow="visible"/><clipPath id="b"><use xlink:href="#a" overflow="visible"/></clipPath><g clip-path="url(#b)"><path fill="#ceb68b" d="M81.5 19.3c1-.3 2-.4 3-.3 1.8.1 3.6.4 5.3 1 2.8 1 5.4 2.3 7.8 4.1.7.5 1.3 1.1 1.7 1.8.3-.9 1.1-1.5 2-1.6 2-.2 4 .5 5.8 1.5 1.4.9 2.8 2 3.8 3.3 1.3 1.5 2.2 3.3 3 5.1.6 1.4 1.1 3 1.4 4.5.1.7.1 1.4.1 2.1 0 .5-.3 1-.4 1.5.1.3.3.6.5.8.7.8 1.3 1.5 2 2.3 1.5 1.6 2.9 3.4 4.1 5.3.4.6.9 1.1 1.5 1.5 1.1.8 1.8 1.9 2.3 3.1.6 1.1 1.3 2.1 1.7 3.3.5 1.5.9 3.1.8 4.7 0 1.2 0 2.5-.1 3.7-.2 1.8-.8 3.5-.9 5.2 0 1.3-.1 2.6-.1 3.9-.2 2.1-.4 4.2-.9 6.3-.2 1.1-.7 2.1-.7 3.2.2 1 .8 1.8 1.2 2.7.7 1.6.6 3.3.2 5-.6 2.2-1.8 4.2-3.1 6-1.2 1.7-2.8 3.2-4.2 4.7-1.4 1.3-2.7 2.6-4.2 3.7-1 .7-2 1.3-3.1 1.8-1.7.8-3.4 1.8-5.2 2.4-1.5.5-3.1.9-4.6 1.3-3.5.7-7.1 1-10.6.8-3.3-.1-6.6-.3-9.9-1-3.1-.6-6.1-1.5-8.9-2.9-1.6-.8-3.2-1.7-4.7-2.8-1.6-1.1-3-2.4-4.4-3.7-1.6-1.6-3.1-3.2-4.2-5.2-1.1-1.9-2-4.1-2.1-6.3 0-1.3 0-2.6-.1-3.9-.2-1.9-.5-3.7-.8-5.6-.5-2.5-.9-4.9-1.2-7.4-.1-1-.1-1.9-.1-2.9.1-2.1.1-4.2.8-6.2.3-.9.8-1.7 1.3-2.5.8-1.3 2-2.2 3.1-3.2 1-.9 2.1-1.6 3-2.6-1.6-.9-3.2-1.8-4.4-3.1-1.1-1.2-1.9-2.6-2.6-4.1-.5-1.3-.9-2.7-.5-4 .5-2 1.7-3.8 3.1-5.2 1-1 2.2-1.9 3.4-2.6.9-.5 2-.9 3.1-.9-.4-.8-.7-1.6-.8-2.4-.3-3.1.9-6.4 3.1-8.6 1-.9 2.1-1.5 3.4-2 1.7-.7 3.5-1.1 5.4-1.4.9-.1 1.7 0 2.6.1-.1-.9-.1-1.9.4-2.8.3-.6 1.1-1.2 1.9-1.5z"/><path fill="#fbbb9e" d="M15.7 230.3h153c-.2-1.8-.4-3.7-.7-5.5-.3-2-.6-4-1-5.9-.3-1.5-.7-2.9-1.1-4.4-.4-1.4-1-2.7-1.6-4.1-.4-1-.9-1.9-1.4-2.8-1-1.9-2.1-3.7-3.4-5.4-1-1.5-2.1-2.9-3.2-4.3-.9-1.1-1.8-2.1-2.7-3.1-1.3-1.3-2.5-2.7-3.8-4-1.5-1.5-3-3-4.5-4.6-1.9-1.9-3.7-3.9-5.6-5.8-1.2-1.2-2.4-2.3-3.6-3.5-1-.9-2.1-1.7-3.1-2.6-1.6-1.4-3.3-2.6-4.8-4.1-.6-.6-1.2-1.2-1.8-1.7-1.1-.9-2.3-1.6-3.4-2.4-.6-.4-1.4-.7-2.2-.6-.3.1-.6.3-1 .3-4.3.5-8.6 1.2-12.8 1.7-3.3.4-6.5.7-9.8 1-6 .6-12 1-18 1.2-1.6.1-3.1 0-4.7 0-1.1-.1-2.2 0-3.3-.1-1.9-.1-3.8 0-5.6.1-2.8.3-5.8 0-8.5.8-.4.1-.9.4-1.3.2-.5-.2-.9 0-1.3.2-.8.3-1.5.8-2.2 1.3-1.9 1.3-3.9 2.5-5.8 3.8-1.8 1.3-3.4 2.7-5.2 4a48.1 48.1 0 0 0-4.8 4.2c-1.6 1.6-3.3 3.2-4.9 4.8-1.5 1.6-3 3.3-4.3 5-1.5 1.8-3 3.6-4.3 5.6-1.1 1.7-2.2 3.5-2.9 5.4-.9 2.2-1.6 4.5-2.2 6.8-.6 2.4-1.2 4.9-1.5 7.4-.2 1.6-.4 3.2-.5 4.8-.1 1.3-.1 2.6-.1 3.9 0 .8 0 1.6-.1 2.4z"/><path fill="#f2844f" d="M80.6 56.9c1-.5 2.1-.8 3.2-.8.7 0 1.3.2 2 .3.9.2 1.6.7 2.3 1.2.9.7 1.9 1.2 2.8 1.8 1.2.9 2.8 1.1 4.3 1.2.2 0 .3.1.4.1 0 .1-.1.2-.1.3.6.3 1.2.6 1.8 1 .9.5 2 .6 2.9 0 1.3-.8 2-2.2 3.2-3.1.9-.7 2.1-.9 3.3-.9.7 0 1.4.3 2.1.6.9.4 1.8.8 2.5 1.4.8.8 1.5 1.7 1.9 2.8.7 1.9.5 3.9.9 5.9.3 1.8.8 3.7 2 5 1 1.2 2.2 2.2 3 3.6.8 1.3 1.3 2.8 1.4 4.4-.1 1-.3 2-.4 2.9-.2 1.6.4 3.1.6 4.6.2 1.3.2 2.6.3 4-.5 3.6-.3 7.2-.6 10.7 0 1.3-.1 2.6-.2 3.9-.2 1.5-.2 2.9-.4 4.4-.1.3 0 .7 0 1-.1.8-.4 1.5-.7 2.3-.9 2.5-2.5 4.7-3.8 7-.7 1.1-1.3 2.3-2.2 3.3-.2.3-.4.6-.6.8-.4.3-.7.8-.9 1.2-1.3 1.9-2.7 3.8-4.2 5.6-1.2 1.7-2.7 3.3-4.4 4.6-1.8 1.4-3.7 2.9-5.8 3.7-.7.3-1.4.3-2.1.4-1.1.1-2.2.3-3.3.2-1.7 0-3.4-.2-5.1-.3-1.3-.1-2.5-.5-3.7-.8-1.4-.3-2.7-1.2-3.8-2-1.7-1.2-3.3-2.6-4.9-4-.8-.6-1.4-1.4-2.1-2.1-1.8-1.9-3.6-3.8-5.3-5.7-.2-.1-.3-.4-.6-.3h-.1c-.5-1.1-1.4-2-2-3.1-.9-1.6-1.6-3.4-2.2-5.1-.7-1.9-1-3.9-1.2-5.9.2-.8.2-1.7.3-2.6.3-2.2.5-4.4.5-6.6v-5.9c0-1.8-.2-3.5-.3-5.3l-.3-2.7c0 .1-.1.3-.1.4-.1-1.9.1-3.8.3-5.7.4-2.9 1.2-5.8 1.2-8.7.1-1.1.1-2.1.4-3.2.1-.5.5-1 .9-1.2 1.1-.6 2.3-.8 3.4-1.2 1.5-.6 2.9-1.9 3.4-3.5.5-1.3.9-2.7 1.6-3.9.6-1 1.2-2 2-2.7.5-.4 1.1-.5 1.7-.8 1.6-.3 3.1-1.6 4.8-2.5z"/><path fill="#ee5e2e" d="M128.4 87c1.3-.2 2.7.4 3.7 1.2 1.2 1 1.5 2.6 1.8 4 .3 2.9.1 6-1 8.7-.6 1.7-1.6 3.2-2.7 4.6-1.4 1.8-3.2 3.3-5 4.8-1.4 1.1-3 2.2-4.7 2.7-.2.1-.5.1-.7.3v-1c.2-1.5.2-2.9.4-4.4.1-1.3.2-2.6.2-3.9.3-3.6 0-7.2.6-10.7.1-.3.3-.6.5-.9.9-1.3 1.8-2.5 3-3.6 1.1-.8 2.4-1.6 3.9-1.8zm-79.5 2.1c1.3-1.5 3.5-2.3 5.4-1.8 1 .2 1.9.8 2.7 1.3.7.4 1.4.9 2 1.5.6.6 1.3 1.1 1.7 1.9 0-.4-.1-.8-.1-1.3 0-.1.1-.3.1-.4.2.9.3 1.8.3 2.7.1 1.8.3 3.5.3 5.3v5.9c.1 2.2-.2 4.4-.5 6.6-.1.9-.1 1.7-.3 2.6-.1-.7-.2-1.3-.3-2-1.2 0-2.4-.5-3.4-1-1.2-.6-2.2-1.3-3.2-2.2-1.1-1-2-2.1-3-3.3-1.2-1.5-2.2-3.3-3-5.1-.4-.9-.7-2-.9-3-.2-.9-.1-1.9 0-2.8.3-1.8 1-3.5 2.2-4.9zm46 29c.7-.4 1.3-.9 2.1-.9.4.1.3.6.2.9-.8 1.3-1.6 2.5-2.8 3.5-.8.8-1.7 1.7-2.9 2-.5.1-.9-.4-1.3-.6-.7-.4-1-1.2-1.5-1.8-.8-1-1.4-2.1-2-3.2-.1-.2 0-.5 0-.7.6-.1 1.2.2 1.7.4 1.3.5 2.6 1.1 3.9 1.4 1 .2 1.8-.6 2.6-1zm16.6 10c.3-.4.5-.9.9-1.2.1.7.1 1.4.1 2-.5.9-1.2 1.8-1.8 2.6-1.1 1.7-6.2 9.3-7.6 11.5-1.2 2-2.6 3.8-4.1 5.6-1.1 1.4-2.4 2.7-3.5 4.1-.8 1-1.8 1.8-2.8 2.6-1.9 1.5-4 2.6-6.4 2.9-1.1.2-2.1.1-3.2.1-2.2 0-4.4-.5-6.6-1-1.4-.5-2.9-.8-4.3-1.2-1.3-.2-2.6-.3-3.9-.2-.8.1-1.6.2-2.4.4 1.3-2.6 1.7-5.6 2.1-8.5.2-1.5.2-3.1.2-4.6 0-2.7-.1-5.4-.4-8.1-.4-2.6-.4-5.4-1.6-7.8.2 0 .4.2.6.3 1.7 1.9 3.5 3.8 5.3 5.7.7.7 1.3 1.5 2.1 2.1 1.6 1.4 3.2 2.8 4.9 4 1.2.9 2.4 1.7 3.8 2 1.2.3 2.4.7 3.7.8 1.7.1 3.4.3 5.1.3 1.1 0 2.2-.1 3.3-.2.7-.1 1.5-.1 2.1-.4 2.2-.9 4-2.3 5.8-3.7 1.7-1.3 3.2-2.8 4.4-4.6 1.5-1.7 2.9-3.5 4.2-5.5z"/><path fill="#f2844f" d="M110.7 131.6c.6-.9 1.3-1.7 1.8-2.6 0 3.1-.1 6.1-.1 9.2v6.1c.2 1.7.3 3.4.7 5.1.4 1.9 1 3.7 1.7 5.5.7 1.5 1.5 2.9 2.3 4.3.4.8.9 1.5 1.4 2.3.7 1.2 1.5 2.4 2.3 3.5.6.8 1.4 1.4 2 2.2.2.3.6.6.5 1.1-.1.1-.2.1-.3.2.1 1.1-.1 2.2-.3 3.3-.3 1.5-.8 2.9-1.2 4.4-.6 2.3-1.5 4.5-2.2 6.7-.8 2.4-1.6 4.8-2.5 7.2-2.7 7-5.8 13.9-9.4 20.4-1.2 2.2-2.6 4.4-4 6.5-1.4 2.2-2.9 4.3-4.2 6.5-.6 1.1-1.3 2.1-2.1 3.1-.6.8-1.2 1.6-2 2.2-.4.1-.9.2-1.3-.2-1.6-1.2-3.2-2.5-4.6-4-1.7-1.9-3.5-3.6-5.2-5.4-1.4-1.5-2.7-3.2-4-4.8-1.6-2.1-3.4-4.1-5.1-6.2-1.2-1.5-2.4-3-3.7-4.4-1.3-1.5-2.4-3.1-3.6-4.7-1.3-1.9-2.6-3.8-3.7-5.8-1.3-2.1-2.5-4.3-3.8-6.5-.8-1.5-1.8-3-2.6-4.5-1-1.9-1.8-3.9-2.6-5.9-.4-1.1-.9-2.2-1.2-3.4-.1-.5-.2-1-.2-1.5.2-.4.6-.6 1-1 1.5-1.6 3-3 4.4-4.6l2.4-2.7c.9-1.1 1.7-2.2 2.5-3.4.8-1 1.3-2.1 1.9-3.3.8-.1 1.6-.3 2.4-.4 1.3-.2 2.6-.1 3.9.2 1.5.3 2.9.7 4.3 1.2 2.2.5 4.4 1.1 6.6 1 1.1 0 2.1 0 3.2-.1 2.4-.3 4.5-1.4 6.4-2.9.9-.9 2-1.6 2.8-2.6 1.2-1.4 2.4-2.6 3.5-4.1 1.4-1.8 2.8-3.6 4.1-5.6 1.4-2.2 2.9-4.3 4.3-6.5 1.3-1.8 2.4-3.4 3.5-5.1z"/><path fill="#ee5e2e" d="M95 129.7c.2-.1.5-.1.7-.1v.3c-.5.2-.6.8-1.1 1.1-.7.5-1.4 1.1-2.3 1.3-1.1.1-2.2.3-3.3.1-.4-.2-.5-.8-.9-1-.5-.4-1-.9-1.5-1.4-.1-.1-.1-.4.1-.3.6.1 1.2.3 1.8.4.8.1 1.7.2 2.6.2 1.4.1 2.8 0 3.9-.6z"/><path fill="#d0b991" d="M104.9 22c.8-.5 1.9-.4 2.6.2.7.6.6 1.8.1 2.5-.8 1.1-2.4 1.3-3.6.7-.2-.1-.2-.3-.2-.4 1 .1 2 .3 2.9-.4.5-.4.9-1.4.4-1.9-.5-.4-1.4-.5-1.9 0-.4.4 0 1.4.6 1.1.5-.3-.1-.7-.2-1 .4 0 .9.1 1 .5.4.8-.7 1.5-1.4 1.2-1-.4-1.1-1.9-.3-2.5z"/><path fill="#d2bc95" d="M100.1 22.1c.9-.2 2 .5 1.9 1.5-.1.8-.6 1.8-1.5 1.8.2-.7.7-1.2.8-1.8.1-.7-.7-1.2-1.3-.9-.4.2-.7.7-.4 1 .2.3.6.2 1 .2-.3.6-1.2.6-1.5 0-.5-.7.2-1.6 1-1.8z"/><path fill="#cfb88e" d="M126.3 55.1c-.1-1.3 1.1-2.5 2.4-2.4 1 .1 1.8.9 1.9 1.9.1 1.1-.3 2.4-1.3 3-.9.7-2.2.7-3.3.2-.4-.2-.8-.6-.8-1.1.4.1.7.4 1.1.6.7.3 1.6.3 2.3-.2.8-.5 1.2-1.4 1.1-2.3-.1-.8-.8-1.4-1.6-1.2-.7.2-1.4 1-1 1.7.1.4.8.6 1 .1.2-.5-.4-.6-.7-.9.1-.2.3-.3.5-.3.5.1.9.5.9 1 0 .6-.5 1.1-1.1 1.1-.7.2-1.4-.5-1.4-1.2zm-69.5 3.4c1-.8 2.7-.3 3.2 1 .3.7.1 1.5-.2 2.2-.2.4-.5.9-1.1 1 .2-.8.7-1.5.7-2.4 0-1-1.4-1.7-2.2-1.1-.6.5-1 1.2-1 2 0 .5.7.8 1.1.8.5-.1.8-.6.9-1 0-.2.1-.5-.2-.6-.3 0-.6.1-.8.1.2-.2.3-.5.6-.6.5-.1 1 .2 1.1.7.1.8-.4 1.7-1.2 2-.6.2-1.3 0-1.7-.5-.4-.4-.5-1.1-.3-1.7 0-.7.4-1.4 1.1-1.9zm51.8 2.8c.8-.8 1.9-1.4 3.1-1.3.3 0 .3.3.4.5-1 0-2 .3-2.7 1-.5.4-.8 1.2-.5 1.8.2.4.7.8 1.2.7.3-.3.5-.9.1-1.3-.3-.3-.8-.2-1.2-.1.1-.2.1-.4.4-.5.6-.2 1.4 0 1.7.6.2.7.1 1.6-.6 1.9-.8.3-1.8-.2-2.2-1-.5-.7-.3-1.7.3-2.3z"/><path fill="#d1bb93" d="M75.8 62.1c.2-.8 1.2-1.3 2-1 .8.2 1.2 1.2 1.1 2-.1.8-.6 1.6-1.4 1.9-1.1.5-2.5.3-3.4-.4-.6-.5-.8-1.4-.7-2.1.1-.1.2-.1.4-.2 0 .4 0 .8.1 1.2.6 1.5 2.9 1.7 3.9.6.5-.6.6-1.6-.1-2.1-.7-.4-1.6.3-1.6 1 0 .3.2.6.3.9-.7-.2-.9-1.2-.6-1.8z"/><path fill="#d0b991" d="M98.1 62c.6 0 1.2.2 1.9.2 1.6.1 3.1 1.4 3.2 3 0 1-.7 2.1-1.8 2.3-.8.1-1.9 0-2.4-.8-.4-.7.1-1.6.7-2.1.3-.4.8-.5 1.3-.5v.4c-.7.1-1.3.7-1.6 1.3-.2.3-.1.7.2.9.7.5 1.8.5 2.3-.2.4-.4.6-1.1.4-1.6-.4-1.1-1.6-1.9-2.7-2.1-.5 0-1.2-.2-1.5-.8z"/><path fill="#fcb796" d="M72.1 71.7c.5-.3 1.1-.7 1.7-.8v.3c-.6.4-1.3.8-1.9 1.3-.9.7-1.7 1.5-2.6 2.2-.2.2-.4.3-.7.3 0-.5.3-.9.7-1.3.9-.7 1.8-1.4 2.8-2z"/><path fill="#98835e" d="M85.4 27.1c.4.4.5.9 1 1.2-.2-.9-.8-1.5-1.4-2.1-1.3-1.4-3.1-2.2-5-2.5-.3-.1-.6.1-.8.2.5.3 1 .3 1.5.4 1.7.6 3.5 1.3 4.7 2.8zm4-2.7c.8-.1 1.6.1 2.2.5.3.2.5.7.9.6-.2-.6-.5-1-1.1-1.3-.9-.5-2.2-.8-3.1-.2-.5.3-1.1.7-.9 1.4.7-.4 1.3-.9 2-1zm11.6 6.7c-.1.4-.1.8-.1 1.2h.3c.1-.8.2-1.7 0-2.4 0-1-.1-1.9-.5-2.8-.3-.7-.8-1.4-1.6-1.4.1.6.7.9 1 1.5.6 1.1.6 2.5.9 3.9zm-19-1.9c-.7.1-1.4.7-1.5 1.5 0 .2.1.3.3.4.4-.4.7-.8 1.2-1 .9-.4 2-.2 2.9-.1v-.3c-.9-.6-2-.7-2.9-.5zm24.7 1.7c.5-.1 1.1 0 1.6.2s.8.6 1.3.7c-.1-.7-.8-1.1-1.4-1.3-.8-.3-1.9-.4-2.5.3-.2.2-.2.5-.2.8.4-.3.7-.6 1.2-.7zm-15.5.2c-.6.3-1.3.8-1.2 1.6.4-.3.7-.6 1.1-.8.6-.3 1.3-.4 2-.3.7.1 1.5.4 2 1.1.1.2.2.3.4.4.1-.2.1-.3.2-.5h-.1c-.3-.5-.7-.9-1.3-1.2-1-.5-2.2-.7-3.1-.3zm-21.3 3.7c.2-.7.5-1.3 1-1.8.8-.9 2.2-1.2 3.4-1 .4.1.8.3 1.2.2-.5-.8-1.5-.9-2.3-.9-1 0-1.9.4-2.6 1.1-.7.7-1.3 1.7-1 2.7.1-.1.3-.1.3-.3zm34.8.7c.9-.4 2-.1 2.9.4.4.2.7.6 1.1.9 0-.2 0-.5-.2-.6-.5-.7-1.4-1.1-2.2-1.3-.9-.3-2 0-2.7.8-.3.2-.3.6-.2 1 .3-.6.7-1.1 1.3-1.2zm-25.5 1.9c.4-1.1 1.6-1.8 2.8-1.7 1 .1 1.9.6 2.4 1.5.1 0 .2 0 .3.1 0-.3-.1-.5-.3-.8-.7-.8-1.7-1.3-2.7-1.5-1.4-.1-2.9 1-2.7 2.5 0-.1.1-.1.2-.1zm-11.7 1.3c1.2.3 2.4.8 3.2 1.8 0 .3.2.6.4.9.2-.5-.1-1-.5-1.4-.6-.7-1.4-1.2-2.3-1.5-1-.4-2.1-.5-3.2-.1 0 .1 0 .2-.1.3 1-.1 1.8-.2 2.5 0zm23.6.7c-.4.3-.8.9-.5 1.4.7-.8 1.6-1.5 2.7-1.5.5-.1 1 .3 1.4.5 0-.5-.5-.9-.9-1-.9-.2-2-.1-2.7.6zm-16.5 1.5h.2c.4-.8 1.6-.9 2.3-.6 0-.2.1-.4-.1-.5-.7-.4-1.6-.3-2.2.1-.3.3-.3.7-.2 1zm39.4 1.6c.2.1.5.2.7.2v-.4c-.1 0-.3-.1-.4-.1-.8-.7-1.8-1.2-2.8-1.4-1.6-.2-3.2-.1-4.6.7-.5.2-.9.4-1.5.4-1.4 0-2.8-.6-4.2-.9-1.5-.6-3.2-.4-4.7.2-1 .3-1.8.9-2.7 1.5-.7.5-1.4 1.1-2.2 1.3-.9.3-1.9.4-2.8.2-1.5-.3-2.8-1.3-4.3-1.6-1.5-.3-3-.2-4.4.4-1.2.5-2.3 1-3.3 1.9-.7.6-1.3 1.3-1.9 2-.5.6-1.1 1-1.9 1.3-1.3.5-2.6 1-3.8 1.6-1.4.7-2.5 1.9-3.1 3.3-.7 1-.8 2.3-1.5 3.2-.4.6-1 1-1.2 1.7.4-.1.8-.5 1.1-.8.9-1 1.3-2.3 1.7-3.5.5-.7 1-1.5 1.6-2.2 1.3-1.2 2.9-1.7 4.5-2.4.7-.3 1.5-.6 2.1-1 .7-.5 1.2-1.2 1.8-1.8.7-.7 1.3-1.3 2.1-1.8 1.5-.9 3.3-1.6 5.1-1.4 2 0 3.6 1.5 5.6 1.7 1.4.1 2.9-.1 4.1-.9 1.2-.8 2.3-1.7 3.7-2.2 1.3-.4 2.7-.6 4-.2 1.6.5 3.2 1.2 5 1 .7-.1 1.3-.5 2-.7 1-.4 2.1-.5 3.2-.4.6 0 1.2.4 1.8.6.5.1.9.3 1.2.5z"/><path fill="#98835e" d="M105.9 52c0-.7.5-1.2.7-1.8.3-1 .3-2.2-.5-2.9-.7-.7-1.8-.6-2.4-1.4-.7-.8-.5-1.9-1-2.8-.1-.2-.3-.2-.5-.2.1.7.3 1.3.3 2 .1.9.7 1.8 1.6 2.2.6.3 1.4.4 1.8 1.1.4.8.2 1.9-.2 2.7-.3.5-.4 1.1-.2 1.7.4.8 1.4 1.3 1.7 2.2.2.5 0 1-.2 1.5-.2.2-.4.4-.4.7.3-.1.6-.3.8-.6.6-.8.6-2-.1-2.8-.5-.5-1.2-.9-1.4-1.6zm-8.6-1.6c-.4-.3-1.1-.5-1.1-1.1 0-.9.2-1.7 0-2.6-.3-1.2-1.3-2.2-2.6-2.2-.2.1-.5.1-.7.3.1.1.3.2.4.3 1 .1 1.9 1 2.1 1.9.3.9 0 1.8.2 2.8.2.8 1.1 1 1.6 1.5 1 .8 1.3 2.1 1 3.3-.3.9-.2 1.9.4 2.6.1.1.3.3.4.1-.1-.4-.4-.8-.4-1.2-.1-.9.4-1.7.4-2.6.2-1.4-.6-2.5-1.7-3.1zm16.7 2.1c.1-.6.8-1 .9-1.7.3-1.1.2-2.4-.5-3.4-.6-.8-1.5-1.3-2-2.2.1-.4.2-.8.2-1.1-.5.3-.8 1-.5 1.5.3.9 1.2 1.4 1.8 2.2.6.8.7 1.9.5 2.9-.2.7-.9 1.1-.9 1.8-.1.6.3 1.1.7 1.6.9 1.1 1.3 2.5 1.1 3.9-.2.8-.9 1.4-1.4 2.1-.1.2-.3.3-.3.5.2.4.5 0 .7-.2.7-.8 1.8-1.4 1.9-2.6.1-1.4-.3-2.9-1.3-4-.4-.4-.9-.7-.9-1.3zm-42-7.4c-.9.2-1.7.9-1.7 1.9h.3c.3-.4.7-.8 1.1-1.1.7-.4 1.5-.3 2.2-.3v-.3c-.6-.3-1.3-.3-1.9-.2zm18.2 8.3c-.2-1-1.3-1.6-1.6-2.6-.2-.8.1-1.7.1-2.6-.1-1-.7-1.8-1.5-2.3-.1.1-.2.2-.1.4.3.5.7 1 .8 1.6.2 1-.3 2.1 0 3.2.2.7.7 1.2 1.2 1.7.7.7.5 1.8 1.1 2.6.3.7.6 1.5 1.3 1.9-.3-.7-.7-1.3-1-2 0-.7-.2-1.3-.3-1.9zm-29.9-4.3v-.6c.2-.4.4-.7.7-1 .8-.7 1.8-1.1 2.9-1.3.4-.1.9.1 1.3.2-.1-.3-.2-.5-.5-.6-.8-.2-1.6 0-2.4.2-1 .3-1.8 1-2.2 2-.1.4-.1.7-.1 1.1h.3zM73.4 51c-.3.8.1 1.6.4 2.3.4 1-.1 2-.1 3 0 .7.2 1.4.6 2 .3.2.6.4.9.2-.2-.2-.3-.3-.6-.4-.3-.5-.4-1-.4-1.6 0-1 .4-1.9.3-2.9-.1-.7-.6-1.3-.7-2 0-.8.7-1.2.8-2-.6.2-.9.9-1.2 1.4zm9.3 1.1c-.3-1-1.4-1.5-1.6-2.6-.1-1 .5-2 .4-3.1 0-.6-.3-1.2-.9-1.4l-.2.2c.3.4.5.7.5 1.2 0 1.1-.6 2.1-.4 3.3.3 1.2 1.7 1.7 1.9 3 0 .6 0 1.1.2 1.7.1 0 .2.1.3.1-.1-.8 0-1.6-.2-2.4zm37.8 11c-.2-.6-.7-1.3-.3-1.9.3-.6.8-1 1.1-1.5.4-.5.6-1.2.6-1.9 0-1-.1-2.1-.6-3-.4-.8-1-1.5-1.3-2.4 0-.3-.1-.6-.1-.9-.4.4-.4 1-.1 1.5.3 1.1 1.1 2 1.3 3.1.1.8.2 1.6-.1 2.4-.3 1.1-1.3 1.7-1.6 2.8-.2.8.2 1.5.4 2.3.4 1.2.2 2.4-.3 3.5-.5 1-1.3 1.6-2 2.5-.4.5-.9 1-.7 1.7.3-.4.7-.8.8-1.2.8-.8 1.8-1.5 2.4-2.4.9-1.3 1.1-3.1.5-4.6zM69.7 53c-.2 0-.4 0-.6.2-1.1.8-1.4 2.3-1.1 3.5.1.5.4 1.1.4 1.6 0 .3-.2.5-.4.7-.5.5-1 1.1-1.1 1.8-.3 1.2-.1 2.4.5 3.5.1.4.2.9.6 1.2.1-.4 0-.9-.2-1.3-.2-1.1-.7-2.3-.2-3.4.3-.8 1.1-1.2 1.5-1.9.2-.7-.1-1.4-.3-2.1-.2-.8-.2-1.6.2-2.3.1-.6.6-.9.7-1.5zm-6.6 8.4c-.2-.1-.4-.1-.5.1-.7.8-1.4 1.6-1.4 2.7.1 1.2 1.1 2 1.3 3.2.1.9-.8 1.6-.6 2.5.2.7.5 1.5 1.2 1.9-.1-.8-.7-1.4-.6-2.2.1-.6.6-1.1.7-1.8.2-1.4-1.2-2.4-1.3-3.7 0-1 1-1.6 1.2-2.7zm63 3.8c0-.9-.2-1.7-.5-2.6v-1.3c-.4.3-.5.9-.3 1.3.1.7.3 1.4.3 2.2 0 .9 0 1.8-.3 2.7-.5 1.3-2 1.7-2.5 3-.5 1.2.3 2.6-.1 3.8-.3 1.1-1.2 2-2.1 2.8 0 .1.1.2.1.2.8-.4 1.5-1.1 2.1-1.8.5-.6.7-1.4.7-2.1 0-.9-.4-1.7-.2-2.6.5-1.2 1.9-1.6 2.5-2.7.4-.9.3-1.9.3-2.9zM59.7 76.4c-.2-.8.1-1.6-.1-2.4-.3-.9-1.1-1.4-1.4-2.2-.4-.9-.3-1.9 0-2.8.2-.5.5-.9.7-1.3-.5.1-.8.5-1.1.9-.5.8-.6 1.9-.4 2.8.2.9.8 1.6 1.4 2.3.7.9 0 2.1.4 3.1.4 1.1.9 2.3 2 2.9.1-.4-.2-.7-.4-1-.6-.8-.9-1.6-1.1-2.3zm65.4-.7c-.2.7-.4 1.4-.8 2-.4.7-1 1.2-1.5 1.8-.4.4-.6 1-.8 1.5-.1.5-.3 1.1-.4 1.6.5-.4.6-1 .8-1.6.3-.7.9-1.3 1.4-1.8 1-.9 1.7-2.2 1.6-3.6-.1.1-.2.1-.3.1zm-1.4 8.3c-.2 0-.2.2-.3.3-.2.4-.4.9-.8 1.2-.7.5-1.3 1.1-1.8 1.9-.1.2-.2.5-.2.7.3.3.5-.1.7-.4.5-.7 1.2-1.2 1.8-1.7.6-.4.9-1.2.9-1.9.1-.1-.1-.1-.3-.1z"/><path fill="#b65a35" d="M104 89.3c1.4-.4 2.9-.6 4.3-.5 1.1.1 2 .5 3 .8 1.3.4 2.5.9 3.7 1.4.3.1.5.4.7.6-.7 0-1.3 0-2 .1-1.3-.1-2.5 0-3.8 0-1.8 0-3.5.3-5.2.7-1.5.3-2.9.6-4.4.9-.5.1-1.1.3-1.6.2.1-.4.2-.7.5-1 1.4-1.3 2.9-2.6 4.8-3.2z"/><path fill="#fdd1bc" d="M52.5 90.3c.4-.3.9-.1 1.3 0 1 .3 2.1.6 2.6 1.6-.4-.2-.8-.5-1.2-.7-.8-.4-1.7-.6-2.7-.9z"/><path fill="#b85e3b" d="M97.4 94.4c.1-.2.4-.1.5-.1-.1.8-.7 1.3-1 2-1 1.8-1.6 3.9-1.7 6-.2 2.1-.3 4.1-.2 6.2.1 1.4 0 2.8.1 4.2-.2-1.3-.5-2.6-.7-3.9-.3-1.6-.1-3.3 0-4.9.1-1.9.4-3.9 1-5.7.5-1.4 1.2-2.6 2-3.8z"/><path fill="#150f0c" d="M73.2 97.5c.5-.1 1.1-.1 1.5.3.8.8.8 2.3.1 3.1-.4.4-1.2.6-1.8.3-.3-.2-.5-.4-.6-.7-.2-.7-.1-1.5.1-2.2 0-.4.3-.7.7-.8zm34 .3c.4-.1 1-.1 1.3.3.4.4.5 1.1.5 1.6 0 .7-.3 1.5-1 1.8-.6.3-1.4 0-1.7-.5-.4-.7-.4-1.5-.1-2.2.2-.6.6-1 1-1z"/><path fill="#fcb796" d="M70.1 101.1c.2-.1.5-.2.8 0 .7.5 1.2 1.2 1.9 1.7.4.3 1 .6 1.1 1.1-.8-.1-1.4-.7-2.1-1.1-.7-.5-1.4-.9-1.7-1.7z"/><path fill="#b95d38" d="M111.5 102.6c-.3.1-.5.3-.7.6-1.5 1.2-3.5 1.9-5.3 1.6-.8-.1-1.6-.5-2.2-1.1 0 0 .1-.1.1-.2h-.4c0 .2.1.4.1.6 1 1.4 3 1.7 4.6 1.3 1.4-.3 2.6-1.1 3.6-2.1.1-.2.2-.5.2-.7z"/><path fill="#cc492f" d="M128.3 93.6c-2.5 1.9-3.9 4.7-5.2 7.5-.6 1.3-1.2 2.6-1.6 3.9-.2.4-.4.8-.5 1.3.1 0 .3 0 .3.1.1-.2.2-.4.3-.7.4-1.1.9-2.2 1.4-3.3 1-2 2-4.1 3.5-5.8 1.1-1.3 2.4-2.6 4-3.4.1-.1.1-.3.2-.4-.9-.3-1.7.3-2.4.8zm-69.9 5.3c-.6-1.2-1.2-2.4-2.1-3.4-1.1-1.3-2.6-2.2-4.2-2.6-.4-.1-.8 0-1.1.2v.3c2.2.5 4.3 1.8 5.6 3.7.9 1.1 1.6 2.4 2.3 3.6.1.3.3.7.4 1h.3c-.1-.5-.2-1-.5-1.4-.2-.4-.4-.9-.7-1.4z"/><path fill="#f95939" d="M106.9 107.8c1.5-.2 3.1.4 4.3 1.3 1 .8 1.8 1.9 2.1 3.2.1.7.1 1.4 0 2.1-.2 1.7-1.2 3.4-2.7 4.4-1.3.9-2.9 1.4-4.5 1.1-1.6-.2-3.1-1.1-4.1-2.4-.8-1-1.3-2.3-1.3-3.6 0-1.9 1-3.6 2.4-4.8.7-.6 1.5-1.2 2.5-1.2.4 0 .8 0 1.3-.1zm-33.5.5c1.8 0 3.6.9 4.8 2.3.8.8 1.1 1.8 1.3 2.8.2 1.7-.4 3.5-1.7 4.7-1.4 1.4-3.5 2-5.4 1.5-1.3-.3-2.4-1.1-3.4-2-1-1-1.6-2.4-1.5-3.8.3-2.1 1.5-4.2 3.5-5.1.8-.2 1.6-.4 2.4-.4z"/><path fill="#fcb796" d="M91 111.8c1-.5 2.2-.7 3.4-.8v.4c-.8.4-1.7.5-2.5.9-.5.2-.9.5-1.4.6-.1-.6.1-.9.5-1.1z"/><path fill="#b95d38" d="M82.7 91.3c-.4-.4-.9-.7-1.5-1-.7-.4-1.4-.8-2.2-1.1-1.4-.4-2.8-.7-4.2-.5-.9.1-1.7.1-2.6.2-1.4.2-2.6.8-3.8 1.4-.8.4-1.5.9-2.2 1.5.2.1.5.2.7.3 3.2-.1 6.3-.1 9.5-.2 1.3 0 2.7.2 4 .4.9.1 1.8.4 2.7.4.3.1.6.2 1 .2 0-.2.1-.5 0-.7-.5-.3-.9-.6-1.4-.9zm-5.1 12.8c-.9.6-1.9.9-2.9 1.1-1.9.4-3.9-.2-5.4-1.4l-.3-.3c-.1.2-.1.3-.2.5h.1c.7 1.2 2.1 1.9 3.5 2.1 1.1.2 2.3-.1 3.4-.4.8-.3 1.5-.6 2.1-1.1.1-.1.1-.2.2-.4-.2-.1-.4-.1-.5-.1zm20.1 10.3c-.2-.4-.4-.8-.9-.8.1.3.4.7.5 1 .1.4.1.7.1 1.1-.1.3-.2.6-.5.9-.4.3-.7.7-1.2.9-.9.4-1.6 1.1-2.6 1.4-.5.2-1 0-1.5-.1-.7-.3-1.4-.4-2-.7-.9-.4-1.9-.7-2.8-1.2-.2-.1-.4-.3-.4-.5-.1-.4.1-.8.2-1.1 0-.1 0-.2.1-.4h-.6c-.4.7-.7 1.6-.1 2.2.9.9 2.2.9 3.3 1.3.7.3 1.5.5 2.3.8.4.2.9.3 1.4.2 1.4-.2 2.4-1.3 3.7-1.7.6-.1 1.1-.6 1.3-1.2.1-.6-.1-1.4-.3-2.1zm-6 6.5c-.3.3-.3.8-.3 1.2 0 .9-.2 1.8 0 2.6h.3c.1-1.1.3-2.1.3-3.2.1-.2.1-.6-.3-.6z"/><path fill="#f95939" d="M88 125.2c1.3-.2 2.7-.2 4-.2 2.5.2 4.8 1 7.2 1.5-1.7.2-3.4.1-5 .2-1.6 0-3.2-.1-4.8-.1-2.1.2-4.3.2-6.4-.1 1.7-.4 3.3-1 5-1.3z"/><path fill="#a43f29" d="M99.2 126.6c.6 0 1.1-.2 1.7-.1-.1.1-.2.3-.4.3-.5.2-.9.3-1.4.4-1.2.1-2.5.1-3.7.1-1.3 0-2.6 0-3.9-.1-1.6-.2-3.2-.1-4.8.1-1.6.1-3.2 0-4.8-.1-.2 0-.4-.1-.6-.2 0-.1-.1-.2-.1-.3.5-.3 1.2-.2 1.8-.2 2.1.2 4.3.2 6.4.1 1.6 0 3.2.2 4.8.1 1.7 0 3.4.2 5-.1z"/><path fill="#f95939" d="M86.7 127.4c1.6-.1 3.2-.2 4.8-.1 1.3.1 2.6.1 3.9.1 1.2 0 2.5 0 3.7-.1-.2.2-.6.4-.9.5-1.2.5-2.5 1-3.8 1.4-1.4.3-2.9.6-4.3.5-1.2-.1-2.4-.2-3.6-.5-.9-.2-1.8-.5-2.8-.8-.7-.2-1.3-.5-1.8-1 1.6-.1 3.2.1 4.8 0z"/><path fill="#fca784" d="M89.9 128c.8-.1 1.7-.3 2.5-.3-.3.5-.9.5-1.3.6-1 .2-1.9.6-2.9.5v-.3c.5-.2 1.1-.4 1.7-.5z"/><path fill="#b9613e" d="M89.4 132c1.3-.2 2.7-.1 3.9.3 0 .1 0 .3-.1.4-1.4-.3-2.9.1-4.3.1-.3 0-.6-.2-.5-.5.2-.2.7-.2 1-.3z"/><path fill="#b95d38" d="M111.1 128.8c-.8 1-1.5 2.1-2.3 3.1l-2.4 2.7c-.8.9-1.7 1.8-2.6 2.7-.5.4-1 .9-1.6 1.4-1 .8-2 1.5-3 2.1-.7.4-1.5.7-2.2 1.1-.6.1-1.1.4-1.7.4-1 0-1.9.1-2.9.2-1.1.1-2.1-.1-3.2-.1-1.7-.2-3.5-.2-5.2-.7-1.1-.3-2.1-.7-3.1-1.2-1-.6-2-1.1-2.9-1.9l-4.8-4.5c-.7-.6-1.3-1.2-2-1.8-.6-.6-1.2-1.1-1.8-1.7-.6-.7-1.3-1.4-2.1-2.1-.3-.2-.5-.5-.9-.5.7 1 1.7 1.8 2.5 2.7h.1c.6.8 1.4 1.5 2 2.3.9 1.1 2 1.9 3 2.9 1.4 1.4 2.9 2.8 4.5 3.9 2.2 1.6 4.9 2.6 7.7 2.8 1.4.1 2.8.4 4.2.4.6 0 1.1-.1 1.7-.1 1.9.1 4-.1 5.6-1 1.3-.4 2.4-1.2 3.4-1.9s1.8-1.6 2.7-2.4c.6-.5 1.2-1.1 1.8-1.7.8-.7 1.5-1.6 2.3-2.4 1-1.1 1.8-2.5 2.7-3.7.5-.8 1.1-1.5 1.4-2.4-.3.4-.6.9-.9 1.4zm-24 31c.2 1 .4 2 .9 2.9 0 0-.1.1-.1.2.2 0 .3-.1.5-.1-.1-.2-.2-.3-.2-.5-.8-2.8-.7-5.9-1.6-8.7-.1-.2-.2-.5-.4-.7-.3.3-.2.7-.1 1 .3 2 .6 4 1 5.9zm-1.8 10.6c-.5-.3-1.1-.3-1.6-.2-.5.1-1.1 0-1.5.4.8.6 1.9 0 2.7.5.9.5 1.6 1.4 2.3 2.1.6.7 1.1 1.5 1.6 2.3.1.2.3.2.5.1-.4-1.2-1.1-2.2-1.8-3.2-.7-.7-1.3-1.5-2.2-2zm15.7 1.1c-1.5.5-3.1 1-4.3 2.1-.4.4-.8.8-.9 1.4.1.2.3 0 .4-.1.7-.7 1.5-1.3 2.3-1.9.8-.5 1.6-.8 2.4-1.2.1 0 .1-.2.1-.3z"/><path fill="#fdc3a7" d="M86.8 214.6c.2 0 .4 0 .5.2.6 1 1 2.2 1.4 3.3.2.7.6 1.3.7 2-.3-.1-.5-.3-.5-.6-.5-1-.8-2.1-1.3-3.1-.4-.6-.8-1.2-.8-1.8z"/><path fill="#bc6746" d="M93.4 219.7c-.1-.3.3-.4.4-.2.3.6.4 1.2.5 1.9.3 1.9.4 3.8.6 5.7 0 .3.1.6.2.9-.1 0-.2 0-.3.1-.5-1-.5-2.1-.6-3.1-.3-1.8-.7-3.5-.8-5.3z"/><path fill="#62715b" d="M94.3 230.3c.2-.3.3-.6.5-.8.3.3.7.5 1 .8h1c.1-.1.3-.3.5-.4 1.1-1 1.9-2.2 2.7-3.4.5-.7 1-1.4 1.4-2.1.5-.6.8-1.2 1.3-1.8 1.2-1.9 2.6-3.7 3.8-5.6 1.5-2.3 3.1-4.6 4.6-7l2.7-4.5c.7-1.2 1.4-2.5 2-3.7 1.2-2.3 2.5-4.6 3.4-7.1.4-1 .8-1.9 1.2-2.9.9-2.2 1.6-4.6 2.3-6.9.9-2.8 1.8-5.7 2.5-8.6.7-2.5 1.7-5 1.4-7.6h-.5c.2 2.4-.5 4.8-1.2 7.1-.3 1.1-.5 2.1-.9 3.2-.8 2.5-1.6 4.9-2.4 7.4-.7 2.2-1.5 4.5-2.4 6.6-.6 1.2-1 2.5-1.6 3.7-.5 1.1-1 2.1-1.6 3.2-1.2 2.2-2.2 4.4-3.5 6.5-2.3 4.1-4.9 8.1-7.6 12-1.3 2-2.7 3.9-3.9 5.9-1.5 2-2.8 4.3-4.8 6-.4-.3-.7-.7-1.1-1-.3-.2-.6 0-.7.2-.2.3-.4.5-.5.9h.4zm-40.8-49.7c.6 1.3 1.2 2.7 1.8 4.1.5 1.1 1.1 2.1 1.6 3.1.4.9.9 1.8 1.5 2.7.6 1 1.3 2 2 3 1 1.6 2 3.2 3.1 4.8 1.3 1.9 2.8 3.6 4.2 5.5 1.6 2.2 3.3 4.2 4.9 6.4 1 1.4 2.2 2.6 3.3 3.9.8 1 1.6 2.2 2.4 3.2 1.4 1.9 3.1 3.6 4.8 5.3 1.2 1.3 2.6 2.4 3.8 3.7 1.4 1.5 2.8 2.9 4.4 4.1h.7c-.6-.4-1.3-.9-1.9-1.4-1.7-1.4-3.1-3-4.7-4.5-.8-.8-1.7-1.5-2.4-2.3-.7-.7-1.3-1.4-2-2.2-1.6-1.7-3-3.5-4.3-5.4-1.3-1.7-2.8-3.3-4-5-1.5-2-3.1-4-4.6-6-1.4-1.9-2.9-3.7-4.2-5.6-1.1-1.6-2.1-3.2-3.1-4.7-.7-1-1.4-1.9-2-2.9-1.1-1.7-1.9-3.5-2.8-5.3-.7-1.5-1.4-3-2-4.6-1-2.1-1.3-4.4-1.9-6.6-.1-.2-.1-.4-.3-.5-.3.1-.1.4-.1.6.4 2.1.8 4.4 1.8 6.6zm71.9 23.5c.5-.7 1-1.5.8-2.4h-.2c-.6 1.8-2.1 2.9-3.2 4.4-1.4 2-2.8 4-3.8 6.2.3.3.5-.2.7-.4 1-1.5 2-3.1 3.1-4.5.8-1.1 1.8-2.1 2.6-3.3zM50.1 212c-.1-.4-.4-.7-.7-1-1-1.2-2-2.5-3-3.7-.6-.7-1-1.5-1.4-2.4-.4-.8-.9-1.7-1.7-2.1-.1 0-.2.1-.2.1.4.4.8.9 1.1 1.4.3.7.5 1.4.9 2 .9 1.6 2.2 2.8 3.4 4.2.5.5 1 1.1 1.6 1.5zm92.1 18.3v-.6c.3-1.4.5-2.8.7-4.2.6-3 1-6.1 1.3-9.2.3-2.9-.1-5.8-.6-8.6-.1-.3-.1-.8-.4-1-.1.3-.1.7-.1 1 .1 1.5.3 3 .4 4.4.2 3.1-.2 6.2-.5 9.3-.3 2.6-.9 5.2-1.1 7.9-.1.3-.1.6-.2 1h.5zM30.9 218.4c.9 1.7 1.7 3.4 2.4 5.1.9 2.2 1.7 4.5 2.3 6.8h.4c-1.2-4.4-2.8-8.6-4.9-12.6-1.2-2.1-2.7-4-4-6-.1-.2-.3-.4-.6-.5.1.6.5 1.2.8 1.7 1.1 1.9 2.5 3.6 3.6 5.5zm97.8-1.5c-1.1 1-2.4 1.7-3.6 2.6-1.7 1.4-3.3 2.9-4.8 4.5-.2.1-.2.3-.3.6.5-.3.9-.8 1.4-1.2 1.1-1 2.3-2.1 3.5-3 .9-.7 1.9-1.2 2.9-1.9 1-.6 1.8-1.4 2.5-2.3.2-.2.2-.4.3-.7-.2 0-.4 0-.6.2-.5.4-.9.8-1.3 1.2zm15.3 13.4c.3-1.7.6-3.4 1-5.1.5-2.2 1.1-4.4 1.6-6.6.1-.4.3-.9 0-1.3-.5.5-.6 1.3-.8 1.9-.8 2.5-1.4 5.1-2 7.7-.2 1.1-.4 2.3-.4 3.4h.6zM33.5 218.1c.3.7.6 1.4.9 2 .8 2 1.4 4.1 2.1 6.1.4 1.3.9 2.7 1.2 4h.6c-.5-1.9-1.1-3.7-1.7-5.5-.7-2.3-1.7-4.5-2.7-6.7-.5-1.1-1.1-2.1-1.6-3.2-.1 0-.2-.1-.3-.1.4 1.3.9 2.4 1.5 3.4zm38.5 7.6c0-1.7 0-3.4-.4-5-.2-.5-.3-1.1-.9-1.4-.2.2 0 .5 0 .8.4 1.3.4 2.6.6 3.9.1 1.3.1 2.7.6 4h.4c-.3-.8-.3-1.5-.3-2.3zm-22.6-2.8c-.5-.7-1.1-1.4-1.7-2-.1.1-.2.2-.3.4.1.3.3.5.4.8.6.8 1.2 1.7 1.9 2.5.7 1 1.5 1.9 2.2 3 .1.2.3.2.5.2 0-.5-.4-1-.6-1.4-.9-1.2-1.6-2.4-2.4-3.5z"/></g></svg>