<svg xml:space="preserve" xmlns:xlink="http://www.w3.org/1999/xlink" enable-background="new 0 0 180 180" viewBox="0 0 180 180" xmlns="http://www.w3.org/2000/svg"><defs><path id="a" d="M0 0h180v180H0z"/></defs><use xlink:href="#a" fill="#2929cc" overflow="visible"/><clipPath id="b"><use xlink:href="#a" overflow="visible"/></clipPath><g clip-path="url(#b)"><path fill="#b1bfab" d="M90.1 38.9c1.9-.2 3.7-.1 5.6-.1 1.2.1 2.3.3 3.5.3 1.3 0 2.6.3 3.9.6 1.3.3 2.5.7 3.7 1.2 1.5.6 2.8 1.4 4 2.4 1.2.9 2.4 1.8 3.5 2.9.9.8 1.5 1.8 2.2 2.8.8 1.1 1.7 2.2 2.5 3.4 1.3 2 2.4 4.1 3 6.4.4 1.4.9 2.7 1.1 4.1.3 1.6.6 3.1.9 4.7.2 1.1.2 2.3.3 3.4v5c-.2 1.7-.3 3.3-.3 5 0 3-.8 5.8-1.2 8.8-.5 2.5-1.1 5-1.4 7.6-.2 1.6-.3 3.3-.5 4.9-.5 2.7-.8 5.3-1.6 7.9-.8 3.8-1.7 7.6-2 11.5-.1 1.3-.2 2.5-.2 3.8-.3 2.7-.8 5.4-1.3 8.1-.2 1.2-.7 2.4-1.1 3.6-.4 1.2-1 2.4-1.6 3.5-.9 1.8-2.1 3.5-3.2 5.1-1.4 2-3 4-4.7 5.9-.8.8-1.4 1.6-2.2 2.3-1.6 1.6-3.1 3.2-4.8 4.7-.7.5-1.3 1.2-2 1.7-.4.3-.8.6-1.2 1-.6.6-1.3 1-1.9 1.6-.7.7-1.4 1.3-2.2 1.9-1.5 1.3-3.2 2.5-4.8 3.6-.8.6-1.7 1.2-2.5 1.7-.9.5-1.8 1-2.7 1.4-1.1.5-2.1 1-3.3 1.4-.7.2-1.3.5-2 .5-.9 0-1.8 0-2.5-.4-.6-.3-1-.8-1.5-1.2-.3-.5-.3-1.1-.2-1.6.2-.8.3-1.7.7-2.4.4-1.2 1.2-2.1 1.8-3.2.4-.7.9-1.3 1.2-2.1-.7.5-1.1 1.2-1.7 1.9-.4.4-.7.9-1.2 1.3-.6.6-1.1 1.3-1.8 1.8-.9.8-2 1.4-3.2 1.6-.8.1-1.6 0-2.3-.4-.7-.5-1.1-1.3-1.2-2.1 0-.6 0-1.1.1-1.7.7-2 1.7-4 3.2-5.5.3-.4.6-.9.8-1.3.3-.6.7-1.1 1-1.7-.5.5-.8 1.1-1.3 1.5-.7.6-1.3 1.2-2.1 1.7-1 .7-2.1 1.4-3.3 1.7-.5.1-1.1.3-1.7.1-.4-.5-1-1-1-1.7.1-1.8 1.2-3.3 2-4.9.4-.9 1.1-1.5 1.6-2.3.1-.2.2-.4.4-.5.6-.4.9-1.1 1.3-1.6.9-1.1 1.7-2.3 2.5-3.5-1.9 1.1-3.7 2.3-5.9 2.8-.6-.2-1.1.2-1.7 0-.4-.1-.9-.3-1.3-.4-.5-.5-1-1.1-1.1-1.8-.1-.7 0-1.5.3-2.2.1-.2 0-.3 0-.5.2-1.2.7-2.3 1-3.4.6-1.8.9-3.7 1.1-5.6.1-1 0-2 0-3.1-.1-1.4-.1-2.9-.4-4.3H59c-.5-1.9-.9-3.9-1.3-5.8-.4-1.4-.7-2.8-1-4.3-.2-1-.5-1.9-.6-2.9-.2-1.1-.2-2.3-.3-3.4-.3-2.6-.1-5.2-.5-7.7-.1-1.4-.2-2.9.1-4.3.3-1.5.5-3 .9-4.5.6-2.5 1.1-5.1 1.5-7.7.1-1 0-2 0-3-.1-2-.3-3.9-.4-5.9-.2-1.7-.3-3.5-.3-5.3 0-1.4-.1-2.7 0-4.1.1-.7 0-1.5.1-2.2 0-1.2.3-2.4.5-3.7.5-2.3.9-4.7 2-6.8 1.3-2.9 3.3-5.5 5.4-7.8 2.1-2.2 4.7-3.9 7.3-5.4 2.4-1.4 4.9-2.3 7.5-3.3 1.4-.5 2.9-.8 4.4-1.1 2.2.1 4-.3 5.8-.4z"/><path fill="#fff" d="M57.5 94.1c.2-.9.4-1.8.5-2.7.1.9-.1 1.8-.2 2.8-.1 0-.3 0-.3-.1z"/><path fill="#e56324" d="M117.2 125.4c0-1.3.2-2.5.2-3.8.2.7.5 1.3.7 2 .5 1.3 1.3 2.4 1.9 3.6.6.9 1.3 1.7 2 2.5.1.4.3.8.3 1.2 0 1.2.2 2.4.3 3.6 0 2.5-.7 5-1.8 7.3-.5 1.2-1 2.4-1.7 3.5-.5.9-1.2 1.7-1.8 2.6-.7.8-1.3 1.7-2.1 2.4-.9.8-1.7 1.7-2.6 2.4-1 .9-2 1.6-3 2.4-1.6 1.2-3.4 2.2-5.2 3.1-2.2 1-4.5 1.7-6.9 2-.5.1-.9.2-1.4.1.7-.5 1.3-1.2 2-1.7 1.6-1.5 3.2-3.1 4.8-4.7.8-.7 1.5-1.6 2.2-2.3 1.7-1.8 3.2-3.8 4.7-5.9 1.1-1.7 2.3-3.3 3.2-5.1.6-1.1 1.2-2.3 1.6-3.5.4-1.2.9-2.4 1.1-3.6.7-2.7 1.1-5.4 1.5-8.1zm-57.9 3.3h.2c.3 1.4.3 2.9.4 4.3v3.1c-.2 1.9-.5 3.8-1.1 5.6-.3 1.1-.8 2.2-1 3.4-.2-.1-.4-.2-.6-.4-.7-.9-1.5-1.7-2.1-2.6-.8-1.1-1.6-2.1-2.3-3.2-.3-.5-.4-1.1-.7-1.6 1.1-1.1 2.3-2.2 3.4-3.4 1.3-1.7 2.8-3.3 3.8-5.2z"/><path fill="#dc9eb5" d="M200.4 232.5c.5-.5 1-1 1.3-1.6-.1-.8-.1-1.6-.2-2.4-.4-4.5-.9-8.9-1.6-13.3-.7-4.3-1.3-8.6-2.6-12.7-1.8-5.5-4.5-10.6-7.1-15.8-2.8-4.1-5.9-8-9.1-11.7-1.6-1.8-3.1-3.6-4.8-5.4-.5-.6-.9-1.3-1.5-1.9-.7-.6-1.2-1.4-2-1.9-.2-.1-.4-.3-.5-.4-.1-.1-.2-.2-.4-.3l-.4-.4c-.5-.7-.9-1.3-1.5-1.9-.9-.9-1.8-1.8-2.7-2.5-1.9-1.5-3.9-3-5.8-4.5-.8-.6-1.6-1.1-2.5-1.7-1.5-1.1-3.1-2.1-4.6-3.1-2.2-1.5-4.5-2.9-6.8-4.3-2.6-1.6-5.3-3.1-7.9-4.8-1.8-1.2-3.5-2.6-5.3-3.8-1.2-.9-2.4-1.7-3.6-2.6-.7-.6-1.5-1.2-2.2-1.8-1.5-1.3-3.2-2.2-4.8-3.3-.5-.4-1-.8-1.7-.7.1.4.3.8.3 1.2 0 1.2.2 2.4.3 3.6 0 2.5-.7 5-1.8 7.3-.5 1.2-1 2.4-1.7 3.5-.5.9-1.2 1.7-1.8 2.6-.7.8-1.3 1.7-2.1 2.4-.9.8-1.7 1.7-2.6 2.4-1 .9-2 1.6-3 2.4-1.6 1.2-3.4 2.2-5.2 3.1-2.2 1-4.5 1.7-6.9 2 0 .2 0 .4-.1.5-.6.8-1.1 1.7-1.7 2.5-1 1.4-2.1 2.6-3.2 3.8-.8.9-1.7 1.7-2.6 2.5-.9.9-1.9 1.7-2.9 2.5-.7.5-1.4 1.1-2.1 1.6-.9.6-1.7 1.2-2.6 1.7-1.8 1.2-4 1.8-6.1 2.2-1.3.2-2.6.1-3.8-.2-.8-.2-1.4-1.1-1.5-1.9-.2-1.2-.1-2.5.7-3.4-.3-.5-.3-1.1-.2-1.6-.6.7-1.1 1.4-1.7 2-.9.8-2 1.6-3.2 1.6-.7 0-1.6.2-2.1-.3-.4-.3-.8-.8-.8-1.3-.1-1.1.4-2.2 1-3.2.1-.2.3-.2.5-.3-.7-.5-1.1-1.3-1.2-2.1 0-.6 0-1.1.1-1.7-.5.3-1.1.7-1.7.7-.7 0-1.5 0-2-.4-.4-.3-.8-.7-.8-1.3-.1-1 .5-1.8 1.2-2.4-.4-.5-1-1-1-1.7.1-1.8 1.2-3.3 2-4.9-.5.1-1 .1-1.4-.1-.5-.2-1-.3-1.5-.5-.7-.4-1.3-1.2-1.4-2-.2-1.1.3-2.3 1.2-3-.5-.5-1-1.1-1.1-1.8-.1-.7 0-1.5.3-2.2.1-.2 0-.3 0-.5-.2-.1-.4-.2-.6-.4-.7-.9-1.5-1.7-2.1-2.6-.8-1.1-1.6-2.1-2.3-3.2-.3-.5-.4-1.1-.7-1.6-.3-.1-.5-.2-.8 0-.8.4-1.5.8-2.3 1.2-1 .6-2 1.1-3 1.6-3.6 2.9-7.3 5.7-11.5 7.7-.9.6-1.9 1.2-2.8 1.9-.1.1-.2.1-.2.1-4.2 3.3-8.7 6.2-13.2 9l-.9.6c-2.2 1.5-4.5 2.8-6.7 4.2-1.5.9-3 1.9-4.4 2.9-.8.7-1.6 1.4-2.4 2.2-1.6 1.2-3.1 2.4-4.5 3.7-2.3 2.2-4.4 4.6-6.3 7.2-.4.4-.7.8-1.1 1.3-.5.5-.8 1.1-1 1.8-.3.4-.5.8-.8 1.3-2.7 4.3-4.7 9.1-6.3 13.9-1.1 3.1-1.9 6.4-2.6 9.6-1.7 6-3.2 12-4.4 18.1-.5 2.3-.9 4.7-1.3 7.1h224.7z"/><path fill="#e56324" d="M61.5 149.8c2.1-.5 4-1.7 5.9-2.8-.8 1.2-1.6 2.4-2.5 3.5-.4.5-.8 1.2-1.3 1.6-.3-.5-.8-.8-1.1-1.3-.3-.3-.5-.8-1-1z"/><path fill="#be7894" d="M57.3 152.5c-.2-1.1.3-2.3 1.2-3 .5.1.9.2 1.3.4.6.2 1.1-.2 1.7 0 .5.1.7.7.9 1 .3.5.9.8 1.1 1.3-.1.2-.3.4-.4.5-.5.8-1.2 1.5-1.6 2.3-.5.1-1 .1-1.4-.1-.5-.2-1-.3-1.5-.5-.6-.3-1.2-1.1-1.3-1.9z"/><path fill="#e56324" d="M67.6 158.2c.5-.5.8-1.1 1.3-1.5-.3.6-.7 1.2-1 1.7-.1-.1-.2-.2-.3-.2z"/><path fill="#be7894" d="M65.5 159.9c.8-.5 1.4-1.1 2.1-1.7.1 0 .2.1.3.2-.3.4-.5.9-.8 1.3-1.5 1.5-2.5 3.5-3.2 5.5-.5.3-1.1.7-1.7.7-.7 0-1.5 0-2-.4-.4-.3-.8-.7-.8-1.3-.1-1 .5-1.8 1.2-2.4.6.2 1.1 0 1.7-.1 1.1-.4 2.2-1.1 3.2-1.8zm29.6 1.4c.3-.4.7-.7 1.2-1 .5.2.9 0 1.4-.1 0 .2 0 .4-.1.5-.6.8-1.1 1.7-1.7 2.5-1 1.4-2.1 2.6-3.2 3.8-.8.9-1.7 1.7-2.6 2.5-.9.9-1.9 1.7-2.9 2.5-.7.5-1.4 1.1-2.1 1.6-.9.6-1.7 1.2-2.6 1.7-1.8 1.2-4 1.8-6.1 2.2-1.3.2-2.6.1-3.8-.2-.8-.2-1.4-1.1-1.5-1.9-.2-1.2-.1-2.5.7-3.4.5.4.9.9 1.5 1.2.8.4 1.7.4 2.5.4.7 0 1.4-.3 2-.5 1.1-.4 2.2-.9 3.3-1.4.9-.5 1.8-.9 2.7-1.4.9-.5 1.7-1.1 2.5-1.7 1.6-1.2 3.3-2.3 4.8-3.6.8-.6 1.5-1.2 2.2-1.9.5-.7 1.2-1.1 1.8-1.8z"/><path fill="#e56324" d="M73.4 164.6c.5-.6 1-1.4 1.7-1.9-.3.7-.8 1.4-1.2 2.1-.2-.1-.3-.2-.5-.2z"/><path fill="#be7894" d="M72.2 165.9c.4-.4.8-.9 1.2-1.3.2.1.3.1.5.2-.6 1.1-1.4 2-1.8 3.2-.3.8-.5 1.6-.7 2.4-.6.7-1.1 1.4-1.7 2-.9.8-2 1.6-3.2 1.6-.7 0-1.6.2-2.1-.3-.4-.3-.8-.8-.8-1.3-.1-1.1.4-2.2 1-3.2.1-.2.3-.2.5-.3.7.4 1.5.6 2.3.4 1.2-.2 2.3-.8 3.2-1.6.6-.5 1-1.2 1.6-1.8z"/><path fill="#f2844f" d="M105.3 52.6c1.8-.5 3.7.2 5.5.6.7.3 1.5.5 2.2.8.6.3 1.2.5 1.7.9.8.4 1.6.8 2.3 1.4.7.6 1.3 1.4 1.9 2.1 1 1.3 1.5 2.8 2.1 4.2.8 2.4 1.1 5 1.1 7.5.1 1.8.1 3.7.1 5.5-.1 1.3-.2 2.7-.2 4l-.3 5.4c0 1.7-.3 3.4-.3 5.1-.3 1.3-.5 2.5-.6 3.8-.1 1.6-.3 3.2-.4 4.8-.2 2.4-.3 4.8-.9 7.1-.1.6-.5 1.3-.2 1.9v.1c-.1 0-.2.1-.2.1-.6.8-1.3 1.5-2 2.2-.6.6-1.1 1.2-1.6 1.8-1.7 1.8-3.3 3.6-5 5.5-1 1-1.5 2.4-2 3.7h-.2c-.5-1-1.3-1.9-2.1-2.6-.8-.9-1.8-1.5-2.8-2.1-2-1.3-4.1-2.3-6.1-3.5-.8-.5-1.6-1-2.3-1.7-.8-.8-1.7-1.5-2-2.6-1.1 1-2.7 1.7-4.2 1.5-.8 0-1.4-.5-2.1-.7-.1 0-.2.1-.2.1-.1-.5 0-1 0-1.5-.1-.5-.4-.9-.6-1.3-.3-.7-.1-1.5 0-2.2.2-1.5.8-2.9 1.2-4.3.5-1.3.8-2.7 1.2-4 .1-.6.4-1.1.4-1.7-.2-1 0-2-.2-3-.1.3-.1.7-.1 1.1-.1 1.3-.5 2.5-.9 3.8-.5 1.6-1.2 3.1-1.8 4.7-.3.9-.6 1.8-1 2.6-1 2.4-1.3 5-1.1 7.6-2.2 1.3-4.6 2.2-6.8 3.4-1.9 1.1-3.8 2.4-5.4 3.9-.7.7-1.3 1.5-1.9 2.3-.6-1.7-1.3-3.3-2.1-4.9-.2-.3-.4-.5-.5-.8-.6-1.3-1.4-2.4-2.1-3.6-.8-1.3-1.8-2.6-2.6-4-.5-1-1.1-1.9-1.5-3-.8-1.7-1.4-3.5-1.5-5.3 0-.7-.1-1.3-.1-2 0-.5.1-1 0-1.4 0-.1.1-.2.1-.3 0 .2.1.4.1.6.5-1.4.4-3 .4-4.5 0-1.1-.1-2.3-.2-3.4-.1-1.3-.1-2.7-.4-4-.1-3.1-.2-6.2 0-9.2.1-2.5.6-5 1.1-7.5.4-1.9 1.1-3.8 1.9-5.6 1.7-3.1 3.6-6.1 6.1-8.6.2-.2.4-.4.8-.4v.2c.6-.2 1.2-.5 1.8-.6 1-.1 2-.2 2.9 0 1.3.2 2.6.6 3.9.8.9.2 1.9.4 2.8.6 1.9.3 3.7 1 5.5 1.6 2 .5 4 .8 6.1.9.9 0 1.9.1 2.8-.1 1.2-.2 2.3-.7 3.4-1.2 2.1-.9 4.4-2.2 7.1-2.6z"/><path fill="#f95939" d="M50.7 78.7c1.5-.7 3.4-.6 4.7.4 1.1.8 1.7 2 2.4 3.1.4.6.8 1.3 1 2.1.3 1.3.3 2.6.4 4 0 1.1.2 2.3.2 3.4 0 1.5.2 3.1-.4 4.5 0-.2-.1-.4-.1-.6 0 .1-.1.2-.1.3-.2.8-.6 1.5-.8 2.2-.5 1.4-.8 2.8-1.1 4.2-.3 1.3-.4 2.6-.5 3.9 0 .3-.3.4-.6.3-.6-.3-.9-.8-1.4-1.2-.8-.7-1.7-1.3-2.4-2.2-.7-.8-1.4-1.6-2-2.5-.8-1-1.4-2.2-2.1-3.3-1.1-2-1.7-4.3-2.2-6.5-.2-.8-.2-1.7-.2-2.6 0-2 .6-3.9 1.5-5.7.9-1.5 2-3 3.7-3.8zm75.6 3.7c2.2-.4 4.5.2 6.1 1.7l1.2 1.2c.9 1.1 1.4 2.5 1.5 3.9.1 1.1-.1 2.3-.3 3.4-.6 3.4-2.1 6.6-4.2 9.2-1.4 1.4-2.9 2.8-4.5 3.9-1.9 1.4-4 2.5-6.1 3.5-.4.2-.8.6-1.3.6-.1-.7.1-1.4.3-2.1v-.1c-.3-.6.1-1.3.2-1.9.6-2.3.7-4.7.9-7.1.1-1.6.4-3.2.4-4.8.1-1.3.3-2.6.6-3.8.2-1.2.6-2.4.9-3.7.3-.9.6-1.8 1.1-2.7 1-.6 2.1-1 3.2-1.2zM88.2 92.5c0-.4 0-.7.1-1.1.1 1-.1 2 .2 3 0 .6-.2 1.2-.4 1.7-.4 1.3-.7 2.7-1.2 4-.5 1.4-1 2.8-1.2 4.3-.1.7-.2 1.5 0 2.2.1.5.5.8.6 1.3 0 .5-.1 1 0 1.5-1 .6-2 1.2-2.9 1.7-.2-2.6.1-5.2 1.1-7.6.4-.8.7-1.7 1-2.6.6-1.6 1.3-3.1 1.8-4.7.3-1.1.8-2.4.9-3.7z"/><path fill="#bac9b4" d="M93.6 39.9c.1-.2.2-.4.5-.4 1-.2 2.2.1 3 .7-.1.1-.1.2-.2.3-.6-.2-1.2-.4-1.9-.4-.4-.1-.9 0-1.4-.2zm-7.8.1c.5 0 1 0 1.5.1v.4c-.8 0-1.5.1-2.3.2-.2 0-.4-.1-.6-.2.3-.5.9-.5 1.4-.5zm3.1.2c.8-.3 1.7-.3 2.6-.1.2.1.6.2.4.5-.5 0-.9-.1-1.4 0-.5 0-1.1.2-1.6.1v-.5zm9.6 0c.3-.1.7-.2 1.1-.1 1.1.1 2.2.5 3.2 1.1v.3l-.9-.3c-1-.5-2.2-.6-3.3-.7-.1 0-.1-.2-.1-.3zM82 41c.5 0 1.1-.1 1.6.3 0 .1-.1.2-.1.3-1.2-.1-2.4.2-3.6.4 0-.2-.1-.4.1-.5.6-.4 1.3-.4 2-.5zm10.5.6c.3-.6 1-.5 1.5-.4.9.2 1.9.5 2.6 1.1.2.1.1.6-.2.4-1.2-.6-2.5-.9-3.8-.9 0 0-.1-.1-.1-.2zm4.7-.2c.1-.3.5-.2.7-.2 1.3.2 2.5.8 3.5 1.7.2.1.2.4.2.6-.4-.1-.7-.5-1.1-.7-.8-.5-1.8-.7-2.7-1-.3 0-.6-.1-.6-.4zm-11.5.3c.9-.1 1.8 0 2.6.2v.3c-1.1-.1-2.2 0-3.4.1 0-.2-.1-.4.1-.5.2-.1.4-.1.7-.1zm16.6 1c.3-.1.7-.1 1 0 .8.3 1.6.8 2.2 1.4.2.1.1.4.1.5l-.9-.6c-.7-.5-1.6-.8-2.4-1 .1 0 0-.1 0-.3zm-16.2.7c1.1-.3 2.3 0 3.4.4v.4c-.6-.1-1.1-.2-1.7-.2-.7 0-1.3.1-2 0 0-.2 0-.6.3-.6zm13.1.6c.4 0 .7 0 1 .2.9.4 1.7.9 2.3 1.7.1.2.2.4.2.6-.4 0-.6-.4-.9-.6-.8-.7-1.9-1-2.8-1.5.1-.1.2-.3.2-.4zm-2.8.2c.5 0 .9 0 1.4.2.8.4 1.5.8 2.2 1.5.3.3.7.7.7 1.2-.4-.3-.7-.7-1.1-1-.8-.7-1.9-1.1-2.9-1.5-.3 0-.3-.3-.3-.4zm-3.9.1c.3 0 .6-.1.9 0 .9.3 1.7.7 2.5 1.2.2.1.3.3.4.5-.5-.1-.9-.4-1.4-.6-.7-.4-1.5-.6-2.3-.8-.1-.1-.1-.3-.1-.3zm14.1.6c-.1-.4.4-.5.6-.3.9.4 1.7 1 2.1 1.9-.4.1-.6-.3-.9-.4-.5-.5-1.2-.7-1.8-1.2zm-17.2.3c.8-.2 1.6 0 2.3.1.4.1.9.2 1.3.5.2.1.1.3.2.5-.7-.1-1.4-.4-2.1-.4-.6-.1-1.3 0-1.9-.3.1-.1.1-.3.2-.4zm-18.7 1.2c.3-.1.6-.2.9-.1.2.1.2.5 0 .6-.4.2-.9.3-1.3.4-.7.2-1.3.6-2 1 0-.1-.1-.3-.1-.4.8-.7 1.6-1.2 2.5-1.5zm23.2.6c0-.3.3-.2.5-.2.5 0 .9.3 1.3.5.8.5 1.5 1 2 1.9.1.2.1.5-.1.6-.7-1.3-2.1-2.1-3.5-2.6 0-.1-.1-.1-.2-.2zm7 .6c.6-.2 1.2.2 1.6.6.6.5 1.1 1.2 1.3 2h-.3c-.5-.8-1.1-1.5-1.9-2-.3-.2-.7-.2-.7-.6zm-26.2.6c0-.5.6-.7 1-.7.6 0 1.3-.1 1.7.5-.4.2-.9.1-1.3.1-.5.1-1 .1-1.4.1zm29.5-.3c.2 0 .4 0 .6.1.3.3.5.7.8 1.1.3.5.6 1.1.6 1.7-.5-.1-.6-.7-.9-1-.4-.7-1-1.2-1.1-1.9zm-23.2.6c.7-.3 1.5-.3 2.2-.3.6 0 1.2.1 1.7.4v.3c-.5 0-1.1-.2-1.6-.1-.8.1-1.5.2-2.3.2v-.5zm10.8 0c1.3-.4 2.6.4 3.6 1.2.4.4 1 .8.9 1.4-.2-.1-.3-.2-.5-.3-1.1-1.1-2.5-1.7-4-1.8v-.5zm-23.3.7c.4-.2.8-.2 1.3-.1 0 .1.1.3.1.3-.2.2-.4.3-.6.3-.9.3-1.9.6-2.7 1.2-.4.2-.7.6-1.1.7 0-.2 0-.4.2-.5.7-.9 1.8-1.4 2.8-1.9zm17.2.5c-.1-.5.6-.6.9-.6 1 0 2.1.2 3 .7v.3c-.5-.1-1.1-.3-1.6-.4-.8-.1-1.5 0-2.3 0zm-12 .2c.6-.1 1.2-.1 1.8 0 .2 0 .2.2.3.4-.7.2-1.5.3-2.2.4-.3 0-.7.1-.7-.3.1-.4.5-.5.8-.5zm16.8.4c.9-.1 1.7.1 2.5.5.7.3 1.5.8 1.6 1.6-.4-.1-.7-.6-1.1-.8-.9-.6-2-.7-3-1v-.3zm10.6 0c.4-.1.7.3.9.5.4.6.8 1.2.7 1.9 0 .1-.1.2-.2.2-.3-.2-.3-.5-.5-.8-.2-.5-.7-.9-1-1.4 0-.1-.1-.4.1-.4zm-17.2 1c.4-.3.9-.3 1.4-.3 1 0 2 0 2.9.4v.4c-.8 0-1.5-.1-2.3 0-.7 0-1.5.2-2.2.1 0-.3 0-.5.2-.6zm30.9.2h.5c.6.7.9 1.6 1.1 2.5.1.2-.1.4-.2.6-.3-.5-.4-1.1-.8-1.6-.3-.5-.7-1-.6-1.5zm1.8.2c.1 0 .3-.1.4-.1.2.1.4.3.5.6.3.7.4 1.4.5 2.1.1.5.1 1 0 1.4-.3-.1-.3-.4-.3-.7-.1-.6-.3-1.3-.5-1.9-.2-.5-.4-.9-.6-1.4zm-28 .3c.7-.4 1.5-.2 2.3 0 .8.3 1.6.7 2.2 1.3.1.1.2.3 0 .4-.2 0-.3-.1-.5-.2-1.1-.9-2.6-1.2-4.1-1 0-.2-.1-.5.1-.5zm-4.5.8c.8-.1 1.6-.1 2.4.1.2 0 .6.2.5.5-.5 0-1-.1-1.5-.1-.7 0-1.4.2-2.1.2-.2 0-.3-.2-.2-.4.3-.2.6-.3.9-.3zm29.7 0c.2-.2.6-.1.6.2.1.8.2 1.6 0 2.3h-.3c-.1-.5-.1-1.1-.2-1.6 0-.2-.1-.5-.1-.9zm-48.6.8c.5-.3 1-.7 1.6-.6 0 .2 0 .5-.3.6-1 .6-2 1.3-2.9 2.1-.3.3-.6.7-1 .8 0-.2 0-.5.2-.6.7-.9 1.5-1.7 2.4-2.3zm22.1 0c.8-.4 1.8-.2 2.6.1.7.2 1.5.6 1.7 1.4-.5.1-.7-.5-1.1-.6-1.1-.4-2.3-.3-3.4-.4 0-.1 0-.4.2-.5zm31.8.8c.2 0 .5 0 .5.2.1.4.1.8.1 1.2 0 .6 0 1.2-.2 1.8 0 .1-.2.1-.3.2.3-1.2-.3-2.3-.1-3.4z"/><path fill="#fcb593" d="M70.7 57c.8-.5 1.8-.8 2.7-.9v.4c-1.7.5-3.2 1.5-4.6 2.6-.3.3-.7.6-1.1.6.1-.2.1-.4.2-.6.8-.9 1.8-1.5 2.8-2.1z"/><path fill="#bac9b4" d="M61.5 57.1c.1-.1.4-.1.4 0 .1.2-.1.4-.2.5-.9 1-1.6 2.3-2.1 3.6-.1 0-.2 0-.2.1 0-1 .5-2 1-2.8.3-.5.6-1 1.1-1.4zm-1.9 9.2c.1-.2.4-.1.5-.1-.2.7-.6 1.3-.8 2-.3.8-.5 1.7-.8 2.5h-.3c.1-1.1.4-2.2.8-3.3.2-.4.3-.8.6-1.1zm62.6 3.5c.2 0 .5-.1.6.1.3.4.3.9.4 1.3.1 1.1 0 2.1-.3 3.2 0 .2-.2.2-.4.2.3-1.4.3-2.8-.1-4.2-.1-.1-.1-.3-.2-.6z"/><path fill="#fcb998" d="M88.4 77.3h.3c.1.9.3 1.8.6 2.6.2.7.6 1.3.6 2.1h-.3c-.5-1-1-2-1.3-3-.1-.5-.1-1.1.1-1.7z"/><path fill="#bac9b4" d="M122.7 80.9c.1-.3.4-.3.7-.3 0 .4 0 .7-.1 1.1-.3.9-.5 1.8-.8 2.7h-.3c-.1-1.2.1-2.4.5-3.5z"/><path fill="#cc492f" d="M51 84.4c.8-.3 1.7.2 2.2.8 1 1.1 1.3 2.5 1.9 3.9.5 1.7 1.2 3.3 1.1 5.1H56l-.3-1.5c-.3-1.3-.8-2.5-1.3-3.7-.3-.8-.7-1.6-1.1-2.4-.5-.8-1.2-1.6-2.2-1.8-.1-.2-.1-.3-.1-.4z"/><path fill="#15100d" d="M72.3 86.2c.4-.2.8-.6 1.3-.3.6.2.7.9.8 1.4.1.6.1 1.3-.3 1.9-.3.4-.8.6-1.3.4-.4-.3-.7-.7-.8-1.1-.1-.9 0-1.6.3-2.3zm34.2.6c.4-.1.9-.1 1.2.2.4.4.4.9.4 1.4 0 .6-.1 1.3-.5 1.8-.4.4-1.1.5-1.5 0-.5-.6-.5-1.4-.3-2.1.1-.5.3-1 .7-1.3z"/><path fill="#fcb492" d="M70.1 87.5c0-.3.3-.4.6-.3.2.3.3.6.4 1 .2.8.6 1.7 1.4 2.1v.4c-.7 0-1.3-.4-1.7-1-.4-.7-.7-1.4-.7-2.2z"/><path fill="#cc492f" d="M127.8 88.3c.5-.4 1.1-.9 1.7-.5v.4c-.8.3-1.4.9-1.9 1.6-1.2 1.5-2.2 3.3-2.9 5.1-.9 2.1-1.6 4.3-2.1 6.5h-.3c0-.3 0-.6.1-.9.3-2.3 1.1-4.5 2-6.7.8-2 1.8-4.1 3.4-5.5z"/><path fill="#b95d38" d="M92.6 80.3c-.4-1.6-.2-3.2-.1-4.8.1-1 .3-2 .1-3h-.3c0 1-.2 1.9-.3 2.9-.1 1.6-.2 3.3.4 4.8 0 .1.1.1.2.1zm-2.3-3.5c.1-1 .1-2 0-3-.1-.4-.3-.8-.4-1.1h-.3c-.1 1 0 2 0 3 0 .7-.1 1.4-.1 2.1.1 1 .4 1.9.7 2.8h.4c-.2-1.3-.4-2.6-.3-3.8zm-7.8 4.4c-1.3-.3-2.6-.5-3.9-.8-2.5-.7-5.1-1.1-7.7-1-2 .1-4 1-5.3 2.6v.2h.2c.5-.2 1-.5 1.5-.7-.2.2-.5.3-.7.5-.7.4-1.3 1.1-1.8 1.7 0 .1 0 .2-.1.2 1.4-.1 2.8-.4 4.2-.5 1.3-.2 2.6-.2 3.9-.1.8.1 1.6.4 2.4.5 1.5.3 3 .5 4.4.7 1 .1 2 .2 3.1.2 1-.1 2-.3 2.9-.5.1-.1.3-.3.5-.4l.1-.1c0-.1.1-.2.1-.4.1-.4.2-.7 0-1.1-1.3-.6-2.6-.7-3.8-1zm34.2 2.8c-.3-.1-.7 0-1-.3.6.1 1.2.1 1.8.3.3.1.6.2.9.1-.4-.6-1.1-.9-1.8-1.2l-1.5-.6c-1.4-.4-2.6-1.2-4-1.5-1.5-.3-3-.1-4.6-.3-.9-.1-1.8.2-2.7.2-1.9.1-3.8.4-5.6 1.1-.7.3-1.5.5-2 1-.4.4-.3.9-.5 1.4h.2c.1.5.7.6 1.1.7 1.9.3 3.8.2 5.7-.1 2.6-.4 5.2-1 7.8-1.6 1.6-.5 3.4-.4 5.1-.2-.5-.1-1-.1-1.5-.1-1.2 0-2.4.3-3.5.7-.3.1-.6.2-.9.4-.1.1-.3.2-.2.3.4 0 .8-.1 1.2-.3 1-.1 2-.3 3-.4.1.1.2.1.2.2-.7 0-1.4.3-2.1.6v.3c.8 0 1.5-.3 2.3-.4 1.5-.1 2.9.4 4.4.3-.6-.2-1.2-.5-1.8-.6z"/><path fill="#b95d38" d="M68.2 83.7c-.5 0-.9-.1-1.4 0-1 .3-1.9.6-2.8 1.1 0 .1 0 .2-.1.2.2 0 .5-.1.7-.2 1.1-.4 2.4-.6 3.6-.8v-.3zm25.1 3.9c-.7 1.9-.7 3.9-.7 5.8-.1 1.2 0 2.5-.1 3.7-.1 1.4-.1 2.8-.3 4.3h.2c.2-.8.2-1.5.2-2.3 0-.8.2-1.7.2-2.5v-.1c.1-.6.1-1.2.1-1.7.1-2.2 0-4.4.5-6.5.1-.7.4-1.3.5-2l.1-.1h-.3c0 .4-.2.9-.4 1.4zm-4.5 1.5c0-1.6-.6-3.3-1.7-4.5h-.4c.1.6.4 1 .7 1.5.3.6.5 1.2.6 1.9.1.7.2 1.4.2 2.1 0 1.2.2 2.4.1 3.6v.1c-.1.9-.1 1.8-.4 2.7h.2c.2-.8.4-1.6.4-2.4.2-1.7.4-3.4.2-5.1l.1.1zm-15.3 3c1 0 1.9-.4 2.7-.8.3-.1.8-.4.5-.7l-1.2.6c-.9.1-1.8.3-2.7.2-1.1-.1-2.2-.5-2.8-1.5h-.2c.2.7.6 1.3 1.2 1.6.7.5 1.6.6 2.5.6zm35.4.2c1.2-.3 2.2-1 3-2v-.4c-.8.8-1.9 1.4-3.1 1.7-1.1.3-2.3.5-3.5.2-.4-.1-.8-.5-1.3-.4 0 .6.6.9 1.1 1.1 1.2.4 2.6.2 3.8-.2z"/><path fill="#b95d38" d="M114 90.8c-.7.7-1.5 1.2-2.3 1.8-1.4 1-3.1 1.2-4.8 1.2-1.2 0-2.4-.2-3.6-.5v.3c.6.6 1.5.8 2.3.9 1.5.3 3.1.1 4.6-.3 1.3-.3 2.4-1.3 3.4-2.2.3-.3.8-.7.7-1.2h-.3zm-37 1.6h.1c-.8.2-1.4.6-2.2.9-1.4.6-3 .3-4.4 0-1.1-.2-2.1-.8-2.7-1.8h-.3c0 .8.5 1.4 1.1 1.8.8.5 1.7.7 2.5.9 1.3.2 2.6.2 3.8-.3.7-.3 1.4-.7 2.1-1.2.3-.1.6-.3.8-.5v-.3c-.2.1-.5.3-.8.5z"/><path fill="#f95939" d="M105.5 95.5c1.6-.3 3.4 0 4.8.9.8.5 1.6.9 2.3 1.6.9.8 1.5 1.8 1.8 3 .7 1.9.6 4.1-.3 5.9-.7 1.3-1.7 2.4-2.8 3.3-.7.6-1.6.8-2.5 1.1-1.2.3-2.4.3-3.6.2-1.8-.2-3.5-1.1-4.8-2.4-1-1.1-1.9-2.3-2.3-3.7-.4-1.3-.3-2.8.3-4 .7-1.7 1.8-3.3 3.4-4.3 1.2-.8 2.4-1.4 3.7-1.6zm-34.8.5c.5-.1 1-.2 1.6-.1 1.1.1 2.3.4 3.2 1 1.3.9 2.6 2.1 3.3 3.6.7 1.3.8 2.8.5 4.2-.4 2-1.4 3.9-3 5.2-1.3 1.1-3 1.8-4.7 1.8-1.7-.2-3.4-.7-4.8-1.8-1.2-1-2-2.4-2.4-3.9-.6-2.1-.2-4.4 1-6.2.6-.9 1.3-1.9 2.4-2.3.9-.8 1.9-1.3 2.9-1.5z"/><path fill="#fcb492" d="M89.8 95.9c.3-.2.5.3.4.5-.4 1.7-.9 3.4-1.2 5.1-.2 1.4-.6 2.8-.5 4.3h-.4c-.4-.9-.1-1.9-.1-2.8.2-1.9.5-3.8 1.1-5.6.3-.5.4-1 .7-1.5z"/><path fill="#b75d39" d="M94.3 105c.2 0 .5-.1.6.2.3.9.2 2-.5 2.6-.7.6-1.6 1-2.3 1.5-.5.5-1 .9-1.7 1.1-.6.2-1.3-.1-1.9-.2-1.2-.2-2.1-.9-3.1-1.5-.5-.4-1.1-.7-1.5-1.3-.2-.3-.1-.7-.1-1.1h.4c.1.8.9 1.2 1.5 1.6 1.1.7 2.2 1.4 3.5 1.8 1.1.1 1.9-.7 2.8-1.1.8-.4 1.7-.8 2-1.7.3-.5.2-1.2.3-1.9z"/><path fill="#bac9b4" d="M57.9 110.4c0-.8 0-1.6.1-2.4.2.6.1 1.3.2 1.9.2 2 .7 3.9 1.1 5.8.7 2.9 1.3 5.9 2.1 8.8.3 1 .5 2 .8 3 .2.6.4 1.3.4 1.9-.2-.2-.3-.3-.4-.6-1-3-1.8-6-2.6-9-.7-3-1.5-6.1-1.7-9.4zm2 1.2c.1-.2.3-.2.4-.2.5 1.6 1.1 3.1 1.5 4.7.9 3.3 1.5 6.7 2 10.2.2 1.6.5 3.2.4 4.9-.2-.7-.1-1.4-.2-2.1-.4-3.3-1-6.6-1.8-9.8-.6-2.3-1.3-4.6-2.1-6.9-.1-.4-.2-.6-.2-.8zm33.6-.1c.1 0 .2-.1.3-.1.7.6 1.4 1.1 2.2 1.5 1.7 1 3.3 2.2 4.9 3.4.9.7 1.8 1.4 2.6 2.1.9.8 1.8 1.6 2.5 2.5.5.6 1.1 1.1 1.5 1.8-.6-.6-1.1-1.3-1.8-1.9-.8-.7-1.5-1.5-2.3-2.1-1.4-1.2-3-2.2-4.5-3.2-1-.7-2-1.3-3-1.9-.9-.5-1.7-1.1-2.4-1.8v-.3z"/><path fill="#ba6543" d="M89.2 111.7h.4c.1.3.2.6.2.9 0 1.3-.2 2.6-.2 3.9h-.4c-.2-.6-.1-1.3-.1-1.9 0-1 0-2 .1-2.9z"/><path fill="#bac9b4" d="M91.8 112c.2-.1.3 0 .5.1 3.4 2.6 7.3 4.5 10.5 7.5 1.6 1.5 3.2 3 4.4 4.8-.6-.4-1-1.1-1.6-1.6-1.2-1.3-2.5-2.5-4-3.6-3-2.3-6.6-3.9-9.4-6.5-.1-.2-.4-.4-.4-.7zm-6 .3c.3-.1.5-.2.8-.2 0 .1 0 .2-.1.3-1.8 1.2-3.8 2.3-5.7 3.5-2.7 1.7-5.2 3.6-7.5 5.8.5-.8 1.2-1.3 1.8-1.9 3.3-3 6.9-5.5 10.7-7.5zm.9 1.4c.2-.1.4-.1.6-.1-.5.6-1.3 1-2 1.4-3.2 1.9-6.3 3.7-9.2 6-.2.2-.5.4-.7.5.3-.5.8-.8 1.2-1.2 1.3-1.1 2.8-2.1 4.2-3 1.9-1.3 3.8-2.6 5.9-3.6zm4.2-.2c.7.4 1.3.8 2 1.2 2.2 1.1 4.2 2.4 6.2 3.8 1.7 1.2 3.2 2.6 4.6 4 .6.6 1.1 1.2 1.6 1.9.2.2.2.4.3.7-.6-.5-1.1-1.2-1.7-1.8-3-3-6.5-5.3-10.1-7.4-.7-.4-1.4-.8-2.1-1.3-.3-.3-.7-.6-.8-1.1zm23.1 2.6c.3-.3.6-.9 1.1-.8-1.3 1.8-2.5 3.6-3.4 5.6-1.8 3.8-2.9 7.9-3.6 12.1-.4 2.4-.8 4.8-.8 7.2h-.2c0-1-.1-2.1.1-3.1.3-3 .8-6.1 1.4-9 .9-4.3 2.6-8.5 5.4-12zm-49.9.3c-.1-.3.1-.4.4-.5.9 2.5 1.5 5.2 1.9 7.9.3 2 .5 4.1.5 6.1 0 .9 0 1.8-.2 2.7h-.2c0-.8.2-1.6.1-2.4-.2-4.7-1-9.4-2.5-13.8z"/><path fill="#bac9b4" d="M114.8 117.8c.3-.4.5-.9 1-1.1-.2.7-.6 1.3-.9 1.9-1 2.1-1.5 4.5-2.1 6.8-.6 2.2-1.1 4.3-1.6 6.5-.1-.1-.1-.2-.2-.3.4-2.3.9-4.7 1.5-7 .5-2.4 1-4.8 2.3-6.8z"/><path fill="#f18451" d="M85.2 117.7c3.7-.9 7.6-.5 11.2.8.9.4 1.7.8 2.5 1.4.3.3.5.5.8.7h-.3c-.7-.4-1.4-.6-2.2-.8-.9-.2-1.9-.4-2.8-.4-1.2 0-2.3-.4-3.4-.5-2.6-.3-5.3 0-7.9.4-1 .1-1.9.4-2.8.6-.5.1-1 .3-1.3.7 1.1 0 2.2-.3 3.3-.5 4-.6 8-.5 12-.2.9 0 1.8.1 2.7.2.6.1 1.2.3 1.8.4l-.3.3c-.2.2-.5.1-.8.1-1 0-2 .1-3.1 0-3.3-.2-6.6 0-10-.1-1.9 0-3.7.1-5.6.1-.2 0-.5-.1-.7-.1v-.4c.1 0 .2-.1.3-.1.1-.2.1-.4.3-.5 2-.9 4.1-1.6 6.3-2.1z"/><path fill="#cc492f" d="M97.2 119.8c-.9-.2-1.9-.4-2.8-.4-1.2 0-2.3-.4-3.4-.5-2.6-.3-5.3 0-7.9.4-1 .1-1.9.4-2.8.6-.5.1-1 .3-1.3.7 1.1 0 2.2-.3 3.3-.5 4-.6 8-.5 12-.2.9 0 1.8.1 2.7.2.6.1 1.2.3 1.8.4.3.1.5.1.8.1-.9-.4-1.7-.6-2.4-.8z"/><path fill="#bac9b4" d="M115.3 121h.3c-.4 2.6-.7 5.2-1.1 7.8-.4 2.5-1.2 4.9-2.1 7.3-.9 2.1-1.7 4.3-3.1 6.2-.1 0-.2-.1-.2-.1 1.1-1.7 1.9-3.6 2.6-5.5.9-2.2 1.6-4.6 2-7 .4-2.5.7-5.1 1.3-7.6 0-.3.2-.7.3-1.1zm-30.4 1.9c.2-.2.5-.3.8-.3-.2.4-.5.7-.8 1-1.2 1.4-2.2 2.9-3.1 4.5-.7 1.3-1.3 2.6-1.7 4.1-.1.4-.1.8-.4 1.1-.1-.9.2-1.7.5-2.5.5-1.3 1.1-2.6 1.8-3.9.7-1.5 1.7-2.9 2.9-4zm7.7.1h.3c.5.7.7 1.4 1 2.2.6 1.6 1 3.2 1.1 4.9.1 1.1 0 2.3-.1 3.4-.2 2.4-.6 4.8-1.4 7-.1 0-.2.1-.2.1.6-2.3 1.1-4.7 1.2-7.2.2-2.4 0-4.8-.8-7.1-.3-1.1-.8-2.1-1.1-3.3zm4.9.1c.5 0 .8.5 1 .9.5.8.8 1.6 1.2 2.5.6 1.6 1.3 3.2 1.9 4.9.3.9.7 1.7.7 2.6-.1-.1-.3-.2-.3-.3-.6-1.9-1.4-3.7-2.2-5.5-.5-1.2-1-2.3-1.5-3.5-.3-.6-.7-1.1-.8-1.6zm2.4.1c.2 0 .4.1.6.3 1.4 1.4 2.2 3.1 3 4.9.4 1.1.9 2.2 1.2 3.4.3 1.2.6 2.5.5 3.7-.1 0-.2 0-.2-.1 0-1.4-.4-2.7-.8-4-.7-2.1-1.6-4.2-2.9-6.1-.4-.7-1-1.3-1.4-2.1zm-12 .3c.2-.1.3.2.2.3-1 1.8-1.8 3.7-2.5 5.6-.8 2.1-1.4 4.2-2 6.4-.1 0-.2.1-.2.1.1-1 .4-1.9.6-2.8.8-2.7 1.6-5.3 2.8-7.8.3-.7.5-1.3 1.1-1.8zm1.4 1.6c0-.2.3-.2.3 0 .1.8.1 1.5.1 2.3-.1 1.6-.2 3.2-.5 4.8-.1.4-.2.9-.6 1.1.5-1.5.5-3.1.6-4.7.1-1.2-.1-2.4.1-3.5zm-13.1 2.8c.2-.5.3-1 .8-1.3-.1.7-.4 1.4-.6 2.2-.7 2.1-1.6 4.1-2.5 6-1 2-1.9 4.1-2.9 6.1-.6 1.2-1.2 2.5-2 3.6h-.3c1.1-1.9 2-3.9 2.9-5.9 1.7-3.4 3.2-7 4.6-10.7zm-8 2.2c.1.1.3.1.5.2 0 2.3-.7 4.6-1.5 6.8-.9 2.1-1.9 4.1-3.1 6.1-.8 1.2-1.6 2.6-2.8 3.5.1-.5.6-.8.8-1.2 1.2-1.6 2.2-3.4 3.1-5.2 1.5-3.2 2.9-6.6 3-10.2zm42.2 4.2c.2-1 .3-1.9.6-2.8.1.1.1.2.2.3.1.2 0 .4-.1.6-.5 2.3-1 4.7-1.5 7-.1.4-.2.7-.4 1-.1-.4.1-.8.2-1.2.3-1.6.6-3.2 1-4.9zm-40-.2c.2-.6.2-1.2.5-1.7.3 1 0 2.1-.3 3.1-.7 2.1-1.8 3.9-3 5.8-1.1 1.7-2.1 3.4-3.4 4.9-.2.3-.5.6-.8.7.3-.5.7-.8 1-1.3 1.4-1.9 2.6-3.9 3.7-6 .8-1.7 1.6-3.6 2.3-5.5zm11.4-.7c.1-.3.2-.6.4-.7.1.8-.3 1.6-.6 2.4-.8 2.2-2 4.4-3.2 6.4-2.1 3.6-4.5 6.9-7 10.2-.7.9-1.4 1.8-2.2 2.6-.6.6-1.1 1.3-1.7 1.8l-.6.3c1.7-1.7 3.2-3.6 4.7-5.5 2.4-3.3 4.6-6.8 6.7-10.3 1.4-2.4 2.6-4.7 3.5-7.2zm-18.1 0c.2.1.4.2.4.4.1 1.1-.1 2.1-.4 3.1-.6 2-1.3 4-2.1 6-.2.5-.5 1-.8 1.4-.1 0-.2 0-.3.1 1.2-2.5 2-5.1 2.7-7.7.3-1.1.3-2.2.5-3.3zm36.3.6h.3c.4 2.3.5 4.7.1 7.1-.3 2.1-1.1 4-1.9 6-.7 1.6-1.4 3.3-2.2 4.8-.3.4-.5.9-.9 1.1.2-.5.5-.9.7-1.4 1-2 1.8-4 2.5-6.1.8-2.2 1.3-4.5 1.4-6.8 0-1.6-.1-3.1 0-4.7zm-20.8.3h.3c-.2 1.1-.8 2.1-1.3 3.1-2 3.7-4.2 7.2-6.7 10.6-1.7 2.4-3.4 4.8-5.5 6.9-.1.1-.3.2-.4.2 0-.2.1-.4.3-.5.8-.8 1.5-1.8 2.2-2.7 2.6-3.6 5.2-7.3 7.5-11.1 1.2-2.2 2.5-4.3 3.6-6.5zm12.4 1.4c.2-.5.3-1.1.8-1.4-.7 2.2-1.1 4.5-1.6 6.8-.6 2.8-1.4 5.6-2.3 8.3-.8 2.3-1.6 4.6-2.6 6.9-.3.5-.6 1.2-1.1 1.5l.9-1.5c1-2.4 1.9-4.8 2.7-7.3.6-1.7 1.1-3.5 1.5-5.3.5-2.7 1-5.4 1.7-8zm4.7 2.3c.1-.6.3-1.2.6-1.7 0 .7-.2 1.3-.2 1.9-.4 2.3-.6 4.6-1.3 6.8-.6 2.1-1.4 4.2-2.4 6.2-1 2.2-2.1 4.4-3.3 6.5-.5.8-.9 1.6-1.5 2.2l-.1-.1c.7-.6 1-1.4 1.5-2.2 2.2-4.2 4.2-8.6 5.4-13.2.5-2.2.7-4.3 1.3-6.4zm6.7-1.5c.3.1.2.5.3.7.2 4.5-.9 9-2.7 13.1-.8 1.8-1.7 3.6-2.7 5.3-.4.7-.8 1.4-1.3 2h-.3c1-1.5 1.8-3.1 2.6-4.8 1.2-2.4 2.1-4.8 2.8-7.4.7-2.3.9-4.7 1.2-7-.1-.6-.1-1.3.1-1.9zm-28.3.7c.1-.2.2-.3.3-.5.1 0 .3 0 .4.1-.8 2.1-1.9 4.1-3 6-1.2 2.1-2.5 4.1-3.8 6-.9 1.4-1.9 2.8-2.9 4.1-.3.3-.6.8-1 .9 1.2-1.6 2.3-3.2 3.4-4.9 2.4-3.8 4.6-7.7 6.6-11.7zm30.8 1.4c.4.2.3.7.4 1.1.1 2.2-.4 4.4-1.1 6.4-.6 1.8-1.3 3.6-2.2 5.3-.3.5-.6 1.1-1 1.6-.1.2-.3.2-.5.2 1.3-1.8 2.1-3.8 2.8-5.9.7-2 1.1-4.1 1.4-6.3 0-.8-.1-1.6.2-2.4zm-13.1 4.9c.1-.4.1-.9.5-1.1l.2.2c-.2 2-1 3.9-1.7 5.8-.3.8-.6 1.5-1 2.3-.1.2-.3.3-.4.4.1-.6.5-1.2.7-1.8.6-1.9 1.2-3.8 1.7-5.8zm14.8-.7h.4c.2 1-.2 1.9-.5 2.8-.6 1.6-1.2 3.3-2.3 4.6h-.3c.1-.4.4-.8.6-1.2.9-2 1.5-4.1 2.1-6.2zm-27.3 2.6c.2-.2.4-.3.6-.3-.3.6-.7 1-1.2 1.5-1.3 1.5-2.7 3-3.9 4.6-2.9 3.5-5.3 7.5-7.4 11.5-.3.6-.7 1.3-.9 1.9.4-.3.7-.8 1-1.2.8-1 1.6-2.1 2.4-3.1.1-.2.4-.2.6-.2-.4.7-1 1.2-1.4 1.9-1 1.2-1.9 2.4-2.9 3.6-.3.4-.6.8-1.1 1.1.1-.5.5-.9.8-1.4l.9-1.8c1.1-2.2 2.3-4.4 3.5-6.6 1.1-1.9 2.3-3.7 3.7-5.5 1.6-2 3.4-4.1 5.3-6zm3.3 4.5c.1 0 .2 0 .2-.1 0 .9-.2 1.8-.5 2.6-.7 2.3-1.5 4.6-2.5 6.8-1.6 3.3-3.3 6.6-5.4 9.6-.5.6-.9 1.3-1.6 1.7.3-.5.7-.8 1-1.3 2.4-3.5 4.2-7.3 5.9-11.1 1.2-2.6 2.1-5.4 2.9-8.2zm-3.8 3c.4-.5.7-1 1.2-1.3 0 .2-.1.4-.1.6-2.3 3.9-5.4 7.1-8.6 10.3-1.4 1.4-2.9 2.8-4.5 4.1-.1 0-.2-.1-.2-.1 3-2.7 5.8-5.5 8.4-8.5 1.3-1.8 2.5-3.5 3.8-5.1zm5.8.1c.1.1.3.1.3.2-.6 2-1.3 3.9-2.3 5.6-2.1 3.7-4.6 7.1-7.3 10.3-.7.8-1.3 1.7-2.2 2.4.1-.4.4-.7.7-1.1l4.5-5.7c2.2-3.2 4.4-6.6 5.8-10.3.2-.4.3-.9.5-1.4zm9.2 2.6c.3-.5.6-1.1 1.1-1.3-.2.8-.7 1.5-1 2.2-1.1 1.7-2.5 3.2-3.9 4.7-3 3-6.3 5.5-9.6 8.1-.7.5-1.4 1.1-2.2 1.5v-.3c1.7-1.3 3.3-2.7 5-4 1.8-1.5 3.5-2.9 5.2-4.5 2-2.1 3.9-4.1 5.4-6.4zm-29.3 5.5c-.2-.2-.1-.5-.1-.7.2.1.4.1.6.3.2.1.1.4.1.6-.2-.1-.5 0-.6-.2z"/><path fill="#be7894" d="M118.5 153.2c.8-.9 1.5-1.9 2.3-2.9.7-.9 1.3-1.9 1.8-2.8.5-1 1.2-2 1.6-3.1.8-2 1.5-4.1 1.9-6.2.2-1.2.1-2.4.3-3.6.1-.8-.1-1.6-.1-2.5-.2-.1-.3-.2-.5-.3 0 1.1.1 2.3-.1 3.4-.1 1.1-.1 2.2-.3 3.3-.5 2.3-1.1 4.6-2.2 6.7-1 1.7-1.9 3.5-3.1 5-.6.7-1.1 1.5-1.8 2.2-.9.9-1.7 1.9-2.6 2.8-1.4 1.4-3.1 2.6-4.8 3.7-2 1.3-4 2.5-6.2 3.3-1.3.4-2.5.9-3.8 1.4-1.1.3-2.2.8-3.3.8-1.5.2-3 .5-4.5.7l-.2-.2c-.6.2-1.2.1-1.8.3-.2.3.2.5.5.4.3-.2.5.1.8.1 1.4-.1 2.8-.4 4.2-.6.4-.1.9-.1 1.3-.3.5 0 .9 0 1.4-.2.8-.2 1.7-.4 2.5-.7 1.5-.5 3-1 4.5-1.7.8-.3 1.5-.7 2.3-1.1 2.1-1.1 4.1-2.4 5.9-3.8 1.3-1.2 2.6-2.7 4-4.1zm-58.4.7c-.3-.3-.7-.4-.9-.7-.4-.4-.8-.8-1.1-1.2-.4-.5-1-.9-1.4-1.5-.7-.8-1.4-1.6-2-2.5-.6-1-1.4-1.9-2.1-2.9-1.1-1.6-2-3.3-3-4.9-.2-.5-.4-.9-.7-1.3h-.4c0 .3 0 .6.2.8.7 1.1 1.3 2.1 1.9 3.2.9 1.6 2.1 3.1 3.2 4.5 1.1 1.7 2.4 3.3 3.8 4.7.2.3.5.6.7.8.7.7 1.3 1.6 2.1 2.2.3.2.6.4.9.2-.3-.6-.8-1-1.2-1.4zm91.3 7.2h-.4c-.6.7-.9 1.6-1.4 2.5-.7 1.4-1.4 2.7-2.4 3.8-1.4 1.8-3 3.5-4.8 4.8v.3h.2c2.5-1.8 4.6-4 6.3-6.4.8-1.1 1.3-2.3 1.8-3.6.3-.5.6-.9.7-1.4zm-27.7 8.9c-.3.1-.6.2-.8.4-1.4.4-2.9.9-4.4 1.2-1.2.3-2.5.4-3.7.6-1.3.2-2.5.8-3.4 1.7.6-.2 1.2-.5 1.9-.8.9-.3 1.8-.4 2.7-.5 1.5-.2 2.9-.6 4.3-1 .9-.3 1.9-.6 2.7-1 .8-.2 1.5-.7 2.2-1.2v-.3c-.5.3-.9.7-1.5.9zm-80.1 12.4c-.8-.2-1.7-.3-2.5-.5-1.1-.3-2.2-.6-3.2-1.1-1.7-.7-3.1-2.1-4.8-2.9-1.1-.5-2.4-.9-3.5-.4v.4c.8-.1 1.6.1 2.4.4 1.5.6 2.8 1.6 4.2 2.5 1.2.7 2.6 1.1 4 1.5 1.1.3 2.3.4 3.5.5-.1-.1-.1-.3-.1-.4zm105.9 13.9c.1 4.3 1.3 8.6 2.2 12.8.2 1 .4 2 .7 3 .3.9.5 1.9.7 2.9.3 1.2.6 2.5.7 3.8.1 1.3.4 2.6.5 4 .1 1.4.1 2.8.1 4.2 0 .8.1 1.6.1 2.3 0 1.1 0 2.1.1 3.2h.5v-1.3c.1-1.8-.1-3.7-.1-5.5 0-1.6 0-3.3-.3-4.9-.2-1.6-.4-3.1-.7-4.7 0-1 0-1.9-.1-2.9.1-.1.2-.1.3-.2-.1-.4-.1-.8-.1-1.2h-.1c0-.4 0-.9-.1-1.3-.3-2.7-.8-5.4-1-8.1-.2-2.2 0-4.5.2-6.7.3-2.9.8-5.7 1.4-8.5.5-2.6 1-5.3 1.4-8 .1-.4.2-.8.1-1.2-.2.1-.3.3-.4.5-.9 2.6-1.3 5.4-1.9 8.1-.6 2.8-1.1 5.6-1.4 8.4-.3 2.7-.4 5.5-.1 8.3.3 2.5.7 5 1.2 7.5-.1.1-.3.2-.4.3 0 .7.1 1.3.3 2v-.2 1.3c-.2-1.5-.8-3-1.1-4.5-.5-2.4-1.1-4.8-1.6-7.3-.6-3-1.1-6.1-1.1-9.2.1-.4.1-.8.1-1.2 0-.4.2-.7.1-1.1-.2.1-.4.3-.5.6-.2.6-.3 1.3-.2 2 .4 1 .5 1.9.5 2.8zM15.6 182.4c1.4 3.3 2.3 6.7 2.8 10.2.4 2.8.7 5.6 1 8.4 0 1 .1 1.9.1 2.9 0 1.8.1 3.5.1 5.3-.1 1.4-.2 2.7-.2 4.1-.1 2.4-.1 4.9-.1 7.4 0 1-.2 2.1-.3 3.1-.2 2.9-.1 5.9.1 8.8h.9c-.2-1.8-.3-3.7-.2-5.5 0-1.6 0-3.2.1-4.8.2-1.5-.1-3 .1-4.4 0-.1-.1-.2-.1-.3 0-1.1.2-2.3.1-3.4.1-.6.1-1.2.2-1.8.2-2.8.6-5.5.9-8.3.4-3 .8-6 1-9.1.1-3.1 0-6.3-.4-9.4-.1-.9-.2-1.9-.5-2.8h-.4c0 2.2.3 4.4.3 6.6.1 2.6.1 5.2-.2 7.8-.3 3-.7 6-.9 9-.1-1.3 0-2.5-.1-3.8 0-.9 0-1.8-.1-2.8 0-.8-.1-1.7-.1-2.5-.4-5.2-1.2-10.6-3.3-15.4-.7-1.8-1.6-3.5-2.7-5h-.4c0 .6.3 1.1.6 1.6.6 1.4 1.2 2.7 1.7 4.1zm66.2 17.2c-.5.3-1.2.7-1.3 1.3h.3c.7-.6 1.6-.9 2.5-.9 1.7-.1 3.4-.4 5.2-.6 1.1-.2 2.2-.2 3.2-.5 0-.1 0-.2.1-.4-2.1.2-4.2.4-6.3.5-1.3.2-2.5.2-3.7.6zm-31.3 2.3c-2.1-.8-4.2-1.6-6.3-2.3-.7-.2-1.6-.4-2.3.1v.3c.6-.2 1.2-.1 1.7.1 2.3 1 4.8 1.7 7.3 2.5.6.2 1.2.5 1.8.6v-.4c-.7-.4-1.5-.6-2.2-.9zm109.6 13.2c-.1-1.4-.5-2.8-.7-4.2-.2-1.2 0-2.4 0-3.5.2-.5.3-1 .3-1.4h-.3l-.3.6c-.5 1.8-.6 3.6-.3 5.4.3 1.8.7 3.5.8 5.3.2 2.2.3 4.5.2 6.8v-.2c-.1.5-.2 1-.2 1.5h.3c.1-.5.3-.9.3-1.4.1-.5.1-1.1.2-1.6 0-2.5-.1-4.9-.3-7.3zm-144-.5c0-.4 0-.8-.1-1.2-.4-2.7-.9-5.4-1.7-8-.6-1.9-1.5-3.7-2.5-5.4-.5-.8-1-1.7-1.7-2.4h-.3c.1.5.4.9.6 1.3.9 1.7 1.8 3.4 2.5 5.1 1.2 2.7 1.9 5.6 2.4 8.5.2 1 .3 2 .5 3 0 1.1.1 2.2-.2 3.3h.4c.3-.9.4-1.8.3-2.8-.1-.5-.1-.9-.2-1.4zm120.8 7.4c-1.1.6-2.2 1.2-3.4 1.8-1.7.7-3.5 1.3-5.2 2.1-1 .5-1.9 1.2-2.7 2v.3c.2 0 .4-.1.6-.2.8-.6 1.6-1.1 2.5-1.4 1.3-.5 2.6-1 3.9-1.4 1.2-.5 2.3-1.1 3.5-1.8 1.4-.9 2.9-1.7 4-3 .2-.2.1-.4.1-.6h-.3c-.8.9-1.9 1.6-3 2.2zm-103.7 1.5c-1.1-.8-2.4-1.3-3.5-2-.3-.1-.5-.1-.8 0v.3c.2.1.4.1.7.2 1 .9 2.3 1.5 3.3 2.4 1.8 1.5 3.4 3.1 5.2 4.5.5.3.9.8 1.5.9v-.4c-2.3-1.9-4-4.2-6.4-5.9zm22.5 9c.2-.6.4-1.2.7-1.7.5-1 1.1-2.1 1.7-3.1 1.1-1.7 2.2-3.4 3.5-5 1.3-1.5 2.9-2.6 4.4-3.8 1.7-1.4 3.7-2.6 5.7-3.6.7-.4 1.5-.7 2.3-1 1.5-.7 3-1.3 4.6-1.8 2-.5 4.1-.9 6.2-1 1.4-.1 2.7-.3 4.1-.3 1.9 0 3.8-.1 5.7.2 1.3.3 2.5.4 3.8.8 1.1.4 2.2.6 3.2 1.1 1 .5 2.1.9 3.1 1.4 1.1.4 2 1.1 3 1.7 1 .6 2.1 1.2 3 1.9.8.6 1.4 1.3 2.1 2 .6.6 1 1.5 1.6 2.1.8.8 1.3 1.9 1.9 2.9.5 1.2 1.1 2.4 1.6 3.5.4.8.6 1.8 1 2.6.1.3.2.7.3 1h1c0-.1 0-.1-.1-.2-.3-1-.7-2-1-3-.6-1.3-1.3-2.6-1.8-3.9-.3-.8-.8-1.4-1.2-2.1-.4-.8-1.2-1.4-1.7-2.2-.6-1-1.5-1.8-2.3-2.6-1.5-1.4-3.4-2.3-5.2-3.4-1.1-.6-2.3-1.1-3.4-1.6-1.1-.4-2.2-1-3.3-1.3-1.3-.3-2.5-.7-3.8-1-1.2-.2-2.3-.5-3.5-.5-1.7-.2-3.4-.1-5.1-.1-1.6.1-3.2.3-4.9.4-1.2.1-2.3.4-3.5.6-2.6.6-5 1.8-7.5 2.8-2.1 1-4.2 2.2-6 3.6-1.5 1.2-3.1 2.4-4.5 3.7-.7.6-1.2 1.4-1.8 2.1-1.4 2-2.9 4-4.1 6.2-.4.7-.7 1.5-.9 2.3h1.1z"/><path fill="#be7894" d="M86.3 213.2c.3-.1.7-.2 1 0 0 .1 0 .3-.1.4-.6.5-1.4.9-2.1 1.3-.2.1-.3.2-.4.3.9.5 1.9 1.1 2.8 1.8.2.1.1.4.1.6-1.2-.1-2.3-.8-3.3-1.4-.3-.1-.6-.6-.9-.3-.1.7.4 1.6-.2 2.3-.2 0-.4-.1-.6-.1 0 .2-.1.3-.1.5 0 0-.1.1-.2.1 0-.6.1-1.1.1-1.7v-2.6c0-.3 0-.6.2-.8.2-.2.5.1.5.3.1.4.1.7.1 1.1 1-.8 1.9-1.6 3.1-1.8zm4.9.1c.3-.2.8 0 .7.4 0 .9-.3 1.9-.5 2.8-.1.4-.2.8-.5 1-.2.2-.4.1-.6 0-.1-.7.2-1.4.3-2 .3-.8.4-1.5.6-2.2zm4.2.4c.1-.3.4-.1.6 0 .1 1.2-.4 2.4-.9 3.5.8.6 1.8.9 2.8 1.1.5.1.9.6.7 1.2-.4 0-.7-.3-1.1-.4-1.1-.3-2.2-.6-3.1-1.3-.5-.3-.2-.9 0-1.3.4-.9.5-1.9 1-2.8zm-19.5 1.6c.4-.4 1-.7 1.6-.7.8 0 1.5.9 1.4 1.7-.1.5-.5.8-.9 1.1.9.3 1.9.3 2.8.7.4.2.3.9-.2.8-1.1-.2-2.2-.5-3.3-.7.2.6.3 1.3.1 1.9H77c-.2-.2-.3-.6-.3-.8-.2-.9-.6-1.7-.7-2.6-.2-.6-.3-1-.1-1.4z"/><path fill="#dc9eb5" d="M76.7 215.7c.3-.1.6-.3 1-.2.3.2.5.6.3.8-.2.3-.6.5-1 .6-.2-.4-.3-.8-.3-1.2z"/><path fill="#be7894" d="M102.4 216.2c.2-.2.5-.2.7 0 .2.6-.2 1.1-.5 1.5-.3.6-.9 1.2-1.2 1.8.9.5 1.9 1 2.6 1.7.1.1.1.3.1.5-.2.3-.6.2-.8 0-.5-.3-1-.7-1.6-1-.5-.3-1-.4-1.3-.9-.1-.6.3-1.1.6-1.6.5-.7.8-1.4 1.4-2zm-31.6 1.2c.5-.2.9-.7 1.5-.5.1.2.2.5-.1.6-.7.5-1.6.8-2.3 1.3.2.3.3.6.5.9.6-.6 1.4-.9 2.2-1.3.2-.1.4-.1.6 0 0 .2.1.5-.2.6-.8.5-1.6.9-2.2 1.5.2.4.5.8.7 1.2.8-.5 1.7-.9 2.6-1.3.2 0 .8-.2.8.2-.2.3-.4.5-.7.7-1.1.4-2 1.4-3.1 1.7-.2.1-.5 0-.6-.3-.2-.4-.1-.8-.2-1.3-.1-.3-.4-.6-.5-.9-.1-.3-.2-.7-.4-1-.1-.2-.4-.4-.3-.7.4-.7 1.1-1.1 1.7-1.4zm-5.6 15.1c.5-.9 1-1.7 1.7-2.4.8-.9 1.6-1.8 2.6-2.5.7-.6 1.4-1.2 2.1-1.7 1-.7 2-1.4 3.1-2 .7-.4 1.5-.7 2.2-1.1 2.4-1.1 4.9-2.1 7.5-2.6 2.7-.7 5.6-.6 8.4-.1 1.5.3 3 .6 4.4 1.1 1.1.4 2.2 1 3.1 1.7.7.5 1.4.9 2 1.4 1.6 1.3 3 2.8 4.1 4.5.8 1.2 1.6 2.4 2.3 3.7h1c-.7-1.3-1.5-2.6-2.3-3.9-1.7-2.5-3.9-4.7-6.5-6.3-1.1-.8-2.4-1.5-3.7-1.9-1.2-.4-2.4-.6-3.7-.9-1-.3-2.1-.3-3.1-.4-1.5-.2-3-.1-4.5.1-1.6.3-3.2.6-4.8 1.1-1.8.6-3.6 1.4-5.4 2.2-2.3 1.1-4.5 2.5-6.4 4.3-1.6 1.2-2.9 2.7-4 4.3-.3.5-.6.9-1 1.4h.9zm1.4-11.8c0-.2.2-.5.4-.5.2.1.4.2.4.5.1.8.1 1.6.2 2.4.1.8.3 1.6.1 2.3-.1.4-.6.5-.9.3-1.1-.4-2.2-.9-3.2-1.6-.3-.1-.3-.5-.2-.7.5-.1.9.1 1.3.3.7.3 1.4.7 2.1.9 0-1.3-.2-2.6-.2-3.9z"/><path fill="#be7894" d="M83.7 224.6c.4-1.3 1.5-2.3 2.8-2.7.4-.1.8-.1 1 .2-.1.4-.6.4-1 .5-1 .4-1.8 1.3-2 2.3-.2.9-.3 1.8-.6 2.7-.1.2-.4 0-.4-.2-.2-.9 0-1.8.2-2.8zm25.9-2.2c.5-.1 1 .1 1.2.6.3.7-.4 1.6-1.1 1.6-.8.1-1.6-.8-1.3-1.6.2-.5.8-.5 1.2-.6zm-23 10.1h.5c0-.2-.1-.4-.2-.6-.3-.8-.3-1.6-.5-2.3-.2-1.1-.6-2.3-.4-3.4.1-.6.1-1.4.8-1.6.8-.3 1.6-.4 2.4-.4.8 0 1.4.6 2.1.7 1.1.2 2.2.3 3.3.5.9.2 1.6.7 2.4 1.1.5.2.7.7.8 1.2-1.7.2-3.4 0-5 .2-.3 0-.7.1-.8.5-.1.7.1 1.3.1 2 0 .8 0 1.5.1 2.3h.9c0-.5 0-1-.1-1.5 0-.8-.1-1.6 0-2.4.9-.2 1.9-.1 2.8-.1.8 0 1.5-.1 2.3-.1.3 0 .6-.2.5-.5-.2-.7-.4-1.5-1.1-1.9-1-.4-1.8-1.2-2.9-1.5-.9-.2-1.9-.3-2.9-.4-.7-.1-1.3-.7-2.1-.7-1.1-.1-2.2.3-3.1.8-.7.4-.8 1.2-1 1.9-.3 1.6.3 3.1.6 4.7.1.4.3.9.5 1.5zm-18.3 0c.5-.8 1.1-1.5 1.8-2.2.5-.7 1.3-1.1 1.9-1.6 1.1-.8 2.3-1.6 3.5-2.3.8-.4 1.8-.6 2.7-.2.8.3 1.4.9 2 1.4 1.5 1.2 2.9 2.6 4.2 4l.9.9h1.1l-.1-.1c-.6-.8-1.3-1.6-2-2.3-1.4-1.5-3-2.9-4.8-4-.9-.5-1.9-.9-2.9-.7-.8.1-1.6.5-2.3.9-1.2.6-2.2 1.5-3.3 2.2-.6.5-1.3 1-1.6 1.8-.4.4-.8.7-1.1 1.2-.2.3-.5.7-.7 1h.7zm-6.8-7.3c.5-.2 1.1.1 1.6.2 1.3.5 2.1 2.1 1.8 3.5-.2.6-.5 1.2-1.1 1.6-.6.3-1.3.2-1.8-.1-.8-.4-1.4-1.3-1.7-2.2-.4-1.2 0-2.7 1.2-3zm36.2.2c.5 0 .9.2 1.4.4 1.2.4 2.2 1.1 3.1 2 .7.7 1.5 1.3 2.1 2.1.4.7 1.1 1.3 1.2 2.1.1.2-.1.3-.2.4-.1-.3-.3-.5-.6-.7-.8-.7-1.3-1.6-2.2-2.3-.8-.7-1.6-1.4-2.4-2-.8-.6-1.7-.9-2.4-1.6v-.4z"/><path fill="#be7894" d="M88.4 225.8c.3-.2.8-.1.9.2.1.3.1.6-.1.8-.2.3-.6.2-.9 0-.5-.1-.3-.8.1-1z"/><path fill="#dc9eb5" d="M61.6 226.1c.6 0 1.1.2 1.6.6.5.5.9 1.2.7 1.9-.1.4-.3.8-.7 1-.5.1-1.1-.2-1.4-.6-.5-.6-.9-1.4-.7-2.1 0-.4.2-.7.5-.8z"/><path fill="#be7894" d="M113.6 226.9c.4-.5 1.1-.2 1.5.2.4.4.8.8.8 1.4 0 .4.2.8 0 1.2-.1.3-.6.3-.6 0-.2-.4-.1-.9-.2-1.4-.1-.1-.3-.1-.4-.2-.1-.3-.2-.5-.5-.6-.6.9 0 2.1-.6 3.1-.5.7-1.5.8-2.3.5-1-.4-1.4-1.7-1.2-2.7.1-.4.7-.4.9-.1.1.5-.2 1 .1 1.4.3.5 1 .8 1.5.4.3-.3.3-.8.3-1.2 0-.6.2-1.4.7-2zm-24.2 1.6c.5-.2.8-.7 1.4-.5.1.6-.3 1-.8 1.3-.5.3-1.2.3-1.8.2-.3-.1-.7-.3-.6-.7.6 0 1.2 0 1.8-.3zm-16.9 4c1.4-1.3 3-2.5 4.6-3.6.3-.2-.1-.7-.4-.5-1.5.5-2.7 1.7-3.9 2.7-.5.5-1 .9-1.5 1.4h1.2zm24.4-3.3c.4.4 1 .6 1.5 1 1 .6 2 1.4 3.1 2 .2.1.4.3.6.4h1.4s0-.1-.1-.1c-.3-.5-.8-.9-1.3-1.2-.9-.6-1.9-1.2-2.9-1.7-.8-.4-1.6-.8-2.4-.7.1 0 0 .2.1.3zm-20.2 3.3 1.5-1.2c.3-.3.9-.5.7-1-.4-.3-.9.1-1.2.3-.9.6-1.8 1.2-2.6 1.9h1.6zm17.7-.8c.5.3.9.6 1.4.9h2c-.5-.3-1-.6-1.6-.9-.6-.3-1.3-.7-2-.5.1.1 0 .3.2.5zm-34.2.8c-.1-.5-.6-1-1.2-.8-.3.1-.6.5-.7.8h1.9zm20 0v-.1c-.2 0-.4 0-.5.1h.5z"/></g></svg>