<svg xml:space="preserve" xmlns:xlink="http://www.w3.org/1999/xlink" enable-background="new 0 0 180 180" viewBox="0 0 180 180" xmlns="http://www.w3.org/2000/svg"><defs><path id="a" d="M0 0h180v180H0z"/></defs><use xlink:href="#a" fill="#f21957" overflow="visible"/><clipPath id="b"><use xlink:href="#a" overflow="visible"/></clipPath><g clip-path="url(#b)"><path fill="#dc9eb5" d="M99.5 21.3c1-.5 2.1-.5 3.1-.2.5.2 1 .6.9 1.2-.2 1.4-.9 2.7-1.6 4 1.5-1.4 3.3-2.6 5.2-3.3 1.4-.5 2.9-.9 4.4-.9 1.6 0 3.3.2 4.8.7 1.3.5 2.6 1.1 3.6 2.1 1.9 1.7 3.1 4.2 3.3 6.8-.1 2.1-.6 4.3-1.5 6.2-.6 1.2-1.2 2.5-2.1 3.6-.9 1.3-2.1 2.4-3.1 3.8-.4.6-.9 1.1-1.1 1.7-.3 1-.9 1.8-1.3 2.7-.7 1.3-1.3 2.7-1.8 4.2-1.4 4.8-2.6 9.8-3.8 14.7-.6 2.6-1.3 5.2-2.1 7.8-1.1 3.8-2.7 7.5-4.8 10.9-1.3 2.1-2.7 4.2-4.4 6-1.9 1.9-4 3.7-6.3 5.1-1 .6-2.1 1.1-3.3 1.3-1.7.4-3.4.6-5.1.9-2 .3-4 .1-5.9-.4-1.5-.4-2.9-.9-4.3-1.5-1.7-.8-3.3-1.9-4.6-3.2-.9-.9-1.9-1.8-2.7-2.8-1.9-2.9-3.2-6.2-4.6-9.4-.4-1.1-.8-2.3-1.3-3.4-.8-2.3-1.3-4.7-1.9-7-.6-2.9-1.1-5.8-1.1-8.8 0-1.9.1-3.8.5-5.6.4-2.3 1.7-4.4 3.2-6.2.6-.6 1.2-1.2 1.9-1.7.2-.1.3-.5.4-.7.3-.9.7-1.8 1.3-2.5.9-1.1 2-2 3.2-2.7 1.2-.7 2.4-1.5 3.7-2.2 1.7-.8 3.2-2.1 4.6-3.3.9-.8 1.8-1.7 2.7-2.4 1-.9 1.9-1.9 3.1-2.4.4-.2.8-.4 1.2-.2.3.1.5.4.5.7 0 .5-.2 1-.5 1.5 1.5-1.1 3.1-2.2 4.6-3.3 1.6-1.2 3.2-2.4 4.6-3.8 1.3-1.3 2.5-2.7 3.9-4 1.2-1.8 2.7-3.1 4.5-4z"/><path fill="#38312d" d="M21.5 170.1c1.4.1 2.7.5 4 .8 1.1.2 2.1.6 3.2 1 1.3.6 2.5 1.1 3.7 1.8 1.8 1 3.4 2.3 5 3.6l3.6 3.6c.7.8 1.3 1.7 1.9 2.6 1.3 1.8 2.5 3.8 2.9 6.1.2 1.1.3 2.3 0 3.4-.1.5-.2 1.1-.4 1.6-.3.7-.8 1.4-1.1 2.1-.9 1.8-1.9 3.5-2.9 5.3-.5.8-1.1 1.6-1.6 2.4-.8 1.2-1.5 2.5-2.3 3.7-1 1.7-2.2 3.3-3.1 5-.3.5-.7 1-.9 1.5h.2c.4 1.4.9 2.7 1.2 4.1.4 1.5.9 3 1.2 4.5.2 1.4.5 2.7.8 4.1.5 2.6.6 5.3.9 7.9.3 2.3.3 4.6.5 6.8 0 .2 0 .4.1.6H145c.6-1.2 1.3-2.5 1.8-3.8.7-1.7 1.2-3.5 1.7-5.4.4-1.5.6-3 .3-4.5-.2-1.1-.3-2.2-.3-3.3-.1-.5-.2-.9-.4-1.4-.8-1.6-1.1-3.4-1.6-5.1-.3-1.1-.3-2.2-.8-3.2-.2-.4-.3-.9 0-1.3.7-.3 1.5-.5 2.3-.4 1.4.1 2.8.1 4.2.2.3-1.2.6-2.5.9-3.7.6-2.5.9-5 1.2-7.5 0-1.1.2-2.1.1-3.2-.1-.7-.1-1.5-.2-2.2-.1-1.3-.5-2.5-.9-3.7-.6-2.1-1.5-4.1-2.7-6-.7-1-1.5-1.9-2.3-2.9-.8-.8-1.6-1.6-2.5-2.3-1-.9-2.2-1.4-3.2-2.2-.6-.4-1.2-.9-1.8-1.3-1.1-.8-2.3-1.5-3.5-2.3-1.5-1-2.8-2.3-4.3-3.4-1.8-1.4-3.4-3.1-5.2-4.5-.8-.6-1.6-1.3-2.4-1.9-1.6-1.2-3.4-2.3-4.6-3.9-.3-.8-.9-1.4-1.4-2.1-1.3-1.6-2.7-3.2-4.1-4.7-.4-.4-.8-.9-1.4-.6-.2-.2-.5-.4-.7-.6h-.2c0 .2 0 .4.1.5.3.4.7.7 1 1.1 0 .2-.1.5.1.6.3.3.4.7.5 1h-.2c-.4-.6-1-1.1-1.7-1.3-1-.5-2.2-.7-3.3-1-1.6-.5-3.3-1.1-4.9-1.7-6.8-2.4-13.2-5.6-19.8-8.5-1.9-.9-3.8-1.8-5.8-2.6-1.4-.5-2.8-.8-4.3-.9-.3 0-.6-.1-.9-.2-.8-.4-1.6-.5-2.5-.5.5-.3.9-.7 1.1-1.2.4-.2.8-.4.8-.9.7 0 1.3.1 2 .3.2.1.4 0 .7-.1 0-.3.1-.6-.2-.8-.6-.5-1.4-.4-2.2-.4-.3-.5-.9-.2-1.4-.2-.2-.1-.4-.3-.6-.2-.8.1-1.6.4-2.4.6-1.1.4-2.2.7-3.3 1.2-1.6-.2-3.1-.6-4.7-.9-1-.2-2-.6-3-.9-1.4-.4-2.8-.8-4.2-1-1.8-.2-3.6-.2-5.4-.2-1.4.1-2.8.2-4.2.5-1.1.2-2.2.5-3.2.9-3.4 1-6.5 3.1-9 5.6-1.6 1.7-3 3.6-4.5 5.5-2.1 2.6-3.7 5.4-5.4 8.3-1.2 2.2-2.6 4.4-3.9 6.5-1.1 1.8-2.1 3.5-3.2 5.2.8-.1 1.6-.1 2.4-.1 1.3.4 2.7.4 4 .5z"/><path fill="#dc9eb5" d="M114.6 159.5c.1.1.1.1 0 0z"/><path fill="#f2844f" d="M11.8 242.9s0-.1.1-.1c1-1.5 2.2-3 3.3-4.5 3-3.8 5.9-7.7 8.9-11.6 1.3-1.7 2.7-3.3 4-5 1.6-2 3.1-4 4.7-6 .2-.3.6-.6.7-.9.2-.6.6-1 .9-1.5 1-1.7 2.2-3.3 3.1-5 .7-1.3 1.5-2.5 2.3-3.7.5-.8 1.1-1.6 1.6-2.4 1-1.7 1.9-3.5 2.9-5.3.4-.7.8-1.4 1.1-2.1.3-.5.3-1.1.4-1.6.3-1.1.2-2.3 0-3.4-.4-2.3-1.6-4.2-2.9-6.1-.6-.9-1.2-1.8-1.9-2.6l-3.6-3.6c-1.5-1.4-3.2-2.6-5-3.6-1.2-.7-2.5-1.2-3.7-1.8-1-.5-2.1-.8-3.2-1-1.3-.3-2.6-.7-4-.8-1.4-.2-2.7-.1-4.1-.1-.8 0-1.6 0-2.4.1-1.8 3-3.7 5.9-5.5 9-1.1 1.8-2 3.7-3.1 5.5-2.4 4.2-4.8 8.3-7 12.6-2.2 4.5-10.6 22-12.7 26.2-1.1 2.4-2.2 4.8-3.1 7.3-.9 2.4-1.8 4.7-2.7 7.1-.7 1.7-1.2 3.4-1.8 5.1h32.7zm133.8-28c.7-.3 1.5-.5 2.3-.4 1.4.1 2.8.1 4.2.2-.5 2-1.3 3.9-2 5.9-.4 1.2-1 2.3-1.3 3.6-.2.6-.3 1.2-.4 1.8-.1-.5-.2-.9-.4-1.4-.8-1.6-1.1-3.4-1.6-5.1-.3-1.1-.3-2.2-.8-3.2-.1-.5-.2-1.1 0-1.4z"/><path fill="#4e3e37" d="M146.5 215.6c.4 0-.2.3 0 0z"/><path fill="#e56324" d="M113.8 45c.7-.3 1.5-.4 2.3-.6v.4c.7 1 1.1 2.1 1.5 3.2 1.2 3 1.8 6.2 2.8 9.2-1.9.2-3.8.2-5.7.2-1 0-2.1-.1-3.1-.2-1.5-.1-3-.3-4.4-.5-1.6-.2-3.1-.8-4.6-1.3-1.3-.4-2.6-1.1-3.9-1.7-2.6-1.2-5.1-2.7-7.7-4-1.4-.7-2.8-1.2-4.3-1.6-1.6-.4-3.2-.3-4.8-.2.4-.4.9-.7 1.4-.9.6-.2 1.2-.2 1.8-.3 1.3-.2 2.6-.1 3.9 0 .8 0 1.6.2 2.4.2.8 0 1.7.1 2.5.1h9.9c.8 0 1.7 0 2.5-.1 2.6-.3 5.1-.9 7.5-1.9z"/><path fill="#f2844f" d="M81.9 47.9c1.6-.1 3.2-.2 4.8.2 1.5.4 2.9.9 4.3 1.6 2.6 1.3 5.1 2.8 7.7 4 1.3.6 2.5 1.2 3.9 1.7 1.5.5 3 1.1 4.6 1.3 1.5.3 2.9.5 4.4.5 1 0 2.1.2 3.1.2 1.9 0 3.8.1 5.7-.2.3 1.1.7 2.1.9 3.2.6 2.4 1 4.7 1.6 7.1.5 1.8.8 3.6 1.1 5.5.5 2.3.9 4.5 1.3 6.8.4 2.8.8 5.7 1.1 8.5.1 1.4.4 2.7.4 4.1 0 1.7.3 3.3.4 5 0 1.8.1 3.6-.3 5.4-.4 1.9-1.2 3.7-2.2 5.4-.6 1.1-1.4 2.2-2.2 3.2-.3 0-.6.1-.8.3-.7.5-1.5 1-2.3 1.3-2.3.8-4.6 1.5-7 2-2.8.7-5.6 1-8.5 1.1-.7 0-1.5 0-2.2-.2-1.4-.4-2.9-.8-4.3-1.2-.3-.1-.7-.1-1-.1-.2.7.3 1.4.6 2 .5 1 1.3 1.9 1.7 2.9.2.4.7.7.9 1.1.9 1.8 1.8 3.6 3 5.2.7.9 1.2 1.8 1.8 2.7 1.2 1.8 3 3 4.7 4.4 1.6 1.4 3.1 2.7 4.6 4.1.6.5 1.1 1.1 1.7 1.5 0 3.3 0 6.6-.1 9.9v11c-.1.6-.9.8-1.4.6-2.2-.5-4.4-1.2-6.7-1.7-2.9-.6-5.8-1.3-8.6-2-2.1-.5-4.2-1.1-6.3-1.6-2.6-.7-5.3-1.2-7.7-2.3-2.7-1.1-5-2.8-7.4-4.4-1.1-.8-2.2-1.8-3.3-2.6-.8-.5-1.5-1.2-2-2-.5-.4-.1-.9 0-1.3.3-1 .5-2 .8-3 .8-3.2 1.1-6.4 1.5-9.6.2-1.2.3-2.4.3-3.7.1-2.9.5-5.7.8-8.6 1.2-.1 2.4-.5 3.5-.9 1.2-.4 2.3-1 3.4-1.5.6-.4 1.4-.9 1.2-1.7-.2-1-.6-1.9-.9-2.8-.7-1.8-1.1-3.7-1.8-5.5-.6-1.7-1.1-3.5-1.7-5.2-.4-1.7-1.1-3.2-1.6-4.9-.1-.4-.2-.9-.5-1.1.3-1 .2-2 0-3-.1-1.3-.7-2.4-1.2-3.6-.7-2.2-1.4-4.4-2-6.7-.3-1-.4-2-.6-3-.4-2.3-1-4.6-1.3-7-.1-1.1-.2-2.2-.1-3.4.6-.7 1.2-1.5 1.7-2.3 1-1.6 2-3.2 2.9-4.9.8-1.5 1.5-3 2-4.6.5-1.4.8-2.8 1.3-4.2.5-1.2 1.3-2.2 2.3-3z"/><path fill="#e56324" d="M113.9 81.6c.4-.1.9-.5 1.3-.2-.3.4.2.8.1 1.2-.1.9.3 1.9 0 2.8-.1.3-.4.1-.6 0-.6-.3-.8-.9-1.2-1.3-.4-.6-1-1.1-1.3-1.7.5-.4 1.1-.5 1.7-.8z"/><path fill="#f95939" d="M66.6 89.1c.8-.2 1.7-.1 2.5 0 .9.1 1.8.3 2.6.7 1 .5 2 .9 2.7 1.7.7.8 1.6 1.4 2.4 2 .3.3.4.8.5 1.1.4 1.7 1.1 3.2 1.6 4.9.6 1.7 1.1 3.5 1.7 5.2.7 1.8 1.1 3.7 1.8 5.5.3.9.7 1.8.9 2.8.1.8-.6 1.3-1.2 1.7-1.1.5-2.2 1.1-3.4 1.5-1.1.4-2.3.8-3.5.9 0-.2 0-.5-.1-.7-1.5.1-3.1-.1-4.6-.4-1.4-.4-2.9-.8-4.1-1.7-2.4-1.5-4.6-3.4-6.1-5.7-1.3-2.1-2.2-4.4-2.4-6.8-.2-1.6-.1-3.2.3-4.7.3-1.4.9-2.6 1.7-3.7.8-1.2 1.9-2.1 3.1-2.8 1-.7 2.3-1.3 3.6-1.5z"/><path fill="#e56324" d="M121.6 111.7c.2-.2.5-.3.8-.3-1.6 1.9-3.5 3.5-5.4 5.2-.7.6-1.5 1-2.3 1.4.1 1.7.2 3.4.4 5.2 0 3.2.2 13.5.1 15.4-.6-.5-1.1-1-1.7-1.5-1.5-1.4-3.1-2.7-4.6-4.1-1.6-1.4-3.5-2.6-4.7-4.4-.6-.9-1.2-1.9-1.8-2.7-1.2-1.6-2.1-3.4-3-5.2-.2-.4-.7-.7-.9-1.1-.4-1.1-1.2-1.9-1.7-2.9-.3-.6-.8-1.3-.6-2 .3 0 .7 0 1 .1 1.4.4 2.9.8 4.3 1.2.7.2 1.5.1 2.2.2 2.9 0 5.7-.4 8.5-1.1 2.4-.5 4.7-1.2 7-2 .9-.5 1.7-.9 2.4-1.4z"/><path fill="#fcb897" d="M82.9 52.1c.3-.5.6-1.1 1.3-1 0 .6-.5.9-.7 1.3-.6.8-.9 1.8-1.3 2.7-.1 0-.3-.1-.4-.1.3-1 .6-2 1.1-2.9z"/><path fill="#b65a35" d="M111.2 56.8c1.2-.4 2.4-.8 3.7-.9 1.1 0 2.3-.1 3.3.3.5.1.9.4 1.4.6 0 .1 0 .3.1.4.1 0 .3.1.4.1.3.2.1.6.2.9-1 0-2-.1-3.1.1-1.1.1-2.2.3-3.2.6-1.8.6-3.7 1-5.4 1.9-.1 0-.3-.1-.4-.1-.2-.1-.1-.3-.2-.5 0-.7.3-1.5.8-2 .8-.6 1.6-1.1 2.4-1.4z"/><path fill="#ce9077" d="M119.6 56.8c.2.1.4.2.5.5-.1 0-.3-.1-.4-.1 0-.1 0-.3-.1-.4z"/><path fill="#ca886d" d="M108.3 60.7c.1.1.3.1.4.1v1.1l-.3-.6v1.6c-.2-.8-.1-1.5-.1-2.2z"/><path fill="#b65a35" d="M87.3 61.8c2.1-.9 4.5-.8 6.7-.3.9.2 1.9.4 2.7.9 0 .3 0 .6-.3.8-1 .6-2.2.9-3.4 1.3-2.1.7-4.3 1.1-6.5 1.8-2 .6-3.9 1.4-5.8 2.2-.6.2-1.2.6-1.9.6.1-.4.3-.8.6-1.1 1-1.4 2.3-2.6 3.7-3.8 1.4-.8 2.7-1.8 4.2-2.4z"/><path fill="#17110e" d="M118.1 66.1c.4-.2.9.1 1.2.4.4.6.4 1.2.5 1.8.1.6.2 1.4-.3 1.9-.4.4-1.1.3-1.4-.2-.5-.8-.7-1.9-.7-2.9.1-.3.3-.8.7-1z"/><path fill="#fcb897" d="M108 69.6c-.1-.2.1-.4.2-.6.4.8.7 1.6 1.2 2.3 1.2 1.7 2.6 3.3 4.5 4.3v.3c-.8-.1-1.5-.7-2.2-1.2-1-.8-1.9-1.7-2.6-2.8-.5-.6-1-1.4-1.1-2.3z"/><path fill="#17110e" d="M90.2 72.2c.4-.2.9 0 1.1.4.3.4.4 1 .5 1.5.1.5.1 1-.2 1.5-.2.3-.7.5-1 .3-.7-.3-.9-1-1.1-1.7-.1-.4-.2-.8-.1-1.3.2-.3.5-.6.8-.7z"/><path fill="#fcbfa1" d="M82.9 77c.5.3.7.9 1.1 1.3.7.9 1.6 1.8 2.5 2.6.6.5 1.3.9 2 1.1 0 .1-.1.2-.1.3-1.2-.2-2.2-.9-3.1-1.7-.9-.8-1.8-1.7-2.3-2.8-.1-.2-.1-.5-.1-.8z"/><path fill="#db9db4" d="M109.8 79.2c0-.5.5-.8.9-.9 0 .7-.2 1.3-.3 1.9-.4-.1-.7-.5-.6-1z"/><path fill="#47403d" d="M110.7 78.3c.3.1.6.1.8.3.3.4.2 1-.2 1.4-.2.2-.6.2-.9.2.1-.6.3-1.2.3-1.9z"/><path fill="#fdd1bb" d="M107.1 80.2c0-.3.1-.5.3-.8.1 1.1.4 2.2 1.1 3.1.3.3.6.6.8.9-.4-.1-.7-.2-.9-.5-.8-.7-1.3-1.7-1.3-2.7z"/><path fill="#f95939" d="M94.8 79.9c1.3-.3 2.6 0 3.8.5 1.4.6 2.7 1.6 3.6 2.9.7 1.2 1.2 2.6.9 3.9-.1 1.2-.7 2.4-1.6 3.3-1.7 1.7-4.4 2.6-6.7 1.8-1.4-.5-2.8-1.3-3.8-2.4-.9-1-1.5-2.3-1.5-3.7.1-1.6.9-3.1 1.9-4.3.9-1 2.1-1.7 3.4-2z"/><path fill="#fdc4a9" d="M100 85.2c.2 1 .1 2.2-.4 3.1.1-.5.3-1 .4-1.6.1-.4 0-1 0-1.5z"/><path fill="#fba594" d="M96.1 86.8c.2 0 .1.4-.1.4-.2-.1-.1-.3.1-.4z"/><path fill="#b95d38" d="M109.4 67.5c.5 1.3 1 2.7 1.8 3.8.7 1.2 1.9 2 3 2.9.7.6 1.5 1.1 2.3 1.6.4.3.9.4 1.3.7.4.6.3 1.3 0 1.9-.4.8-1 1.4-1.6 2-.6.6-1.4 1-2.2 1.3-.3.1-.5.3-.8.4v.3c.3-.1.7-.2 1-.4 1.1-.3 2.1-1 2.9-1.9.6-.7 1.3-1.3 1.5-2.2.2-.7.1-1.4-.4-2-.9-.7-1.8-1.4-2.8-2-.8-.7-1.6-1.3-2.4-2-.6-.5-1-1.1-1.5-1.8-.6-.9-1-1.9-1.4-2.8-.5-1.1-.7-2.3-1-3.4-.2-.7-.3-1.5-.5-2.2l-.3-.6v1.6c0 .7.2 1.3.3 2 .3 1 .4 1.9.8 2.8zm12 3.3c-1 .7-2.1 1.1-3.3 1.5v.3c1.2.1 2.3-.4 3.1-1.2.2-.1.2-.3.2-.6zm-31.7 7.6c-.3-.1-.6-.1-.9 0 .2.1.3.3.5.4 1.2.5 2.4 0 3.4-.6.4-.3.9-.6.9-1.1-.2 0-.4.1-.6.2-.9.7-2.1 1.1-3.3 1.1z"/><path fill="#b95d38" d="M113.7 80.4c.1-.2.1-.5-.1-.6-.2-.2-.6 0-.8.1-.6.3-1.2.8-1 1.5.7.1 1.5-.3 1.9-1z"/><path fill="#f95939" d="M119.5 87.9c0-.3.2-.6-.1-.8-.4-.3-.9-.3-1.4-.2-.3-.5-.7-.9-1-1.4-.3-.4-.6-.9-1-1.3-.1 1.1 1 1.9 1.5 2.7-1.6.2-3 .9-4.4 1.5-1.8.9-3.5 2.1-5 3.5-.5.5-.8 1.1-1.3 1.5-.3.2-.5.6-.6.9 1.7-.7 3.3-1.6 4.9-2.5 1.6-.9 3.2-1.7 4.9-2.5 1.2-.5 2.3-1.1 3.6-1.2 0 .1 0 .3.1.3-.4.2-.8.4-1.3.5-1.8.5-3.5 1.5-5.2 2.3-2.3 1.2-4.5 2.5-6.9 3.4-.1-.1-.2-.2-.2-.3l-.2.2c.7.2 1.5.1 2.2.1.6 0 1.2-.1 1.8-.2 2.8-.5 5.5-1.4 8.2-2.3.9-.3 1.8-.6 2.6-1.1.2-.1.6-.2.6-.6 0-.6-.2-1.1-.4-1.6-.4-.2-.8-.7-1.4-.9z"/><path fill="#b1412b" d="M116 89.5c1.1-.5 2.3-1.1 3.6-1.2 0 .1 0 .3.1.3-.4.2-.8.4-1.3.5-1.8.5-3.5 1.5-5.2 2.3-2.3 1.2-4.5 2.5-6.9 3.4-.1-.1-.2-.2-.2-.3 0 0 .1-.1.2-.1 1.7-.7 3.3-1.6 4.9-2.5 1.5-.8 3.1-1.6 4.8-2.4z"/><path fill="#ba748e" d="M96.7 32.3c-1.1.9-2.2 1.8-3.4 2.6-.6.4-1.3.7-1.8 1.3.8-.4 1.6-.9 2.3-1.4 1.4-1 2.8-2 4.1-3.2 1-.9 1.9-1.9 2.7-3 .8-1.1 1.5-2.4 1.6-3.8-.2.3-.3.7-.5 1.1-.4 1-1 1.9-1.6 2.8-1.1 1.3-2.2 2.5-3.4 3.6zm7.4 7.9c-2.5.2-5 .6-7.5 1-1.4.3-2.7.5-4 1-.5 0-1.1.2-1.4.7.7-.1 1.3-.3 2-.6.3 0 .6-.1.9-.1 1.8-.4 3.7-.6 5.5-.8 1.8-.3 3.5-.4 5.3-.7 1.2-.2 2.4-.6 3.5-1s2.1-1 3.1-1.7c.9-.6 1.6-1.4 2.2-2.2.7-.9 1.4-1.8 1.9-2.8.7-1.6.9-3.6.3-5.3-.2-.5-.3-1.1-.8-1.4.1.5.2.9.3 1.3.6 2.2.3 4.6-1 6.5-.8 1.1-1.6 2.3-2.7 3.2-1.7 1.3-3.7 2.2-5.8 2.7-.5.1-1.2.2-1.8.2z"/><path fill="#ba748e" d="M97 39c2.1-.3 4.2-.7 6.3-1.3 1.6-.5 3.2-1.3 4.6-2.2 1-.7 2-1.5 2.5-2.6.5-1 .7-2.2.5-3.3-.3-1.2-1.1-2.3-2.1-2.9-.4-.3-.9-.6-1.5-.6.2.4.7.6 1.1.7 1.3.8 2.2 2.4 2 3.9-.1 1-.5 2.1-1.2 2.9-.9 1.1-2.2 1.9-3.4 2.6-1.4.8-3 1.2-4.5 1.6-2.2.4-4.3.7-6.5 1-2.3.3-4.6.5-6.8 1.2-1.7.5-3.4 1-4.9 2.1-.2.1-.3.4-.2.6 1.4-.8 3-1.4 4.6-1.9 1.5-.4 3.1-.8 4.7-1 1.6-.3 3.2-.5 4.8-.8z"/><path fill="#ba748e" d="M119.2 30c-.1.3-.3.7-.2 1-.5 1.7-.5 3.6-1.3 5.2-.7 1.4-1.6 2.6-2.8 3.5-1.4 1.2-3.2 1.9-4.9 2.6-1 .4-2 .8-3 1-1.7.4-3.5.5-5.3.7-1.2.2-2.3.1-3.5.1-1.9 0-3.7 0-5.6.1-.6 0-1.1 0-1.7.1-.9 0-1.8.1-2.7.3-.2 0-.4.2-.6.4 1 0 2-.2 2.9-.3 2.1-.1 4.1-.1 6.2-.1 1.6 0 3.3.2 4.9 0 .9 0 1.8-.2 2.7-.3 1.8-.2 3.7-.5 5.4-1.2 1.5-.6 3.1-1.2 4.5-2.1 1.7-1.1 3.1-2.7 4-4.6.6-1.4.7-2.9.9-4.4.1-.6.2-1.3.3-1.9 0 0-.1-.1-.2-.1zm-22.5 5.3c-.1.1-.4.1-.4.3.4.1.9 0 1.3-.1 2.5-.6 4.8-1.8 6.9-3.2.8-.5 1.5-1 2-1.8-.5.2-.8.7-1.3 1-1.3.9-2.7 1.6-4.2 2.2-1.4.6-2.8 1.2-4.3 1.6zm-15.2 1.9c.4-.4.8-.8 1.1-1.3-.4.1-.7.3-.9.5-.7.7-1.5 1.3-2.3 1.8-1.1.7-2.3 1.4-3.5 1.9-.2.1-.4.3-.6.5.9-.2 1.7-.7 2.5-1 1.3-.7 2.6-1.4 3.7-2.4zm-1.9 3.6c.6.1 1.2-.3 1.7-.7.8-.3 1.6-.8 2.4-1.2 1.8-.9 3.4-2.1 5-3.3 2.3-1.7 4.6-3.5 6.7-5.6 1.2-1.2 2.5-2.5 3.5-3.8.4-.5.8-1 1-1.6-.1-.2-.3-.1-.3 0-.3.4-.6.9-.9 1.3-.4.6-1 1.1-1.5 1.6-3.3 3.5-7.3 6.4-11.2 9.3-1.6 1.2-3.4 2.1-5.1 3.2-.6.2-1 .5-1.3.8zm.6 2.5V43c-.5.1-.9.3-1.3.6-.9.4-1.8.9-2.6 1.3-2 1.1-3.9 2.3-5.6 3.9-.9.8-1.7 1.9-2 3.2-.2.3-.1.7-.1 1.1h.3v-.6l.6-1.2c.5-.9 1.3-1.6 2-2.3 2.4-2.1 5.1-3.7 7.9-5.2.3-.3.5-.4.8-.5zm5.4.3c-.9.4-1.8.7-2.7 1.1-2.1.8-4.3 1.7-6.1 3-1.2.8-2.1 2-2.5 3.4.1 0 .3 0 .4.1.6-1.7 2.1-2.8 3.6-3.7 2.1-1.3 4.4-2.2 6.6-3.2.5-.2 1-.4 1.4-.8-.3 0-.5 0-.7.1zm-19.5 5.9c.8-1.2 1.9-2.2 3.1-3 1.6-1.1 3.3-1.9 5.1-2.7.9-.4 1.7-.8 2.5-1.3.3-.2.6-.4.6-.7-.5.3-1 .6-1.6.9-.7.3-1.4.6-2.1 1-.4.1-.8.3-1.2.5-1.8.8-3.8 1.6-5.3 3-1 .9-1.9 2-2.2 3.3-.2.5-.2 1.1.1 1.6.1-.4.1-.8.1-1.2.4-.4.6-.9.9-1.4zm-2.5 4.1c-.1-.1-.2-.2-.2-.3-.3.1-.7.2-1 .4-1.3.9-2.1 2.3-2.5 3.8-.5 1.7-.6 3.4-.6 5.2.1 1.6.1 3.3.7 4.8.1.8.4 1.5.9 2.2.1-.3 0-.7-.1-1-.3-.6-.4-1.3-.6-1.9-.1-1-.3-1.9-.3-2.9-.1-2.2.1-4.4.7-6.5.3-1.6 1.4-3.1 3-3.8zM71 74.9c-.4-1.4-.6-2.8-1-4.1h-.3c-.1 1.1.4 2.1.6 3.1.3.8.4 1.7.9 2.4.2-.5-.1-.9-.2-1.4zm-4.2 1.4c-.1 0-.2 0-.3-.1-.1 1.1.3 2.1.7 3.1.2.5.5 1 1 1.2-.2-.5-.5-1-.7-1.6-.3-.8-.5-1.7-.7-2.6zm3.2 2.3c.3.7.7 1.3 1.2 1.9 0-.6-.4-1-.6-1.5-.4-.7-.5-1.5-1-2.2-.2.6.1 1.2.4 1.8zm-3.2 2.7c-.1 0-.2.1-.2.2 0 1.1.6 2.1 1.3 2.9.3.3.6.5.9.6-.3-.5-.8-.9-1.1-1.4-.4-.7-.7-1.5-.9-2.3zm6.5 5.9c-.1-.7-.5-1.3-.8-1.9-.6-1.2-1.1-2.3-1.8-3.4-.2-.3-.4-.5-.6-.6-.1.3 0 .6.2.9.7 1.3 1.5 2.6 2.2 3.9.1.3.3.8.8 1.1zm-.5-4c.4 1.1 1 2.1 1.4 3.1.3.7.6 1.4 1 2.1.1 0 .2-.1.2-.1-.6-1.9-1.5-3.8-2.4-5.6-.1-.2-.3-.4-.4-.5 0 .3 0 .7.2 1zm-3.5-.4H69c0 .5.2 1 .5 1.5.7 1.1 1.5 2.1 2.2 3.2h.3c-.3-.8-.8-1.4-1.2-2.1-.6-.9-1.1-1.8-1.5-2.6zm-3.5 1.4c-.1 0-.2 0-.3-.1 0 1 .6 1.9 1.1 2.7.4.5.7 1.2 1.3 1.5-.1-.5-.5-1-.8-1.4-.5-.8-.9-1.8-1.3-2.7zM69 86c-.2.1-.1.4 0 .5.3.7.7 1.3 1.2 1.9h.3c-.3-.7-.7-1.4-1-2-.1-.2-.3-.5-.5-.4zm-5.5.2c-.1.2-.2.4-.1.6.3.6.7 1.2 1.1 1.7.2.3.5.5.8.6 0-.1.1-.2.1-.3-.4-.4-.6-.9-.9-1.5-.3-.4-.5-1-1-1.1zm9.4 2.3c0 .3.1.5.4.7.8.8 1.5 1.7 2.1 2.7.1 0 .2-.1.3-.1-.5-1.1-1.2-2.1-1.9-3-.3-.2-.6-.3-.9-.3z"/><path fill="#fba684" d="M115.5 91c1.3-.9 2.9-1.3 4.4-1.8 0 .1.1.2.2.2-.5.4-1.2.5-1.8.8-.9.4-1.8.8-2.8 1V91z"/><path fill="#fcb897" d="M105.7 94.8c.8.2 1.6.1 2.3.1.6 0 1.2-.1 1.8-.2l.6.3v.3c-1 .1-2.1.1-3.1.2-.5 0-1 .1-1.5 0 0-.3-.1-.5-.1-.7z"/><path fill="#fcbb9c" d="M121.7 98.1c.2-.1.2.1.3.2-.9.4-1.9.8-2.9 1.1-1.2.5-2.4 1-3.6 1.6-.2.1-.5.2-.7.2.3-.6.9-.9 1.5-1.2 1.7-.7 3.6-1.4 5.4-1.9z"/><path fill="#fcb897" d="M78 104.4c.4-.1.7-.4 1.1-.5.2.3-.1.6-.3.7-.7.6-1.7.5-2.5.9-.5-.1-1-.1-1.4-.3.1-.2.3-.5.5-.5.9 0 1.8 0 2.6-.3z"/><path fill="#cc492f" d="M76.4 105.6h-.1c-.5-.1-1-.1-1.4-.3-1.7-.6-3.4-1.6-4.8-2.8-.6-.6-1.2-1.2-1.4-2.1-.2-.9 0-2 .6-2.8.6-.9 1.9-1.4 3-1.1.6.1 1.3.4 1.6.9 0 .1-.1.3-.1.4.3.1.5-.2.7-.4 0-.3-.1-.7-.4-.9-.9-.9-2.4-1.1-3.6-.7-2.2.7-3.2 3.6-2.1 5.6.6 1.1 1.6 1.8 2.6 2.5 1.5.9 3.1 1.8 4.8 2 .6.2 1.3.1 1.9.1 0-.1 0-.3.1-.3-.5-.1-.9-.1-1.4-.1z"/><path fill="#b95d38" d="M114.3 117.6c-1.2.4-2.4.5-3.5.6-1.4.2-2.8.3-4.1.4h-3c-.3.2.1.5.3.6 1.9.3 3.9.3 5.9.1 1.3-.2 2.6-.4 3.9-.8.5-.2 1.1-.3 1.3-.9h-.8z"/><path fill="#b9603d" d="M10.4 180.5c.4-.3 1-.5 1.3-.9-.6-.1-1.1.2-1.5.5-.4.3-.8.8-.8 1.4.4-.3.7-.7 1-1zm4 3.7c.2-.3.4-.6.4-1 .8-.9.7-2.1.4-3.2-.1 0-.3-.1-.4-.1l.1.1c-.5.4-1 1-1 1.7 0 .5.3.8.5 1.2 0 .5-.1.9 0 1.3zm0-2.6c.1-.4.3-.6.5-.9 0 .2 0 .4.1.7 0-.2 0-.4-.1-.7-.2.3-.4.6-.5.9v.3c0 .3.1.5.2.8.3-.3.4-.7.4-1.1 0 .4-.1.8-.4 1.1-.1-.3-.2-.5-.2-.8v-.3zm-4 .7c.6-.4 1.2-.8 1.8-1.1v-.3c-.5.1-.9.2-1.2.5-.2.2-.6.5-.6.9zm9.3 3.2c.7.2 1.5.2 2-.3.7-.4.9-1.3.7-2 .4-.4 1.2-.7 1-1.4-.6-.2-1.1 0-1.5.4-.4-.4-.9-.7-1.5-.9 0-.4.2-.8.1-1.2 0-.3-.4-.3-.6-.2-.5.4-.7 1-1 1.6-.2.2-.4.2-.6.4-.1.1-.3.2-.4.3-.1.9.4 1.7.7 2.6.3.3.7.6 1.1.7zm-1-3.4c.6-.3 1.3-.4 2-.2.9.3 1.4 1.2 1.4 2.1 0 .4-.4.7-.7 1-.6.2-1.3.3-1.9 0-.5-.3-.6-1.1-.1-1.4.5-.4 1.1-.4 1.7-.2-.1.2-.1.5-.2.7-.2.1-.4.2-.6.2v-.4c.2-.1.4-.3.6-.4 0-.1-.1-.2-.1-.2-.3.1-.7.2-.9.6-.1.4.2.7.5.7.7.1 1.4-.7 1.1-1.4-.1-.5-.7-.6-1.1-.6-.6 0-1.1.4-1.6.8-.2-.4-.2-.8-.1-1.3zm2.7 4.5.2.2c.5 0 1-.2 1.5-.3.9-.2 1.8-.6 2.5-1.2.3-.3.6-.8.4-1.2-.1-.3-.5-.2-.7-.2-.7.2-1.4.6-2 1-.7.5-1.4 1-1.9 1.7zm4.2-2.3c-.2.6-.8.8-1.3 1.1-.5.2-1 .4-1.5.5.8-.7 1.8-1.2 2.8-1.6zm-17.3.8c-.5 0-1.1 0-1.2.6.5 0 1-.2 1.5 0 .5.4.2 1.1.2 1.7-.3.6-.4 1.3-.3 2 .3-.3.4-.9.4-1.3.2-.6.4-1.1.4-1.7.1-.6-.3-1.3-1-1.3zm7.9.5c0 .1.1.3.1.4.1.4.6.4.9.2.3-.2.4-.9-.1-1-.2-.1-.5.1-.7.1-.6-.3-1.3.1-1.7.5 0 0 .1.1.2.1.5 0 .9-.2 1.3-.3z"/><path fill="#b9603d" d="M5.6 186.9c.6-.2 1.3-.3 1.9-.6.1-.1.1-.3-.1-.3-.7-.1-1.3.3-1.8.6v.3zm2.1-.2c-.8.3-1.8.6-2.3 1.4.8-.3 1.6-.7 2.4-1.1 0-.1 0-.2-.1-.3zm5.1 2.1c.1 0 .3 0 .4-.1.3-.4.6-.7.9-1.1.1-.1.1-.3.1-.5-.8.3-1.1 1.1-1.4 1.7zm.8.9c.5-.3.9-.9 1.2-1.4.1-.1 0-.3-.1-.4-.4.5-.8 1.1-1.1 1.8zm-1.3.8c.4-.2.9-.5 1.1-1-.6 0-.9.6-1.1 1zm-4-.6c0 .6.2 1.2.8 1.4-.1-.5-.2-.9-.4-1.4h-.4zm4.3 1.7c.6-.3.9-.9 1.2-1.4h-.3c-.3.4-.7.9-.9 1.4zm-5-.7c0 .3.2.6.5.7 0-.4-.1-.8-.2-1.1-.1 0-.3.2-.3.4zm16.2 2.4c-.8.5-1.7.9-2.1 1.8 0 0 .1.1.2.1.6-.7 1.5-1 2.2-1.4.9-.5 1.4-1.4 1.6-2.3h-.3c-.4.7-.9 1.4-1.6 1.8zm-12.7-.6c.4-.2.9-.4 1.1-.9-.6.2-1.1.5-1.5.9.1.1.3.1.4 0zm-9.5 2.1c.7 0 1.5 0 2.2-.2.2-.1.4-.1.6-.2v-.3H2.9c-.5 0-1.1 0-1.6.1-.2 0-.3.1-.4.3.2.4.5.3.7.3z"/><path fill="#b9603d" d="M25.9 187.7c-1.2-.3-2.5-.2-3.7-.1-.5 0-1 .1-1.5.4-.9.6-1.7 1.3-2.4 2.1-.5.6-1.1 1-1.9 1.1.6-1.5 1.1-2.9 2.1-4.2.7-.1 1.5.2 2.1-.3-.5-.6-1.3-.8-2-1.2-.3-.4-.4-.9-.7-1.2-.3-.3-.9-.5-1.3-.5.2-.4.4-.9.5-1.4.1-.6.3-1.2.5-1.8.2-.1.2-.4.3-.6-.5 0-.8.4-1.2.8-.7.7-1.1 1.9-.6 2.8 0 .1.1.2.1.2-1.1.1-2.1.6-2.8 1.5-.8 1-1.2 2.1-1.9 3.1-.4.6-.9 1.1-1.5 1.4-.2-.7.1-1.4.3-2 .3-1 .7-2 .6-3.1.4.3.6.9 1.1 1 .6.2 1.3-.3 1.4-.9.1-.7-.1-1.5-.7-1.9-.5-.3-1.1-.1-1.5.3-.3.3-.3.7-.3 1.1-.4-.8-1.4-1-2.2-.9-.6.1-1.5 0-1.7.8.8.1 1.5-.2 2.3-.2.5 0 1 .3 1 .8-.1 1.4-.7 2.6-1 3.9-.1.6-.1 1.2.3 1.7.6.4 1.2.7 2 .8.2 0 .5.1.7 0 .2-.3-.3-.3-.5-.5-.5-.1-.9-.3-1.4-.5.4-.3.8-.6 1.1-1 .7-.8 1.1-1.7 1.8-2.5.5-.6.9-1.3 1.6-1.7.8-.5 1.7-.7 2.6-.4.5.1.7.6.8 1 0 .4-.2.7-.3 1.1-.2 0-.5.1-.7.1v-.5c-.5.4-.9.8-1.2 1.3-.1.2-.1.5-.1.8-.3.1-.5.2-.7.3.2-.5.6-1 .6-1.6-.6.4-.8 1.2-.9 1.9h.3c-.2.5-.3 1.1-.4 1.6-.2.1-.4.1-.7.1.2-.5.5-1 .5-1.6-.5.5-.6 1.2-.9 1.7h.4c-.3.7-.8 1.4-1.4 1.9 0-.2-.1-.3-.1-.5.4-.3.8-.6 1-1.1-.5.3-.9.7-1.2 1.2-.4.5-.8 1-1.3 1.3-.5.4-1.2.4-1.8.6-.6.1-1 .6-1.5.9-.2 0-.5-.1-.7-.1h.1c.1 0 .2-.1.3-.1.1-.2.2-.4.3-.5.1 0 .2-.1.3-.2 0 .1 0 .2.1.3.5-.1.9-.4 1.4-.6.4-.1.8-.3 1.2-.6-.1-.2-.2-.5-.3-.7-.2 0-.5.1-.7.2-.5.1-1 .3-1.6.2.2-.2.4-.5.6-.6.6.2 1.2-.2 1.7-.5 0-.2 0-.3-.1-.4-.5.1-.9.4-1.3.7-.1-.1-.2-.1-.2-.2v-.1c-.4 0-.8 0-1.2-.1-.2-.2-.5-.5-.4-.8.1-.4.3-.7.4-1.1 0-.2-.2-.3-.3-.3-.5.1-.9.3-1.4.3.2-.2.5-.4.7-.5.1-.7 1.1-.7 1.3-1.4-.6.1-1.1.5-1.5.9-.6.3-1.3.6-2 .6.2-.4.4-.7.7-.9v-.3c-.2 0-.5 0-.7.1-.1.5-.5.9-.4 1.4.2.4.7.3 1.1.3.1.2.2.4.5.5.4.1.8 0 1.2-.1-.2.4-.2.9-.1 1.3-.3.2-.6.3-.9.5l-.9.3c-.5-.2-1.1-.2-1.6-.3-.3-.1-.7-.1-1 0 0 .1 0 .3-.1.4.5.1 1 .2 1.5.2 0 .1.1.3.1.4h.5c.3.1.7.1 1 .1v.3c-.5-.1-1-.1-1.5-.2-.7-.1-1.3-.3-2-.2 0 .2 0 .3.1.5.6.3 1.4.3 2.1.2.4.1.9.2 1.3.3-.2.1-.5.1-.7.2 0 .1 0 .2-.1.2.6 0 1.2 0 1.7-.1v-.3c-.3 0-.6 0-.9-.1.4-.1.8-.1 1.2-.2.3-.1.5-.4.7-.6h.5c-.4.4-1 .6-1.3 1.1.4-.1.7-.2 1-.4 0 .1-.1.2-.1.2-.2.1-.3.3-.5.4-.1 0-.3.1-.4.1-.7 0-1.4-.1-2.2 0-.3 0-.7 0-.9.3-.2-.1-.5-.1-.7-.1-.4-.1-.9 0-1.3 0-.5.2-1.1.4-1.3 1H0v.3h1.4v-.2c1-.3 2 0 3 .2-.2.1-.5.3-.7.4 0 .1 0 .1.1.2.8 0 1.6-.5 2.5-.3-.3.1-.6.2-.9.4-.2 0-.4.1-.5.1v.4c.4 0 .7 0 1.1-.1.7-.1 1.4-.5 2.2-.3 1.3.3 2.6.1 3.8-.5.9-.3 1.6-1 2.3-1.6.5.3 1.1.2 1.7.3-.4.3-.7.6-1 .9-.2.2-.5.2-.7.3-.6.1-1.1.6-1.7.5-.3-.2-.7-.1-1 0 .2.5.9.4 1.3.5.5.7 1.1 1.3 1.8 1.8.3.2.7.2.9-.1.4-.6 0-1.4-.2-2H15c.1.6.6 1.2.2 1.8-.5-.3-.9-.7-1.4-1.1-.1-.1-.2-.3-.3-.5.4-.1.8-.3 1.3-.4.9.1 1.8.1 2.7.5.3.3.4.7.7 1 .3.3.8.4 1.2.3.8 0 1.7-.5 2.1-1.2.3-.5.3-1.3-.2-1.7-.8-.8-2.1-.8-3-.3-.5.3-.8.9-.9 1.4-.3-.1-.5-.2-.8-.2.1-.5.5-.9.7-1.5.6-.3 1.2-.3 1.8-.4.8-.2 1.5-.4 2.2-.9.3-.2.2-.6.1-.9.6-.2 1.4-.3 1.9-.8.2-.3.1-.6 0-.9.5-.3 1.3-.5 1.3-1.1.1-.4-.4-.5-.7-.6.7-.2 1.5-.5 2.1-1 .4-.3.4-.9-.1-1zm-17.1 5.9h.4c-.2.2-.5.3-.8.4.1-.1.3-.2.4-.4zm-3.6-.2c.2-.3.5-.3.8-.2-.1 0-.2.1-.3.2-.2-.1-.3 0-.5 0zm12.8 3.4c.3-.9 1.5-1.3 2.4-.9.4.2.7.5.7.9s-.2.8-.5 1.1c.1-.5.1-1.1-.3-1.4-.5-.5-1.4-.3-1.7.3-.2.4.1.9.5 1l.5-.9c-.2 0-.2.2-.3.4 0 0-.1 0-.2.1v-.6c.2-.1.4-.2.6-.1.4.1.6.6.4.9-.2.5-.7.8-1.2.8-.7-.2-1-1-.9-1.6zm-3.1-5.7c-.1.2-.2.3-.2.5-.2 0-.3.1-.5.1.1-.3.3-.7.7-.6zm-.9 1.5c.2.1 0 .5-.2.4-.1-.1 0-.4.2-.4zm-1.3.3c-.2.3-.6.6-.7.9-.1.3-.1.7-.4 1-.2.2-.4.4-.7.5-.2.1-.3.1-.5.2.4-.4.9-.8 1.3-1.3-.4 0-.8.2-1.1.4-.4.2-.8.2-1.2.2.1-.1.2-.3.3-.4 1.1-.1 2.1-.8 3-1.5zm-2.6 2.4-.6.3h-.4c.2-.2.6-.4 1-.3zm-1.1-.2c-.2.2-.5.4-.7.5-.1.1-.3.2-.5.3 0-.1-.1-.3-.1-.3.4-.2.8-.4 1.3-.5zm-2.9.1c0 .1-.1.3-.2.3-.2-.1-.3-.2-.5-.3h.7zm-.1.5.1-.1c.2 0 .5 0 .7.1h.4c-.2.1-.3.1-.5.2-.2 0-.5-.1-.7-.2zm3.5.5c.3-.1.5-.3.7-.5.1.2.2.3.3.5-.2.1-.4.1-.7.2 0-.1-.1-.1-.3-.2zm3.3-1c-.8.5-1.5 1.4-2.5 1.5.4-.2 1-.3 1.3-.7l1.2-.8c.3-.3.7-.6 1-1-.2.5-.6.8-1 1zm3.2 1.4c-.1-.1-.3-.1-.4-.2.4-.3.8-.5 1.1-.8-.1.4-.3.8-.7 1z"/><path fill="#b9603d" d="M22.2 196.6h.3c.4-.6.9-1 1.5-1.4v-.3c-.9-.1-1.7.8-1.8 1.7zm-19.9.6c-.7 0-1.7-.3-2.2.3.7.1 1.4-.1 2.1-.1.1 0 .1-.2.1-.2zm6.7 2.5c0 .5.5.7.8 1 .4.5.8 1.1.8 1.7-.7-.3-1.3-.8-1.7-1.4-.3-.3-.1-.7-.1-1 .1-.5-.2-1.1-.6-1.4-.5-.6-1.2-.5-1.8-.6-.9-.1-1.4.7-1.6 1.5-1.1 0-2.1-.2-3.1-.6.5-.3 1.2-.4 1.8-.4.5 0 .9.2 1.4.3 0-.2-.1-.5-.3-.6-.6-.4-1.4-.3-2.2-.2-.5.1-1 .3-1.3.8-.1.3.2.5.4.6 1 .4 2.1.7 3.1.5.1.4.1.8.3 1.1-.5.3-1 .4-1.5.5l1.2-.9c-.2-.1-.4-.2-.5-.1-.6.3-1.2.7-1.6 1.2-.2.3.1.6.4.5.8-.1 1.6-.5 2.3-.8.4.5 1.2.7 1.8.5.5-.1.9-.4 1.3-.8.4.8 1 1.5 1.9 1.7.3.1.7-.1.7-.5 0-.7-.5-1.4-.9-1.9-.2-.4-.5-.8-1-.7zm-2.8 1.5c-.9-.4-1-1.6-.5-2.4-.1.4-.2.9 0 1.3.2.6.9 1 1.5.7.6-.3.6-1.3 0-1.7-.4-.2-1 .1-.9.6.1.3.5.3.8.3-.1.1-.3.4-.5.3-.6-.2-.7-1-.3-1.4.2-.3.6-.4 1-.5.6 0 1.1.6 1.1 1.2.1 1.1-1.2 2.1-2.2 1.6zm9.9-1.2c-1 0-2-.3-3-.7-.7-.3-1.2-.9-1.8-1.2-.4-.2-.9-.4-1.4-.2.4.3.8.4 1.2.7.6.4 1.1 1 1.7 1.2.6.3 1.2.5 1.9.6.8.2 1.5-.1 2.3-.2.2-.1.3-.2.5-.3-.5-.1-1 0-1.4.1zm-1.6 2.2c.4.1.9 0 1.2-.4-.4-.1-.9 0-1.3.1-.8-.2-1.5-.7-2.1-1.1-.4-.3-.8-.6-1.3-.5.4.5.9.8 1.4 1.2.6.5 1.4.9 2.1.7zm5.9-1.9-1.5.6c-.6.2-1.3.3-1.9.6.5.3 1.1.2 1.6 0 .8-.2 1.7-.6 2.2-1.3-.1.1-.3.1-.4.1z"/><path fill="#b9603d" d="M7.6 202.2c0 .4 0 .8.3 1.1.2.1.5 0 .6-.2.2-.5.2-1.2-.2-1.7-.3.2-.7.4-.7.8zm4.8.8v.3c1.1.7 2.6.7 3.7.1v-.3c-1.2.4-2.4-.1-3.7-.1z"/><path fill="#fdc4a9" d="M4.2 210.1c.3-.4.5-.9 1-1.2-.1.7-.6 1.2-.9 1.8-.8 1.3-1.6 2.6-2.3 4-.4.8-.7 1.6-1.2 2.3.1-.9.5-1.7.8-2.5.8-1.6 1.7-3.1 2.6-4.4z"/><path fill="#150f0c" d="M72.1 144c.1-.2.2-.3 0-.5-.8-.6-1.6-1.3-2.2-2.1h-.4c0 .3 0 .6.2.8.7.8 1.5 1.4 2.4 1.8zm-46.9 17.8c1.7-.2 3.5-.4 5.3-.3.6 0 1.2.3 1.7.4v-.4c-1.4-.7-3.1-.6-4.6-.6-1.4.1-2.9.1-4.2.5-.4.1-1.1.4-.8 1 .8-.5 1.7-.5 2.6-.6zm95.9 4.2c.4.2.7.6 1.2.6v-.3c-1.7-1.4-3.5-2.6-5.6-3.1-1.1-.3-2.2-.3-3.3-.3-1.2 0-2.5 0-3.7-.2-2.7-.3-5.4-.9-8.1-1.5-2.1-.5-4.1-1.1-6.1-1.6-1.3-.3-2.5-.7-3.7-1.1-2.5-.7-5-1.8-7.4-2.8-1.1-.5-2.1-1-3.1-1.6-1.4-.8-2.9-1.4-4.2-2.3-.6-.4-1.2-.7-1.6-1.3-.3-.3-.6-.5-.9-.8-.4-.5-1-1-1.4-1.5 0-.2 0-.3-.1-.5-.7-.3-1.4-.5-2-.8-2-.7-4-1.6-6-2.6-1.3-.7-2.7-1.3-4.1-1.7-.3-.1-.5-.1-.8-.1v.2c1.7.7 3.3 1.4 4.9 2.3 2.3 1.2 4.7 1.9 7.1 2.7.5.8 1.3 1.4 1.9 2.2-2.6-.4-5.1-.9-7.7-.8v.4c1.1.2 2.1.4 3.2.4 1.6.1 3.2.3 4.8.5.2 0 .4.2.5.3 1.8 1.7 4.2 2.5 6.3 3.8 1.8 1.1 3.8 1.9 5.7 2.7 2.7 1.1 5.5 1.8 8.2 2.6 2.8.7 5.5 1.5 8.3 2.1 2.5.5 5 1.1 7.6 1.2.8 0 1.6-.2 2.4-.1v.2c.9.2 1.8.1 2.7.3 1.8.7 3.5 1.6 5 2.5zm-100.9.1c1.2-.3 2.5-.3 3.7-.4 1.9-.1 3.9-.2 5.8-.2.6 0 1.2.2 1.7.2v-.3c-1.5-.6-3.2-.5-4.7-.5-1.6 0-3.1 0-4.7.2-.9.1-1.8.2-2.5.7-.2.1-.4.3-.3.5.4 0 .7-.2 1-.2zm102.4 5.1c-1-.4-1.9-.9-3-1.1-.6-.1-1.3-.2-1.7.3.3.1.6.2.9.1 1.3.2 2.4.8 3.6 1.3 2.1.9 4.3 1.7 6.5 2.3v-.4c-.7-.3-1.5-.5-2.2-.8-1.4-.5-2.7-1.1-4.1-1.7zm-79.3 9.5c1.4 2 2.7 4.1 3.5 6.4.4 1.1.8 2.3.8 3.5 0 .5.2 1 .1 1.4-.4.6-.9 1.1-1.3 1.7-.3.5-.8.9-1 1.4.4-.4 1.1-.4 1.5-.8.5-.4.7-1.1 1.2-1.6.6-1.2 1.6-2.1 2.4-3.1.9-1.3 1.6-2.7 2.1-4.2.2-.7.5-1.5.6-2.2.2-.5.3-1 .4-1.6.1-.4.2-.8.1-1.2-.2.2-.3.4-.4.6-.1.6-.4 1.1-.5 1.7-.3.8-.6 1.7-.9 2.5-.9 2.1-2.1 4.2-3.6 5.9v-1c0-.9-.3-1.7-.6-2.5-.4-1.2-.9-2.4-1.5-3.5-1.1-2-2.3-4-3.7-5.7-1.5-1.8-3.1-3.5-5-4.8-1.9-1.4-3.9-2.6-6-3.6-1.7-.8-3.6-1.4-5.4-1.9-1.7-.4-3.4-.5-5.1-.6-1.4 0-2.9-.1-4.2.3 0 .1-.1.2-.1.4 1.1-.1 2.2-.2 3.4-.2 1.8.1 3.6.2 5.3.6 2.1.5 4.2 1.2 6.1 2.1 2 .9 3.8 2.1 5.5 3.4.7.5 1.3 1 1.9 1.6 1.5 1.4 3.1 3.1 4.4 5z"/><path fill="#150f0c" d="M56.8 187.4c-2.3 2.1-4.6 4.2-7.1 5.9-1 .7-2.1 1.2-3.2 1.7-.4.2-.9.3-1.4.4v.3c1.6-.1 3.2-.6 4.6-1.4 1.7-.9 3.2-2.3 4.6-3.6 1.4-1.3 2.8-2.6 4-4.1.3-.4.7-.7.7-1.2h-.4c-.4.8-1.1 1.4-1.8 2zm-6.2 8.4c-2 .7-4.1 1.3-6.2 1.7v.4c2.4-.1 4.6-.9 6.8-1.8.2-.1.6-.2.5-.5-.3-.1-.7.1-1.1.2zm98.2 8.4c0-.3-.3-.2-.5-.2-.5.5-.9 1.1-1.2 1.7-.8 1.5-1.2 3.1-1.7 4.7-.3 1.1-.4 2.3-.7 3.4 0-.8-.3-1.6-.5-2.4-.3-.8-.1-1.7 0-2.6.4-2.6 1-5.1 2.1-7.5.1-.3.4-.5.4-.9-.2-.3-.5-.1-.6.1-1 1.4-1.5 3-1.9 4.6-.3 1.4-.5 2.9-.6 4.3-.1.9-.1 1.8.3 2.6.2.5.2 1.1.5 1.7.1.5.2 1.1.7 1.5 0-.4-.1-.9.2-1.2.7-3.4 1.8-6.8 3.5-9.8zm-24.5 7.4c-2.1-1.2-4.3-2.3-6.6-3.1-1-.3-1.9-.8-2.9-.6 0 .1-.1.2-.1.2.5 0 1 .2 1.5.4 3.6 1.3 7.1 2.9 10.4 4.9.3.2.5.4.8.5 0-.1.1-.2.2-.3-.3-.2-.5-.4-.8-.6-.9-.4-1.6-.9-2.5-1.4zm-86.8 14.1-.3.3c.5.6 1.2 1.1 1.9 1.5 1.1.6 2.4 1 3.6 1.3 1.3.4 2.7.7 4.1.8.5.2 1.1.3 1.6.3v-.4c-.2-.1-.4-.1-.6-.1-3.5-.8-7.2-1.7-10.3-3.7zm53.6 9c-.4.1-.9.2-1.3.4-1 .1-2.1.4-3.1.5-3.1.5-6.1 1-9.2 1.1-1.8.1-3.5 0-5.3-.2-1.3-.2-2.5-.6-3.7-1.1h.1c-.6-.2-1.1-.5-1.6-.7-.3-.2-.6-.2-1-.2 0 .1.1.2.1.3.2.1.4.2.6.2.5.3 1 .6 1.6.8 1.3.7 2.8 1.2 4.3 1.4 3.4.6 6.8.1 10.1-.3 2.4-.4 4.7-.7 7-1.3.7-.1 1.4-.3 2-.5.6-.2 1.2-.3 1.8-.7-.1-.1-.2-.2-.2-.3-.8.2-1.5.5-2.2.6z"/></g></svg>