<svg xml:space="preserve" xmlns:xlink="http://www.w3.org/1999/xlink" enable-background="new 0 0 180 180" viewBox="0 0 180 180" xmlns="http://www.w3.org/2000/svg"><defs><path id="a" d="M0 0h180v180H0z"/></defs><use xlink:href="#a" fill="#e5a339" overflow="visible"/><clipPath id="b"><use xlink:href="#a" overflow="visible"/></clipPath><g clip-path="url(#b)"><path fill="#b65a35" d="M89.3 22.7c.9-.4 1.9-.6 2.9-.6 1.1 0 2 .6 2.9 1.2 1 .7 1.6 1.9 1.7 3.1.1.9.3 1.9 1.1 2.4.4.3.9-.1 1.3-.2.8-.3 1.1-1.2 1.8-1.7 1-.8 2.5-.9 3.7-.7 1.9.2 3.5 1.5 4.2 3.3.3.7.3 1.4.3 2.1 1 0 2 .6 2.3 1.6.3 1 .1 2.1.1 3.2-.1 1.1 1.4 2 2.3 1.4.8-.4 1.3-1.2 2.2-1.5 1-.3 2.1-.4 3.2-.3 1.5.3 2.5 1.6 3.1 2.9.4 1.4.3 3-.2 4.4-.2.6-.4 1.3-.3 1.9.2.5.7 1 1.2 1.2.9.4 1.8.1 2.6-.3.9-.4 1.9-.8 2.9-.9 1.6-.1 3.3-.2 4.8.4 1.1.3 1.9 1 2.8 1.6.6.4 1.2.9 1.4 1.6.4.9.2 1.9-.2 2.7-.6 1.1-1.9 1.5-2.4 2.7-.3.8-.4 1.8.2 2.5.4.4 1 .4 1.6.4.6 0 1.3.2 1.6.8.3.6-.4 1.2-.3 1.9 1 .2 2-.5 2.9 0 .8.5 1.5 1.4 1.7 2.4.3 1.2.3 2.5-.3 3.6-.5.9-1 1.9-1.9 2.5-.9.8-2.2 1.2-3.2 1.9-.5.3-1 .7-1.3 1.3-.2.5.1 1 .5 1.3.5.4 1.1.8 1.5 1.4.4.5.3 1.3-.1 1.8-.3.4-.8.7-1.1 1-.3.3.1.6.3.9.5.6.8 1.4.5 2.2-.3.9-1 1.6-1.6 2.4-.8.9-1.5 1.9-2.4 2.8-1.7 1.7-3.8 3-5.9 4.1-2 1.1-4.1 2.2-6.2 3.2-2.4 1.2-4.8 2.1-7.3 3-2.4.9-4.9 1.7-7.5 2.2-2.7.5-5.4.9-8.1 1-1.5 0-3.1.1-4.6-.1-7.3-.5-14.5-1.8-21.4-4.2-2.5-.9-5.1-1.6-7.6-2.5-2.2-.9-4.5-1.8-6.2-3.6-1.2-1.2-2.1-2.6-2.7-4.2-.6-1.6-.9-3.4-1.3-5.1-.2-.8-.2-1.7-.4-2.6-.5-.9-.6-1.9-.5-2.9.1-.7.4-1.5 1-1.9.4-.3 1-.5 1.1-1 0-.7-.5-1.2-.8-1.8-.3-.6-.3-1.3.1-1.9.3-.4.7-.7 1.1-.9-.1-.6-.6-1-1.2-1.2-.8-.3-1.6.4-2.4.1-.2-.5 0-1 .2-1.5-.9.1-1.8-.1-2.5-.5s-1-1.3-1.1-2.1c-.1-1.3.7-2.5 1.8-3 1.2-.7 2.6-.4 3.9-.6.4-.1.9-.2 1.1-.6.2-.6.3-1.2.6-1.8.3-.6.8-1.2 1.5-1.5.5-.2 1.1-.2 1.7-.1 0-.6 0-1.3.4-1.8s1.1-.6 1.7-.7c-.5-.8-1.2-1.6-1.4-2.5-.4-1.5-.3-3.2.4-4.7.6-1.3 1.7-2.5 3.1-3 .7-.2 1.5-.4 2.3-.3.6.1 1.2.4 1.7.7-.1-1.3.6-2.6 1.7-3.2.4-.3 1-.3 1.5-.2 0-.7.2-1.5.7-2.1.8-.8 1.9-1.3 3.1-1.3.9 0 1.7.7 2.4 1.3.8.8 2 1.2 3.1 1.1 1.1-.1 2-1.1 1.8-2.1-.1-.6-.4-1.2-.4-1.8 0-1.3.5-2.5 1.4-3.4.5-.5 1.1-.7 1.8-.7-.2-1.2.1-2.5.9-3.5.9-.9 1.9-1.9 3.1-2.4z"/><path fill="#193857" d="M85 70.6c1.8-.4 3.8-.3 5.5.3 1 .4 2 .6 2.8 1.3v.5c-1-.2-1.9-.5-2.8-.6-.9-.1-1.9-.3-2.8-.3-1 0-2.1-.1-3.1.1-2.1.2-4.2 1-6.1 2-.8.4-1.7.8-2.6 1 0-.1 0-.2.1-.2.8-.6 1.8-1.1 2.7-1.6 1.9-1.4 4.1-2.1 6.3-2.5zm73.7 146.5c-.3-2.6-.6-5.3-1.1-7.9-1.2-7.6-3-15.5-6.2-22.4-.4-.8-.8-1.7-1.2-2.5-.2-.3-.4-.7-.6-1-.1-.2-.2-.3-.3-.5l-.1-.1-.1-.1c-1-1.2-2.1-2.4-3.3-3.4-.3-.3-.7-.6-1-.9-1.1-.9-2.2-1.9-3.2-3-.6-.5-1.1-1.1-1.6-1.6-.5-.2-.9-.5-1.4-.8-.4-.3-.6-.6-.8-1l-3.3-2.7c-1.2-1-2.2-2.2-3.3-3.2-1-.9-1.9-1.9-2.8-2.9-1.6-1.6-3.1-3.3-4.7-4.8-1.8-1.8-3.6-3.5-5.4-5.3-.7-.7-1.5-1.3-2.1-2.1.3-.2.6-.5.9-.7 2.1-1.4 4.2-2.8 6.5-4 2.1-1.2 4.2-2.2 6.2-3.6 1.1-.9 2.2-2 2.9-3.2.4-.7.5-1.6.5-2.4.1-1.2-.8-2.3-1.8-2.8-2.5-1.2-5.2-1.7-7.8-2.6-2.2-.8-4.4-1.6-6.5-2.5-1-.4-2-1-3-1.6-2.1-1.3-4.4-2.1-6.8-2.8-2.9-.9-5.8-1.5-8.7-2.2-6.7-1.5-13.4-3.2-20.1-4.5-3.4-.6-6.8-1.3-10.1-2.4-2.1-.6-4.1-1.7-6-2.7-1-.6-2.2-.7-3.3-.5-1.4.4-2.8.9-4.1 1.5-1.2.6-2.4 1.3-3.5 2.1s-2.1 1.6-3.1 2.5c-1.6 1.4-2.9 3-4.3 4.6-1.1 1.3-2.2 2.7-3.2 4.1-2.2 3.2-3.8 6.8-5.1 10.4-.5 1.5-.8 3.1-1.1 4.7-.1.2-.1.5-.3.6-1.8 1.7-3.9 3.1-5.8 4.6-1.9 1.6-7.8 6.4-8.8 7.2-1.6 1.2-3.3 2.3-4.9 3.5-1.8 1.3-3.6 2.7-5.2 4.2-1.7 1.5-3.3 3.1-4.6 4.9-1.4 1.8-2.5 3.9-3.5 6-2.7 3.9-4.1 8.4-5.3 13-1.6 6.5-2.9 13-4 19.6L-9.5 217c0 .1 0 .2-.1.4h168.3z"/><path fill="#a1ae9c" d="M60.6 116.8h.5c0 .3-.1.7-.2 1 0 .2.3.3.4.4 0 .6-.1 1.2-.2 1.8.5.6.8 1.2 1.3 1.8 1.2 1.4 2.2 3 3.3 4.5 1.8 2.5 3.5 5.1 5.1 7.8 1.1 1.8 2.1 3.7 2.8 5.7.9 2.4 1.6 4.9 2.1 7.4.7 2.8 1.7 5.5 3 8 .6 1.2 1.1 2.4 1.5 3.6.4 1.1.9 2.2 1.2 3.3.1.3.1.7 0 1-.3.2-.6.1-.9-.1-1.1-.5-2.1-1-3.2-1.7-1.7-1-3.4-1.7-5.2-2.5-1-.6-2.1-1.2-3.1-1.9-1.2-.8-2.2-1.9-3.5-2.6-1.9-1.1-3.9-2-5.8-3.2l-2.1-1.2c-1.3-.8-2.7-1.6-4-2.5-.8-.6-1.6-1-2.4-1.6-.7-.5-.6-1.4-.6-2.1 0-1.1.6-2.1 1-3.1 1.1-3.1 2.6-6 3.6-9 .4-1.1.9-2.1 1.2-3.3.9-3.3 2-6.5 3-9.7.5-.7.7-1.3 1.2-1.8zm47.4 14.7c.1 0 .2-.1.3-.1.1 0 .2.1.3.2.4 1.3.3 2.6.6 3.9.2 1.2.5 2.4.6 3.7.3 2.9-.2 6-1.4 8.7-.9 1.8-1.8 3.5-3.1 5.1-1.4 1.8-2.8 3.5-4.5 4.9-.8.7-1.8 1.3-2.6 2-.9.8-1.7 1.6-2.5 2.5-.7.8-1.5 1.6-2.1 2.4-1.7 2.1-3.5 4.1-4.6 6.6-.2.7-.5 1.5-.8 2.2h-.4c0-1.5-.5-3-.4-4.5.2-3.1.8-6.2 1.4-9.3.5-2.6 1.2-5.1 2.1-7.6 1.3-3.5 2.9-6.9 4.7-10.2.7-1.3 1.7-2.6 2.5-3.8 1.6-2.2 3.8-3.7 6.2-4.9 1.2-.6 2.3-1.2 3.6-1.2 0-.3.1-.5.1-.6z"/><path fill="#193857" d="M107.5 132.9c.1-.1.2-.1.3.1-.2.1-.3 0-.3-.1zm-1.4.5c0 .1 0 .1 0 0zm-.3.1c.1.1.1.1 0 0zm-34.1 3.4c.1.1.1.1 0 0zm.1.3c.1.1.1.1 0 0zm2 5.4c.5-.1-.1.4 0 0zm.2.3c.4.1-.2.4 0 0zm21.6 1c.1.1.1.1 0 0zm-21 1.3c.2 0 .2.1.1.2-.2.1-.2 0-.1-.2zm20 .8c.1 0 .1 0 0 0zm-19.5 1.3c.2 0 .2.1.1.2-.2 0-.2-.1-.1-.2zm.4 1.4c.4 0-.2.3 0 0zm.5 1.5c.4 0-.2.4 0 0zm.1.4c.5 0-.2.3 0 0zm16.3.2c.1.1.1.1 0 0z"/><path fill="#b65a35" d="M76.3 150.9c.4.1-.2.4 0 0z"/><path fill="#193857" d="M91.7 152.7c.4.1-.3.4 0 0zm-14.6.3zm14.4.1c.5 0-.2.4 0 0zm-.1.4c.4 0-.2.4 0 0zm-14 .3c.1.1.1.1 0 0zm.2.3c0 .1 0 .1 0 0zm13.3 1c.4 0-.2.4 0 0zm-.5 1.8c.4 0-.2.4 0 0zM79 157c0 .1 0 .1 0 0zm11 1.5c.2 0 .2.1.1.2-.2 0-.2-.1-.1-.2zm-10.3.4c.1.1.1.1 0 0zm10.2.1c.2 0 .2.1.1.3-.2-.1-.2-.2-.1-.3zm-.5 2.4c.2 0 .2.1.1.2-.2 0-.3-.1-.1-.2zm-.1.5c.2 0 .2.3.1.3-.3.1-.3-.2-.1-.3zm-.2.6c.2 0 .2.1.1.2-.2.1-.2 0-.1-.2zm-.1.7c.2 0 .2.1.1.2-.2 0-.2-.1-.1-.2zm-.1.5c.2 0 .2.3.1.3-.2.1-.3-.2-.1-.3zm-.3 1.4c.2 0 .2.3.1.3-.2.1-.2-.2-.1-.3zm-.4 2.3c.2 0 .2.5 0 .5-.1-.2-.1-.4 0-.5zm-.1 1.6c-.1-.2-.1-.6.1-.8.1.3.1.7-.1.8z"/><path fill="#f2844f" d="M90.1 42.4c3-.8 6-1.2 9.1-1.4 2.4 0 4.8-.1 7.1.6.9.3 1.8.5 2.7.8 1.3.3 2.5.9 3.8 1.3 1 .4 1.9.9 2.8 1.4 1.6.9 3.1 1.7 4.5 2.9 1.3 1 2.5 2 3.7 3.2 1.2 1.1 2.2 2.4 3.2 3.6.7.7.9 1.7 1.4 2.6 1.4 2.6 1.9 5.5 2.7 8.3.1.5.1.9.1 1.4-.1.9.1 1.9.1 2.8 0 1.2.1 2.4-.1 3.6-.2 1.7-.6 3.3-.9 4.9-.3 1.6-.7 3.3-.8 4.9l-.1.1c-.4.6-.4 1.4-.7 2.1-.6 1.8-1.1 3.7-1.6 5.6h-.4c-.6 1.1-1.1 2.2-1.8 3.2-.7.9-1.4 1.8-2.2 2.7-.8.8-1.5 1.8-2.3 2.6-.7.7-1.5 1.3-2.3 1.9-1.8 1.4-3.7 2.6-5 4.5-.7.8-1 1.7-1.7 2.4-1-.5-1.7-1.3-2.6-2-1.6-.9-3.5-1.4-5.3-1.6-1.9-.2-3.9-.2-5.8-.1-1.7.2-3.5.3-5.2.7-2 .4-3.8 1.1-5.8 1.6-.5.1-1.2.2-1.6-.2-.9-1.1-1.3-2.5-2-3.8-1.1-2-2.7-3.7-4.2-5.4-.4-.5-.9-.9-1.3-1.3-1-.9-2-1.9-3.1-2.8-.9-.8-2.1-1.3-3.1-2.1-.9-.7-1.7-1.7-2.2-2.7-.5-1.1-.9-2.3-1-3.5-.1-.8-.2-1.5-.4-2.3.1-1 .3-1.9.3-2.9 0-1.1.1-2.1 0-3.2 0-1.2-.2-2.5-.1-3.7 0-2.5.2-5 .5-7.5.2-1.2.6-2.3.9-3.5.4-1.4.9-2.8 1.5-4.2.8-2 2.1-3.7 3.3-5.5.9-1.1 1.8-2.2 2.8-3.2 1.5-1.3 3-2.7 4.8-3.6.5-.2 1-.5 1.6-.7 1.8-1 4.2-1.8 6.7-2.5z"/><path fill="#f95939" d="M51.5 76.5c2.3-1 5.1-1.4 7.4-.4.9.4 1.8.8 2.5 1.5.5.5.8 1.2 1.1 1.8.5 1.2 1.1 2.2 1.6 3.4V85c0 1.6-.2 3.2-.2 4.8l-.9 7.5c-.1 1.2-.4 2.4-.4 3.6-.1.9-.4 1.8-.6 2.7-.4.7-.8 1.4-.9 2.2-.1.6.1 1.4-.4 1.9-.6-.3-1.3-.5-1.9-.9-1.3-.5-2.8-.8-4-1.5-1.1-.5-2.1-1.3-2.9-2.1-.7-.8-1.3-1.7-2-2.5-1.5-2.1-2.7-4.5-3.6-7-.4-1-.6-2-.8-3-.4-2.1-.3-4.4.3-6.4.5-2 1.5-4 2.9-5.6.8-.8 1.7-1.7 2.8-2.2z"/><path fill="#b06642" d="M64.2 82.8c.3.5.7.8 1.2.9.6.1 1.2.2 1.8.4.1-.4.1-.7.2-1.1.2.8.4 1.5.4 2.3.1 1.2.5 2.4 1 3.5s1.3 2 2.2 2.7c1 .8 2.2 1.2 3.1 2.1 1 .9 2 1.9 3.1 2.8.5.4.9.9 1.3 1.3 1.5 1.8 3.1 3.4 4.2 5.4.7 1.2 1 2.7 2 3.8.4.5 1.1.4 1.6.2 1.9-.5 3.8-1.2 5.8-1.6 1.7-.4 3.5-.6 5.2-.7 1.9-.1 3.9-.1 5.8.1 1.8.2 3.7.7 5.3 1.6.9.6 1.7 1.4 2.6 2 .7-.7 1.1-1.7 1.7-2.4 1.3-1.9 3.3-3.1 5-4.5.8-.6 1.6-1.2 2.3-1.9.8-.8 1.5-1.8 2.3-2.6.7-.9 1.5-1.7 2.2-2.7.7-1 1.2-2.1 1.8-3.2h.4c-.3.9-.6 1.7-.9 2.6-.9 2.5-2.3 4.7-3.6 6.9-1.2 2.2-2.4 4.3-3.2 6.7-.3.8-.5 1.6-.7 2.4-.1.2 0 .4.1.5-1.4 2.3-2.3 4.9-2.8 7.6-.2 1.1-.5 2.3-.7 3.4-.4 1.8-1.1 3.4-1.8 5.1-.3.9-.8 1.7-1.2 2.6-1 1.8-2.6 3.2-4.3 4.3-1.3.9-2.7 1.7-4.2 2.3-.6.3-1.3.4-1.9.8-.6-.1-1.2.1-1.8.2-1.2.2-2.5.3-3.7.3-1.1 0-2.2 0-3.3-.1-1.1-.2-2.3-.4-3.4-.8-1.4-.4-2.7-1.1-3.9-1.9-.9-.7-1.9-1.2-2.7-2-.6-.6-1.3-1-2-1.6-1.7-1.6-3.2-3.4-4.9-5-.8-1.1-1.9-2.1-2.8-3.2-1-1.2-2.2-2.2-3.2-3.4-.7-1-1.6-1.9-2.3-2.9-1.1-1.7-2.3-3.4-3-5.3-.5-1.4-1.4-2.7-1.8-4.2-.3-.9-.5-1.8-.8-2.7.2-.9.5-1.8.6-2.7.1-1.2.3-2.4.4-3.6l.9-7.5c0-1.6.3-3.2.2-4.8.2-.9.2-1.7.2-2.4z"/><path fill="#f95939" d="M128.5 85.5c.2-.7.3-1.5.7-2.1.6.3 1.3.2 1.9.2.9-.1 1.8 0 2.7 0 .3 0 .7 0 1 .2.4.3.6.8.8 1.2.4.6.6 1.2.7 1.9.1 1.4-.1 2.8-.4 4.2-.4 1.4-.9 2.8-1.4 4.2-.3 1-.8 1.9-1.4 2.9-.8 1.2-1.5 2.4-2.3 3.5-1.2 1.6-2.7 2.9-4.2 4-1 .8-2.1 1.5-3.3 2.2-1.2.6-2.4 1.1-3.6 1.6-.4.2-1 .2-1.2.7-.1-.2-.1-.4-.1-.5.2-.8.4-1.6.7-2.4.8-2.4 2-4.5 3.2-6.7 1.3-2.2 2.7-4.5 3.6-6.9.3-.9.6-1.7.9-2.6.6-1.9 1.1-3.8 1.7-5.6z"/><path fill="#e56324" d="M61.1 105.9c.1-.8.5-1.5.9-2.2.3.9.5 1.8.8 2.7.5 1.5 1.3 2.8 1.8 4.2.7 1.9 1.8 3.6 3 5.3.7 1 1.6 1.9 2.3 2.9 1 1.2 2.2 2.2 3.2 3.4.9 1.1 2 2 2.8 3.2 1.6 1.7 3.2 3.4 4.9 5 .6.6 1.3 1 2 1.6.8.7 1.8 1.3 2.7 2 1.2.8 2.5 1.6 3.9 1.9 1.1.4 2.3.5 3.4.8 1.1.1 2.2.1 3.3.1 1.2 0 2.5 0 3.7-.3.6-.1 1.2-.3 1.8-.2-.2.6-.5 1.1-.6 1.6-.4 1-.7 2.1-1.1 3-.7 1.5-1.2 3.2-2 4.7-.6 1-1.1 2-1.6 2.9-.7 1.2-1.4 2.4-2.2 3.6-.6 1-1.1 2.1-1.7 3.1-1.2 2.1-1.6 4.5-2.1 6.8-.5 3-1.2 6.1-1.6 9.1-.2 1.2-.3 2.4-.5 3.6h-.6c-1.1-2.1-2.2-4.2-3.5-6.2-.5-.9-1.1-1.7-1.6-2.6-.6-1.1-1.2-2.3-1.8-3.4-.8-1.3-1.5-2.7-2.1-4.1-.7-2.1-1.6-4-2.8-5.9-.6-1-1.2-2.1-1.5-3.3-.4-1.2-.6-2.4-.9-3.6-.4-1.6-.7-3.3-1.3-4.9-1.4-3.4-3.9-6-5.8-9.1-.6-.8-.9-1.6-1.3-2.5-.6-1.3-1-2.8-1.6-4.2-.7-1.9-1.9-3.6-2.6-5.4-.4-.9-.2-1.8-.1-2.7.1-1.7.3-3.4.2-5.1v-3.9c.3-.5.1-1.3.2-1.9z"/><path fill="#fcc996" d="M87.5 173.4c.4.1-.2.4 0 0z"/><path fill="#feb48e" d="M83 48.5c1.6-.9 3.4-1.5 5.2-1.6v.4c-2.2.4-4.3 1.3-6.1 2.7-.3.2-.6.4-.9.5v-.3c.5-.7 1.1-1.3 1.8-1.7z"/><path fill="#fdb58f" d="M93.2 63.7c1 0 2 .4 2.9.7.5.2 1 .5 1.4.8-.2.4-.6 0-.9-.1-1.1-.5-2.3-.6-3.5-1 .1-.2.1-.3.1-.4z"/><path fill="#feb58f" d="M86.9 65.5c1.7-.5 3.5-.4 5.2.1 1.1.3 2.3.5 3.2 1.3v.3c-.2 0-.4-.1-.7-.2-1-.5-2.1-.6-3.1-.8-1.5-.3-3.1-.3-4.7-.3.1-.2.1-.4.1-.4z"/><path fill="#b85c37" d="M103.2 67.9h.3c0 .9-.1 1.8-.1 2.7 0 1.8-.4 3.6-1 5.3h-.4c.3-1.2.5-2.4.6-3.7.2-1.4 0-2.9.6-4.3z"/><path fill="#b85b39" d="M105.3 68h.4c.3 1.8.2 3.6-.2 5.3-.3.9-.5 1.9-1.2 2.7h-.3c.8-1.6.9-3.5 1-5.3.2-.8.2-1.8.3-2.7z"/><path fill="#38312d" d="M83.5 70.7c.9-.2 1.8-.3 2.8-.3 2.1.1 4.2.7 6.1 1.6 1.4.7 2.7 1.6 4.1 2.3.4.2.9.4 1 .9.1.4 0 .8-.4 1.1-.4.3-.8.3-1.3.4-1.1.2-2.2.2-3.3 0-1.1-.2-2.2-.3-3.3-.6-1.2-.3-2.4-.7-3.5-1-1.3-.3-2.6-.3-3.9-.3-1.5-.1-3 0-4.4.3-.8.2-1.6.4-2.5.5-.2.1-.4-.1-.6-.2v-.3c.7-.5 1.5-.7 2.2-1.1 2.3-1.4 4.5-2.7 7-3.3zm32 3.8c1.1-.1 2.3-.2 3.4 0 .7.1 1.4.2 1.9.6.6.4 1.1.8 1.6 1.3.6.6 1.1 1.4 1.8 2.1.7.6 1.2 1.3 1.7 2h.1v.4c-.7.1-1.3-.1-1.9-.3-1.9-.6-3.9-1.2-5.9-1-1.8.2-3.7.4-5.5.3-2-.2-4-.6-5.9-1.3v-.9c1.4-.7 2.7-1.7 4.2-2.1 1.5-.6 3-.9 4.5-1.1z"/><path fill="#b75a35" d="M106.3 78.4c.2-.2.3-.5.6-.7v.5c-.3.6-.4 1.2-.6 1.8-.5 1.5-.6 3.1-.4 4.7.1 1.9.4 3.7.6 5.5.2 2.2.7 4.4 1.4 6.6.2.8.5 1.5.4 2.3-.1.5-.4 1-.9 1.1-1.2.3-2.5-.1-3.7-.3-1.3-.3-2.6-.4-3.9-.8v-.5c.3-.1.6-.1 1-.1 1.1.2 2.2.3 3.2.6 1.1.2 2.3.8 3.4.3.2-.5.1-1.1 0-1.6-.6-1.9-1.2-3.8-1.5-5.7-.2-1.5-.4-2.9-.6-4.4-.3-2-.5-3.9-.2-5.9-1.3-.2-2.6-.3-3.9-.3h-1v-.4c.5-.1 1-.2 1.5-.1 1.1.1 2.3.2 3.4.5.1-.4.2-.9.4-1.3 0-.1.1-.2.1-.3-.1-.5.2-1 .7-1.5z"/><path fill="#160e0b" d="M80.9 78.8c.4-.1 1-.2 1.4 0 .4.3.5.8.5 1.3-.1.7-.2 1.5-.5 2.2-.3.5-.8.8-1.3.7-.6-.1-1-.7-1.1-1.3-.1-.8.1-1.5.4-2.2.1-.3.3-.5.6-.7z"/><path fill="#bf6542" d="M99.8 79.8c1.2-.6 2.6-.5 3.9-.3.5.1 1.1.2 1.6.4 0 .1-.1.2-.1.3-.7-.3-1.4-.3-2.1-.4-1.1-.1-2.2-.1-3.3.2v-.2z"/><path fill="#38312d" d="M92.8 30.4c-.3.1-.5.5-.6.7h-.5c.1-.5.4-1 .2-1.6-.2-.5-.6-1-1.1-.8-.2.1-.3.3-.5.5H90c0-.4-.1-.8-.4-1.1-.3 0-.6 0-.8.1-.6.4-1 .9-1 1.6.1.1.2.2.3.4 0 .1 0 .3-.1.4-.7 0-.9-.9-.7-1.5.3-.8 1.1-1.6 2.1-1.5.4 0 .7.4 1 .7.4-.1.9-.3 1.3 0 .6.4.8 1.1.8 1.7.4-.2.8-.3 1.2-.1.5.2.7.8.6 1.3 0 .4-.2.9-.7.9.2-.4.4-.9.1-1.4-.1-.4-.6-.4-.9-.3zm10.2-.9c.3.2.3.6.2 1-.2.4-.6.7-.5 1.1.4.1.6-.3.8-.6.2-.2.4 0 .6 0 .2.4.2.9.3 1.4l.1.1c.4-.1.8-.2 1.2-.1.5.7.4 1.7.1 2.5h.3c.4-.8.6-1.9-.1-2.7-.4-.4-.9-.3-1.4-.2-.1-.6-.1-1.2-.6-1.5h-.5c0-.4 0-1-.4-1.3-.5-.4-1.2-.1-1.6.3-.1.2 0 .5 0 .7 0-.1.1-.3.1-.4.6-.2 1-.5 1.4-.3zm-4 4c-.1-.2-.2-.5-.3-.7-1-.4-2 .8-1.6 1.8h.3c-.1-.7.4-1.5 1.2-1.3.1.5-.3.8-.4 1.2.1.1.3.2.4.2.2-.2.3-.4.5-.6.1 0 .2-.1.3-.2.4.2.7.4.8.8-.1.6-.4 1.2-1 1.5-.4.2-1 .5-1.5.2.1.1.2.3.3.4.8-.1 1.6-.3 2.1-.9.4-.4.5-1.1.3-1.7-.3-.4-.9-.6-1.4-.7zm-8.7 1.8c-.6-.1-1.1.2-1.6.5 0-.1-.1-.3-.2-.3-.3-.1-.5-.1-.8-.1-.1-.2-.2-.4-.3-.5-.4-.2-.8 0-1.1.3-.5.5-.8 1.2-.5 1.8h.6v-.2c-.1-.1-.2-.2-.3-.2.2-.5.5-1 1-1-.2.4-.6.8-.5 1.3.2-.1.5 0 .6-.3.2-.2.4-.7.8-.7.4-.1.4.4.6.7.5-.3 1-.8 1.7-.7.4 0 .6.4.6.7.1.3-.1.6-.3.8h.3c.8-.6.3-1.9-.6-2.1zm17 2.9c-.2-.4-.4-.9-.9-1-.9-.1-1.6.5-2.2 1.1-.2-.3-.4-.6-.8-.7 0-.3-.1-.6-.3-.9-.6 0-1 .4-1.3.8 0 .1 0 .3.1.4.3-.3.6-.6 1-.8.2.6-.3 1-.5 1.4.1.1.3.2.4.2.2-.2.4-.5.6-.7.5-.2.5.5.6.8.5-.1.7-.6 1.1-.8.4-.3.9-.5 1.4-.4.3.2.4.7.6 1 .5-.1.8-.5 1.2-.9v-.2c-.4.3-.7.5-1 .7zm-11-1.2c-.3.2-.6.4-.9.5 0 .4.1.7 0 1.1-.2.5-.7 1-1.3.9-.1-.1-.2-.2-.2-.3.2-.6.5-1 .8-1.5-.6-.1-1.1.4-1.4.9H93c.2-.6.5-1.2 1.1-1.4.4-.1.7.1 1.1.2.2-.1.4-.3.6-.4h.5zM95 38.2c-.4.1-.5.6-.6.9.4-.2.6-.5.6-.9zm23.9.9c0 .1-.1.3-.1.4h.7c.2.5.5 1.2-.1 1.5v.4h.4c.5-.5.5-1.4.2-2.1-.1-.5-.7-.4-1.1-.2zm-45.2.8c.5-.2 1 .2 1.3.6h.3c.3-.3.5-.8 1-.8.4.5.5 1.1.6 1.7 0-.4.1-.8 0-1.1-.1-.4-.4-.6-.6-.9-.3 0-.6 0-.8.3-.2.1-.3.4-.5.4-.4-.2-.7-.7-1.2-.6-.6.2-.8.9-1 1.4-.4-.3-1-.6-1.5-.3-.7.4-.9 1.3-.8 2h.4c0-.6.2-1.2.8-1.6.6-.2 1 .4 1.4.7.3-.3.2-.7.3-1.1.1-.2.2-.4.3-.7zm10.3.8h-.3c-.2.4-.4.8-.7 1.2h-.5l-.3-.9h-.4c-.2.3-.3.7-.6.9-.2.1-.4.1-.7.1-.2-.3-.4-.5-.4-.8 0-.5.2-.9.3-1.3.2.1.4.2.6.2-.1-.2-.1-.5-.2-.7-.2 0-.5 0-.6.2-.7.8-.8 2.3.2 2.9.6.3 1.2-.1 1.5-.6.3.3.6.6 1 .5.5-.1.7-.6.9-1 .3 0 .6.1.9 0 .4-.1.6-.4.9-.7 0-.1-.1-.2-.1-.3-.2.4-.9.9-1.5.3zm32.5-.5-.9.3c-.2-.4-.7-.7-1.2-.6-.5.1-1.2.4-1.1 1 .5-.3 1.1-.6 1.7-.3 0 .1.1.3.1.3-.2.3-.6.6-.5 1 0 .3.5.4.7.2.4-.3.4-.8.5-1.2.5-.3 1.1-.5 1.7-.6-.4-.1-.7-.2-1-.1zm1.9 3.3c-.2-.1-.5 0-.7 0v.4h.5c.1.2.2.5.3.7-.1.2-.1.3-.2.5h.4c.2-.6.1-1.2-.3-1.6zm-42.4 1c-.4 0-.6.4-.9.6-.2 0-.3-.1-.5-.1-.9.1-1.6 1.1-1.4 2h.2c0-.8.6-1.3 1.3-1.6v.8h.3c.2-.8 1-1.4 1.9-1.1 0 .3 0 .5-.1.8.2 0 .3-.1.5-.1 0-.3.1-.7-.1-1-.4-.4-.8-.4-1.2-.3zm-10.2 3.8c.6 0 1-.4 1.5-.7.3.2.5.5.9.5.7 0 1.2-.5 1.6-1v-.5c-.4.6-1 1-1.6 1.1-.2-.1-.7-.3-.5-.6.1-.4.5-.9.2-1.3-.2-.2-.4 0-.6 0-.3.4-.3 1-.3 1.5-.4.3-.7.7-1.2.7-.6.1-1.1-.4-1.2-1-.2-.5 0-1.1.1-1.6h-.5c-.2.6-.2 1.2-.1 1.7.3.7 1 1.3 1.7 1.2zm63.4 1.7c.4-.8 1.2-1.4 2.1-1.6v-.3c-.8 0-1.5.4-2.1.9-.3-.2-.5-.5-.9-.5-.4-.1-.8.1-1.2.3-.3-.3-.5-.7-1-.7s-1 .3-1.3.7v.4h.3c.3-.6 1.3-.7 1.6-.1-.1.3-.3.6-.3 1h.4c.3-.2.3-.6.4-.9.4-.1.8-.4 1.2-.2.5.2.3.9.8 1zm-60.7 2.1c-.5-.4-1.1-.3-1.7-.1-.1-.1-.2-.3-.3-.4-.6-.1-1.3.2-1.3.9h.3c.3-.3.6-.5 1-.4 0 .4-.1.8-.1 1.3h.5c.1-.3.1-.5.2-.8.3-.3.7-.2 1.1-.2.1.1.1.3.2.4h.4c.2-.3.3-.6.5-.9h.4c0 .1.1.2.1.4v-.5l-.3-.3c-.4-.1-.7.3-1 .6zm61.1 1c.2-.3.3-.7.2-1.1-.4-.2-.8 0-1.1.2v.4c.2 0 .4-.1.6-.1-.2.3-.3.7-.4 1 .3.1.6.1.9.2.2.2.3.5.2.8-.2.4-.6.7-1.1.9v.2c.9.1 1.9-.7 1.6-1.7-.1-.4-.5-.6-.9-.8zm3.7-.2c.5-.2 1-.5 1.4-.9.2-.3.1-.7.1-1l-.3-.3c.1-.2.2-.5.3-.7.1-.3-.2-.7-.6-.7-.5 0-.8.3-1.1.6v.5h.3V50c.3-.1.5-.2.8-.3 0 .6-.6.8-.7 1.3h.9c0 .3.1.6-.2.8-.4.5-1 .8-1.6.9-.2 0-.3 0-.5-.1 0 .1 0 .3-.1.4.5.2 1 .2 1.3-.1zm-68.9 6.4c-.8 0-1.5-.4-2.1-1-.7 0-1.3-.4-1.7-1-.3-.6-.5-1.3-.4-1.9.1.4.1.9.2 1.3l.6.9c.3.3.7.3 1 .5 0-.5-.1-1 .2-1.4.2-.3.6-.7 1-.4.4.2.4.8.4 1.2-.1.4-.5.6-.8.8.3.4.8.7 1.4.8.4.1.8-.3 1.2-.4-.2.2-.5.5-1 .6zm-1.7-1.4c.4-.1.7-.4.8-.8l-.3-.6h-.3l-.2 1.4zm70.2 2.3c.4-.5 0-1.3-.5-1.6.2-.3.5-.7.3-1.2-.1 0-.3-.1-.4-.2-.3.1-.5.3-.7.5v.5c.2-.2.4-.3.5-.4 0 .6-.7.8-.7 1.3.3 0 .5-.1.8 0 .2.3.4.7.1 1-.3.3-.7.4-1.1.6v.3c.6-.1 1.3-.3 1.7-.8zm-72.9.6c-.5 0-.9.5-1.4.4-.6 0-1.1-.5-1.5-1-.7-.8-2.2-.4-2.5.7h.3c.4-.5 1-.8 1.6-.6.5.3.8.9 1.4 1.1.8.2 1.6-.1 2.1-.6zm74.8 1.8c.3-.6 1-1 1.7-.8-.1.4-.2.7-.4 1.1.5.1.9-.6 1.4-.2.2.4.2.8.2 1.2h.3c.1-.5.2-1.1-.2-1.6-.2-.2-.5-.2-.8-.3-.1-.2-.1-.4-.1-.6-.3-.2-.6-.4-.9-.3-.7.2-1.2.7-1.4 1.4 0 .1.1.1.2.1zm-69.2 2.6.3-1.5h-.5c-.2.6-.4 1.1-.3 1.7.1.5.4.8.7 1.2-.2.6-.9 1-1 1.7-.4.4-.4 1.1.2 1.3 0-.4-.1-.8 0-1.2.2-.3.4-.6.7-.8.3-.2.6-.4.7-.8 0-.6-.9-1-.8-1.6zm69.4 3.3c-.3-.3-.6-.7-1-.9.1-.4.4-.8.4-1.2 0-.3-.3-.4-.4-.5.1-.4.3-.8.1-1.2-.1-.3-.5-.3-.8-.3-.5.1-.8.5-1 .8.5 0 .9-.4 1.4-.3-.1.3-.1.6-.2.8-.2.2-.4.5-.5.7h.3c.2-.1.4-.2.7-.3 0 .6-.4 1-.3 1.6l1.2 1.2c.7 0 1.4-.3 2-.7-.7 0-1.3.5-1.9.3zm6.1-3.6c-.3.2-.7.4-1 .4-.4 0-.7-.3-1.1-.2-.7.2-1.2.8-2 .8v-.4c-.1 0-.2 0-.4.1v.4l.3.3c.8.2 1.4-.3 2.1-.6.4 0 .8.3 1.2.2.5-.1.8-.3 1.2-.6v-.4c-.1-.1-.2 0-.3 0zm-81.5.6c-.4.1-.7.5-1.1.7.1-.4.3-.8.8-1 .8-.3 1.9-.1 2.4.7.4-.2.8-.6 1.3-.4-.4.2-.8.5-1.2.9.1.7.2 1.4-.1 2-.3.5-1.2.6-1.4-.1-.1-.8.5-1.5 1.1-2.1-.4-.6-1.2-.8-1.8-.7zm1.7 1.4c-.3.4-.7.9-.5 1.5.2-.1.5 0 .6-.2.2-.4.1-.8.2-1.3-.1-.1-.2 0-.3 0zm73.3 7c-.5-.2-.9-.6-1.2-1.1.2-.3.4-.7.6-1 .2-.3.1-.6.1-.8h-.6c.1.2.1.3.2.5-.3.5-.8 1-.6 1.7.2.4.6.7 1 1 .7.4 1.5.3 2.3.1 0-.1 0-.2.1-.2-.7-.1-1.4 0-1.9-.2zm-71 1.6c-.3-.1-.5-.5-.8-.7-.2-.2-.5-.2-.7-.2-.1-.5 0-.9-.1-1.4-.1-.2-.1-.5-.4-.5-.6-.1-1 .6-1.5.4-.6-.4-.2-1.2-.2-1.8-.1 0-.3 0-.4.1-.2.7-.3 1.6.3 2.1s1.3 0 1.8-.2c.1.5 0 .9.1 1.4.1.4.5.4.8.5.2.3.5.7.8.8.3.1.6 0 .8 0 0-.1 0-.2.1-.4-.1-.1-.4 0-.6-.1zm-6.5-3.3c0 .3.1.7 0 1-.1.3-.4.6-.6.8h-.4v.3c.6 0 1.1-.4 1.3-.9.2-.4.1-.8 0-1.2h-.3zm75.3 5.9c.1-.6.6-1.1.8-1.7h-.5c-.3.5-.9 1-.9 1.7 0 .6.5 1.1 1 1.4.4.3.9.2 1.3.1v-.3c-.7 0-1.4-.4-1.7-1.2zm-.5 2.3h-.4c-.1.3-.4.6-.3 1 0 .3.3.6.6.8.6.3 1.3.4 2 .3 0-.1 0-.2.1-.4-.8-.1-1.5-.3-2.2-.7 0-.4.1-.7.2-1z"/><path fill="#cc492f" d="M54.9 84.9c.3-.7.9-1.3 1.6-1.4.3-.1.6.2.8.4-.4.3-.9.2-1.2.5-.6.7-.9 1.7-1 2.6-.2 2 .2 4 1.1 5.9 1 1.9 2.4 3.6 4 5 .2.2.3.4.4.6-.3 0-.5-.3-.8-.5-1.5-1.2-2.8-2.7-3.8-4.3-.9-1.3-1.4-2.9-1.6-4.5-.3-1.4-.1-2.9.5-4.3z"/><path fill="#160e0b" d="M113.3 84.1c.4-.2 1.1 0 1.2.4.2.6.1 1.2-.1 1.7-.2.6-.4 1.2-.9 1.6-.5.4-1.3.2-1.5-.3-.3-.7-.1-1.4.2-2 .3-.6.6-1.2 1.1-1.4z"/><path fill="#fdb391" d="M103.3 91c-.3-1.3-.7-2.8-.3-4.1.4.1.4.6.4.9.2 2 .6 3.9 1.1 5.9.1.4.1.7.1 1.1h-.3c-.3-1.3-.7-2.5-1-3.8z"/><path fill="#fdb48f" d="M91.3 87.9c.1-.1.3-.1.4 0-.1.3-.4.5-.6.7-1.7.9-3.6 2-5.6 1.9v-.4c2-.6 3.9-1.3 5.8-2.2z"/><path fill="#b95d38" d="M71 77.6v.3c1.1 1.1 2.7 1.6 4.2 2.1.4.2.9.2 1.4 0-.2 0-.4-.1-.6-.1-1.8-.6-3.5-1.3-5-2.3zm2.8 3c-1-.1-2-.3-3-.1v.3c1.6.3 3.2.3 4.8.1v-.1c-.6-.1-1.2-.2-1.8-.2zm-2.7 1.8v.3c1.4 0 2.9-.2 4.3-.7v-.3c-1.5.4-2.9.4-4.3.7zm49.2 2.6c.1 0 .2.1.3.1.9.2 1.9.1 2.8-.2 1-.3 2-.6 3-1 0-.1 0-.2.1-.2-2 .3-4 1.1-6.2 1.3zm-36-.5v-.3c-.4.1-.8.2-1.2.4-.7 0-1.5.2-2.2.1-.9-.1-1.7-.5-2.5-1v.4c.8.6 1.8 1 2.8 1.1.9 0 1.9-.2 2.8-.5-.1-.1.1-.2.3-.2zm-2.7 3.1c.1.2.2.4.4.5 1 .5 2.2.3 3.3 0 1.2-.4 2.5-.7 3.7-1.3v-.4c-1.6.5-3.2 1-4.9 1.3-.9 0-1.7-.1-2.5-.1zm42.6-1.3c-1.1-.2-2.3-.1-3.5-.2v.4c1.2.3 2.5.3 3.7.3.5 0 1-.1 1.5-.2 0-.1 0-.2.1-.3h-1.8zm-2.6 1.6c1 .3 2.1.5 3.2.5V88c-1.4 0-2.8-.6-4.1-.8 0 .5.5.6.9.7zm-5.8 1c-1.1.2-2.3.3-3.4.2-.6 0-1.2-.3-1.8-.4.2.2.3.5.6.6 1 .5 2.1.5 3.1.3.8-.1 1.6-.3 2.3-.7h-.8z"/><path fill="#cc492f" d="M128.8 89.4c.6 0 1.1.4 1.4.9.5.9.2 1.9-.1 2.8-.8 2.1-2.2 3.9-3.5 5.7-.9 1.2-1.8 2.4-2.9 3.3h-.2v-.2c.7-.7 1.3-1.5 1.9-2.3 1.5-2.1 3.1-4.3 4-6.8.2-.6.5-1.4.2-2-.2-.6-.7-.9-.8-1.4z"/><path fill="#fdb390" d="M114.4 91.2c1.5-.2 3-.5 4.4-1.2v.4c-.7.6-1.6.9-2.5 1.1-1.4.5-2.9.6-4.3 0 0-.1 0-.3.1-.3h2.3z"/><path fill="#b85a34" d="M100.1 97.3c.7-.3 1.5-.3 2.1.2v.5c-.6.3-1.4.2-2 0-.1-.3-.1-.5-.1-.7z"/><path fill="#38312d" d="M92.7 111.4c1.5-.6 3.2-.5 4.8-.5 1 .1 1.9.1 2.9.2 1.1.2 2.2.3 3.3.6.8.3 1.6.5 2.3.9.8.4 1.5 1 2.2 1.5v.4c-1-.4-1.9-1-3-1.4-1.1-.4-2.1-.8-3.3-.9-1.2-.1-2.5-.3-3.7-.3-1.4-.1-2.9-.2-4.3 0-1.5.4-2.9 1.2-4.5 1.7-.2.1-.5.1-.7.1v-.3c1.2-.8 2.6-1.4 4-2z"/><path fill="#803f26" d="M69.2 94.7c.1 0 .2-.1.3-.1.6 1.3 1.2 2.7 1.9 4 1 1.6 2.2 3.1 3.2 4.7.3.5.7 1 .9 1.7 0 .1-.1.1-.1.2-.7-1.1-1.5-2.2-2.3-3.3-1.2-1.4-2.4-2.9-3.1-4.7-.3-.8-.6-1.6-.6-2.5h-.2zm48.4 10.6c-1.6 2-3 4.1-4.1 6.4h.4c1-1.6 2-3.1 3.2-4.5.9-1 1.7-2.2 2.4-3.4.1-.2.1-.5.1-.7-.8.6-1.4 1.4-2 2.2zM66.1 110c0 .3.1.5.1.8.5 1.7 1.2 3.3 2.3 4.7 1.2 1.8 3.1 3 4.5 4.5.7.8 1.4 1.5 2.2 2.2 0 .1.1.2.1.2-.3-.8-1-1.4-1.5-2.1-.3-.5-.7-1-1.1-1.4-1-1-1.9-2.1-2.8-3.1-1.5-1.8-2.8-3.7-3.5-5.8h-.3zm29.3 6.1v.4c1.9-.2 3.8.1 5.7.3.4 0 .9-.1 1.3-.1-1.1-.2-2.1-.4-3.2-.6-1.2-.2-2.6-.4-3.8 0z"/><path fill="#b95d38" d="M66.9 117.6c.2 1.4 1.3 2.4 2.3 3.3 1.1.9 2.2 1.9 3.2 3 1.2 1.1 2.2 2.4 3.2 3.6.3.5.7.9 1.1 1.4.4.5.9 1 1.1 1.6v-.3c-.4-.5-.9-1.1-1.2-1.7h-.1c-.2-.5-.7-.9-1-1.4-1.8-2.3-3.6-4.6-5.8-6.5-.8-.6-1.5-1.3-2-2.2-.3-.3-.4-.7-.8-.8zm4.3 8.3c-.1.5.2.9.5 1.3 1.6 2.3 3.8 4.1 5.9 5.9 1.8 1.6 3.7 3.1 5.6 4.5v-.3c-2-1.6-3.9-3.3-5.8-5-2.2-1.9-4.4-3.9-6.2-6.4z"/><path fill="#803f26" d="M81.5 127.2v.3c.9 1.1 2 2 3.2 2.8 1.7 1.3 3.6 2.2 5.6 3.1.7.2 1.4.6 2.1.4-.6-.2-1.2-.3-1.7-.5-1.5-.6-2.9-1.4-4.2-2.3-1.8-1.2-3.5-2.5-5-3.8z"/><path fill="#b95d38" d="M69.3 127.5c0 .3 0 .5.2.8 1.5 3 4.2 5.2 6.8 7.4 2.2 1.8 4.4 3.5 6.7 5.1h.3c-.1 0-.2-.1-.4-.1-1.7-1.4-3.5-2.7-5.2-4.1-2-1.7-4.1-3.5-5.9-5.4-1-1.2-1.7-2.5-2.5-3.7zM97 138.8c-.2 1-.5 2-1 2.9-.6 1.3-1.8 2.3-2.7 3.4-1.3 1.6-2.5 3.3-3.2 5.2h.4c1.1-2.1 2.5-4 4.2-5.7.8-.9 1.7-1.8 2.1-3 .3-.9.6-1.9.5-3-.1.1-.2.1-.3.2zm-18.2 2c.2.6.4 1.2.6 1.7.4 1.4.8 2.7 1.3 4.1.8 2.1 2.1 3.9 3.3 5.7.1.1.2.1.4.2-.1-.3-.2-.7-.4-.9-.8-1.3-1.6-2.7-2.2-4.1-1-2.2-1.4-4.6-2.6-6.7h-.4z"/><path fill="#102438" d="M46.1 126.1c1.2.5 2.3 1.2 3.4 2 1.2.8 2.5 1.6 3.7 2.5.3.2.6.4.6.8-1.4-1-2.9-1.8-4.4-2.7-1.2-.7-2.4-1.4-3.6-2.2-.2-.2.1-.6.3-.4zm10-1.4c0 .1.1.2.2.3 0-.1 0-.2.1-.3-.5-.9-1.3-1.6-2.1-2.3-1.2-1-2.4-2-3.9-2.5v.4c1.1.6 2.2 1.3 3.2 2.1.9.7 1.8 1.4 2.5 2.3zM54 127l.5.5c0 .1.1.2.2.3v.1c.1.1.2.2.2.3 0-.2.1-.4 0-.6-.4-.8-1.2-1.4-1.9-1.9-1.6-1.2-3.3-2.1-5-3-.2-.1-.5-.1-.7-.2v.3c2.3 1.4 4.7 2.4 6.7 4.2zm-4.9 5.5c-1-.7-2.1-1.3-3.3-1.5v.4c1 .7 2.1 1.1 3.1 1.8 1.2.8 2.5 1.6 3.4 2.8h.2v-.3c-.2-.2-.3-.4-.5-.7-.7-1-1.8-1.8-2.9-2.5zm-4.8 4.2c1.5.7 3.1 1.3 4.5 2.4.1.1.2.2.4.3.2.2.5.4.7.7h.1v.3c.1 0 .3-.1.4-.1-.1 0-.2-.1-.3-.1 0-.1 0-.2.1-.2H50l.1-.2h-.2l.1-.1h-.1v-.1l-.1.1.1-.2h-.2v-.1h-.1c-.7-.7-1.5-1.2-2.3-1.7-1.6-1-3.5-1.5-5.1-2.7-.1 0-.3.1-.4.1.4.7 1.5 1.1 2.5 1.6zm-3 2.1c1.8.9 3.6 1.7 5.1 3.1.8.6 1.6 1.2 2.4 1.7.5.3.8.8 1.3 1.1v.1c.1 0 .3-.1.4-.1-.1 0-.2-.1-.3-.1l.1-.1h-.1c-.8-1.1-1.8-1.9-2.8-2.7-.6-.4-1.1-1-1.8-1.4-1.6-1-3.3-1.8-5-2.5-.4-.2-.8-.4-1.2-.3.3.6 1.2.8 1.9 1.2zm68.7.1c.2 0 .4 0 .5-.1.8-.7 1.6-1.3 2.5-2 1.3-.9 2.7-1.8 4.1-2.6.3-.2.7-.4.9-.7-.2 0-.3-.1-.5 0-2 1-4.1 2.2-5.9 3.5-.6.5-1.4 1.1-1.6 1.9zm.9-4.2c1.5-1.4 3.2-2.6 5-3.6v-.3h-.3c-1.6.8-3.2 1.7-4.6 2.9-.8.7-1.5 1.5-1.9 2.4h.3c.5-.4 1-.9 1.5-1.4zm-.9 8.5v.2h.2c2.2-1.7 4.4-3.4 6.8-4.7.8-.5 1.6-.8 2.4-1.3v-.3c-.1 0-.3.1-.4.1-2.3 1-4.6 2.2-6.6 3.7-.8.8-1.7 1.4-2.4 2.3zm.7 3.4c3.9-3.1 8.1-5.7 12.4-8 .5-.2 1-.5 1.5-.8v-.3c-.6.1-1.2.5-1.7.7-2.2 1.1-4.3 2.3-6.4 3.5-1.9 1.1-3.7 2.4-5.4 3.8-1 .8-2 1.6-2.7 2.7h.3c.7-.6 1.3-1.1 2-1.6zm-50.8-28.4c0-.2.1-.5-.1-.7-.3-.6-.8-1.1-1.2-1.5-.4-.4-.7-.8-1.2-.9v.3c.6.5 1.1 1 1.7 1.6.3.2.5.7.8 1.2zm-1.6 3c.1 0 .2-.1.3-.1 0 0-.1-.1-.2-.1-.3-.7-.9-1.3-1.4-1.8-.9-.9-1.9-1.8-3.1-2.3v.3c1.6 1.2 3.2 2.5 4.4 4zM33.8 155c0 .2.1.4.2.5.5.6 1.1 1.2 1.6 1.8.8.9 1.8 1.6 2.8 2.3 2 1.4 4.1 2.6 6.3 3.6 2.5 1.2 5.2 1.9 7.9 2.4 1.4.2 2.8.6 4.2.8l6 .9c1 .1 1.9.3 2.8.6 1.6.5 3.2 1 4.8 1.7.7.3 1.3.7 2 1.1 1.4.9 2.8 2 4.3 2.7.9.5 1.9 1 2.9 1.4.4.2.8.3 1.3.5v-.3c-.5-.3-1-.5-1.5-.8-2.1-1.2-4.1-2.5-6.2-3.8-.7-.5-1.4-.8-2.1-1.2-1.5-.8-3.1-1.2-4.7-1.8-2.6-.9-5.3-1.1-8-1.6-1.9-.2-3.7-.8-5.6-1.1-2.4-.5-4.7-1.1-6.9-2-2.2-.9-4.3-2.2-6.4-3.4-.7-.4-1.4-.9-2.1-1.5-1.2-.9-2.2-2-3.3-3-.1.2-.3.2-.3.2zm94.9-18.4c0 .6-.4 1.1-.7 1.6-1 1.4-2.3 2.6-3.7 3.6-2.4 1.8-4.9 3.3-7.3 5-1.9 1.4-3.7 2.9-5.3 4.6-.3.4-.7.8-1 1.1.1.1.2.2.2.3.3-.4.7-.8 1-1.1 1.4-1.4 3-2.6 4.6-3.8 1.3-.8 2.6-1.6 3.8-2.4 1.4-.9 2.8-1.7 4.1-2.6 1.6-1.2 3.2-2.4 4.2-4.1.4-.7.8-1.5.5-2.2h-.4zm-14.1 53.1c-.5.2-1.1.4-1.6.6-2.2.7-4.4 1.5-6.4 2.6-1.9 1.1-4.1 1.8-5.7 3.4h-.1v.3c.6-.1 1.2-.5 1.7-.8 1.2-.7 2.4-1.2 3.7-1.8 1.4-.7 2.7-1.5 4.1-2.1l2.7-1.2c.6-.1 1.1-.4 1.5-.7.1-.1.1-.2.1-.3zm8.9 4.3c-.6.6-1.4.9-2.1 1.4-1.5.9-3.1 1.7-4.7 2.5-1.1.5-2.2 1-3.4 1.2v.3c.9.1 1.8-.1 2.6-.4 1.2-.4 2.3-.9 3.4-1.4 1.4-.6 2.6-1.5 3.8-2.5.3-.3.8-.6.7-1.2-.1.1-.2.1-.3.1zm10.1-2.1c-.5-1.5-1.2-2.9-1.4-4.4h-.3v.1h-.2c-.1 1.2.3 2.4.7 3.6.5 1.8.9 3.6 1.3 5.5.5 2.5.8 5 1 7.5 0 1.1.2 2.1.1 3.2-.1.8-.1 1.7-.2 2.5 0 .2-.2.4-.3.6.1.1.2.1.3.3v-.2c.4-.2.5-.7.6-1.2.2-1.3.4-2.5.5-3.8.1-2.1-.1-4.2-.4-6.2-.4-2.6-1-5.1-1.7-7.5zm8.1 6h-.4c-.1.7.1 1.5 0 2.2-.1 2.4-.4 4.8-1.1 7.1-.1.3-.3.6-.5.9v.4c.3 0 .6-.2.7-.5.4-.5.5-1.2.7-1.8.4-1.4.7-2.8.8-4.3.2-1.3.3-2.7-.2-4zm-4.2-5.7c0-.3-.1-.5-.2-.8h-.4c0 .3 0 .7.1 1 .1.9.3 1.8.5 2.6.3 1.3.4 2.5.5 3.8v3.3c-.1 1.6-.3 3.2-.6 4.8-.1.5-.2 1.1-.4 1.5v.3c.5 0 .6-.5.8-.9.4-1.3.7-2.6.9-3.9.5-3 .4-6.1-.3-9.1-.3-.8-.6-1.7-.9-2.6zM36 205.5c-.8-2-1.8-3.9-3-5.6-1.6-2.2-3.5-4.3-5.3-6.4 0 .2-.1.4.1.6.4.6.9 1.2 1.3 1.8.8 1 1.6 2.1 2.4 3.1 1.6 2.2 2.9 4.7 3.9 7.3 1 2.5 1.8 5.1 2.2 7.8 0 .2 0 .5.3.5v-.2h.2c.1-1.3-.2-2.5-.4-3.8-.3-1.7-1-3.4-1.7-5.1zm5.9-4.6c-.9-2.2-2.2-4.2-3.6-6.2-1.5-1.9-3-3.9-4.5-5.8-1.3-1.7-2.8-3.2-3.8-5.1-.3-.6-.7-1.1-1.1-1.7-.1.7.4 1.3.7 2 .8 1.6 1.9 3 3 4.4 1.5 1.9 2.9 3.9 4.4 5.9 1.7 2.1 3.1 4.4 4.2 6.9 1 2.4 2 4.8 2.3 7.4.1 1.3.2 2.5.2 3.8 0 .1-.1.3-.2.4.4.1.6-.4.6-.7v-2.7c-.1-3-1.1-5.8-2.2-8.6zm-3.3 3.7c0-.2 0-.4-.1-.6-.6-1.3-1.1-2.7-1.8-4-1.9-4.1-4.7-7.8-7.8-11.1-1.8-1.9-3.8-3.7-5.5-5.7-1.6-1.8-3.1-3.6-4-5.8-.1-.2-.2-.4-.2-.6h-.3c0 .3.1.7.2 1 .5 1.6 1.4 3 2.4 4.3 1.4 1.7 2.9 3.4 4.5 5 2 1.9 4 4 5.7 6.2 2.8 3.6 5.1 7.6 6.8 11.9 0 .1.1.2.1.3.3.8.5 1.6.8 2.5h.3c-.2-1.2-.5-2.4-1-3.5l-.1.1zm38.4 1.3c-1.8-.3-3.6-.5-5.4-.8-2.4-.5-4.7-1.4-6.9-2.5-1.5-.7-3-1.1-4.6-1.5-.3-.1-.6 0-.9.1v.4c.7 0 1.3.3 1.9.4 1.1.3 2.2.8 3.3 1.3 2.1 1.1 4.3 2.1 6.7 2.4 1.6.2 3.3.4 4.9.6 1.4.2 2.7.3 4.1.5v-.4c-.5-.1-1-.2-1.5-.2-.5-.2-1-.2-1.6-.3zm26.6-44.9c1.8-1.7 3.7-3.4 5.8-4.9 1.7-1.3 3.4-2.7 5.1-3.9.5-.4 1.3-.6 1.6-1.2.2-.4.5-.6.8-.9-.6.3-1.2.6-1.8.8-.9.4-1.7 1-2.5 1.6-1.2.8-2.2 1.7-3.4 2.6-1.9 1.4-3.8 2.9-5.5 4.6-1.6 1.5-3.2 2.9-4.6 4.6-1.4 1.6-2.7 3.4-3.9 5.2-.7 1.1-1.3 2.3-2 3.5-.8 1.4-1.8 2.7-2.7 4.1-.5.8-1.1 1.6-1.6 2.4-.2-.5-.3-1-.5-1.5-.2-.9-.4-1.7-.8-2.5-.1-.1-.1-.2-.2-.4s-.1-.3-.2-.5v.5h.1v.4h.1c.1.7.4 1.5.5 2.2-1.4.2-2.8.4-4.2.4-1.7 0-3.4-.1-5-.6-1.3-.3-2.7-.5-3.9-1.1-1.1-.6-2.2-1.1-3.3-1.7-.8-.5-1.6-1.1-2.3-1.6-2.2-1.5-4.8-2.6-7.4-3.3-2.2-.6-4.5-1-6.8-1.6-1.7-.5-3.4-.8-5-1.4-1.2-.4-2.5-.7-3.7-1.1-1.4-.5-2.8-.8-4.1-1.5-2-1-4-1.9-5.9-2.9-2-1.1-3.7-2.7-5.4-4.2-.6-.4-.4-1.2-.2-1.8.4-1.1.9-2.2 1.4-3.3.9-2.4 1.6-4.8 2.1-7.3.1-.4.2-.8.2-1.2-.1 0-.2 0-.3-.1-.2.5-.3 1-.4 1.5-.6 2.3-1.3 4.5-2.1 6.7-.4 1.2-1 2.4-1.5 3.5-.2.7-.5 1.5 0 2.2.7.8 1.5 1.4 2.3 2.1 1.6 1.4 3.5 2.6 5.5 3.5 1.4.7 2.9 1.4 4.3 2.1 1.2.6 2.5.9 3.8 1.3 1.2.4 2.5.6 3.7 1.1 1.8.7 3.6 1.1 5.4 1.6 2.3.6 4.6 1 6.8 1.7 2.5.7 5 1.8 7.1 3.4.7.5 1.3 1 2 1.4 1.2.7 2.7 1.1 3.9 1.8.6.2 1.3.4 1.9.5 1.3.3 2.5.7 3.8.8 1.4.2 2.7.1 4.1.1 1-.1 2-.2 3.1-.4.2.6.3 1.3.6 1.9.2.2.5.1.6-.1 1.7-2.7 3.7-5.2 5.2-8 1.3-2.4 2.9-4.7 4.7-6.8 1.7-1.5 3.2-2.9 4.7-4.3zm11.1.8c.2-.2.4-.3.7-.5v-.4c-.4 0-.8.4-1.1.6-2.3 1.3-4.7 2.3-7.2 3.3-2.6 1.1-5 2.6-7 4.6-.6.7-1.2 1.4-1.5 2.3h.5c.9-1 1.8-1.9 2.9-2.7 3.9-3 8.7-4.3 12.7-7.2z"/></g></svg>