<svg xml:space="preserve" xmlns:xlink="http://www.w3.org/1999/xlink" enable-background="new 0 0 180 180" viewBox="0 0 180 180" xmlns="http://www.w3.org/2000/svg"><defs><path id="a" d="M0 0h180v180H0z"/></defs><use xlink:href="#a" fill="#1b6add" overflow="visible"/><clipPath id="b"><use xlink:href="#a" overflow="visible"/></clipPath><g clip-path="url(#b)"><path fill="#c9d9c1" d="M88.3 28.3c2.2-.9 4.4-1.8 6.8-1.9h5.4c1.7.2 3.4.5 5 1 2.5.7 4.9 1.8 7.2 3 1 .6 1.9 1.2 2.8 2 2.6 2.4 4.9 5.1 7 8 2.2 2.9 4.1 5.9 5.7 9.2.7 1.4 1.3 2.9 2 4.3.8 1.7 1.6 3.5 2.2 5.3.9 2.5 1.5 5.1 2.3 7.6.8 2.6 1.2 5.3 1.4 8 .4 3.2.2 6.5.2 9.7 0 3.1-.1 6.1-.4 9.2 0 1.4-.2 2.8-.3 4.2-.1 2.5-.3 5-.3 7.5v5.1c.1 1.6.2 3.2.5 4.7s.6 2.9 1.1 4.4c.9 2.5 1.9 4.9 2.8 7.4.4 1.2.9 2.3 1.1 3.5.3 1.5.7 2.9.9 4.4.3 1.8.4 3.7.4 5.5 0 2-.1 4.1-.3 6.1-.1 1.2-.4 2.3-.6 3.4-.2 1.3-.6 2.4-.9 3.7-.4 1.5-.9 2.9-1.3 4.3v.1c-.4.5-.5 1.2-.7 1.8-.9 2.4-1.8 4.9-2.5 7.3-.7 2.2-1.1 4.6-1 6.9 0 1 .1 1.9.3 2.9-.1 1.5.2 3 .1 4.4-.1 1.6-.1 3.2-.3 4.8-.3 2.2-.7 4.4-1.4 6.5-.5 1.5-1.3 2.9-2 4.3-.8 1.6-1.9 3.1-2.7 4.8-1.2 1.6-1.7 3.6-2.2 5.6-.7 3-.6 6.1-.9 9.2-.4 3.1-1.5 6.2-3.5 8.6-.6.7-1.4 1.4-2.3 1.7-.9.3-1.8.7-2.7.7-2.8.2-5.5-1.4-6.8-3.8-.7-1.5-1.1-3.1-1.3-4.8-.1-1.2 0-2.5.2-3.7.2-1.6.6-3.1.9-4.7.1-.6.3-1.3.5-1.9.5-1.3.9-2.7 1.2-4 .3-1.3.5-2.7.6-4.1.1-1.3.1-2.6-.1-4-.2-1.3-.4-2.6-.9-3.8-.9-2.1-1.8-4.2-3.2-6.1-.8-1.1-1.1-2.4-1.6-3.5-1-2.4-1-5.1-.7-7.7.1-1.1.4-2.2.7-3.3.3-1.4.9-2.8 1.3-4.2.7-2.2 1.9-4.2 2.9-6.3.9-1.9 1.7-3.9 2.1-6 .3-1.5 0-3.1-.2-4.6 0-.4-.2-.7-.4-1-.3.4-.5.7-.8 1.1-.7-.8-1.3-1.7-2-2.4-.9-.9-1.5-2.1-2.7-2.6-.9-.4-1.8-1.1-2.9-1-.8.1-1.6.3-2.4.4-1.3.2-2.6.3-4 .3-1.9.1-3.8-.2-5.7-.3-2.6 0-5.3-.3-7.9-.8-1.3-.2-2.5-.5-3.8-.7-.1.3-.1.6-.2.9-.5 1.2-1.1 2.4-1.5 3.7-.4.9-.6 1.9-.9 2.9-.6 1.2-.7 2.5-1.1 3.8-.2.8-.3 1.6-.5 2.3-.1.4-.1.9 0 1.3.3 1.5.6 3 1.3 4.5.4 1 .8 2 1.1 3.1.2.9.3 1.8 1 2.5l.6.6c.8 1.9 1.7 3.8 2.4 5.7.9 2.6 1.7 5.3 1.9 8.1.1 1.4-.1 2.7-.1 4.1-.1 1.9-.2 3.7-.5 5.6-.4 2.4-1.2 4.7-1.7 7.1-.3 1.2-.8 2.4-1.2 3.6-.4 1.2-.8 2.3-1.2 3.5-.2.8-.6 1.6-1 2.3-.7 1.3-1.1 2.8-1.7 4.2-.9 2.1-1.2 4.5-.9 6.8.2 1.6.6 3.2 1 4.8.3 1.1.6 2.3.3 3.5-.2.8-.6 1.7-1.3 2.2-1 .6-2.2.6-3.3.4-2.4-.7-4.6-2-6.2-3.9-.8-1-1.5-2-1.9-3.2-.4-1.1-.8-2.2-1.1-3.4-.4-2.1-.5-4.2-.9-6.2-.5-2.9-1.1-5.8-2.1-8.6-1.1-3-2.4-6-4.3-8.5-.7-1-1.5-1.8-2.1-2.9-1.1-2.1-1.6-4.4-1.9-6.7-.4-4.5.6-9.1.6-13.6 0-1.2 0-2.3-.2-3.5-.2-1.4-.6-2.8-1-4.2-.3-1.1-.7-2.2-1.3-3.2-.5-.9-1-1.8-1.6-2.7-.7-1.1-1.4-2.1-2-3.2-.2-.3-.4-.5-.7-.7-1.3-2.5-2.9-4.9-3.9-7.7-.5-1.2-.8-2.5-1.1-3.8-.7-3.1-.8-6.2-.7-9.4.2-2.4.4-4.8.9-7.2.5-2.4 1-4.9 1.5-7.3.5-2.4 1.1-4.8 1.6-7.3.4-1.9.7-3.8 1-5.8.2-1.3.2-2.7.4-4v-5.4c0-1.6-.3-3.2-.3-4.7-.2-3.2-.6-6.3-.8-9.5-.1-1.2 0-2.5-.2-3.7v-5.6c.2-4.4.4-8.8 1.5-13.1.2-.5.4-1.1.4-1.7.1-.9.5-1.8.8-2.6 1.6-4.7 4.1-9.2 7.8-12.5 1.5-1.5 3.3-2.7 5.1-3.7 1-.6 2-1 3.1-1.4.5-.2 1-.3 1.5-.6 1.1-.6 2.3-1.2 3.5-1.7 1.3-.6 2.7-1.1 4.1-1.4 1.3-.3 2.7-.1 4-.2.7-.9 1.5-1.8 2.4-2.6 1.5-1.6 3.5-2.7 5.3-3.7 1.5-.7 2.9-1.5 4.4-2.1z"/><path fill="#bfae67" d="M80.2 144.2c1.3.2 2.5.5 3.8.7 2.6.5 5.2.8 7.9.8 1.9.1 3.8.3 5.7.3 1.3 0 2.7-.1 4-.3.8-.1 1.6-.3 2.4-.4 1.1-.2 2 .6 2.9 1 1.2.5 1.8 1.7 2.7 2.6.7.8 1.3 1.6 2 2.4-.1.1-.1.2-.2.3-.6-1-1.3-1.8-2.1-2.7-.8-.9-1.4-1.9-2.5-2.5l-1.8-.9c-.4-.2-.8-.1-1.1 0-2.8.7-5.6.9-8.4.7-1.1-.1-2.1-.2-3.2-.2-1.6 0-3.2-.2-4.9-.4-1.8-.2-3.5-.6-5.2-.9-.6-.1-1.1-.2-1.7-.4-.1.2-.3.4-.4.7 0-.2 0-.5.1-.8z"/><path fill="#bc983c" d="M112.3 150.3c.2.3.4.6.4 1 .1 1.5.5 3.1.2 4.6-.4 2.1-1.1 4.1-2.1 6-1 2.1-2.2 4.1-2.9 6.3-.5 1.4-1.1 2.7-1.3 4.2-.2 1.1-.6 2.2-.7 3.3-.3 2.6-.3 5.2.7 7.7.5 1.2.8 2.5 1.6 3.5 1.3 1.9 2.3 4 3.2 6.1.5 1.2.8 2.5.9 3.8.1 1.3.2 2.6.1 4s-.3 2.8-.6 4.1c-.3 1.4-.7 2.7-1.2 4-.2.6-.4 1.2-.5 1.9-.3 1.6-.7 3.1-.9 4.7-.1 1.2-.3 2.4-.2 3.7.2 1.6.5 3.3 1.3 4.8 1.3 2.4 4 4 6.8 3.8 1 0 1.9-.3 2.7-.7 0 .1.1.2.1.3-.6.4-1.1.9-1.7 1.3-.8.5-1.7.4-2.5.3-1.1-.1-2.3-.3-3.2-.9l-2.1-1.5c-.9-.8-1.6-1.8-2.1-2.9-.6-1.4-1.2-2.8-1.5-4.3-.5-2.5-.1-5 .1-7.5.1-2.9 1-5.7 1.4-8.5.1-1.3.4-2.7.4-4 0-2-.8-3.8-1.8-5.5-.6-1-1.4-2-2-3-.5-.9-1-1.8-1.5-2.8-.6-1.2-1-2.4-1.4-3.7-.9-2.7-1-5.6-.8-8.4.1-2.3.6-4.6 1.3-6.8.4-1.3 1-2.5 1.3-3.8.4-2.5.1-5.1-.8-7.5-.1-.4-.3-.8-.2-1.2.8-.3 1.6-.5 2.4-.8 1.2-.4 2.3-1.1 3.4-1.8 1-.7 2.1-1.3 2.7-2.3.1-.1.1-.2.2-.3.3-.5.6-.9.8-1.2zm-34.7 1.3h.7c.5 1 1.4 1.8 2.2 2.7.4.5.9.9 1.1 1.5.1.6-.2 1.2-.4 1.7-.5 1.3-.9 2.7-1.3 4.1-.4 1.4-.5 2.8-.3 4.2.1.8 0 1.6.2 2.3.1.5.2 1 .3 1.6l-.6-.6c-.2-.9-.6-1.7-1-2.5-.3-1.1-.7-2.1-1.1-3.1-.6-1.4-.9-3-1.3-4.5-.1-.4-.1-.9 0-1.3.2-.8.3-1.6.5-2.3.3-1.2.4-2.6 1-3.8zM46 156.9c.3.2.5.4.7.7.6 1.1 1.3 2.2 2 3.2.6.9 1 1.8 1.6 2.7.6 1 .9 2.1 1.3 3.2.4 1.4.8 2.8 1 4.2.2 1.1.2 2.3.2 3.5.1 4.5-.9 9-.6 13.6.3 2.3.8 4.6 1.9 6.7.5 1.1 1.4 1.9 2.1 2.9 2 2.5 3.3 5.5 4.3 8.5 1 2.8 1.6 5.7 2.1 8.6.4 2.1.5 4.2.9 6.2.3 1.2.7 2.3 1.1 3.4.4 1.2 1.2 2.2 1.9 3.2 1.6 1.9 3.8 3.2 6.2 3.9-.1 1.2-.1 2.5-.6 3.6-.5 1-1.5 2-2.7 2.1-2 .1-4.1-.6-5.6-2.1-1.4-1.4-2.4-3.1-3.4-4.8-1-1.8-1.8-3.7-2-5.7-.2-2-.3-4-.2-6 0-1.2 0-2.4-.1-3.6-.1-2-.5-4-1.2-5.8-1-2.3-2.7-4.2-4.2-6.1-1.3-1.7-2.6-3.3-3.4-5.3-.8-1.9-1.6-3.9-1.9-6-.5-2.9-.5-5.9-.5-8.9.1-1.8.5-3.6.6-5.4.1-2.3.1-4.6-.5-6.8-.6-2.4-1.5-4.8-2.8-6.9-.8-1.3-1.3-2.8-1.4-4.3 1.1-.8 2.2-1.6 3.2-2.5z"/><path fill="#c0ae65" d="M138.2 159.8c.2-.6.3-1.3.7-1.8-.2 1-.6 2-1 3-.6 1.5-1.1 3.1-1.6 4.7-.8 2.4-1.5 5-1.4 7.6 0 1 0 2 .2 3 0 .2 0 .3-.1.5v.1c-.2-.9-.3-1.9-.3-2.9-.1-2.3.3-4.7 1-6.9.7-2.4 1.6-4.9 2.5-7.3z"/><path fill="#dfaf33" d="M138.9 158.1c.8.6 1.7 1.2 2.6 1.8-.7.9-1 2.1-1.6 3.1-1.7 3.5-2.8 7.3-4.1 11-.2.8-.5 1.6-.8 2.3-.1-1-.2-2-.2-3-.1-2.6.6-5.1 1.4-7.6.5-1.6 1-3.1 1.6-4.7.5-.9.8-1.9 1.1-2.9z"/><path fill="#9d7c35" d="M139.9 163c.5-1 .9-2.1 1.6-3.1l.1-.1v.1c-.9 2-1.8 3.9-2.6 5.9-1 2.4-1.7 4.9-2.5 7.3-.4 1.3-.9 2.6-1.3 4 0-.1-.1-.2-.1-.3 0-.2 0-.3.1-.5.3-.8.5-1.5.8-2.3 1.1-3.7 2.1-7.5 3.9-11z"/><path fill="#4e3e37" d="M131.3 244.6c.1-1.2.1-2.5.3-3.7l1.5-9.6c.1-1 .4-1.9.4-2.9s.3-2 .5-2.9c.1-1.6.5-3.1.7-4.7.5-2.9 2.8-14.1 3.3-16.8.6-3.3 1.3-6.6 2-9.9.4-2.3 4.6-20.3 5.3-23 .7-2.6 1.4-5.2 2.1-7.9-1.1-.5-2.1-1.2-3.2-1.7-.9-.5-1.8-1-2.7-1.6-.9 2-1.8 3.9-2.6 5.9-1 2.4-1.7 4.9-2.5 7.3-.4 1.3-.9 2.6-1.3 4 .2 1 .2 1.9.2 2.9 0 3.4-.2 6.8-.9 10.1-.5 2.1-1.3 4-2.2 6-1 2.1-2.4 4.1-3.5 6.1 0 .4-.1.8-.2 1.1-.6 2.9-1.3 5.9-1.8 8.8-.5 2.4-.7 4.9-1.1 7.3-.5 3.3-1 6.7-1.5 10-.2 1.4-.2 2.8-.4 4.2-.2 1.7-.5 3.5-.8 5.2-.2 1.4-.3 2.8-.4 4.2 0 .5-.1 1-.1 1.6h8.9z"/><path fill="#9b7a35" d="M147.4 163.2s0 .1.1.2c-.3 1.7-.8 3.3-1.2 5-.5 2.2-1.1 4.3-1.5 6.4-.6 2.8-1.3 5.6-1.9 8.5-.7 3.1-1.5 6.2-2.2 9.3-.5 2.6-5.4 27-5.6 28.4-.5 1.5-.5 3-1 4.5.1-1.6.5-3.1.7-4.7.5-2.9 1.1-5.8 1.7-8.7.5-2.7 1.1-5.4 1.6-8.1.6-3.3 1.3-6.6 2-9.9.4-2.3 1.1-4.6 1.6-7 .7-2.6 1.2-5.3 1.8-7.9.7-2.7 1.2-5.4 1.9-8.1.7-2.6 1.3-5.3 2-7.9z"/><path fill="#4e3e37" d="M33.7 190.1c.4 2.7.6 5.4.9 8 .5 3.6 1.1 7.3 1.6 10.9.5 2.9 1 5.8 1.4 8.8.4 3 1.1 6 1.7 8.9.2 1 .2 1.9.2 2.9.1 2.7.4 5.3.7 8 .2 1.3.3 2.6.9 3.7.3.7.6 1.4.8 2.1-.4-.4-.6-.8-.9-1.2.1.8.2 1.6.3 2.3h9.4c-.2-.9-.4-1.8-.5-2.7-.5-2.4-.7-4.9-1.1-7.3-.6-3.5-1-7-1.6-10.5-.4-2.5-.8-5.1-1.2-7.6-.4-3-.9-5.9-1.4-8.8-.6-3.5-1.2-7-1.7-10.5-.4-2.4-.6-4.9-1-7.3-.5-2.9-1.2-5.8-1.8-8.7-.7-3.1-1.3-6.2-2.1-9.3-.6-2.4-1.4-4.6-2-7v-.1c-1.9 1.7-3.9 3.3-5.7 5.2.7 3.4 1.1 6.8 1.5 10.3.7 3.2 1.2 6.6 1.6 9.9z"/><path fill="#9d7c35" d="M40.6 181.1c.6 2.9 1.3 5.8 1.8 8.7.4 2.4.7 4.9 1 7.3.5 3.5 1.1 7 1.7 10.5.5 2.9 1 5.9 1.4 8.8.4 2.5.8 5.1 1.2 7.6.6 3.5 1 7 1.6 10.5.4 2.4.7 4.9 1.1 7.3.2.9.4 1.8.5 2.7h.1c-.5-2.4-.9-4.8-1.2-7.3l-1.5-9.9c-.4-3-1-5.9-1.4-8.8-1.1-8.5-2.8-16.9-3.9-25.4-.4-3.1-1-6.1-1.7-9.2-1.1-5.1-2.1-10.2-3.6-15.2-.4-1.3-.7-2.7-1.3-4 .6 2.4 1.4 4.6 2 7 .9 3.1 1.5 6.3 2.2 9.4z"/><path fill="#b0a268" d="M78.4 166.7c.4.8.9 1.6 1 2.5-.7-.7-.8-1.7-1-2.5z"/><path fill="#a07e35" d="M30.7 169.9h.1c.7 3.4 1.1 6.8 1.5 10.3.5 3.3 1 6.7 1.4 10 .4 2.7.6 5.4.9 8 .5 3.6 1.1 7.3 1.6 10.9.5 2.9 1 5.8 1.4 8.8.4 3 1.1 6 1.7 8.9.2 1 .2 1.9.2 2.9-.4-3-1.1-5.9-1.7-8.8-.5-2.8-.9-5.7-1.4-8.5-.9-6-2-11.9-2.6-17.9-.3-2.7-.6-5.4-1-8.1-.4-2.9-.9-5.8-1.2-8.7-.3-2.6-.7-5.1-1.2-7.7l.3-.1z"/><path fill="#757166" d="M135 176.9v-.1c0 .1.1.2.1.3.2 1 .2 1.9.2 2.9 0 3.4-.2 6.8-.9 10.1-.5 2.1-1.3 4-2.2 6-1 2.1-2.4 4.1-3.5 6.1v-.3c.8-1.7 1.9-3.2 2.7-4.8.7-1.4 1.5-2.8 2-4.3.8-2.1 1.2-4.3 1.4-6.5.2-1.6.2-3.2.3-4.8.1-1.6-.2-3.1-.1-4.6z"/><path fill="#beab63" d="M126.5 207.4c.4-1.9 1-3.9 2.2-5.6v.2c-.2.4-.3.8-.5 1.2-.7.9-.9 2-1.1 3-.6 2.4-.9 4.8-.9 7.3-.2 2.3-.4 4.5-1 6.7-.2.5-.5 1-.7 1.5-.9 2.2-2.4 4.3-4.5 5.5 0-.1-.1-.2-.1-.3 1-.3 1.7-1 2.3-1.7 2-2.4 3.1-5.5 3.5-8.6.2-3.1.1-6.2.8-9.2z"/><path fill="#9b7a35" d="M122.4 244.6c0-.5.1-1 .1-1.6.1-1.4.2-2.8.4-4.2.3-1.7.5-3.5.8-5.2.2-1.4.2-2.8.4-4.2.4-3.4 1-6.7 1.5-10 .4-2.4.7-4.9 1.1-7.3.6-2.9 1.2-5.9 1.8-8.8.1-.4.1-.7.2-1.1v-.1c-.2.4-.3.8-.5 1.2-.1.6-.1 1.2-.3 1.8-.6 2.8-1.2 5.7-1.7 8.5-.2 2.3-.4 4.5-1 6.7-.1 1.3-.4 2.6-.5 4-.2 1.6-.5 3.1-.7 4.7-.2 1.8-.3 3.6-.6 5.4-.4 2.7-1 5.3-1 8.1 0 .7-.1 1.5-.1 2.2h.1z"/><path fill="#deae33" d="M127 206.2c.3-1 .5-2.1 1.1-3-.1.6-.1 1.2-.3 1.8-.6 2.8-1.2 5.7-1.7 8.5 0-2.4.3-4.9.9-7.3z"/><path fill="#dfaf33" d="M37.8 168.7c1.5 5 2.4 10.1 3.6 15.2.7 3 1.3 6.1 1.7 9.2 1 8.5 2.7 16.9 3.9 25.4.4 3 1 5.9 1.4 8.8.4 3.3.9 6.6 1.5 9.9.3 2.4.7 4.9 1.2 7.3h71.1c0-.7.1-1.5.1-2.2.1-2.7.7-5.4 1-8.1.3-1.8.4-3.6.6-5.4.2-1.6.4-3.1.7-4.7.2-1.3.5-2.6.5-4-.2.5-.5 1-.7 1.5-.9 2.2-2.4 4.3-4.5 5.5-.6.4-1.1.9-1.7 1.3-.8.5-1.7.4-2.5.3-1.1-.1-2.3-.3-3.2-.9l-2.1-1.5c-.9-.8-1.6-1.8-2.1-2.9-.6-1.4-1.2-2.8-1.5-4.3-.5-2.5 0-5 .1-7.5.2-2.9 1-5.7 1.4-8.5.1-1.3.4-2.7.4-4 0-2-.8-3.8-1.8-5.5-.6-1-1.4-2-2-3-.5-.9-1-1.8-1.5-2.8-.6-1.2-1-2.4-1.4-3.7-.9-2.7-1-5.6-.8-8.4.1-2.3.6-4.6 1.3-6.8.4-1.3 1-2.5 1.3-3.8.4-2.5.1-5.1-.8-7.5-.1-.4-.3-.8-.2-1.2.8-.3 1.6-.5 2.4-.8 1.2-.4 2.3-1.1 3.4-1.8 1-.7 2.1-1.3 2.7-2.3-.6-1-1.3-1.8-2.1-2.7-.8-.9-1.4-1.9-2.5-2.5l-1.8-.9c-.4-.2-.8-.1-1.1 0-2.8.7-5.6.9-8.4.7-1.1-.1-2.1-.2-3.2-.2-1.6 0-3.2-.2-4.9-.4-1.8-.2-3.5-.6-5.2-.9-.6-.1-1.1-.2-1.7-.4-.1.2-.3.4-.4.7-.5 1.2-1.1 2.4-1.5 3.7-.4.9-.6 1.9-.9 2.9h.7c.5 1 1.4 1.8 2.2 2.7.4.5.9.9 1.1 1.5.1.6-.2 1.2-.4 1.7-.5 1.3-.9 2.7-1.3 4.1-.4 1.4-.5 2.8-.3 4.2.1.8 0 1.6.2 2.3.1.5.2 1 .3 1.6.8 1.9 1.7 3.8 2.4 5.7.9 2.6 1.7 5.3 1.9 8.1.1 1.4-.1 2.7-.1 4.1-.1 1.9-.2 3.7-.5 5.6-.4 2.4-1.2 4.7-1.7 7.1-.3 1.2-.8 2.4-1.2 3.6-.4 1.2-.8 2.3-1.2 3.5-.2.8-.6 1.6-1 2.3-.7 1.3-1.1 2.8-1.7 4.2-.9 2.1-1.2 4.5-.9 6.8.2 1.6.6 3.2 1 4.8.3 1.1.6 2.3.3 3.5-.2.8-.6 1.7-1.3 2.2-1 .6-2.2.6-3.3.4-.1 1.2-.1 2.5-.6 3.6-.5 1-1.5 2-2.7 2.1-2 .1-4.1-.6-5.6-2.1-1.4-1.4-2.4-3.1-3.4-4.8-1-1.8-1.8-3.7-2-5.7-.2-2-.3-4-.2-6 0-1.2 0-2.4-.1-3.6-.1-2-.5-4-1.2-5.8-1-2.3-2.7-4.2-4.2-6.1-1.3-1.7-2.6-3.3-3.4-5.3-.8-1.9-1.6-3.9-1.9-6-.5-2.9-.5-5.9-.5-8.9.1-1.8.5-3.6.6-5.4.1-2.3.1-4.6-.5-6.8-.6-2.4-1.5-4.8-2.8-6.9-.8-1.3-1.3-2.8-1.4-4.3-2.1 1.7-4.3 3.4-6.3 5.2v.1c.5 1.2.8 2.6 1.2 3.9zm133 75.9c.3-1.3.5-2.7.8-4 .4-2.3.9-4.6 1.2-7 .4-3.2.5-6.3.7-9.5.1-1 0-2 .1-3 .2-2.3 0-4.5.2-6.8 0-1.8.1-3.6 0-5.4-.1-4.6-.8-9.2-1.5-13.8-.4-2.5-1-4.9-1.7-7.3-.5-1.6-.9-3.2-1.6-4.8-.7-1.7-1.8-3.2-2.8-4.7-1.3-2-2.9-3.8-4.7-5.4-1.4-1.3-2.9-2.5-4.5-3.6-2.4-1.6-4.7-3.2-7.1-4.6-.8-.4-1.5-1-2.4-1.3-.3 1.7-.8 3.3-1.2 5-.5 2.2-1.1 4.3-1.5 6.4-.6 2.8-1.3 5.6-1.9 8.5-.7 3.1-1.5 6.2-2.2 9.3-.5 2.6-5.4 27-5.6 28.4-.5 1.5-.5 3-1 4.5-.2 1-.5 1.9-.5 2.9s-.2 1.9-.4 2.9l-1.5 9.6c-.2 1.2-.3 2.5-.3 3.7h39.4zm-165-.7c0 .2.1.4.1.7h35.6c-.2-.9-.3-1.8-.5-2.8.1-.2.2-.3.3-.5-.5-1.2-.7-2.5-.9-3.7-.4-2.6-.6-5.3-.7-8-.4-3-1.1-5.9-1.7-8.8-.5-2.8-.9-5.7-1.4-8.5-.9-6-2-11.9-2.6-17.9-.3-2.7-.6-5.4-1-8.1-.4-2.9-.9-5.8-1.2-8.7-.3-2.6-.7-5.1-1.2-7.7-.9.8-1.7 1.7-2.7 2.5-1.8 1.6-3.7 3.2-5.6 4.7-2.3 1.8-4.7 3.5-6.8 5.4-1.4 1.3-2.9 2.5-4 4.1-2.1 3.1-3.5 6.6-4.4 10.2-.7 2.7-.9 5.4-1.2 8.1-.3 3.1-.6 6.1-.8 9.2-.1 1.7-.1 3.4-.2 5-.1 1.5-.1 3-.1 4.5-.1 2.1 0 4.3-.1 6.4 0 1.2.1 2.5.1 3.7.2 3.4.6 6.8 1 10.2z"/><path fill="#a07e35" d="M41.5 244.6c-.1-.8-.2-1.6-.3-2.3.2.4.5.9.9 1.2-.2-.7-.5-1.4-.8-2.1-.1.2-.2.3-.3.5.1.8.2 1.7.5 2.7z"/><path fill="#828e7d" d="M95.8 29.7c1.7-.2 3.4-.1 5.1.4 1.4.3 2.8.5 4.1 1 1.4.4 2.8 1 4.2 1.6.8.4 1.5 1 2.3 1.4.9.5 1.8 1.1 2.7 1.8.5.4 1.1.7 1.5 1.2 1.5 1.5 3 2.9 4.3 4.5.6.8 1.2 1.7 1.6 2.6.4.9 1 1.7 1.4 2.6.5 1.1.8 2.2 1.3 3.3.9 1.9 1.6 3.8 2.6 5.6.8 1.5 1.8 2.9 2.5 4.4.6 1.4 1.3 2.8 1.8 4.3.9 2.9 1.3 5.8 1.8 8.8.3 1.7.3 3.4 0 5.1-.3 3.3-1.1 6.4-1.2 9.7-.1 2 .1 4 .1 6 .2 2.9 0 5.9-1.1 8.7-.8 2.2-1.4 4.5-1.7 6.8-.2 1.7-.2 3.3-.4 5-.3 2.5-1.3 4.8-2.1 7.2-.9 2.6-1.6 5.3-2.1 8-.5 2.9-.7 5.8-.5 8.7.2 1.9.4 3.8.5 5.8 0 1.4.1 2.8.2 4.2.1 1.8.1 3.6-.3 5.4-.6 2.5-1.5 5-2.1 7.5-.7 2.5-1.1 5.1-1.4 7.7-.2 1.7-.4 3.5-.1 5.2.2 1.6.6 3.2.8 4.7.5 2.6 1.2 5.1 1.3 7.8 0 1.4.1 2.7-.2 4.1-.4 1.6-.9 3.2-1.5 4.8-.5 1.2-.8 2.4-1.2 3.6-.3.9-.5 1.8-.8 2.7h-.4c.2-1.6.7-3.1 1.1-4.7.2-.9.6-1.8.9-2.7.5-1.2.8-2.5 1.1-3.7.3-1.3.2-2.6.2-4-.1-2.3-.6-4.5-1.1-6.6-.3-1.2-.4-2.5-.7-3.7-.2-1.3-.4-2.6-.5-4 0-2.7.5-5.5.9-8.1.4-2.4 1.2-4.8 2-7.2.5-1.7 1.1-3.4 1.2-5.2.2-1.8-.1-3.5-.2-5.3 0-2.9-.4-5.8-.6-8.7-.2-5.6.9-11.1 2.8-16.4.8-2.4 1.8-4.8 2.1-7.3.2-1.6.2-3.2.4-4.7.3-2.5.9-4.9 1.8-7.2 1-2.8 1.2-5.8 1-8.8-.1-1.7-.2-3.4-.1-5.1-.1-2.8.6-5.6.9-8.4.3-2.1.6-4.3.2-6.4-.6-3.1-1-6.2-2-9.2-.5-1.3-1-2.6-1.6-3.8-.7-1.6-1.8-3.1-2.6-4.7-1-1.7-1.7-3.6-2.5-5.4-.7-1.4-1-3-1.9-4.4-.6-.9-1-2-1.7-2.9-1.4-2.2-3.3-3.9-5.1-5.7-1.4-1-2.7-2.1-4.2-2.8-.6-.3-1.2-.7-1.8-1-2.1-1-4.3-1.8-6.6-2.2-1.7-.3-3.3-.8-5-.8-1.2-.1-2.5.2-3.7.3-1.9.1-3.9.3-5.7.9-.3.1-.6.2-.9.2.3-.8 1.2-1 2-1.2 2.4-1.1 4.7-1.1 6.9-1.3z"/><path fill="#828e7d" d="M92.4 33.4c1.5-.2 3-.4 4.5-.2 1.5.1 2.9.7 4.3.9 1.2.2 2.3.6 3.5.9 1.1.3 2 .8 3.1 1 1.5.5 2.9 1 4.1 2 .5.4 1.2.6 1.7 1 .8.5 1.4 1.1 2.1 1.8 1.9 1.6 3.1 3.9 4.3 6 .8 1.2 1.2 2.6 1.5 4.1.2 1.2.8 2.2 1.2 3.3.6 1.6 1.2 3.2 2.1 4.7.9 1.6 1.8 3.2 2.3 5 .6 2 1.2 4.1 1.4 6.2.2 2 .3 4.1.2 6.1-.2 1.5-.4 2.9-.7 4.3-.3 1.5-.5 3-.7 4.5-.4 2.9-.3 5.8-.3 8.7.1 5.6-.9 11.1-2.9 16.3-1 3.1-2.3 6-3.3 9.1-.8 2.5-1.4 5.1-1.9 7.7-.5 2.5-1 5-1.1 7.5-.2 2.9.2 5.9 1.1 8.6.4 1.2.9 2.3 1.1 3.6.5 2.7.8 5.5.4 8.3-.4 3-1.4 5.8-2.2 8.7-.7 2.3-1.5 4.5-2.2 6.9-.8 2.8-.5 5.8 0 8.6.2 1.4.6 2.8 1 4.1.4 1.4.7 2.7.9 4.1.2 1.7.2 3.4.4 5 .1 2 .1 4.1 0 6.1-.2 1.5-.3 3.1-.7 4.6-.7 2.4-1.1 4.9-1.7 7.3-.3 2-.1 4-.3 6-.1.4-.1.8-.4 1-.1 0-.3-.1-.3-.1.1-2-.1-4 .1-6 .1-.9.3-1.7.5-2.6.5-2.3 1.2-4.5 1.8-6.8.3-1.8.6-3.7.5-5.6-.1-1.5 0-2.9-.1-4.4-.2-1.5-.1-3.1-.3-4.6-.2-1.3-.6-2.5-.9-3.7-1-3.2-1.6-6.6-1.5-10 .1-2.3.9-4.4 1.6-6.6.8-2.5 1.6-5.1 2.3-7.6.9-3.2 1.5-6.6 1-10-.3-1.2-.3-2.5-.7-3.7-.4-1.1-.8-2.1-1.1-3.2-.4-1.2-.6-2.5-.7-3.8-.4-3.3.1-6.6.7-9.8.5-2.5 1-4.9 1.7-7.3 1.4-5.2 3.8-10.1 5.3-15.3.9-3.4 1.5-6.9 1.5-10.4 0-2.6-.1-5.2.1-7.8.1-1.7.3-3.3.5-5 .2-1.9.7-3.7 1-5.5.3-1.5.3-3 .2-4.5-.2-1.8-.2-3.6-.7-5.3-.4-1.5-.8-2.9-1.3-4.4-.5-1.5-1.4-2.9-2.1-4.4-.8-1.5-1.3-3.1-2-4.7-.3-.9-.8-1.8-1-2.7-.2-.9-.4-1.8-.8-2.7-.4-1.2-1.1-2.2-1.7-3.3-.9-1.4-1.7-2.9-3-4.1-.8-.7-1.4-1.4-2.3-2-.6-.4-1.2-.6-1.8-1-1.5-1.2-3.3-1.7-5.1-2.3-1.2-.5-2.5-.8-3.8-1.2-1-.3-2.1-.5-3.1-.7-1.2-.3-2.5-.6-3.8-.6-1.7 0-3.5.2-5.2.7-1.7.4-3.4.6-5.1.9-.3 0-.7.1-.9-.2 1.2-.5 2.5-.6 3.8-.8 1.3-.1 2.6-.5 3.9-.7z"/><path fill="#828e7d" d="M92.3 36.3c2.1-.1 4.1-.5 6.2-.3 2.2.6 4.3 1.5 6.4 2.4 2.1 1 4.5 1.4 6.4 2.8 1.2.7 2 1.8 2.9 2.9 1 1.2 2 2.4 2.8 3.8.8 1.4 1.6 3 1.7 4.6.2 2.4.8 4.8 2 6.9.9 1.6 1.9 3.1 2.6 4.8.7 1.7 1.2 3.4 1.5 5.2.4 2.4.3 4.9-.2 7.3-.4 1.8-.6 3.7-.9 5.5-.1 1-.2 2-.2 2.9v6c-.1 2.6-.6 5.2-1.4 7.7-.5 1.8-1.1 3.5-1.6 5.3-.4 1.9-.8 3.9-1.4 5.8-.6 1.9-1.2 3.8-1.9 5.6-.8 2.1-1.6 4.2-2.3 6.3-1 2.7-1.9 5.4-2.6 8.2-.8 3.2-1.1 6.7-.4 9.9.3 1.2.6 2.5 1.1 3.7.4 1 1 1.9 1.5 2.8 1.2 2.1 2 4.3 2.2 6.7.2 2.2 0 4.4-.7 6.5-.8 2.5-2 4.9-3 7.4-1.1 2.8-2.6 5.4-3 8.4-.1 1.1-.2 2.1 0 3.2.4 1.2 1 2.4 1.6 3.5.8 1.8 1.7 3.5 2.2 5.5.8 3.2 1.2 6.6 1.2 9.9 0 3.1-.5 6.2-1.2 9.2-.6 2.4-1.4 4.8-1.6 7.3-.1 1-.2 2-.2 2.9 0 1.5.9 2.9 1.1 4.4h-.3c-.5-1-.9-2-1.3-3-.5-1.3-.1-2.7-.1-4.1.2-2.2.8-4.4 1.3-6.5.5-1.7.8-3.4 1.1-5.2.5-3.3.6-6.6.2-9.9-.2-1.2-.2-2.5-.6-3.7-.2-.9-.4-1.7-.8-2.6-.4-1.2-1-2.3-1.5-3.4-.6-1.4-1.4-2.6-1.8-4-.3-1.1-.2-2.2-.1-3.4.3-2.5 1.4-4.8 2.5-7.1 1-2.5 2.2-5 3.2-7.5 1.1-2.6 1.5-5.4 1.1-8.2-.4-2.3-1.2-4.4-2.4-6.4-.5-1.1-1.3-2.1-1.6-3.3-.7-2.3-1.1-4.7-1.2-7.1.1-1.1.1-2.1.2-3.2.4-2.9 1.3-5.8 2.1-8.6.9-2.7 1.8-5.4 2.8-8 1-2.3 1.8-4.7 2.5-7.2.7-2.3 1-4.6 1.7-6.9.9-3 2-6 2.3-9.2.2-1.5.2-3.1.2-4.6V84c0-1.6.4-3.2.6-4.8.3-2 .8-4 .8-6.1 0-1.4 0-2.8-.3-4.2-.5-2.1-1.1-4.3-2.2-6.2-.7-1.3-1.5-2.4-2.1-3.7-1-2-1.6-4.2-1.8-6.4-.1-1-.4-1.9-.8-2.8-.5-1.1-1.1-2.1-1.8-3.1-.6-.7-1.1-1.5-1.7-2.2-.9-1-1.7-2.2-2.8-2.9-1.9-1.3-4.2-1.6-6.2-2.6-2.1-1-4.2-1.8-6.4-2.4-1.6-.2-3.2.1-4.7.2-2.3.3-4.7.6-7 .7-1.5.1-3-.2-4.5 0-.9.1-1.9.2-2.8.3-.3 0-.7.1-1 0-.2-.2-.1-.2.1-.3 1.3-.5 2.7-.5 4.1-.8 1-.2 2 0 3.1 0 1.3.1 2.6-.2 3.8-.3 1.4.1 2.3 0 3.3-.1z"/><path fill="#828e7d" d="M76 36.9c.3 0 .7 0 .8.3 1.1 2.1 2.1 4.3 3 6.5.2.5.5 1 .6 1.5v.3H80c-.1-.2-.2-.4-.3-.5-1.1-2.4-2.2-4.7-3.3-7.1-.1-.2-.2-.3-.4-.5v-.5zm-7.3 3.2c.6-.2 1.2-.4 1.8-.5-.2.3-.6.5-1 .7L62 44.2c-1.4.9-2.9 1.7-4.1 2.9-1.6 1.5-3.2 3.1-4.2 5.1-1 2-2.1 4-2.9 6.1-.6 1.7-1.2 3.4-1.5 5.1-.3 1.7-.6 3.5-.8 5.2-.2 1.1-.5 2.1-.6 3.2-.1 1.2-.2 2.5-.4 3.7-.3 2-.5 4-.5 6 0 2.7.6 5.3 1.1 7.9.5 2.2 1.1 4.3 1.5 6.5.3 1.8.5 3.7.5 5.5-.1 1.8-.1 3.7-.1 5.5 0 1.3 0 2.5-.2 3.8-.4 2-.6 4-.4 6.1.2 2.1 1.1 3.9 1.7 5.9.5 1.6.6 3.4.7 5.1.1 1.1.1 2.1.1 3.2-.1 1.9-.5 3.7-.6 5.6 0 1.1-.1 2.3 0 3.4.2 2 .7 4 1.4 5.9.5 1.2 1 2.3 1.5 3.5.5 1.3 1 2.6 1.3 3.9.6 2.2.6 4.5.5 6.8-.1 1.7-.2 3.4.1 5.1.2 1.1.5 2.2.9 3.2s1 2 1.3 3c.6 1.4 1 2.9 1.2 4.5.1 1.2.2 2.3.1 3.5-.1 1.4-.6 2.7-.6 4.1-.1 1.7.3 3.4 1.2 4.8.4.7.8 1.4 1.2 2.2.6 1.1.9 2.3 1.2 3.5.4 1.7.2 3.4.3 5.1.1 1 .5 1.9.8 2.8.5 1 1 2.1 1.1 3.2.2 1.6.1 3.2.1 4.8 0 1.8-.1 3.7.3 5.5.3 1.3.5 2.7.9 4 .3 1 .7 1.9 1 3 .4 1.4 1.4 2.5 1.9 3.9h-.3c-.6-.8-1.2-1.5-1.7-2.4-.5-.8-.7-1.8-1-2.7-.4-1.1-.8-2.2-1-3.3-.3-1.5-.7-3-.7-4.6v-5.4c0-1.1 0-2.3-.3-3.3-.4-1.3-1.1-2.5-1.5-3.8-.5-1.2-.3-2.5-.4-3.8-.1-2.7-.9-5.4-2.3-7.7-1.2-1.8-1.7-4.1-1.5-6.3.1-1.4.6-2.7.6-4.1 0-1.8-.1-3.7-.6-5.5-.3-1.3-.9-2.4-1.5-3.6-1.1-2.5-1.7-5.3-1.5-8.1.1-1.1.1-2.2.1-3.3 0-1.9-.1-3.7-.7-5.5-.7-2.2-1.6-4.3-2.5-6.4-.7-1.7-1.2-3.5-1.4-5.3-.2-1.4-.1-2.8-.1-4.1 0-2.4.7-4.8.6-7.2-.1-2.4-.1-4.9-.9-7.3-.4-1.5-1.1-3-1.4-4.6-.4-1.7-.3-3.4-.1-5.1.1-1.2.5-2.5.5-3.7.1-2.3 0-4.5.1-6.8.1-2.8-.1-5.6-.8-8.3-.4-2-1-3.9-1.3-5.9-.2-1.4-.5-2.8-.7-4.2-.3-2.4 0-4.8.3-7.2.4-2.4.3-4.8.8-7.2.4-2.7.6-5.5 1.4-8.2.5-1.8 1.1-3.5 1.8-5.2.5-1.2 1.1-2.4 1.7-3.5.4-.8.8-1.7 1.3-2.4.9-1.3 2-2.5 3.2-3.6 1.3-1.3 2.8-2.2 4.4-3.2 1-.6 2-1.1 3-1.6 1.1-.6 2.5-1.3 4.1-1.8z"/><path fill="#828e7d" d="M68.1 42.7c2-1.3 4.2-2.1 6.4-3v.3c-.3.3-.7.5-1 .6-1.5.7-2.9 1.3-4.3 2.2-1.8 1.2-3.6 2.3-5.5 3.4-1.7 1-3.4 2.3-4.7 3.9-.7.8-1.3 1.7-1.8 2.6-.6 1-1.2 2.1-1.7 3.2-1.2 2.6-1.6 5.5-2.5 8.1-.4 1.1-.8 2.3-.9 3.4-.3 2.3-.7 4.5-1.1 6.8-.3 1.8-.8 3.6-.8 5.5-.1 3 .5 5.9 1.2 8.8.2 1 .6 1.9.9 2.9.7 2.6 1.3 5.3 1.4 8 .1 2.2 0 4.4-.1 6.7-.1 2.8 0 5.5.7 8.2.3 1.1.5 2.3.9 3.3.5 1.4 1.1 2.7 1.5 4.1.6 2.4.8 4.9.7 7.3-.1 2.3-.3 4.6-.2 6.9.2 2.1.5 4.2 1.2 6.2 1.1 2.9 1.7 5.9 2.4 8.9.7 2.9.5 5.9.5 8.8.1 1.4.3 2.8.6 4.1.3 1.6 1 3.1 1.6 4.6.7 1.9 1.7 3.6 2.2 5.6.4 1.9.7 3.8.8 5.8.1 1.3.1 2.6.1 3.8.1 1.6 0 3.3.3 4.9.3 1.6.6 3.3.8 4.9.3 1.6.3 3.2 0 4.8-.2 1.4-.3 2.7-.3 4.1.1 1.7.4 3.3.5 5 0 .9.2 1.8 0 2.7-.2 1.2-.1 2.5-.1 3.7.1 1.4.2 2.9.6 4.3.2 1 .5 1.9.6 2.9.1.1.1.2.2.3h-.3c-.3-1.6-1-3.1-1.3-4.7-.3-2.3-.5-4.6-.1-6.9.1-.7-.1-1.4-.1-2 0-1.7-.4-3.4-.5-5.1 0-1.5.1-3.1.3-4.6.2-1.2.1-2.5-.1-3.7-.3-1.7-.5-3.3-.8-5-.2-1.4-.3-2.8-.3-4.2-.1-2.8 0-5.7-.5-8.4-.2-1.3-.4-2.5-.9-3.7-.4-1.2-1.1-2.4-1.5-3.6-.5-1.3-1.1-2.6-1.5-4-.3-1.3-.6-2.6-.7-3.9-.3-2-.1-4-.2-6 0-1.6-.2-3.2-.6-4.7-.7-2.8-1.3-5.5-2.2-8.2-.5-1.5-.9-3.1-1-4.7-.3-1.8-.1-3.6-.1-5.4.1-2 .3-4 .2-6-.1-1.1-.2-2.3-.4-3.4-.5-2.6-1.9-4.9-2.5-7.5-.8-2.9-1.1-5.9-.9-8.8.2-2.9.3-5.8.1-8.7-.2-2.4-.7-4.7-1.4-7-1.3-4.2-2.4-8.6-1.8-13 .6-3.5 1.4-7 1.8-10.6.1-1.2.5-2.4.9-3.6.9-2.7 1.3-5.5 2.5-8 .5-1.4 1.3-2.6 2-3.8 1.2-2 2.9-3.7 4.7-5.1 1.7-1.7 3.9-2.9 6.1-4.3zm11.5-2.9c.8-.3 1.7-.1 2.5-.1 1.3.1 2.6.4 3.9.7 1.5.2 3 .3 4.5.3 2.8-.1 5.7-.3 8.5.1 1.4.2 2.9.5 4.2 1.1 1 .5 2 1 3 1.6 1.3.8 2.3 1.7 3.5 2.6 1 .7 1.9 1.6 2.6 2.6.7 1 1.2 2.2 1.6 3.4.5 1.2.9 2.5 1.1 3.8.3 1.9.3 3.8.9 5.6.4 1.3 1.1 2.6 1.8 3.8.8 1.5 1.4 3.1 1.6 4.7.1 1.2.2 2.5.2 3.7 0 1.4-.1 2.7 0 4.1.1 1 .1 2.1.2 3.1.1.8.4 1.5.6 2.3.3 1.3.2 2.6.2 4 0 3.4-.7 6.8-1.4 10.1-.2 1-.4 2-.8 2.9-.2.6-.4 1.3-.8 1.8-.1-.1-.1-.2-.2-.2.3-.7.4-1.4.4-2.1.8-3.3 1.7-6.6 1.9-9.9 0-1.6.1-3.2-.1-4.7-.1-2-.8-4-.8-6 0-.5.1-1 0-1.5-.2-2.2-.1-4.5-.2-6.7-.1-1.8-.7-3.6-1.6-5.1-1-1.6-1.9-3.4-2.3-5.3-.4-1.8-.4-3.7-.9-5.5-.4-1.5-1-3-1.6-4.4-.6-1.3-1.6-2.4-2.6-3.3-.7-.5-1.4-1.1-2.1-1.6-1.5-1.2-3.2-2.2-4.9-3-1.2-.6-2.6-.8-3.9-1-2.8-.4-5.6-.2-8.3-.1-1.5 0-3-.1-4.6-.3-2.1-.5-4.2-.8-6.3-1.1.2-.2.2-.3.2-.4z"/><path fill="#828e7d" d="M76.2 40.6h.4c0 .4-.3.8-.5 1.2-1.2 1.4-2.9 2.4-4.6 3.2-2.2 1-4.1 2.3-6 3.7-1.8 1.2-3.4 2.6-4.8 4.3-.8.9-1.5 1.8-2 2.8-.6 1-.8 2.1-1.1 3.3-.7 3.3-.5 6.7-.6 10.1 0 3.2-1.8 6-2 9.2-.1 1.7-.2 3.4.1 5.1.5 2.3 1 4.6 1.8 6.8.5 1.3.9 2.7 1.2 4.1.2 1.5.3 3.1.3 4.6 0 1.6-.2 3.1-.3 4.7-.2 2.8-.2 5.6.7 8.3 1.3 4.1 3.3 7.9 5.3 11.7 1.8 3.4 2.7 7.3 2.6 11.2.1 3.8-.9 7.6-1.7 11.3-.7 3.2-1 6.4-.5 9.7.2 2.2.9 4.2 1.7 6.3 1.1 2.6 2.4 5.1 3.8 7.6.4.8.9 1.6 1.2 2.5.5 1.2 1 2.4 1.3 3.7.5 2.8.8 5.7.8 8.5.1 1.9.1 3.8-.1 5.6-.3 2.7-.9 5.4-1.5 8.1-.3 1.3-.8 2.6-.9 3.9-.3 2.5.5 5.1 0 7.6-.3 1.3-.9 2.6-.9 4-.1 1.5.2 2.9.6 4.3.3 1.1.6 2.2.7 3.4.2 1.4 0 2.8.5 4.1.2.8.5 1.6.6 2.4H72c-.4-.7-.7-1.5-1-2.2-.5-1.3-.3-2.7-.5-4.1-.2-1.4-.6-2.7-.9-4-.3-1.3-.6-2.6-.4-3.9.1-1.8 1.1-3.5 1.1-5.4 0-1-.1-2-.1-2.9-.1-1.7 0-3.5.4-5.1.8-2.7 1.4-5.4 1.8-8.2.2-1.4.4-2.8.4-4.2 0-3.6-.2-7.3-.9-10.9-.3-2.2-1.3-4.2-2.2-6.2-1.3-2.4-2.6-4.8-3.7-7.3-1-2.2-1.8-4.5-2.1-6.9-.2-1.9-.4-3.7-.2-5.6.1-3 1-6 1.6-8.9 1.2-5.4 1.1-11.2-1.1-16.3-.9-2-2-3.9-3-5.9-.9-2-1.9-4-2.6-6-.4-1-.8-2.1-1-3.1-.3-1.6-.3-3.2-.3-4.8 0-1.7.2-3.4.3-5.1.1-1.6 0-3.3-.1-4.9-.3-2.9-1.7-5.6-2.4-8.4-.5-1.9-1-3.9-1-5.9 0-1.5 0-2.9.2-4.4.4-2.3 1.4-4.5 1.7-6.9.1-3.2-.1-6.5.4-9.7.3-1.5.6-3.1 1.3-4.5 1-1.9 2.6-3.6 4.1-5.1 1.5-1.4 3.3-2.5 5-3.7 1.8-1.2 3.7-2.2 5.6-3.1 1.5-1.3 2.9-2.2 3.8-3.7zm3.1.7c.1 0 .3-.1.4-.2.6.2 1.2.6 1.7.9 1.1.6 2.4.8 3.5 1.2 1.1.4 2.2.5 3.3.6.8.1 1.6.2 2.4.2 1.3 0 2.7.1 4 .3 1.5.1 2.9.5 4.3.9 3.1.8 5.8 2.6 8.1 4.8 1.5 1.5 2.8 3.4 3.5 5.5.9 2.5 1.3 5.1 1.6 7.7.2 1.9.3 3.8.6 5.7.3 2.2.9 4.3 1.7 6.4.7 1.8 1.7 3.5 2.3 5.4.4 1.1.7 2.2.9 3.3.5 3 .9 6 .8 9-.1.9 0 1.8 0 2.7-.2-.1-.3-.4-.3-.6-.2-1.5-.2-3-.3-4.5-.2-2.2-.4-4.4-.8-6.5-.2-1.2-.5-2.3-.9-3.4-.6-1.9-1.7-3.5-2.4-5.4-.6-1.6-1.1-3.2-1.4-4.8-.5-2.6-.6-5.2-.9-7.8-.3-2.3-.7-4.5-1.5-6.7-.6-1.7-1.5-3.3-2.7-4.7-.8-1-1.9-1.8-2.9-2.6-1.1-.8-2.2-1.5-3.4-2-1.1-.5-2.3-.8-3.5-1.1-1.3-.3-2.6-.4-3.9-.5-1.2-.1-2.4 0-3.6-.2-1.6-.1-3.2-.3-4.8-.7-1.2-.4-2.5-.7-3.7-1.2-.7-.3-1.3-.8-1.9-1.2-.2-.1-.2-.3-.2-.5z"/><path fill="#828e7d" d="M77.1 43.2h.3c0 .3-.1.5-.3.7-.6.7-1.4 1.2-2.2 1.7-2 1-3.8 2.2-5.6 3.5-2.1 1.4-3.8 3.2-5.3 5.2-.9 1.1-1.5 2.4-2 3.7-1.7 4-1.4 8.5-1.5 12.8-.1 1 0 2-.2 3-.2 1.8-.7 3.5-.9 5.2-.3 2.1-.4 4.2.2 6.2.7 2.2 1.5 4.4 2.1 6.7.8 3 1.1 6.2 1 9.3-.1 1.5-.2 3.1-.3 4.6 0 1.5-.1 3.1.4 4.6.6 2 1.6 3.9 2.7 5.7.9 1.5 1.8 2.9 2.9 4.3 2.3 3.2 4.1 6.9 5.1 10.8.5 2 .5 4.1.4 6.1-.2 2.8-.7 5.7-1.6 8.4-.9 2.7-2 5.5-2.1 8.3-.2 2.2.3 4.5 1 6.5.6 1.5 1.2 3 2.2 4.2.6.8 1.1 1.6 1.6 2.3 1.3 1.7 2.1 3.6 2.9 5.6.6 1.6 1.3 3.2 1.6 5 .3 1.6.6 3.1.6 4.7.1 1.6.2 3.3 0 4.9-.1 1.2-.4 2.3-.6 3.5-.3 1.6-.9 3.1-1.5 4.6-.5 1.2-.9 2.4-1.5 3.5-1 1.8-2.2 3.5-2.6 5.6-.2 1.3-.4 2.6-.5 4-.1 1.3-.5 2.5-.7 3.8-.1 1-.3 2-.4 2.9-.1 1.6.1 3.2.6 4.7.3 1.2.9 2.2 1.2 3.4.4 1.2.6 2.5.1 3.7-.3.7-.4 1.7-1.2 2.1.4-.5.6-1.1.7-1.7.4-1.3.2-2.8-.3-4.1-.4-1.3-1.1-2.6-1.4-3.9-.3-1.3-.4-2.5-.4-3.8 0-1.3.3-2.5.4-3.7.1-.8.3-1.6.5-2.4.1-.8.1-1.6.2-2.4.2-1.4.3-2.7.6-4.1.7-2.1 2.2-3.9 3.1-6 1-2.3 2-4.7 2.4-7.2.3-1.8.6-3.6.5-5.4-.1-1.5 0-3-.3-4.5-.2-1-.4-2.1-.6-3.1-.3-1.3-.8-2.5-1.3-3.7-.6-1.4-1.1-2.9-1.9-4.2-.5-.9-1.1-1.6-1.6-2.5-.5-.8-1.1-1.5-1.5-2.3-1.3-2.3-2.1-4.8-2.5-7.4-.3-2.2 0-4.5.6-6.6.7-2.7 1.9-5.2 2.4-7.9.7-3.2 1-6.5.6-9.7-.3-2.1-1-4.1-1.9-6.1-.8-1.6-1.6-3.2-2.6-4.7-.9-1.3-1.9-2.6-2.7-3.9-1.5-2.3-3-4.8-3.8-7.5-.6-2.3-.3-4.7-.2-7.1.3-2.9.3-5.9-.3-8.8-.5-2.9-1.6-5.6-2.5-8.4-.5-1.6-.7-3.3-.6-5 .1-2.9 1.2-5.7 1.2-8.6.2-2.2 0-4.4.2-6.7.1-2.7.5-5.4 1.5-8 .5-1.4 1.1-2.6 2-3.8 1.5-2 3.3-3.9 5.4-5.3 1.8-1.3 3.7-2.5 5.7-3.5.9-.4 1.9-1 2.5-1.8z"/><path fill="#f2844f" d="M79.7 45c.1.2.2.4.3.5h.4c.3.6.8 1.1 1.2 1.7.7.8 1.4 1.8 2.4 2.4 1 .6 1.9 1.2 2.9 1.7.7.3 1.4.6 2 .9.8.4 1.8.6 2.6 1.2 1.4 1 2.7 2 3.9 3.3 1.8 1.8 3.4 3.8 4.7 6 1.2 1.8 2.1 3.7 2.9 5.6.8 1.9 1.4 3.9 1.9 5.9.2.8.5 1.5.6 2.3-1.1.4-2.2.7-3.2 1.2-.4.2-.8.5-.8 1 .2 2.4.1 4.8.1 7.2.1 2.1.7 4.2 1.5 6.2.9 2.3 2.3 4.4 3.7 6.4.7 1.1 1.5 2.2 2.3 3.2 1.3 1.8 2.7 3.5 3.6 5.6.4 1.3 1 2.5 1 3.9.1 1.4-.5 2.7-1 4-.6 1.3-1.6 2.4-2.4 3.6-1.2 1.6-2.5 2.9-3.9 4.3-1.6 1.5-3.1 3.2-4.8 4.5-1.1.8-2.2 1.8-3.6 2.2-1.4.5-2.9.2-4.4.2-3.1-.1-6.1-1.2-8.9-2.5-2.4-1.1-4.7-2.6-6.9-4.1-1.9-1.1-3.6-2.5-5.2-4-.6-.5-1.1-1-1.7-1.4-.8-1.4-1.6-2.8-2.3-4.3.3-.8.4-1.7.5-2.5.3-2.7.3-5.5.3-8.2-.2-3.7-1.1-7.4-2.7-10.7-.3-.7-.6-1.5-1-2.1v.3c-.2-.5-.3-.9-.4-1.4-.4-1.4-.9-2.8-1.3-4.2-.3-1.3-.6-2.6-.7-4 .1.1.2.2.2.3.1-1.3.1-2.5.5-3.7 1-3.7 1.8-7.5 3-11.2 1.4-3.9 3.4-7.6 5.7-11.1 1.3-2.2 2.8-4.3 4.4-6.2.4-.6 1-1.1 1-1.9.5-.4 1-.8 1.5-1.3.1-.4.1-.7.1-.8z"/><path fill="#e56324" d="M80.4 45.5v-.3c.6.4 1.2.6 1.8.9 1 .5 2.1.8 3.3 1 1.4.2 2.8.4 4.2.7 1.6.3 3.2.5 4.7.7 2 .4 4.1.9 5.8 2.2 1 .8 1.8 1.7 2.6 2.6 1.3 1.8 2.3 3.9 3.3 5.9.8 1.7 1.2 3.5 1.7 5.2.5 1.7.9 3.4 1.2 5.1.4 2.2.8 4.3 1.2 6.5.2 1.6.6 3.1.9 4.7.4 2.1 1 4.2 1.6 6.3.5 1.7 1.2 3.3 1.8 5 .5 1.2 1.1 2.4 1.6 3.6.5 1.4 1.1 2.7 1.8 4-.1.7-.2 1.4-.4 2.1.1.1.1.2.2.2-.7 2.7-1.9 5.3-2.7 7.9-1.5 4.8-3.4 9.5-4.8 14.3-.4 1.6-.7 3.2-1.1 4.8-.3 1.4-.4 2.8-.6 4.2-.2 1.9-.5 3.9-.2 5.8.3 2.5 1.1 4.8 2 7.1.5 1.1.9 2.3 1.5 3.3.2.3.4.6.5.9-.1.3-.3.6-.4.9-.4.4-.8.9-1.3 1.3-1.4 1.2-3 2.1-4.6 3-1 .6-2.2.9-3.3 1.3-.5-1.2-.6-2.5-1.1-3.8-.5-1.5-.6-3-.7-4.5-.2-1.5-.2-3.1-.1-4.7.1-1.7 0-3.4 0-5.1 0-1.4 0-2.8-.1-4.1-.9.2-1.6.7-2.4 1.1-1.3.7-2.5 1.3-4 1.5-2.9.3-5.9-.3-8.5-1.7-.7-.3-1.4-.7-2.1-1.1.1 1.7-.1 3.3-.1 5-.2 2.9-.4 5.9-1 8.7-.3 1.5-.5 3-.7 4.6-.1.9-.1 1.8-.6 2.7-1-.7-2-1.6-2.7-2.6-.5-.6-1.1-1.1-1.2-1.9.2-1 .6-2 .7-3 .1-1.1.4-2.1.3-3.2v-4.1c-.1-3.2-.8-6.4-1.5-9.6-.7-3.1-2.1-5.9-3.6-8.7-.8-1.6-1.7-3.1-2.5-4.7.6.4 1.1 1 1.7 1.4 1.6 1.5 3.3 2.9 5.2 4 2.2 1.5 4.4 3 6.9 4.1 2.8 1.3 5.8 2.4 8.9 2.5 1.4 0 2.9.3 4.4-.2 1.4-.4 2.5-1.4 3.6-2.2 1.8-1.3 3.3-2.9 4.8-4.5 1.4-1.4 2.7-2.7 3.9-4.3.8-1.2 1.8-2.3 2.4-3.6.6-1.3 1.1-2.6 1-4 0-1.4-.5-2.6-1-3.9-.8-2.1-2.3-3.8-3.6-5.6-.8-1-1.6-2.1-2.3-3.2-1.4-2-2.8-4.1-3.7-6.4-.8-2-1.4-4-1.5-6.2 0-2.4.1-4.8-.1-7.2-.1-.5.4-.8.8-1 1-.5 2.1-.8 3.2-1.2-.2-.8-.4-1.5-.6-2.3-.6-2-1.1-4-1.9-5.9-.8-2-1.8-3.8-2.9-5.6-1.4-2.2-2.9-4.2-4.7-6-1.2-1.2-2.5-2.3-3.9-3.3-.8-.5-1.7-.7-2.6-1.2-.6-.4-1.3-.6-2-.9-1-.4-2-1.1-2.9-1.7-1-.6-1.7-1.5-2.4-2.4-.3-.1-.8-.6-1.1-1.2zm-7.1 4.7c1.6-1.2 3.3-2.2 4.9-3.4-.1.8-.6 1.3-1 1.9-1.6 2-3 4.1-4.4 6.2-2.2 3.5-4.2 7.2-5.7 11.1-1.2 3.7-2 7.4-3 11.2-.5 1.2-.4 2.5-.5 3.7-.1-.1-.2-.2-.2-.3-.2-1.9-.4-3.8-.3-5.7 0-1.1 0-2.3.1-3.4.1-1.3.2-2.7.4-4 .5-2.7 1.2-5.4 2.2-7.9.8-2.2 2-4.2 3.5-5.9 1.1-1.4 2.6-2.4 4-3.5z"/><path fill="#f2844f" d="M68 57.8c.1-.5.4-1 .8-1.4-.2.5-.5 1-.8 1.4zm-3.1 6.6c-.1-.7.3-1.3.6-2-.1.7-.4 1.3-.6 2z"/><path fill="#e56324" d="M65.7 89.9c.4.7.7 1.4 1 2.1 1.6 3.4 2.6 7 2.7 10.7 0 2.7 0 5.5-.3 8.2-.1.8-.2 1.7-.5 2.5-.5-1.3-.9-2.7-1.1-4.1-.4-1.7-.7-3.4-.8-5.2-.2-1.4 0-2.9-.2-4.3 0-2-.1-4-.3-6-.1-1.2-.4-2.4-.6-3.6.1-.1.1-.2.1-.3zM88 103c.4-.2.8-.3 1.2-.1.7.3 1.5.2 2.3.3 1.1 0 2.3.1 3.3-.3.4-.1.8-.2 1.2-.1.1.6-.3 1-.6 1.4-.7 1-1.3 2.2-2.4 2.9-.5.4-1.1.4-1.6.3-.6-.2-1.2-.5-1.6-1-.6-.8-1-1.7-1.6-2.5-.2-.3-.4-.7-.2-.9z"/><path fill="#828e7d" d="M132.4 103.3h.2c0 1.6.1 3.1.1 4.7-.1 2.1-.2 4.2-.5 6.3-.2 1.5-.4 3-.7 4.4-.3 1.3-.4 2.6-.6 4-.2 1.2-.3 2.5-.4 3.7-.2 2.2-.4 4.3-.4 6.5-.1 1.8.2 3.6.4 5.4.2 1.7.1 3.3.1 5 0 2.8-.6 5.5-1.3 8.2-.4 1.4-.6 2.8-.9 4.2-.4 2-.9 4.1-.9 6.1 0 1 .2 2 .3 3.1 0 1.1.1 2.1 0 3.2-.1 1.6-.7 3.2-1.1 4.7-.3 1.4-.5 2.9-.5 4.3 0 .8 0 1.7.2 2.5.2 1.9.5 3.8-.1 5.7-.3 1-.7 2-1 2.9-.2.4-.3.9-.7.9.3-1.3.8-2.6 1-3.9.4-2.3 0-4.6-.2-6.9 0-1.4 0-2.8.3-4.2.3-1.7.9-3.4 1.2-5.1.2-1 .2-2.1.2-3.2 0-1.6-.4-3.2-.3-4.8 0-1.1.2-2.2.4-3.2.3-1.6.7-3.2 1-4.8.7-2.8 1.5-5.7 1.5-8.6.1-1.3 0-2.6 0-4-.1-1.8-.3-3.6-.5-5.4-.2-3.4.2-6.8.5-10.2.1-1.3.4-2.5.5-3.8.2-1.4.5-2.8.7-4.3.2-1.8.5-3.6.6-5.4.1-2 .4-4 .5-6 .3-.7.4-1.3.4-2z"/><path fill="#e56324" d="M94.9 115.5c.7-.1 1.4-.4 2.1-.5l.1.1c-.2.4-.1 1-.5 1.3-.7.8-1.3 1.8-2 2.6-.5.3-1.1.2-1.6.3-.8 0-1.7.3-2.5.1v-.4c-.2-.1-.5-.1-.7-.2-.9-.9-1.9-1.7-2.6-2.8-.1-.3-.1-.6-.1-.9.7 0 1.2.3 1.9.4 1.9.2 3.9.6 5.9 0z"/><path fill="#828e7d" d="M133.6 118.6c0-.2.3-.4.3-.1.3 3 .1 6.1.5 9.1.3 3.4 1.5 6.7 1.7 10.1 0 1 0 2-.1 2.9-.4 3.1-1.2 6.1-1.8 9.2-.2 1.5-.3 3.1-.2 4.6.1 1.6 0 3.2-.6 4.7-.5 1.2-1.1 2.3-1.4 3.5-.5 1.6-.7 3.3-.7 5-.2 3.4.1 6.8 0 10.2-.3 3.1-.4 6.3-1.2 9.3-.3 1.3-.8 2.6-1.4 3.8-.6.9-1.2 1.8-1.7 2.7-.7 1.1-1.2 2.2-1.9 3.3-.6.9-1 1.9-1.4 2.9-.6 1.2-.9 2.5-1.1 3.8-.2 1-.2 2.2-.8 3.1-.8 1.2-1.5 2.5-1.9 3.9-.3 1.3-.6 2.6-.6 3.9-.1 1.4 0 2.8-.2 4.1-.2 1.2-.9 2.2-1.6 3.1-.2.3-.4.5-.7.7-.2.1-.4 0-.7 0v-.2c.5-.3.7-.8 1-1.3.4-.7.9-1.4 1.1-2.2.4-1.5.1-3 .2-4.5 0-1.5.3-3 .8-4.5.4-1.3 1.1-2.5 1.8-3.6.5-.8.5-1.8.7-2.7.2-1.4.6-2.8 1.3-4 .5-1 .9-2.1 1.5-3.1.5-.8.9-1.7 1.4-2.5.6-.9 1.1-1.9 1.7-2.8.7-1 1.2-2.2 1.6-3.5.3-1.2.6-2.4.8-3.6.3-1.9.4-3.8.5-5.6.2-1.6.1-3.2.1-4.9-.1-2.9-.2-5.8.2-8.7.2-1.4.6-2.9 1.2-4.2.4-1.1 1-2.1 1.2-3.3.4-1.9 0-3.8.1-5.6.1-2.5.9-4.9 1.3-7.4.3-1.4.5-2.7.7-4.1.2-1.5.1-3-.1-4.5-.4-2.9-1.3-5.6-1.5-8.5-.4-2.6-.4-5.5-.1-8.5zm-87.6 1c.3.4.2.9.3 1.4.1 1 .2 2.1 0 3.1-.4 1.9-1 3.8-.9 5.8 0 .8.3 1.6.6 2.4.7 1.8 1.1 3.6 1.2 5.5.1 1.1-.2 2.1-.3 3.2-.1 1.1-.2 2.3.1 3.4.2 1.6.9 3.1 1.6 4.6.5 1 .9 2.1 1.3 3.1.5 1.2.8 2.5 1.1 3.8.2 1.1.4 2.1.4 3.2h-.2c-.3-1.5-.7-2.9-1.1-4.3-.3-1.3-.9-2.6-1.4-3.8-.4-1.2-1.1-2.4-1.5-3.6-.8-1.9-1.1-4-1-6 0-1.3.4-2.5.3-3.8-.2-2-.8-4-1.5-5.9-.7-1.8-.3-3.9 0-5.7.2-1.2.7-2.4.8-3.7.1-.9-.1-1.8.2-2.7z"/><path fill="#f2844f" d="M83.9 134.4c.7.3 1.4.7 2.1 1.1 2.6 1.4 5.6 2.1 8.5 1.7 1.4-.2 2.7-.9 4-1.5.8-.4 1.5-.9 2.4-1.1.1 1.4 0 2.8.1 4.1v5.1c-.1 1.5-.2 3.1.1 4.7.1 1.5.2 3.1.7 4.5.4 1.2.6 2.5 1.1 3.8-1.2.4-2.3.6-3.5.9-2.1.5-4.3.3-6.5.3-1.1-.1-2.2 0-3.3-.1-1.5-.3-3-.4-4.5-.9-1.2-.3-2.3-1-3.4-1.6.4-.8.4-1.8.6-2.7.2-1.5.4-3.1.7-4.6.6-2.9.8-5.8 1-8.7-.2-1.6-.1-3.3-.1-5z"/><path fill="#fcb491" d="M77.1 52.6c.2-.2.6-.2.8-.1 0 .3-.1.6-.3.8-1.2 1-2.2 2.1-2.9 3.5h-.4c0-.7.4-1.3.7-1.9.6-.8 1.3-1.6 2.1-2.3z"/><path fill="#b65a35" d="M103.2 75.5c1.4-.4 2.8-.6 4.2-.7.7-.1 1.4 0 2 .2.2 0 .3.1.4.3h.3c0 .7.2 1.4-.1 2-.7 0-1.4 0-2 .2-2.2.7-4.5.9-6.7 1.6-.8.2-1.5.5-2.3.6h-.9v-.5c0-.1.1-.2.2-.3.8-.7 1.4-1.5 2.3-2.1.8-.6 1.7-.9 2.6-1.3zm-33 .7c2.4-.7 5-1 7.4-.5 1 .2 2 .5 2.9.9 1 .5 2 1.1 3 1.7.2.3.5.6.8.8h-.5c-1.4-.4-3-.3-4.4-.6-3.7-.5-7.5 0-11.3.3-.9 0-1.8.2-2.7.1-.2-.3-.6-.1-.9-.1v-.5c.8-.3 1.5-.7 2.2-1 1.3-.3 2.4-.7 3.5-1.1z"/><path fill="#b95d38" d="M97.3 80.5c.3-.5.6-.9.8-1.4v.5h.9l.2.1c-.3.1-.7.2-1 .2l-.6 1.2-.3-.6z"/><path fill="#b9623f" d="M97.3 80.5c.1.2.2.3.3.5-.6 2-1.2 3.9-1.5 6-.4 2-.3 4.1-.1 6.1.2 1.5.6 2.9.8 4.3.2 1.2.8 2.2.7 3.4h.3c-.2.5-.5 1-.9 1.5-.5.7-1.4 1-2.1 1.2-1.6.4-3.3.2-4.9.1-1-.1-2.1-.3-2.7-1.2-.5-.7-.1-1.9.8-1.9v.3c-.2.3-.4.8-.2 1.1.5.8 1.6.9 2.5 1.1 1.3.3 2.7.2 4 0 1-.2 2.1-.5 2.6-1.5.1-1.3-.4-2.5-.6-3.7-.3-1.6-.9-3.2-1.1-4.9-.3-2.8 0-5.6.7-8.4.3-1.3.8-2.7 1.4-4z"/><path fill="#150f0c" d="M106.6 81.3c.6-.3 1.3 0 1.6.5.7 1 .4 2.3-.1 3.3-.3.7-1.4.9-1.9.4-.6-.6-.7-1.6-.5-2.4 0-.6.2-1.4.9-1.8zm-33.2 1.1c.5-.2 1 .2 1.2.5.4.6.3 1.3.3 1.9 0 .8-.1 1.7-.8 2.2-.4.4-1.1.2-1.5-.2-.6-.8-.7-2-.5-3 .4-.5.8-1.1 1.3-1.4z"/><path fill="#b9623f" d="M109.6 87c.5-.2.9-.5 1.3-.8 0 .2.1.5-.1.6-.5.6-1.3.9-2 1.1-1 .3-2.1.4-3.2.3-.4-.1-.8-.3-1.1-.5v-.4c.7-.1 1.3.2 2 .2 1 0 2.1-.1 3.1-.5z"/><path fill="#fcb694" d="M71 87c.3 0 .6 0 .8.1 1.1.6 2.4.8 3.6 1.1v.5c-1.1 0-2.1-.1-3.2-.4-.4-.1-.8-.3-1.1-.6-.1-.2-.1-.4-.1-.7z"/><path fill="#b75c38" d="M77.3 88.4h.4c0 .2.1.5-.2.7-1.2 1-2.9 1.4-4.5 1.2-.7-.1-1.4-.3-1.9-.8-.2-.2-.1-.5-.1-.7.5.1 1 .3 1.5.4 1.6.3 3.4.1 4.8-.8z"/><path fill="#fcb491" d="M92.5 88.5c.2 0 .5-.1.5.1.1.3 0 .6 0 1-.2 2.9-.2 5.9.6 8.8-.2 0-.3 0-.5-.1-.5-1-.7-2.1-.9-3.2-.2-1.9-.5-3.7-.1-5.6.1-.4.2-.7.4-1z"/><path fill="#fcaf8c" d="M69.6 92.8c.1-.1.2-.3.2-.4.5.1.9.4 1.2.7.8.9 1.4 1.8 2 2.9.2.4.3.8.4 1.2h-.3c-.6-1.2-1.4-2.2-2.3-3.2-.3-.3-.5-.6-.9-.6 0 0 .1-.1.2-.1l-.5-.5z"/><path fill="#f95939" d="M107.1 92.6c1.6-.3 3.3.3 4.6 1.4 1.1.9 1.7 2.2 2.1 3.6.4 1.8.1 3.8-.8 5.4-.8 1.4-2.3 2.4-4 2.6-1.6 0-3.3-.1-4.7-.9-1.5-.8-2.5-2.4-2.8-4-.5-2.1.2-4.3 1.7-5.8 1-1.1 2.3-2 3.9-2.3zm-36.1.5c1.6-.1 3.2.1 4.7.8 1.2.6 2.3 1.5 2.9 2.7 1 2 .9 4.4-.1 6.3-.8 1.6-2.2 2.8-3.8 3.6-1.5.6-3.2 1-4.8.6-.6-.1-1-.5-1.5-.7-.7-.1-1-.8-1.2-1.4-.3-.8-.4-1.6-.4-2.5 0-1.1-.1-2.1-.1-3.2 0-1.2.1-2.4 0-3.6 0-.3 0-.7.1-1 .2-.4.5-.6.9-.8.6-.5 1.4-.5 2.1-.8.4 0 .7.4.9.6.9 1 1.7 2 2.3 3.2h.3c-.1-.4-.2-.8-.4-1.2-.5-.7-1.1-1.7-1.9-2.6z"/><path fill="#fa8069" d="M103.3 100.2c-.1-.5-.1-1.1 0-1.7v1.7z"/><path fill="#fff" d="M111.2 98.6c-.1.8-.3 1.6-.6 2.3-.1.3-.5.3-.8.5.7-.8 1.2-1.8 1.4-2.8z"/><path fill="#fb9c8a" d="M69.6 103.8c.2.1.1.7 0 .8-.1-.2-.1-.5 0-.8z"/><path fill="#b95d38" d="M92.2 104.4h.5c.2.9.1 1.9.5 2.7h-.6c-.2-.8-.5-1.7-.4-2.7zm-1.5.2h.4c.2.8.2 1.6.4 2.5 0 .2 0 .3.1.5h-.4c-.1-.1-.2-.3-.2-.4-.4-.9-.6-1.8-.3-2.6z"/><path fill="#f95939" d="M87.5 107.9c1.1-.4 2.2-.8 3.4-.8.1.1.1.3.2.4h.4c0-.2 0-.3-.1-.5.4 0 .8 0 1.2.1h.6c1 0 2 .3 3 .5 1.1.2 2.1.6 3 1.2.6.4 1.2.7 1.5 1.3.1.2.3.4.6.5 0 .1.1.2.1.3-1.8 0-3.7 0-5.5.2-2.1.3-4.3.1-6.4.3-1.8 0-3.6.2-5.4.4-.6.1-1.2.3-1.8.5.1-.4.2-.8.5-1.1.6-.7 1.3-1.3 2-1.8 1-.5 1.8-1.1 2.7-1.5z"/><path fill="#fca986" d="M90.9 108.3c.4 0 .9-.2 1.2.1-.6.4-1.3.4-1.9.6-1.3.3-2.4.8-3.7 1.2-.1-.1-.2-.3-.2-.4 1.3-1 3-1.3 4.6-1.5z"/><path fill="#a23c28" d="M95.9 111.2c1.8-.2 3.7-.1 5.5-.2h.3v.4c-.1.1-.3.1-.4.2-.8.2-1.6.2-2.4.2-.9 0-1.9.2-2.8.2-1.8 0-3.6.1-5.4.1-1.8 0-3.6 0-5.3.4-1.1.2-2.1.5-3.2.5h-.1v-.5c.1 0 .2-.1.2-.1.6-.3 1.1-.4 1.8-.5 1.8-.2 3.6-.3 5.4-.4 2.1-.2 4.3-.1 6.4-.3z"/><path fill="#f95939" d="M98.9 111.9c.8 0 1.6 0 2.4-.2-.5.5-1 .9-1.6 1.3-1.9 1.5-4.1 2.6-6.5 2.9-1 .1-2 .2-3 .1s-2.1-.3-3-.6c-.9-.3-1.7-.7-2.6-1-.8-.3-1.6-.8-2.4-1.3 1.1 0 2.1-.3 3.2-.5 1.8-.3 3.5-.3 5.3-.4 1.8 0 3.6-.1 5.4-.1 1-.1 1.9-.2 2.8-.2z"/><path fill="#fb9c7a" d="M93.6 113.4c1-.1 1.9-.1 2.9-.4.1.1.1.2.2.3-.3.1-.6.2-.9.2-1.2.1-2.5.4-3.7.4-1.6-.1-3.3.1-4.9-.3v-.4c.9-.1 1.8.1 2.6.2 1.2.1 2.5.2 3.8 0z"/><path fill="#fb8d78" d="M86.4 113.6c.1-.1.3-.1.4.1 0 .2-.5.1-.4-.1z"/><path fill="#fa7b63" d="M92.5 114.6c.4-.1.9-.2 1.4-.2-.4.2-.9.3-1.4.2z"/><path fill="#bd6a49" d="M112.6 115.9c.1 0 .2 0 .2-.1 0 .4 0 .8-.3 1.1-.7 1.1-1.4 2-2.2 3-.7.9-1.5 1.7-2.4 2.5-.9.8-1.7 1.8-2.6 2.6-.7.6-1.4 1.3-2.2 1.9.3-.4.6-.7.9-1-.1 0-.3.1-.4.1.9-.9 1.9-1.8 2.8-2.7.6-.7 1.3-1.3 1.9-2 .8-.9 1.6-1.7 2.4-2.6.7-1.1 1.3-1.9 1.9-2.8z"/><path fill="#b85e3a" d="M70.5 116.9c1.6 1.2 2.9 2.7 4.4 4 1.2 1 2.4 1.9 3.6 2.9 2.2 1.7 4.7 2.8 7.3 3.7 1.1.4 2.2.7 3.3 1.2 1.6.6 3.2 1 4.9 1.2 1.4.1 2.8-.2 4.1-.8 1.3-.6 2.6-1.1 3.7-1.9.6-.4 1.2-.9 1.8-1.3.1 0 .3-.1.4-.1-.3.3-.6.6-.9 1-.6.6-1.3 1-2 1.5-1.2.9-2.6 1.5-4 1.9-.9.3-1.9.1-2.9.2-1.4.2-2.8-.3-4.2-.6-1-.2-1.8-.7-2.8-.9-.9-.3-1.8-.7-2.8-1-1.6-.7-3.2-1.3-4.7-2.3-1.3-.7-2.4-1.7-3.6-2.6-2-1.5-3.7-3.3-5.4-5.1 0-.3-.2-.6-.2-1z"/><path fill="#fcbc9e" d="M91.1 123.1c1.2-.7 2.8-1 4.1-.5v.3c-1.4-.3-2.8.3-4.1.6v-.4z"/><path fill="#bb9533" d="M131.5 244.6c0-.5.1-1 .1-1.6.1-1.6.4-3.2.7-4.9.4-2.4.7-4.8 1.1-7.2.2-1.1.3-2.2.6-3.2.7-2.3 1.4-4.7 2.5-6.9.9-2.4 2-4.7 3.2-6.9 2.1-3.8 4.1-7.6 6.7-11.1 1.5-2.1 3-4.1 4.5-6.1.2-.3.3-.7.4-1.1-.5 0-1 .3-1.3.7-1.7 1.7-3.3 3.7-4.7 5.7-2.3 3.1-4.2 6.6-6 10-.5 1-1 2.1-1.6 3.1.2-1.2.5-2.4.8-3.7.6-2.5 1.4-5 2.5-7.3 1.1-2.5 2.4-5 3.3-7.6-.2 0-.5-.1-.7.2-.5.6-.8 1.3-1.2 2-1.3 2.5-2.6 5-3.6 7.7-1.3 3.3-1.8 6.8-2.2 10.3-.1 1-.3 1.9-.7 2.8-.4 1.1-.8 2.3-1.3 3.5.1-.7.1-1.3.2-2-.5 1.5-.5 3-1 4.5-.2 1-.5 1.9-.5 2.9s-.2 1.9-.4 2.9l-1.5 9.6c-.2 1.2-.3 2.5-.3 3.7h.4zM19.6 203.9c.7.4 1.1 1.1 1.7 1.7.8.9 1.4 2 2.3 2.9.8.8 1.6 1.7 2.3 2.6 1.1 1.5 2.2 3.1 3.4 4.5 1.4 1.7 2.7 3.4 3.9 5.2 1.4 2.1 2 4.6 3.2 6.8.4.9.8 1.8.9 2.8.1.6 0 1.3.4 1.9.4.6.8 1.3 1.1 2 .6 1.3 1.1 2.8 1.6 4.2 0-.3.1-.6.1-.8.2 1.3.3 2.6.9 3.7-.1.2-.2.3-.3.5-.2-.6-.4-1.2-.6-1.7-.3-.6-.9-1-1.1-1.6-.4-1.3-.9-2.6-1.4-3.8-.7-1.4-1.6-2.7-2.5-3.9-1.2-1.7-2.5-3.3-3.8-4.9-1.3-1.5-2.7-3-4-4.4-.9-1-2-1.7-3.1-2.6-.5-.4-1.2-.9-1.1-1.6.6.4 1.1.9 1.7 1.3.6.4 1.3.8 1.9 1.3 1.3.9 2.3 2.2 3.3 3.3 1.5 1.6 2.9 3.3 4.2 5 .6.8 1.1 1.7 1.8 2.4-.1-1.1-.5-2.2-1-3.2-.7-1.2-1.3-2.4-2-3.7-.5-1.1-1.1-2.1-1.8-3.1-1.4-2-2.9-4-4.4-6-1.2-1.6-2.3-3.4-3.7-4.9-.8-.9-1.5-1.9-2.2-2.9-.7-1-1.5-1.9-1.7-3zm67.5 40.7c.1-.6.2-1.3.4-1.9.3-1.6.9-3.1 1.5-4.5.8-2 1.9-3.8 2.8-5.8 1-2.4 1.7-5 2.1-7.6.1-.8.2-1.7.2-2.5-.1-.1-.3-.2-.4-.2-.5.9-.7 1.9-1 2.8-.4 1.5-.8 2.9-1.3 4.3-.6 1.9-1.5 3.8-2.3 5.6-1 2.5-2 5-2.5 7.6-.1.7-.2 1.4-.3 2.2h.8zm-35.7-14c.4 2.3.6 4.7 1.3 6.9.8 2.2 1.6 4.5 2.7 6.6.1.1.1.3.2.4H57c-.8-1.6-1.5-3.2-2.1-4.8-.5-1.5-1.2-3-1.5-4.6-.4-2-.7-4.1-1.2-6.1-.3-1.4-.7-2.8-1.3-4-.3-.6-.5-1.3-1.2-1.5.1.9.6 1.8.8 2.7.4 1.5.6 2.9.9 4.4zm57.1 2.8c.2 0 .5 0 .7.3.4.6.5 1.2.7 1.9.7 2.9 1.4 5.8 1.9 8.8-.2.4-.5-.1-.6-.3-.4-1-.6-2.1-1-3.2-.4-1.5-1.2-2.8-1.4-4.3-.3-1-.5-2.1-.3-3.2z"/></g></svg>