<svg xml:space="preserve" xmlns:xlink="http://www.w3.org/1999/xlink" enable-background="new 0 0 180 180" viewBox="0 0 180 180" xmlns="http://www.w3.org/2000/svg"><defs><path id="a" d="M0 0h180v180H0z"/></defs><use xlink:href="#a" fill="#9541f7" overflow="visible"/><clipPath id="b"><use xlink:href="#a" overflow="visible"/></clipPath><g clip-path="url(#b)"><path fill="#764072" d="M80.3 18.5c2.8-.4 5.7-.6 8.6-.1 3.1.5 6.3 1.4 8.6 3.6 1.1 1.1 2.3 2.2 3.2 3.5.8 1.3 1.2 2.7 1.5 4.1.3 1.6.6 3.2.3 4.8.8.1 1.6.3 2.4.3 2.1.1 4.3.6 6.2 1.4 1.7.7 3.3 1.7 4.9 2.7.9.6 1.7 1.2 2.5 1.9.6.5 1.1 1.2 1.7 1.7.9.8 1.4 1.9 2.2 2.8 1.1 1.4 2 2.9 2.8 4.6.9 2 1.8 4.1 2.4 6.2.4 1.6.9 3.1 1.2 4.7.3 1.9.7 3.8.8 5.8.2 2 .1 4 .1 6-.1 2.2-.4 4.4-.7 6.6-.1.4-.1.8.2 1.2-.3 1.5-.9 3-1.6 4.3-1.2 2.3-2.6 4.5-4.3 6.3-1.6 1.7-3.6 2.9-5.6 4.1-1.8 1.1-3.8 2-5.8 2.7-2.2.8-4.4 1.5-6.6 1.9-2.8.5-5.7.6-8.6.8-1.3 0-2.6.1-3.8.1-.9 0-1.9.1-2.8.1-1.6 0-3.2.2-4.8.1-1.2 0-2.5.1-3.7.1-1.8.1-3.7 0-5.5.1-1.5 0-3.1.1-4.6 0-1.3-.1-2.6-.6-3.7-1.3-1.4-1.1-2.8-2.2-3.7-3.7-1-1.4-1.6-3-2.1-4.7-.5-1.6-.9-3.3-1.1-5-.2-1.2-.5-2.5-.6-3.7-.1-1.5-.2-3-.4-4.5.3-2.7.1-5.5.5-8.2.4-2.4 1-4.8 1.6-7.2.5-2.1 1.2-4.1 1.9-6.1.7-2.2 1.7-4.4 2.9-6.3.9-1.4 1.9-2.6 3.1-3.7 1.9-1.8 4-3.4 6.2-4.7 1.8-1.2 3.8-2.1 5.9-2.8 2.1-.7 4.2-1.4 6.3-2 2.4-.6 4.8-1 7.3-1.5 1.3-.2 2.7-.4 4-.4.7 0 1.4 0 2.1-.1.3 0 .5-.4.3-.7-.2-.3-.6-.4-.9-.5-1.7-.5-3.4-.8-5.1-1-.5-.8-1.1-1.4-1.8-2-1-.8-2.1-1.6-3.3-2.1-1.8-.8-3.6-1.4-5.6-1.5-2.8-.2-5.6.4-8.3 1.3-1.7.5-3.2 1.4-4.7 2.4-2.1 1.4-4 3-5.8 4.9-.9.9-1.8 1.8-2.6 2.8-.5.6-.8 1.2-1.4 1.7-.9.8-1.7 1.7-2.6 2.6 1-.3 1.6-1.1 2.4-1.7 1.9-1.5 3.8-2.9 5.8-4.4 1.8-1.3 3.7-2.4 5.7-3.3 1.9-.8 3.8-1.7 5.9-2.2 1.4-.3 2.8-.5 4.2-.5 1.5-.1 3.1.1 4.5.6.8.3 1.4.8 2 1.4-2.3.2-4.5.7-6.8 1.1-2.2.5-4.4 1.1-6.5 2-2 .9-3.9 1.9-5.7 3.2-3.6 2.5-6.6 5.7-9.3 9.2-2.6 3.2-5.1 6.5-7.9 9.6-1.1 1.2-2.2 2.3-3.3 3.5 1.2-.4 2.4-.9 3.6-1.5 1.1-.5 2.3-.9 3.3-1.6l1.8-1.2c.7-.5 1.2-1.2 2-1.6v.4l-.9.9c0 .6-.6 1-.9 1.4-1.1 1.2-2.3 2.3-3.6 3.3-1.6 1.2-3.1 2.4-4.8 3.3l-4.2 2.4c-2 1-3.9 2-5.8 2.9-2 .9-3.9 1.8-5.9 2.6-1 .4-2 .9-3 1.3-2.3.9-4.7 1.7-7.2 2.2-.7.2-1.4.2-2.1.3-.1-.8.1-1.5.6-2.2.5-.7 1.3-1.2 2-1.6h-.4c.6.3 1.6.3 2.4 0 1.9-.7 3.7-1.9 5.5-2.8 1.5-.8 2.9-1.7 4.3-2.6.5-.3 1-.7 1.3-1.2-1 .3-1.9.8-2.9 1.2-2 .8-4.1 1.4-6.1 2.1-2.6.9-5.2 1.4-7.9 1.6-1.3.1-2.6-.1-3.8-.5.1-1.6 1.4-2.8 2.8-3.3 1 .1 1.9-.2 2.8-.3 2.6-.4 5-1.5 7.4-2.4 1.4-.5 2.9-1.1 4.3-1.7h-.9c1.3-.5 2.6-1 3.8-1.6 1.7-.8 3.5-1.5 5-2.7-.8.2-1.6.4-2.4.7-4 1.5-8.1 2.5-12.3 3.1-1.8.2-3.6.5-5.3.7-1.5.2-3.1-.2-4.6-.4-.9-.1-1.7-.5-2.5-.9v.5H16c.2-.6.5-1.3.9-1.8.7-.8 1.6-1.5 2.6-2 1.2-.6 2.6-.9 3.9-1.4 1.5-.5 3.1-.8 4.6-1.2 1.2-.3 2.3-.6 3.5-1 1.9-.2 3.9-.5 5.7-1.1 1.5-.6 3-1 4.4-1.6 3.1-1.2 6-2.8 8.9-4.5 2-1.2 4-2.4 5.5-4.2-1.2.9-2.6 1.7-3.9 2.4-2.5 1.2-5.2 2.1-7.8 3-.9.3-1.7.5-2.6.7-1.3.4-2.7.6-4.1.9-2 .3-4 .2-5.9-.1-1-.2-2-.5-2.8-1 .9-1.8 2.6-3.3 4.5-4 1.3-.5 2.7-1 4.1-1.3 1.2-.3 2.5-.6 3.7-1 1.8-.6 3.5-1.5 5.1-2.4 1.3-.7 2.5-1.5 3.5-2.6 1.6-1.6 3.1-3.3 4.7-4.9 1.9-2.1 3.8-4.2 6.1-6 1.9-1.6 4-3.1 6.3-4.2 4.1-2.3 8.7-3.7 13.4-4.4z"/><path fill="#40233f" d="M76.7 28.8c2.7-.9 5.5-1.5 8.3-1.3 1.9.1 3.8.7 5.6 1.5 1.2.5 2.3 1.3 3.3 2.1.7.6 1.3 1.2 1.8 2 1.7.2 3.5.5 5.1 1 .3.1.7.2.9.5.2.2 0 .6-.3.7-.7.1-1.4.1-2.1.1-1.4 0-2.7.2-4 .4-2.4.4-4.9.8-7.3 1.5-2.1.5-4.2 1.3-6.3 2-2.1.7-4 1.7-5.9 2.8-2.2 1.3-4.3 2.9-6.2 4.7-1.1 1.1-2.2 2.3-3.1 3.7-1.3 2-2.2 4.1-2.9 6.3-.7 2-1.4 4-1.9 6.1-.6 2.4-1.2 4.7-1.6 7.2-.4 2.7-.3 5.5-.5 8.2-.1-.5-.1-1-.1-1.6-.7.6-1.5 1.1-2.4 1.5-2.2.9-4.5 1.6-6.9 2-2.5.5-5 .9-7.5 1.3-2.1.4-4.2.3-6.3.5h-3.3c-1.4-.1-2.8-.2-4.1-.5-1.8-.4-3.6-1.1-5-2.4-.6-.5-.9-1.3-1.1-2.1l2.1-.3c2.4-.6 4.8-1.3 7.2-2.2 1-.4 2-.9 3-1.3 2-.8 3.9-1.8 5.9-2.6 2-.9 3.9-1.9 5.8-2.9 1.4-.7 2.8-1.6 4.2-2.4 1.7-.9 3.2-2.1 4.8-3.3 1.3-1 2.5-2.1 3.6-3.3.4-.4.9-.7.9-1.4l.9-.9V56c-.8.4-1.3 1.2-2 1.6l-1.8 1.2c-1 .7-2.2 1.1-3.3 1.6-1.2.5-2.3 1.1-3.6 1.5 1.1-1.2 2.2-2.3 3.3-3.5 2.8-3 5.3-6.3 7.9-9.6 2.7-3.4 5.7-6.7 9.3-9.2 1.8-1.2 3.7-2.3 5.7-3.2 2.1-.9 4.3-1.5 6.5-2s4.5-.9 6.8-1.1c-.6-.6-1.2-1.2-2-1.4-1.4-.5-3-.7-4.5-.6-1.4 0-2.8.1-4.2.5-2 .5-3.9 1.4-5.9 2.2-2 .9-3.9 2-5.7 3.3-1.9 1.4-3.9 2.8-5.8 4.4-.8.6-1.5 1.3-2.4 1.7.9-.9 1.6-1.8 2.6-2.6.5-.5.9-1.1 1.4-1.7.8-1 1.7-1.9 2.6-2.8 1.7-1.8 3.7-3.4 5.8-4.9 1.5-1.3 3-2.1 4.7-2.6zM52 45.7c1.4-.7 2.7-1.5 3.9-2.4-1.5 1.8-3.5 3-5.5 4.2-2.9 1.6-5.8 3.2-8.9 4.5-1.4.6-3 1.1-4.4 1.6-1.8.6-3.8.9-5.7 1.1-1.2 0-2.3-.7-2.7-1.8-.5-1.2-.5-2.5 0-3.7.9.5 1.8.8 2.8 1 2 .3 4 .4 5.9.1 1.4-.2 2.7-.5 4.1-.9.9-.2 1.8-.4 2.6-.7 2.7-1 5.4-1.8 7.9-3z"/><path fill="#40233f" d="M41.1 59.1c.8-.3 1.6-.5 2.4-.7-1.5 1.2-3.3 1.9-5 2.7-1.3.6-2.6 1.1-3.8 1.6h.9c-1.4.7-2.8 1.2-4.3 1.7-2.4.9-4.8 2-7.4 2.4-1 .2-1.9.4-2.9.3-1-.2-1.9-.4-2.8-.8-.9-.4-1.6-1.1-1.9-2-.3-.7-.4-1.5-.4-2.3h.3v-.5c.8.4 1.6.7 2.5.9 1.5.2 3.1.6 4.6.4 1.8-.2 3.6-.4 5.3-.7 4.4-.6 8.5-1.6 12.5-3zM36 67.3c1-.4 1.9-.9 2.9-1.2-.3.5-.8.9-1.3 1.2-1.4.9-2.8 1.8-4.3 2.6-1.8.9-3.6 2.1-5.5 2.8-.8.3-1.8.3-2.7.4-1 .1-2 .1-3 0-1.1-.3-2.3-.4-3.2-1.2-.5-.4-.7-.9-.7-1.5 1.2.5 2.5.6 3.8.5 2.7-.1 5.4-.7 7.9-1.6 2-.6 4.1-1.2 6.1-2z"/><path fill="#ddd0c1" d="M54.5 155.2c.3 0 .5-.1.8 0 .2.2.3.4.4.7v.2c-.5.3-1 .5-1.5.7-.6.2-1.2.4-1.6.9 1 .1 2-.2 3-.3 1.4-.1 2.7-.3 4.1-.4 1.8-.1 3.5-.3 5.3-.4 3.5-.3 7-.5 10.5-.7 3.2-.2 6.3-.2 9.5-.3 1.9-.1 3.8 0 5.7 0 3 0 6.1.1 9.1.1 6.3.2 12.6.4 18.9.8 2.7.2 5.3.6 8 .9 1.4.2 2.9.4 4.2.9 2.5 1.2 4.9 2.4 7.4 3.7 2.5 1.2 4.9 2.4 7.3 3.9.9.6 1.9 1 2.8 1.6 1.2.7 2.3 1.4 3.4 2.2 1.6 1.2 3.3 2.4 4.7 3.8 1.8 1.7 3.5 3.4 4.7 5.6.5.9 1 1.8 1.3 2.8.4 1.5.7 3.1.6 4.7-.1 1.2 0 2.4-.1 3.6-.1 1.3-.3 2.5-.4 3.7-.4 2.7-.7 5.5-1.4 8.1-.7 3-1.5 6-2.4 8.9l-2.1 6.6c-.8 2.5-1.7 5-2.7 7.4-.8 2.1-1.8 4.1-2.6 6.2-1 2.6-2.1 5.3-3 7.9-.7 2.1-1.5 4.1-2.3 6.2-.8 2.2-1.7 4.4-2.8 6.6-.8 1.6-1.6 3.1-2.2 4.7-.7 1.8-1.4 3.6-2 5.4-.7 2.2-1.7 4.3-2.6 6.4-.7 1.7-1.7 3.3-2.7 4.9-.9 1.5-1.8 2.8-3 4.1-1.3 1.5-2.9 2.9-4.4 4.2-1.1 1-2.3 2-3.6 2.7-1.7 1-3.7 1.6-5.7 1.9-2.7.5-5.5.5-8.2.2-1.1-.1-2.2-.5-3.2-.9-1.9-.7-3.6-2-4.6-3.7-.6-1-1.3-1.9-1.8-2.9-1.2-2.2-1.8-4.7-2.6-7-.4-1.5-1-2.9-1.8-4.2-.9-1.4-1.6-2.8-2.3-4.3-1.2 2.3-2.3 4.7-3.7 7-.9 1.6-1.7 3.2-2.8 4.6-.9 1.2-1.7 2.5-2.7 3.7-.7.9-1.5 1.7-2.3 2.5-.6.6-1.2 1.3-2 1.7-1.9 1.3-4.1 2.1-6.3 2.6-1.4.4-2.9.1-4.3.3-2 .2-4 .1-5.9-.4-1.9-.6-3.9-1.2-5.6-2.2-.9-.5-1.7-1.2-2.4-1.8-1.9-1.6-4-3-5.8-4.8-1.2-1.3-2.5-2.5-3.7-3.9-.8-.9-1.6-1.8-2.3-2.8-.8-1.2-1.4-2.5-2-3.8-.9-2.3-1.6-4.7-2.1-7.1-.3-1.3-.6-2.6-.9-3.8-.6-2.4-1.3-4.7-2.1-7-.6-2.1-1.4-4.1-2.1-6.1-.7-2.3-1.7-4.5-2.6-6.8-.9-2.3-1.7-4.6-2.6-6.8-1.1-2.5-1.9-5-2.7-7.6-1.2-4-1.9-8.2-2.8-12.3-.5-2.5-.8-5-.9-7.5 0-3.3.3-6.6 1-9.8.4-2.5 1.2-5 2.1-7.4 1-2.5 1.9-5 3.2-7.3.5-1 1.2-2 1.7-3 .4-.8.9-1.5 1.4-2.2.6-.8 1.2-1.6 1.9-2.3 1-1 1.8-2.2 3-3.1.7-.5 1.3-1.1 1.9-1.7.8-.7 1.7-1.3 2.5-1.9 1.1-.7 2.2-1.6 3.3-2.2.9-.6 1.9-1 2.9-1.5 1.4-.6 2.7-1.3 4.1-1.8 1-.8 2.2-1.4 3.5-1.6z"/><path fill="#f2844f" d="M95.1 44c.7-.1 1.4 0 2-.1 1.4 0 2.7-.1 4.1 0 .6.1 1.2.1 1.8.1.6.1 1.2 0 1.8.2 2 .1 3.7 1.1 5.5 1.7 1.1.4 2.1 1.1 3 1.7 1 .7 2 1.3 3 2 1.6 1.3 3.1 2.8 4.2 4.5.8 1.1 1.1 2.5 1.5 3.8.8 2.7 1.2 5.5 1.6 8.2.5 2.8.5 5.6.5 8.5.1.7.1 1.5.1 2.2.1.4.1.8.1 1.3 0 .7.1 1.4.1 2.1 0 .8-.1 1.7.1 2.5.3 1.1.2 2.3.1 3.4 0-.1 0-.3-.1-.4-.2.1-.1.3-.2.5-.5 2-1 4-1.4 6.1-.4 2.7-1.9 10.9-2.2 12.5-.1.9-.3 1.9 0 2.8-1.1 2.4-1.5 5.1-2.5 7.5-1.1 2.7-2.2 5.4-3.7 8-.6 1-1.1 2-1.7 2.9-.4.6-.9 1.1-1.2 1.8-.2-.1-.4.1-.5.2-.7.6-1.5 1.1-2.3 1.6-1.2.8-2.6 1.4-3.8 2.2-.9.5-1.7 1-2.7 1.3.9-.5 1.1-1.6 1.5-2.5.9-2.3 1.6-4.6 2.3-7 .4-1.5.7-3 .9-4.6.2-1.7.1-3.5.5-5.2.1-.3-.2-.6-.1-1 .2-.6.4-1.1.5-1.6.1-.3-.1-.5-.2-.8.1-.4.3-.8.3-1.2 0-.3-.5-.5-.7-.2-.3.5-.6 1-.8 1.5-1.1 3-1.4 6.2-1.9 9.4-.5 2.8-1 5.6-1.7 8.3-.2 1-.6 2-.9 3-.1.7-.4 1.5-.6 2.2-.8.4-1.7.7-2.6 1-1.1.4-2.3.4-3.4.7-.9 0-1.7.2-2.6.1-.5-.1-.9-.1-1.4-.2-.1-1.3-.7-2.4-1.2-3.6-.3-1-.8-2-1.2-3-.6-1.5-1.4-3-2-4.5-1.3-3.4-2.8-6.7-3.7-10.2-.2-.6-.7-1-1.1-1.5-.1-.2-.7-.2-.5.1.5 1.1.5 2.3.7 3.5.4 2.4.9 4.7 1.5 7 .1.3.2.6.4.9.2.1.4.1.5.1 1.2 2.6 2.9 5 4 7.7.1.4.6.6.7 1 .2.7.6 1.4 1 2.1-1.6-.2-3.2-.9-4.7-1.5-1.3-.5-2.5-1.2-3.6-2-1.2-.9-2.5-1.9-3.6-2.9-1-1-2.1-1.9-3.1-2.8-1.5-1.6-2.8-3.3-4-5.1-1.1-1.6-2.3-3.2-3.2-4.9-.5-.9-1-1.9-1.4-2.8-.3-.6-.3-1.3-.8-1.8-.3-.4-.3-.9-.7-1.2v.3l-.3-.6c.1-.2.2-.3.2-.5.1-1.5-.2-3-.4-4.5-.5-2.9-1.1-5.9-1.5-8.8-.3-1.6-.5-3.2-.7-4.9-.1-.8-.1-1.6-.3-2.3 0 0-.1 0-.1-.1 0-.7-.1-1.5.2-2.2.3-.3.3-.8.4-1.3.1-.7.1-1.4.4-2.1.9-2.2 1.4-4.4 1.9-6.7.8-3.3 1.2-6.7 2-10 .7-3 1.3-6.1 2.8-8.9 1.1-2.3 2.9-4.3 5-5.8.5-.6 1.2-1.1 1.8-1.5 1.3-.8 2.6-1.7 4.1-2.3 2.3-1 4.7-1.8 7.1-2.3 2.5-.5 4.8-.9 7.1-1.1z"/><path fill="#f95939" d="M128 80.1c.3-.4.9-.5 1.4-.3 1.2.4 2.3 1 3.1 1.9 1.9 1.6 3.1 3.9 3.4 6.3.2 1.1.1 2.1.1 3.2-.2 2.5-1.3 4.7-2.7 6.7-1.4 2-3.1 3.8-5 5.4-2.1 1.7-4.5 2.9-7.1 3.8-.2.1-.2.3-.3.5-.2-.9 0-1.8 0-2.8.2-1.5.5-3 .8-4.5.4-2.7.9-5.3 1.4-8 .3-2.1.8-4.1 1.4-6.1.1-.2 0-.4.2-.5 0 .1 0 .3.1.4 0 .3-.1.6 0 .8.3-1 .8-1.9 1.2-2.8.5-1.4 1.3-2.7 2-4zm-71.4 2.1c1.5-.7 3.3 0 4.1 1.4.8 1.4 1 3.1 1.9 4.5 0 0 .1 0 .1.1.2.7.2 1.5.3 2.3.2 1.6.4 3.3.7 4.9.4 3 1 5.9 1.5 8.8.2 1.5.5 3 .4 4.5 0 .2-.1.3-.2.5-.1-.2-.2-.4-.4-.6h-2.2c-1.1-.2-2.1-.5-3.1-.9-.8-.3-1.4-.9-2-1.5-.9-.9-1.7-1.9-2.3-3-1-1.9-2.1-3.7-2.8-5.8-.6-1.4-.8-2.9-1-4.3-.1-1-.1-2 0-3 .1-2.6 1-5.2 3-6.9.5-.4 1.2-.7 2-1zm19.1 12.6c1.2-.2 2.5.1 3.6.6 1.7.6 3.1 2.2 3.5 4 .4 1.2.1 2.6-.3 3.8-.4.9-.8 1.8-1.5 2.6-.9.8-2.1 1.3-3.2 1.4h-1.4c-.2-.3-.5-.6-.8-.6-.1.1-.1.2-.2.4h-.1c-1.6-.3-3-1.1-3.9-2.5-.8-1-1.1-2.3-.9-3.6.2-1.8 1.1-3.7 2.6-4.8.7-.5 1.6-1.1 2.6-1.3zm36.2.9c1-.3 2.2-.2 3.2.3 1.5.7 2.6 2 3.2 3.5.5 1.2.5 2.6.2 3.9-.4 1.7-1.4 3.3-2.8 4.4-.9.7-2 .9-3.1 1.1-.2-.1-.5-.1-.7-.1-1.2-.1-2.4-.7-3.2-1.5-1.2-1.2-2-3-1.9-4.7.1-1.6.8-3 1.8-4.2.7-1.2 1.9-2.2 3.3-2.7z"/><path fill="#e56324" d="M89.4 101.1c.5-.3.6.6 1.1.6.9-.4 1.8.4 2.5.9.2.3.6-.1.9.1.5.3 1 .4 1.4.7.3.4.8-.1 1.2.1.4.1.7-.1 1-.3 1-.7 1.9-1.4 2.8-2.1.3-.2.7-.1.8.3-.3.6-.8.9-1.2 1.4-.6.6-1 1.4-1.6 2-.7.8-1.6 1.5-2.5 2-.7.4-1.5.2-2.3.2-1 0-1.8-.7-2.4-1.4-.5-.7-.9-1.6-1.2-2.3-.2-.7-.6-1.5-.5-2.2zm-14 5.5c.4-.1.6.3.8.6 1.2 2 1.7 4.2 2.5 6.4.3 1 .7 1.9.9 2.9 0 .7.3 1.4.5 2.1.1.6.3 1.2.3 1.8-.2.3-.6.1-.7-.1-.7-1.2-.9-2.7-1.4-4-.2-.2-.5-.2-.5-.5l-1.5-5.1c-.4-1.2-.6-2.4-1-3.6 0-.3.1-.4.1-.5z"/><path fill="#e56324" d="M107.4 108.9c.2-.3.7-.1.7.2-.1.4-.3.8-.3 1.2.1.2.3.5.2.8-.1.6-.4 1.1-.5 1.6-.1.3.2.6.1 1-.4 1.7-.3 3.5-.5 5.2-.2 1.6-.5 3.1-.9 4.6-.6 2.4-1.3 4.7-2.3 7-.4.9-.6 1.9-1.5 2.5 1-.3 1.8-.8 2.7-1.3 1.2-.8 2.6-1.4 3.8-2.2.8-.5 1.6-1 2.3-1.6.2-.1.3-.3.5-.2-.2.5-.2 1-.2 1.5-.7.9-1.3 1.9-1.9 2.8-.6.9-1 1.9-1.5 2.9-1.2 2.5-2.5 5-3.7 7.4-1.3 2.4-2.5 4.9-3.9 7.3-.9 2-2.2 3.9-3.4 5.8-.8 1.1-1.5 2.4-2.5 3.2-.3.3-.8.4-1.2.6-.5.2-.9.5-1.3.7-1.2.4-2.5.5-3.8.3-2.4-.4-4.6-1.5-6.5-3.1-2.1-1.6-3.8-3.6-5.3-5.8-1.3-1.7-2.4-3.7-3.4-5.6-1.8-3.8-3.6-7.6-5.1-11.5.1-.8.3-1.6.4-2.4.2-2 0-3.9 0-5.9-.2-2.8-.5-5.5-1-8.2-.3-2-.7-4-1.3-6-.2-.7-.5-1.3-.7-2v-.3c.4.3.4.9.7 1.2.4.5.5 1.2.8 1.8.4 1 .9 1.9 1.4 2.8.9 1.7 2.1 3.3 3.2 4.9 1.2 1.8 2.5 3.5 4 5.1 1 1 2.1 1.9 3.1 2.8 1.1 1.1 2.4 2 3.6 2.9 1.1.8 2.3 1.4 3.6 2 1.5.6 3 1.3 4.7 1.5-.4-.7-.7-1.4-1-2.1-.1-.4-.6-.6-.7-1-1.1-2.7-2.8-5.1-4-7.7-.2 0-.4-.1-.5-.1-.2-.3-.3-.6-.4-.9-.6-2.3-1.1-4.7-1.5-7-.2-1.2-.3-2.4-.7-3.5-.2-.3.4-.4.5-.1.4.5.9.9 1.1 1.5.9 3.5 2.3 6.8 3.7 10.2.6 1.5 1.4 3 2 4.5.4 1 .9 1.9 1.2 3 .4 1.2 1 2.3 1.2 3.6.4.1.9.1 1.4.2.9.1 1.7-.1 2.6-.1 1.1-.2 2.3-.3 3.4-.7.9-.3 1.8-.5 2.6-1 .3-.7.5-1.4.6-2.2l.9-3c.7-2.8 1.2-5.5 1.7-8.3.6-3.1.9-6.4 1.9-9.4.4-.4.6-.9.9-1.4zm4.4-.1c.2 0 .5 0 .7.1.2.4-.1.7 0 1.1 0 .3-.1.5-.2.8-.4 1.2-.6 2.5-.9 3.7-.1.4-.5.3-.8.3-.2 0-.3-.2-.4-.4.1-.8.5-1.5.5-2.3 0-.7.4-1.3.6-2 .1-.5.2-.9.5-1.3z"/><path fill="#f2844f" d="M109.7 132c.6-.9 1.2-1.9 1.9-2.8.1.4.2.8.4 1.2 0 1.2.5 2.3.9 3.4 1 2.7 1.9 5.5 3.1 8.2.5 1.2 1 2.4 1.7 3.6 1.3 2.3 2.7 4.6 4.3 6.6.8 1.1 1.8 2.1 2.8 3.1.8.9 1.7 1.6 2.7 2.2.5.3 1 .6 1.5.8-.2.6-.6 1.1-.9 1.6-1.4 2-3.3 3.7-5.6 4.7-2.4 1.1-4.8 2-7.4 2.6-2.6.7-5.2 1.1-7.8 1.5-2.8.3-5.5.7-8.3 1-.9.1-1.8.1-2.8.2h-3.8c-.8-.1-1.5-.2-2.3-.1l-3.3-.3c-2.7-.3-5.3-.8-8-1.3-2.6-.5-5.3-1-7.9-1.8-1.7-.5-3.3-1.1-4.9-1.6-2.3-.7-4.4-1.7-6.5-2.8-2.2-1.2-4.3-2.5-6.4-3.8-.5-.4-1.1-.7-1.4-1.3.9-.2 1.5-.8 2.2-1.3 2.1-1.5 3.9-3.4 5.5-5.4.9-.9 1.7-1.9 2.5-3 3.1-3.8 5.3-8.2 6.4-12.9 1.5 3.9 3.3 7.7 5.1 11.5 1 1.9 2.1 3.9 3.4 5.6 1.5 2.1 3.2 4.2 5.3 5.8 1.8 1.6 4.1 2.7 6.5 3.1 1.3.2 2.6.1 3.8-.3.5-.2.9-.5 1.3-.7.4-.2.8-.3 1.2-.6 1.1-.9 1.8-2.1 2.5-3.2 1.2-1.9 2.5-3.8 3.4-5.8 1.3-2.4 2.6-4.9 3.9-7.3 1.2-2.5 2.5-5 3.7-7.4.3-1.1.7-2.1 1.3-3z"/><path fill="#e77843" d="M119.7 94.1c.5-.5 1.4-.3 1.7.3.6.9.7 2.1.7 3.2.3-.1.7-.1.9.1.4.4.6.9.7 1.5.3 1.6.4 3.2.5 4.8-.1 3.1-.5 6.2-.9 9.3-.3 3.1-.5 6.2-.9 9.2-.2 1.4-.5 2.8-.9 4.1-.5 1.7-1.1 3.3-1.7 5-.9 2.1-1.8 4.1-2.7 6.2-1.2 2.7-2.3 5.5-3.6 8.2-.2.4-.3.8-.4 1.2-.3.7-.6 1.4-.7 2.1-.2 1-.1 2-.1 3-.6-.5-1.2-1.1-2-1.4-.8-.2-1.7-.3-2.5-.2-1.2.1-2.2.9-3 1.7-1.4 1.5-2.2 3.3-2.9 5.2-.7 2.1-1.4 4.2-1.8 6.4-.6 2.9-1 5.8-1.4 8.8-.2 2.7-.4 5.5-.5 8.2-.1 1.6-.2 3.2-.2 4.8-.1 2.1-.3 4.2-.3 6.3-.1 3-.2 6.1-.2 9.1s-.1 6.1.1 9.1c0 1.5.1 3 .2 4.5.1 2.2.2 4.4.6 6.6-1 .7-1.9 1.5-2.8 2.4-.2.3-.5.1-.7 0 0-.5.1-1.1 0-1.6-.2-1.8 0-3.6 0-5.4v-5.1c-.2-3.5 0-7.1-.1-10.7v-2.1c-.1-.8.1-1.6.1-2.4.1-1.6 0-3.2.1-4.9 0-1.8 0-3.7-.1-5.5 0-.9 0-1.7-.1-2.6-.1-1.7 0-3.4 0-5 0 3.4-.3 6.8-.5 10.2-.2 3.2-.5 6.4-.6 9.6-.1 2.2-.3 4.4-.4 6.6-.1 3.3-.3 6.6-.7 9.8-.2 3.2-.5 6.5-.7 9.7 0 .1-.1.2-.2.3-1.1-.3-2-1-2.9-1.6-1-.6-1.9-1.3-3-1.8-1.2-.6-2.3-1.1-3.5-1.7.6-2.5 1-5.1 1.4-7.7.9-5.9 1.9-11.7 2.8-17.6.4-2.4.7-4.8 1-7.2.3-3.2.7-6.4.8-9.6.1-5.6-.1-11.3-1.2-16.8-.3-1.5-.7-3-1.3-4.4-.6-1.4-1.3-2.9-2.6-3.9-.7-.5-1.4-1-2.2-1.1-.7-.1-1.3.1-2 .1v-.5c.1-.9.2-1.8.2-2.7 0-.8-.1-1.5-.1-2.3 0-1.1-.7-2-1.2-2.9-1.2-2.5-3.2-4.4-5-6.5-2.1-2.6-3.8-5.6-5.2-8.7-.8-1.9-1.2-3.8-1.8-5.8-.3-1.1-.5-2.2-.7-3.3-.8-3.6-1.1-7.2-1.3-10.8v-2.6c0-1.1-.1-2.2.2-3.3.1-.3.2-.7.5-.8.4-.1.8-.4 1.2-.2.4.2.6.7.8 1.1-.1-.7 0-1.5.1-2.2.2-.7.5-1.4.9-2 .3-.4.8-.6 1.3-.3.7.5 1 1.4 1.2 2.1.4 1.2.7 2.5.9 3.8.2.9.5 1.7.6 2.6-.2-1 0-2 .4-2.9.3-.5.8-.9 1.4-.9.6.1.9.5 1.2 1 .6 1.1.9 2.3 1.2 3.5.6 2.3 1.3 4.6 2 6.8.4 1.1 1 2.2 1.4 3.3.5 1.2 1 2.3 1.5 3.5-.1-.9-.2-1.8-.4-2.6s-.3-1.6-.3-2.4c0-1.5 0-3.1.5-4.6.1-.5.7-.8 1.1-.5.5.4.7 1.1.8 1.6.4 1.9.5 3.9 1 5.8.3 1.1.6 2.3 1 3.4.7 1.6 1.2 3.4 2 4.9 1.5 2.7 3.1 5.4 4.6 8.1 1.1 1.9 2 4 2.8 6.1.7 1.9 1.3 3.8 1.6 5.8.2-1.2.6-2.3 1.1-3.4 1-2.2 2.5-4.1 3.8-6.1.6-.8 1.1-1.7 1.6-2.5 1.4-2.1 2.6-4.3 3.1-6.8.2-1 .5-1.9.7-2.8.1-1.2.4-2.5.5-3.7.2-1.8.6-3.5.8-5.3.3-2.1 0-4.3.3-6.4.1-.5.3-1 .7-1.4.4-.4 1.1-.4 1.4 0 .6.6.8 1.4 1 2.2.7 2.1.6 4.4.9 6.6.2-1.8.7-3.4 1-5.2.2-1.3.4-2.7.7-4 .5-1.9.6-3.9.8-5.9.1-1.4.3-2.9 1.1-4 .3-.5 1.2-.6 1.6-.1.4.4.5 1 .6 1.6.4 2.1.3 4.2.3 6.3.3-2.6.4-5.2.9-7.8.1-1.2.4-2.4 1.4-3.2z"/><path fill="#fe8b54" d="M104.8 152.4c.8-.8 1.8-1.6 3-1.7.8-.1 1.7-.1 2.5.2.8.2 1.4.9 2 1.4.3 3.4.8 6.8 1.4 10.1.3 2.2.9 4.4 1.2 6.6.5 3.1 1.1 6.1 1.7 9.1.5 2.9 1.3 5.8 1.9 8.8 1.1 5.8 2.7 11.6 3.8 17.4.5 2.6 1.1 5.3 1.6 7.9.3 1.4.7 2.9.7 4.3.2.9.5 1.8.5 2.7 0 .2-.1.4-.2.6-.2 0-.5 0-.7-.1-2.2-.9-4.4-1.8-6.8-2.2-3.5-.5-7.2-.5-10.7.4-1 .3-2.1.6-3.1.9-1.9.6-3.6 1.6-5.2 2.7-.4-2.2-.4-4.4-.6-6.6-.1-1.5-.2-3-.2-4.5-.2-3-.1-6.1-.1-9.1.1-3 .1-6.1.2-9.1 0-2.1.2-4.2.3-6.3 0-1.6.2-3.2.2-4.8.1-2.8.3-5.5.5-8.2.4-2.9.8-5.9 1.4-8.8.4-2.2 1.1-4.3 1.8-6.4.6-2 1.5-3.9 2.9-5.3zm-27.5 5.7c.5-2.3 1.1-4.6 1.4-7v.5c.7-.1 1.3-.2 2-.1.8.1 1.6.6 2.2 1.1 1.2 1 1.9 2.5 2.6 3.9.6 1.4 1 2.9 1.3 4.4 1.1 5.5 1.3 11.2 1.2 16.8-.1 3.2-.5 6.4-.8 9.6-.2 2.4-.6 4.8-1 7.2-.9 5.9-1.9 11.7-2.8 17.6-.4 2.6-.8 5.1-1.4 7.7-1.4-.6-3-1-4.5-1.4-1-.2-2.1-.5-3.1-.6-1 0-2-.1-2.9 0-1.6-.1-3.1.2-4.6.5-2.2.4-4.3 1.2-6.3 2.1-.4.2-.8 0-1.2-.1.1 0 .3-.1.4-.1.3-.8.4-1.6.6-2.4.1-.5.2-.9.2-1.4 0-.6.3-1.2.5-1.8.9-3 1.9-5.9 2.7-8.9.6-2.4 1.3-4.7 2-7.1.7-2.7 1.5-5.3 2.1-7.9.8-3.2 1.6-6.3 2.6-9.4.6-2.1 1.1-4.2 1.8-6.3.9-2.8 1.6-5.7 2.5-8.5.4-1.1.7-2.2 1-3.3.5-1.7 1.1-3.4 1.5-5.1z"/><path fill="#dea1b7" d="M74.3 23.9c1.8-.5 3.7-.9 5.6-.9-.3.3-.8.2-1.2.3-2.4.4-4.8 1.1-7 2-1.8.7-3.3 1.8-4.9 3-1.5 1.2-2.8 2.6-4.4 3.6.2-.4.6-.7.9-1.1l1.8-1.8c1.3-1.4 2.9-2.5 4.5-3.4 1.5-.7 3.1-1.3 4.7-1.7z"/><path fill="#694f67" d="M99.2 37.2h.3v.7h-.4c0-.2.1-.4.1-.7z"/><path fill="#5f435c" d="M102.5 37.1c.7.1 1 .9 1.2 1.5-.2 0-.4-.1-.5-.2-.1-.4-.6-.8-.7-1.3z"/><path fill="#5c415b" d="M106.4 37.2c.6-.1 1.1.4 1.3.9.3.5.5 1.1.7 1.7-.1 0-.3-.1-.4-.1-.1-.1-.1-.3-.2-.4-.4-.7-.6-1.5-1.4-1.9v-.2z"/><path fill="#4b304b" d="M95.9 37.9c.1-.3.3-.5.7-.5v.5h-.7z"/><path fill="#563955" d="M92 37.5h.4c-.1.4-.3.6-.5.9-.1.1-.1.2-.2.3-.2 0-.3-.1-.4-.1.1-.4.4-.8.7-1.1z"/><path fill="#e0a9be" d="M95.9 37.9c.2 0 .5 0 .7-.1.9.1 1.7 0 2.6.1h.4c1.2.1 2.4.4 3.7.5.2.1.3.1.5.2 1.4.3 2.8.7 4.1 1.1v-.4c.1.1.1.3.2.4 0 .1 0 .2.1.3-1.4-.3-2.8-.7-4.2-1-.2 0-.3-.1-.5-.1-1.3-.2-2.6-.4-3.9-.5h-.4c-1-.1-1.9 0-2.9-.1h-.5c-1.4.1-2.8.3-4.2.7 0-.1.1-.2.1-.3 0-.1.1-.2.2-.3.2.1.5 0 .8 0 1-.3 2.1-.4 3.2-.5z"/><path fill="#513752" d="M95.7 38.3h.5c-.3 1-.5 2-.7 3-.1.1-.1.2-.2.3 0-.3 0-.5-.1-.8.1-.9.3-1.7.5-2.5z"/><path fill="#735d72" d="M99.2 38.4h.4c0 1.1 0 2.1-.1 3.2-.1 0-.2.1-.2.1-.1-1.1-.1-2.2-.1-3.3z"/><path fill="#b2839a" d="M91 39.2c0-.2.1-.4.3-.6.1 0 .3.1.4.1 0 .1-.1.2-.1.3-.2.1-.4.1-.6.2z"/><path fill="#6c566b" d="M111.3 38.5c.7.4.9 1.2 1.2 1.9.5 1.6.7 3.2.8 4.9.1.4.1.8 0 1.2-.1.2 0 .4-.2.5.1-1.6-.2-3.3-.5-4.9-.3-1.1-.6-2.3-1.2-3.3-.1-.1-.1-.2-.1-.3z"/><path fill="#6d576d" d="M87.4 39.5c.2-.3.5-.7.9-.7v.3c-.6.5-.9 1.2-1.2 1.9-.4.8-.6 1.6-.8 2.5l-.2.1c.1-1.5.6-2.9 1.3-4.1z"/><path fill="#573d56" d="M91 39.2c.2 0 .4-.1.6-.1-.4 1.1-.7 2.2-.8 3.3 0 .2.1.5.1.7 0 .1.1.2.1.2-.1 0-.2 0-.3.1-.2-.4-.3-.8-.3-1.2.1-1.1.3-2.1.6-3z"/><path fill="#674f67" d="M103.4 39c.2 0 .3.1.5.1.2.9.3 1.8.3 2.7-.1 0-.2-.1-.3-.1-.1-.9-.2-1.8-.5-2.7z"/><path fill="#b0859c" d="M108 39.8c.1 0 .3.1.4.1v.1c0 .1.1.2.1.3-.1 0-.5-.1-.5-.1v-.4z"/><path fill="#edd0da" d="M108.4 39.9c1 .2 1.9.6 2.8 1 .3.1.7.2.9.5-.6 0-1.1-.3-1.6-.5-.7-.2-1.3-.6-2-.6.1 0 0-.3-.1-.4z"/><path fill="#6e576b" d="M108.1 40.1c.1 0 .3 0 .4.1v.2c.2.6.2 1.2.3 1.8h-.3c0-.7-.2-1.4-.4-2.1z"/><path fill="#6b516c" d="M82.1 40.4c.1-.1.4-.1.5-.1-.2.4-.6.6-.8 1-.9 1.5-1.5 3.1-1.7 4.8h-.3c.1-.4.1-.9.2-1.3.2-.9.5-1.8.9-2.7.3-.6.7-1.2 1.2-1.7z"/><path fill="#786076" d="M95.2 42.3c0-.5-.1-1 .1-1.5 0 .3 0 .5.1.8.1-.1.1-.2.2-.3v1h-.4z"/><path fill="#5a4159" d="M115.5 41c.5-.2.8.3 1 .7.5 1 .6 2.1.7 3.1 0 1.3 0 2.7-.4 3.9h-.3s.1-.1.2-.1c.4-1.7.3-3.5 0-5.2-.4-.9-.7-1.7-1.2-2.4z"/><path fill="#765f75" d="M76.3 42.5h.3c-.7.9-1 2.1-1.4 3.2-.2.7-.4 1.5-.4 2.2h-.3c.1-1.6.4-3.1 1.1-4.5.3-.3.5-.6.7-.9z"/><path fill="#583d56" d="M120.6 44.6h.3c.6 1.5.4 3.1.2 4.6-.2 1.2-.4 2.5-1 3.6h-.2c.1-.3.2-.6.4-1 .5-2.1.7-4.2.5-6.3 0-.3-.1-.6-.2-.9z"/><path fill="#8a7588" d="M71 46.8c.1-.2.3-.1.4-.2-.3.5-.6 1.1-.7 1.8-.3 1.4-.4 2.9-.1 4.4-.1-.1-.2-.2-.3-.4-.3-1.1-.2-2.2-.1-3.3.2-.8.3-1.6.8-2.3z"/><path fill="#e2aec2" d="M51.8 50.3c1.4-1 2.7-2 4.1-3v.3c-1.7 1.3-3.4 2.7-5.1 4-1.4 1.1-2.9 2.1-4.5 2.9-1.4.7-2.9 1.4-4.4 1.7-1.1.3-2.2.4-3.3.7.2-.1.4-.2.6-.2 1.7-.4 3.3-.8 4.9-1.6.9-.4 1.8-.8 2.7-1.3 1.7-1 3.3-2.3 5-3.5z"/><path fill="#5c445c" d="M124.1 51.2c0-.1.1-.2.2-.2.3.3.3.8.3 1.2 0 1-.3 1.9-.5 2.8-.2.7-.4 1.5-.7 2.2-.1.2-.2.5-.4.7h-.3c.5-.9.8-2 1-3 .4-1.3.6-2.5.4-3.7z"/><path fill="#887588" d="M65.7 53.7c0-.2.2-.2.3-.3 0 .7-.1 1.5 0 2.2.3 1.2.7 2.4 1.4 3.5.1.1.1.3.1.4-.8-.9-1.3-2.1-1.7-3.3-.2-.9-.3-1.7-.1-2.5z"/><path fill="#624b61" d="M126.7 58.1h.4c.1 1.2-.2 2.3-.6 3.4-.4 1.2-.8 2.4-1.6 3.4h-.3c.6-.8.9-1.7 1.3-2.6.4-1.4.8-2.8.8-4.2z"/><path fill="#624963" d="M63.8 59.2h.3c-.2.5-.2 1.1-.1 1.6.2 1.1.6 2.2 1 3.2.2.4.4.8.5 1.2-.1 0-.2-.1-.2-.1-.6-1-1.2-2.2-1.5-3.4-.3-.8-.3-1.7 0-2.5z"/><path fill="#4b304b" d="M128.4 64.9c.1 0 .2 0 .3.1.1 1.2-.4 2.4-.8 3.5-.7 1.5-1.6 3-2.7 4.3h-.3c1.7-2.5 3.1-5.1 3.5-7.9z"/><path fill="#fcbb9b" d="M104.8 66.4c2-.5 4-.6 6-.3v.2h-2.4c-1.9.1-3.7.5-5.4 1.2-.1 0-.2-.1-.3-.1.6-.5 1.3-.9 2.1-1z"/><path fill="#695169" d="M61.4 67.2c.1 0 .2 0 .3-.1-.1.9.2 1.8.5 2.7.6 1.6 1.4 3.2 2.4 4.5h-.3c-.9-1.1-1.6-2.5-2.2-3.8-.5-1-.9-2.1-.7-3.3z"/><path fill="#fcbb9b" d="M79.5 68c2.2-.2 4.6 0 6.5 1.2 0 .1 0 .2-.1.3-2.5-1.4-5.4-1.2-8.1-.8 0-.1 0-.3.2-.4l1.5-.3z"/><path fill="#764072" d="M108.7 71.9c1.9-.2 3.9-.1 5.8.5 1.3.4 2.5 1.1 3.6 1.9.7.6 1.3 1.4 1.7 2.2.3.6.7 1.1.8 1.7h.1v.4c-.6-.2-1.3-.3-1.9-.6-2.1-.7-4.3-1.2-6.5-1.1-2 .2-4 .6-5.9 1.2-1.3.3-2.7.7-4 .2-.5-.1-.7-.6-.8-1-.2-1 .3-2 .9-2.7.5-.5 1.1-.9 1.7-1.3 1.3-.7 2.9-1.3 4.5-1.4zm-34 2c3.7-1.9 8.2-1.6 11.9.2.6.3 1.1.8 1.7 1.2.6.4 1.1 1.1 1.4 1.7.3.7.3 1.7-.3 2.3-.6.6-1.5.8-2.3.6-.7-.2-1.4-.6-2.1-.8-1-.2-1.9-.6-2.8-.8-1.4-.3-2.8-.6-4.3-.7-1.5-.1-3-.1-4.5 0-1.2.1-2.4.5-3.6.5 0-.2 0-.5.2-.6.7-.9 1.5-1.7 2.4-2.4.8-.5 1.5-.8 2.3-1.2z"/><path fill="#553a53" d="M129 72.7h.4c0 1-.7 1.9-1.3 2.8-.6.9-1.3 1.8-2.1 2.5-.1.1-.3.2-.4.1v.2c0-.1-.1-.2-.1-.3 1.1-.8 1.8-2 2.5-3.1.4-.7.8-1.4 1-2.2z"/><path fill="#15100c" d="M78.8 84.1c.3-.2.8 0 .9.4.3.8.3 1.8.1 2.6-.1.4-.2.8-.6 1-.4.1-.8-.1-.9-.5-.4-1-.2-2.1 0-3.1.1-.2.3-.3.5-.4zm31.6.7c.3-.2.9-.1 1.1.2.3.4.2.9.2 1.4 0 .6-.1 1.2-.4 1.7-.3.4-1.1.6-1.5.1-.3-.5-.3-1.2-.2-1.8.2-.6.3-1.2.8-1.6z"/><path fill="#b65b37" d="M128.4 86.3c.2 0 .4-.1.6 0 .5.5.9 1.1 1 1.8.1 1.6-.4 3.1-1 4.6-.6 1.5-1.2 3.1-2.5 4.3h-.3c.2-.4.6-.8.8-1.2.7-1.3 1.3-2.8 1.7-4.2.3-1.3.7-2.6.2-3.9 0-.5-.5-.9-.5-1.4z"/><path fill="#b85e3b" d="M57.5 89.2c.3-.5.6-1.2 1.3-1.2 0 .5-.5.8-.7 1.2-.7 1.4-.6 3.1-.3 4.7.5 2.2 1.2 4.3 2.4 6.2.1.2.2.4.2.6-.1 0-.2-.1-.3-.2-1.4-1.9-2.2-4.2-2.7-6.5-.5-1.6-.6-3.3.1-4.8z"/><path fill="#fcba99" d="M95.8 88.6h.2c.1 2.7 0 5.3.4 8-.1 0-.2.1-.2.2-.4-1-.4-2.2-.6-3.3-.1-1.6-.1-3.3.2-4.9z"/><path fill="#be6e4c" d="M76.7 89.6c.9.3 1.7.5 2.6.5.5 0 .9-.2 1.4-.3 0 .1 0 .2-.1.3-.8.4-1.7.4-2.6.3-.5 0-.9-.2-1.4-.4.1-.1.1-.2.1-.4z"/><path fill="#b8603c" d="M108.2 89.9c1.4.3 2.9.3 4.2-.2v.3c-.7.4-1.5.5-2.3.6-.7 0-1.4.1-2-.3.1-.1.1-.3.1-.4z"/><path fill="#fcb594" d="M106.2 91.8h.5c1.8.4 3.6 1 5.5.5.2-.1.4-.1.4.2-.3.2-.6.3-1 .4-1.1.2-2.2.1-3.3-.1-.7-.1-1.5-.3-2-.7 0 0 0-.2-.1-.3z"/><path fill="#fcb99a" d="M119.6 94c.4-.2.9-.3 1.3-.1.3.2.6.3.7.7.4.9.5 1.9.5 2.9 0 .1-.1.2-.1.2 0-.1-.1-.2-.1-.2.1-.9-.1-1.8-.5-2.6-.2-.7-1.3-.7-1.8-.2-.8.8-1 2-1.2 3.1-.2 1.6-.3 3.1-.6 4.7-.1-.7.1-1.4.1-2.1 0-.8.2-1.6.3-2.4 0-.7.3-1.3.4-2 .1-.8.3-1.6 1-2z"/><path fill="#fcc0a3" d="M114.6 97.6c.3-.4.7-.7 1.2-.8.3.1.5.3.7.5.3.2.3.7.4 1-.3-.5-.6-1-1.2-1.1-.5.1-.7.5-1 .9-.8 1.4-.9 3-1.1 4.6-.3 1.5-.3 3-.6 4.5-.3 2.1-.7 4.3-1.2 6.4-.1.5-.2 1.1-.5 1.6.3-3.1 1-6.2 1.4-9.3.2-1.7.4-3.4.7-5.1.3-1.1.5-2.3 1.2-3.2z"/><path fill="#fdc1a5" d="M122.3 97.5c.5-.1.9.2 1.1.6.9 1.8.7 3.8.8 5.8-.1-1.5-.3-3-.7-4.5-.3-.8-.6-1.5-1.2-1.9z"/><path fill="#fdbd9f" d="M67.7 97.7c.6-.3 1.3-.2 1.7.3.5.6.7 1.3.9 2 .3 1.1.5 2.3.7 3.5-.1.7.1 1.5.5 2.2v.4c-.7-.8-.8-2-1-3.1-.3-1.4-.5-2.7-1.1-4-.2-.5-.7-1-1.3-.9-.6.2-.9.9-1.2 1.4h-.3c.2-.7.5-1.4 1.1-1.8z"/><path fill="#bb6442" d="M121.8 97.5c0 .1.1.2.1.2 0 .1.1.2.1.2.2 2 .2 4 .2 6-.1 1.5-.1 3-.3 4.5-.2 2.2-.7 4.3-1.1 6.5 0-.3-.1-.5-.1-.7 0-.5.1-.9.1-1.4l.6-4.8c.2-2.9.3-5.7.3-8.6 0-.6 0-1.2.1-1.9z"/><path fill="#b75a36" d="M102.2 100.6c.4-.4.9-.8 1.3-1.3-.1.5-.3 1-.6 1.3-.4.5-1 .6-1.5 1-.6.4-1.2.8-1.8 1.3-.5.4-1 .7-1.7.8-.8.1-1.5.3-2.3.1-1.3-.1-2.5-.6-3.7-1.1-.7-.3-1.5-.6-2.1-1.1-.4-.3-1-.2-1.5-.4s-.9-.6-1.1-1.1c.5.5 1.3.6 2 .8.7 0 1.3.4 2 .6 1.7.7 3.5 1.6 5.4 1.5.6-.1 1.2-.1 1.7-.3 1.3-.6 2.5-1.5 3.9-2.1z"/><path fill="#b9623f" d="M66.7 100.2h.3v5c.1 2.9.6 5.8 1.1 8.6.1.4.2.7.2 1.1 0 .3-.1.6-.1.9-.7-3-1.5-6.1-1.7-9.2-.1-2.2 0-4.3.2-6.4z"/><path fill="#fcbfa2" d="M64.2 101.5c-.1-.5.4-.7.8-.6.6 0 .9.4 1.2.9-.3-.2-.6-.4-.9-.5-.4 0-.7.1-1.1.2z"/><path fill="#c67c5f" d="M116.8 103c0-.6 0-1.3.2-1.8.2.7.3 1.5.2 2.3-.1-.2-.1-.4-.2-.6 0-.1-.1 0-.2.1z"/><path fill="#fcb593" d="M72.3 103c.4-.3.9-.6 1.4-.6.5.1.9.6 1.1 1.1.5 1.1.7 2.3 1 3.5.5 2.1 1.2 4.2 1.8 6.3.6 2.1 1.6 4.1 2.2 6.2-.5-.8-.8-1.6-1.3-2.4-.7-1.2-1.2-2.4-1.5-3.7-.4-1.2-.8-2.4-1.1-3.6-.2-1-.5-1.9-.7-2.9-.3-1.1-.5-2.2-.9-3.2-.2-.4-.4-.6-.8-.8-.6.1-1.4.4-1.5 1.2-.1 1-.1 2.1-.1 3.2-.2-1 0-1.9-.2-2.9.1-.6.2-1.1.6-1.4z"/><path fill="#b85d3a" d="m116.8 103 .2-.2c.1.2.1.4.2.6.1 1.2.1 2.5.1 3.7 0 2.2-.4 4.4-.8 6.5-.1.2-.1.5-.2.7.1-.4 0-.9 0-1.3.1-1.7.3-3.3.4-4.9.1-1.8.1-3.5.1-5.1z"/><path fill="#b9603d" d="M71.7 104.2c.3.9 0 1.9.2 2.9.1 1.1.2 2.1.5 3.2.1.6.1 1.2.2 1.8 0 .6.2 1.3.2 1.9 0 .1 0 .2.1.3-.1.5 0 1 .1 1.4.4 2.5 1 4.9 1.7 7.4.1.5.3.9.3 1.4-.1-.1-.2-.3-.2-.4-.5-1.7-1.3-3.3-1.7-5.1-.4-1.9-.6-3.8-.8-5.7 0-1.7-.5-3.3-.6-5-.1-.7 0-1.4 0-2.2v-.4c-.1-.6 0-1.1 0-1.5z"/><path fill="#bb6845" d="M96.3 104.4h.4c.1.6-.1 1.1-.2 1.7-.1.5-.2 1.1-.3 1.6h-.3c.1-1 0-2.2.4-3.3z"/><path fill="#b95f3c" d="M94.8 105.4c0-.3-.1-.9.4-.9.3.5.1 1.1 0 1.6-.1.6-.2 1.2-.4 1.7h-.2c-.1-.7.1-1.6.2-2.4z"/><path fill="#fcbc9e" d="M107.9 107.6c.6-.1 1.2 0 1.6.5.8 1.3 1 2.8 1.3 4.3.2 1.1.2 2.1.2 3.2-.1-.3-.2-.5-.2-.8l.2-.2c0-1-.4-2-.6-3-.3-1.1-.6-2.2-1.1-3.2-.2-.3-.5-.5-.8-.4-.5.2-.7.8-.8 1.3-.4 2-.2 4-.4 6.1-.2 1.7-.2 3.4-.5 5.1-.3 2.4-.8 4.7-1.5 7-.7 2.6-2 5-3.5 7.2-1.3 2-2.8 3.9-4 5.9-.6.9-1.3 1.8-1.6 2.9-.3.8-.4 1.6-.7 2.4.1-1.3.4-2.7 1.1-3.8 2.2-4.1 5.4-7.6 7.3-11.8 1-2.2 1.6-4.7 2.1-7.1.4-2 .7-3.9.8-5.9 0-1 .2-2 .2-3 0-1.8-.1-3.5.3-5.3-.1-.5.1-1.1.6-1.4z"/><path fill="#d0424e" d="M83.5 108.5c1.6-.2 3.3 0 5-.1 2.4.2 4.9.3 7.3.3h2.9c2.1 0 4.2-.2 6.3.2.7.1 1.2.8 1.2 1.4 0 1-.4 1.9-.8 2.7-.9 1.4-2 2.6-3.1 3.8-1.3 1.3-2.9 2.2-4.5 2.8-.9.4-2 .6-3 .8-1.1.2-2.2-.2-3.3-.4-.6-.1-1-.5-1.5-.7-.8-.4-1.6-.7-2.3-1.3-1.1-.9-2.2-1.7-3-2.9-.6-.9-1.4-1.7-1.7-2.7-.2-.7-.4-1.3-.5-2 0-.8.2-1.8 1-1.9z"/><path fill="#fff" d="M83.5 109.6c.2-.1.4-.1.6 0 1.8.7 3.8 1.1 5.7 1.5 1.4.2 2.8.5 4.3.7 3.4.4 6.9.1 10-1.2.4-.2.8-.5 1.3-.6l-.1.1c-.4.5-.9.9-1.4 1.3-1.1.9-2.3 1.7-3.6 2.2-1.1.5-2.2.9-3.4 1.1-1.1.2-2.2 0-3.4 0-2-.1-3.9-.9-5.6-1.8-1-.5-2-1.3-2.9-2-.4-.3-.8-.8-1.2-1.1-.1 0-.3-.1-.3-.2z"/><path fill="#92353d" d="M83.5 109.9h.3c.4.4.8.8 1.2 1.1.9.7 1.9 1.4 2.9 2 1.7.9 3.6 1.7 5.6 1.8 1.1 0 2.2.2 3.4 0 1.2-.1 2.3-.6 3.4-1.1 1.3-.5 2.5-1.3 3.6-2.2.5-.4 1-.8 1.4-1.3.3.3.1.8 0 1.2-.4 1-1.3 1.8-2 2.6-.5.5-1 1-1.5 1.4-1.7.2-3.5.5-5.2.4-1 0-2 0-3-.1-1.5-.2-3.1-.1-4.5-.5l-1.5-.3c-.2 0-.3-.1-.5-.1-1.5-1.6-2.9-3.1-3.6-4.9z"/><path fill="#fcb694" d="M80.4 111.3c.1-.5.5-.9 1-.8.4 0 .7.4.9.7.2.6.3 1.3.4 1.9.1 1.8.2 3.7.7 5.5.8 2.4 1.6 4.8 2.9 7 1.2 2.3 2.2 4.7 3.4 7l1.8 3.3c.7 1.3 1.4 2.5 1.9 3.9.5 1.6.8 3.3 1.2 4.9.1.4.1 1 .4 1.3v.3c-.3-.5-.4-1.1-.6-1.6-.7-2.1-1.2-4.3-2.1-6.3-.7-1.6-1.6-3.1-2.4-4.6-.5-.8-1-1.5-1.4-2.4-.7-1.3-1.4-2.6-2-3.9-.8-1.7-1.8-3.3-2.4-5.1-.7-2-1.5-4.1-1.8-6.3-.3-1.6-.1-3.3-.6-4.9-.1-.3-.2-.5-.5-.6-.3.1-.5.5-.8.7z"/><path fill="#c88466" d="M115.9 116.3c.3-1.1.3-2.2.5-3.4.1.4.1.9 0 1.3.1-.2.1-.5.2-.7 0 .9-.2 1.8-.5 2.6 0 .1-.2.2-.2.2z"/><path fill="#cc8c72" d="m120.7 114.1.1.1c0 .2.1.5.1.7-.1.6-.3 1.2-.5 1.8h-.3c.3-.8.4-1.7.6-2.6z"/><path fill="#fff" d="m87.2 114.7.2.1 1.5.3c1.5.4 3 .4 4.5.5 1 .1 2 0 3 .1 1.7.1 3.5-.3 5.2-.4h.1c-.8.2-1.3.8-2.1 1.1-1.1.4-2.3.8-3.5.7-2.2.1-4.4-.3-6.5-1.1-.8-.3-1.6-.8-2.4-1.3z"/><path fill="#b85d39" d="M110.8 114.7c0 .3.1.5.2.8.5 2.5.3 5.1 0 7.7-.1.2-.2.4-.3.5 0-.6-.1-1.2-.1-1.8.1-1.5 0-3 .1-4.5.1-.8.1-1.8.1-2.7z"/><path fill="#cd8a72" d="M68.3 114.9c.2.4.2.9.3 1.4.2.9.3 1.9.5 2.8h-.2c-.3-1.1-.6-2.2-.7-3.3 0-.3.1-.6.1-.9z"/><path fill="#f39f82" d="M92.5 118c.3-.1.7 0 1 .1.9.2 1.9.3 2.8.1 0 .1 0 .2-.1.3-1 .4-2.1.3-3.1 0-.2-.1-.4-.3-.6-.5z"/><path fill="#b75c38" d="M116.3 118.5h.5c.1.8.1 1.6.2 2.4l.3 2.4h-.3c-.4-1-.5-2.1-.7-3.2-.1-.5-.1-1 0-1.6z"/><path fill="#b9623e" d="M68.9 120.4h.3c.4.9.3 1.9.5 2.9.1.6.4 1.2.7 1.7h-.3c-1.2-1.2-1.3-3.1-1.2-4.6z"/><path fill="#c67f63" d="M110.5 124.1c.1-.7.1-1.5.2-2.2 0 .6.1 1.2.1 1.8.1-.2.2-.4.3-.5 0 .6-.1 1.2-.4 1.7-.4-.2-.2-.5-.2-.8z"/><path fill="#ca856b" d="M95.1 146.3v-.3c.5.7.3 1.6.5 2.4-.2 0-.3.2-.4.3 0-.8-.1-1.6-.1-2.4z"/><path fill="#b8623f" d="M106.6 146.5c1.3-.4 2.6-.2 3.8.1.7.2 1.2.6 1.8.9v.2c-.5 0-.9-.4-1.4-.5-1.4-.5-2.8-.5-4.2-.4-.1-.1-.1-.2 0-.3z"/><path fill="#bc6745" d="M81.8 146.7c1.3-.2 2.8-.3 4.1.1v.4c-1.1-.4-2.2-.2-3.3-.1-.9.2-1.8.4-2.7.7-.2.1-.5.1-.7.1 0-.2 0-.4.2-.5.7-.4 1.6-.6 2.4-.7z"/><path fill="#ba6240" d="M95.2 148.7c.1-.2.2-.3.4-.3 0 1.1.2 2.2.2 3.3.1 1.5.1 3.1.2 4.6.1 1.8.1 3.5.1 5.3 0 2.1-.1 4.2-.2 6.3-.1 3.3-.3 6.6-.7 9.8-.1.2-.2.5-.3.7.1-.5.1-1 0-1.5.1-1.5.2-3.1.3-4.6.1-1.6.1-3.2.2-4.7 0-1.6.2-3.3.1-4.9 0-2.1 0-4.2-.1-6.3 0-2.6 0-5.2-.2-7.7z"/><path fill="#7e8679" d="M49 160c.3.1.5.5.8.8h-.3c-.2-.2-.5-.4-.7-.6l.2-.2z"/><path fill="#899186" d="M131.5 161.4c.2-.5.7-.7 1.1-1v.3c-.3.3-.6.9-1.1.7z"/><path fill="#677062" d="M51.3 162.3c0-.1.1-.3.2-.4.5.3 1 .6 1.1 1.2-.5-.2-.8-.6-1.3-.8z"/><path fill="#c3c5c1" d="M130.1 163.2c.5 0-.3.8-.5.4.1-.2.3-.3.5-.4z"/><path fill="#8d9388" d="M54.8 164.2c.5 0 .9.4 1.1.8h-.3c-.2-.2-.5-.4-.8-.5v-.3z"/><path fill="#6f776a" d="M127.3 165.7c.3-.2.7-.5 1.1-.6-.2.5-.7.7-1.1 1.1h-.3c.1-.2.1-.4.3-.5z"/><path fill="#7f877c" d="M58.4 166.4v-.4c.5.1 1.2.2 1.3.8-.4-.1-.8-.3-1.3-.4z"/><path fill="#737b6e" d="M123.3 168.1c.6-.3 1.2-.4 1.8-.6 0 .1 0 .2-.1.3-.6.3-1.1.6-1.8.7.2-.1.2-.2.1-.4z"/><path fill="#8d9388" d="M62 167.7c.5 0 1 .3 1.2.7-.4-.2-1-.2-1.2-.7z"/><path fill="#7d8379" d="M119.4 169.9c.5-.4 1.2-.4 1.8-.6 0 .1 0 .2-.1.3-.5.2-1 .4-1.5.5 0-.1-.1-.2-.2-.2z"/><path fill="#b1b5af" d="M65.9 169.5c.3-.1.7.1.7.4-.3 0-.8 0-.8-.4h.1z"/><path fill="#a7aba4" d="M68.6 170.4c.4.1.8.2 1.1.4-.4.2-.8.1-1.2 0 .1-.2.1-.3.1-.4z"/><path fill="#7a8577" d="M116.3 170.8c.4-.1.9-.1 1.3-.2-.2.5-.8.4-1.2.6-.1-.1-.1-.3-.1-.4z"/><path fill="#737b6c" d="M35.5 176.3c.7.6 1.5 1.2 2.2 1.8-.1.1-.2.3-.2.4-.7-.6-1.4-1.2-2-1.8v-.4z"/><path fill="#525d4d" d="M138.4 176.7h.3c-.4 1-1 1.9-1.5 2.9-1.4 2.6-2.9 5.1-4.3 7.7-1.2 2.3-2.3 4.7-3.3 7.2-1.1 2.7-2.2 5.4-3 8.2-.7 2.4-1.3 4.9-1.6 7.4l-.2.2c0 .1-.1.3-.1.4v-.6c0-1 .2-2 .4-2.9.6-3 1.3-5.9 2.3-8.8 1.8-4.9 3.9-9.7 6.5-14.3 1.4-2.5 2.7-5.1 4.5-7.4z"/><path fill="#ce8d75" d="M94.7 179.2c.1-.8 0-1.6.2-2.4.1.5.1 1 0 1.5.1-.2.2-.5.3-.7 0 .9-.2 1.8-.2 2.8 0 .5-.1.9-.2 1.3h-.3c.3-.8.1-1.6.2-2.5z"/><path fill="#545f4f" d="M37.5 178.4c.1-.1.2-.3.2-.4 1.8 1.3 3.5 2.8 5.2 4.2 2.2 1.8 4.3 3.8 6.3 5.8 1.7 1.8 3 3.9 4.3 6 0 0-.1.3-.1.4-1.4-2.2-2.9-4.4-4.8-6.2-1.5-1.5-3.1-2.9-4.7-4.4-2.1-1.8-4.2-3.6-6.4-5.4z"/><path fill="#667063" d="M32.5 179.8c1.6.8 3.2 1.6 4.7 2.6-.1.1-.3.2-.4.3-.8-.5-1.6-1.1-2.4-1.5-.6-.3-1.3-.7-1.8-1.1-.1-.1-.1-.3-.1-.3z"/><path fill="#5c6757" d="M46.8 182.3c.5.9 1.4 1.5 2.1 2.2 1.8 1.6 3.3 3.4 4.7 5.3 1.4 2 2.8 4 3.9 6.2 1.1 2 2 4.2 2.9 6.3.5 1.1.9 2.3 1.2 3.5.3 1 .6 2 .6 3h-.3c-.1-1-.4-1.9-.7-2.9-1.5-4.6-3.5-9.1-6.1-13.1-1.5-2.3-3-4.6-4.9-6.5-.9-1-1.9-1.9-2.8-2.8-.3-.4-.7-.7-.6-1.2z"/><path fill="#525d4d" d="M36.7 182.7c.1-.1.3-.2.4-.3 2 1.3 4.1 2.6 6 4.1 1.9 1.6 3.9 3 5.6 4.8 1.6 1.7 3.1 3.4 4.5 5.3 2.6 3.7 4.8 7.7 6.4 11.9.2.5.4 1.1.5 1.6h.1c0 .2.1.4.2.6h-.2c-.1-.5-.3-1-.5-1.5-1.7-4.4-4.1-8.4-6.8-12.2-1.3-1.8-2.9-3.4-4.4-5.1-.9-.9-1.8-1.8-2.7-2.5-2-1.6-3.9-3.3-6-4.7-1.1-.7-2.1-1.3-3.1-2z"/><path fill="#535f4e" d="M140.1 183.4h.3c-1.6 1.7-2.8 3.8-4.1 5.7-2.6 4-4.7 8.3-6.5 12.7-1.4 3.6-2.7 7.2-3.5 10.9l-.1.1c-.1.1-.1.2-.2.3v-.4c.1-1.3.5-2.6.8-3.8 1.5-5.3 3.5-10.5 6.1-15.3 1.5-2.8 3.2-5.5 5.1-8 .6-.8 1.2-1.6 2.1-2.2z"/><path fill="#798176" d="M53.5 194.1c.3.3.4.6.7.9.9 1.5 1.8 2.9 2.6 4.5.1.3.4.6.4.9-.2 0-.3-.2-.4-.4-1.1-1.9-2.2-3.7-3.4-5.5 0-.1.1-.3.1-.4z"/><path fill="#505b4b" d="M136.1 195.5c.4-.5.8-1 1.4-1.1v.3c-.8.6-1.2 1.4-1.8 2.2-2.7 4.2-4.6 8.8-6.4 13.5-1 2.8-2 5.6-2.7 8.4 0-.2-.1-.5-.1-.7.1-.9.4-1.7.6-2.6.7-2.8 1.6-5.5 2.7-8.1 1.8-4.1 3.6-8.3 6.3-11.9z"/><path fill="#7c8477" d="m124.5 210 .1.1v.6c0-.1.1-.3.1-.4 0-.1.1-.2.2-.2-.1 1.1-.3 2.3-.5 3.4h-.3c.2-1.2.2-2.3.4-3.5z"/><path fill="#515b4c" d="M39.2 210.4c2.2-.3 4.4-.2 6.6.3 2 .5 4 1.1 5.9 1.8.8.3 1.6.6 2.3 1 .2.2.6.3.6.6h-.3c-.9-.7-2.1-1-3.2-1.3-3-.9-6.1-1.8-9.2-1.8-1.7 0-3.3 0-4.9.5v-.3c.5-.5 1.4-.6 2.2-.8z"/><path fill="#7e8679" d="m126 212.7.1.1v.4c.1-.1.1-.2.2-.3 0 .5-.1.9-.3 1.4h-.3c0-.6.1-1.1.3-1.6z"/><path fill="#7b8374" d="M126.3 219.5c.1-.5.1-1 .4-1.4 0 .2.1.5.1.7-.1.6-.2 1.4-.7 1.8-.1-.3.1-.7.2-1.1z"/><path fill="#535e4e" d="M125 219.8c.5 0 .6.6.8 1 .8 2.5 1.9 4.9 2.8 7.3.3.9.7 1.7 1.1 2.5h.3c.7 1.1 1.8 1.9 2.6 2.9 1.9 2.3 3.4 4.9 4.3 7.8.1.2.2.4.1.7 0 .2-.1.4-.1.6-.7-2.2-1.7-4.2-3-6.1-.8-1.2-1.7-2.5-2.7-3.6-.4-.5-.8-.9-1.2-1.4.2.7.6 1.4.8 2.1 1.2 2.9 2.3 5.9 2.6 9.1h-.3c-.5-2.8-1.5-5.4-2.5-8-.9-2.3-2-4.5-2.9-6.7-.8-2.3-1.8-4.5-2.5-6.9.1-.4-.2-.8-.2-1.3z"/><path fill="#566151" d="M60 220.8h.3c-.5 2.4-1.4 4.6-2.3 6.8-1 2.6-1.8 5.2-2.6 7.9-.9 3.2-1.7 6.5-2.3 9.8 0 .2 0 .4-.1.6l-.2.2c0 .2-.1.4-.1.6v-.7c0-.4 0-.8.1-1.2.5-3.9 1.4-7.7 2.5-11.4h-.1c-1.1 2.2-2.5 4.2-3.5 6.4-1.9 4-2.7 8.4-3.5 12.7-.1.2-.1.4-.2.7v-.9c-.1-.6.1-1.3.2-1.9.5-2.9 1-5.8 2-8.5 1.1-3.3 3.1-6.1 4.8-9.1.3-.6.8-1.2 1-1.8 1.3-3.6 3-6.8 4-10.2z"/><path fill="#6e766b" d="M119.5 222.9c.4 0 1 0 1.3.4h-1.3v-.4z"/><path fill="#838b80" d="M112.8 223.2c.4 0 .8 0 1.2-.1v.3c-.4.1-.8.2-1.2.2v-.4z"/><path fill="#8d9389" d="M117 223h1c-.2.4-.7.3-1 .3v-.3z"/><path fill="#767d70" d="M69.8 223.5c.4-.1.9 0 1.3 0v.3c-.4 0-.9.1-1.3.1v-.4z"/><path fill="#6f7769" d="M73.3 223.6c.5-.2 1 0 1.4.2v.2c-.5 0-1 0-1.4-.1v-.3z"/><path fill="#717c6e" d="M109.2 223.6c.4-.1.7 0 1.1 0-.3.4-.7.3-1.1.2v-.2z"/><path fill="#868c84" d="M62.9 223.8c.5-.2 1.1-.2 1.6-.1-.5.2-1 .3-1.5.3-.1 0-.1-.1-.1-.2z"/><path fill="#687061" d="M65.9 223.9c.2-.5.9-.3 1.3-.3v.3c-.4.1-.9.3-1.3 0z"/><path fill="#687163" d="M59.8 223.9c.4-.2.9-.2 1.3-.3v.3c-.4.1-.9.3-1.3.4v-.4z"/><path fill="#737c6f" d="M94.8 224.1c.1-.1.3-.1.5-.1-.5.8-1.4 1.2-1.8 2v.5c-.1-.3-.1-.7-.1-1 .4-.5.8-1.1 1.4-1.4z"/><path fill="#777f74" d="M76.9 224.1c.5-.1 1 .1 1.4.2v.3c-.5 0-1 0-1.4-.2v-.3z"/><path fill="#868c80" d="M124 224.2c.5 0 .9.2 1.2.5-.4.1-.8-.1-1.2-.3v-.2z"/><path fill="#676f60" d="M104.4 225.2c-.1-.8.9-.7 1.5-.7v.3c-.5 0-1 .3-1.5.4z"/><path fill="#7d8377" d="M91.8 225.1v-.4c.5.1.9.4 1.4.5l-.2.2c0 1 .1 1.9 0 2.9-.1-.9 0-1.8-.1-2.7-.2-.3-.8-.3-1.1-.5z"/><path fill="#737b6e" d="M80.3 225.2c-.1-.2-.1-.3.1-.3.4 0 .9.2 1.2.5-.5 0-.9 0-1.3-.2z"/><path fill="#515b4c" d="m93 225.4.2-.2c0 .1.1.2.2.3 0 .3.1.7.1 1 .2 1.1.1 2.3.2 3.5 0 1.8.1 3.7.1 5.5 0 1.7.2 3.4.1 5.1 0 3.4.1 6.9-.2 10.3-.1 1.9-.1 3.8-.1 5.6 0 1.1 0 2.2-.1 3.2-.1.6-.1 1.1-.1 1.7 0 .1-.1.3-.1.4 0-.3 0-.7-.1-1-.3-1.9-.2-3.9-.2-5.8 0-1.4-.1-2.7.1-4.1.1-1.9.2-3.7.2-5.6.1-.7.1-1.4.1-2.1v-5.6c-.1-3.1-.1-6.2-.2-9.3-.1-1-.2-1.9-.2-2.9z"/><path fill="#737b70" d="M101.3 226c.4-.4 1-.5 1.5-.6l-.1.3-1.2.6c0-.2-.1-.3-.2-.3z"/><path fill="#535e4e" d="M82.9 226c.4 0 .9.2 1.2.4.8 0 1.4.6 2 1.1v-.3c.5-.1.8.3 1.2.4 0 .1-.1.2-.1.3 0 0-.1-.1-.1-.2-.3 0-.5-.1-.7-.3-.1.1-.2.1-.2.2.9.5 1.6 1.2 2.3 1.9 1.2 1.3 2.3 2.7 3.2 4.2.2.4.5.8.5 1.3-.1 0-.2-.1-.2-.1-1.6-3.3-4.4-5.7-7.3-7.9-.2-.2-.5-.3-.5-.6H84v-.1c-.4 0-.7-.1-1-.2-.1.1-.1 0-.1-.1z"/><path fill="#556051" d="M133.7 226c.5.2.9.6 1.4.9 1.8 1.2 3.2 2.8 4.5 4.5 1.5 1.9 2.8 3.9 3.5 6.1h-.3c-1.2-3-3.2-5.6-5.4-7.9-.9-1-2-1.8-3-2.6-.3-.4-.7-.6-.7-1z"/><path fill="#535f4e" d="M129.4 226.5c2 1.4 4 2.7 5.7 4.4 1.4 1.4 2.6 3 3.7 4.7.8 1.3 1.6 2.5 2.3 3.9.1.3.3.5.3.8v.1c-.1 0-.2-.1-.2-.1-1.1-2.2-2.4-4.2-3.9-6.1-1.4-1.8-3-3.4-4.8-4.8-1-.8-2.1-1.6-3-2.5-.1-.2-.1-.4-.1-.4z"/><path fill="#8d9388" d="M97.7 227.5c.3-.4.8-.7 1.3-.8-.3.3-.6.6-1 .9 0 0-.2-.1-.3-.1z"/><path fill="#7c8379" d="M94.8 228.9c.3-.3.7-.4 1.1-.6v.3c-.4.3-.7.6-1.2.8 0-.1-.1-.4.1-.5z"/><path fill="#626d5e" d="M88.9 228.4c.5-.1 1.2.3 1.1.9-.3-.2-.6-.3-1-.5-.1 0-.1-.2-.1-.4z"/><path fill="#616c5c" d="M91 229.7c.5-.1 1 .2 1.3.6v.4c-.4-.2-.8-.4-1.3-.6v-.4z"/><path fill="#525d4d" d="M52.2 230.6h.5c-.1.3-.3.4-.5.6-2 1.4-3.9 3-5.6 4.8-2.6 2.7-5.1 5.6-6.8 9-.1 0-.2.1-.2.1.1-.9.6-1.7 1-2.5 1.3-2.2 3-4.1 4.7-6 2-2.3 4.3-4.3 6.9-6z"/><path fill="#556050" d="M85.7 232.2c.6 0 1 .4 1.4.7 1.4 1.2 2.6 2.7 3.5 4.3.6 1.1 1.1 2.3 1.6 3.4.1.2.2.4.1.6 0 .1-.1.3-.1.4-.9-2.2-2-4.3-3.5-6.1-.9-1.1-1.8-2.2-3-3.1v-.2z"/><path fill="#505b4b" d="M53 235c.3-.2.5-.6 1-.6 0 .4-.3.6-.6.8-1.6 1.4-3.1 3-4.5 4.6-1.6 1.9-3.1 3.9-4.3 6.1-1.1 2-2.1 4.1-2.6 6.3 0 .1-.1.2-.1.4h-.3c-.3-.3-.2-.7-.1-1.1.2-1.2.6-2.3 1.1-3.5 1.7-4 4.5-7.5 7.5-10.6 1-.7 1.9-1.6 2.9-2.4z"/><path fill="#858b81" d="m141.4 240.2.1-.1c.3.7.6 1.3.8 2 .1.2 0 .4 0 .6-.4-.8-.7-1.7-1.1-2.5.1 0 .2.1.2.1-.1 0 0-.1 0-.1z"/><path fill="#848a80" d="m92.3 241.2.1-.1c.3.7.5 1.5.8 2.2 0 .7 0 1.4-.1 2.1.1-1.3-.5-2.6-1-3.8.1-.1.2-.3.2-.4z"/><path fill="#8a9086" d="M137 242c.2.2.2.4.3.7.5 1.9 1 3.8 1.3 5.7 0 .3.2.6.1 1-.2-.5-.3-1-.4-1.5-.4-1.8-.9-3.5-1.4-5.2 0-.3.1-.5.1-.7z"/><path fill="#8d9388" d="M133.5 242.7c.5 2.9 1 5.8 1.2 8.7.1.4.1.9.2 1.3h-.1c-.3-1.2-.3-2.4-.5-3.6-.3-2.2-.6-4.3-1-6.4h.2z"/><path fill="#899186" d="m52.7 245.8.1.1v.7c0-.2 0-.4.1-.6 0 0 .1-.1.1-.2-.1 1.1-.3 2.2-.4 3.4-.2 1.4-.4 2.9-.6 4.3-.1.4-.1.9-.4 1.2 0-.5.2-1 .3-1.6.2-2.4.5-4.8.8-7.3z"/><path fill="#7c8679" d="m48.1 252 .1.1v.9c.1-.2.1-.4.2-.7 0 .6-.1 1.3-.2 1.9-.1.8-.1 1.6-.1 2.4-.1 0-.2.1-.3.1-.1-1.5.1-3.1.3-4.7z"/><path fill="#878f84" d="M84.9 253.6h.3c0 .3.1.7.1 1-.1-.1-.1-.2-.2-.3 0 .2-.1.4-.1.7-.1-.4-.1-.9-.1-1.4z"/><path fill="#545f4f" d="M85.1 254.4c.1.1.1.2.2.3.6 3.2.9 6.5.6 9.7-.2 2.3-.7 4.6-1.2 6.9l-.1.1c-.1.2-.2.3-.2.5v-.7c0-.5.1-1.1.2-1.6.2-1.4.4-2.8.6-4.3.4-3.4.2-6.9-.2-10.3 0 .1.1-.4.1-.6z"/><path fill="#535e4e" d="M80.4 254.9c.1 0 .2.1.2.1.1 1.3.5 2.7.6 4 .6 4.6.3 9.3-.2 13.9 0 .3 0 .6-.1 1-.1.3-.2.5-.2.8.1-.6.1-1.2 0-1.9.2-4.6.5-9.2-.1-13.7-.2-1.2-.3-2.4-.4-3.7.1-.2.1-.4.2-.5z"/><path fill="#979d95" d="M100.5 257.6h.3c-.1.5-.1.9-.2 1.4v-.8c-.1 0-.3.1-.3.1 0-.2.1-.5.2-.7z"/><path fill="#525d4e" d="M100.3 258.3c.1 0 .3-.1.3-.1v.8c-.3 3-.7 6.1-.6 9.1.1 2 .3 4 .7 6 .1.8.4 1.5.4 2.3v.4c-.1-.3-.2-.6-.3-.8-.6-2.3-.9-4.6-1.2-7-.5-3.6 0-7.2.7-10.7z"/><path fill="#586253" d="M89.2 258.5h.3c.4 3-.4 5.9-1.2 8.7-.5 1.5-.8 3.2-1.6 4.6 0 0-.1.1-.2.1v-.3c.5-.8.6-1.7.9-2.6.9-3.4 1.7-6.9 1.8-10.5z"/><path fill="#90978f" d="M93.1 260.9c.1.3.1.6.1 1 0-.2.1-.3.1-.4.1.5.1 1 0 1.5-.1 0-.2-.1-.2-.2 0-.6-.2-1.3 0-1.9z"/><path fill="#6e766b" d="M102.8 266.5h.3c.1.5.1 1 .1 1.5-.1-.2-.1-.4-.2-.7-.1.1-.2.3-.2.4-.1-.4 0-.8 0-1.2z"/><path fill="#535d4e" d="M102.7 267.7c.1-.1.1-.3.2-.4.1.2.1.4.2.7.2 3.2.1 6.4.3 9.6 0 1 .1 2 .2 3 0 .5-.1 1-.2 1.5-.5-2.9-.7-5.8-.9-8.7.1-1.8.1-3.8.2-5.7z"/><path fill="#7c8379" d="m84.3 271.1.1.1v.7c.1-.2.1-.3.2-.5 0 .8-.3 1.5-.5 2.2-.1.3-.2.8-.5.9.3-1.1.5-2.2.7-3.4z"/><path fill="#7e8679" d="M80.4 275.7c.1-1 .1-1.9.3-2.9.1.6.1 1.2 0 1.9.1-.3.1-.6.2-.8.1.7-.1 1.4-.2 2-.1.8-.1 1.6-.5 2.3h-.3c.4-.8.4-1.7.5-2.5z"/><path fill="#7c8479" d="M100.7 276c.1.3.3.5.3.8v-.6c.2 1 .6 1.9.9 2.8-.3.1-.4-.3-.5-.5-.3-.8-.6-1.7-.7-2.5z"/><path fill="#767e71" d="M103.7 280.6c.1.8.3 1.6.3 2.4h-.3c-.1-.3-.2-.6-.2-.9 0-.5.1-1 .2-1.5z"/></g></svg>