<svg xml:space="preserve" xmlns:xlink="http://www.w3.org/1999/xlink" enable-background="new 0 0 180 180" viewBox="0 0 180 180" xmlns="http://www.w3.org/2000/svg"><defs><path id="a" d="M0 0h180v180H0z"/></defs><use xlink:href="#a" fill="#30c689" overflow="visible"/><clipPath id="b"><use xlink:href="#a" overflow="visible"/></clipPath><g clip-path="url(#b)"><path fill="#fff0cf" d="M82.7 21.4c2.5-.4 5-.5 7.5-.3 3.4.1 6.8.4 10 1.2 2.3.4 4.6 1 6.6 2.1.8.4 1.5 1.2 2.1 1.8 1 1.1 2.2 2.1 3 3.3 1 .1 2.1.2 3 .5.8.2 1.6.6 2.3.8.9.3 1.7.8 2.5 1.2s1.4.9 2.1 1.4c1.1.8 2.1 1.7 2.9 2.7.9 1 1.7 2 2.4 3.1.4.8 1 1.6 1.4 2.4.7 1.4 1.2 2.9 1.7 4.5.9 2.3 1.3 4.7 1.9 7.1.3 1.2.7 2.3.8 3.5.4 1.7.7 3.3 1.1 5 .3 1.3.4 2.6.7 4 .4 2.8.4 5.7.4 8.5-.3 2.9-.7 5.8-1.1 8.7-.2 1.4-.5 2.7-.8 4.1-.7 2.7-1.4 5.3-2.3 7.9-1.7 4.9-3.4 9.8-5 14.7-.7 2.5-1.5 4.9-2.3 7.4-.3 1.3-.8 2.5-1.2 3.7-.7 2.4-1.5 4.7-2.1 7.1-.3 1.3-.7 2.7-.8 4-.2 1.7-.4 3.5-.5 5.2v4.8c0 .8-.1 1.7.2 2.6.5 1.7 1.1 3.4 1.7 5 .4 1.4.9 2.8 1.5 4.2.2.6.4 1.2.6 1.9-.1-.1-.3-.2-.4-.3-.1 0-.3 0-.4.1-.3-.7-.6-1.4-.8-2.1-1-.5-2.1-.8-3.1-1.3-1-.4-2.2-.6-3.3-.9-2.8-.8-5.7-1.2-8.6-1.6-6.1-.8-12.2-1.5-18.2-2.5-5.3-.9-10.6-1.9-15.9-3.2-2.5-.6-4.9-1.4-7.3-2.2 0 .8-.7 1.4-1.2 1.9-2 1.7-4 3.4-6.1 5-.6.4-1.1.8-1.8 1-.5 0-.8-.3-1-.7-.1 0-.2-.1-.4-.1-.4.4-1.1.4-1.5-.1.8-.1 1.7-.4 2.5-.7.2.2.4.5.7.6.7.2 1.4-.3 2-.7 1.2-.9 2.1-2 3.1-3 .3-.3.8-.2.9-.6.3-.6.6-1.2 1-1.8 1-1.3 1.8-2.7 2.7-4.1 1-2.1 1.8-4.2 2.5-6.4.1-.4.4-.6.6-.9.2-.6.2-1.2.5-1.8.4-.8.4-1.7.5-2.5.4-2.5 1.1-5 1.2-7.6.1-.9.4-1.8.5-2.7.1-.4 0-.9 0-1.3.1-1 .3-2 .4-2.9 0-.3-.2-.4-.3-.7h-.6c.2-1.6 0-3.2 0-4.8 0-2.4-.1-4.7-.2-7.1h-.2c-.1.5-.1 1-.1 1.5-.1 1.4-.1 2.9-.1 4.3-.1 2.4 0 4.7-.3 7.1-.2 1.9-.6 3.8-1 5.7-.4 1.8-.9 3.7-1.6 5.4-.7 2.1-1.6 4.1-2.4 6.2-1 2.3-2.1 4.6-3.5 6.6-1.2 1.7-2.6 3.4-4.1 4.8-.8.6-1.6 1.2-2.4 1.7-1 .5-2.1 1-3.2 1.5-1.5.6-3.2.7-4.8.8-.7 0-1.3-.2-1.9-.4-1.1-.4-2-1.1-2.8-1.9-.8-1.5-1.1-3.2-1-4.9.2-.6.3-1.2.6-1.8.9-1.9 2.3-3.5 3.4-5.3.7-1 1.2-2.1 1.8-3.2.6-1 .9-2.1 1.4-3.2.4-1.1.8-2.1 1.1-3.2.2-1.1.4-2.1.5-3.3.1-2.6 0-5.2-.4-7.7-.2-1.8-.5-3.6-.9-5.4-.6-3.6-1.2-7.2-1.7-10.9-.6-3.4-1-6.8-1.2-10.3 0-1.9-.2-3.8-.1-5.8.1-2.5 0-5 .3-7.6.2-1.3.2-2.6.4-3.9.2-3 .8-5.9 1.5-8.8.4-2.2 1.1-4.4 1.8-6.5.3-1.1.8-2.1 1.1-3.2.5-1.4 1.1-2.8 1.7-4.2.8-1.9 1.7-3.9 2.9-5.6.8-1.4 1.8-2.7 2.9-3.8 1-1.2 2.1-2.4 3.4-3.3 1.3-1.2 2.9-2.1 4.4-3.2 1.4-.9 2.9-1.8 4.4-2.5 1.2-.6 2.5-1.2 3.7-1.7 1.2-.4 2.4-.9 3.6-1.2 1.6-.3 3-.7 4.5-.9z"/><path fill="#ba9f80" d="M75.4 42.3c.7-.2 1.4-.4 2.1-.3-1 .7-2.2.9-3.3 1.4.3.6.2 1.3.2 2 0 1.7-.1 3.3-.1 4.9-.3 7.6-2.2 15.1-3.1 22.7-.3 1.9-.6 3.7-.9 5.6-.4 1.8-.9 3.7-1.8 5.4-.7 1.3-1.8 2.4-3.3 2.8-1.6.4-3.2-.2-4.6-.9-1.1-.6-2.2-1-3.1-1.8-1-.8-1.9-1.7-2.7-2.7-1-1.3-2.1-2.6-2.7-4.2-.8-1.7-1.3-3.6-1.6-5.4-.2-2.5.1-5.1.7-7.6s1.7-5 3.2-7.2c2-2.8 4.2-5.3 6.9-7.3 1.8-1.5 3.8-2.8 5.8-4 2.6-1.6 5.4-2.7 8.3-3.4zm42.7 29c.4.2.5.6.7.9.7 1.1 1.2 2.4 1.7 3.6.3 1.1.7 2.1 1 3.2.4 1.1.6 2.3 1 3.4.3.8.4 1.7.7 2.6.3.7.4 1.4.5 2.1.1-.2.3-.4.4-.6h.5c.2-.4.4-.8.8-1.1.6-.7 1.1-1.5 1.7-2.2.3-.4.5-.8.8-1.2.8-1 1.2-2.3 1.9-3.4.1-.3.6-.4.8-.1.2.1.1.4.1.5-.1.5-.4 1-.5 1.6-.4 2.2-1.2 4.3-2.1 6.3-1.2 2.6-2.5 5.2-4.3 7.4-.2.3-.5.5-.6.9-.3 3.2-.5 6.4-.9 9.6-.3 1.7-.4 3.4-.8 5.1-.4 2.3-.8 4.7-1.4 7-.9 4.1-1.8 8.3-2.8 12.4-.4 1.4-.5 2.9-.7 4.4-.2 1.7-.4 3.3-.5 5 0 1.3.1 2.6 0 3.9 0 1.6.4 3.2.3 4.8-.1.5-.8.5-1 .2-.3-.5-.5-1-.7-1.6-.8-2.4-1.3-4.9-1.4-7.4-.1-1.2 0-2.5 0-3.7.2-3 .4-6.1.8-9.1.4-2.9.9-5.7 1.5-8.6.4-2.4 1-4.7 1.5-7.1.6-3.1 1.1-6.2 1.5-9.4v-.8c-.8 1.2-1.7 2.4-2.4 3.7-.2.4-.5.8-.8 1.3-1.5 3.7-2.5 7.7-3.5 11.6-.6 2.6-1.1 5.3-1.3 7.9-.4 3.4-.8 6.8-.9 10.2-.1 1.5 0 3.1-.1 4.6 0 .4 0 .8-.3 1-.3.4-.8.2-1.1-.1-.4-.5-.5-1.1-.8-1.7-.8-2.7-2.2-5.1-3.2-7.8-.8-2.4-1.8-4.7-2.5-7.2s-1-5-1-7.6c0-5.4.9-10.8 3.1-15.7.9-2 1.9-3.9 3.1-5.8 1.3-2 2.9-4 4.5-5.8 1.4-1.5 2.9-2.8 4.6-3.9.9-.6 1.9-1.2 3-1.5.8-.2 1.6-.2 2.4 0-.3-1.3-.5-2.7-.8-4.1-.3-1.3-.7-2.5-1-3.8s-.9-2.5-1.3-3.7c-.2-.1-.2-.2-.2-.2zM71.2 99.9h.2c0 2.4.1 4.7.2 7.1 0 1.6.1 3.2 0 4.8h.6c.1.2.4.4.3.7-.1 1-.3 2-.4 2.9 0 .4.1.9 0 1.3-.2.9-.4 1.8-.5 2.7-.1 2.6-.8 5.1-1.2 7.6-.2.8-.1 1.7-.5 2.5-.3.6-.3 1.2-.5 1.8-.2.3-.5.5-.6.9-.7 2.2-1.5 4.3-2.5 6.4-.9 1.4-1.7 2.8-2.7 4.1-.4.5-.7 1.2-1 1.8-.2.4-.6.3-.9.6-1 1.1-1.9 2.1-3.1 3-.6.4-1.2.9-2 .7-.3 0-.5-.4-.7-.6-.8.4-1.6.6-2.5.7H51c-1.3-.4-2.4-1.2-3.5-2-1-.6-2.1-1.1-2.9-1.8-.8-.7-1.5-1.6-2.3-2.3.3.1.5.3.8.4 0-.1-.1-.2-.2-.3.8.8 1.7 1.5 2.8 1.9.6.3 1.2.4 1.9.4 1.6-.1 3.3-.1 4.8-.8 1.1-.4 2.1-.9 3.2-1.5.8-.5 1.7-1 2.4-1.7 1.6-1.4 3-3 4.1-4.8 1.4-2.1 2.5-4.3 3.5-6.6.8-2.1 1.7-4.1 2.4-6.2.7-1.7 1.2-3.6 1.6-5.4.4-1.9.8-3.7 1-5.7.3-2.4.2-4.7.3-7.1 0-1.4 0-2.9.1-4.3.1-.2.1-.8.2-1.2z"/><path fill="#38312d" d="M149.6 215.4s0-.1 0 0c.4-1.4.6-2.9.9-4.2.3-1.6.4-3.3.4-4.9.1-2.5-.3-5.1-.6-7.6-.2-1.7-.4-3.4-.5-5.1-.1-1.6-.4-3.1-.5-4.7-.1-1.8-.3-3.6-.5-5.4-.2-1.5-.3-3-.6-4.4-.5-2.5-1.3-5-2.4-7.4-.9-2-2.1-3.9-3.5-5.5-1.2-1.2-2.5-2.3-3.9-3.3-1-.7-1.9-1.3-2.9-2-2.2-1.5-4.6-2.8-6.9-4.2-1-.5-2-.9-3-1.3s-2.1-.9-3-1.4c.2.6.4 1.2.6 1.9-.1-.1-.3-.2-.4-.3-.1 0-.3 0-.4.1-.3-.7-.6-1.4-.8-2.1-1-.5-2.1-.8-3.1-1.3-1-.4-2.2-.6-3.3-.9-2.8-.8-5.7-1.2-8.6-1.6-6.1-.8-12.2-1.5-18.2-2.5-5.3-.9-10.6-1.9-15.9-3.2-2.5-.6-4.9-1.4-7.3-2.2 0 .8-.7 1.4-1.2 1.9-2 1.7-4 3.4-6.1 5-.6.4-1.1.8-1.8 1-.5 0-.8-.3-1-.7-.1 0-.2-.1-.4-.1-.4.4-1.1.4-1.5-.1h-.7c-.2.1-.4.3-.6.3-.4 0-.7-.2-1-.3-1.3-.4-2.4-1.2-3.5-2-1-.6-2.1-1.1-2.9-1.8-.8-.7-1.5-1.6-2.3-2.3.3.1.5.3.8.4 0-.1-.1-.2-.2-.3-.8-1.5-1.1-3.2-1-4.9.2-.6.3-1.2.6-1.8-1.2-.1-2.3 0-3.5.1-2.2.3-4.4 1-6.6 1.3-2.1.3-4.1.7-6.1 1.5-1.3.5-2.5 1.4-3.5 2.4-1.3 1.5-2.6 3.2-3.7 4.8-1.6 2.3-2.9 4.7-4.2 7.2-.6 1.1-1.1 2.2-1.6 3.3-1 2.4-2.1 4.8-3 7.3-1 2.5-1.8 5-2.8 7.5-.8 1.9-1.5 3.9-2.5 5.7-.8 1.4-1.3 2.9-2.1 4.4-.5 1-.9 2.1-1.5 3.2-.9 2-1.6 4.1-2.5 6.1-1.1 2.8-1.5 5.8-2.1 8.8-.4 2.3-.9 4.6-1.2 6.8-.4 2.9-1.1 5.8-1.3 8.8h155.4z"/><path fill="#fff0cf" d="M51 148.9h1.7c-.2.1-.4.3-.6.3-.4.1-.7-.1-1.1-.3z"/></g><g clip-path="url(#b)"><path fill="#f2844f" d="M105.3 38.3c.2 0 .4 0 .6.1.5.3.8.8 1.2 1.3.6.8 1.3 1.6 1.9 2.4.5.7.8 1.5 1.2 2.3.7 1.2 1.3 2.4 1.9 3.6.7 1.7 1.5 3.3 2.2 4.9.7 1.4 1.2 2.9 1.8 4.3.9 2.6 1.8 5.3 2.3 8 .1.7.3 1.4.4 2.1.1.5.1 1.1.4 1.7-.3.6-.4 1.3-.4 2-.1 1.3-.4 2.6-.5 4l-.6 4.5c-.3 2.2-.7 4.5-1.2 6.6-.4 1.9-.7 3.8-1.1 5.7-.1.6-.2 1.2-.3 1.9-.3.9-.7 1.7-1 2.6-1.7 3.8-3.3 7.5-5.4 11.1-.1.2-.2.4-.4.5-1 .5-1.8 1.3-2.7 2.1-.6.5-1.2 1-1.9 1.6-.8.7-1.7 1.3-2.6 1.8-1.1.5-2.1 1-3.2 1.6-1.2.7-2.5 1.2-3.8 1.4-1.5.2-3.1.4-4.6.1-1.1-.1-2.2-.5-3.3-.9-1.1-.4-2.1-1.1-3-1.7-1.1-.8-2.1-1.5-3.1-2.4-1-.8-1.8-1.7-2.5-2.7-1.1-1.3-2.2-2.7-3.1-4.1-.5-.8-1.2-1.7-1.7-2.5-.6-.9-1.1-1.9-1.7-2.8-.4-.6-1-1.2-1.4-1.8-.2-.4-.5-.7-.8-1-.3-.7-.4-1.5-.8-2.1-.5-1.6-1.4-2.9-2.3-4.3 0-.1-.1-.2-.1-.3 0-.6-.2-1.2-.4-1.8.1-.4.3-.8.3-1.2 0-1.6-.3-3.1-.3-4.6-.1-2.8.4-5.6 1.1-8.3.5-1.9.9-3.7 1.7-5.5.6-1.3 1.2-2.7 2-3.9 1.7-2.7 3.7-5.1 6.1-7.3 1.8-1.6 3.8-3 6-4.2 2-1.1 4-2 6-3 1.7-.9 3.6-1.7 5.3-2.7 1.8-1.1 3.8-1.9 5.6-3 1.9-1.1 3.7-2.5 5.2-4 .6-.7 1.2-1.2 1.6-2-.4 0-.5-.1-.6-.1z"/><path fill="#e56324" d="M104.3 38.9c.4-.2.7-.4 1.1-.6 0 0 .1.1.2.1-.4.8-1 1.4-1.6 2-1.5 1.6-3.3 2.9-5.2 4-1.8 1.1-3.8 1.9-5.6 3-1.7.9-3.5 1.8-5.3 2.7-2 1-4 1.9-6 3-2.1 1.2-4.1 2.6-6 4.2-2.3 2.1-4.3 4.6-6.1 7.3-.8 1.2-1.3 2.6-2 3.9-.8 1.7-1.2 3.6-1.7 5.5-.7 2.7-1.2 5.5-1.1 8.3 0 1.6.2 3.1.3 4.6 0 .4-.1.8-.3 1.2-.4-.2-.9-.2-.9-.7 0-.6.2-1.2.2-1.8-.1-1.7-.2-3.4-.4-5.1 0-1.5-.2-3-.3-4.6-.1-1.3-.4-2.7-.8-4-.1-.4-.2-1-.4-1.4-.2-.3-.6 0-.9 0v-.4c.2-.1.4-.2.6-.4 0-.5 0-1.1-.1-1.7-.1-1.7-.2-3.5 0-5.3.2-2.2.5-4.5 1.3-6.6.6-1.7 1.3-3.3 2.2-4.9 1.4-2.3 3.2-4.4 5.3-6.1 1.3-1.2 2.9-2.2 4.6-2.9s3.5-1.2 5.3-1.4c1.4-.1 2.9-.3 4.3-.3 2.9 0 5.8.6 8.7.8 1.7.1 3.4.1 5.1-.3 1.9-.5 3.7-1.2 5.5-2.1z"/><path fill="#f95939" d="M124.4 64.9c1.1-.2 2.3-.2 3.3.3.8.4 1.7.9 2.3 1.6.6.8 1.3 1.6 1.6 2.5.6 1.7 1 3.5.7 5.3-.2 1.2-.4 2.5-.9 3.7-.8 2-1.9 3.8-3 5.6-1.2 1.8-2.7 3.5-4.1 5.1-2.3 2.4-5.3 4-8.5 4.7h-.9c.1-.6.2-1.2.3-1.9.4-1.9.6-3.8 1.1-5.7.5-2.2.9-4.4 1.2-6.6l.6-4.5c.1-1.3.4-2.6.5-4 0-.7.2-1.3.4-2 .7-1 1.5-1.9 2.4-2.6.9-.8 2-1.3 3-1.5zm-65.6 5.9c.2-.4.5-.6.9-.8.6-.1 1.2.1 1.9.1v.4c.3 0 .7-.3.9 0 .3.4.3.9.4 1.4.4 1.3.7 2.6.8 4 0 1.5.3 3 .3 4.6.1 1.7.3 3.4.4 5.1 0 .6-.2 1.2-.2 1.8 0 .5.6.5.9.7.2.6.4 1.2.4 1.8-.4-.4-.6-.8-1-1.2-.5-.6-1.1-1-1.6-1.6-.6-.6-1.2-1.2-2-1.6-.5-.4-1.2-.6-1.6-1.2-.3-.3-.1-.8-.2-1.1-.2-1.2-.4-2.4-.4-3.7-.2-2.3-.2-4.6-.1-6.9.1-.6 0-1.3.2-1.8z"/><path fill="#e56324" d="M68.7 96.5c.3.3.6.7.8 1 .4.7.9 1.2 1.4 1.8.7.9 1.2 1.9 1.7 2.8.5.8 1.2 1.7 1.7 2.5.9 1.5 2 2.8 3.1 4.1.8.9 1.6 1.9 2.5 2.7 1 .8 2.1 1.6 3.1 2.4 1 .7 1.9 1.3 3 1.7 1.1.4 2.1.8 3.3.9 1.5.2 3.1 0 4.6-.1 1.3-.3 2.6-.8 3.8-1.4 1.1-.5 2.1-1.1 3.2-1.6.9-.5 1.7-1.2 2.6-1.8.6-.5 1.2-1 1.9-1.6.8-.8 1.7-1.6 2.7-2.1-.1.2-.2.4-.3.7-.2 1-.5 2-1 2.9-.9 2.1-2.1 4-3.8 5.5-2.3 2.2-4.7 4.2-7.3 6-1.9 1.3-3.9 2.5-5.9 3.7-2 1.1-4.1 2.1-6.1 3.3-1.6 1-3.2 2.1-4.6 3.4-1.6 1.4-2.9 3-4.1 4.8-1.7 2.4-3.2 4.8-4.9 7.1-1.2 1.8-2.5 3.6-4 5.4-2.5 3.3-5.6 6.1-9.1 8.3-1.1.7-2.3 1.4-3.4 2.1-1.4.8-2.9 1.2-4.5 1.7 0-3.3 0-6.6.3-9.9.2-1.2.1-2.5.3-3.8 0-.3.1-.8.5-.8.6.1 1.2.4 1.8.4 1.2.1 2.4 0 3.5-.4 1.3-.4 2.5-.9 3.7-1.6 2-1.2 3.7-2.9 4.9-5 3-5.6 5.2-11.6 6.2-17.9.6-3.3.9-6.7.9-10 0-2.6 0-5.1-.3-7.7 0-.7-.4-1.2-.4-1.9-.1-.8-.2-1.7-.4-2.5-.1-1.7-1-3.3-1.4-5.1z"/><path fill="#f2844f" d="M49.3 179.6c.4 2.6.7 5.2 1.5 7.8.7 2.5 1.7 4.8 2.5 7.1.5 1.3 1.2 2.6 1.7 3.9.9 2.1 2.2 4.1 3.3 6.1 1.2 1.9 2.4 3.7 3.7 5.5.7 1 1.4 2 2.1 2.9.6.8 1.2 1.5 2.1 2 .3.1.4.4.7.6h1.2c.1 0 .1-.1.2-.2.8-.8 1.6-1.9 2.3-2.8.6-.7 1.2-1.4 1.7-2.1.8-1.1 1.7-2.1 2.6-3.2 1.5-2 3.1-3.8 4.6-5.8 2.2-2.6 4.3-5.3 6.5-7.9 1.3-1.7 2.7-3.3 4-5 .9-1.1 1.9-2.2 2.8-3.3 1.5-1.8 2.9-3.7 4.5-5.4 1.4-1.7 2.9-3.4 4.4-5 1.6-1.8 3.3-3.4 4.9-5.2 2.9-3.1 6.1-6 9.4-8.8 1.7-1.4 3.5-2.5 5.3-3.7.5-.4 1.2-.6 1.7-1 .3-.7 0-1.5-.5-2-.9-.8-1.6-1.8-2.3-2.7-.7-.8-1.3-1.7-2-2.7-.8-1.2-1.7-2.2-2.4-3.4-.6-.9-1-1.8-1.5-2.8-1.2-2-2-4.2-2.8-6.4-.8-2-1.3-4.1-1.9-6.2-.5-2-.8-4-1.1-6.1-.2-1.5-.3-2.9-.5-4.5-.1-1.3-.3-2.7-.4-4 0-1.2-.1-2.4-.1-3.6 0-1.1-.1-2.1 0-3.2-.2 1-.6 2-1 2.9-.9 2-2.1 4-3.8 5.5-2.3 2.2-4.7 4.2-7.3 6-1.9 1.3-3.9 2.5-5.9 3.7-2 1.1-4.1 2.1-6.1 3.3-1.6 1-3.2 2.1-4.6 3.4-1.6 1.4-2.9 3-4.1 4.8-1.7 2.4-3.2 4.8-4.9 7.1-1.2 1.8-2.5 3.6-4 5.4-2.5 3.3-5.6 6.1-9.1 8.3-1.1.7-2.3 1.4-3.4 2.1-1.4.8-2.9 1.2-4.5 1.7-.2 2.7 0 5.5-.2 8.2-.1 1.4-.1 2.8-.1 4.1.5 1.5.5 3.1.8 4.6z"/></g><g clip-path="url(#b)"><path fill="#c5b68e" d="M84.9 24.2c.5 0 1.1-.1 1.6-.1 1.3 0 2.6-.1 3.9-.1 2.9 0 5.9.1 8.8.8 2 .5 3.9.9 5.8 1.7.5.2 1.2.4 1.4 1-.7 0-1.2-.4-1.7-.6-1.7-.7-3.6-1-5.4-1.4-2.6-.5-5.3-.9-7.9-1-2-.1-4 0-5.9 0h-1.9c.1 0 .3-.1.4-.2.2-.1.6 0 .9-.1z"/><path fill="#d4c7ab" d="M81.3 24.5c.9-.1 1.7-.2 2.6-.2-.1 0-.3.1-.4.2h1.9c-.4.2-.8.1-1.2.1-2.8.2-5.5.5-8.2 1.2-.8.2-1.5.5-2.2.7v-.3c2.4-.9 4.9-1.4 7.5-1.7z"/><path fill="#c1af84" d="M80.6 27.2c3.1-.6 6.3-.8 9.5-.4 1.8.2 3.6.4 5.3.8 1.2.3 2.5.4 3.7.6 2 .4 4.1.8 6.1 1.1 1.3.1 2.6.4 3.9.1 0 .1 0 .2.1.3-.5.2-1.1.4-1.7.4-2.2 0-4.5-.5-6.6-.9-1.5-.3-2.9-.5-4.4-.8-2.9-.5-5.8-.9-8.8-1-5.2-.1-10.4 1.1-15.2 3.1-1.4.6-2.7 1.2-3.9 2.2-.3.3-.6.5-1 .7.1-.6.7-.8 1-1.1 1.9-1.5 4.1-2.5 6.4-3.3 1.7-.7 3.6-1.4 5.6-1.8z"/><path fill="#c2b085" d="M79 31.6c2.9-.3 5.8-.3 8.7 0 1.8.1 3.6.3 5.4.5 2.1.2 4.3.4 6.5.5 1.2 0 2.5.1 3.7.1.9 0 1.8-.1 2.7-.1h1.2c-.1.1-.3.1-.4.2-.7.2-1.4.2-2.1.3-1.5 0-3 .1-4.5 0-1.8 0-3.6-.2-5.4-.3-1.7-.1-3.5-.4-5.2-.4-3.4-.2-6.8-.3-10.2 0-2.9.3-5.8.5-8.6 1.3-1.8.5-3.5 1.3-5.1 2.2-1.7 1.1-3.2 2.4-4.6 3.8-.7.6-1.3 1.3-2 2l-.3-.3c1.4-1.5 2.8-2.9 4.3-4.3 1.4-1.3 2.9-2.4 4.7-3.1 1.5-.7 3.1-1.3 4.8-1.6 2.1-.4 4.2-.7 6.4-.8z"/><path fill="#c7ba95" d="M110.7 31.3h.4c0 .3-.1.6-.3.9-1.1 1.7-2.2 3.4-3.5 4.9-.7.7-1.4 1.5-2.3 1.9 0 0-.1-.1-.1-.2.7-.4 1.3-.9 1.8-1.6 1.5-1.9 2.6-4 4-5.9z"/><path fill="#ddd5c1" d="M105.9 32.5c.6-.2 1.2-.2 1.7-.2 0 .5-.6.4-.9.5.1-.1.3-.1.4-.2-.4-.1-.8-.1-1.2-.1z"/><path fill="#c1ae83" d="M115.2 33.4c.5.3.8.8 1.3 1.1 2.3 1.7 4.1 3.8 5.8 6.1 1.2 1.7 2.3 3.6 3.1 5.6.9 2.3 1.8 4.7 2.4 7.2.4 1.4.6 2.9.9 4.4.2.9.4 1.9.4 2.9v.9c0-.4-.1-.8-.3-1.2-.3-.8-.3-1.6-.5-2.4-.4-2.1-1.1-4.2-1.7-6.3-.8-2.4-1.6-4.8-2.8-7-1-2-2.3-3.8-3.7-5.6-.9-1.2-1.9-2.3-2.9-3.3-.6-.5-1.2-1.1-1.7-1.7-.3-.3-.2-.5-.3-.7z"/><path fill="#d3c7ad" d="M105.1 35.6c.4-.4 1-.7 1.6-.8-.2.5-.8.7-1.2 1v-.3c-.2.1-.3.1-.4.1z"/><path fill="#c1af84" d="M112.2 34.9c.5 0 .8.4 1.2.8 1.1 1.1 2.2 2.2 3.1 3.5 1.7 2.3 2.9 4.8 4.1 7.4 1.2 2.7 2.1 5.5 2.7 8.4.3 1.5.7 3.1.8 4.6v1.2c0-.4-.1-.8-.3-1.2-.2-.5-.3-1.1-.4-1.6-.5-2.3-1.1-4.6-1.9-6.7-1.5-4.1-3.3-8.1-5.8-11.7-.8-1.2-1.7-2.3-2.6-3.4-.2-.4-.7-.7-.9-1.3z"/><path fill="#c0ae83" d="M99.6 36.7c1.9 0 3.7-.4 5.4-1.2h.4v.3c-1.2.7-2.7 1-4.1 1.3-2.4.4-4.8.3-7.2.3-1.4 0-2.9-.1-4.3-.1-1.7-.1-3.3-.2-5-.2-1.6-.1-3.3-.1-4.9 0-1.2.1-2.4.1-3.6.3-1.6.2-3.1.3-4.6.8-2 .6-3.8 1.3-5.6 2.3-1.8.9-3.4 2.2-5 3.5-.8.7-1.6 1.3-2.3 2.1-.3.4-.6.7-.9 1-.1.1-.2.2-.4.2l.3-.6c.3-.4.6-.6.8-1 .8-1 1.7-1.8 2.6-2.6 1.4-1.2 2.9-2.5 4.5-3.3 1.8-1 3.7-1.8 5.8-2.5 1.7-.5 3.5-.7 5.3-.8 2-.2 4-.3 6-.4 1.7 0 3.3.1 4.9.2 2.5.2 5 .4 7.4.4 1.7.1 3.1.2 4.5 0z"/><path fill="#c1af84" d="M109.2 37.9c.4.3.8.8 1.1 1.2 1.1 1.5 2.3 2.9 3.2 4.5 1.6 2.7 3.1 5.6 4 8.6.4 1.1.7 2.2.9 3.3.4 1.7.7 3.4 1.2 5.1.1.4.4.9.4 1.4v.5c-.1-.3-.3-.6-.4-.9-1.1-2.3-1.6-4.8-2.4-7.2-.8-2.9-1.9-5.8-3.4-8.5-.9-1.7-1.8-3.4-3-5-.4-.9-1.2-1.8-1.6-3z"/><path fill="#cdc3a7" d="M55 46c1.2-1.5 2.4-3.1 3.8-4.5l.3.3c-.3.4-.6.8-.9 1.1-.7.7-1.2 1.4-1.9 2.2-.4.5-.8 1.1-1.3 1.5-.2-.3-.1-.5 0-.6z"/><path fill="#d0c9ae" d="M57.3 47.5c.2-.3.4-.6.7-.8l-.3.6c.1-.1.2-.1.4-.2-.2.4-.5.8-.8 1.1-1.9 2.5-3.6 5.2-5 8-.2.4-.4.8-.8 1.1 0-.3.2-.5.3-.8.6-1.1 1.1-2.3 1.8-3.3 1.2-2.1 2.4-3.9 3.7-5.7z"/><path fill="#fdbb9c" d="M99.9 55.9c1.4-.4 2.9-.7 4.3-.7.6 0 1.2 0 1.7.2-.1.2-.3.4-.6.3-2.1-.1-4.1.4-6.1 1-1 .3-2 .8-3 1.2 0 0-.2-.1-.3-.1 1.1-1.1 2.6-1.6 4-1.9z"/><path fill="#b65a35" d="M99.3 60.1c2-.9 4.2-1.3 6.3-1.2 1.9 0 3.8.3 5.5 1.2.5.3 1.1.5 1.5.9s.9.7 1.2 1.2c-.2.1-.4.1-.6.1-2.3 0-4.7-.1-7 .3-2 .3-3.8.9-5.7 1.6-1 .4-2.1.6-3.1 1.1-.5.2-1 .1-1.5.1-.6 0-1.1-.6-.9-1.2.1-1.1.9-2 1.7-2.7.9-.5 1.8-.9 2.6-1.4z"/><path fill="#d3c7ad" d="M123.9 59.7c.2.4.2.8.3 1.2v-1.2c.2.5.2 1 .3 1.5.1.4.1.8.1 1.2h-.3c-.1-1-.4-1.8-.4-2.7z"/><path fill="#b65a35" d="M70.4 60.6c1.2-.4 2.5-.5 3.8-.7 1.5-.1 2.9 0 4.4.1 1 .1 2 .5 2.9.8 1 .4 2 1 2.8 1.7.4.4.8 1 .8 1.7 0 .5-.4.9-1 .9-1.5-.1-2.8-.8-4.2-.9-1.9-.3-3.8-.5-5.7-.8-1.3-.2-2.6-.2-4-.1l-3 .3H65c1.5-1.5 3.4-2.4 5.4-3z"/><path fill="#d3cab3" d="M128.8 60.2c.2.4.2.8.3 1.2v-.9c.2.5.2 1 .2 1.5.1.6.1 1.2.1 1.8h-.3c0-1.2-.2-2.4-.3-3.6z"/><path fill="#d3caae" d="M119.7 61.6c.2.3.3.6.4.9V62c.4.6.5 1.2.8 1.8.2.7.5 1.3.6 2-.4-.3-.5-.8-.7-1.2-.3-1-.8-2-1.1-3z"/><path fill="#160e0b" d="M106 68c.4-.1.9.1 1.1.6s.1 1.2.1 1.7c-.1.5-.2 1.2-.8 1.4-.5.3-1.2.1-1.5-.4-.4-.8-.4-1.7 0-2.5.3-.4.7-.8 1.1-.8zm-32.1 1.2c.4-.2.9-.1 1.2.2.4.4.5 1 .6 1.5 0 .5 0 1.1-.2 1.7-.2.4-.6.9-1.2.8-.4 0-.8-.4-1-.8-.4-.7-.4-1.6-.2-2.3.2-.4.4-.9.8-1.1z"/><path fill="#b75c37" d="M120.9 72.5c.6-.7 1.5-1.2 2.5-1.2.9 0 1.8.3 2.4 1.1.5.8.7 1.7.6 2.7 0 1.3-.5 2.6-1.1 3.8-1 2.1-2.7 3.7-4.4 5.3 0-.2 0-.4.1-.5 1.5-1.6 3-3.3 3.9-5.4.5-1.3.8-2.8.5-4.1-.1-.5-.4-1.1-.9-1.4-.6-.4-1.3-.3-1.9-.1-.6.2-1 .6-1.6.8-.4-.4-.2-.8-.1-1z"/><path fill="#b95d38" d="M103.6 72.8c.5 0 .9.1 1.4.1 1 0 1.9 0 2.9-.2v.3c-.9.2-1.8.4-2.8.4-.5 0-1 0-1.4-.3-.1-.1-.1-.1-.1-.3z"/><path fill="#bc5f3f" d="M59.3 74.1c.7 0 1.2.5 1.5 1 .6 1 .8 2.2 1.1 3.3.4 1.6.7 3.3.8 4.9V85l-.3-1.5c-.6-2.7-1-5.5-2.2-8-.3-.5-.9-.8-.9-1.4z"/><path fill="#b95d38" d="M72.5 74.4c1.4.4 2.9.3 4.2-.2v.3c-.9.5-2 .7-3 .6-.4 0-.8-.2-1.2-.4v-.3z"/><path fill="#fdb998" d="M90.7 76.3h.4c.2.6 0 1.2-.1 1.8-.3 1.2-.7 2.3-1.1 3.5-.4 1.1-.7 2.2-1 3.4-.1.3-.1.7-.5.8.1-1.5.6-3 1-4.5.3-1.7.9-3.3 1.3-5z"/><path fill="#fbb490" d="M112.2 77.3c.2-.2.5-.2.7-.2 0 .4-.3.7-.6 1-.5.5-1 .9-1.5 1.4-1.1.8-2.1 2-3.4 2.4 0-.2-.1-.5.1-.7.8-.8 1.8-1.4 2.6-2.1 0 0-.1-.2-.2-.2h.4c.7-.6 1.3-1.1 1.9-1.6z"/><path fill="#f95939" d="M74.4 77.5c1.6-.2 3.2.2 4.6.8 1.1.6 2 1.6 2.5 2.8.7 1.7.4 3.7-.4 5.3-.8 1.6-2.1 3-3.7 3.6-1.2.5-2.6.4-3.8-.2-1.5-.6-2.7-1.8-3.3-3.3-.6-1.2-.8-2.5-.5-3.8.2-1.2.7-2.4 1.5-3.3.4-.5 1-.8 1.5-1.2.3-.4.9-.7 1.6-.7zm30.7.4c1.4-.4 2.8-.1 4.1.4.3.1.6.2.8.5 0 0 .1.2.2.2-.9.7-1.8 1.4-2.6 2.1-.3.1-.1.4-.1.7 1.4-.4 2.4-1.5 3.4-2.4.7.8 1.2 1.9 1.2 3 .1 1.8-.3 3.7-1.5 5-1 1.2-2.3 2.1-3.9 2.4-1.9.5-4-.2-5.4-1.5-.7-.8-1.3-1.7-1.6-2.7-.4-1.7 0-3.4.9-4.8.5-.8 1.3-1.4 2.1-1.8.8-.5 1.5-1 2.4-1.1z"/><path fill="#c7b992" d="M50.5 78.6c.1.1.2.3.3.4.5 1.7 1.5 3 2.4 4.5l-.4.4c-.4-.4-.6-.9-.9-1.4-.6-1.3-1.3-2.5-1.4-3.9z"/><path fill="#c5b38b" d="M130.8 82.5h.3c-.2 1.4-.4 2.9-.8 4.3-.7 2.8-1.3 5.6-2.1 8.3-.7 2.4-1.5 4.6-2.2 7-.5 1.6-.8 3.2-1.4 4.7v-.7c.4-2.4 1.1-4.7 1.8-7 .8-2.7 1.7-5.4 2.3-8.2.5-2.3 1.2-4.5 1.7-6.7.1-.7.2-1.3.4-1.7z"/><path fill="#ca8d77" d="M62.7 83.3c.3.8.2 1.6.2 2.3h-.4c0-.7-.2-1.4-.2-2.2l.3 1.5c.1-.4.1-1 .1-1.6z"/><path fill="#c1af84" d="m52.8 83.9.4-.4c.7.9 1.3 1.9 2.2 2.6 1.2 1 2.3 2.1 3.4 3.2 1.5 1.7 3.1 3.3 4.2 5.3.9 1.6 1.7 3.2 2.2 4.9.6 2.2 1 4.6 1.2 6.9.1 2.1.1 4.3 0 6.4-.3 3.9-1.1 7.8-2.4 11.5-.6 1.6-1.4 3.1-2.2 4.7-.3.4-.4.9-.8 1.3l-.3.3c0-.1 0-.2.1-.3 1.2-2.6 2.5-5.3 3.3-8.1 1.1-4 1.7-8.1 1.6-12.3 0-1.9 0-3.8-.3-5.6-.4-2.2-.8-4.5-1.7-6.6-.6-1.4-1.2-2.8-2.1-4-1-1.5-2.3-2.8-3.5-4.1-.4-.5-1-.9-1.5-1.4-.8-.7-1.6-1.3-2.2-2.1-.7-.8-1.2-1.5-1.6-2.2z"/><path fill="#ca8c70" d="M119.2 84.9c.7-.4 1.2-.9 1.8-1.4 0 .2 0 .4-.1.5 0 .1-.1.2-.2.3-.4.4-.9.7-1.5.9v-.3z"/><path fill="#bd6543" d="M93.3 84.5c.3-.3.7-.2 1 0 .4.3.7.8.6 1.4-.1.8-.7 1.4-1.4 1.8-.4.2-.9.1-1.4.2.1-.1.3-.2.4-.3-.2 0-.3-.1-.4-.2.4 0 .8 0 1.2-.1.5-.3 1.1-.8 1.1-1.5-.1-.6-.7-1-1.1-1.3z"/><path fill="#fdb694" d="M117.2 86.2c.3-.2.7-.4 1.1-.4 1.2 0 2.4 0 3.4.6v.4c-.6-.1-1.2-.3-1.9-.3s-1.4.1-2.2.1c-.3.1-.4-.2-.4-.4z"/><path fill="#ba5d37" d="M91.5 86.2c.6-.1 1.2-.2 1.8 0 0 .2 0 .5-.3.5-.5.3-1.2.3-1.8.3-.3 0-.4-.3-.3-.5.1-.3.4-.3.6-.3z"/><path fill="#cabd9d" d="M50.6 86.5h.3c.4 1.2 1.4 2 1.9 3.1-.1 0-.2 0-.4-.1v.3c-.4-.4-.6-.9-.8-1.3-.4-.6-.9-1.2-1-2z"/><path fill="#c0ad83" d="M52.5 89.5c.1 0 .2 0 .4.1 2.5 3.9 4.3 8.3 5.2 12.9.6 2.6.8 5.3 1 8 .1 2.5.3 5.1.1 7.7-.2 3.6-.7 7.1-1.9 10.5-.6 1.7-1.6 3.4-2.5 5s-1.9 3.1-2.9 4.6h-.3c0-.1.1-.3.1-.4l1.8-3c1.3-2.4 2.7-4.7 3.4-7.4 1.2-3.9 1.6-8.1 1.6-12.2-.1-4.1-.3-8.3-1-12.3-.4-2.3-1.1-4.6-1.9-6.8-.7-1.8-1.5-3.6-2.4-5.3-.2-.4-.4-.7-.5-1.1-.2 0-.2-.2-.2-.3z"/><path fill="#b95d38" d="M92.5 87.6c-.2 0-.3-.1-.4-.2-.6 0-1.1.1-1.7.1-.9.1-1.8 0-2.7 0-.4 0-.7-.1-.9-.3 0-.4 0-.8.1-1.2 1-3.4 2.3-6.8 2.8-10.4.2-1.7.5-3.4.3-5.1-.1-1.2-.4-2.6-1.2-3.6-.1-.2-.3-.2-.4-.2.3.7.7 1.5.8 2.2.2 1.5.2 2.9.1 4.4-.1 2-.4 4-1 5.9-.5 2.1-1.4 4.2-1.9 6.3-.1.6-.5 1.3-.1 2 .4.6 1.3.6 2 .7.8 0 1.5 0 2.3-.1v2.7c0 .6 0 1.2-.1 1.8 0 0 .2 0 .3-.1.2-.7.3-1.4.3-2.1.2-.8.2-1.6.2-2.4.2 0 .4 0 .7-.1v1.5c0 1.1 0 2.1.1 3.2h.3V91c.1-.3.2-.5.2-.8v-2.3c-.3-.1-.2-.2-.1-.3z"/><path fill="#f95939" d="M89.8 93.3c3.6-.2 7.2-.8 10.9-.7.4 0 .8.1 1.2.4.2.2 0 .4 0 .6-.2-.1-.4-.4-.6-.3-.6.1-1.1.4-1.7.5-2.1.6-4.1 1.1-6.2 1.3-1.6.2-3.3.4-4.9.1-1.4-.2-2.9-.3-4.3-.7-.9-.3-1.8-.5-2.8-.8.6-.6 1.5-.5 2.2-.5 2.1 0 4.1.1 6.2.1z"/><path fill="#d1444d" d="M101.2 93.4c.3-.1.4.2.6.3l-.1.1-.2.2c-.8.2-1.4.6-2.2.8-1.1.2-2.2.6-3.3.7-1.8.2-3.6.5-5.4.5-2.2 0-4.4 0-6.5-.7-.4-.1-.9-.2-1.3-.4-.6-.2-1.1-.5-1.6-.8.1-.1.1-.3.3-.4.9.3 1.8.6 2.8.8 1.4.4 2.9.5 4.3.7 1.6.2 3.3 0 4.9-.1 2.1-.2 4.2-.8 6.2-1.3.4 0 .9-.3 1.5-.4z"/><path fill="#fbbb9e" d="M101.5 94c0-.1.1-.2.2-.2.1.1.2.1.4.2 0 .3-.1.5-.3.8-.5.8-1.1 1.5-1.8 2.1-.2.2-.4.2-.6.2.2-.6.8-.9.9-1.5.4-.5.9-1.1 1.2-1.6z"/><path fill="#f95939" d="M99.3 94.8c.8-.2 1.4-.6 2.2-.8-.4.5-.8 1.1-1.2 1.6-.6.4-1.1 1-1.8 1.2-1.5.6-3 1.3-4.6 1.4-2.3.3-4.6.4-6.9-.2-.8-.2-1.6-.3-2.2-.7-1.5-.8-2.7-1.9-3.7-3.3.5.3 1 .6 1.6.8.4.1.9.2 1.3.4 2.1.7 4.3.7 6.5.7 1.8 0 3.6-.3 5.4-.5 1.2-.1 2.3-.4 3.4-.6z"/><path fill="#c77f63" d="M68.6 96.4h.3c.4.6.7 1.3 1.1 1.9.1.1.2.3.2.4s-.1.3-.2.4c-.3-.3-.4-.7-.7-1-.2-.5-.6-1.1-.7-1.7z"/><path fill="#fbaa87" d="M92.1 96.9c1.1.1 2.1-.2 3.2-.3 0 .2 0 .4-.3.4-1.2.4-2.4.6-3.7.5-.5 0-1.1-.1-1.5-.4.8-.1 1.5-.3 2.3-.2z"/><path fill="#c2b187" d="M51.4 97.1c.1 0 .2 0 .3-.1.4 1 .8 2.1 1.1 3.1.9 2.7 1.3 5.5 1.7 8.3.4 4.7 0 9.5-1.1 14.1-1 4.1-3 7.9-5 11.7l-.3-.3c1.6-3 3.1-6.1 4.1-9.3 1-3.3 1.4-6.6 1.7-10 .2-3.3 0-6.7-.5-10-.5-2.5-1.4-5-2-7.5z"/><path fill="#bc633f" d="M70 99.2c.1-.1.1-.3.2-.4.6.8 1.1 1.6 1.6 2.4 1.8 2.6 3.7 5 5.6 7.4 1 1.2 2.2 2.4 3.4 3.4 1 1 2.2 1.7 3.3 2.5.9.6 2 1 3 1.4.8.3 1.5.3 2.3.5 1.7.4 3.4 0 5.1-.3 2-.3 3.7-1.3 5.5-2.2.4-.1.8-.2 1.1-.2-2 1.2-4 2.5-6.3 2.9-1.7.4-3.5.7-5.2.4-.9-.3-1.9-.4-2.7-.7-1.1-.4-2.1-.7-3.1-1.3-1.2-.7-2.3-1.5-3.3-2.5-1-.9-1.9-1.8-2.9-2.8-1.3-1.4-2.4-3-3.6-4.5-1.3-1.8-2.7-3.9-4-6z"/><path fill="#b95e3a" d="M89.5 102.1c1.3-.2 2.7.1 4 .3.8.2 1.7.2 2.4.6-.1.1-.3.2-.5.2-1.3-.2-2.6-.4-3.9-.5-1.1-.1-2.2.1-3.3.4-.7.2-1.2.5-1.9.7.3-.4.7-.7 1.2-.8.7-.3 1.2-.8 2-.9z"/><path fill="#cabc95" d="M116.3 105.6c.2-.8.4-1.6.8-2.4 0 1.3-.4 2.6-.7 3.8-.1.7-.8 1-.9 1.6 0 .1-.1.2-.2.4.3-1.2.7-2.3 1-3.4z"/><path fill="#fcc0a4" d="M89.8 104.8c1.1-.3 2.2-.3 3.3 0v.3c-.6 0-1.2-.1-1.7 0-.5 0-1 .1-1.5.2-.1-.2-.1-.3-.1-.5z"/><path fill="#d6ceb4" d="M124 107.8c.1-.6.2-1.2.5-1.8v.7c0 .3-.1.6-.2 1-.8 2.9-1.5 5.7-2.3 8.6 0 0-.2 0-.2.1.3-1.2.7-2.4 1-3.7.4-1.7.8-3.3 1.2-4.9z"/><path fill="#c26d4c" d="M106.9 109.3c.4-.4.6-.8 1.1-1.1-.2.4-.4.8-.8 1.2-.4.5-.8 1-1.2 1.4-1.2.9-2.4 1.7-3.7 2.5-.3.2-.7.4-1 .5-.4 0-.8.1-1.1.2 1.9-1 3.8-2.2 5.4-3.7.4-.3.9-.6 1.3-1z"/><path fill="#c4b48b" d="M115.4 109c0-.1.1-.2.2-.4.2.3.4.6.2 1-.8 2.9-1.6 5.7-2.2 8.5-.6 2.7-1.1 5.5-1.4 8.3 0 .5-.1 1-.2 1.5l-.3 1.2c.1-.7.1-1.3.1-2 0-1.4.2-2.7.4-4.1.4-4.1 1.5-8 2.6-11.9.1-.7.3-1.4.6-2.1z"/><path fill="#d8ccb4" d="M111.6 127.7c0-.2.1-.4.1-.5 0 .7 0 1.3-.1 2l.3-1.2c0 1.5-.2 2.9-.3 4.4-.1.6 0 1.3-.4 1.8 0-.8.1-1.7.1-2.5 0-1.4.2-2.7.3-4z"/><path fill="#d5cab5" d="M60.3 130.7c.1-.2.2-.4.4-.6 0 .1 0 .2-.1.3l.3-.3c-.3.8-.8 1.5-1.2 2.3-.8 1.3-1.7 2.7-2.7 3.9-.2.3-.4.5-.8.7.4-.8 1.1-1.4 1.5-2.1 1-1.3 1.9-2.7 2.6-4.2z"/><path fill="#d1caae" d="M45.9 137.9c.8-1.2 1.4-2.6 2.1-3.9l.3.3c-.2.6-.6 1.2-.9 1.7-.4.7-.8 1.3-1.2 2-.1 0-.2 0-.3-.1z"/><path fill="#cec2a5" d="M50.6 139.3c0-.6.6-1.1 1-1.5 0 .1-.1.3-.1.4h.3c-.4.5-.7.9-1.2 1.1z"/><path fill="#150f0c" d="M18.7 182.9c0 .2.1.4.2.5v-.4c-.2-3-.1-6 .2-8.9.3-2.9.8-5.7 1.4-8.5.7-2.9 1.5-5.7 2.3-8.5.1-.4.2-.8.2-1.2-.3.2-.4.7-.4 1-1 3.3-2.1 6.6-2.7 9.9-.6 3.2-1.2 6.5-1.3 9.8 0 1.3-.2 2.7 0 4 .1.7 0 1.5.1 2.3zm-3.2 17.8c-.8-2.9-1.6-5.8-1.9-8.9 0-.8 0-1.7.1-2.6h-.4v.3c-.4 1.2-.3 2.5-.2 3.7.3 3.7 1.6 7.1 2.7 10.7.8 2.5 1.6 5 2.6 7.4.3.6.4 1.2.8 1.7.2-.3 0-.6-.1-.9-1.2-3.8-2.5-7.6-3.6-11.4zm76-8.1c-1.5 1.7-3 3.3-4.5 5.1-1.8 2.1-3.5 4.2-5 6.6-.2.4-.6.7-.4 1.2.1-.2.3-.3.4-.5 2.1-3.2 4.6-6.1 7.1-8.9 1.4-1.6 2.9-3 4-4.8.2-.3.4-.7.5-1.1-.8.6-1.4 1.5-2.1 2.4zm28.4 8.8c1.2-1.8 2.6-3.6 4.1-5.1 1.3-1.4 2.9-2.7 3.6-4.6-.5.1-.8.6-1.1 1-1 1.3-2.2 2.3-3.3 3.5-.8.8-1.5 1.8-2.1 2.7-1.3 1.8-2.5 3.7-3.4 5.6-.1.2-.1.4-.2.7.2-.1.3-.2.4-.4.5-1.2 1.2-2.3 2-3.4zm-102.3-4.5c-.1-.4-.2-.8-.4-1.2 0-.7-.3-1.3-.4-1.9-.6-3.1-1.1-6.2-1.2-9.3 0-2.9.2-5.8.7-8.7.1-.7.4-1.4.4-2.1-.4.3-.4.8-.6 1.2-.5 2.6-.8 5.4-.9 8.1 0 3 .3 6 .9 9 .3 1.4.6 2.8 1 4.2 0 .8.4 1.6.6 2.4.4 1.4 1 2.9 1.5 4.2 0 .2.2.4.4.4-.1-.7-.5-1.2-.7-1.9-.5-1.4-.9-3-1.3-4.4zm112.2-.6c-.8 1-1.7 1.7-2.6 2.5-1.9 1.7-3.6 3.5-5 5.6-1.2 1.8-2.3 3.6-3.2 5.5-.4 1-.9 2-1.2 3.1h.3c.6-1.3 1.2-2.7 1.9-4 1.1-2 2.4-4 3.8-5.7 1.3-1.7 2.9-3.1 4.5-4.6.8-.8 1.7-1.7 2.1-2.8-.3.1-.4.2-.6.4zm-6.3 11.8c-1.2 1.7-2.3 3.4-3 5.3.1-.1.3-.2.4-.3.4-.6.7-1.2 1.1-1.9 1.2-2.1 2.7-4 4.4-5.7.3-.3.8-.5.8-1-.5 0-.8.4-1.2.7-1 .9-1.8 1.8-2.5 2.9zm-56 7.3h.3v-2c.1-2.7.2-5.4.8-8 .1-.2-.1-.2-.3-.3-.5 1.6-.8 3.2-.8 4.9 0 1.4-.1 2.9 0 4.3 0 .4-.1.8 0 1.1zm-13.4-4.8c.8 1.3 1.7 2.6 2.5 3.9.2.3.4.7.6 1h.4c-.6-1.1-1.3-2.2-1.9-3.3-1.2-1.9-2.4-3.8-3.2-5.9h-.4c0 .6.3 1.2.6 1.8.3.8.8 1.7 1.4 2.5zm-29.2-1.4c0-.6-.2-1.2-.3-1.9-.6-3.2-1.2-6.3-2.2-9.4-.8-2.6-1.7-5.2-2.2-7.9-.2-1.1-.3-2.3-.5-3.4-.1.1-.3.1-.3.3 0 1.1 0 2.1.2 3.2.4 2.8 1.3 5.4 2.2 8.1 1 2.9 1.7 6 2.3 9.1.1.4.1.7.3 1.1 0 .3 0 .6.1.9.3 1.3.5 2.7.7 4.1 0 0 .2 0 .3.1 0-.9-.2-1.8-.3-2.7-.1-.6-.1-1.1-.3-1.6z"/></g></svg>