<svg xml:space="preserve" xmlns:xlink="http://www.w3.org/1999/xlink" enable-background="new 0 0 180 180" viewBox="0 0 180 180" xmlns="http://www.w3.org/2000/svg"><defs><path id="a" d="M0 0h179.8v179.8H0z"/></defs><use xlink:href="#a" fill="#2a54db" overflow="visible"/><clipPath id="b"><use xlink:href="#a" overflow="visible"/></clipPath><circle cx="89.9" cy="90.1" r="89.9" fill="none" clip-path="url(#b)"/><g clip-path="url(#b)"><path fill="#c5ccc2" d="M91.4 19.9c1.6-.1 3.2 0 4.8.2 2 .3 4 .5 5.8 1.3 1.4.6 2.8 1.4 4.1 2.4 1 .7 1.8 1.5 2.8 2.2.8.7 1.8 1.2 2.6 1.8 1.5 1 3 2.1 4.4 3.1 1.1.8 2.2 1.7 3.2 2.6.5.5 1.1 1 1.6 1.5 2.1 2.4 3.8 5.1 5 8.1.7 1.8 1.5 3.5 1.9 5.3.3 1.7.6 3.4 1 5.1.2 1 .5 2 .6 3 .1 1.5.4 3 .3 4.5-.1 1-.1 2.1-.1 3.1 0 1.3-.1 2.7-.2 4-.1 1.2-.6 2.4-.4 3.7 0 .4-.1.8-.3 1.1-.3.8-.3 1.7-.7 2.5-.6 1.1-1.1 2.2-1.7 3.3-1.1 1.8-2.1 3.7-3.3 5.4-.9 1.2-2 2.3-3.4 2.9-2.1 1-4.2 1.7-6.4 2.4-2.6.7-5.2 1.3-7.8 1.7-2.7.4-5.4.9-8.1 1.3-3.2.4-6.3.8-9.5.9-2.8.1-5.7-.3-8.5-.7-2.2-.3-4.5-.6-6.7-1.1s-4.3-1.1-6.5-1.7c-1.9-.5-3.7-1.2-5.4-2.1-1.3-.7-2.7-1.4-3.7-2.4-.9-.9-1.5-2.1-1.9-3.4-.5-1.8-.3-3.8-.4-5.6 0-.8-.1-1.6-.1-2.5s-.3-1.7-.5-2.5c-.6-1.9-.9-3.8-1.3-5.7-.8-3.5-1-7.2-.9-10.8.2-2.7.5-5.3 1.1-7.9.3-1.2.7-2.4 1.2-3.6.6-1.8 1.7-3.4 2.8-4.9.6-.8 1.4-1.6 2.1-2.4.8-1 1.8-1.8 2.8-2.6.8-.6 1.5-1.2 2.3-1.8.8-.6 1.7-1.2 2.5-1.7 1.3-.9 2.5-1.8 3.9-2.6 2.6-1.2 5.2-2.6 7.9-3.4.4-.1.6-.5.9-.6.9-.4 1.9-.7 2.8-1.1 1.9-.7 3.8-1.2 5.7-1.7 1.2-.4 2.5-.6 3.7-.6z"/><path fill="#fef3db" d="M180.5 209c.3-1.2.5-2.4.5-3.6.1-2.1-.4-4.2-.7-6.3-.3-1.8-.7-3.7-1.1-5.5-1.6-7.2-3.7-14.3-6.4-21.1-.8-2-1.6-4-2.7-5.9-1-1.9-2.2-3.6-3.6-5.2-2.3-2.8-5.3-5-8-7.3-2.4-2-4.8-4-7.2-6.1-.5-.5-.9-1.1-1.4-1.6-1.3-.8-2.5-1.9-3.4-3.1l-.2-.2-5.7-4c-.3-.2-.5-.4-.6-.6-.5-.4-1-.9-1.6-1.3-.2-.2-.5-.4-.8-.6-.3-.3-.6-.6-1-.9-1-.8-2-1.6-2.9-2.4-.6-.6-1.3-1.2-1.9-1.8-.9-.9-1.8-1.9-2.7-2.9-.6-.7-1.1-1.4-1.8-2-.7-.7-1.4-1.4-2-2.2-.7-.8-1.4-1.5-2.1-2.3-.4-.6-.9-1.1-1.4-1.6-.7-.7-1.2-1.6-2-2.3-.7-.6-1.4-1.4-2.4-1.7-.7-.2-1.5-.1-2.2-.1-3.2-.1-6.4.2-9.5.7-2.2.3-4.3.9-6.5 1.1-3 .3-6 .2-9 0-2.3-.2-4.7-.4-7-.7-2.8-.4-5.5-1.1-8.1-1.8-2-.6-3.9-1.1-5.9-1.4-1.7-.2-3.5-.7-5.2-.6-1.1.1-2.3 0-3.1.7-.3-.1-.7-.3-1-.1-.7.3-1.2.8-1.6 1.3-.5.6-.9 1.3-1.4 1.9-.7.9-1.5 1.8-2.2 2.7-1.2 1.4-2.5 2.9-3.7 4.3-1.5 1.8-3.2 3.4-4.9 5-1.2 1.2-2.4 2.3-3.6 3.5-2.1 2.1-4.2 4.2-6.2 6.3-4.2 3.1-8.3 6.4-12.3 9.8-3.5 3.1-7.1 6.2-10.2 9.7-1.8 1.9-3.4 4-4.8 6.2-1.3 2-2.3 4.1-3.2 6.3-1.4 2.5-2.6 5.2-3.7 7.9-1.1 2.9-1.7 5.9-2.2 9-.1.4-.1.8-.1 1.1-1.6 6.4-2.7 12.9-3.4 19.4h184.1v.3z"/><path fill="#f2844f" d="M82 40.7c2-1.6 4.7-2.2 7.2-2.1.6 0 1.2.2 1.8.2.7.1 1.4.4 1.9.8.2.6-.2 1.2-.5 1.7-.8 1.3-1.6 2.7-2.5 4-1.4 2.1-2.7 4.2-4 6.3-.5.8-1 1.7-1.5 2.5.3.1.5.1.8 0-.1.1-.1.2-.2.2 2 .5 4.1.6 6.2.6 1.9 0 3.7-.5 5.5-1.1 1.2-.4 2.5-.9 3.6-1.6 1.2-.7 2.3-1.6 3.3-2.6.9-.8 1.7-1.8 2.6-2.6 1.2-1 2.6-1.9 4.1-2.4.9.5 1.8 1.1 2.5 2 .2.3.5.4.7.7 1.1 1.2 2.1 2.5 3 3.9.5.8.9 1.7 1.3 2.5.5 1.1 1.1 2.3 1.3 3.5l1.5 4.2c.6 1.5 1.1 3.1 1.5 4.6.3 1.3.6 2.6.7 3.9.1 2.2.1 4.4.1 6.7 0 .5.1 1 .1 1.5 0 .2 0 .4.1.6-.1.3-.2.5-.2.8-.1 1.4-.2 2.9-.3 4.4-.3 2.6-.6 5.3-1.1 7.9-.1 1-.3 1.9-.5 2.9-.1.4-.5.7-.5 1.1-.2 1-.5 1.9-.7 2.9-.1.3-.1.6-.1.9-.1.7-.3 1.3-.5 2-.7 2.7-1.5 5.3-2.3 8-.2.7-.5 1.4-.5 2.1 0 0-.1 0-.2.1-.6.8-1 1.7-1.5 2.5-1.1 1.9-2.2 3.8-3.4 5.7-1.2 1.8-2.4 3.5-3.8 5.1-2.3 2.6-4.9 5.1-7.8 7-.8.6-1.8.9-2.8 1.4s-2.2.6-3.3.8c-1.6.2-3.1.1-4.7 0-2.6-.2-5.1-.6-7.5-1.6-1.5-.6-2.9-1.3-4.3-2.2-1.5-1-3.1-1.9-4.4-3.2-1.4-1.4-2.7-3-3.8-4.7-1.3-2-2.5-4-3.7-6-.6-1.1-1.2-2.3-1.9-3.4-1.2-2-2.5-4-3.7-6-.6-1-1.2-2-1.8-2.9 0 .1-.1.2-.1.2-.3-2.6-.9-5.1-1.3-7.6.2-.8 0-1.6 0-2.4 0-.7-.2-1.4-.2-2.1 0-1.6-.2-3.2-.3-4.8 0-.9-.1-1.8-.2-2.7-.1-1.4 0-2.9-.1-4.3 0-.5.1-1-.1-1.4.7-1.1 1.3-2.2 1.8-3.5 1-2.8 1.3-5.7 1.7-8.6.3-2 .5-4.1 1-6 .4-1.3.9-2.6 1.3-3.9.2-.6.6-1.2.7-1.8.2-.8.5-1.5.9-2.2.5-1 1.1-2 1.7-3 .5-.8 1-1.5 1.5-2.2.6-.7 1.2-1.4 1.9-2 .9-.8 1.9-1.6 3-2.2.6-.3 1.2-.7 1.8-1 1.6-.8 3.4-1.3 5.2-1.5.7-.1 1.5 0 2.2-.1.9-.3 1.5-.1 1.8-.5z"/><path fill="#e56324" d="M106.6 42.8c.4-.1.8 0 1.1.2 1 .4 1.8 1.1 2.7 1.7-1.5.5-2.9 1.4-4.1 2.4-.9.8-1.7 1.8-2.6 2.6-1 1-2.1 1.9-3.3 2.6-1.1.7-2.4 1.1-3.6 1.6-1.8.5-3.6 1.1-5.5 1.1-2.1 0-4.2-.1-6.2-.6.1-.1.1-.2.2-.2.6-.1 1.1-.4 1.7-.6 1.3-.4 2.4-1 3.6-1.6 2.1-.9 4.2-1.8 6.3-2.8.8-.4 1.6-.8 2.4-1.3.9-.6 2-1.1 2.9-1.8 1.2-.9 2.5-1.8 3.8-2.7.2-.2.3-.5.6-.6z"/><path fill="#f95939" d="M44.6 70.4c1.2-1.1 3.1-1.3 4.7-.9 1.2.3 2.3 1 3.2 1.7.7.6 1.4 1.3 2 2 .4.4.6.9.8 1.5-.1 1.6.1 3.1.3 4.7.1-.1.2-.3.3-.4.2.5 0 1 .1 1.4.1 1.4 0 2.9.1 4.3 0 .9.1 1.8.2 2.7.1 1.6.3 3.2.3 4.8.1.7.2 1.4.2 2.1 0 .8.2 1.6 0 2.4 0-.2 0-.4-.2-.5-.6-.3-1.2-.7-1.8-1.1-1.5-1.1-2.8-2.4-4-3.8-1.3-1.5-2.5-3.1-3.6-4.8-.7-1-1.3-2.1-2-3.1-1-1.5-1.6-3.3-2.1-5-.4-1.3-.4-2.7-.3-4 .1-1.5.7-3 1.8-4zm80.9 2.6c1.6-1.9 4.1-2.9 6.6-3 .7 0 1.6-.1 2.2.5.8.9 1.1 2.1 1.2 3.3 0 .9.1 1.7-.1 2.6-.2 1.4-.9 2.7-1.4 4.1-.8 2.1-1.7 4.1-2.7 6.1-.8 1.5-1.6 3.1-2.4 4.6-1 1.8-2.3 3.3-3.8 4.8-.7.7-1.4 1.3-2.2 1.8-1 .6-2 .9-3.1 1.1 0 .2 0 .4-.1.6 0-.3 0-.6.1-.9.2-1 .5-1.9.7-2.9.1-.4.5-.7.5-1.1.2-1 .4-1.9.5-2.9.5-2.6.8-5.3 1.1-7.9.1-1.5.2-2.9.3-4.4 0-.3.2-.5.2-.8.3-1.3.7-2.5 1.2-3.8.1-.3.2-.5.4-.8.4-.2.5-.7.8-1z"/><path fill="#e56324" d="M64.8 76.4c1.3-1.2 3-2.1 4.8-2.3 1.4-.1 2.9.2 4.2.7 1.1.5 2.2 1.1 3.1 1.8.9.6 1.7 1.4 2.5 2.1.7.5 1.3 1 2 1.6.9.7 1.6 1.6 2.2 2.6l.6.6c0 .2-.3.2-.4.1-.3-.3-.7-.4-1.2-.5-1.1-.4-2.2-.9-3.1-1.6-.4-.3-.8-.7-1.3-.9-.8-.4-1.6-.9-2.4-1.1-1.4-.4-2.8-.8-4.2-.8-1.5-.2-2.9.3-4.3.6-.8.2-1.5.6-2.3.6s-1.7-.1-2.5-.2c0-.5.3-.8.6-1.2.5-.7 1-1.5 1.7-2.1zm44.8 1c1.2-.3 2.4-.7 3.6-.6.4 0 .8-.1 1.1.2-.2.3-.6.2-.9.3-1 .5-2 1-3 1.6-1.4.7-2.7 1.6-3.9 2.6-1.5 1.3-3.1 2.4-4.8 3.3-1.2.6-2.5.9-3.9.7-.7-.1-1.5-.2-2.1-.5-.4-.2-.9-.3-1.2-.7-.2-.2-.1-.4.1-.5.8-.4 1.5-.9 2.4-1.3 2.5-1.2 5-2.4 7.6-3.4 1.7-.6 3.3-1.2 5-1.7zm-27 26.4c.6-.1 1 .4 1.5.7 1 .6 1.6 1.7 2.7 2.1.9.4 1.9.7 2.9.5 1.1-.2 2.1-.8 3-1.6.2-.2.4-.5.7-.5.4 0 .4.5.2.6-1.4 1.3-2.5 3.1-4.2 4.2-.7.5-1.3 1.1-2.1 1.4-.7.2-1.4-.3-1.8-.9-.9-1.4-1.8-2.7-2.4-4.3-.3-.6-.7-1.1-.7-1.8-.2-.2 0-.3.2-.4z"/><path fill="#e56324" d="M58 104.3c0-.1.1-.2.1-.2.6.9 1.2 1.9 1.8 2.9 1.3 2 2.5 3.9 3.7 6 .6 1.1 1.3 2.2 1.9 3.4 1.1 2 2.4 4 3.7 6 1.1 1.7 2.3 3.3 3.8 4.7 1.3 1.3 2.8 2.3 4.4 3.2 1.3.9 2.8 1.6 4.3 2.2 2.4.9 5 1.4 7.5 1.6 1.6.1 3.1.2 4.7 0 1.1-.2 2.3-.3 3.3-.8.9-.4 1.9-.8 2.8-1.4 2.9-2 5.4-4.4 7.8-7 1.4-1.6 2.6-3.3 3.8-5.1 1.2-1.8 2.2-3.8 3.4-5.7.5-.9 1-1.7 1.5-2.5h.1c-.3 1.7-.4 3.5-.2 5.2 0 .4.2.8.1 1.2.4.4.3 1 .3 1.5-.3 1.1-.6 2.1-1.1 3.2-.4.8-.7 1.6-1.1 2.4-.6 1-1.1 2.1-1.7 3.1-.7 1-1.4 2.1-2 3.1-1 1.6-2.1 3.2-3.2 4.7-1.2 1.8-2.4 3.6-3.9 5.3-2.5 3.2-5.5 6.2-9 8.3-.7.5-1.4 1.2-2.3 1.3-2.1-.1-4.2-.8-6.1-1.7-1.1-.5-2.1-1.1-3.1-1.8-3.1-2-5.8-4.4-8.3-7.2-.9-1-1.8-1.9-2.6-2.9-1.2-1.5-2.5-3-3.5-4.7l-3.3-5.7c-.9-1.6-1.7-3.2-2.6-4.8-.4-.9-.8-1.7-1.3-2.6-.5-.7-.8-1.6-1.2-2.3-.5-.7-.5-1.6-.6-2.5-.2-1.8-.4-3.6-.7-5.4-.7-1.7-.9-3.3-1.2-5z"/><path fill="#e56324" d="M93 115.9c.3 0 .5-.2.8-.4 0 0 .1.1.1.2l-1.2 2.7c-.2.5-.5.9-.6 1.4.1.1.2.1.3.2-.4 0-.7-.2-1-.3-1.2-.3-2.4-.5-3.6-.6-1.1 0-2.3.2-3.4.3-.2 0-.3 0-.4-.2-.5-1-1-1.9-1.5-2.9-.1-.2-.1-.3-.1-.5.3-.1.5.1.7.3 1.3-.1 2.7.3 4 .5.4 0 .9.3 1.3.2.6-.1 1.3-.1 1.9-.2s1.2-.4 1.9-.3c.3-.1.5-.4.8-.4z"/><path fill="#7d8778" d="M108.7 29c.6.3.9.9 1.2 1.5.4.8.8 1.6.9 2.5.1 1.4-.1 2.9-.8 4.1-.9 1.7-2.3 3.1-3.9 4.3-1.2.9-2.4 1.8-3.6 2.6-.1.1-.2.1-.3.1 0-.1-.1-.1-.1-.2 1.6-1.1 3.1-2.2 4.6-3.5 1.4-1.3 2.7-2.8 3.3-4.7.3-1.2.5-2.5.1-3.7-.3-.9-.7-1.7-1.1-2.5-.1-.1-.1-.2-.1-.4l-.2-.1c0 .1 0 0 0 0z"/><path fill="#8c9688" d="M86 35.2c1.6-.7 3.2-1.4 5-1.4 1.1 0 2.2.4 2.8 1.3.4.8.6 1.8.5 2.7-.2 1.2-.8 2.3-1.3 3.4-.5.9-.9 1.8-1.5 2.5v-.3c.4-.6.7-1.3 1-2 .7-1.5 1.5-3 1.4-4.7-.1-.8-.3-1.6-1-2-.5-.4-1.2-.5-1.9-.5-1.4 0-2.7.5-4 1.1-1.5.6-2.8 1.4-4.1 2.3h-.3c.1-.2.2-.3.4-.4.9-.8 1.9-1.5 3-2z"/><path fill="#959e91" d="M69.3 37.4c1.3-.7 2.6-1.3 4-1.4 1.8-.2 3.7.2 5.4 1 1 .5 2 1.2 2.3 2.3h-.2c-.6-1-1.6-1.7-2.6-2.1-1.2-.5-2.4-.7-3.7-.8-1.8-.1-3.5.6-5 1.4-1.7.9-3.2 2.1-4.3 3.6-1.2 1.4-2.2 3-3 4.7 0-.1 0-.3-.1-.4v-.1c.8-1.6 1.8-3.2 2.9-4.6 1.1-1.5 2.6-2.7 4.3-3.6zm43.4-1.1h.2c0 .3 0 .5-.2.8-.7 1.5-1.7 2.8-3 3.8-1.4 1.1-2.8 2.1-4.4 3-.1.1-.3.1-.5.1.5-.4 1-.6 1.5-1 1.5-1.1 3.1-2.2 4.3-3.6.9-1.1 1.6-2 2.1-3.1z"/><path fill="#a6ada3" d="M67.5 43.3c2.1-2.3 5.1-3.8 8.2-4.1 1.2-.1 2.6-.1 3.4 1-.4 0-.7-.3-1-.4-.7-.3-1.5-.3-2.3-.2-2.2.3-4.4 1.1-6.2 2.5-1.1.8-2 1.7-2.8 2.8-2.3 2.9-3.8 6.3-5.2 9.7 0-.1 0-.3-.1-.4 0-.3.1-.5.2-.7 1.4-3.8 3.1-7.4 5.8-10.2zm31.6 2.4c1-.6 1.9-1.2 2.9-1.9 0 .1.1.1.1.2l.1.1c-.9.6-1.8 1.1-2.7 1.7-.1.1-.2.1-.4.1v-.2z"/><path fill="#b6bcb3" d="M61.5 46.5c.1-.3.2-.6.5-.8 0 .1 0 .3.1.4-.6 1.3-1.1 2.6-1.6 4-.6 1.7-1 3.5-1 5.3h-.2c0-.6.1-1.1.1-1.7.3-2.5 1.2-4.9 2.1-7.2zm-.2 7.8c0-.1.1-.2.2-.3 0 .1.1.3.1.4-.6 1.7-1.2 3.5-1.6 5.3-.1.4-.2.9-.4 1.3l-.1.1c0-.4.1-.8.2-1.2.3-2 .9-3.8 1.6-5.6z"/><path fill="#b95d38" d="M81.1 63.9h1.8c1.6-.1 3.2.2 4.9.4 1.1.2 2.2.3 3.3.5 1.4.2 2.9.4 4.3.3 1-.1 1.9-.3 2.8-.6.9-.3 1.8-.5 2.7-.7.5 0 1-.2 1.5-.4v-.3c-.7.2-1.4.2-2.1.4l.1.1c-.3 0-.6 0-1 .1-.7.2-1.5.3-2.2.4-1.5.3-3 .4-4.5.2-1.1-.1-2.2-.4-3.3-.5-2.5-.4-5-.8-7.6-.5-.8.1-1.6.2-2.4.4 0 .1 0 .2-.1.2.6.1 1.2.1 1.8 0zm21.8 2.5c-1.1.1-2.1.2-3.2.4-2.4.3-4.7.7-7.1.6-2.5-.1-5-.5-7.3-1.2-1.2-.4-2.5-.5-3.8-.5-1.1 0-2.3-.1-3.4.2-.3.1-.6.2-.8.4.3.2.6.1 1 .1l-.3-.1c2.6-.1 5.2-.1 7.6.7 2.2.6 4.4.9 6.6 1.2 1.9.2 3.8-.1 5.7-.5.9-.2 1.8-.3 2.7-.5.8-.1 1.5-.2 2.2-.4.1-.2.1-.3.1-.4zm-4.6 3.4c-.4-.1-.9.1-1.3.1-1.3.2-2.7.5-4 .3-2.4-.2-4.8-.8-7.2-1-1.2-.2-2.4-.1-3.6.1 0 .1 0 .2-.1.2.4.1.8.1 1.1.1.5 0 1.1 0 1.6.1 1 .1 2 .2 3 .4 1.8.3 3.6.6 5.4.8 1.8.1 3.4-.5 5.1-.8h.1c.6 0 1.2-.2 1.9-.4v-.2c-.7 0-1.5.2-2.2.3h.2z"/><path fill="#c5ccc2" d="M69.6 71.1c.6-.1 1.1-.1 1.7-.1.4 0 .8.2 1.2.3 1.8.3 3.4 1.2 4.9 2.2 1.9 1.2 3.5 2.8 5.2 4.2.6.5 1.2 1 1.6 1.6.4.5.7 1.2.6 1.9 0 .8-.5 1.4-.7 2.2h-.3c-.5-.6-1.3-1.1-1.8-1.6-1-1-2.3-1.8-3.5-2.6-1.6-1.2-3.4-2.2-5.3-2.8-1-.3-2.1-.5-3.2-.5-1-.1-2.1.2-3 .5s-1.7.9-2.6 1.4c-.5.3-.9.7-1.3 1-.2.2-.3-.1-.4-.2.5-.6.4-1.3.7-2s.5-1.4.9-2.1c.5-.8 1.1-1.6 1.8-2.2 1.1-.7 2.3-1 3.5-1.2z"/><path fill="#c4ccc2" d="M105.5 75.5c2.7-.5 5.5-.3 8.2.2 1 .2 2 .6 2.9 1.1.4.2.9.4 1.3.7.2.2.6.3.7.6-.6-.1-1.1-.2-1.7-.4-.7 0-1.5.1-2.2 0-1.3 0-2.6.1-3.9.3-1.5.2-3.1.6-4.6 1.1-2.7 1-5.3 2.2-7.9 3.5-1 .4-1.9 1-3 1.3-.3.1-.7.3-1 .5-.4 0-.4-.4-.4-.7 0-.5-.1-1.1 0-1.6.1-.9.4-1.9 1.1-2.6.6-.6 1.4-.8 2.1-1.2.8-.4 1.6-.6 2.4-.9 1.9-1 3.9-1.6 6-1.9z"/><path fill="#150f0c" d="M72.2 82.1c.3-.2.8 0 1 .3.2.4.2.8.2 1.2 0 .7 0 1.4-.4 2-.3.4-.9.6-1.3.3-.3-.3-.5-.7-.5-1.1-.1-.6 0-1.2.2-1.8.1-.4.5-.7.8-.9zm30.8 1.2c.5-.2 1.1.1 1.3.5.2.6.2 1.2.1 1.8-.1.4-.2 1-.7 1.2-.4.2-.8 0-1.2-.1-.5-.3-.6-1-.5-1.6.1-.7.3-1.5 1-1.8z"/><path fill="#b95d38" d="M62.4 80.8c-.9-.2-1.7-.6-2.5-1.2h-.3c.7 1.1 2 1.6 3.2 1.8 1.4.2 2.8.5 4.2.4v-.2c-1.5-.2-3.1-.5-4.6-.8zm1.5 2.3c.7 0 1.4 0 2-.2v-.3c-.8.2-1.6 0-2.5.1-1.4-.2-2.8 0-4.2-.2v.3c1.6.5 3.2.4 4.7.3zm-3.6 2.2v.3c.8 0 1.6-.1 2.3-.3l3.6-.9v-.3c-.1 0-.2-.1-.3-.1-1.8.3-3.7.8-5.6 1.3zm9.9 2c.9.3 1.8.5 2.7.6.8 0 1.6.1 2.3-.3v-.2c-.4 0-.9.2-1.3.1-1.6-.1-3.2-.7-4.7-1.1 0 0 0-.1-.1-.1 0 .1 0 .2-.1.2.3.4.8.7 1.2.8zm6.9.7c-.3.1-.6.1-.9.3-1.7.3-3.5.5-5.3.3-.7-.1-1.4-.3-2.1-.3v.3c1 .7 2.2.9 3.4.9 1.4 0 2.8-.3 4.1-.8.3-.1.8-.2.8-.7z"/><path fill="#fccab3" d="M67.4 89.6c.3 0 .5.1.8.1 1.3.3 2.7.4 4.1.6v.2c-1.6-.1-3.3-.1-4.8-.7 0-.1-.1-.2-.1-.2z"/><path fill="#f95939" d="M68.9 95.7c1.2-.2 2.7.6 2.9 1.9.1.8-.2 1.6-.7 2.2-.7.8-2 .9-2.9.6-.7-.2-1.3-.8-1.5-1.5-.2-.8.1-1.8.8-2.3.5-.3.8-.8 1.4-.9zm38.4.1c.6-.1 1.2 0 1.7.4.6.4.8 1 .9 1.7 0 .8-.4 1.6-1.1 2s-1.6.3-2.3 0c-.6-.3-1-.8-1-1.5-.1-1.1.7-2.3 1.8-2.6z"/><path fill="#b8a98a" d="M125.7 126.1c0-.2.3-.4.5-.3.1.1.1.3.1.4 0 1.3-.2 2.5-.4 3.8-.4 2.3-.7 4.5-1.4 6.7-.8 2.6-1.9 5.2-2.9 7.7-.8 2-1.8 3.8-2.8 5.7s-2.1 3.7-3.1 5.5c-.6 1-1.2 1.9-1.8 2.8-1.1 1.6-2.4 3-3.5 4.5-.9 1.2-1.9 2.3-3.1 3.2-.4.3-1.1.3-1.4-.1-1.1-1.5-2.2-3.1-3.4-4.5-.8-1-1.4-2.1-2.2-3.2-.6-.8-1.1-1.7-1.7-2.5-.6-.9-1.4-1.7-2.4-2.2-1.3-.1-2.5 0-3.8.2-.6.1-1.3 0-1.9.1s-1.3.1-1.9 0c-.2 0-.3.2-.5.3-.9.9-1.3 2.1-1.4 3.3-.1 1.3-.1 2.6-.2 3.9v4c-.1 1.3 0 2.6-.1 3.9 0 3.3-.1 6.6-.1 9.9 0 2.7-.2 5.5-.3 8.2 0 2.8-.1 5.6-.1 8.5 0 1.3-.1 2.7 0 4 .2.5.2 1.1.1 1.6 2.1.7 4.4.9 6.6 1.7.3.1.6.3.9.5v.2s-.1-.1-.2-.1c-.8 0-1.6-.1-2.3-.2-1.1-.1-2.2-.4-3.3-.7-.6-.1-1.2-.4-1.8-.5-.3-.1-.6-.2-.6-.5s.1-.7.1-1c-.1-1.1-.1-2.2 0-3.3-.1-1.6 0-3.2 0-4.8 0-2.9 0-5.8.2-8.7 0-1 0-1.9.1-2.9.1-3-.1-5.9 0-8.9 0-2.5.1-5 .2-7.5 0-1.2.2-2.5.1-3.7-.2-1-.1-2.1-.1-3.1 0-1.4.4-2.9 1.3-4 .3-.4.7-.6 1-1-1.3-.3-2.7-.8-3.9-1.4-.7-.3-1.4-.8-2.2-.9-.3 0-.5 0-.7.2-.7.6-1.5 1.2-2.1 1.9-1.5 1.5-3.1 3-4.6 4.4-1.3 1.2-2.4 2.5-3.6 3.7l-1.8 1.8c-.3.3-.8.4-1.1.7-.2.2-.6.1-.9.1-.5-.1-.8-.6-1.1-.9-1.2-1.3-2.3-2.8-3.4-4.3l-3.3-5.1c-.9-1.5-1.7-3-2.5-4.5l.5-.5c1 2 2.1 3.9 3.3 5.8 1.2 1.8 2.4 3.7 3.7 5.5.8 1.1 1.7 2.2 2.6 3.3.2.3.6.3.9.1.2-.1.4-.1.5-.2-.1.1-.1.3-.2.4.5-.2.7-.8 1-1.1 1.4-1.3 2.7-2.7 3.9-4.1.7-.7 1.5-1.4 2.2-2.1 1.2-1.2 2.4-2.3 3.5-3.5.4-.4.8-.8 1.2-1.1.5-.4.9-1 1.6-1 1-.1 1.9.5 2.7.9 1.1.6 2.3 1 3.5 1.3.3.1.5.3.8.4.6-.3 1.1-.6 1.7-.8.5-.2 1-.4 1.4-.7.6-.4 1.2-.9 1.9-1-.3.5-.8.7-1.2 1.2-.4.5-1.1.7-1.7 1-.5.2-1 .6-1.5.8-.1.1-.3.2-.4.2.5 0 1 .1 1.5-.1.5-.1 1-.1 1.5-.2 1.2-.3 2.5-.2 3.8-.3.6 0 1.1.5 1.6.8.9.6 1.5 1.6 2.2 2.5.7 1 1.4 2 2 3 1.1 1.8 2.5 3.4 3.6 5.2.4.5.7 1.1 1.1 1.5.7-.4 1.2-1 1.8-1.5.9-.9 1.6-1.9 2.5-2.9.7-.9 1.5-1.8 2.2-2.7.6-.9 1.3-1.8 1.8-2.7 1-1.7 2-3.4 3-5.2.9-1.8 1.9-3.5 2.7-5.3 1.2-2.9 2.5-5.9 3.4-9 .7-2.6 1.1-5.3 1.5-8 .5-1 .6-1.7.6-2.5z"/><path fill="#baac8e" d="M50.3 126.3h.3c.1 1.2.2 2.5.5 3.7.5 2.2 1.1 4.4 1.8 6.5.8 2.4 1.6 4.8 2.6 7.1.6 1.6 1.4 3.1 2.2 4.6l-.5.5c-1-1.9-1.9-3.8-2.7-5.8-.9-2.2-1.6-4.5-2.3-6.7-.6-1.9-1.2-3.9-1.6-5.8-.3-1.2-.4-2.7-.3-4.1z"/><path fill="#b95d38" d="M111 82.9c1.7-.2 3.4-.9 4.9-1.7.7-.4 1.3-.7 1.9-1.2v-.3c-.4.2-.7.5-1.2.7-2.3 1.1-4.8 2-7.3 2.5.6.1 1.2 0 1.7 0zm6.6-.4c-.6 0-1.2.3-1.8.4-1.7.4-3.3.7-5 1.1 0 .1 0 .2.1.2 1.2.2 2.5 0 3.6-.3 1-.3 2-.6 2.9-1 .3 0 .6-.2.7-.5-.3 0-.5 0-.8.1h.3zm-42.9 34.9c.1.9.4 1.6.5 2.4.1.2 0 .5.3.7-.1-1.2-.3-2.4-.5-3.6l-.1.1c0-.8-.3-1.6-.3-2.4-.3-2.6.2-5.4 1.7-7.6.5-.8 1-1.6 1.6-2.3.9-1.3 2-2.5 3-3.7v1.2c.4.4.6.9 1.1 1.2.5.3.8.9 1.3 1.3.7.4 1.2.9 1.9 1.4.7.5 1.6.8 2.4 1.1.9.2 1.9.5 2.8.1v.2h-.1c0 .7 0 1.5.2 2.2.1.5.2.9.3 1.4v-.1c-.9-.1-1.8-.1-2.7.1-.9.2-1.8-.1-2.7-.1v-2.7c0-.7 0-1.3-.1-2h-.2c-.2.7-.1 1.5-.1 2.2 0 .8-.1 1.7.2 2.5-2 0-3.9.5-5.8.5h-1.7c-.2 0-.5-.1-.7.2-.2 0-.4.1-.6.2 1 .4 2.1.5 3.2.6 2.7.4 5.5.7 8.3.6 1.6-.1 3.2 0 4.8-.4 1.7-.3 3.4-.5 5.1-.8l1.8-.3c.2 0 .3-.2.5-.4-.2 0-.4-.1-.6-.1-.9-.2-1.9.1-2.8.1-1 0-2 .2-3 .1-.7-.1-1.4 0-2.1-.2-.1-1.2-.2-2.4-.5-3.6h-.2l.1-.1h-.3c.1-.2.3-.2.5-.3.7-.3 1.3-.8 1.9-1.2.6-.4 1.2-.8 1.7-1.3.6-.4 1.2-.9 1.7-1.4.4-.5.5-1.3.4-1.9.8 1.1 1.8 2.1 2.4 3.3.4.8.8 1.6 1.2 2.3.5 1.1.9 2.2 1.1 3.4.4 1.3.4 2.7.3 4.1-.1 1.3-.4 2.5-.6 3.8-.4 1-.5 2.2-1.1 3.2h.2c.3-.4.5-.8.6-1.3.2-.5.4-.9.5-1.4.5-1.3.8-2.8.9-4.2.1-2.3-.2-4.5-1.1-6.6-.2-.4-.3-.9-.5-1.3-.1-.7-.5-1.3-.8-2-.3-.9-.9-1.6-1.5-2.4-.7-.9-1.5-1.8-2.4-2.6-.6-.8-.9-1.7-1.4-2.6-.4-.6-.4-1.4-.5-2.2-.1-.8-.2-1.5-.3-2.3v-2.9c.1-1.8.4-3.6.9-5.4-.4 0-.4-.4-.4-.7-.2.7-.4 1.4-.6 2.2-.5 2.3-.5 4.6-.6 6.9 0 .9.2 1.7.2 2.6 0 .4.3.6.4.9.3.9.6 1.7.9 2.5.4.8.8 1.6 1.1 2.4.3.7 0 1.6-.7 2.1-.3.3-.5.7-.8.9-.7.3-1.3.9-2 1.3s-1.4.9-2.1 1.2c-.6.2-1.1 0-1.7 0-.6-.1-1.2-.4-1.8-.6-1.1-.5-1.9-1.4-2.9-1.9v-.3c-.7-.4-1.2-1-1.7-1.7-.3-.5-.1-1.2.1-1.7.5-1 1.1-1.9 1.8-2.8.4-.5.7-1.1 1-1.7v-.1l.1.1c.8-2.5.7-5.1.7-7.7 0-.6-.1-1.1-.3-1.6-.1-.3-.1-.8-.4-.9-.1.5 0 1.1.1 1.6.2.8.1 1.6.1 2.3 0 1.3-.1 2.7-.2 4-.1.8-.3 1.6-.5 2.3-.8 1.3-1.8 2.4-2.8 3.6-.9.9-1.8 1.9-2.6 2.9-.6.8-1.4 1.6-1.9 2.6-.7 1.2-1.5 2.4-2 3.8-.5 1.2-.7 2.5-.8 3.8 0 .9-.1 1.9.1 2.8-.2.7 0 1.4.1 2.1zM114 85.3c-1.3 0-2.5.1-3.8.1v.2c1.3.4 2.7.1 4.1.1.7-.1 1.5 0 2.2-.3v-.3c-.9.3-1.7.2-2.5.2zm-8.9 3.2c.7-.1 1.5-.1 2.2-.5v-.3c-1.4.4-2.9.3-4.3.2-.9 0-1.9-.2-2.8-.1v.2c1.5.6 3.2.5 4.9.5zm.5 1.3c.7-.2 1.5-.3 2.2-.6v-.4c-1.9.3-3.9.5-5.9.5-1.1 0-2.1-.3-3.2-.3v.2c2.2 1.1 4.6 1.2 6.9.6z"/><path fill="#b95d38" d="M89.4 98.9c.1-.9.1-1.8.2-2.7 0-.8.1-1.6-.1-2.3h-.3c-.1 1.8-.1 3.5-.1 5.3 0 .4-.2.8-.2 1.2h.2c.2-.5.3-1 .3-1.5zm17.8 14h.2c.2-.4.3-.8.4-1.2.7-2.6 1.6-5.1 2.6-7.6.7-1.8 1.6-3.6 2.3-5.5.4-.9.7-2 .4-3h-.3c-.2.7-.4 1.4-.7 2.1-1 2.3-2.1 4.5-2.9 6.8-.7 2-1.2 4-1.7 6-.1.9-.3 1.6-.3 2.4zm-40.5-10.3c1.4 2.4 2.6 4.9 3.4 7.5.1.3.1 1 .6.8-.1-1.5-.6-2.9-1.1-4.3-.5-1.7-1.2-3.3-2.1-4.8-.6-.9-1.3-1.7-1.9-2.6-.6-.8-1-1.7-1.3-2.7h-.4c-.2 1.3.4 2.4 1 3.4.5 1 1.3 1.8 1.8 2.7zm51.9-4.1s-.1 0 0 0c-1 3-2.2 5.9-3.7 8.7-1.2 2.2-2.4 4.5-3.5 6.7-.2.5-.5.9-.6 1.4l-.1-.1c-.4.8-.8 1.6-1.1 2.4h.3c.3-.6.5-1.1.8-1.7.1-.3.3-.6.4-.9.3-.4.5-1 .8-1.4 1.2-2.3 2.5-4.5 3.8-6.8 1-1.9 1.9-3.9 2.6-6 .1-.7.3-1.5.3-2.3zm-51.4 17.2c.4.7.7 1.5 1.1 2.2.2.8.6 1.5.9 2.2h.3l-.9-2.4-.1.1c0-.2-.1-.4-.2-.6-1.4-3.1-2.6-6.2-4.3-9.2-.8-1.4-1.6-2.6-2.3-4-.6-1.4-1.3-2.7-1.8-4.1-.3-.8-.5-1.6-.6-2.5 0-.3 0-.7-.3-.7v.7c0 .1.1.2.1.2.1.9.2 1.8.5 2.6.5 1.5 1.1 3 1.7 4.4.7 1.4 1.5 2.7 2.3 4 1.3 2.3 2.5 4.7 3.6 7.1z"/><path fill="#b95d38" d="M115.1 114.1c-.4.7-1 1.3-1.5 1.9-.8 1-1.5 2.1-2.3 3.2-1.8 2.5-3.7 4.8-5.7 7.1-.7.8-1.4 1.5-2.2 2.2-1.5 1.3-3 2.5-4.8 3.5-1 .5-2.1.7-3.2 1.1-.8.3-1.6.4-2.4.6-.6.2-1.1.3-1.7.4-.4.1-.8 0-1.2 0-.7 0-1.4-.1-2.1-.2-1.3-.2-2.7-.4-4-.8-3.2-.8-6-2.5-8.6-4.4-1.4-1.2-2.8-2.4-4-3.8-1.5-2-3-4-4.3-6.2-1.1-1.7-2.2-3.6-3.2-5.4-.3-.5-.5-1-.8-1.4-.5-.8-.9-1.6-1.7-2.2v.3c.7 1.2 1.3 2.5 2 3.8.9 1.7 1.8 3.5 2.9 5.1 1.1 1.8 2.4 3.6 3.7 5.3 1.1 1.6 2.4 2.9 3.8 4.2s3.1 2.3 4.8 3.3c2.1 1.3 4.5 2 6.9 2.5 1.3.2 2.5.4 3.8.5 2.5.1 5.1-.2 7.4-1.1 2.2-.8 4.2-2 6.1-3.5.8-.6 1.4-1.4 2.2-2.1.7-.6 1.2-1.2 1.8-1.9 2.2-2.4 4.3-4.9 6-7.7.6-1 1.2-1.9 1.8-2.8.2-.4.5-.7.6-1.1.3-.2.4-.6.5-.9h-.3c-.1.1-.2.3-.3.5z"/><path fill="#b95d38" d="M91.7 116.6c1-.2 2-.7 3-1.1-1.4.2-2.8.3-4.2.6-2 .3-4 .2-5.9-.1-1 0-1.9-.1-2.9-.1.6.1 1.1.3 1.6.4 2.7.7 5.7 1 8.4.3zm17.7 8.8c-.6 1.1-1.2 2.1-1.6 3.2-.9 2.4-1.7 4.8-2.7 7.2-.9 2-1.8 4-3.1 5.7v-.1l-.4.4v.3h.3c.3-.3.6-.5.8-.9.2-.2.3-.4.5-.6 1.1-1.6 2-3.5 2.8-5.3 1-2.2 1.8-4.6 2.6-6.9.3-.9.7-1.9 1.1-2.7.2-.4.4-.8.4-1.2-.3.2-.5.6-.7.9zm-35.7 4.5h-.3c.1.6.3 1.2.5 1.8 1.3 3.7 3.4 7.1 5.9 10.1h.3c-2.1-2.6-3.7-5.6-5.1-8.6-.4-1.1-.8-2.2-1.3-3.3zm29.6 2.3c.2-.3.2-.7.3-1.1h-.3c-.1.2-.1.3-.2.5-.7 2-1.7 3.9-2.6 5.8-1.1 2.5-2.3 4.9-3.2 7.4v.4h.2c.6-1.2 1.1-2.5 1.8-3.7 1.1-2.3 2.3-4.5 3.3-6.8.2-.8.5-1.6.7-2.5zm-17.2.5c2 .5 4.1.6 6.1.3 1-.1 1.9-.5 2.8-.9.7-.1 1.3-.5 1.9-.8v-.2c-.6.3-1.2.5-1.9.7l.1.1c-.4 0-.9.2-1.3.2-.7.1-1.3.3-2 .4-1.3.2-2.7.2-4 .1-.5 0-.9-.2-1.4-.1-.2-.1-.4-.1-.6-.2-.6-.1-1.1-.4-1.7-.5v.3c.6.1 1.3.5 2 .6zm-14 1.9c0-.4-.3-.8-.4-1.2-.6-1.5-1.1-3-1.6-4.5-.7-2-1.8-3.8-2.6-5.7 0-.2-.1-.4-.2-.6H67c0 .3.1.6.1.9l.1-.1c0 .4.2.7.3 1.1.3 1 .8 1.9 1.2 2.8.9 2.3 1.9 4.5 2.9 6.8.2.7.6 1.3.9 2h.3c-.2-.5-.4-1-.7-1.5z"/><path fill="#d6cebc" d="M89.8 153.2c.8.1 1.6-.2 2.4-.2 0 0 .1.1.1.2-.5.1-1 .1-1.5.2s-1 .1-1.5.1c.3-.2.4-.2.5-.3z"/><path fill="#b6a787" d="M88.9 156.9c.4-.3.7-.9 1.2-.9s.8.4.9.8c.4.9-.2 2-1.2 2.1-.5 0-.9-.4-1.3-.6.1-.4 0-1 .4-1.4z"/><path fill="#d1c8b4" d="M68.3 163c.3-.4.9-.7 1.4-.9-.4.4-.5.9-1 1.1.1-.1.1-.3.2-.4-.2 0-.4.1-.6.2z"/><path fill="#bbae90" d="m133.4 168.6.3-.3c0 .6-.4 1.1-.6 1.6-1 1.9-2.7 3.3-4.2 4.8-1.3 1.3-2.6 2.7-3.7 4.2-.4.5-.7.9-1.1 1.4-.1.1-.3.1-.4.1.1-.3.4-.6.5-.9 1-1.6 2.3-3.1 3.6-4.6 1.3-1.4 2.8-2.6 4-4.1.7-.7 1.1-1.5 1.6-2.2z"/><path fill="#b6a787" d="M90.4 168.7c.6-.1 1.1.4 1.2 1 0 .6-.2 1.4-.9 1.7-.6.2-1.3-.2-1.4-.9-.1-.8.2-1.8 1.1-1.8z"/><path fill="#b8a98a" d="M37.3 169.1s.1 0 .2.1c.4.8.7 1.7 1.1 2.5 1 1.7 2.2 3.2 3.3 4.8 1.2 1.6 2.3 3.4 3.2 5.2.5 1 .8 2.2.9 3.3h-.4c-.2-1-.5-2.1-1-3-1.8-3.4-4.5-6.1-6.3-9.4-.5-1.1-1-2.3-1-3.5z"/><path fill="#b6a787" d="M90.4 181.6c.6-.1 1.2.6 1.1 1.2-.1.4-.3.9-.8 1-.4.1-.8 0-1.1-.3-.4-.7-.1-1.9.8-1.9z"/><path fill="#bdb093" d="M33.4 194.3h.3c.3 1 .5 1.9.7 2.9.6 2.5 1.4 5 2.8 7.2.2.3.5.6.4.9h-.3c-1-1.3-1.9-2.8-2.5-4.3-.5-1.4-1-2.7-1.2-4.2 0-.8-.3-1.7-.2-2.5z"/><path fill="#b6a787" d="M90.2 195.2c.5-.2 1.2.2 1.2.8.1.7-.8 1.5-1.5 1.1-.8-.5-.5-1.7.3-1.9z"/></g></svg>