<?xml version="1.0" encoding="utf-8"?>
<!-- Generator: Adobe Illustrator 25.2.0, SVG Export Plug-In . SVG Version: 6.00 Build 0)  -->
<svg version="1.1" id="Layer_1" xmlns="http://www.w3.org/2000/svg" xmlns:xlink="http://www.w3.org/1999/xlink" x="0px" y="0px"
	 viewBox="0 0 2490 2500" style="enable-background:new 0 0 2490 2500;" xml:space="preserve">
<style type="text/css">
	.st0{fill:#06B6D4;}
</style>
<path class="st0" d="M1245.1,503.3c-332,0-539.4,165.9-622.4,497.8c124.5-165.9,269.7-228.1,435.7-186.7
	c94.7,23.7,162.4,92.4,237.3,168.4c122,123.8,263.3,267.2,571.9,267.2c331.9,0,539.4-165.9,622.4-497.8
	c-124.5,165.9-269.7,228.2-435.7,186.7c-94.7-23.7-162.4-92.4-237.3-168.4C1694.9,646.6,1553.6,503.3,1245.1,503.3L1245.1,503.3z
	 M622.6,1250c-331.9,0-539.4,165.9-622.4,497.8c124.5-165.9,269.7-228.2,435.7-186.7c94.7,23.7,162.4,92.4,237.3,168.4
	c122,123.8,263.3,267.2,571.9,267.2c332,0,539.4-165.9,622.4-497.8c-124.5,165.9-269.7,228.2-435.7,186.7
	c-94.7-23.6-162.4-92.4-237.3-168.4C1072.5,1393.4,931.2,1250,622.6,1250L622.6,1250z"/>
</svg>
