<svg xml:space="preserve" enable-background="new 0 0 2490 2500" viewBox="0 0 2490 2500" xmlns="http://www.w3.org/2000/svg"><linearGradient id="a" x1="1889.459" x2="1890.044" y1="-1.033" y2="-.326" gradientTransform="matrix(2454.3228 0 0 2187.2434 -4636764 2287.888)" gradientUnits="userSpaceOnUse"><stop offset="0" stop-color="#41d1ff"/><stop offset="1" stop-color="#bd34fe"/></linearGradient><path fill="url(#a)" d="M2464.1 381.6 1311.2 2443.2c-23.8 42.6-85 42.8-109.1.5L26.3 381.8C0 335.6 39.5 279.7 91.8 289.1L1246 495.4c7.4 1.3 14.9 1.3 22.3 0l1130-206c52-9.5 91.7 45.9 65.8 92.2z"/><linearGradient id="b" x1="1888.791" x2="1888.86" y1="-.955" y2="-.087" gradientTransform="matrix(1125.4194 0 0 2051.6592 -2124289.75 2017.48)" gradientUnits="userSpaceOnUse"><stop offset="0" stop-color="#ffea83"/><stop offset=".083" stop-color="#ffdd35"/><stop offset="1" stop-color="#ffa800"/></linearGradient><path fill="url(#b)" d="M1795.7 18.5 942.5 185.7c-14 2.7-24.4 14.6-25.3 28.9L864.8 1101c-1 17.3 12.1 32.1 29.4 33.1 3 .2 6-.1 8.9-.7l237.5-54.8c22.2-5.1 42.3 14.4 37.7 36.8l-70.6 345.6c-4.7 23.3 17.1 43.1 39.8 36.2l146.7-44.6c22.7-6.9 44.6 13 39.8 36.3l-112 542.8c-7 34 38.1 52.5 57 23.4l12.6-19.4 695.2-1387.5c11.6-23.2-8.4-49.7-33.9-44.8l-244.5 47.2c-23 4.4-42.5-17-36-39.4L1832 58c6.3-22.6-13.3-44-36.3-39.5z"/></svg>