<?xml version="1.0" encoding="utf-8"?>
<!-- Generator: Adobe Illustrator 25.2.0, SVG Export Plug-In . SVG Version: 6.00 Build 0)  -->
<svg version="1.1" id="Layer_1" xmlns="http://www.w3.org/2000/svg" xmlns:xlink="http://www.w3.org/1999/xlink" x="0px" y="0px"
	 viewBox="0 0 2490 2500" style="enable-background:new 0 0 2490 2500;" xml:space="preserve">
<style type="text/css">
	.st0{fill:url(#SVGID_1_);}
	.st1{fill:url(#SVGID_2_);}
</style>
<linearGradient id="SVGID_1_" gradientUnits="userSpaceOnUse" x1="1889.4589" y1="-1.033" x2="1890.0436" y2="-0.3255" gradientTransform="matrix(2454.3228 0 0 2187.2434 -4636764 2287.8877)">
	<stop  offset="0" style="stop-color:#41D1FF"/>
	<stop  offset="1" style="stop-color:#BD34FE"/>
</linearGradient>
<path class="st0" d="M2464.1,381.6L1311.2,2443.2c-23.8,42.6-85,42.8-109.1,0.5L26.3,381.8C0,335.6,39.5,279.7,91.8,289.1
	L1246,495.4c7.4,1.3,14.9,1.3,22.3,0l1130-206C2450.3,279.9,2490,335.3,2464.1,381.6z"/>
<linearGradient id="SVGID_2_" gradientUnits="userSpaceOnUse" x1="1888.7906" y1="-0.9549" x2="1888.8601" y2="-8.714257e-02" gradientTransform="matrix(1125.4194 0 0 2051.6592 -2124289.75 2017.4805)">
	<stop  offset="0" style="stop-color:#FFEA83"/>
	<stop  offset="8.299999e-02" style="stop-color:#FFDD35"/>
	<stop  offset="1" style="stop-color:#FFA800"/>
</linearGradient>
<path class="st1" d="M1795.7,18.5L942.5,185.7c-14,2.7-24.4,14.6-25.3,28.9L864.8,1101c-1,17.3,12.1,32.1,29.4,33.1
	c3,0.2,6-0.1,8.9-0.7l237.5-54.8c22.2-5.1,42.3,14.4,37.7,36.8l-70.6,345.6c-4.7,23.3,17.1,43.1,39.8,36.2l146.7-44.6
	c22.7-6.9,44.6,13,39.8,36.3l-112,542.8c-7,34,38.1,52.5,57,23.4l12.6-19.4l695.2-1387.5c11.6-23.2-8.4-49.7-33.9-44.8l-244.5,47.2
	c-23,4.4-42.5-17-36-39.4L1832,58C1838.3,35.4,1818.7,14,1795.7,18.5L1795.7,18.5z"/>
</svg>
