<?xml version="1.0" encoding="utf-8"?>
<!-- Generator: Adobe Illustrator 25.2.0, SVG Export Plug-In . SVG Version: 6.00 Build 0)  -->
<svg version="1.1" id="Layer_1" xmlns="http://www.w3.org/2000/svg" xmlns:xlink="http://www.w3.org/1999/xlink" x="0px" y="0px"
	 viewBox="0 0 149.4 149.4" style="enable-background:new 0 0 149.4 149.4;" xml:space="preserve">
<style type="text/css">
	.st0{fill-rule:evenodd;clip-rule:evenodd;fill:#14B8A6;}
	.st1{fill-rule:evenodd;clip-rule:evenodd;fill:#FFFFFF;}
</style>
<g>
	<path class="st0" d="M38.7,0.9L38.7,0.9L38.7,0.9z M35.5,28.7c-0.5,1.9-0.3,4,0.8,5.9l32.3,55.9l17.9-10.4l-46-79.6
		c-0.5-0.8-1.7-0.5-1.8,0.4C42.2,16.1,35.5,28.5,35.5,28.7z"/>
	<path class="st0" d="M90.6,81.7c3.4,6,7.3,12,13.7,14.5c2,0.8,3.9,1.2,5.7,1.3v0l0.2,0v0l0.1,0l5.1,0.1l-2,4.7
		c-0.5,1.1-0.9,2.4-1.2,3.7c-0.3,1.4-0.6,2.9-0.7,4.4v0c-0.4,3.8-0.2,7.8,0.3,11.6h0.7c9.3,0,16.9-7.6,16.9-16.9V29.4
		c0-9.3-7.6-16.9-16.9-16.9H51.4L90.6,81.7z"/>
	<path class="st0" d="M36.1,12.5c-9,0.4-16.2,7.8-16.2,16.9v75.8c0,9.3,7.6,16.9,16.9,16.9h33.6l1.2-2.2l0.1-0.2l0,0l0.1-0.1l0,0
		c0.9-1.6,1.5-3.5,1.8-5.6c1.3-8-1.8-12.4-5.7-19.1L33.2,36.3v0c-0.8-1.3-1.2-2.7-1.4-4.1c-0.2-1.5-0.1-2.9,0.2-4.3l0,0
		c0.1-0.4,0.2-0.5,0.3-0.8C32.8,26.2,35.6,20.4,36.1,12.5z"/>
	<path class="st0" d="M40.5,0.5l-0.2-0.3L40.5,0.5L40.5,0.5z M100.1,122.3v1.6h-1.4l14.5,25.1l-0.7,0.4c-4.3-5.7-8.9-10.7-13.5-14.9
		l2.8-1.6l-2.8,1.6c-5.1-4.5-10.2-8-15.2-10.2c-3.1-1.4-6.2-2.3-9-2.7c0.1-0.1,0.1-0.2,0.2-0.3c2-3.8,2.9-8.9,2.2-14.3
		c-0.1-0.5-0.1-0.9-0.2-1.4c0,0,0,0,0,0c-0.8-4.6-2.7-8.7-5.2-11.6l16.2-9.3l-16.1,9.3c-0.8-0.9-1.7-1.8-2.6-2.5l0,0l0,0l18-10.4
		l0,0l0,0c0.6,4.6,3.5,9.7,8.3,13.7l1.1,0.9c4.5,3.4,9.5,5.2,13.9,5.3c-1.1,2.7-1.8,5.8-2.2,9.2c-1,10.3,1.5,23.6,7.4,37.4l-0.7,0.4
		L100.1,122.3L100.1,122.3z M102.4,117l3.7,2.6L102.4,117L102.4,117z M90.9,90.2c0.9,1.2,1.9,2.3,3,3.4
		C92.8,92.6,91.8,91.4,90.9,90.2L90.9,90.2z M95.3,94.9L95.3,94.9l0.2,0.1L95.3,94.9L95.3,94.9z M97.1,96.2c0.2,0.1,0.4,0.3,0.6,0.4
		C97.5,96.5,97.3,96.4,97.1,96.2L97.1,96.2z M97.7,96.7c2.1,1.4,4.2,2.4,6.3,3.2C101.9,99.1,99.7,98.1,97.7,96.7L97.7,96.7z
		 M110.3,101c-0.1,0.1-0.1,0.2-0.2,0.4C110.2,101.3,110.3,101.1,110.3,101L110.3,101z M110.2,101.4c0,0.1-0.1,0.2-0.1,0.3
		C110.1,101.6,110.1,101.5,110.2,101.4L110.2,101.4z M110,101.8c0,0.1-0.1,0.2-0.1,0.3C109.9,102,110,101.9,110,101.8L110,101.8z
		 M108,112.5c-0.2,4.6,0.2,9.7,1.3,15.1C108.3,122.7,107.8,117.5,108,112.5L108,112.5z M109.4,128c0,0.1,0.1,0.3,0.1,0.4
		C109.4,128.3,109.4,128.2,109.4,128L109.4,128z M39.8,0c-0.2,0-0.4,0-0.6,0.1c0,0-0.1,0-0.1,0.1C39.3,0,39.5,0,39.8,0z"/>
	<g>
		<path class="st1" d="M95.9,112.1c2.7,0,4.9,2.2,4.9,4.9c0,1.5-0.7,2.9-1.8,3.8c0,0,0.1,0,0.1-0.1l0.9,1.6v1.6h-1.4l-1.3-2.2l0.1,0
			c-0.5,0.2-1,0.3-1.6,0.3c-2.7,0-4.9-2.2-4.9-4.9C91.1,114.3,93.2,112.1,95.9,112.1L95.9,112.1z M99.1,120.8L99.1,120.8
			C99,120.9,99,120.8,99.1,120.8L99.1,120.8z M99,120.9c-0.1,0-0.1,0.1-0.2,0.1C98.9,121,98.9,120.9,99,120.9L99,120.9z M98.8,121
			C98.8,121,98.7,121.1,98.8,121C98.7,121.1,98.8,121,98.8,121L98.8,121z M98.7,121.1C98.7,121.1,98.6,121.1,98.7,121.1
			C98.6,121.1,98.7,121.1,98.7,121.1L98.7,121.1z M98.5,121.2c-0.1,0-0.1,0.1-0.2,0.1C98.4,121.3,98.4,121.3,98.5,121.2L98.5,121.2z
			 M98.3,121.3c0,0-0.1,0-0.1,0.1C98.2,121.4,98.2,121.4,98.3,121.3L98.3,121.3z M98.2,121.4C98.1,121.4,98.1,121.4,98.2,121.4
			C98.1,121.4,98.1,121.4,98.2,121.4L98.2,121.4z M98.1,121.4c-0.1,0-0.1,0.1-0.2,0.1C97.9,121.5,98,121.5,98.1,121.4L98.1,121.4z
			 M97.9,121.5c0,0-0.1,0-0.1,0C97.8,121.6,97.8,121.6,97.9,121.5L97.9,121.5z M97.7,121.6c0,0-0.1,0-0.1,0
			C97.7,121.6,97.7,121.6,97.7,121.6L97.7,121.6z M97.6,121.6l-0.1,0C97.6,121.7,97.6,121.6,97.6,121.6L97.6,121.6z M98.6,121.2
			L98.6,121.2C98.5,121.2,98.6,121.2,98.6,121.2z"/>
	</g>
</g>
</svg>
