<?xml version="1.0" encoding="utf-8"?>
<!-- Generator: Adobe Illustrator 25.2.0, SVG Export Plug-In . SVG Version: 6.00 Build 0)  -->
<svg version="1.1" id="Layer_1" xmlns="http://www.w3.org/2000/svg" xmlns:xlink="http://www.w3.org/1999/xlink" x="0px" y="0px"
	 viewBox="0 0 180 180" style="enable-background:new 0 0 180 180;" xml:space="preserve">
<style type="text/css">
	.st0{clip-path:url(#SVGID_2_);}
	.st1{fill:#4E3E37;}
	.st2{fill:#D0434E;}
	.st3{fill:#F2844F;}
	.st4{fill:#EF5E2E;}
	.st5{fill:#FBBB9E;}
	.st6{fill:#FCBD9F;}
	.st7{fill:#150F0C;}
	.st8{fill:#16100D;}
	.st9{fill:#FCB897;}
	.st10{fill:#CC492F;}
	.st11{fill:#FCC0A4;}
	.st12{fill:#B9603C;}
	.st13{fill:#F95939;}
	.st14{fill:#B75C37;}
	.st15{fill:#B95D38;}
	.st16{fill:#A33D29;}
	.st17{fill:#FB9F7D;}
	.st18{fill:#FCAA87;}
	.st19{fill:#9E313A;}
</style>
<g>
	<defs>
		<rect id="SVGID_1_" width="180" height="180"/>
	</defs>
	<use xlink:href="#SVGID_1_"  style="overflow:visible;fill:#EFAD29;"/>
	<clipPath id="SVGID_2_">
		<use xlink:href="#SVGID_1_"  style="overflow:visible;"/>
	</clipPath>
	<g class="st0">
		<g>
			<path class="st1" d="M113.6,20.4c1.9-0.2,3.8-0.3,5.7-0.1c1.7,0.2,3.3,0.4,4.9,1c1.6,0.6,3.1,1.5,4.4,2.5c0.8,0.7,1.7,1.3,2.6,2
				c0.8,0.6,1.6,1.3,2.5,2c1.8,1.4,3.4,3,4.8,4.8c1,1.2,1.6,2.6,2.5,3.9c0.8,1.2,1.2,2.6,1.9,3.9c0.8,1.7,1.5,3.4,2.1,5.2
				c0.9,2.6,1.3,5.4,1.2,8.1c0,1.4-0.1,2.7-0.2,4.1c-0.3,2.7-0.6,5.5-1.8,8c-0.8,1.5-1.9,2.7-3,3.9c-1.9,2.1-4.2,3.8-6.7,5
				c-1.3,0.6-2.6,0.9-4,1c-2.7,0.3-5.5,0.4-8.2,0c0,0.8,0.3,1.5,0.3,2.3c0.1,1.3,0.2,2.7-0.1,4c-0.8,3.2-2.1,6.2-3.5,9.1
				c-0.4,0.9-0.7,1.9-1.1,2.8c-0.4,1.1-0.8,2.1-1.1,3.3c-0.2,0.9-0.1,1.8,0.1,2.6c0.4,1.4,1.1,2.7,1.5,4.1c1,3.3,1,6.9,0.1,10.3
				c0.6,0.1,1.3,0.2,1.9,0.2c1.6-0.2,3.1-0.9,4.1-2.2c0.3-0.3,0.5-0.7,0.8-1c-0.2,1-0.4,2.1-1.3,2.8c-0.7,0.6-1.4,1.3-2.3,1.6
				c-1.2,0.5-2.6,0.6-3.9,0.2c-0.7,1.8-1.8,3.5-3,5c-0.5,0.6-1,1.1-1.4,1.7c-1,1.3-1.5,3-1.5,4.6c-0.5-1-0.7-2.1-0.4-3.2
				c0.6-1.9,1.7-3.7,2.8-5.4c0.7-1.1,1.1-2.2,1.5-3.4c-0.6-0.3-1.1-0.6-1.6-1c-0.5-0.5-1.1-0.9-1.5-1.5c-0.1,2.4-1.1,4.6-1.9,6.8
				c-0.3,0.7-0.6,1.4-0.8,2.2c-0.6,2.3-1,4.6-0.9,6.9c-0.4-0.8-0.3-1.7-0.6-2.5c-0.2-1.1-0.2-2.2-0.2-3.2c0-1.2,0.4-2.4,0.9-3.5
				c0.8-1.9,1.5-3.8,1.8-5.8c0.1-0.7,0.1-1.3,0.1-2c0-0.7,0.3-1.4,0.1-2.1c-0.2-0.6-0.2-1.3-0.2-1.9c-1,1.9-1.8,4-2.1,6.2
				c-0.2,1.3-0.6,2.6-0.7,3.9c-0.2,1.1,0,2.3-0.4,3.3c-0.1,0.3-0.5,0.3-0.8,0.1c-0.3-0.2-0.4-0.5-0.5-0.8c-0.5-1.1-1-2.3-1.6-3.4
				c-1-1.8-2.1-3.4-3.1-5.2c-0.9-1.7-1.9-3.4-2.9-5.1c-1.1-2-2.3-3.9-3.5-5.8c-1.4-2.1-2.9-4.1-4.5-6.1c-1.7-2.1-3.5-4.3-5.4-6.2
				c-2.1-2.2-4.4-4.4-6.6-6.4c-1.6-1.5-3.2-2.9-4.9-4.3c-1.7-1.3-3.4-2.6-5.2-3.8c-1.8-1.2-3.7-2.4-5.5-3.7
				c-0.8-0.6-1.7-1.2-2.5-1.9c-0.8-0.7-1.8-1.2-2.6-1.9c-0.5-0.4-1.4-0.3-1.2-1.2c0,0.6,0,1.2,0.1,1.8c0,0.1-0.1,0.2-0.1,0.3
				c-0.1,0-0.2,0-0.3,0c-0.3-1-0.3-2-0.3-3c0-1.1,0.2-2.2,0.5-3.2c0.5-1.9,1.2-3.8,2.1-5.5c1-2,2.2-3.8,3.6-5.5
				c1.1-1.4,2.6-2.5,4-3.6c1.5-1.2,3.2-2.2,5-3.1c1.9-0.9,3.8-1.7,5.8-2.4c4.2-1.5,8.5-2.4,13-2.5c1.5-0.1,3-0.1,4.5-0.1
				c-0.3-1-0.3-2.1-0.3-3.2c0.1-1.1,0.2-2.2,0.6-3.2c0.5-1.4,1.3-2.8,2.3-3.9c2.6-2.9,6-4.8,9.6-6.2
				C108.8,21.1,111.2,20.6,113.6,20.4z M115.1,102.7c-0.2,0.4-0.4,0.7-0.5,1.1c-0.5,0.9-0.5,2-0.7,2.9c-0.3,1.6-0.1,3.2,0.6,4.6
				c0.4,0.7,0.9,1.5,1.6,2c0.3-1.3,0.3-2.6,0.3-4c0-1.1-0.1-2.2-0.4-3.3C115.7,105,115.3,103.9,115.1,102.7z"/>
			<path class="st2" d="M170.4,219.7c-0.3-4.2-0.9-8.3-1.7-12.4c-0.7-3.7-1.8-7.3-2.9-10.9c-0.6-2.1-1.4-4.1-2.3-6.1
				c-0.9-2-1.9-4-3-5.9c-1.9-3.5-4.6-6.6-7.5-9.3c-1.1-1-2.3-2-3.5-3c-1.6-1.2-3.3-2.3-5-3.4c-2-1.3-4.2-2.4-6.2-3.7
				c-3.1-1.8-6.3-3.7-9.2-5.9c-1.1-0.8-2.1-1.5-3.1-2.4c-1.1-1-2.1-2.2-3.2-3.3c-1.6-1.8-3.2-3.6-4.6-5.6c-1-1.4-2-2.8-3-4.1
				c-0.6-0.8-1.3-1.6-2.3-2c-0.6-0.3-1.4-0.2-1.9,0.3c-0.3,0.3-0.7,0.5-0.7,0.9l-0.1,0c0-0.1-0.1-0.2-0.1-0.4c-0.2,0-0.4,0-0.7,0.1
				c-1.5,0.4-3.1,0.7-4.7,1c-0.9,0.3-1.8,0.5-2.7,0.7c-3.3,1-6.7,1.9-10,2.8c-2.4,0.6-4.8,1.3-7.2,1.9c-2.5,0.6-4.9,1.4-7.3,2.2
				c-1.8,0.6-3.7,1-5.4,1.7c-0.5,0.1-1,0.1-1.4,0.4c-0.7,0.5-1.2,1.1-1.9,1.6c-0.8,0.7-1.4,1.5-2.1,2.2c-1.4,1.4-2.8,2.7-4.5,3.8
				c-1.1,0.8-2.2,1.6-3.3,2.4c-1.3,0.9-2.6,1.9-4,2.8c-1.9,1.2-3.8,2.4-5.6,3.7c-1.9,1.3-3.9,2.6-5.8,3.9c-3.3,2.3-6.5,4.8-9.4,7.6
				c-1.1,1.1-2.3,2.2-3.4,3.3c-1.2,1.3-2.3,2.7-3.3,4.2c-1.1,1.7-2.1,3.4-2.9,5.3c-1,2.1-1.8,4.3-2.4,6.6c-0.7,2.2-1.1,4.4-1.5,6.7
				c-0.5,2.6-0.8,5.2-1.1,7.8c-0.2,1.5-0.3,2.9-0.4,4.4H170.4z"/>
		</g>
		<g>
			<path class="st3" d="M82.8,51.8c1.3,0,2.5-0.1,3.8,0c1.3,0,2.5,0.2,3.7,0.6c1.3,0.4,2.5,0.9,3.6,1.6c1.1,0.8,2.3,1.6,3.3,2.5
				c1,0.7,1.7,1.8,2.4,2.7c0.6,0.9,1.2,1.9,1.7,2.9c0.8,1.6,1.6,3.2,2.1,5c0.4,1.7,0.9,3.3,1.2,5c0.4,1.8,0.7,3.5,0.9,5.3
				c0.1,1.9,0.4,3.9,0.4,5.8c0,0.5-0.1,1,0,1.5c0,1.5-0.1,3.1-0.1,4.6c0.1,1.6,0.1,3.3,0.2,4.9c0.1,1.6,0.2,3.1,0.4,4.7
				c0,1,0.3,2,0.6,3c0.1,0,0.2,0,0.2,0c-0.1,1.1-0.1,2.2-0.1,3.3c0,0.8-0.1,1.7-0.1,2.5c0,0.8-0.1,1.7-0.1,2.5c0,1.6,0,3.2,0,4.8
				c0.2,3.6,0.1,7.2,0.6,10.8c0.4,3,0.8,5.9,1.6,8.8c0.4,1.6,0.6,3.2,1.2,4.7c0.3,1.1,0.6,2.3,1,3.4c0.4,1.3,0.9,2.6,1.5,3.8
				c-1.5,1.5-3.1,2.9-4.7,4.2c-0.9,0.8-1.9,1.3-2.8,2c-1.5,1-3,2.1-4.5,3c-2.1,1.4-4.4,2.4-6.5,3.8c-1.6,1-3.1,2.1-4.6,3.2
				c-1.5,1.1-3,2.2-4.4,3.5c-1.8,1.6-3.6,3.3-5.3,5.1c-1.4,1.4-2.8,2.9-4.1,4.4c-1,1.2-2.2,2.3-3.2,3.5c-0.2,0.2-0.7,0.4-0.9,0.1
				c-0.3-1.2-0.4-2.4-0.6-3.5c-0.4-1.9-0.3-3.7-0.6-5.6c-0.1-1.8-0.2-3.5-0.4-5.3c-0.2-1.2-0.2-2.3-0.3-3.5
				c-0.1-1.6-0.3-3.2-0.3-4.8c-0.2-0.1-0.2-0.3-0.1-0.5c0.7-1,1.1-2.2,1.4-3.4c0.1,0,0.2,0,0.3-0.1c1.5-1.1,3.1-2.1,4.6-3.3
				c1.7-1.3,3.3-2.8,4.9-4.3c2.2-2.1,4.1-4.6,5.7-7.2c0.6-0.9,1.1-2,1.7-3c1.3-2.3,2.5-4.7,3.5-7.1c0.8-1.9,1.6-3.8,2.3-5.8
				c0.4-1.1,0.8-2.2,1.2-3.3c0.2-0.5,0.4-1,0.4-1.6c0-0.3-0.4-0.4-0.5-0.2c-0.6,0.8-1.4,1.4-2.2,2c-1.8,1.4-3.5,2.7-5.3,4
				c-0.9,0.6-1.7,1.2-2.7,1.7c-1.5,0.8-3.1,1.6-4.8,2.2c-1.3,0.5-2.6,0.8-3.9,1.1c-0.9,0.2-1.8,0.2-2.6,0.2c-0.4,0-0.8,0-1.2,0.1
				c-1.2-0.2-2.4-0.6-3.5-1c-0.9-0.4-1.7-1-2.6-1.5c-1-0.6-1.8-1.5-2.6-2.3c-1.4-1.5-2.5-3.3-3.5-5.1c-0.7-1.4-1.5-2.9-2.2-4.3
				c-0.5-1.2-0.9-2.5-1.3-3.7c-0.7-2.1-1.3-4.3-1.7-6.5c-0.4-2.3-0.9-4.5-1.2-6.8c-0.2-1.3-0.3-2.6-0.5-3.9c-0.2-1.7-0.4-3.3-0.4-5
				c0-1.2,0-2.4,0.1-3.6c0-0.7,0-1.4,0.1-2.1c0-0.7,0.1-1.4,0.2-2.1c0.2-3.4,0.8-6.8,1.5-10.1c0.6-2.3,1.4-4.6,2.6-6.7
				c1-1.8,2.5-3.2,3.9-4.6c1-1.1,2.4-1.8,3.6-2.7c0,0,0.1-0.1,0.1-0.2c0.6-0.4,1.3-0.8,1.9-1.1c0.3-0.2,0.7-0.2,1-0.4
				c1.4-0.6,2.8-1.1,4.3-1.4c2.7-0.6,5.4-1,8.1-1.3C81.1,51.9,82,51.8,82.8,51.8z"/>
			<path class="st4" d="M113.9,77.8c1.5-0.3,3.1-0.1,4.5,0.4c1,0.3,2,0.8,2.8,1.5c1.4,1.3,2.4,3,2.6,4.9c0.2,0.9,0.1,1.9,0,2.9
				c-0.1,2.2-0.9,4.3-2.1,6.1c-1.1,1.8-2.6,3.4-4.2,4.9c-1.8,1.6-4.1,2.7-6.5,3c-1.2,0.1-2.5,0.2-3.7,0.2c0,0.1,0,0.3-0.1,0.4
				c-0.1,0-0.2,0-0.2,0c-0.3-1-0.6-2-0.6-3c-0.1-1.6-0.2-3.1-0.4-4.7c-0.1-1.6-0.2-3.3-0.2-4.9c0-1.5,0.1-3.1,0.1-4.6
				c0-0.3,0.1-0.5,0.2-0.7c0.5-0.9,0.9-1.8,1.6-2.6C109.6,79.9,111.6,78.3,113.9,77.8z"/>
			<path class="st4" d="M66.5,99.9c0.3,0,0.6,0.2,1,0.3c0.7,0.3,1.6,0.4,2.3,0.7c0.3,0.1,0.3,0.5,0.1,0.7c-0.5,0.8-1.1,1.5-1.7,2.2
				c-0.5,0.5-0.9,1-1.5,1.2c-0.3,0.1-0.7,0-0.8-0.3c-0.2-0.3-0.1-0.7,0-1.1c0-0.5,0.3-0.9,0.3-1.4c0-0.6,0.1-1.2,0.1-1.8
				C66.2,100.2,66.3,100,66.5,99.9z"/>
			<path class="st4" d="M65.6,115c0.7-0.1,1.3-0.3,2-0.3c1.5-0.1,3-0.1,4.5,0.2c0.2,0.1,0.2,0.4,0.3,0.5c0.1,0.2,0.7,0.1,0.7,0.4
				c-0.1,0-0.3,0-0.4,0c-0.1,0.1-0.1,0.2-0.2,0.3c-0.4,0.1-0.9,0.2-1.3,0.2c-1.3,0-2.6,0.1-3.9,0.4c-0.2,0.1-0.3,0-0.4-0.1
				c-0.3-0.4-0.8-0.7-0.9-1.2c-0.1-0.1-0.3-0.1-0.4-0.3C65.5,115.1,65.5,115,65.6,115z"/>
			<path class="st4" d="M94.9,117c0.1-0.2,0.5-0.1,0.5,0.2c0,0.6-0.2,1.1-0.4,1.6c-0.4,1.1-0.8,2.2-1.2,3.3
				c-0.7,1.9-1.5,3.9-2.3,5.8c-1.1,2.4-2.3,4.8-3.5,7.1c-0.5,1-1,2-1.7,3c-1.6,2.6-3.5,5-5.7,7.2c-1.6,1.5-3.2,2.9-4.9,4.3
				c-1.5,1.2-3,2.2-4.6,3.3c-0.1,0.1-0.2,0.1-0.3,0.1c0.5-2.5,0.8-5.1,0.9-7.6c0-0.6,0-1.2,0.1-1.8c0-2.1,0.4-4.1,0.5-6.2
				c0.1-1.1,0.1-2.1,0.1-3.2c0-1,0.2-1.9,0.2-2.9c0.1-0.8,0.1-1.6,0.3-2.4c0-0.1,0-0.2,0-0.3c-0.3,0-0.5,0-0.8,0
				c0.4-0.2,0.8-0.1,1.2-0.1c0.9,0,1.8,0,2.6-0.2c1.3-0.3,2.6-0.6,3.9-1.1c1.7-0.5,3.2-1.4,4.8-2.2c0.9-0.5,1.8-1.1,2.7-1.7
				c1.8-1.3,3.6-2.7,5.3-4C93.5,118.4,94.2,117.8,94.9,117z"/>
		</g>
		<g>
			<g>
				<path class="st5" d="M123.6,32.2c-0.6-0.8-1.5-1.5-2.2-2.2c0,0-0.1,0-0.2,0c-0.1-0.1-0.3-0.2-0.4-0.4c-1-0.8-2-1.5-3.1-2.2
					c-0.2-0.1-0.4-0.2-0.5-0.3c-0.8-0.4-1.6-0.8-2.4-1.1c-0.1,0-0.2-0.1-0.4-0.1c-0.9-0.3-1.8-0.4-2.7-0.3c0.4,0.2,0.8,0.2,1.3,0.4
					c0.4,0.1,0.8,0.3,1.2,0.4c0.1,0,0.2,0.1,0.4,0.1c0.7,0.2,1.3,0.5,1.9,0.9c0.2,0.1,0.4,0.2,0.5,0.3c1.2,0.6,2.2,1.4,3.3,2.1
					c0.2,0.1,0.4,0.2,0.6,0.4l-0.1,0c0.6,0.4,1.2,1,1.8,1.5c0.4,0.4,0.7,0.8,1.1,1.2C123.8,32.6,123.8,32.4,123.6,32.2z"/>
				<path class="st5" d="M93.8,47.6c-1.1-0.5-2.2-0.9-3.4-1.2c-0.2-0.1-0.4-0.1-0.5-0.2c0,0-0.1,0.1-0.1,0.1
					c-0.9-0.3-1.9-0.5-2.8-0.7c-0.9-0.2-1.8-0.3-2.7-0.5c-0.1,0-0.2,0.1-0.3,0.1c-0.3,0-0.5,0-0.8-0.1c-0.2,0-0.4,0.2-0.6,0.4
					c0.3,0,0.5,0,0.8,0c0,0,0.1,0,0.2-0.1c0.8,0.2,1.6,0.2,2.4,0.3c1.2,0.2,2.4,0.4,3.5,0.8l0.1,0c0.2,0.1,0.3,0.1,0.5,0.2
					c1.2,0.3,2.4,0.6,3.5,1.1c0.3,0.1,0.5,0.2,0.8,0.3C94.1,47.8,94,47.7,93.8,47.6z"/>
			</g>
			<path class="st6" d="M62.9,61.1c0.4-0.3,0.8-0.5,1.2-0.6c-0.1,0.2-0.2,0.3-0.3,0.5c-1.4,0.9-2.6,2.1-3.6,3.4
				c-0.4,0.5-0.6,1-1.1,1.4c0.1-0.8,0.5-1.4,1-2C60.9,62.7,61.9,61.9,62.9,61.1z"/>
			<path class="st1" d="M84.9,70.5c1.4-0.5,3-0.6,4.5-0.7c1.5,0,3,0.2,4.4,0.7c0.9,0.3,1.9,0.6,2.7,1.2c0.3,0.4,0.9,0.5,1.3,1
				c-1.8,0-3.5-0.2-5.3,0.1c-4.2,0.6-8.3,2.2-12.4,3.4c-0.9,0.3-1.9,0.5-2.9,0.6c-0.2,0-0.5,0-0.6-0.3c0-0.1,0.1-0.3,0.2-0.4
				c0.8-0.8,1.5-1.6,2.4-2.4C81,72.4,82.8,71.3,84.9,70.5z"/>
			<g>
				<path class="st7" d="M114.9,26c1-1.9,2.1-3.6,3.6-5.1c0-0.1-0.1-0.2-0.1-0.2c-0.6,0.4-1,0.9-1.5,1.4c-1,1.2-1.8,2.4-2.4,3.8
					C114.6,26,114.8,26,114.9,26z"/>
				<path class="st7" d="M122.2,25.7c0.7-0.9,1.4-1.8,2.2-2.7c0.2-0.2,0.4-0.5,0.5-0.8c-0.2,0.1-0.3,0.1-0.4,0.2
					c-0.8,0.7-1.5,1.5-2,2.4c-0.2,0.4-0.6,0.8-0.6,1.3C121.9,26,122.1,25.9,122.2,25.7z"/>
				<path class="st7" d="M117.3,27.1c0.2,0.1,0.4,0.2,0.5,0.3c1.1-0.3,2.3-0.5,3.5-0.7c1.9-0.3,3.8-0.2,5.6-0.2c1.8,0,3.5,0.4,5.2,1
					c0.1,0.1,0.3,0,0.4,0c-0.7-0.4-1.5-0.6-2.3-0.8c-0.6-0.2-1.2-0.2-1.8-0.3c0.4-0.4,0.9-0.7,1.2-1.2c-0.6,0.1-0.9,0.8-1.4,1.2
					c-0.8-0.1-1.7,0-2.5-0.1c-0.1,0-0.3-0.1-0.4-0.1c0.7-0.9,1.5-1.7,2.3-2.5c-0.5,0.1-0.9,0.5-1.3,0.8c-0.5,0.5-1,1.1-1.4,1.8
					c-1.2-0.1-2.5,0-3.7,0.1c-1.1,0.1-2.2,0.4-3.2,0.6c0-0.4,0.3-0.8,0.5-1.2c0.8-1.4,1.7-2.8,2.8-4c0.2-0.2,0.3-0.3,0.4-0.5
					c-0.7,0.3-1.1,0.9-1.6,1.4c-1.1,1.3-1.9,2.8-2.4,4.4C117.6,27.1,117.4,27.1,117.3,27.1z"/>
				<path class="st7" d="M113.5,28.4c0.1-0.1,0.3-0.2,0.4-0.3c0.3-0.5,0.5-1.1,0.7-1.6c-0.1,0-0.2-0.1-0.4-0.1
					C114,27,113.7,27.7,113.5,28.4z"/>
				<path class="st7" d="M102.4,32.2c-0.2,1.3-0.4,2.5-0.3,3.8c0,0.7,0,1.5,0.4,2.2c0-0.1,0.1-0.2,0.1-0.3c-0.1-1.3-0.2-2.5-0.1-3.8
					c0.2-1.7,0.5-3.5,1-5.2c0.5-1.7,1.2-3.3,2.2-4.8c0.3-0.4,0.6-0.8,0.8-1.3c-0.2,0-0.4,0.1-0.5,0.3c-0.7,0.9-1.3,1.9-1.8,2.9
					c-0.3,0.8-0.7,1.6-0.9,2.4C102.9,29.7,102.7,30.9,102.4,32.2z"/>
				<path class="st7" d="M126.4,29.4c-1.8,0-3.6-0.1-5.4,0.2c0.1,0.1,0.3,0.2,0.4,0.4c0,0,0.1,0,0.2,0c0.8-0.1,1.6-0.2,2.4-0.2
					c3.5-0.1,7,0.4,10.4,1.2c1,0.3,2,0.6,3.1,1c0-0.1,0-0.2-0.1-0.3c-1.5-0.8-3.1-1.2-4.8-1.5C130.5,29.8,128.4,29.5,126.4,29.4z"/>
				<path class="st7" d="M84.3,41.9c1.4-0.4,2.8-0.6,4.3-0.9c1.3-0.3,2.6-0.5,3.9-0.7c1.1-0.2,2.2-0.3,3.3-0.4c0.7,0,1.3-0.1,2-0.1
					c0-0.1,0-0.2,0-0.3c-0.8,0-1.6,0.2-2.5,0.1c-1.6,0.1-3.3,0.4-4.9,0.7c-1.3,0.2-2.5,0.5-3.8,0.7c-2.1,0.3-4.1,1-6.1,1.8
					c-1,0.4-2,0.9-2.9,1.5c-0.9,0.6-1.8,1.3-2.4,2.3c-0.9,1.4-1.3,3-1.6,4.6c-0.1,0.5,0,1,0,1.5c0.3-0.9,0.6-1.8,0.8-2.7
					c0.4-1.5,0.9-3.1,2.1-4.2c0.9-0.8,1.8-1.5,2.9-1.9C80.8,43,82.6,42.4,84.3,41.9z"/>
				<path class="st7" d="M78,41.7c-0.7,0.3-1.3,0.7-1.9,1.1c-1.5,1-3,2-4.2,3.2c-0.7,0.7-1.2,1.5-1.7,2.4c-0.7,1.1-1,2.4-1.3,3.7
					c-0.1,0.7-0.2,1.4,0,2.1c0.1,0,0.2,0,0.3,0c0.1-0.6,0.1-1.2,0.2-1.8c0.1-0.8,0.3-1.7,0.6-2.4c0.3-0.8,0.8-1.6,1.2-2.3
					c0.5-0.8,1.2-1.5,1.9-2.1c1.4-1.3,3-2.4,4.5-3.4C77.8,42.1,77.9,41.9,78,41.7z"/>
				<path class="st7" d="M66.3,48.8c-0.9,1.8-1.3,3.7-1.2,5.7c0.1,0.4,0.1,1,0.6,1.1c0-0.2,0-0.3-0.1-0.5c-0.2-1-0.1-1.9,0-2.9
					c0.1-1.1,0.5-2.1,0.9-3.1c0.6-1.3,1.2-2.6,2.1-3.8c-0.1,0-0.2,0-0.3,0C67.5,46.4,66.9,47.6,66.3,48.8z"/>
				<path class="st7" d="M79.9,47.7c-0.9,1.3-1.6,2.7-1.7,4.2c0.1,0,0.3,0,0.4-0.2c0.2-0.6,0.3-1.2,0.6-1.8c0.5-1,1.1-2,1.9-2.8
					c0.7-0.6,1.5-1.1,2.2-1.6c-0.3,0-0.5,0-0.8,0C81.5,46,80.6,46.8,79.9,47.7z"/>
				<path class="st7" d="M89.3,46.5c-0.3,0.2-0.6,0.4-0.9,0.6c-1.4,1-2.4,2.5-3.2,4.1c-0.1,0.2-0.1,0.5-0.1,0.8c0.4-0.5,0.6-1,1-1.5
					c0.5-0.9,1.1-1.7,1.8-2.3c0.6-0.6,1.3-1,1.9-1.5C89.8,46.6,89.6,46.5,89.3,46.5L89.3,46.5z"/>
				<path class="st7" d="M61.6,52.4c-0.5,1-0.7,2.2-0.8,3.3c-0.1,1-0.1,2.2,0.6,3c0.1,0,0.2,0,0.2,0c-0.2-0.6-0.4-1.2-0.4-1.8
					c-0.1-1,0-2.1,0.2-3.1c0.1-0.3,0.2-0.6,0.2-1c0.3-0.4,0.5-0.8,0.6-1.2C61.9,51.7,61.6,52.1,61.6,52.4z"/>
				<path class="st7" d="M108.9,53.1c1.9-0.6,3.8-0.9,5.8-1.1c0.6,0,1.3,0,1.9-0.1c0-0.1-0.1-0.2-0.1-0.2c-0.2,0-0.4,0-0.6,0
					c-0.8-0.1-1.6,0-2.3,0.1c-0.9,0.1-1.8,0.2-2.7,0.4c-1.9,0.3-3.7,1-5.4,1.7c-1.7,0.7-3.3,1.7-4.9,2.7c-0.5,0.3-1,0.7-1.3,1.2
					c0.1,0,0.2,0.1,0.2,0.1c1.7-1.2,3.4-2.3,5.3-3.2C106.1,54.1,107.5,53.6,108.9,53.1z"/>
				<path class="st7" d="M58.8,56.5c-0.4,0.3-0.5,0.9-0.6,1.3c-0.2,0.9,0,1.9,0.4,2.7c0.2,0.3,0.4,0.8,0.8,0.8c-0.7-0.8-1-1.9-1-2.9
					C58.4,57.8,58.6,57.1,58.8,56.5z"/>
				<path class="st7" d="M110.9,59.4c-1.8,0.6-3.5,1.6-5.2,2.5c-0.6,0.4-1.2,0.7-1.6,1.3c0.2,0,0.4,0,0.5-0.1
					c1.7-1.1,3.4-2.1,5.2-2.8c2.7-1.1,5.5-1.9,8.4-2.4c0.4-0.1,0.8-0.1,1.1-0.2c-1.4-0.2-2.7,0.2-4,0.4
					C113.8,58.4,112.4,58.9,110.9,59.4z"/>
				<path class="st7" d="M144.2,59.4c-0.9,0.7-1.9,1.3-2.8,1.9c-0.9,0.5-1.9,0.9-2.8,1.3c-1.1,0.5-2.4,0.9-3.6,1.2
					c-2.2,0.6-4.6,1.1-6.9,0.9c-1.6-0.1-3.1-0.5-4.6-1.2c-0.6-0.3-1.1-0.6-1.7-0.9c-0.1-0.5-0.2-1.1-0.3-1.6c0.2,0,0.4,0,0.6,0
					c0.9,0.6,2,0.7,3.1,0.8c2,0.3,3.9,0.1,5.9-0.4c2.4-0.5,4.7-1.4,6.9-2.5c1.2-0.6,2.3-1.4,3.4-2.2c1.1-0.8,2-1.8,2.8-2.9
					c0.5-0.7,1.2-1.3,1.6-2c-0.4,0.2-0.7,0.6-1,0.9c-0.9,0.9-1.8,1.9-2.7,2.9c-0.5,0.5-1,0.9-1.6,1.3c-0.9,0.7-1.9,1.3-2.9,1.9
					c-2.6,1.4-5.6,2.3-8.5,2.7c-2.2,0.3-4.5,0.1-6.6-0.6c-0.3-0.2-0.6-0.3-0.9-0.3c-0.2-0.9-0.4-1.8-0.8-2.6
					c0.3,0.1,0.6,0.2,0.9,0.3c1.3,0.4,2.6,0.7,3.9,0.8c1.2,0.1,2.3-0.1,3.5-0.3c1.4-0.2,2.9-0.5,4.3-1c2.8-1,5.5-2.5,8-4.3
					c1.5-1.1,2.9-2.6,3.7-4.4c0.2-0.5,0.5-1,0.7-1.6c-0.5,0.3-0.6,0.9-0.9,1.4c-1.2,2.1-3,3.9-5.1,5.2c-1.6,1-3.2,1.9-4.9,2.6
					c-2.3,1.1-4.9,1.6-7.4,1.9c-1.8,0.2-3.6-0.1-5.4-0.6c-0.4-0.1-0.8-0.3-1.3-0.4c-0.3-0.7-0.6-1.5-1-2.2c0.3-0.1,0.7,0,1,0.1
					c0.8,0.2,1.6,0.2,2.4,0.3c2.3-0.1,4.6-0.6,6.8-1.2c1.2-0.3,2.4-0.9,3.6-1.4c1.1-0.5,2-1.1,3-1.7c1.5-0.9,2.9-1.9,4.1-3.2
					c0.9-0.9,1.5-2.1,2.1-3.2c0.3-0.7,0.7-1.4,0.8-2.1c0.2-0.4,0.5-0.9,0.1-1.3c-0.1,0.4-0.2,0.8-0.3,1.2c-0.4,0.9-0.8,1.7-1.3,2.6
					c-0.5,0.9-1,1.8-1.7,2.5c-1.4,1.5-3.2,2.6-4.9,3.6c-1.5,0.9-3.2,1.7-4.8,2.3c-1.2,0.4-2.4,0.7-3.6,1c-1.8,0.5-3.7,0.6-5.6,0.3
					c-0.6-0.1-1.2-0.3-1.9-0.3c-0.2-0.4-0.4-0.9-0.6-1.3c0-0.1,0-0.2,0-0.2c1.3,0.3,2.7,0.4,4.1,0.3c1.4-0.2,2.7-0.3,4.1-0.7
					c1.2-0.3,2.3-0.8,3.4-1.2c0.9-0.4,1.8-0.9,2.7-1.4c0.7-0.4,1.5-0.8,2.1-1.3c0.8-0.6,1.7-1.1,2.4-1.9c0.9-0.9,1.6-1.9,2.1-3
					c0.8-1.7,1.4-3.5,1.4-5.4c-0.1,0-0.2,0-0.2,0c-0.2,1.5-0.7,3-1.2,4.4c-0.4,0.9-0.8,1.9-1.4,2.7c-0.6,0.8-1.3,1.5-2.1,2.1
					c-0.8,0.6-1.6,1.2-2.5,1.7c-1.1,0.6-2.2,1.3-3.4,1.8c-2,0.8-4,1.5-6.1,1.8c-1.9,0.3-3.7,0.2-5.6,0c-0.2-0.4-0.4-0.7-0.6-1.1
					c0.8-0.2,1.7,0,2.5,0c1.7,0,3.4-0.1,5-0.7c0.8-0.3,1.7-0.5,2.4-0.9c1.3-0.5,2.5-1.2,3.6-2c1.5-1,2.7-2.4,3.9-3.8
					c0.6-0.7,1-1.5,1.6-2.2c0.3-1,1-1.9,1.3-2.9c0.5-1.3,1-2.6,0.9-4c0.1-0.5,0-0.9,0-1.4c-0.1,0-0.2,0-0.3-0.1
					c-0.1,0.4,0.1,1-0.2,1.4c-1.3-0.5-2.6-0.8-3.9-1.1c-3.5-0.6-7-0.9-10.5-0.5c-1.6,0.2-3.1,0.4-4.7,0.8c-1.9,0.5-3.8,1-5.6,1.9
					c-0.8,0.3-1.5,0.8-2.2,1.3c-1.5,1.2-3.2,2.3-4.3,3.8c-0.7-0.3-1.3-0.7-2-1c-0.1,0-0.2-0.1-0.2-0.1c0.7-1,1.3-2.1,2.1-3.1
					c1.1-1.3,2.3-2.4,3.6-3.5c0.8-0.7,1.8-1.1,2.7-1.6c0.8-0.4,1.6-0.8,2.4-1.1c1.6-0.6,3.3-1,5-1.2l0.1,0c-0.2-0.1-0.4-0.2-0.6-0.4
					c-1.9,0.3-3.7,0.7-5.5,1.5c-1.3,0.6-2.6,1.2-3.7,2c-1.6,1.1-3,2.6-4.3,4.1c-0.8,1-1.4,2.1-2.1,3.1c-0.8-0.3-1.6-0.6-2.4-0.8
					c0.4-0.7,0.8-1.4,1.2-2.1c1-1.7,2.3-3,3.8-4.3c1.7-1.5,3.6-2.7,5.5-3.8c1.4-0.8,2.8-1.3,4.3-1.8c-0.2-0.1-0.4-0.2-0.5-0.3
					c-0.9,0.4-1.8,0.7-2.7,1.1c-1.6,0.8-3.2,1.7-4.6,2.8c0.1-0.6,0.3-1.1,0.5-1.6c0.6-1.6,1.2-3.2,2.1-4.6c0.8-1.3,1.7-2.6,2.9-3.7
					c0.2-0.2,0.3-0.4,0.4-0.6c-0.2,0.1-0.4,0.1-0.5,0.3c-1.2,1-2.2,2.3-3,3.7c-1,1.5-1.6,3.2-2.2,4.9c-0.2,0.6-0.5,1.2-0.5,1.9
					c-1.3,0.9-2.4,2-3.5,3.1c0-0.3,0-0.6,0.1-0.8c0.4-2.5,1.1-4.9,2.1-7.2c0.7-1.5,1.6-2.9,2.7-4.1c0.3-0.3,0.6-0.6,0.8-1
					c-0.4,0-0.6,0.3-0.9,0.5c-1.1,1-1.9,2.3-2.6,3.6c-1,2-1.7,4.2-2.1,6.4c-0.2,0.9-0.4,1.8-0.4,2.7c0,0.3-0.2,0.5-0.4,0.7
					c-0.6,0.7-1.2,1.5-1.7,2.4c-0.3,0.4-0.5,1-0.7,1.4c-0.1,0.2-0.2,0.2-0.3,0.3c-0.4-0.2-0.9-0.3-1.4-0.4c-0.6-1-0.7-2.1-0.8-3.2
					c0.1-2.1,0.2-4.1,0.8-6.1c0.2-0.6,0.5-1.2,0.6-1.8l0.1,0c0.4-0.9,0.9-1.8,1.4-2.6c0.3-0.5,0.7-0.9,0.9-1.3
					c-0.6,0.3-0.9,0.8-1.3,1.4c-0.5,0.8-1,1.7-1.4,2.6c-0.4,0.9-0.7,1.9-1,2.8c-0.4,1.5-0.4,3.1-0.5,4.6c0,0.8,0.1,1.6,0.3,2.3
					c0.1,0.4,0.3,0.8,0.4,1.3c-0.6-0.1-1.2-0.2-1.9-0.2c-0.6-3.4-0.3-7,0.6-10.3l0,0.1c0.3-0.6,0.6-1.2,0.9-1.8
					c-0.5,0.3-0.8,0.9-1.1,1.4c-0.3,0.7-0.4,1.4-0.6,2.1c-0.5,2.8-0.7,5.7-0.2,8.5c-0.5,0-1.1-0.1-1.6,0c-0.5-1.6-0.5-3.4-0.6-5
					c0-0.9,0-1.8,0.5-2.6c0,0-0.1,0-0.1-0.1c-0.2,0.4-0.5,0.8-0.5,1.3c-0.3,1.6-0.1,3.1,0.1,4.7c0,0.6,0.2,1.2,0.4,1.7
					c-0.3,0-0.5,0.1-0.8,0.1c-0.2,0-0.5,0-0.7,0c0.1,0.3,0.4,0.3,0.7,0.4l0-0.1c0.3,0,0.7,0.1,1,0c0.6,0,1.2,0,1.8,0.1
					c0,0.1,0.1,0.2,0.1,0.3c0.2-0.1,0.5-0.2,0.7-0.2c1.3,0.2,2.6,0.5,3.8,1c-1.2-0.1-2.4,0.1-3.5,0.4c-2.4,0.5-4.8,1.1-7.2,1.7
					c-1.9,0.4-3.8,0.9-5.7,1.5c-1,0.3-2.1,0.6-3,1.2c0.3,0,0.5,0,0.8,0.1c0.1,0,0.2-0.1,0.3-0.1c2.3-0.8,4.6-1.5,7-2
					c2.4-0.5,4.8-1.2,7.2-1.7c1.1-0.2,2.2-0.5,3.3-0.6c0.6,0,1.3,0,1.9,0c0.4,0.2,0.8,0.3,1.2,0.5c0.6,0.2,1.1,0.5,1.6,0.8
					c-0.2,0.1-0.4,0.2-0.6,0.1c-0.7-0.1-1.3-0.2-2-0.2c-2.3-0.1-4.5,0.7-6.6,1.3c-1.1,0.4-2.2,0.7-3.2,1.1c-1.4,0.6-2.8,1.1-4.1,1.9
					c0.2,0.1,0.4,0.1,0.5,0.2c2-1.1,4.2-1.9,6.4-2.6c2.6-0.9,5.4-1.7,8.2-1.6c0.6,0.1,1.2-0.1,1.8-0.1c1,0.5,2,1.1,2.9,1.8
					c-0.1,0-0.2,0-0.3,0.1c-0.9-0.3-1.9-0.3-2.8-0.2c-1.2,0.1-2.3,0.3-3.5,0.6c-2,0.5-3.9,1.2-5.7,2.2c-1.2,0.7-2.5,1.3-3.6,2.3
					c-0.8,0.7-1.7,1.5-2.5,2.3c-0.4,0.4-0.7,0.8-0.9,1.2c0.2,0,0.4-0.1,0.5-0.2c1.1-1.1,2.2-2.2,3.5-3.2c1-0.8,2.3-1.4,3.4-2
					c1.8-1,3.8-1.6,5.8-2.1c1.5-0.4,3-0.6,4.6-0.6c0.6,0.2,1.3,0.2,2,0.2c1.1,0.8,2.1,1.7,3,2.7c-1.2,0-2.4-0.1-3.6,0.1
					c-1.9,0.3-3.8,0.9-5.6,1.6c-1.2,0.5-2.5,0.9-3.6,1.6c-1.5,0.9-3.1,1.9-4.4,3.1c-0.3,0.3-0.7,0.6-1,1c0.4,0.1,0.6-0.2,0.9-0.4
					c0.7-0.6,1.4-1.2,2.2-1.7c0.8-0.5,1.6-1,2.4-1.5c1-0.6,2.2-1.1,3.3-1.5c2.4-1,4.9-1.6,7.4-1.9c0.7-0.1,1.4,0,2.1,0
					c0.9,0.9,1.7,1.9,2.4,3c0.7,1.1,1.4,2.3,2.1,3.5c0.9,1.7,1.8,3.4,2.3,5.2c0.3,1.1,0.6,2.2,0.9,3.3c-0.4,0-0.7,0-1.1,0
					c-2.3,0.6-4.5,1.4-6.6,2.5c-0.9,0.5-1.7,0.9-2.6,1.4l-0.1,0c-0.1,0.1-0.2,0.1-0.3,0.2c-0.9-0.3-1.8-0.7-2.6-1.1
					c-0.9-0.6-1.8-1.2-2.8-1.6c-0.9-0.4-1.9-1-2.9-0.9c0.2,0.1,0.5,0.3,0.8,0.3c0.8,0.2,1.5,0.7,2.2,1c0.8,0.4,1.6,0.9,2.4,1.4
					c0.8,0.5,1.7,0.8,2.6,1.2c1.4,0.5,2.8,1,4.3,0.9c1.4,0,2.9-0.2,4.3-0.6c0.7-0.2,1.2-0.7,1.8-1.1c0.1,0.1,0.1,0.2,0.2,0.3
					c0.3-0.2,0.6-0.6,1-0.7c0.1,1.2,0.2,2.5,0.2,3.7c0,0.5,0,0.9,0,1.4c0,0.6,0.1,1.3,0,1.9c0,0.5-0.1,1-0.2,1.5
					c-0.1,0.5-0.2,1-0.2,1.5c0.1,0,0.2,0,0.3,0c0.1-0.3,0.1-0.5,0.2-0.8c0.2-0.5,0.3-1.1,0.4-1.7c0.5,0.9,1.1,1.8,2.1,2.2
					c0.2,0.1,0.4,0,0.6,0c-0.1-0.1-0.3-0.2-0.4-0.3c-1-0.6-1.7-1.5-2-2.6c-0.1,0-0.2,0.1-0.2,0.1c0.1-0.8,0-1.6,0-2.4
					c0.3,0.6,0.7,1.2,1.2,1.8c0.8,0.9,1.8,1.5,2.9,2.1c0.7,0.3,1.3,0.7,2,0.8c-0.4-0.4-0.9-0.5-1.3-0.7c-0.9-0.5-1.7-1-2.5-1.6
					c-1-0.8-1.7-1.9-2.3-3c0-0.9-0.1-1.7-0.1-2.6c0.1,0.3,0.2,0.5,0.4,0.7c0.4,0.9,1.1,1.6,1.9,2.3c1.3,1.2,3,1.8,4.7,2.3
					c0.7,0.2,1.5,0.4,2.2,0.4l0,0.1c0.8,0,1.7,0.2,2.3-0.3c-0.7,0-1.3,0.1-2,0.1c-1.5-0.3-3-0.8-4.4-1.4c-1.9-0.8-3.5-2.2-4.6-3.9
					c0-0.2-0.2-0.4-0.3-0.5l0,0c-0.1,0-0.2,0-0.3,0c0-0.6-0.1-1.2-0.1-1.7c0.4,0.5,0.9,1.1,1.4,1.4c0.9,0.6,1.8,1.1,2.7,1.5
					c3.5,1.4,7.3,2,11,1.3c0.9-0.2,1.8-0.3,2.6-0.7c0.5-0.1,1.1-0.4,1.6-0.6c0.4-0.2,0.8-0.4,1-0.7c-0.9,0.4-1.7,0.7-2.6,1.1l0.1,0
					c-0.8,0.2-1.6,0.4-2.4,0.5c-1.7,0.3-3.5,0.4-5.2,0.2c-2.1-0.2-4.2-0.7-6.1-1.5c-0.9-0.4-1.8-0.9-2.6-1.5
					c-0.6-0.4-1.1-0.9-1.6-1.4c0-0.3-0.1-0.6-0.1-0.9c0-0.1,0-0.3,0-0.4c0.4,0.2,0.7,0.5,1.1,0.7c1.8,0.9,3.8,1.4,5.9,1.4
					c1.2,0,2.4-0.2,3.5-0.4c2.2-0.4,4.4-0.9,6.4-1.9c1-0.5,2-0.9,2.9-1.5c0.9-0.6,1.8-1.2,2.6-2c0.4-0.4,0.7-0.7,1-1.2
					c0.1-0.1,0-0.2,0-0.3C145,58.6,144.6,59,144.2,59.4z M107.6,41.8c1.1-1.5,2.7-2.6,4.2-3.7c0.6-0.4,1.2-0.7,1.8-1.1
					c2.4-1.3,5.1-1.9,7.8-2.4c1.6-0.3,3.2-0.5,4.9-0.5c2.8-0.1,5.7,0.2,8.5,0.7c1.3,0.2,2.6,0.7,4,1c0,0.5,0,1-0.2,1.5
					c-0.1,0-0.3,0-0.4,0c-0.3-0.3-0.8-0.5-1.2-0.6c-3-0.9-6.3-1.3-9.4-0.9c-1.3,0.1-2.7,0.4-4,0.7c-2.9,0.6-5.6,1.6-8.2,3
					c-1.1,0.6-2.1,1.2-2.9,2c-0.8,0.6-1.4,1.4-1.9,2.2C109.6,42.8,108.6,42.3,107.6,41.8z M110.7,43.7c0.3-0.4,0.5-0.7,0.8-1
					c0.9-0.8,1.8-1.6,2.9-2.3c1.9-1.1,3.9-2,6-2.7c3.1-0.9,6.3-1.6,9.6-1.6c1.5,0,3,0.2,4.5,0.4c1.1,0.2,2.2,0.6,3.3,0.9
					c0.3,0.1,0.5,0.1,0.8,0.2c-0.1,0.6-0.3,1.1-0.5,1.6c-1-0.1-2-0.2-3-0.3c-2.5-0.1-5,0-7.5,0.4c-2.8,0.5-5.5,1.2-8.1,2.3
					c-1.3,0.5-2.7,1.1-3.9,1.8c-0.9,0.5-1.8,1.3-2.7,1.8C112,44.7,111.3,44.2,110.7,43.7z M112.9,45.5c0.6-0.3,1.1-0.7,1.7-1.1
					c1.4-0.9,2.9-1.6,4.4-2.2c1.4-0.6,2.8-1.1,4.3-1.4c1.9-0.5,3.8-0.9,5.7-1.1c2.9-0.3,5.8-0.4,8.7-0.1c-0.3,0.9-0.8,1.8-1.3,2.7
					c-1.6,0-3.3,0-4.9,0.3c-2.8,0.3-5.5,1-8.2,1.7c-1.6,0.5-3.3,1.1-4.9,1.7c-1.2,0.5-2.4,1-3.5,1.7
					C114.3,46.9,113.6,46.2,112.9,45.5z M115.2,48c1.4-0.9,3.1-1.4,4.6-2.1c2.6-0.9,5.2-1.8,7.8-2.4c1.6-0.3,3.2-0.6,4.8-0.8
					c1.2-0.1,2.5-0.2,3.7-0.2c-0.7,1.3-1.6,2.4-2.6,3.4c-0.2,0.2-0.3,0.4-0.6,0.3c-1.3-0.1-2.6-0.1-3.9,0.1c-1.7,0.2-3.4,0.5-5,0.9
					c-2.6,0.6-5.2,1.3-7.7,2.4C116,49.1,115.6,48.5,115.2,48z M116.6,50c2.4-1,4.9-1.6,7.3-2.2c2.9-0.7,5.9-1.2,8.9-1
					c-1.6,1.6-3.5,2.7-5.6,3.6c-1.5,0.6-3,1.2-4.7,1.3c-0.5,0.1-1.1,0.1-1.6,0c-1.1,0-2.2,0-3.3,0C117.3,51.1,117,50.5,116.6,50z
					 M118.6,66.6c-1.4,0.5-2.8,0.7-4.2,0.7c-1.2,0.1-2.3-0.3-3.5-0.6c0.1-0.1,0.2-0.2,0.3-0.3c0.6-0.2,1.2-0.5,1.8-0.8
					c1.4-0.7,2.9-1.4,4.4-1.9c1.3-0.4,2.5-0.9,3.8-1.1c0.1,0.7,0.2,1.4,0.2,2.1C120.5,65.5,119.6,66.1,118.6,66.6z"/>
				<path class="st7" d="M118.6,73.8c-0.7,0.2-1.4,0.3-2.1,0.3c-0.9-0.1-1.8,0-2.7-0.1c-1-0.1-2-0.4-3-0.7c-1.2-0.4-2.2-1.1-3.2-1.8
					c-0.9-0.9-1.8-1.8-2.5-2.9c-0.5-0.7-0.9-1.6-1.6-2.1c0.4,0.8,0.9,1.6,1.4,2.3c0.5,0.8,1.2,1.6,1.9,2.3c0.6,0.7,1.5,1.3,2.3,1.8
					c0.5,0.3,1,0.5,1.6,0.7c0.9,0.3,1.9,0.6,2.9,0.7c1.1,0.1,2.3,0.1,3.4,0.1c0.9,0,1.8-0.4,2.6-0.5c0.7-0.1,1.5-0.4,1.8-1.1
					c-0.4,0-0.7,0.4-1,0.5C119.8,73.7,119.2,73.6,118.6,73.8z"/>
				<path class="st7" d="M110.5,77.2c-1.3-0.4-2.4-1.2-3.4-2c-0.6-0.4-0.9-1-1.4-1.5c0,0.2,0,0.4,0.1,0.5c0.6,1,1.5,1.7,2.4,2.3
					c1.1,0.6,2.2,1.1,3.5,1.1c0.5,0.2,1,0.4,1.5,0.2c-0.4-0.2-0.8-0.3-1.2-0.3C111.4,77.3,110.9,77.4,110.5,77.2z"/>
			</g>
			<path class="st1" d="M68,77.8c-1.7-0.9-3.4-1.5-5.3-1.9c-1.7-0.4-3.6-0.5-5.3-0.1c-0.9,0.2-1.9,0.4-2.7,1c-0.5,0.3-1,0.6-1.4,1.2
				c-0.2,0.3-0.2,0.6-0.2,0.9c-0.1,0.6-0.2,1.2,0,1.8c0.5,0,1-0.3,1.5-0.4c2.7-1.1,5.7-1.5,8.6-1.5c1.2-0.1,2.5-0.1,3.7-0.1
				c0.3,0,0.6,0,1,0c0.2-0.1,0.2-0.4,0.3-0.6C68.2,77.9,68.1,77.8,68,77.8z"/>
			<path class="st8" d="M87.5,82.6c0.6-0.3,1.3,0.2,1.4,0.8c0.1,0.8,0.1,1.6-0.3,2.3c-0.4,0.6-1.2,0.8-1.7,0.3
				c-0.5-0.4-0.5-1.2-0.4-1.8C86.6,83.6,86.9,82.9,87.5,82.6z"/>
			<path class="st9" d="M84.2,83c0.1-0.1,0.4-0.4,0.6-0.2c-0.1,0.4-0.4,0.7-0.6,1c-0.4,0.6-0.7,1.2-1.2,1.7
				c-0.1,0.2-0.3,0.2-0.5,0.2c0-0.3,0-0.6,0.2-0.9C83.1,84.2,83.7,83.6,84.2,83z"/>
			<path class="st10" d="M117,84.4c-0.5-0.6-1.4-0.9-2.3-0.7c-1.4,0.1-2.5,1-3.3,2.1c-0.4,0.6-0.9,1.1-1,1.8
				c0.8-0.7,1.3-1.6,2.1-2.3c0.5-0.5,1.2-0.8,1.9-1.1c0.6,0,1.2-0.1,1.7,0.2c0.6,0.3,0.8,1,0.7,1.6c-0.2,1-0.6,2-1.1,2.9
				c-0.8,1.5-1.9,2.8-3.1,3.9c-0.8,0.7-1.6,1.5-2.5,2c-0.2,0.1-0.2,0.2-0.2,0.4c0.5,0,1-0.3,1.4-0.6c0.7-0.5,1.4-1.1,2-1.7
				c1.5-1.4,2.8-3,3.7-4.9c0.3-0.6,0.5-1.3,0.6-1.9C117.5,85.5,117.4,84.9,117,84.4z"/>
			<path class="st8" d="M57,85.3c0.5-0.3,1.2,0.1,1.4,0.6c0.1,0.5,0,1,0,1.5c-0.1,0.4-0.3,0.8-0.7,1c-0.3,0.1-0.8,0.1-1-0.3
				c-0.4-0.5-0.3-1.1-0.3-1.7C56.5,86.1,56.6,85.6,57,85.3z"/>
			<path class="st11" d="M95.8,87.6c0-0.2,0.3-0.1,0.4-0.1c-0.1,1-0.7,1.7-1.3,2.5c-0.5,0.7-1.1,1.4-1.7,1.9
				c-0.1,0.1-0.3,0.1-0.4,0.1C93.9,90.6,95,89.2,95.8,87.6z"/>
			<path class="st6" d="M70,89.5c0.1-0.3,0.3-0.5,0.5-0.7c0,0.8-0.3,1.6-0.7,2.4c-0.7,1.5-1.5,2.9-2.3,4.3c-0.2,0.4-0.5,0.9-0.9,1.1
				c0.1-0.5,0.4-0.9,0.6-1.4C68.2,93.3,69.1,91.4,70,89.5z"/>
			<path class="st12" d="M57.6,89.6c0.6-0.1,1.1-0.3,1.7-0.4c0,0.1,0,0.2,0,0.4c-0.7,0.4-1.4,0.7-2.2,0.8c-0.6,0.1-1.2,0-1.8-0.3
				c0-0.2,0-0.3,0-0.5C56.1,89.7,56.9,89.8,57.6,89.6z"/>
			<path class="st6" d="M60,91.2c0.6-0.2,1.1-0.6,1.8-0.7c-0.1,0.2-0.2,0.4-0.4,0.5c-0.9,0.6-1.9,1-3,1.3c-0.4,0.1-0.9,0.2-1.3,0.2
				c0-0.1,0-0.2,0-0.4C58,91.9,59,91.6,60,91.2z"/>
			<path class="st13" d="M85.3,91.8c1.4-0.1,2.8,0,4,0.9c0.7,0.5,1.1,1.4,1.6,2.1c0.9,1.3,1.2,2.9,0.9,4.4c-0.2,1.6-0.9,3.1-2.2,4.1
				c-0.8,0.6-1.8,1.2-2.8,1.4c-0.7,0.1-1.4,0.2-2.1,0c-1-0.2-2-0.4-2.8-0.9c-1.3-0.9-2.2-2.4-2.5-4c-0.2-1.2,0.1-2.5,0.6-3.6
				c0.3-0.7,0.7-1.4,1.2-2c0.3-0.3,0.6-0.7,0.9-1C83,92.4,84.1,91.9,85.3,91.8z"/>
			<path class="st13" d="M55.4,95.5c1.1-0.1,2.2,0,3.1,0.6c1.1,0.7,1.7,1.9,1.9,3.1c0.2,1.2,0,2.4-0.5,3.5c-0.6,1.4-1.6,2.7-2.9,3.4
				c-0.4,0.2-0.8,0.4-1.2,0.2c-0.4-0.2-0.5-0.7-0.6-1.1c-0.1-0.8-0.3-1.5-0.4-2.3c-0.1-0.8-0.3-1.5-0.4-2.3
				c-0.3-1.3-0.4-2.7-0.8-3.9c-0.1-0.3-0.1-0.6,0.2-0.8C54.3,95.6,54.8,95.5,55.4,95.5z"/>
			<path class="st14" d="M68.3,98.8c0.2-0.9,1.4-1.4,2.2-1.1c0.3,0.1,0.6,0.4,0.7,0.7c0.1,0.3-0.1,0.7-0.5,0.7
				C69.9,99.1,69.1,99,68.3,98.8z"/>
			<g>
				<path class="st15" d="M87.4,87.8c-0.8,0.1-1.7,0-2.5,0c0.3,0.5,1,0.6,1.6,0.6c0.8,0,1.6-0.2,2.3-0.6c0.2-0.1,0.3-0.3,0.4-0.5
					C88.6,87.5,88,87.7,87.4,87.8z"/>
				<path class="st15" d="M69.7,101c-0.7-0.4-1.5-0.4-2.2-0.6c-0.9-0.3-2-0.4-2.6-1.3c-0.1-0.7,0.1-1.3,0.3-1.9
					c0.5-1.2,1.1-2.4,1.6-3.5c0.9-2,1.7-4.1,2.3-6.2c0.1-0.6,0.3-1.1,0.3-1.7c0.2-0.6,0.1-1.3-0.1-1.9c-0.2,0.6-0.2,1.2-0.2,1.7
					c-0.1,0.5-0.2,1-0.4,1.5c-0.7,2.1-1.4,4.2-2.4,6.2c-0.6,1.4-1.3,2.7-1.9,4.2c-0.2,0.5-0.2,1.1-0.2,1.7c0.2,0.4,0.5,0.7,0.9,0.9
					c0.8,0.4,1.7,0.6,2.6,0.9c0.7,0.2,1.3,0.5,2,0.5C69.9,101.4,69.9,101.2,69.7,101z"/>
			</g>
			<path class="st13" d="M66.7,106.1c1.4-0.6,3-0.8,4.5-0.6c1.1,0.1,2.3,0.1,3.4,0.6c1.6,0.6,3,1.8,3.8,3.3
				c-1.1-0.4-2.2-0.8-3.3-1.2c-1.1-0.4-2.2-0.6-3.4-0.8c-1-0.1-2,0.1-2.9,0.2c-0.8,0.1-1.5,0.3-2.3,0.5c-1.1,0.3-2.1,1-3,1.9
				c-0.5,0.5-1,1-1.5,1.5c0.1-0.7,0.4-1.3,0.7-1.9c0.4-0.7,1-1.4,1.6-1.9C65.2,107.1,65.9,106.5,66.7,106.1z"/>
			<path class="st16" d="M68.8,107.6c1-0.2,1.9-0.4,2.9-0.2c1.2,0.2,2.3,0.4,3.4,0.8c1.1,0.4,2.2,0.9,3.3,1.2
				c0.1,0.1,0.3,0.1,0.4,0.2c0,0.1,0,0.2,0,0.3c-0.1,0-0.3,0.1-0.4,0.1c-0.6-0.1-1.1-0.2-1.6-0.4c-1.6-0.7-3.3-1.1-5-1.4
				c-1-0.2-2.1,0.1-3.1,0.3c-0.9,0.2-1.9,0.3-2.7,0.7c-1,0.5-1.8,1.1-2.5,1.9c-0.4,0.4-0.8,0.8-1.2,1.1c-0.1,0-0.2-0.1-0.3-0.1
				c0.1-0.1,0.1-0.3,0.2-0.4c0.4-0.6,1-1,1.5-1.5c0.8-0.8,1.8-1.5,3-1.9C67.3,107.8,68.1,107.7,68.8,107.6z"/>
			<path class="st13" d="M68.7,108.3c1-0.2,2.1-0.5,3.1-0.3c1.7,0.3,3.4,0.7,5,1.4c0.5,0.2,1.1,0.4,1.6,0.4c-0.4,0.3-0.7,0.7-1.2,1
				c-1.5,0.9-3,1.6-4.7,1.9c-1,0.2-1.9,0.3-2.9,0.5c-1.9,0.1-3.7-0.1-5.5-0.5c-0.7-0.1-1.4-0.3-1.9-0.7c0.4-0.3,0.9-0.7,1.2-1.1
				c0.7-0.8,1.5-1.4,2.5-1.9C66.8,108.6,67.8,108.5,68.7,108.3z"/>
			<path class="st17" d="M69.7,109c0.1-0.2,0.3-0.2,0.5-0.3c0,0.6-0.3,1.1-0.5,1.7c-0.1,0.3-0.2,0.6-0.4,0.9c0,0-0.1-0.1-0.2-0.1
				C69.3,110.5,69.4,109.7,69.7,109z"/>
			<path class="st18" d="M67.6,109.6c0.1-0.2,0.3-0.2,0.5-0.3c0,0.3-0.1,0.6-0.2,0.9c-0.2,0.5-0.3,1.1-0.4,1.6
				c-0.1-0.1-0.3-0.2-0.3-0.4C67.2,110.9,67.3,110.2,67.6,109.6z"/>
			<path class="st11" d="M67.9,118.6c1.2-0.7,2.7-0.7,4.1-0.7c0,0.1,0,0.2-0.1,0.2c-1.4,0.1-2.8,0.4-4.1,0.8
				C67.9,118.9,67.9,118.8,67.9,118.6z"/>
			<path class="st15" d="M96.3,115.2c-0.9,0.9-1.7,1.9-2.6,2.8l0,0.1c-0.9,0.7-1.7,1.4-2.6,2.1c-0.8,0.6-1.5,1.3-2.4,1.9
				c-0.8,0.6-1.5,1.2-2.3,1.7c-0.8,0.5-1.6,0.9-2.4,1.4c-2.1,1.2-4.3,2.1-6.7,2.5c-1.2,0.1-2.5,0.4-3.7,0.5c-0.3,0-0.5,0.1-0.7,0.2
				c0,0.1,0.1,0.2,0.1,0.4c0.8,0.1,1.6,0,2.4-0.1c0.9-0.1,1.7-0.3,2.5-0.4c1.4-0.3,2.9-0.7,4.2-1.4c1.4-0.7,2.9-1.3,4.2-2.2
				c1.8-1.2,3.4-2.5,4.9-4c0.8-0.8,1.7-1.5,2.5-2.3c0.9-0.7,1.6-1.6,2.3-2.5c0.6-0.8,1.2-1.5,1.7-2.4
				C97.3,114,96.9,114.6,96.3,115.2z"/>
			<g>
				<path class="st19" d="M112.3,146c0.1,0.2,0.2,0.5,0.4,0.5c0.2,0,0.4-0.1,0.5-0.2c0.2-0.2,0.5-0.4,0.5-0.8
					c0.1-0.4,0.2-0.8,0.3-1.2c-0.1-0.6-0.4-1.1-0.8-1.5c-0.3-0.3-0.8-0.5-1.3-0.4c-0.4,0.1-0.6,0.4-0.5,0.8
					C111.6,144.3,112,145.1,112.3,146z"/>
				<path class="st19" d="M112.9,162.9c-0.1,0.1-0.2,0.3-0.2,0.4c0.2-0.1,0.4-0.2,0.5-0.3c1.4-1.3,2.6-2.7,3.7-4.2
					c1-1.4,2-2.9,2.7-4.5c0.3-0.7,0.6-1.5,0.4-2.3c-0.1,0-0.3,0-0.4,0c-0.1,0.4-0.2,0.9-0.4,1.4c-0.6,1.9-1.6,3.6-2.7,5.2
					C115.5,160.1,114.4,161.6,112.9,162.9z"/>
				<path class="st19" d="M59.8,219.7c0.7-1.9,1.7-3.7,2.6-5.5c0.8-1.6,1.6-3.2,2.6-4.6c1.4-1.9,2.7-3.9,4.2-5.7
					c1.3-1.4,2.6-2.8,3.9-4.1c1.3-1.3,2.7-2.4,4-3.7c1.5-1.5,3.2-2.8,4.9-4.1c1.7-1.4,3.4-2.6,5.2-3.8c2-1.3,4-2.6,6-3.9
					c1.6-0.9,3.1-1.9,4.6-2.8c2-1.3,4.1-2.4,6-3.8c1.9-1.2,3.7-2.6,5.5-4c1.3-1,2.5-2.1,3.6-3.3c1.6-1.8,3.3-3.6,4.7-5.5
					c1-1.3,1.9-2.7,2.6-4.3c0.9-2.1,1.7-4.2,1.6-6.5c0-0.6-0.1-1.2-0.6-1.6c0,0.7,0.1,1.4,0.1,2.1c-0.1,1.1-0.3,2.1-0.7,3.1
					c-0.6,1.7-1.3,3.3-2.3,4.8c-1.1,1.7-2.4,3.3-3.7,4.8c-1.5,1.7-3,3.3-4.7,4.8c-3.1,2.5-6.4,4.8-9.9,6.8c-1.7,1-3.4,2.1-5.1,3.1
					c-2.1,1.2-4.3,2.5-6.3,3.9c-1.4,0.9-2.9,1.9-4.3,2.9c-2,1.4-3.8,3-5.7,4.4c-1.5,1.2-2.8,2.6-4.2,3.8c-1.7,1.5-3.3,3.2-4.8,4.9
					c-1.4,1.4-2.5,3-3.7,4.6c-1.2,1.7-2.4,3.3-3.4,5.2c-1.2,2.4-2.5,4.8-3.4,7.3c-0.1,0.2-0.1,0.4-0.2,0.5H59.8z"/>
				<path class="st19" d="M62.3,183.6c0.5,1.1,0.9,2.3,1.3,3.5c0.3,0.8,0.5,1.7,1.2,2.3c0.3-0.4,0.1-0.8,0-1.2c-0.5-1.5-1-3-1.6-4.4
					c-0.4-1-0.7-2-1.1-3c-0.5-1.4-0.9-2.9-1.3-4.4c-0.7-2.4-1.1-4.9-1.3-7.4c0-1.2,0-2.3,0-3.5c0.1-0.5,0.2-1,0.2-1.5
					c-0.4,0-0.5,0.5-0.6,0.8c-0.3,1.2-0.3,2.4-0.3,3.6c0,2.9,0.6,5.9,1.3,8.7C60.7,179.2,61.5,181.4,62.3,183.6z"/>
				<path class="st19" d="M55.6,219.7c0.1-0.9,0.1-1.8,0.2-2.7c0.2-1.8,0.4-3.6,0.7-5.4c0.4-2.2,0.8-4.3,1.4-6.4
					c0.5-2.4,1.5-4.6,2.5-6.8c1-2.2,2.2-4.2,3.4-6.3c1-1.6,2.2-3.2,3.3-4.7c0.6-0.8,1.2-1.7,1.8-2.5c0.5-0.6,0.9-1.1,1.4-1.7
					c0.8-1,1.5-2.1,2.4-3c-0.1-0.1-0.1-0.1-0.2-0.2c-1,0.7-1.6,1.8-2.4,2.6c-0.6,0.6-1.2,1.2-1.7,1.9c-0.7,0.8-1.2,1.6-1.9,2.4
					c-1.1,1.5-2.3,3-3.3,4.5c-1.2,1.8-2.3,3.7-3.2,5.7c-1,2.1-2,4.3-2.6,6.5c-1,3.8-1.8,7.6-2.2,11.5c-0.1,1.2-0.3,2.3-0.3,3.5
					c0,0.3,0,0.6-0.1,0.8H55.6z"/>
				<path class="st19" d="M81.3,198.6c-0.3,0.3-0.5,0.5-0.8,0.7c-1.6,1.3-3.3,2.6-4.8,4c-2.6,2.4-5.2,5-7.1,8.1
					c-0.2,0.3-0.4,0.6-0.4,1c0.1,0,0.2,0,0.4,0c0.6-0.9,1.2-1.7,1.8-2.5c1.3-1.6,2.8-3.1,4.4-4.6c1.6-1.6,3.4-3,5.1-4.5
					c0.7-0.6,1.4-1.2,1.9-2c0.2-0.3,0.4-0.6,0.4-0.9C81.7,198.1,81.5,198.3,81.3,198.6z"/>
				<path class="st19" d="M30,219.7c0-0.8,0.1-1.5,0.1-2.3c0.2-2.7,0.7-5.4,1.4-8c0.5-2.6,1.4-5.2,1.5-7.9c0-1.1,0.1-2.3,0-3.4
					c-0.1,0-0.3,0-0.4,0c-0.5,1.5-0.4,3-0.7,4.5c-0.4,2.3-1,4.6-1.4,6.9c-0.7,3.3-1.2,6.7-1.2,10.1H30z"/>
				<path class="st19" d="M130.7,214.9c-0.6,1.5-1,3.2-1.3,4.8h0.5c0.1-0.3,0.2-0.7,0.3-1c0.9-3,2.5-5.7,4-8.4
					c0.5-1,0.8-2.1,1.1-3.2c-0.1,0-0.2,0-0.3,0c-0.5,0.8-0.8,1.7-1.4,2.5C132.5,211.3,131.4,213,130.7,214.9z"/>
				<path class="st19" d="M129.4,219.7c0-1.2,0.2-2.4,0.4-3.6c0.3-2,0.6-4,1.2-6c0.6-2.4,1.7-4.7,2.4-7.1c0.3-1.1,0.5-2.2,0.5-3.3
					c-0.1,0-0.2,0-0.3,0c-0.3,0.8-0.5,1.6-0.7,2.5c-0.5,1.6-1.2,3.2-1.8,4.8c-0.8,2-1.2,4-1.6,6.1c-0.4,2.2-0.7,4.3-0.5,6.5H129.4z"
					/>
				<path class="st19" d="M165.7,207.6c-0.8-1.6-1.8-3.1-2.6-4.8c-0.2-0.5-0.5-1.1-1-1.3c-0.1,0.2-0.2,0.4-0.1,0.6
					c0.3,1.2,0.9,2.4,1.6,3.5c1,1.6,2,3.2,2.7,4.9c0.3,0.8,0.5,1.6,0.7,2.3c0.1,0,0.3,0,0.4,0C167.2,210.9,166.5,209.2,165.7,207.6z
					"/>
				<path class="st19" d="M28.7,219.7c-0.1-1.1-0.1-2.2,0-3.2c0-1.6,0-3.2,0.1-4.8c0.1-1.3,0.2-2.7,0.3-4c0.1-0.4,0-0.8,0-1.2
					c-0.1,0-0.2,0-0.3,0c-0.1,0.4-0.2,0.8-0.3,1.3c-0.4,2.2-0.7,4.4-0.7,6.6c0,1.8,0,3.6,0.1,5.5H28.7z"/>
			</g>
		</g>
	</g>
</g>
</svg>
