<?xml version="1.0" encoding="utf-8"?>
<!-- Generator: Adobe Illustrator 25.2.0, SVG Export Plug-In . SVG Version: 6.00 Build 0)  -->
<svg version="1.1" id="Layer_1" xmlns="http://www.w3.org/2000/svg" xmlns:xlink="http://www.w3.org/1999/xlink" x="0px" y="0px"
	 viewBox="0 0 180 180" style="enable-background:new 0 0 180 180;" xml:space="preserve">
<style type="text/css">
	.st0{clip-path:url(#SVGID_2_);}
	.st1{fill:#DFAF33;}
	.st2{fill:#38312D;}
	.st3{fill:#F2844F;}
	.st4{fill:#F95939;}
	.st5{fill:#CA7852;}
	.st6{fill:#E56324;}
	.st7{fill:#B95D38;}
	.st8{fill:#FCB692;}
	.st9{fill:#160E0B;}
	.st10{fill:#FDB694;}
	.st11{fill:#BF6948;}
	.st12{fill:#BB613E;}
	.st13{fill:#FDB693;}
	.st14{fill:#BA5F3B;}
	.st15{fill:#FEB797;}
	.st16{fill:#FB9980;}
	.st17{fill:#FF8066;}
	.st18{fill:#CC492F;}
	.st19{fill:#B85C37;}
	.st20{fill:#B75B37;}
	.st21{fill:#FCB693;}
	.st22{fill:#B08C29;}
</style>
<g>
	<defs>
		<rect id="SVGID_1_" width="180" height="180"/>
	</defs>
	<use xlink:href="#SVGID_1_"  style="overflow:visible;fill:#806AEA;"/>
	<clipPath id="SVGID_2_">
		<use xlink:href="#SVGID_1_"  style="overflow:visible;"/>
	</clipPath>
	<g class="st0">
		<g>
			<path class="st1" d="M181,218.4c0.1-0.4,0.2-0.8,0.2-1.3c0.2-4.9-0.5-9.6-2.1-14.2c-0.2-3.1-0.7-6.1-1.5-9.1
				c-0.1-0.3-0.2-0.5-0.3-0.8c-0.4-2.2-0.9-4.3-1.5-6.4c-0.7-2.6-1-5.3-2.1-7.8c-0.5-1.1-1.2-2.1-1.8-3.1c-0.6-1-1.3-2-2-2.9
				c-1.4-1.7-3-3.2-4.7-4.7c-0.9-0.7-1.9-1.3-3-1.8c-2.5-1.2-4.9-2.3-7.5-3.3c-2.5-1-5-2.3-7.4-3.5c-2.6-1.3-5.3-2.3-7.9-3.4
				c-2.7-1.2-5.3-2.5-7.9-3.9c-1.2-0.8-2.6-1.3-3.8-2c-0.8-0.5-1.6-1-2.5-1.5c-0.7-0.4-1.4-0.7-2.2-0.8c-1.5,0-3,0.1-4.6,0.1
				c-3.4,0.1-6.9,0.1-10.3,0.1c-2.7,0-5.3,0-8,0.1c-2.5,0.1-5.1,0.2-7.6,0.3c-5.5,0.2-11.1,0.6-16.5,1.5c-3,0.5-6,1.2-8.9,1.9
				c-2.6,0.6-5.1,1.3-7.7,1.7c-0.7,0.1-1.3,0.3-2,0.3c0.1,0,0.2-0.1,0.3-0.2c0-0.2,0-0.5-0.2-0.6c-1-0.4-2.1-0.2-3,0.2
				c-2.1,0.9-3.9,2.3-5.7,3.7c-1.9,1.5-3.6,3.2-5.4,4.8c-1,0.9-2.2,1.6-3.1,2.6c-0.7,0.7-1.5,1.2-2.3,1.9c-2.2,1.8-4.6,3.5-6.8,5.2
				c-3.6,2.9-7.3,5.8-10.5,9.2c-0.6,0.7-1.2,1.4-1.8,2.1c-0.5,0.4-1,0.9-1.5,1.3c-2.1,2-3.7,4.3-4.8,6.9c-0.5,1-0.9,2.1-1.3,3.1
				c-2.6,5.2-4.5,10.8-6,16.4c-0.7,2.3-1.3,4.6-1.9,7c-0.1,0.2-0.1,0.4-0.1,0.6H181z"/>
			<path class="st2" d="M81.9,22.1c0.2-0.2,0.4-0.2,0.6-0.3c0.1,0.1,0.3,0.3,0.2,0.5c0,0.6-0.3,1.1-0.5,1.6c0.9-0.6,1.7-1.2,2.6-1.9
				c0.2-0.2,0.5,0,0.8,0c0.2,0.7-0.4,1.2-0.6,1.9c1-0.6,1.8-1.4,2.9-1.9c0.2-0.1,0.6-0.1,0.6,0.1c0.2,0.5,0.1,1,0,1.4
				c0.6,0,1.1-0.6,1.6-0.8c0.3-0.2,0.8-0.2,1,0.2c0,0.2,0,0.4-0.1,0.6c2.7,0.3,5.2,1.3,7.6,2.5c2.1,1,4,2.5,5.8,4
				c0.6,0.6,1.4,1.1,2,1.7c2.1,1.9,4.4,3.4,6.6,5.2c0.9,0.8,1.8,1.6,2.7,2.4c1,0.9,1.9,1.8,2.5,2.9c1,1.8,1.9,3.7,2.5,5.7
				c0.5,1.6,1,3.2,1.2,4.8c0.2,1.7,0.6,3.4,0.6,5.1c0,1.6,0,3.2,0,4.8c-0.1,2.8-0.3,5.6-0.8,8.4c-0.2,1-0.5,1.9-0.7,2.9
				c-0.1,0.7-0.5,1.4-0.5,2.2c-0.1,1.3-0.1,2.6-0.4,3.8c-0.4,2.7-0.5,5.4-1.2,8c-0.4,1.7-0.8,3.5-2,4.9c-0.8,0.9-1.7,1.7-2.8,2.3
				c-1.3,0.8-2.8,1.3-4.2,1.9c-2.4,1.1-4.9,1.9-7.5,2.7c-2,0.6-3.9,1.1-5.9,1.6c-1.8,0.5-3.7,0.8-5.5,1.3c-1.4,0.3-2.8,0.6-4.2,0.7
				c-3,0.3-5.9,0.2-8.9,0c-1.8-0.1-3.5-0.5-5.2-0.7c-2.5-0.3-4.9-0.8-7.2-1.6c-1.3-0.5-2.6-1.1-3.3-2.3c-1.1-1.8-1.9-3.8-2.4-5.9
				c-0.4-1.5-0.6-3-0.7-4.6c-0.2-1.8-0.1-3.6-0.1-5.5c0-1.7,0-3.4-0.1-5.1c-0.2-2.4-1.7-4.4-2.4-6.7c-0.6-1.9-1.2-3.9-1.5-5.9
				c-0.2-1.4-0.5-2.8-0.6-4.2c0-1.5,0-2.9,0.2-4.4c0.2-1.6,0.4-3.2,0.8-4.8c0.6-2.2,1.5-4.3,2.4-6.4c0.6-1.4,1.2-2.8,2-4.1
				c1.1-1.7,2.3-3.4,3.6-5c1.7-2.1,3.8-3.7,6-5.3c2-1.4,4-3,6-4.4c1-0.7,2.1-1.3,3.3-1.8c0.4-0.1,0.7-0.4,1-0.7
				C80.4,23.4,81.2,22.7,81.9,22.1z"/>
		</g>
		<g>
			<path class="st3" d="M105.8,38.3c0.8-0.3,1.5-0.8,2.4-0.7c0.6,0,1,0.5,1.5,0.8c1.6,1.5,3.3,2.9,4.3,4.8c0.7,1.1,1.5,2.2,2,3.5
				c0.9,2.2,1.8,4.3,2,6.7c0.1,1.1,0.3,2.3,0.5,3.4c0.3,1.6,0.4,3.2,0.6,4.8c0.1,2,0,4-0.2,5.9c-0.4,2.3-0.9,4.5-1.5,6.8
				c-0.2,1-0.5,2-0.7,3c-0.2,1.4-0.5,2.8-0.6,4.2c-0.1,1-0.1,1.9-0.2,2.9c0-0.2-0.1-0.4-0.1-0.5c-0.5,2.7-1,5.4-1.2,8.2
				c-0.1,1.1,0,2.2,0,3.3c0,1.1,0.3,2.1,0.4,3.2c0.1,0.3,0,0.9,0.5,1l0.1,0c-0.1,0-0.3,0-0.4,0.1c0.2,1.6,0,3.1-0.3,4.7
				c-0.8-0.6-1.7-0.8-2.5-1.3c-0.9-0.5-1.9-0.8-2.9-1.2c-1.5-0.6-3.1-1.2-4.7-1.5c-1.2-0.2-2.3-0.6-3.5-0.8c-1-0.1-2.1-0.1-3.1-0.3
				c-1.8-0.2-3.7-0.4-5.5-0.2C91.8,99,91,99,90.2,99.2c-1.7,0.3-3.3,0.4-5,0.5c-1.3,0.1-2.6,0.2-3.8,0.5c-3.5,0.9-7,2.4-9.6,5
				c-0.6,0.7-1.2,1.4-1.9,1.9c-1.1,1-2,2.2-2.9,3.3c-0.2,0.3-0.4,0.6-0.6,0.9c-0.2-0.5-0.5-0.8-0.8-1.3c-0.3-0.4-0.5-0.8-0.8-1.2
				c0,0.1,0,0.3,0,0.4c-0.2-0.9-0.3-1.8-0.5-2.7c-0.3-1.1-0.4-2.2-0.6-3.3l0,0c0.2-0.3,0.2-0.6,0.2-0.9c-0.1-1.4-0.1-2.9-0.3-4.3
				c-0.2-1.5,0.1-3.1-0.2-4.6c0.1-1.4,0.4-2.8,0.4-4.2c0-1.2-0.1-2.4-0.3-3.5c-0.1-1.5-0.4-3-0.7-4.5c-0.4-2.5-1.2-5-2-7.4
				c-0.4-1.5-0.6-3.1-0.9-4.7c-0.3-3.1-1-6.1-1.4-9.1c-0.2-1.3-0.2-2.6-0.3-3.9c0-1.8,0.2-3.5,0.8-5.2c0.7-1.8,2-3.3,3.2-4.8
				c0.8-0.9,1.7-1.8,2.8-2.3c0.8-0.8,1.7-1.4,2.7-1.9c1-0.5,2-1.2,3.2-1.1c0.8,0.3,1.7,0.4,2.6,0.6c1.1,0.3,2.2,0.4,3.3,0.4
				c1.1,0.1,2-0.6,3.1-0.6c0.8-0.1,1.4,0.7,2.1,0.6c0.5,0,0.9-0.2,1.4-0.2c0.6,0,1,0.6,1.6,0.7c0.6,0.1,1.2-0.1,1.7-0.1
				c0.6,0,1.3,0.2,1.9,0.2c0.7,0,1.4-0.1,2.1-0.2c0.5-0.1,1,0.3,1.5,0.2c0.5-0.1,1-0.4,1.5-0.3c0.8,0,1.5-0.2,2.3-0.4
				c0.2,0,0.4-0.2,0.5-0.3c1.8,0.2,3.2-1.1,4.9-1.6c0.8-0.2,1.5-0.5,2.2-0.6C104.4,39.1,105.1,38.6,105.8,38.3z"/>
			<path class="st4" d="M124.5,71.8c1.7-0.4,3.4-0.9,5.2-0.6c1.2,0.3,2.3,0.9,3,2c0.7,1.2,0.8,2.6,1,3.9c0.2,1.9-0.5,3.7-1.1,5.4
				c-0.5,1.5-1.3,2.8-2,4.2c-1.6,3.3-4,6.1-6.7,8.6c-1.4,1.4-3.1,2.4-4.9,3.2c-1.1,0.6-2.3,0.7-3.5,0.8c-0.4-0.1-0.4-0.6-0.5-1
				c-0.1-1.1-0.4-2.1-0.4-3.2c0-1.1-0.1-2.2,0-3.3c0.2-2.8,0.7-5.5,1.2-8.2c0,0.2,0.1,0.4,0.1,0.5c0,0.4,0,0.8,0,1.2
				c0.9-3.9,2.4-7.6,3.4-11.5c0.1-0.4,0.5-0.6,0.8-0.7c0.7-0.2,1.3-0.5,2.1-0.7C122.9,72.5,123.7,72,124.5,71.8z"/>
			<path class="st4" d="M46.9,74.3c0.8-0.7,1.8-1.1,2.9-1.2c1.3-0.1,2.6,0.2,3.8,0.6c0.7,0.4,1.6,0.5,2.3,0.9
				c1.2,0.6,2.5,1.1,3.8,1.7c0.4,0.7,0.3,1.6,0.5,2.4c1,3.9,1.5,7.9,2.1,11.8c0.2,1.5,0.4,3,0.9,4.4c0.1-0.5,0.1-1,0.2-1.5
				c0.3,1.5,0,3.1,0.2,4.6c0.2,1.4,0.2,2.9,0.3,4.3c0,0.3,0,0.6-0.2,0.9c-0.1-0.5-0.2-1-0.3-1.5c-2.3-0.4-4.4-1.5-6.3-2.6
				c-1.1-0.7-2.2-1.3-3.2-2.1c-1-0.7-1.9-1.4-2.7-2.3c-0.9-0.9-1.6-1.9-2.3-2.9c-0.7-0.8-1.2-1.6-1.8-2.5c-0.9-1.6-1.8-3.1-2.4-4.8
				c-0.3-0.8-0.5-1.6-0.5-2.5c-0.2-1.5-0.1-3.2,0.5-4.6C45.1,76.2,45.8,75.1,46.9,74.3z"/>
			<path class="st5" d="M90.2,99.2c0.8-0.1,1.6-0.2,2.3-0.3c1.8-0.2,3.7,0,5.5,0.2c1,0.2,2.1,0.2,3.1,0.3c1.2,0.2,2.3,0.5,3.5,0.8
				c1.6,0.3,3.2,0.9,4.7,1.5c1,0.4,2,0.7,2.9,1.2c0.8,0.5,1.8,0.7,2.5,1.3c-0.4,2.3-0.9,4.6-1.9,6.7c-0.3,0.6-0.6,1.1-0.9,1.7
				c0,0-0.1-0.1-0.2-0.2c-0.7,0.9-1.6,1.6-2.2,2.6c-0.5,0.8-1.1,1.4-1.6,2.2c-0.7,0.7-1.2,1.5-1.8,2.3c-0.5,0.6-1,1.2-1.4,1.8
				c-1,1.4-2,2.7-3,4c-0.6,0.7-1.2,1.4-1.9,2c-0.7,0.7-1.5,1.2-2.2,1.8c-0.9,0.5-1.8,1.1-2.7,1.5c-0.6,0.3-1.4,0.2-2,0.2
				c-0.9,0-1.8,0-2.7-0.2c-1.4-0.2-2.9-0.5-4.2-1.2c-0.7-0.4-1.5-0.7-2.2-1.2c-1.2-0.9-2.4-1.8-3.6-2.8c-0.8-0.7-1.5-1.5-2.3-2.1
				c-0.7-0.6-1.4-1.1-2-1.8c-0.8-0.7-1.5-1.6-2.4-2.3c-1.2-1.1-2.2-2.5-3.3-3.6c-0.6-0.7-1.4-1.3-2-2.1c-0.5-0.6-0.9-1.2-1.5-1.7
				c-0.2-0.1-0.3-0.3-0.3-0.5c0.2-0.3,0.3-0.6,0.6-0.9c0.9-1.1,1.9-2.3,2.9-3.3c0.7-0.6,1.3-1.3,1.9-1.9c2.6-2.6,6.1-4.1,9.6-5
				c1.3-0.3,2.5-0.4,3.8-0.5C86.9,99.6,88.5,99.5,90.2,99.2z"/>
			<path class="st6" d="M64.8,108.8c0.3,0.4,0.5,0.8,0.8,1.2c0.3,0.4,0.6,0.8,0.8,1.3c0.1,0.2,0.2,0.4,0.3,0.5
				c0.6,0.5,1,1.1,1.5,1.7c0.6,0.8,1.3,1.4,2,2.1c1.1,1.2,2.1,2.5,3.3,3.6c0.8,0.7,1.5,1.6,2.4,2.3c0.6,0.6,1.4,1.2,2,1.8
				c0.8,0.7,1.5,1.5,2.3,2.1c1.2,0.9,2.4,1.8,3.6,2.8c0.7,0.5,1.5,0.8,2.2,1.2c1.3,0.7,2.7,1,4.2,1.2c0.9,0.2,1.8,0.2,2.7,0.2
				c0.7,0,1.4,0,2-0.2c1-0.4,1.8-0.9,2.7-1.5c0.7-0.6,1.6-1.1,2.2-1.8c0.7-0.6,1.3-1.3,1.9-2c1-1.3,2.1-2.6,3-4
				c0.4-0.6,0.9-1.2,1.4-1.8c0.6-0.7,1.1-1.6,1.8-2.3c0.5-0.8,1.2-1.4,1.6-2.2c0.6-1,1.5-1.7,2.2-2.6c0,0.1,0.1,0.1,0.2,0.2
				c-0.1,1.2-0.1,2.5,0,3.7c-0.6,0.8-1.1,1.7-1.6,2.5c-0.8,1.1-1.3,2.3-2,3.4c-1,1.5-1.9,3-3,4.4c-1.1,1.5-2.2,3-3.5,4.4
				c-0.6,0.7-1.3,1.4-2,2.1c-0.9,0.9-1.9,1.7-2.9,2.6c-1.6,1.3-3.3,2.3-5.1,3.3c-3,1.6-6.1,3.2-9.4,4.2c-1.7,0.5-3.5,1.1-5.2,1.5
				c-0.9,0.2-1.8,0.4-2.7,0.5c-1.6,0.1-3.1,0-4.7-0.3c-1.1-0.3-1.9-1-2.7-1.8c-0.7-0.6-1.3-1.3-1.8-2.1c-0.4-0.6-0.8-1.2-1-1.8
				c0.3-1.3,0.6-2.6,0.9-3.9c0.3-1.5,0.7-3,0.9-4.4c0.4-2.5,0.4-5,0.3-7.5c-0.3-3-0.5-6.1-1-9.1c-0.3-1.6-0.6-3.2-0.9-4.8
				C64.7,109.1,64.8,108.9,64.8,108.8z"/>
			<path class="st3" d="M112,116.2c0.3,2.2,0.5,4.4,0.8,6.6c0.4,2.9,0.9,5.7,1.4,8.5c0.2,1,0.3,2,0.6,3c0.3,1.1,0.7,2.1,1.1,3.2
				c0.8,2,1.8,4,3.1,5.8c0.7,1.1,1.6,1.9,2.4,2.9c0.9,1.1,2,1.9,3,2.8c0.2,0.3,0.4,0.6,0.8,0.8c0.2,0.8-0.3,1.5-0.6,2.1
				c-0.8,1.3-1.7,2.6-2.7,3.8c-1.1,1.4-2.2,2.7-3.6,3.7c-1.1,0.8-2.2,1.6-3.3,2.4c-1.5,1.2-3.1,2.4-4.8,3.3c-1.3,0.8-2.6,1.3-4,1.8
				c-1.9,0.7-3.8,1.3-5.7,1.7c-3.7,0.8-7.4,1.8-11.2,1.8c-1.1,0.2-2.2,0.1-3.3,0.2c-1.1,0-2.3,0.2-3.4,0.1c-1.4-0.1-2.9-0.3-4.3-0.5
				c-1.3-0.2-2.6-0.5-3.9-0.8c-2.1-0.5-4.2-1.2-6.2-2c-2.4-0.9-4.6-2.1-6.8-3.5c-0.7-0.4-1.4-0.9-2.1-1.3c-1.2-0.8-2.3-1.8-3.3-2.8
				c-0.6-0.6-1.3-1.2-1.8-2c-0.3-0.6-0.7-1.2-0.9-1.9c-0.4-0.1-0.6-0.6-0.2-0.9c0.8-0.7,1.6-1.5,2.3-2.3c0.7-0.8,1.5-1.5,2.2-2.3
				c1.3-1.5,2.7-3,3.8-4.7c1.5-2.1,2.5-4.5,3.2-6.9c0.2,0.7,0.6,1.3,1,1.8c0.5,0.8,1.1,1.5,1.8,2.1c0.8,0.8,1.6,1.5,2.7,1.8
				c1.5,0.3,3.1,0.4,4.7,0.3c0.9,0,1.8-0.3,2.7-0.5c1.8-0.4,3.5-0.9,5.2-1.5c3.3-1,6.4-2.6,9.4-4.2c1.8-1,3.5-2,5.1-3.3
				c1-0.8,2-1.6,2.9-2.6c0.7-0.7,1.4-1.3,2-2.1c1.3-1.4,2.4-2.9,3.5-4.4c1.1-1.4,2-2.9,3-4.4c0.7-1.1,1.3-2.3,2-3.4
				C110.9,117.9,111.4,117.1,112,116.2z"/>
		</g>
		<g>
			<path class="st3" d="M98.5,105.1c0.5,0,1.2-0.4,1.6,0.1c0,0.2,0,0.5-0.2,0.7c-0.6,0.5-1.1,1-1.7,1.5c-0.8,0.9-1.9,1.4-2.9,1.9
				c-0.8,0.4-1.7,0.8-2.6,1c-1.7,0.4-3.4,0.7-5.1,0.8c-1.9,0.1-3.8-0.4-5.6-1.1c-0.8-0.5-1.8-0.8-2.7-0.8c-0.3,0-0.6-0.2-0.9-0.4
				c0.2-0.3,0.6-0.4,0.8-0.7c0.3-0.4,0.8-0.5,1.3-0.6c1.8-0.4,3.6-0.6,5.4-0.6c0.6,0,1.2-0.3,1.8-0.5c0.7-0.3,1.4-0.3,2.1-0.4
				c1.5-0.2,3.1-0.4,4.6-0.6c0.7-0.1,1.4,0,2-0.1C97,105.1,97.8,105.1,98.5,105.1z"/>
			<path class="st7" d="M90,58.4c0.1,0,0.2,0,0.3,0c0.8,2.2,0.9,4.5,1.1,6.7c0.1,0.8,0.2,1.6,0.2,2.4c-0.3-0.1-0.3-0.5-0.4-0.8
				c-0.3-1.9-0.5-3.8-0.8-5.6C90.3,60.2,90,59.3,90,58.4z"/>
			<path class="st7" d="M86.8,59.1c0.1,0.1,0.2,0.2,0.2,0.3c0.3,1.3,0.7,2.6,0.7,3.9c0.1,1.9,0.2,3.8,0.7,5.6c-0.1,0-0.2,0-0.2,0.1
				c-0.6-2-0.9-4.2-1-6.3C87.1,61.5,86.6,60.4,86.8,59.1z"/>
			<path class="st8" d="M72.9,65.3c1.1-0.5,2.3-0.6,3.5-0.6c1.1,0,2.3,0.2,3.2,0.8c0.2,0.1,0.1,0.4,0.1,0.5
				c-0.6-0.2-1.1-0.5-1.8-0.6c-1.4-0.2-2.8,0-4.1,0.3c-0.3,0.1-0.7,0.1-1,0C72.9,65.6,72.9,65.5,72.9,65.3z"/>
			<path class="st2" d="M95,68.7c2.5-1.5,5.5-1.8,8.3-2c1.5-0.2,3,0,4.5-0.1c2.3,0,4.6,0.1,6.8,1c0.5,0.4,1,0.8,1.5,1.2
				c-0.1,0.1-0.2,0.3-0.4,0.3c-0.9,0.1-1.9,0-2.8,0.1c-1.7,0.1-3.4,0-5,0.4c-1.4,0.3-2.8,0.8-4.1,1.3c-2.4,1-4.9,2.2-7.4,2.8
				c-0.9,0.3-1.8,0.1-2.6,0.6c-0.2,0-0.4,0-0.6,0c-0.1-0.5-0.1-0.9-0.2-1.4c0.2-0.8,0.1-1.7,0.6-2.4C93.8,69.8,94.3,69.1,95,68.7z
				 M69.6,68.9c-1.3,0.3-2.6,0.7-3.6,1.5c-1,0.7-2,1.5-2.9,2.3c-0.3,0.1-0.3,0.7,0,0.8c1,0.1,2-0.2,3.1-0.2c1.7-0.1,3.3-0.4,5-0.2
				c1,0,2,0.1,3,0.2c0.7,0,1.3,0.3,1.9,0.4c1.3,0.3,2.6,0.6,3.9,0.8c1.8,0.2,3.6,0.2,5.5,0.1c0.6,0,1.2,0.1,1.8,0.1
				c0,0,0.1-0.3,0.2-0.3c-0.2-0.2-0.5-0.2-0.8-0.3c0.2,0,0.4-0.1,0.6-0.1c0-1-0.2-1.9-0.5-2.8c-0.1-0.3-0.2-0.6-0.5-0.8
				c0,0.4,0.1,0.8,0.2,1.1c-1-0.9-2.2-1.4-3.4-1.8c-1.3-0.4-2.7-0.6-4-0.9C75.9,68.4,72.6,68.1,69.6,68.9z M92.8,69.7
				c-0.5,0.8-0.6,1.7-0.7,2.5c0,0.8,0,1.6,0.4,2.4c0.3,0,0.7,0,1-0.2c-0.2,0-0.4,0-0.6,0c-0.1-0.5-0.1-0.9-0.2-1.4
				c0-0.2-0.1-0.4-0.1-0.6c0.1-1,0.5-1.9,0.7-2.9C93.1,69.5,92.9,69.5,92.8,69.7z M91.3,71.7c-0.1,1-0.1,2.1,0.3,3
				c0.2-0.1,0.2-0.4,0.2-0.6c-0.1-0.8-0.1-1.6,0-2.3c0-0.4,0.1-0.8,0.1-1.2C91.5,70.7,91.4,71.3,91.3,71.7z M87.2,71.3
				c0.2,0.8,0.2,1.5,0.3,2.3c0,0.2-0.1,0.5-0.2,0.7c0,0.1-0.1,0.2-0.1,0.2c0.2,0,0.3,0,0.5,0c0.2-0.9,0.2-1.8,0.2-2.7
				c0-0.4-0.3-0.8-0.6-1C87.2,70.9,87.2,71.1,87.2,71.3z M88.3,71.7c0,1,0.1,2,0,3.1c0.1,0,0.2-0.1,0.3-0.1c0.1-0.6,0.2-1.1,0.2-1.7
				C88.7,72.6,88.7,72,88.3,71.7z M90.5,71.9c-0.1,0.4-0.2,0.9-0.1,1.4c0.1,0.5,0.2,1.1,0.6,1.4c-0.2-0.9-0.3-1.8-0.3-2.8
				C90.8,71.9,90.6,71.9,90.5,71.9z M89,72.4c0,0.7,0.1,1.5,0,2.2c0.1,0,0.2,0,0.3,0c0.1-0.7,0.2-1.5,0-2.2
				C89.3,72.4,89.1,72.4,89,72.4z"/>
			<path class="st9" d="M106,74.3c0.4-0.1,0.8,0.2,1,0.6c0.4,0.8,0.3,1.7,0.1,2.5c-0.1,0.4-0.3,0.8-0.7,1c-0.3,0.1-0.7,0-1-0.2
				c-0.7-0.8-0.8-2-0.4-2.9C105.1,74.8,105.6,74.4,106,74.3z"/>
			<path class="st10" d="M48.2,75.9c0.1-0.3,0.3-0.6,0.7-0.6c1.2-0.1,2.3,0.3,3.4,0.7c0.8,0.3,1.7,0.8,2.3,1.5
				c-0.1,0-0.2,0.1-0.3,0.1c-0.6-0.3-1.1-0.8-1.8-1c-1.2-0.4-2.4-0.7-3.6-0.7C48.7,76,48.4,76,48.2,75.9z"/>
			<path class="st9" d="M73.2,75.6c0.4-0.2,0.9,0,1.1,0.3c0.3,0.4,0.5,1,0.5,1.5c0,0.6,0,1.2-0.3,1.6c-0.3,0.5-1.1,0.5-1.4,0.1
				c-0.7-0.7-0.9-1.8-0.6-2.7C72.6,76.1,72.8,75.7,73.2,75.6z"/>
			<path class="st11" d="M104.7,79.4c1.4,0.1,2.8,0,4.2-0.5c0,0.1,0,0.2,0,0.3c-0.9,0.5-2,0.7-3,0.8c-0.8,0.1-1.6,0.2-2.3-0.2
				c0-0.1-0.1-0.3-0.1-0.4C103.9,79.2,104.3,79.3,104.7,79.4z"/>
			<path class="st12" d="M71.6,80.4c0.3-0.1,0.5,0,0.8,0.1c1.2,0.5,2.6,0.5,3.9,0.2c0.2-0.1,0.3,0,0.5,0c-0.2,0.6-1,0.7-1.5,0.8
				c-1.1,0.1-2.4,0.2-3.4-0.4C71.7,80.8,71.7,80.6,71.6,80.4z"/>
			<path class="st13" d="M70.3,82.8c1.1,0,2.3,0.4,3.4,0.4c0.8,0.1,1.6,0,2.5-0.1c0,0.1,0,0.2,0.1,0.3c-1,0.5-2.1,0.4-3.1,0.4
				c-0.9,0-1.8,0-2.6-0.3C70.2,83.4,70.3,83,70.3,82.8z"/>
			<path class="st4" d="M106.2,83.1c2.1-0.3,4.2,0.6,5.5,2.2c1.1,1.3,1.3,3.1,1,4.7c-0.2,1-0.3,2-0.7,3c-0.4,1-0.9,2-1.7,2.7
				c-1.5,1.5-3.9,2.1-5.9,1.3c-1.9-0.6-3.5-2-4.2-3.9c-0.3-0.8-0.3-1.7-0.2-2.5c0.1-0.7,0.4-1.4,0.6-2.1c0.2-1.8,1.5-3.2,2.9-4.2
				C104.2,83.8,105.1,83.3,106.2,83.1z"/>
			<path class="st14" d="M93.6,85.7c0.1,0,0.2-0.1,0.2-0.2c0.4,0.4,0.5,1,0.8,1.5c0.4,0.9,1,1.6,1.4,2.6c0.4,1.1,0.9,2.3,1.1,3.5
				c0.1,0.8,0.1,1.7-0.4,2.4c-0.2,0.3-0.5,0.6-0.9,0.6c-0.2-0.1-0.3-0.3-0.2-0.4c0.3-0.3,0.7-0.6,0.8-1.1c0.2-1.1-0.1-2.3-0.6-3.3
				c-0.4-0.9-0.7-1.7-1.1-2.6C94.2,87.7,93.8,86.7,93.6,85.7z"/>
			<path class="st4" d="M71.8,86c1.1-0.2,2.4,0,3.4,0.6c1.5,0.9,2.6,2.4,3.1,4c0.7,2.5,0.3,5.3-1.3,7.4c-0.9,1.1-2.2,1.8-3.6,2.2
				c-0.8,0.2-1.6,0.2-2.4-0.1c-1.7-0.5-3.3-1.6-4-3.2c-1.1-2.3-1-5.1,0.2-7.3C67.9,87.8,69.7,86.4,71.8,86z"/>
			<path class="st7" d="M83.4,87.6c0.1-0.4,0.1-0.8,0.3-1.1c0.3,1.2,0,2.5-0.4,3.7c-0.3,1-0.8,1.9-1.1,2.8c-0.4,1.2-0.7,2.5,0,3.6
				c0.3,0.6,1,0.8,1.6,0.9c0.4,0.1,0.8-0.3,1.3-0.2c-0.2,0.1-0.3,0.1-0.5,0.2c0.1,0.1,0.3,0.2,0.5,0.4c-0.9,0-1.8,0.4-2.7-0.1
				c-0.9-0.6-1.3-1.7-1.2-2.7c-0.1-1.2,0.3-2.4,0.9-3.6C82.5,90.2,83.1,89,83.4,87.6z"/>
			<path class="st15" d="M88.8,87.9c0.1,0,0.3,0,0.4,0c0.2,0.5,0.3,1.1,0.3,1.6c0,1.6,0,3.1-0.1,4.7c-0.1,0-0.2-0.1-0.3-0.1
				c-0.2-0.9-0.1-1.9-0.2-2.8C88.8,90.2,88.7,89,88.8,87.9z"/>
			<path class="st16" d="M110.8,87.8c0.3,0.7,0.3,1.6,0,2.4C110.8,89.4,110.7,88.6,110.8,87.8z"/>
			<path class="st17" d="M74.3,87.4c0.7,0.4,1.2,1,1.5,1.8C75,88.9,74.6,88.2,74.3,87.4z"/>
			<path class="st18" d="M127.2,75.5c0.7-0.5,1.5-1.2,2.4-1c0,0.1,0,0.2,0,0.3c-1.5,1-3,2-4.2,3.4c-1.5,1.6-2.7,3.4-3.6,5.4
				c-1.3,2.7-2.5,5.5-3,8.5c-0.1,0-0.3,0-0.4,0c-0.1-1,0.2-1.9,0.4-2.9c0.6-2.2,1.5-4.3,2.5-6.4C122.7,79.8,124.7,77.3,127.2,75.5z
				 M49.4,79.2c0,0.1,0,0.3,0,0.4c0.7,0.4,1.6,0.6,2.2,1.2c1.4,1.1,2.4,2.6,3.3,4.1c1.5,2.5,2.7,5.1,3.8,7.7c0-0.3,0.1-0.5,0.1-0.8
				c-0.1-0.5-0.3-1-0.5-1.5c-1-2.4-2.1-4.8-3.4-7c-1-1.6-2.2-3.1-4-3.8C50.4,79.3,49.9,79.1,49.4,79.2z M58.8,91.8
				c0,0.3-0.1,0.5-0.1,0.8c-0.1,0.3,0.2,0.5,0.4,0.6C59.2,92.7,59,92.2,58.8,91.8z"/>
			<path class="st19" d="M93,96.7c0.7-0.5,1.5-0.9,2.4-1c0.1,0.1,0.2,0.2,0.4,0.3c0,0.1-0.1,0.3-0.2,0.3c-0.7,0.2-1.3,0.5-1.9,0.9
				c-0.9,0.7-2,1-3.1,1.2c-1.6,0.3-3.2,0-4.7-0.3c-0.3-0.1-0.5-0.1-0.8-0.3c-0.2-0.1-0.3-0.2-0.5-0.4c0.2-0.1,0.3-0.2,0.5-0.2
				c1.6,0.3,3.2,0.5,4.8,0.4C90.9,97.5,92,97.3,93,96.7z"/>
			<path class="st20" d="M96.8,104.7c1-0.1,2-0.4,3.1-0.2c0.1,0.1,0.1,0.2,0.2,0.3c-0.3,0.1-0.5,0.1-0.8,0.2c-1.3,0.3-2.7,0.6-4,0.7
				c-2.2,0.3-4.4-0.1-6.6,0.5c-1.4,0.4-2.8,0.8-4.2,0.8c-1,0.1-2-0.1-3,0.2c-1,0.2-2,0.8-2.9,1.3c-0.3,0.1-0.5,0.2-0.8,0.2
				c0.6-0.8,1.5-1.3,2.4-1.8c1-0.5,2.1-0.6,3.2-0.6c1.4,0,2.9-0.2,4.3-0.7c1.2-0.4,2.5-0.6,3.9-0.6C93.3,105.1,95.1,105,96.8,104.7z
				"/>
			<path class="st21" d="M86.6,109c1.9-0.5,3.8-0.7,5.7-0.9c0,0.1,0.1,0.3,0.1,0.4c-1,0.4-2.1,0.5-3.2,0.8c-0.8,0.2-1.7,0.4-2.6,0.2
				C86.6,109.3,86.6,109.2,86.6,109z"/>
			<path class="st7" d="M93.6,134c0.1,0,0.2-0.1,0.4-0.1c0.6,1,0.9,2.2,1.1,3.4c0.2,1.6,0.5,3.3,0.3,5c0,0.6-0.2,1.2-0.4,1.7
				c-0.1,0-0.3,0-0.4-0.1c0.3-1.2,0.3-2.4,0.2-3.5c-0.2-1.9-0.6-3.9-1.1-5.8C93.6,134.4,93.5,134.2,93.6,134z"/>
			<path class="st7" d="M85.4,135.3c0.1,0,0.2,0,0.3,0c0.3,1.2,0.2,2.4,0.3,3.6c0.1,1.7,0.6,3.4,1.4,4.9c0.3,0.5,0.7,0.8,0.8,1.4
				c-0.4,0-0.6-0.3-0.8-0.6c-0.9-1.1-1.5-2.4-1.9-3.8c-0.4-1.3-0.4-2.7-0.3-4C85.2,136.3,85.2,135.8,85.4,135.3z"/>
			<path class="st22" d="M140,207.4c0.2-0.5,0.5-1.1,0.6-1.6c0.5-1.1,0.8-2.2,1.2-3.3c1.2-3.5,2.7-6.9,4-10.4c1-2.8,1.9-5.6,2.8-8.5
				c0.3-1.2,0.7-2.3,0.9-3.5c-0.1,0-0.2,0-0.3,0c-0.3,0.8-0.6,1.7-0.9,2.6c-0.6,1.8-1.2,3.5-1.8,5.3c-1.7,5.3-3.8,10.4-5.5,15.7
				c-0.2,0.5-0.4,1-0.5,1.5c-0.3,0.5-0.4,1.1-0.6,1.7c-0.2,0.6-0.5,1.1-0.6,1.6C139.7,208.3,139.8,207.8,140,207.4z"/>
			<path class="st22" d="M137,213.8c0.1-0.5-0.1-0.9-0.1-1.4c0-2.1,0.3-4.2,0.6-6.3c0.5-2.7,1.4-5.3,2-7.9c0.3-1.5,0.5-3,0.2-4.4
				c-0.1,0-0.3,0-0.4,0c0,2.3-0.6,4.6-1.3,6.8c-1,3.1-1.4,6.3-1.6,9.6c-0.1,1.2-0.1,2.4,0.2,3.6C136.7,213.7,136.9,213.8,137,213.8z
				"/>
			<path class="st22" d="M142.7,210.1c1-2.9,2-5.8,2.7-8.8c-0.1-0.1-0.2-0.1-0.4-0.2c-0.4,0.5-0.6,1.1-0.8,1.6
				c-1.2,3.3-2.3,6.7-3.1,10.1c-0.1,0.5-0.1,1-0.1,1.6c0.1,0,0.2,0,0.4,0C141.7,212.9,142.3,211.5,142.7,210.1z"/>
			<path class="st22" d="M125,174.8c1.1-1,2.2-2,3.1-3.3c0.5-0.8,1.1-1.6,1.3-2.5c-0.1,0-0.2-0.1-0.3-0.1c-0.3,0.3-0.4,0.7-0.6,1
				c-1.3,2.1-3,3.8-4.7,5.5c-1.1,1-2.1,2.1-3.2,3c-0.4,0.3-0.7,0.6-1.1,0.9c-0.3,0.3-0.7,0.5-0.8,1c0.3-0.1,0.5-0.2,0.8-0.4
				c0.5-0.4,1-0.8,1.4-1.3C122.2,177.4,123.6,176.1,125,174.8z"/>
			<path class="st22" d="M76,193c-1.9-0.9-3.5-2.4-5.1-3.8c-1.1-1.1-2.2-2.2-3.5-3.1c-1.3-0.9-2.8-1.5-4.1-2.2
				c-0.3-0.2-0.6-0.3-1-0.3c0.1,0.2,0.2,0.3,0.3,0.4c1.3,0.9,2.8,1.4,4.2,2.3c0.8,0.5,1.5,1.1,2.2,1.7c1.9,1.7,3.6,3.4,5.8,4.7
				c0.7,0.4,1.3,0.8,2.1,0.9C76.8,193.2,76.3,193.2,76,193z"/>
			<path class="st22" d="M71.6,200.1c0.4,0.5,0.9,0.9,1.4,1.4c1.5,1.6,3.3,2.8,5.2,4c1.4,0.9,3,1.4,4.5,2c0-0.1,0-0.2,0.1-0.3
				c-0.8-0.4-1.6-0.7-2.4-1c-1.8-0.9-3.4-2-4.9-3.2c-1-0.8-1.8-1.8-2.9-2.6C72.3,200.1,71.9,199.8,71.6,200.1z"/>
			<path class="st22" d="M123.1,192c-0.4,0.6-0.9,1-1.3,1.7c0.2,0,0.4-0.1,0.5-0.2c0.7-0.7,1.3-1.6,1.9-2.4c1.3-1.8,2.7-3.6,4.1-5.3
				c1.4-1.7,2.9-3.3,4-5.1c0.3-0.5,0.7-1,0.9-1.5c-0.5,0.1-0.7,0.6-1,0.9c-1.4,2-3,3.7-4.5,5.7C126.1,187.7,124.6,189.8,123.1,192z"
				/>
			<path class="st22" d="M33.8,197.1c1.7,3.2,3.3,6.5,5.3,9.6c0.1,0,0.2,0,0.3-0.1c-1.6-2.9-3.1-5.9-4.5-8.8c-0.9-2-1.9-4-3.1-5.7
				c-0.1,0-0.2,0-0.3,0c0,0.3,0,0.5,0.2,0.7C32.4,194.2,33,195.7,33.8,197.1z"/>
			<path class="st22" d="M26,192.1c1.3,1.7,2.2,3.7,3.1,5.7c1,2.2,2.1,4.3,3.5,6.2c0.4,0.6,0.8,1.2,1.3,1.8c0.5,0.6,1,1.2,1.6,1.7
				c-0.1-0.5-0.5-0.9-0.8-1.3c-0.6-0.7-1.2-1.5-1.8-2.3c-1.2-1.8-2.2-3.8-3-5.8c-0.8-1.9-1.4-3.9-2.6-5.6c-0.8-1.2-1.9-2.3-2.6-3.6
				c-0.2-0.3-0.4-0.6-0.7-0.8c-0.1,0.2-0.1,0.5,0,0.7C24.3,190,25.2,191,26,192.1z"/>
			<path class="st22" d="M38.5,210.9c0,0.6,0.3,1.1,0.5,1.6c0.8,1.9,1.5,3.9,2.1,5.9h0.3c0-0.1,0-0.1,0-0.1
				c-0.3-1.5-0.8-2.9-1.2-4.3c-0.4-1-0.6-2.1-1.3-3C38.8,210.9,38.6,210.9,38.5,210.9z"/>
			<path class="st22" d="M48.5,160.6c0.8,0.7,1.2,1.6,1.9,2.4c0.8,0.9,1.5,1.7,2.3,2.6c0.8,0.9,2,1.5,2.9,2.3
				c1.7,1.3,3.5,2.4,5.2,3.7c1.1,0.7,2.2,1.4,3.4,2.1c2.9,1.6,6.2,2.4,9.3,3.5c0.6,0.1,1.2,0.4,1.8,0.4c0.7,0.3,1.5,0.4,2.2,0.6
				c2.7,0.4,5.5,0.3,8.3,0.3c2.4-0.2,4.9-0.1,7.3-0.6c2.1-0.5,4.2-0.9,6.3-1.5c3-1.1,6-2.1,9-3.4c1.4-0.6,2.7-1.4,4-2
				c1.7-0.9,3.2-2,4.8-3c1.3-0.8,2.5-1.8,3.7-2.7c1.1-0.8,2.1-1.7,3.2-2.7c1.3-1.2,2.6-2.4,3.8-3.7c0.9-1.1,1.6-2.3,2.5-3.4
				c0.5-0.6,1-1.2,1.3-1.9c-0.7,0.1-1.1,0.6-1.6,1.1c-1.2,1.5-2.3,3.1-3.7,4.5c-1.9,1.8-3.9,3.6-6,5.2c-2.8,2.2-5.6,4.6-8.8,6.2
				c-1.2,0.6-2.3,1.3-3.6,1.8c-3.1,1.3-6.3,2.4-9.4,3.5c-3.3,0.9-6.6,1.7-10,1.8c-1.4,0-2.8,0.3-4.2,0.2c-2.8,0-5.6,0.1-8.4-0.6
				c-1.2-0.3-2.4-0.5-3.5-1c-2.5-0.8-5-1.6-7.3-2.7c-1-0.5-2-1.2-2.9-1.7c-1.2-0.7-2.3-1.5-3.4-2.3c-1-0.6-1.9-1.4-2.9-2.1
				c-1-0.8-2.2-1.3-3-2.3c-0.7-0.8-1.5-1.7-2.3-2.5c-0.5-0.8-1.1-1.5-1.8-2.2c-0.3-0.3-0.7-0.7-1.2-0.5
				C48,160,48.2,160.3,48.5,160.6z"/>
		</g>
	</g>
</g>
</svg>
