<?xml version="1.0" encoding="utf-8"?>
<!-- Generator: Adobe Illustrator 25.2.0, SVG Export Plug-In . SVG Version: 6.00 Build 0)  -->
<svg version="1.1" id="Layer_1" xmlns="http://www.w3.org/2000/svg" xmlns:xlink="http://www.w3.org/1999/xlink" x="0px" y="0px"
	 viewBox="0 0 180 180" style="enable-background:new 0 0 180 180;" xml:space="preserve">
<style type="text/css">
	.st0{clip-path:url(#SVGID_2_);}
	.st1{fill:#193857;}
	.st2{fill:#DC9EB5;}
	.st3{fill:#F2844F;}
	.st4{fill:#EC814D;}
	.st5{fill:#E56324;}
	.st6{fill:#F9CBB5;}
	.st7{fill:#F5A37C;}
	.st8{fill:#ED7A43;}
	.st9{fill:#F95939;}
	.st10{fill:#EE7C45;}
	.st11{fill:#AB7D86;}
	.st12{fill:#102438;}
	.st13{fill:#FBBB9E;}
	.st14{fill:#150F0C;}
	.st15{fill:#CC492F;}
	.st16{fill:#B95D38;}
	.st17{fill:#A3343E;}
	.st18{fill:#38312D;}
</style>
<g>
	<defs>
		<rect id="SVGID_1_" width="180" height="180"/>
	</defs>
	<use xlink:href="#SVGID_1_"  style="overflow:visible;fill:#E5174D;"/>
	<clipPath id="SVGID_2_">
		<use xlink:href="#SVGID_1_"  style="overflow:visible;"/>
	</clipPath>
	<g class="st0">
		<g>
			<path class="st1" d="M93.5,25.4c1.7-0.2,3.5,0.2,5.2,0.7c0.9,0.2,1.7,0.6,2.6,1c0.6,0.2,1.1,0.6,1.6,0.8c0.6,0.3,1.1,0.7,1.5,1.1
				c1.2-0.1,2.4-0.3,3.6-0.2c1.9,0,3.8,0.2,5.5,0.9c0.8,0.3,1.5,0.6,2.2,1c0.9,0.5,1.8,1.1,2.7,1.7c1.2,1,2.2,2.2,3,3.5
				c0.5,0.8,1,1.5,1.4,2.3c0.6,1.1,1.1,2.3,1.6,3.5c1.2,2.9,1.9,5.9,2.5,8.9c0.2,1.3,0.6,2.5,0.8,3.8c0.3,1.8,0.5,3.6,0.6,5.5
				c0,1.5,0,3,0,4.5c0.1,5-0.7,10-2,14.8c-0.5,1.8-1,3.5-1.7,5.2c-0.8,1.7-1.8,3.4-2.9,4.9c-1.2,1.6-2.5,3.2-3.8,4.8
				c-1.5,1.6-3.1,3.2-4.6,4.8c-2.8,2.9-6,5.5-9.4,7.9c-3.5,2.4-7.2,4.6-10.9,6.7c-1.7,0.9-3.4,1.9-5.1,2.9c-0.4,0.3-0.9,0.5-1.1,1
				c-0.7,2.1-1.4,4.3-2.4,6.3c-0.8,1.7-1.4,3.5-2.7,5c-0.6,0.7-1.2,1.3-1.8,1.8c-0.8,0.6-1.7,1.2-2.7,1.6c-0.9,0.4-1.9,0.7-2.8,1
				c-1.2,0.3-2.3,0.6-3.5,0.9c-1.9,0.3-3.8,0.3-5.7,0.1c-0.8-0.1-1.7-0.2-2.5-0.4c-0.9-0.4-1.9-0.7-2.7-1.3
				c-1.2-0.7-2.2-1.6-3.2-2.6c-1.7-1.6-3-3.6-3.8-5.8c-0.8-2-1-4.2-1-6.4c-0.1-2.1,0.3-4.2,1.1-6.2c0.7-1.6,1.6-3.1,2.7-4.4
				c1.2-1.4,2.7-2.7,4.1-3.9c0.3-0.3,0.7-0.5,0.9-0.8c0.3-0.6,0.5-1.2,0.6-1.9c0.2-2.2-0.1-4.3-0.6-6.4c-0.5-2-0.8-4-1.2-6
				c-1.1-4.7-2.1-9.4-2.4-14.2c-0.1-0.8,0-1.6-0.1-2.5c-0.1-1.7-0.1-3.5,0-5.2c0.1-2.4,0.3-4.8,0.8-7.2c0.7-3.6,2-7.1,3.4-10.5
				c0.7-1.8,1.7-3.6,2.6-5.3c1.1-1.9,2.4-3.6,3.8-5.3c2.3-3,5.3-5.4,8.5-7.3c1.4-0.9,3-1.6,4.5-2.3c2.3-0.9,4.7-1.7,7.1-2.1
				C90,25.6,91.7,25.3,93.5,25.4z"/>
			<path class="st2" d="M174.5,219.6c0-0.1,0-0.1-0.1-0.2c-0.9-1.8-1.8-3.5-2.7-5.3c0-0.2-0.1-0.4-0.1-0.6
				c-1.3-4.8-2.9-9.5-4.7-14.1c-0.2-0.9-0.5-1.8-0.7-2.7c-1.1-3.9-2.5-7.7-4.5-11.3c-0.5-0.9-1.1-1.8-1.6-2.7
				c-0.8-1.3-1.8-2.4-2.9-3.5c-1.3-1.4-2.6-2.7-4-4c-0.7-0.7-1.5-1.4-2.3-2.1c-1.6-1.3-3.3-2.6-5-3.9c-1.6-1.2-3.2-2.1-4.9-3.1
				c-1.5-0.9-2.9-1.9-4.4-2.6c-0.8-0.4-1.6-1-2.4-1.5c-2.6-1.5-5.3-3-7.9-4.6c-1.8-1.1-3.6-2.1-5.4-3.3c-0.8-0.5-1.5-1.1-2.3-1.6
				c-0.7-0.4-1.4-0.9-2.1-1.4c-0.7-0.5-1.4-1.1-1.9-1.8c-0.7-0.8-1.3-1.7-1.8-2.6c-0.5-0.8-1-1.6-1.8-2.2c-0.7-0.5-1.6-0.6-2.4-0.8
				c-0.9-0.2-1.9,0.1-2.8,0.2c-1.6,0.3-3.2,0.5-4.8,0.6c-1.1,0.1-2.2,0-3.2-0.1c-1-0.1-2,0-3-0.1c-1.4-0.1-2.8,0.1-4.2,0.1
				c-0.7,0-1.3-0.3-2-0.3c-1.4-0.1-2.9,0-4.3-0.1c-4.1,0-8.1,0.1-12.2,0c-1.4,0-2.9-0.1-4.3,0.1c-0.4-0.4-1-0.3-1.5-0.3
				c-0.9,0-1.7,0.3-2.5,0.8c-1.4,0.9-2.4,2.2-3.5,3.4c-1.5,1.4-3.2,2.5-4.9,3.5c-2,1-4.1,1.9-6.2,2.7c-2.7,1.2-5.4,2.4-8.2,3.4
				c-0.7,0.4-3.1,1.8-3.7,2.1c-2.5,1.4-5.1,2.8-7.8,3.6c-0.8,0.5-1.6,1-2.4,1.6c-6.6,2.8-12.5,6.9-17.4,12.2
				c-0.3,0.2-0.6,0.4-0.9,0.6c-0.5,0.6-1,1.3-1.5,1.9c-0.4,0.6-0.8,1.2-1.3,1.8c-0.3,0.6-0.6,1.1-0.9,1.7c-0.1,0.2-0.1,0.4-0.1,0.6
				c0,0.1-0.1,0.1-0.1,0.2c-0.1,0-0.2,0.1-0.3,0.1c-0.3,0.5-0.6,1-0.8,1.4c-0.5,1.4-0.9,2.8-1.5,4.2c-2.2,5.8-4.7,11.5-6.2,17.5
				c-0.8,3.2-1.5,6.4-2.1,9.7c-0.2,0.9-0.3,1.7-0.5,2.6H174.5z M18,180.7c0.1-0.1,0.1-0.1,0.2-0.2c0,0,0,0,0,0
				C18,180.7,17.9,180.8,18,180.7z"/>
		</g>
		<g>
			<path class="st3" d="M90.9,38.1c1-0.3,2.1-0.5,3.1-0.7c0.1,0.1,0.1,0.2,0.2,0.3c-1.9,0.2-3.6,0.8-5.3,1.7c-1,0.6-2,1.2-2.9,2
				c-0.4,0.3-0.7,0.7-0.7,1.2c0.3-0.2,0.5-0.4,0.8-0.6c0,0.2-0.1,0.3-0.2,0.4c-0.9,0.9-1.8,1.8-2.6,2.8c-0.2,0-0.4,0-0.5,0.2
				c-0.7,0.8-1.2,1.8-1.8,2.7c-0.3,0.4-0.4,1-0.7,1.5c-0.2,0.4-0.5,0.8-0.6,1.3c0.1,0.1,0.3,0.2,0.4,0.3c-0.1,0-0.2,0-0.3,0
				c-0.3,0.5-0.7,1-0.9,1.6c-0.1,0.3,0,0.6,0,0.9c-0.7,0.9-1,2-1.3,3c-0.1,0.4-0.5,0.7-0.7,1.1c-0.6,1.9-1,3.7-1.6,5.6
				c-0.2,0.5-0.1,1.1-0.3,1.6c-0.4,0.9-0.7,1.8-1.1,2.7c-0.1,0.3-0.2,0.5-0.2,0.8c0.1,0.3,0.5,0.5,0.8,0.2c0.2-0.2,0.4-0.4,0.6-0.6
				c-0.4,1.2-0.8,2.3-1.2,3.5c-0.2,0.6-0.5,1.1-0.6,1.7c0.1-0.1,0.3-0.1,0.4-0.2c-0.1,0.5-0.3,1-0.4,1.5c-0.1,0.9-0.3,1.9-0.6,2.8
				c-0.1-1.4,0.1-2.7,0.2-4.1c0.2-2.4,0.4-4.9,0.8-7.3c0.3-1.7,0.5-3.3,0.9-5c0.5-2.5,1.2-5,2.1-7.4c0.8-2.3,1.7-4.7,2.8-6.9
				c0.1-0.3,0.4-0.6,0.2-0.9c1-1.2,2-2.3,3.2-3.2c1.6-1.2,3.1-2.4,4.9-3.3C88.8,38.8,89.8,38.4,90.9,38.1z"/>
			<path class="st4" d="M94.8,40.6c0.5-0.1,1.1-0.2,1.6-0.1c-0.6,0.3-1.2,0.7-1.9,0.9c0.4-0.3,0.8-0.5,1.2-0.8
				C95.5,40.6,95.2,40.6,94.8,40.6z"/>
			<path class="st5" d="M96.5,40.4c0.9,0,1.8-0.1,2.6,0.1c0.8,0.1,1.5,0.3,2.3,0.4c0.5,0.1,1,0.3,1.5,0.4c0.5,0.1,0.9,0.3,1.4,0.4
				c-1.3,0.2-2.6,0.3-3.8,0.7c-1.5,0.4-2.9,1-4.3,1.6c-3.2,1.5-5.9,3.8-8.5,6.1c-1.7,1.5-3.1,3.3-4.4,5.1c-0.9,1.2-1.7,2.3-2.6,3.5
				c-0.6,0.8-1,1.7-1.5,2.6c-0.5,0.9-1,1.9-1.4,2.9c-0.5,1-1,1.9-1.4,2.9c-0.3,0.9-0.7,1.8-1,2.8c-0.3,0.9-0.5,1.9-0.7,2.9
				c-0.4,2-0.8,4-1.3,6c-0.1,0.4-0.4,0.7-0.6,1c-0.2,0.5-0.1,1.1-0.1,1.6c0,3.1,0.1,6.3,0.3,9.4c0.1,1.6,0.2,3.2,0.5,4.7
				c0.2,2.1,0.6,4.1,1.2,6.1c0.3,0.9,0.5,1.8,0.8,2.7c0.3,1,0.6,2,1.1,2.9c0.2,0.5,0.5,1,0.7,1.6c0.1,0.5,0.2,1,0.3,1.5
				c-0.3-0.5-0.4-1-0.8-1.4c-0.4-0.5-0.8-1.1-1.1-1.6c-0.8-1.2-1.5-2.6-2.2-3.9c-1.7-3.4-2.9-7-3.7-10.6c-0.5-2-0.7-4-0.8-6
				c-0.1-2.8,0.1-5.5,0.5-8.2c0-2.8,0.2-5.7,0.7-8.5c0.2-1.9,0.5-3.7,0.9-5.6c0.2-0.8,0.4-1.7,0.5-2.5c0.5-1.7,1.1-3.3,1.7-4.9
				c0.6-1.5,1.2-2.9,2-4.3c0.9-1.6,1.9-3.1,2.8-4.6c0.6-0.8,1.2-1.6,1.8-2.3c0.2,0.3-0.1,0.6-0.2,0.9c-1.1,2.2-2,4.5-2.8,6.9
				c-0.8,2.4-1.5,4.9-2.1,7.4c-0.3,1.7-0.6,3.3-0.9,5c-0.4,2.4-0.6,4.8-0.8,7.3c-0.1,1.4-0.3,2.7-0.2,4.1c0.2-0.9,0.5-1.9,0.6-2.8
				c0.1-0.5,0.2-1,0.4-1.5c-0.1,0.1-0.3,0.1-0.4,0.2c0.1-0.6,0.4-1.2,0.6-1.7c0.4-1.2,0.8-2.3,1.2-3.5c-0.2,0.2-0.4,0.4-0.6,0.6
				c-0.3,0.2-0.7,0.1-0.8-0.2c-0.1-0.3,0.1-0.5,0.2-0.8c0.4-0.9,0.7-1.8,1.1-2.7c0.2-0.5,0.2-1.1,0.3-1.6c0.6-1.8,1.1-3.7,1.6-5.6
				c0.1-0.4,0.6-0.7,0.7-1.1c0.3-1,0.7-2.1,1.3-3c0-0.3-0.1-0.6,0-0.9c0.2-0.6,0.6-1.1,0.9-1.6c0.1,0,0.2,0,0.3,0
				c0.2,0,0.5,0.1,0.7-0.1c0.4-0.5,0.7-1,1-1.5c1.2-1.6,2.3-3.2,3.8-4.6c1.1-1.1,2.4-2,3.8-2.7c1-0.5,2-0.8,3-1.1
				c0.8-0.2,1.6-0.5,2.5-0.6c0.3,0,0.6,0,0.9,0c-0.4,0.2-0.8,0.5-1.2,0.8C95.3,41.1,95.9,40.8,96.5,40.4z"/>
			<path class="st6" d="M85.3,42.6c0-0.5,0.4-0.9,0.7-1.2c0,0.1-0.1,0.2-0.1,0.4c0,0.1,0.1,0.2,0.2,0.2
				C85.8,42.2,85.6,42.4,85.3,42.6z"/>
			<path class="st3" d="M104.3,41.8c1.6,0.5,3.3-0.6,4.9-0.1c0.7,0.1,1.3,0.4,2,0.7c0.8,0.3,1.4,0.9,2,1.4c1,0.9,1.9,1.8,2.7,2.9
				l0,0.1c0,0.3,0,0.6,0.1,0.9c0.3,1.1,0.7,2.1,0.9,3.2c0.5,2.8,1.3,5.5,1.7,8.3c0.3,1.7,0.4,3.5,0.6,5.2c0,1.1,0.1,2.3,0.1,3.4
				c-0.1,3-0.5,6.1-1.1,9.1c-0.2,1.5-0.3,3.1,0,4.6c0.3,2.2,0.8,4.5,1,6.7c0.2,2,0.2,3.9-0.1,5.9c-0.2,2.3-0.7,4.6-1.1,6.9
				c-0.2,0.9-0.4,1.8-0.5,2.7c-0.2,1.1-0.7,2.1-1.1,3.1c-0.4,1-0.9,2-1.5,3c-0.4,0.7-0.9,1.4-1.1,2.2c-0.2,0.7-0.7,1.3-0.9,2
				c0.7-0.3,1.1-1,1.5-1.5c1.3-1.7,2.5-3.6,3.4-5.6c0.3-0.8,0.6-1.7,1-2.5c0.6-1.6,1.3-3.1,1.7-4.7c0.4-1.3,0.6-2.7,0.8-4.1
				c0.1-1,0.1-1.9,0.3-2.9c0.3-1.7,0.3-3.5,0.2-5.2c-0.1-0.7,0-1.4-0.1-2.1c-0.1-0.8,0.1-1.5,0.1-2.3c0.2-2.6,0.5-5.2,0.7-7.7
				c0-1.1,0.2-2.2,0.2-3.3c0-0.5-0.4-0.9-0.3-1.4c0-1.1,0-2.1,0-3.2c0-0.8,0-1.6-0.2-2.4c-0.1-0.4-0.3-0.7,0-1.1
				c0.1-0.3,0.3-0.5,0.3-0.8c-0.1-1.7-0.3-3.4-0.7-5.1c0.3-0.1,0.6-0.3,0.5-0.6c-0.3-1.5-0.8-2.9-1.3-4.3c0.1-0.3,0.1-0.5,0-0.8
				c-0.5-1.1-1-2.3-1.6-3.4c-0.3-0.4,0.1-0.8-0.1-1.2c-0.2-0.5-0.5-1-0.7-1.6c0.1-0.3,0.1-0.6-0.1-0.9c-0.4-0.7-0.9-1.3-1.4-1.9
				c0.3,0.1,0.6,0.2,0.8,0.1c-0.1-0.2,0-0.4-0.2-0.5c-0.5-0.4-1.1-0.8-1.7-1.1c0.1,0,0.3,0,0.4,0c0.3-0.3,0.6,0.2,0.8,0.3
				c1.8,1.5,3.3,3.4,4.6,5.3c0.9,1.6,1.6,3.2,2.1,5c0.6,1.9,1,3.8,1.4,5.7c0.3,1.6,0.5,3.1,0.7,4.7c0.3,1.9,0.4,3.8,0.3,5.8
				c-0.2,2.4-0.1,4.8-0.3,7.2c-0.1,1.9-0.4,3.8-0.6,5.7c-0.1,1.1-0.2,2.1-0.5,3.2c-0.5,2.7-1.1,5.4-1.7,8c-0.4,2-0.9,3.9-1.5,5.9
				c-0.6,2.2-1.4,4.3-2.2,6.4c-0.8,1.9-1.6,3.9-2.7,5.7c-1,1.6-2,3.3-3,4.9c-0.4,0.6-0.8,1.1-1.3,1.6c-0.8,0.9-1.5,1.9-2.4,2.7
				c-0.3,0.3-0.6,0.6-1,0.8c-1,0.4-1.9,1.1-2.9,1.6c-1.1,0.5-2.3,0.8-3.5,1c-1,0.2-2,0.3-3,0.2c-2,0-4-0.4-5.9-0.8
				c-2.1-0.5-4.2-1.2-6.2-2.2c-1.7-0.8-3.3-2-4.8-3.2c-1-0.8-1.9-1.7-2.8-2.6c-1-1.1-2-2.2-2.9-3.3c-1.2-1.4-2.1-3-3.1-4.6
				c-0.7-1.2-1.3-2.5-1.9-3.8c-0.5-0.9-1.1-1.8-1.5-2.8c-0.4-0.9-0.9-1.7-1.2-2.5c-0.1-0.3-0.3-0.5-0.6-0.6c-0.2-1.3-0.3-2.7-0.6-4
				c-0.4-2.3-0.7-4.7-1.1-7.1c-0.2-1.2-0.4-2.4-0.5-3.7c0.4-2.1,0.9-4.1,1.3-6.2c0.5-2.3,1-4.5,1.5-6.8c0.5-2.2,1.1-4.3,1.7-6.5
				c0.1-0.4,0.2-0.7,0.4-1.1c-0.1,0.9-0.4,1.7-0.5,2.5c-0.4,1.8-0.6,3.7-0.9,5.6c-0.4,2.8-0.6,5.6-0.7,8.5c-0.3,2.7-0.5,5.5-0.5,8.2
				c0.1,2,0.3,4,0.8,6c0.9,3.7,2,7.3,3.7,10.6c0.7,1.3,1.4,2.6,2.2,3.9c0.4,0.5,0.7,1.1,1.1,1.6c0.4,0.4,0.5,1,0.8,1.4
				c-0.2-0.5-0.2-1-0.3-1.5c-0.2-0.5-0.5-1-0.7-1.6c-0.4-0.9-0.7-1.9-1.1-2.9c-0.3-0.9-0.5-1.8-0.8-2.7c-0.5-2-0.9-4.1-1.2-6.1
				c-0.3-1.6-0.4-3.1-0.5-4.7c-0.2-3.1-0.3-6.3-0.3-9.4c0-0.5-0.1-1.1,0.1-1.6c0.2-0.3,0.6-0.6,0.6-1c0.5-2,0.9-4,1.3-6
				c0.2-1,0.4-1.9,0.7-2.9c0.3-0.9,0.6-1.9,1-2.8c0.4-1,0.9-1.9,1.4-2.9c0.5-0.9,0.9-1.9,1.4-2.9c0.5-0.9,0.9-1.8,1.5-2.6
				c0.8-1.2,1.7-2.4,2.6-3.5c1.4-1.8,2.8-3.6,4.4-5.1c2.6-2.3,5.3-4.6,8.5-6.1c1.4-0.7,2.8-1.2,4.3-1.6
				C101.7,42.1,103,42,104.3,41.8z"/>
			<path class="st7" d="M97,44.8c0.3,0-0.2,0.5-0.3,0.3C96.7,45,96.8,44.9,97,44.8z"/>
			<path class="st5" d="M116,47.6c-0.1-0.3-0.1-0.6-0.1-0.9c0.4,0.6,0.8,1.3,1.1,2c0.9,2,1.7,4,2.4,6.1c0.4,1.4,0.9,2.9,1.1,4.4
				c0.1,0.8,0.3,1.6,0.4,2.5c0.1,0.9,0.1,1.8,0.6,2.5c0.1,0,0.3,0,0.4,0c-0.2,0.3-0.1,0.7,0,1.1c0.2,0.8,0.2,1.6,0.2,2.4
				c0,1.1,0,2.1,0,3.2c0,0.5,0.4,0.9,0.3,1.4c0,1.1-0.1,2.2-0.2,3.3c-0.2,2.6-0.5,5.2-0.7,7.7c0,0.8-0.3,1.5-0.1,2.3
				c0.1,0.7,0,1.4,0.1,2.1c0.1,1.7,0.1,3.5-0.2,5.2c-0.2,1-0.2,1.9-0.3,2.9c-0.2,1.4-0.4,2.8-0.8,4.1c-0.4,1.6-1.1,3.1-1.7,4.7
				c-0.3,0.8-0.7,1.7-1,2.5c-0.9,2-2.1,3.8-3.4,5.6c-0.5,0.6-0.9,1.2-1.5,1.5c0.2-0.7,0.8-1.3,0.9-2c0.2-0.8,0.8-1.5,1.1-2.2
				c0.5-1,1-2,1.5-3c0.4-1,0.9-2,1.1-3.1c0.2-0.9,0.4-1.8,0.5-2.7c0.4-2.3,0.9-4.6,1.1-6.9c0.2-2,0.2-3.9,0.1-5.9
				c-0.2-2.3-0.7-4.5-1-6.7c-0.3-1.5-0.2-3.1,0-4.6c0.6-3,0.9-6,1.1-9.1c0.1-1.1,0-2.3-0.1-3.4c-0.1-1.8-0.3-3.5-0.6-5.2
				c-0.4-2.8-1.2-5.5-1.7-8.3C116.7,49.8,116.3,48.7,116,47.6z"/>
			<path class="st8" d="M121.2,64.6c-0.2-0.3-0.1-0.7,0-1C121.2,63.9,121.2,64.3,121.2,64.6z"/>
			<path class="st9" d="M58.9,70.8c0-0.2,0.2-0.5,0.4-0.2c0.2,0.4,0.3,0.9,0.5,1.3c0.5,1.2,1,2.4,1.6,3.5c1.3,2.3,2.8,4.4,4.5,6.4
				c0.2,0.3,0.5,0.5,0.7,0.8c0.1,1.2,0.3,2.4,0.5,3.7c0.4,2.4,0.7,4.7,1.1,7.1c0.2,1.3,0.4,2.7,0.6,4c0.2,1.2,0.3,2.4,0.2,3.6
				c0,0.5-0.3,0.9-0.4,1.3c0-0.3,0-0.5,0-0.8c-0.6,0.1-1.3,0-1.9,0c-1.6,0-3.1-0.2-4.6-0.6c-1.8-0.6-3.5-1.5-5-2.6
				c-1.3-1-2.4-2.3-3.3-3.6c-1.2-2-2.2-4.3-2.7-6.6c-0.3-1.4-0.4-2.8-0.4-4.2c0-1.7,0-3.4,0.3-5c0.4-1.6,0.9-3.3,1.9-4.6
				c1-1.4,2.4-2.3,4-2.9C57.4,71,58.1,70.8,58.9,70.8z"/>
			<path class="st10" d="M73.4,77c0.2-0.6,0.2-1.2,0.5-1.7c-0.1,0.8-0.3,1.6-0.5,2.5c-0.1,0.5-0.2,1-0.5,1.5
				C73,78.5,73.3,77.7,73.4,77z"/>
			<path class="st3" d="M121.2,87.7c0.1,1,0,2,0,2.9c-0.2,1.7-0.5,3.5-0.9,5.2c0,0.2-0.1,0.3-0.3,0.5c-0.2,0.3-0.3,0.6-0.4,0.9
				c-0.3,1.2-0.7,2.5-1.1,3.7c0-0.8,0.3-1.5,0.4-2.3c0.1-0.9,0.5-1.7,0.6-2.6C120.3,93.3,120.7,90.5,121.2,87.7z"/>
			<path class="st5" d="M106.6,94.6c0.3,0,0.7,0.1,0.7,0.5c0.1,0.5-0.3,0.8-0.6,1.1c-0.8,0.6-1.6,1.2-2.4,1.9c-1,0.7-1.9,1.5-2.9,2
				c-0.3,0.1-0.7,0.3-1,0c-0.3-0.3-0.2-0.8-0.2-1.3c0-0.5-0.1-1,0.1-1.5c0.9-1,2.2-1.5,3.5-2C104.6,95.1,105.6,94.7,106.6,94.6z"/>
			<path class="st5" d="M68.7,97.3c0.2,0.1,0.5,0.3,0.6,0.6c0.4,0.9,0.9,1.7,1.2,2.5c0.4,1,1,1.8,1.5,2.8c0.6,1.3,1.2,2.5,1.9,3.8
				c0.9,1.6,1.8,3.3,3.1,4.6c1,1.1,1.9,2.2,2.9,3.3c0.9,0.9,1.8,1.8,2.8,2.6c1.5,1.2,3,2.3,4.8,3.2c2,1,4.1,1.6,6.2,2.2
				c1.9,0.4,3.9,0.8,5.9,0.8c1,0,2,0,3-0.2c1.2-0.2,2.4-0.5,3.5-1c1-0.4,1.9-1.2,2.9-1.6c0,0.2,0,0.5,0,0.7c-0.7,0.4-1.4,0.8-2,1.2
				c-1,0.6-2.1,0.8-3.2,1.1c-0.9,0.7-1.6,1.6-2.3,2.5c-2.2,2.4-4.5,4.7-7.4,6.1c-1.3,0.7-2.8,1-4.3,1.1c-2.1,0-4.3-0.3-6.3-1.1
				c-0.6-0.2-1.1-0.6-1.6-0.9c-1.1-0.7-2.2-1.5-3.2-2.3c-2.2-1.6-4-3.7-5.5-5.9c-0.5-0.6-1-1.3-1.7-1.6c-0.8-0.4-1.7-0.5-2.6-0.7
				c0-1.2,0.1-2.5,0.1-3.7c0-1.6,0.1-3.1,0-4.7c-0.1-1.9-0.1-3.7-0.3-5.6c-0.2-1.6-0.2-3.3-0.1-5c0.2-0.4,0.4-0.8,0.4-1.3
				C69,99.7,68.9,98.5,68.7,97.3z"/>
			<path class="st5" d="M101.7,109.9c0.5,0,1-0.2,1.5-0.2c0.2,0.1,0.2,0.3,0.1,0.5c-0.3,0.6-0.7,1.3-1.3,1.7
				c-0.9-0.1-1.8-0.1-2.7-0.1c-0.7,0.1-1.4,0.1-2.1,0.1c-0.1,0-0.2-0.1-0.3-0.2c-0.3-0.5-0.7-1.1-0.6-1.7c0.6-0.2,1.3,0,1.9,0
				C99.4,110,100.6,110.1,101.7,109.9z"/>
			<path class="st3" d="M68.7,121.1c0.9,0.2,1.8,0.3,2.6,0.7c0.7,0.4,1.3,1,1.7,1.6c1.6,2.2,3.4,4.3,5.5,5.9c1,0.8,2.1,1.7,3.2,2.3
				c0.6,0.3,1.1,0.7,1.6,0.9c2,0.7,4.2,1,6.3,1.1c1.5-0.1,2.9-0.4,4.3-1.1c2.9-1.4,5.2-3.8,7.4-6.1c0.8-0.8,1.4-1.8,2.3-2.5
				c1.1-0.4,2.2-0.6,3.2-1.1c0.7-0.4,1.4-0.8,2-1.2c0,1.5,0,3,0,4.5c0,2.4-0.2,4.9,0,7.3c0,1.5,0.2,3.1,0.3,4.6
				c0.2,2.3,0.4,4.7,0.7,7c0.1,0.7,0.2,1.5,0.3,2.2c0.1,0.5-0.1,0.9-0.2,1.4c-0.3,1-0.3,2-0.4,3c-0.2,1.6-0.4,3.3-0.7,4.9
				c-0.4,2-1,4-1.6,5.9c-0.7,2.2-1.4,4.5-2.3,6.7c-0.4,1.1-0.8,2.2-1.2,3.3c-0.4,1.1-0.9,2.2-1.2,3.4c-0.7,2.4-1.6,4.6-2.5,6.9
				c-0.8,1.8-1.6,3.7-2.2,5.6c-0.3,1-0.6,2-0.9,3.1c-0.6,1.8-1.1,3.7-1.8,5.5c-0.4,1.2-1.1,2.3-1.7,3.5c-0.4,0.7-0.6,1.5-1,2.2
				c-0.1,0.3-0.6,0.4-0.8,0.1c-0.3-0.4-0.6-0.9-0.9-1.3c-1.3-2.1-2.3-4.3-3.6-6.4c-1-1.9-2.1-3.6-3.1-5.4c-1-1.8-1.9-3.6-2.9-5.4
				c-0.9-1.8-1.8-3.6-2.7-5.4c-1-2.2-2.1-4.4-3.1-6.6c-0.8-1.7-1.5-3.5-2.3-5.2c-1-2.2-2.1-4.4-3-6.6c-0.8-1.9-1.6-3.8-2.3-5.8
				c-0.7-1.7-1.2-3.5-1.8-5.2c-0.3-1-0.5-2-0.7-3.1c-0.1-0.2-0.5-0.3-0.7-0.4c0.2-1.1,0.7-2.2,1-3.3c0.6-2.3,1.2-4.6,1.6-6.9
				c0.4-2.3,0.6-4.7,0.8-7.1C68.4,126.1,68.6,123.6,68.7,121.1z"/>
		</g>
		<g>
			<path class="st11" d="M93.3,37.4c0.8-0.2,1.5-0.3,2.3-0.3c-0.4,0.3-1,0.5-1.5,0.6c-1,0.1-1.9,0.3-2.8,0.8
				c-3.1,1.4-5.7,3.7-7.9,6.2c-2.2,2.5-3.8,5.5-5.1,8.6c-1.7,4-2.6,8.3-3.6,12.6c-0.2,1-0.3,2-0.8,2.8c0-0.3,0-0.5,0.1-0.8
				c0.4-1.4,0.6-2.9,0.9-4.3c0.9-3.7,1.7-7.5,3.2-11c1.2-3,2.9-5.9,5.1-8.4c1.3-1.4,2.6-2.8,4.2-3.9c0.9-0.6,1.7-1.3,2.6-1.8
				C91.1,38,92.2,37.7,93.3,37.4z"/>
			<path class="st1" d="M110.8,38.1c0.1-0.1,0.3-0.1,0.4-0.2c0.9,0.3,1.8,0.7,2.4,1.4c0.5,0.5,1,1,1.4,1.4c0.2,0,0.4-0.1,0.6-0.1
				c0.3,0.1,0.5,0.2,0.8,0.2c0.2,0,0.4-0.2,0.6,0c0.3,0.4,0.5,1,0.7,1.4c0.4,0,0.8,0.1,1.1,0.3c1,1.5,1.7,3.2,2.2,4.9
				c0.2,0.6,0.3,1.4,0.8,1.9c-0.2-1-0.5-2-0.8-3c-0.1-0.3-0.1-0.6-0.1-0.9c0.6,0.9,1,2,1.4,3c0.2,0.6,0.6,1.2,0.7,1.9
				c0.3,1.1,0.5,2.3,0.7,3.4c0.4,1.8,0.4,3.6,0.6,5.5c0.3,3,0.5,5.9,0.5,8.9c0.1,0.9,0,1.8,0,2.7c0,1.4-0.1,2.9-0.2,4.3
				c-0.1,2.4-0.3,4.9-0.7,7.3c-0.2,1.6-0.4,3.2-0.8,4.8c-0.3,1.6-0.7,3.3-1.1,4.9c-0.7,2.4-1.4,4.8-2.3,7.2
				c-0.4,1.2-0.8,2.4-1.3,3.5c-0.3,1-1.1,1.8-1.4,2.8c-0.3,0.5-0.4,1.1-0.8,1.4c-0.3,0.2-0.4,0.5-0.6,0.8c-0.1-0.3,0.1-0.6,0.2-0.8
				c0.3-1.1,0.8-2.1,1.2-3.1c0.5-1.2,0.8-2.4,1.1-3.6c0.3-1.1,0.5-2.3,0.8-3.4c0.3-1,0.4-1.9,0.6-2.9c0.2-1.6,0.6-3.1,0.8-4.7
				c0.3-2.6,0.8-5.1,0.9-7.7c0.1-1.6,0.3-3.1,0.3-4.7c0-1.1,0-2.2,0.1-3.4c-1.3-0.4-2.6-0.8-4-0.7c-0.7-0.1-1.4,0.2-2.1,0.4
				c-1.2,0.3-2.2,0.9-3.3,1.4c-1.2,0.5-2.5,0.8-3.9,1c-0.4,0-1,0-1.3-0.4c-0.2-0.2-0.1-0.4-0.1-0.6c0.1-0.3,0.1-0.6,0.2-0.9
				c0.2-0.4,0.3-0.8,0.5-1.2c0.3-0.7,0.9-1.3,1.5-1.8c1.4-0.8,3.1-1.2,4.7-1.3c1.9-0.2,3.8-0.2,5.7,0.2c0.7,0.1,1.4,0.4,2.1,0.8
				c-0.2-2.1-0.3-4.2-0.5-6.3c0-0.6-0.1-1.2,0-1.8c0.1-0.6-0.1-1.3-0.1-1.9c-0.2-1.5-0.5-3-0.8-4.5c-0.3-1.2-0.5-2.5-0.8-3.7
				c-0.3-1-0.6-2.1-0.9-3.1c-0.2-0.8-0.5-1.6-0.8-2.4c0.4,0.3,0.6,0.8,0.8,1.3c0.7,1.6,1.4,3.3,2,4.9c0.2,0.4,0.4,0.9,0.6,1.3
				c-0.7-1.9-1.4-3.8-2.2-5.7c-0.8-1.8-1.5-3.6-3-5c-0.5-0.5-0.8-1.2-1.3-1.8c-0.3-0.5-0.8-0.9-1.2-1.3
				C112.7,39.3,111.7,38.7,110.8,38.1z"/>
			<g>
				<path class="st12" d="M75.9,35.3c1.5-1.4,3.2-2.5,5-3.5c4.1-2.1,8.6-3.4,13.3-3.2c1.4,0.1,2.9,0,4.2,0.5
					c-0.1-0.4-0.5-0.6-0.9-0.7c-1-0.3-2.1-0.2-3.2-0.2c-0.8,0-1.6,0-2.5,0c-2,0.1-4,0.6-6,1.2c-2.5,0.8-5,1.9-7.2,3.3
					c-1.4,0.9-2.7,2-3.9,3.2c-1.4,1.4-2.7,3-3.9,4.7c-0.9,1.2-1.7,2.5-2.4,3.8c0.4-0.5,0.8-1.1,1.1-1.6c0.8-1.2,1.7-2.3,2.6-3.4
					C73.3,37.9,74.5,36.5,75.9,35.3z"/>
				<path class="st12" d="M88.4,32.1c2.5-0.9,5.1-1.1,7.7-0.9c1.4,0.1,2.7,0.3,4,0.6c1,0.2,1.9,0.7,2.8,1.3c0.5,0.3,0.7,0.8,1.1,1.2
					c0-1-1-1.7-1.8-2.1c-1.2-0.7-2.6-1-4-1.2c-1.6-0.3-3.3-0.3-5-0.2c-2,0.1-4,0.5-5.8,1.3c-1.5,0.6-2.9,1.4-4.2,2.3
					c-1.5,1.1-3,2.4-4.3,3.8c-1.7,1.7-3.2,3.6-4.4,5.7c-0.7,1.1-1.3,2.3-1.9,3.4c0.4-0.3,0.6-0.7,0.8-1.1c0.7-1.2,1.5-2.3,2.3-3.4
					c2.1-3.1,4.8-5.9,7.9-8.1C85.1,33.6,86.7,32.7,88.4,32.1z"/>
				<path class="st12" d="M103.4,36.7c-0.3-0.3-0.7-0.6-1-0.8c-0.6-0.5-1.2-1.1-2-1.4c-1.7-0.8-3.6-1-5.4-0.8
					c-1.9,0.2-3.8,0.6-5.5,1.4c-2,1-3.9,2.2-5.6,3.7c-0.2,0.2-0.4,0.3-0.6,0.4c0.1,0,0.2,0.1,0.3,0.1c0,0.2-0.1,0.3-0.1,0.5
					c1-0.9,1.9-1.7,3-2.4c1.7-1.1,3.6-2.2,5.6-2.7c1.4-0.3,2.8-0.5,4.2-0.5c1.4,0.1,2.8,0.3,4.1,1c0.5,0.3,1,0.7,1.5,1
					c0.4,0.2,0.8,0.5,1.2,0.7c0.3,0.2,0.5,0.5,0.8,0.6c0.1,0.1,0.2,0.1,0.4,0C103.9,37.2,103.7,36.8,103.4,36.7z"/>
				<path class="st12" d="M120.9,45.5c-0.2-0.7-0.7-1.3-1.1-1.9c-0.4-0.9-1-1.7-1.6-2.5c-0.7-0.9-1.4-1.8-2.4-2.4
					c-0.8-0.6-1.7-1.2-2.7-1.6c-1.2-0.5-2.5-0.8-3.8-0.9c-1.2,0-2.5,0.2-3.5,1c0,0.1,0,0.1,0,0.2c0.9-0.3,1.8-0.7,2.7-0.8
					c1-0.1,2,0.1,2.9,0.3c1.8,0.4,3.4,1.5,4.8,2.7c0.7,0.6,1.2,1.4,1.8,2c0.2,0.3,0.5,0.6,0.7,0.9c1,1.5,1.7,3.2,2.2,4.9
					c0.2,0.6,0.3,1.4,0.8,1.9c-0.2-1-0.5-2-0.8-3C120.9,46.1,120.9,45.8,120.9,45.5z"/>
				<path class="st12" d="M115.9,43.3c0.3,0.7,0.8,1.3,1.1,1.9c0.3,0.4,0.4,0.9,0.7,1.2c0.4,0.3,0.6,0.8,0.8,1.3
					c0.7,1.6,1.4,3.3,2,4.9c0.2,0.4,0.4,0.9,0.6,1.3c-0.7-1.9-1.4-3.8-2.2-5.7C118.1,46.5,117.4,44.6,115.9,43.3z"/>
				<path class="st12" d="M126,49.6c-0.5-1.3-0.9-2.7-1.5-4c-0.2-0.5-0.4-1.1-0.7-1.6c-0.1-0.5-0.3-0.9-0.5-1.3
					c-0.8-1.9-2.1-3.5-3.5-5.1c-0.9-0.9-1.9-1.7-2.9-2.5c-1.7-1.3-3.8-2-5.9-2.3c-1-0.1-2,0-3,0.1c-0.8,0.1-1.7,0.2-2.4,0.7
					c0,0.1,0.1,0.2,0.1,0.2c1.4-0.6,2.9-0.6,4.4-0.7c1.2,0,2.3,0.3,3.4,0.6c0.8,0.2,1.5,0.6,2.1,1c0.8,0.5,1.5,1.1,2.2,1.6
					c0.8,0.6,1.5,1.3,2.1,2c1.1,1.2,2.2,2.5,2.9,4c0.3,0.6,0.6,1.3,0.9,1.9c0,0.2,0.1,0.3,0.1,0.4c0.6,1.4,1.1,2.8,1.6,4.2
					c0.2,0.4,0.3,0.8,0.6,1C126.1,49.9,126.1,49.8,126,49.6z"/>
			</g>
			<path class="st13" d="M107.2,44.8c0.4,0,0.8-0.1,1.1,0.2c1.4,0.8,2.2,2.3,2.7,3.7c-0.1,0-0.2,0-0.3,0.1c-0.5-0.9-0.9-1.7-1.6-2.4
				c-0.5-0.5-1.2-0.9-1.9-1.2C107.2,45,107.2,44.9,107.2,44.8z"/>
			<path class="st13" d="M104.3,63.7c0.6,0,1.3-0.1,1.9-0.1c1,0,2.1,0,3.1,0c0.4,0,0.8,0.1,1.1,0.3c-1-0.1-2.1-0.2-3.1,0
				c-1.4,0-2.7,0.2-4,0.4c-1,0.2-2.1,0.4-3.1,0.5c-0.4,0-0.9-0.1-1.3-0.1c0,0,0-0.1-0.1-0.2c0.7-0.2,1.5,0,2.2-0.2
				C102.1,64,103.2,63.8,104.3,63.7z"/>
			<g>
				<path class="st12" d="M71.2,50.4c-1,1.8-1.6,3.7-2.2,5.6c-0.8,2.6-1.4,5.2-1.7,7.9c-0.1,1.2-0.3,2.3-0.3,3.5
					c-0.3,0.9-0.2,2-0.3,2.9c0,0.9-0.2,1.8-0.1,2.7c0.3-0.6,0.2-1.2,0.3-1.8c0-0.9,0.2-1.8,0.2-2.7c0.4-5.5,1.6-10.9,3.5-16
					c0.5-1.2,1-2.4,1.7-3.6C71.8,49.4,71.5,49.9,71.2,50.4z"/>
				<path class="st12" d="M60.9,69.9c-0.4-1.4-0.6-2.8-0.7-4.2c-0.4-4.4,0.5-8.9,2.1-13c-0.5,0.6-0.8,1.4-1.1,2.2
					c-0.9,2.7-1.6,5.6-1.6,8.5c0,1.8,0.3,3.6,0.7,5.4c0.2,0.8,0.4,1.6,0.7,2.3c0,0.3,0.2,0.6,0.4,0.9c0-0.1,0.1-0.2,0.1-0.2
					c0-0.4-0.3-0.8-0.5-1.2C61,70.3,60.9,70.1,60.9,69.9z"/>
				<path class="st12" d="M64.8,64.2c0.2-3,0.7-6,1.5-9c0.2-0.7,0.4-1.4,0.7-2.1c0.6-1.8,1.4-3.5,2.3-5.2c-0.6,0.6-1,1.4-1.4,2.1
					c-0.8,1.6-1.4,3.3-1.9,5c-0.7,2.1-1.1,4.3-1.4,6.5c-0.2,1.6-0.3,3.2-0.4,4.8c0,1.1,0,2.3,0.1,3.4c0,0.3,0,0.6,0.1,0.9
					c0,0.9,0.1,1.8,0.3,2.6c0,0.6,0.1,1.2,0.2,1.8c0.2,1,0.3,2,0.5,3c0.1,0,0.2,0.1,0.2,0.1c-0.2-1.6-0.4-3.3-0.6-4.9
					c0-0.1-0.1-0.2-0.1-0.4c0-0.5,0-0.9-0.1-1.4c-0.1-1.6-0.2-3.3-0.1-5C64.8,65.8,64.7,65,64.8,64.2z"/>
				<path class="st12" d="M63,71.3c-0.3-2.7-0.6-5.3-0.5-8c0.1-2.1,0.2-4.2,0.6-6.3c0.4-2.4,1-4.8,2-7.1c-0.7,0.8-1,1.8-1.4,2.8
					c-0.6,1.7-1,3.5-1.2,5.3c-0.3,1.4-0.3,2.8-0.5,4.3c-0.2,3.1,0.1,6.3,0.8,9.4c0.1,1.2,0.5,2.3,0.7,3.5c0.2,0.6,0.3,1.3,0.7,1.8
					C63.7,75.1,63.4,73.2,63,71.3L63,71.3z"/>
			</g>
			<path class="st14" d="M116.5,77.5c0.4-0.1,0.9,0,1.1,0.4c0.4,0.6,0.3,1.4,0.1,2.1c-0.1,0.5-0.5,1.1-1,1.3c-0.5,0.2-1.1,0-1.4-0.4
				c-0.6-0.7-0.5-1.8,0-2.6C115.6,77.9,116.1,77.6,116.5,77.5z"/>
			<path class="st14" d="M83.3,77.7c0.4-0.1,0.8,0,1.1,0.3c0.4,0.5,0.7,1.2,0.7,1.9c0,0.7-0.3,1.4-1,1.7c-0.4,0.2-0.9,0.2-1.1-0.2
				c-0.4-0.6-0.9-1.2-0.8-2C82.3,78.8,82.6,77.9,83.3,77.7z"/>
			<path class="st15" d="M59.3,79.2c0.7-0.6,1.8-0.7,2.5-0.2c0,0.1,0,0.2,0,0.4c-0.7,0-1.5,0-2,0.5c-0.9,0.9-1.2,2.2-1.2,3.4
				c0.1,3.1,2,6.1,4.7,7.6c0.7,0.4,1.5,0.5,2.2,0.7c0,0.1,0,0.3,0,0.4c-1.2,0.1-2.5-0.3-3.5-1c-1.6-1.1-3-2.6-3.7-4.4
				c-0.6-1.5-0.8-3.2-0.5-4.9C58.1,80.7,58.6,79.8,59.3,79.2z"/>
			<path class="st13" d="M102.6,82.1c0.1,0,0.2,0,0.3-0.1c0,1.5,0,3,0,4.5c0.2,1.9,0.3,3.8,1,5.5c-0.1,0-0.2,0.1-0.2,0.1
				c-0.6-1.2-0.8-2.6-1-3.9c-0.2-1.2-0.3-2.3-0.3-3.5C102.3,83.9,102.3,83,102.6,82.1z"/>
			<g>
				<path class="st16" d="M84.5,82.6c-0.1-0.1-0.1-0.3-0.2-0.3c-1-0.3-2.1-0.6-3.1-0.9c-0.3-0.1-0.5-0.1-0.8-0.1c0,0.1,0,0.2,0,0.3
					c0.7,0.3,1.4,0.4,2.1,0.6C83.1,82.3,83.8,82.5,84.5,82.6z"/>
				<path class="st16" d="M118.7,82c-1.4,0.7-3,0.9-4.5,0.8c0,0.1-0.1,0.2-0.2,0.3c0.2,0.1,0.4,0.2,0.6,0.2c1,0.1,2-0.1,2.9-0.4
					c0.4-0.1,0.8-0.3,1.1-0.6C118.8,82.2,118.7,82.1,118.7,82z"/>
				<path class="st16" d="M83,83.4c-0.6,0-1.1-0.4-1.7-0.5c0.1,0.2,0.1,0.4,0.2,0.4c0.6,0.5,1.5,0.6,2.2,0.5
					c1.2-0.1,2.4-0.4,3.4-1.1c0-0.1,0-0.2,0-0.3C85.8,83.1,84.4,83.4,83,83.4z"/>
			</g>
			<path class="st9" d="M81.7,87.6c0.3-0.1,0.7-0.1,1-0.1c0.8,0.1,1.6,0.1,2.3,0.3c1.6,0.5,3,1.7,3.5,3.3c0.7,1.9,0.6,4-0.2,5.9
				c-0.6,1.3-1.5,2.4-2.6,3.3c-0.8,0.7-1.8,1-2.8,1.4c-1.9,0.7-4.2,0.2-5.8-1c-1.2-0.9-2-2.3-2.3-3.8c-0.3-1.6-0.1-3.4,0.7-4.9
				c0.6-1.2,1.4-2.4,2.6-3c0.7-0.3,1.2-1,2-1.1C80.8,87.8,81.3,87.7,81.7,87.6z"/>
			<path class="st9" d="M113.8,88c0.7-0.3,1.5-0.5,2.3-0.5c0.7,0,1.5-0.1,2.1,0.2c0.6,0.2,1.2,0.4,1.6,0.9c0.2,0.2,0.4,0.4,0.6,0.6
				c-0.2,1.6-0.5,3.1-0.8,4.7c-0.2,1-0.4,2-0.6,2.9c-0.3,1.1-0.5,2.3-0.8,3.4c-0.6,0.2-1.2,0.4-1.7,0.6c-0.8,0.3-1.6,0.1-2.4,0
				c-1.3-0.4-2.7-1-3.6-2.1c-0.5-0.6-0.9-1.3-1.1-2.1c-0.2-1.1-0.4-2.3-0.1-3.4c0.2-1,0.6-2.1,1.2-3c0.4-0.6,1-1,1.6-1.4
				C112.8,88.5,113.3,88.2,113.8,88z"/>
			<path class="st9" d="M122.2,92c0.2,0.4,0.2,0.9,0.2,1.4c0.1,1.1,0,2.3-0.5,3.4c-0.5,0.9-1.1,1.9-2,2.5
				C120.7,96.8,121.5,94.4,122.2,92z"/>
			<path class="st16" d="M68.8,97c0.2,0.2,0.4,0.4,0.5,0.6c0.7,1.7,1.4,3.4,2.3,4.9c0.9,1.7,1.9,3.4,2.9,5.1
				c0.7,1.2,1.5,2.3,2.3,3.4c0.7,0.9,1.3,1.8,2.1,2.6c0.8,0.9,1.6,1.8,2.5,2.6c1,0.8,2,1.6,3.1,2.3c0.7,0.4,1.4,0.7,2,1.2
				c1.6,1,3.2,1.7,4.9,2.4c1.5,0.5,3.1,0.8,4.6,1.1c0.8,0.1,1.5,0.4,2.3,0.4c0.7,0,1.5,0,2.2,0c1.4-0.2,2.8-0.5,4.1-0.8
				c1.5-0.4,2.9-1.2,4.3-2c0,0.2-0.1,0.4-0.3,0.6c-0.8,0.6-1.6,1.2-2.5,1.6c-1,0.4-2.1,0.7-3.2,1c-1.1,0.2-2.2,0.4-3.2,0.2
				c-0.6-0.1-1.3,0-1.9,0c-0.7,0-1.4-0.2-2-0.3c-1.1-0.2-2.2-0.4-3.4-0.7c-1.4-0.3-2.8-1-4.1-1.6c-0.8-0.4-1.6-0.7-2.3-1.2
				c-0.7-0.5-1.4-0.8-2.1-1.2c-0.9-0.6-1.8-1.3-2.6-2c-1.1-0.8-1.9-1.8-2.8-2.9c-1-1.1-1.9-2.4-2.8-3.6c-0.7-0.9-1.2-1.8-1.8-2.7
				c-0.9-1.8-2-3.5-2.9-5.2c-0.9-1.6-1.5-3.3-2.1-5C68.8,97.4,68.8,97.2,68.8,97z"/>
			<g>
				<path class="st16" d="M106.9,93.3c-0.2-0.7-0.4-1.3-0.5-2c-0.3-1.8-0.6-3.6-0.6-5.5c-0.1-1.5,0.1-3.1,0.1-4.6
					c0-1,0.3-1.9,0.3-2.8l0,0.1c0.2-0.5,0.2-1.1,0.4-1.6c0.1-0.4,0.2-0.8,0.2-1.2c-0.4,0.4-0.5,1-0.6,1.5c-0.1,0.4-0.2,0.7-0.2,1.1
					c-0.3,1.1-0.5,2.3-0.6,3.4c-0.3,3-0.3,6.1,0.1,9.1c0.2,1.4,0.5,2.8,1.2,4.1c0.2,0.4,0.1,0.9-0.2,1.2c-0.7,0.7-1.5,1.3-2.4,1.8
					c0,0.1,0,0.2,0,0.3c0.2,0,0.4,0.1,0.6-0.1c0.7-0.4,1.3-0.9,1.9-1.4c0.4-0.4,0.8-0.8,0.9-1.4C107.4,94.6,107,94,106.9,93.3z"/>
				<path class="st16" d="M98.7,94.4c0.1-0.4,0.2-0.7,0.2-1.1c-0.2,0.1-0.5,0.3-0.6,0.6c-0.4,1-0.4,2.1,0,3.1c0.1,0.4,0.6,0.8,1,0.7
					c-0.2-0.3-0.4-0.5-0.6-0.8C98.5,96.1,98.6,95.2,98.7,94.4z"/>
				<path class="st16" d="M100.4,98.2c-0.3,0.9-0.2,2,0.1,2.9c0,0.1,0.2,0.1,0.3,0.1c-0.2-1-0.2-2-0.2-3
					C100.5,98.1,100.4,98.2,100.4,98.2z"/>
				<path class="st16" d="M102.5,98.2c-0.1,0-0.2,0-0.3,0.1c-0.3,1-0.3,2.1,0.4,2.9c0.1-0.4,0-0.8,0-1.3
					C102.5,99.4,102.6,98.8,102.5,98.2z"/>
			</g>
			<path class="st11" d="M78.2,98.6c0.1-0.1,0.3,0,0.2,0.2C78.3,99,78.1,98.8,78.2,98.6z"/>
			<path class="st9" d="M91.5,105.2c2.3-1.9,5.1-3.4,8.1-3.6c1.8-0.2,3.8-0.1,5.5,0.7c0.9,0.4,1.9,0.9,2.6,1.6
				c0.1,0.2,0.2,0.4,0.3,0.7c-1.5,0.1-3,0-4.5,0c-2.1,0.2-4.1,0-6.2,0.1c-1.5,0.2-3.1,0.5-4.7,0.5C92.2,105.2,91.8,105.4,91.5,105.2
				z"/>
			<path class="st1" d="M99.5,35.6c-1,0.3-2.1,0.3-3.2,0.6c-0.5,0.1-0.9,0.3-1.4,0.5c-0.3,0.1-0.5-0.3-0.8-0.2
				c-0.6,0.1-1.1,0.3-1.7,0.5c-0.8,0.3-1.6,0.7-2.4,1.1c-0.4,0.2-0.7,0.5-1.1,0.7c-0.1-0.4-0.4-0.8-0.9-0.8c-0.7,0-1.1,0.7-1.6,1.1
				c-0.2-0.1-0.4-0.2-0.7-0.2c-0.6,0-0.9,0.5-1.3,0.8c-0.7,0.7-1.3,1.5-2,2.2c-0.1,0-0.2-0.1-0.3-0.1c0.4-0.7,0.8-1.3,1.3-1.9
				c0.1-0.2,0.1-0.3,0.1-0.5c-0.1,0-0.2-0.1-0.3-0.1c-0.3,0.2-0.5,0.4-0.7,0.7c-0.7,0.8-1.5,1.5-2.2,2.3c-1,1.1-2.2,2.3-2.6,3.8
				c0.4-0.5,0.8-1,1.2-1.5c0.6-0.7,1.2-1.4,1.8-2c-0.9,1.5-1.7,3-2.5,4.5c-1.3,2.6-2.6,5.1-3.6,7.9c-0.9,2.8-2,5.6-2.4,8.5
				c-0.4,2.4-1,4.8-1.2,7.3c-0.3,2.5-0.6,5-0.7,7.5c0,2.7-0.1,5.4,0.2,8c0.1,1.5,0.4,3,0.6,4.5c0.4,2.3,0.8,4.7,1.6,6.9
				c0.7,2.4,1.8,4.6,2.9,6.8c0.1,0.2,0.2,0.6,0.5,0.5c0.3-0.1,0.2-0.4,0.2-0.6c-0.2-0.5-0.4-0.9-0.7-1.3c-0.5-1.3-1-2.7-1.2-4.1
				c-0.4-2.4-0.6-4.7-0.8-7.1c0-1.2-0.1-2.4-0.1-3.6c0.1-2.4-0.1-4.8,0.2-7.2c0.1-1.5,0.1-3.1,0.2-4.6c0-0.6,0-1.3,0.1-1.9
				c1.9-0.4,3.8-1,5.8-1.3c0.9-0.1,1.7-0.3,2.6-0.2c0.5,0.1,0.9,0.2,1.4,0.3c2.3,0.6,4.5,1.4,6.8,1.9c0.9,0.2,1.8,0.4,2.8,0.3
				c0.4-0.1,0.9-0.3,1-0.8c0-0.3-0.1-0.7,0-1c0-0.4-0.2-0.8-0.3-1.1c-0.1-0.6-0.6-1.1-1.1-1.5c-0.9-0.6-1.9-1.1-2.9-1.5
				c-1.1-0.4-2.3-0.9-3.4-1c-2.6-0.4-5.2-0.5-7.7,0.3c-1.6,0.5-3.2,1.3-4.5,2.4c0.2-1.3,0.6-2.5,0.9-3.7c0.5-2,1-4,1.6-6
				c1-3.3,2.1-6.6,3.5-9.8c0.9-2,1.7-4,3-5.7c0.6-1,1.5-1.8,2.3-2.7c0.6-0.7,1.2-1.4,1.9-2c0.6-0.5,1.3-0.9,1.9-1.3
				c1.5-1,3.1-1.7,4.6-2.4c-1,0.1-1.9,0.3-2.8,0.8c-3.1,1.4-5.7,3.7-7.9,6.2c-2.2,2.5-3.8,5.5-5.1,8.6c-1.7,4-2.6,8.3-3.6,12.6
				c-0.2,1-0.3,2-0.8,2.8c0-0.3,0-0.5,0.1-0.8c0.4-1.4,0.6-2.9,0.9-4.3c0.9-3.7,1.7-7.5,3.2-11c1.2-3,2.9-5.9,5.1-8.4
				c1.3-1.4,2.6-2.8,4.2-3.9c0.9-0.6,1.7-1.3,2.6-1.8c1-0.6,2.2-0.9,3.3-1.2c0.8-0.2,1.5-0.3,2.3-0.3c0.9-0.1,1.7-0.5,2.5-0.7
				c0.6-0.2,1.4-0.2,1.9-0.8C99.8,35.5,99.6,35.5,99.5,35.6z"/>
			<path class="st17" d="M107.6,103.9c0.2,0.2,0.4,0.4,0.6,0.5c0.5,0.1,1.1-0.1,1.6,0.1c-0.1,0.3-0.4,0.3-0.6,0.4
				c-0.3,0.1-0.5,0.3-0.8,0.5c0-0.2,0-0.3,0-0.5c0.4-0.1,0.7-0.2,1-0.4c-0.5,0-0.9,0-1.4,0C107.8,104.3,107.7,104.1,107.6,103.9z"/>
			<path class="st18" d="M85.8,104.3c0.3-0.2,0.8-0.1,1,0.2c0.3,0.5,0.2,1.2-0.4,1.5c-0.6,0.2-1.3-0.3-1.2-0.9
				C85.2,104.8,85.5,104.5,85.8,104.3z"/>
			<path class="st17" d="M97.3,104.7c2.1-0.1,4.1,0.1,6.2-0.1c1.5,0,3,0,4.5,0c0.5,0,0.9,0,1.4,0c-0.3,0.2-0.7,0.3-1,0.4
				c-2.2,0.3-4.4,0.3-6.6,0.1c-0.9,0-1.8,0-2.7,0c-2-0.1-4,0.6-6,0.6c-0.7,0-1.3-0.1-2,0c0,0-0.1-0.1-0.1-0.1
				c0.1-0.1,0.3-0.2,0.4-0.3l0.1,0c0.4,0.1,0.8,0,1.1,0C94.2,105.2,95.7,104.9,97.3,104.7z"/>
			<path class="st9" d="M101.7,105.1c2.2,0.1,4.4,0.2,6.6-0.1c0,0.2,0,0.3,0,0.5c0,0.1-0.1,0.2-0.2,0.3c-0.7,0.7-1.4,1.5-2.3,2
				c-1.4,0.7-3,1.1-4.5,1.1c-1.6,0.1-3.2-0.2-4.8-0.6c-1.1-0.2-2.2-0.5-3.2-0.9c-0.8-0.5-1.5-1.1-2.2-1.7c0.7-0.1,1.3,0,2,0
				c2-0.1,4-0.7,6-0.6C99.9,105.1,100.8,105.1,101.7,105.1z"/>
			<path class="st17" d="M91,105.2c0.1,0,0.3,0,0.4,0c-0.1,0.1-0.3,0.2-0.4,0.3c0,0,0.1,0.1,0.1,0.1c-0.2,0-0.4,0-0.5,0
				C90.7,105.5,90.7,105.3,91,105.2z"/>
			<path class="st13" d="M101.8,105.8c0.7,0,1.3-0.1,2-0.1c-0.2,0.1-0.3,0.3-0.5,0.3c-0.7,0.1-1.4,0-2,0.1c-0.7,0.1-1.4,0.1-2,0.1
				c-0.6,0-1.3,0.2-1.9,0.1c-0.2,0-0.2-0.3,0-0.3C98.8,105.6,100.3,105.8,101.8,105.8z"/>
			<path class="st13" d="M98.6,114.8c0.7-0.1,1.3-0.2,2-0.2c-0.6,0.6-1.5,0.4-2.2,0.7c-0.5,0.1-0.9,0.4-1.4,0.4c0-0.2,0-0.4,0.2-0.5
				C97.6,114.9,98.2,114.9,98.6,114.8z"/>
			<g>
				<path class="st12" d="M68.4,114.2c0.2-0.2,0.2-0.5,0.3-0.7c-0.1,0-0.2,0.1-0.4,0.1c0,0,0,0.1,0,0.2c-0.6,0.9-0.9,1.9-1.2,2.9
					c-0.6,2.1-0.3,4.3,0.4,6.4c0.1,0.3,0.2,0.8,0.6,0.9c0-0.4-0.2-0.8-0.4-1.1c-0.4-1.7-0.6-3.6-0.3-5.3
					C67.6,116.3,68,115.2,68.4,114.2z"/>
				<path class="st12" d="M58.2,125.1c-1.5-2.5-2.4-5.4-2.2-8.4c0.2-3.4,1.3-6.8,3.4-9.4c0.9-1.1,2-2.2,3.2-3
					c0.4-0.3,0.9-0.4,1.3-0.7c-0.3,0-0.6-0.1-0.9,0.1c-0.9,0.4-1.7,1.1-2.4,1.8c-1.2,1.2-2.3,2.5-3.1,4c-1,1.8-1.6,3.8-1.8,5.9
					c-0.3,2-0.1,4.2,0.5,6.1c0.4,1.4,1.1,2.6,1.8,3.8c0.7,1.3,1.6,2.5,2.7,3.6c0.2,0.2,0.4,0.5,0.7,0.4c-0.3-0.4-0.7-0.7-1-1.1
					C59.5,127.2,58.9,126.1,58.2,125.1z"/>
				<path class="st12" d="M66.9,127.3c-1-1.5-1.8-3.2-2.3-4.9c-0.4-1.5-0.5-3.1-0.4-4.7c0.2-1.6,0.5-3.1,1.1-4.6l0,0
					c0.6-1.5,1.4-2.8,2.4-4c0.2-0.3,0.5-0.5,0.5-0.9c-0.4,0-0.6,0.3-0.8,0.6c-1.1,1.2-1.9,2.6-2.5,4.1c-1.3,3.3-1.8,7-0.6,10.4
					c0.5,1.5,1.2,3,2.3,4.1c0.3,0.4,0.7,0.7,1.1,1.1c0.1,0,0.2-0.1,0.2-0.1C67.6,127.9,67.3,127.5,66.9,127.3z"/>
				<path class="st12" d="M64.4,129.2c-1.5-1.5-2.7-3.4-3.4-5.4c-0.4-1.3-0.7-2.6-0.8-3.9c0-0.6-0.1-1.2,0-1.8
					c0.1-2.3,0.6-4.7,1.6-6.8c1.1-2.2,2.6-4.2,4.6-5.6c0.4-0.3,0.9-0.6,1.2-1c-0.2,0-0.4,0-0.5,0.1c-1.1,0.7-2.2,1.5-3.1,2.5
					c-1,1.1-1.8,2.4-2.5,3.8c-1.9,3.8-2.3,8.2-1.2,12.3c0.6,2.6,2.1,5,4.3,6.5c0.3,0.3,0.7,0.5,1.1,0.8c0.5,0.3,0.9,0.7,1.5,0.9
					c-0.2-0.2-0.5-0.4-0.8-0.6C65.7,130.2,65.1,129.6,64.4,129.2z"/>
			</g>
			<path class="st11" d="M114.7,150.1c0.1-0.1,0.2-0.2,0.2-0.3c0.4,0.3,0.6,0.9,0.7,1.4c0.7,2.1,1,4.4,1.3,6.6
				c0.3,1.9,0.3,3.8,0.3,5.7c0,1.1,0,2.2-0.1,3.3c-0.3,2.1-0.7,4.1-1.1,6.1c-0.5,2.3-1,4.6-1.8,6.9c-0.7,2.1-1.4,4.2-2.4,6.2
				c-1.6,3.3-3.3,6.5-5.2,9.6c-1.1,1.7-2.3,3.2-3.4,4.9c-1.1,1.7-2.4,3.3-3.6,4.8c-0.8,1-1.6,1.9-2.3,2.9c-0.3,0.4-0.6,0.9-1,1.2
				c-0.2,0.2-0.6,0.1-0.5-0.2c0.2-0.7,0.7-1.2,1.1-1.8c1.2-1.5,2.5-3,3.6-4.5c1.4-1.8,2.7-3.8,4-5.6c1.1-1.6,2.1-3.2,3.1-4.8
				c0.9-1.6,1.8-3.2,2.6-4.8c0.8-1.6,1.5-3.2,2.1-4.8c0.8-2,1.4-3.9,2-6c0.6-2.3,1.1-4.6,1.6-7c0.3-1.4,0.5-2.8,0.6-4.3
				c0-2.7,0.1-5.3-0.4-8c-0.3-2.2-0.6-4.4-1.2-6.5C114.9,150.8,114.8,150.5,114.7,150.1z"/>
			<path class="st11" d="M58.8,163.9c0.4,1.9,1,3.8,1.7,5.7c0.7,1.8,1.4,3.7,2.3,5.4c0.9,2,1.9,3.9,2.9,5.8c0.4,0.8,1,1.5,1.4,2.3
				c0.5,1,1.1,1.9,1.8,2.8c0.8,1.3,1.9,2.4,2.8,3.7c1.1,1.6,2.4,3.1,3.8,4.6c0.5,0.6,1,1.3,1.5,1.9c0.7,0.9,1.4,1.9,2.2,2.7
				c1.2,1.4,2.4,2.9,3.6,4.3c1.2,1.4,2.5,2.7,3.7,4.1c0.7,0.8,1.5,1.5,2.1,2.3c0.6,0.7,1.3,1.3,1.8,2c0.4,0.5,0.9,0.9,1.4,1.4
				c0.5,0.6,1,1.2,1.5,1.7c0.7,0.6,1.2,1.4,1.8,2.1c0.7,0.9,1.1,1.9,1.8,2.8h1.2c0.1-1.5-0.4-3-0.6-4.5c-0.3-2.1-1.1-4-1.9-5.9
				c-0.3-0.8-0.7-1.6-1-2.4c-0.4-1-0.9-1.9-1.4-2.8c-0.6-0.9-0.9-1.8-1.4-2.7c-0.1,0-0.2,0-0.3,0c0.5,1.8,1.7,3.4,2.4,5.1
				c0.6,1.3,1,2.8,1.6,4.1c0.6,1.6,1.2,3.3,1.5,5c0.1,0.8,0.3,1.6,0.4,2.4c0.1,0.5,0.1,1,0.2,1.5c-0.7-0.9-1.1-2-1.9-2.9
				c-0.6-0.7-1.2-1.4-1.9-2.1c-0.7-0.6-1.2-1.3-1.9-1.9c-0.6-0.6-1-1.4-1.7-2.1c-0.4-0.5-0.9-0.9-1.3-1.4c-0.6-0.7-1.3-1.3-1.9-2
				c-1.3-1.4-2.6-2.7-3.8-4.1c-1.4-1.6-2.8-3.3-4.2-4.9c-0.6-0.7-1.1-1.4-1.7-2.1c-0.6-0.7-1-1.4-1.6-2c-1.3-1.5-2.6-3-3.7-4.6
				c-1.2-1.6-2.4-3.1-3.4-4.8c-0.6-0.9-1-1.8-1.6-2.7c-0.6-0.9-1-1.8-1.5-2.7c-0.4-0.8-0.9-1.6-1.3-2.5c-1.8-3.9-3.7-7.9-4.6-12.2
				c-0.4-2-1-3.9-1.2-5.9c-0.3-2.6-0.4-5.2,0.3-7.7c-0.1,0-0.2,0-0.2,0c-0.4,0.7-0.6,1.6-0.7,2.4c-0.3,2.2-0.1,4.4,0.2,6.6
				C58.2,161.1,58.5,162.5,58.8,163.9z"/>
			<path class="st11" d="M142.9,196.3c0.1,0,0.2,0,0.4,0c0,1.1-0.3,2.1-0.4,3.1c-0.3,2.1-1.2,4-2.1,5.9c-0.8,1.8-1.7,3.5-2.5,5.3
				c-1,2.1-1.7,4.2-2.3,6.4c-0.2,0.6-0.2,1.2-0.2,1.8c-0.1,0-0.2,0-0.3,0c-0.4-0.8-0.1-1.7,0-2.6c0.5-2,1-3.9,1.8-5.8
				c0.7-1.7,1.6-3.4,2.3-5.1c0.8-1.9,1.8-3.7,2.3-5.7C142.2,198.5,142.4,197.4,142.9,196.3z"/>
			<path class="st11" d="M28.4,204.7c1,2.1,1.6,4.3,2.1,6.5c0.5,2.1,0.9,4.2,1.1,6.3c0.1,0.7,0.1,1.4,0.2,2.1h0.5
				c0-2.4-0.3-4.9-0.8-7.2c-0.5-2.2-1.1-4.3-1.9-6.3c-0.6-1.6-1.5-3.1-2.3-4.5c-0.6-1-1.2-2-1.4-3.1c-0.1,0-0.2,0-0.2,0
				c0,0.7,0.3,1.4,0.5,2.1C26.8,201.9,27.7,203.3,28.4,204.7z"/>
			<path class="st11" d="M144.4,203c0.1-0.2,0.3-0.1,0.5-0.1c-1,2.1-2,4.3-3.1,6.4c-0.9,1.8-2,3.6-2.9,5.4c-0.4,0.7-0.8,1.4-1,2.2
				c-0.1,0-0.2,0-0.4,0c-0.2-0.4,0.1-0.9,0.2-1.3c0.7-1.8,1.5-3.5,2.5-5.1c1.1-1.9,2.1-3.9,3.2-5.8
				C143.6,204.1,143.9,203.5,144.4,203z"/>
			<path class="st11" d="M33.9,214.2c0.3,1.8,0.6,3.6,0.8,5.3h0.7c-0.1-4.7-1.2-9.3-2.8-13.6c-0.3-0.8-0.8-1.6-1-2.5
				c-0.1,0-0.2,0-0.3,0c0,0.4,0,0.8,0.2,1.2C32.4,207.8,33.4,211,33.9,214.2z"/>
			<path class="st11" d="M143.1,210.7c0.3-0.4,0.6-1,1.2-1c-0.2,0.5-0.6,0.9-0.8,1.4c-0.8,1.5-1.6,3-2.4,4.4
				c-0.3,0.4-0.5,0.9-0.8,1.2c-0.1,0-0.3,0-0.4,0c0-0.5,0.3-0.9,0.5-1.3C141.2,213.8,142.1,212.2,143.1,210.7z"/>
		</g>
	</g>
</g>
</svg>
