<svg xml:space="preserve" xmlns:xlink="http://www.w3.org/1999/xlink" enable-background="new 0 0 180 180" viewBox="0 0 180 180" xmlns="http://www.w3.org/2000/svg"><defs><path id="a" d="M0 0h180v180H0z"/></defs><use xlink:href="#a" fill="#d34620" overflow="visible"/><clipPath id="b"><use xlink:href="#a" overflow="visible"/></clipPath><g clip-path="url(#b)"><path fill="#38312d" d="M102.5 27.5c1.3-.1 2.7-.3 4-.1 2 .1 4 .8 5.3 2.4.4.6 1.2.8 1.7 1.2 1.1 1 1.7 2.4 2.3 3.7.4.7.8 1.4 1.1 2.2.1.5.6.8 1.1.8 1.6-.2 3.1-.7 4.7-.5 1.3.2 2.5.5 3.7.9 1.2.4 2.2 1.1 3.2 1.9.6.5 1.1 1.1 1.6 1.7.6.7 1.1 1.4 1.7 2.1.9 1.2 1.6 2.5 2.3 3.9.6 1.2 1.2 2.4 1.5 3.7.5 2.2.9 4.4.8 6.6 0 1.6.1 3.3-.2 4.9-.8 4.1-1.8 8.3-3.5 12.2-.9 2.5-2.2 4.8-3.4 7.2-.7 1.4-1.6 2.6-2.5 3.8-1.5 2.1-3.6 3.6-5.8 4.9-1.6 1-3.5 1.6-5.3 2-2 .5-4.1.4-6.2.3-1.6-.1-3.3-.4-4.9-.8-2.3-.5-4.6-1.2-6.8-1.9-2.4-.8-4.9-1.7-7.3-2.7-1.4-.6-2.8-1.1-4.4-1.3h.3c-.7-1.7-1.7-3.2-2.9-4.5-1.4-1.7-3.1-3.1-4.9-4.3-1.2-.8-2.5-1.3-3.7-1.9-1.8-.8-3.6-1.5-5.6-1.8-1.6-.3-3.2-.2-4.8.1-.7.1-1.3.5-2.1.4-.3-.1-.5.1-.7.2-1 .7-2.1 1.2-3.2 1.7-.9.4-1.7.8-2.6 1.1-1.3.5-2.7.7-3.9 1.3-1.7.7-3.4 1.8-4.5 3.3-1.2 1.6-2.1 3.3-3.1 5.1-.5.9-1.2 1.8-2.2 2.3-1.9 1.2-4.3 1.4-6.4 1.7-1.4.2-2.7.8-3.7 1.7.3-.8 1-1.3 1.3-2.1.5-1.1.5-2.3.6-3.5-.1-.9-.2-1.7-.3-2.6-.4-1.3-.7-2.7-.9-4.1-.1-1.2-.2-2.4.2-3.6.4-1.4.8-2.7 1.6-3.9.5-.8 1.2-1.5 1.9-2.2 1.1-.9 2.3-1.7 3.5-2.5.7-.5 1.3-.9 1.8-1.6.7-.8 1-1.9 1.2-2.9.4-1.8.2-3.6 0-5.4-.2-2.2.2-4.4 1.1-6.4 1.4-2.6 3.9-4.5 6.7-5.5 2-.7 4.1-.8 6-1.8 2.1-1 4-2.5 5.1-4.5.8-1.4 1.4-2.8 2.4-4.1 1.1-1.6 2.8-2.8 4.4-3.8 2.5-1.4 5.3-2.3 8.2-2 1.6.2 3 1.1 4.3 2 1.2.9 2.6 1.2 4.1 1.4 1.6 0 3.2.3 4.7-.5s2.6-2.3 4-3.3c2.4-1.2 4.8-2.2 7.4-2.6z"/><path fill="#38312d" d="M65.9 74.4c1.6-.3 3.2-.4 4.8-.1 1.9.3 3.8 1 5.6 1.8 1.3.6 2.6 1.1 3.7 1.9 1.8 1.2 3.5 2.6 4.9 4.3 1.2 1.3 2.2 2.8 2.9 4.5h-.3c-1.5 0-3 0-4.5.1-.8 0-1.6.3-2.4.6-1.2.5-2.3 1-3.4 1.7-1.2.8-2.5 1.6-3.5 2.6-1.9 1.8-3.3 4-5.1 5.9-1.2 1.3-2.5 2.5-3.8 3.7-1.4 1.2-3 2.3-4.8 2.7-1.6.3-3.4.3-4.9-.6-1-.6-2.2-1.1-3.4-.9-1.1.2-2 .8-3 1.3-.9.5-2 .7-3.1.8-.8.1-1.8 0-2.5-.5-.7-.6-1-1.4-1.3-2.2-.3-.9-.4-1.9-.4-2.9 0-.4 0-.9-.4-1.2-.7-.6-1.7-.6-2.5-.6-.6 0-1.2 0-1.8.1-1.3 0-2.6-.4-3.5-1.4-.5-.8-.3-1.9.1-2.7 1-1 2.3-1.5 3.7-1.7 2.2-.3 4.5-.5 6.4-1.7.9-.5 1.6-1.4 2.2-2.3 1-1.7 1.9-3.5 3.1-5.1 1.1-1.5 2.8-2.6 4.5-3.3 1.3-.6 2.6-.8 3.9-1.3.9-.3 1.7-.8 2.6-1.1 1.1-.5 2.2-1 3.2-1.7.2-.2.5-.3.7-.2 1-.1 1.6-.4 2.3-.5zm106.9 129.2c-.1-1-.2-2-.4-2.9-1.1-4.4-2.7-8.7-5.5-12.3-1.3-1.8-2.9-3.4-4.4-5-3.3-3.1-7.3-5.4-11-8.1-3.6-2.7-7.2-5.5-10.5-8.5-1.6-1.5-3.2-3.1-4.6-4.8-1.4-1.7-2.8-3.3-4-5.1-.7-1-1.2-2.2-1.8-3.3-.5-1-1-1.9-1.5-2.9-.7-1.4-1.3-2.8-1.9-4.3-.5-1-1.1-2-1.4-3.1-.3-.7-.6-1.5-1.3-1.9-.5-.2-1 .1-1.4.2-.3 0-.7-.1-1 0-.8.2-1.4.6-2.2 1-3.2 1.4-6.7 2.6-10.2 2.8-1.4.2-2.9.4-4.4.5-1.7.2-3.4.2-5.1.3H96c-1.8-.1-3.6-.2-5.5-.4-2.8-.3-5.5-.8-8.1-1.8-2.3-.9-4.6-1.9-6.6-3.3-.4-.3-.9-.6-1.5-.5-.2.1-.3.3-.4.5-.8 1.8-1.9 3.4-3.1 4.9-.4.4-.8.7-1.3.9-1.1.5-2.2 1-3.4 1.4-3 1.1-6.2 1.8-9.3 2.7-4.1 1.2-8.4 2.1-12.5 3.4-1.7.5-3.4 1.2-5.1 1.8-2.4.9-4.8 1.9-7.2 3-2.3 1.2-4.7 2.2-6.8 3.8-2.8 2-5.5 4.2-7.6 6.9-1.4 1.8-2.5 3.8-3.4 5.8-1.1 2.3-2.1 4.7-2.9 7.1-.8 2.4-1.5 4.8-1.9 7.3-.3 1.9-.7 3.7-.9 5.6-.1 1-.2 2-.4 2.9-.3 1.7-.4 3.4-.7 5.1v.1h165.4z"/><path fill="#56a2b0" d="M102.5 27.5c1.3-.1 2.7-.3 4-.1 2 .1 4 .8 5.3 2.4.4.6 1.2.8 1.7 1.2 1.1 1 1.7 2.4 2.3 3.7.4.7.8 1.4 1.1 2.2.1.5.6.8 1.1.8 1.6-.2 3.1-.7 4.7-.5 1.3.2 2.5.5 3.7.9 1.2.4 2.2 1.1 3.2 1.9.6.5 1.1 1.1 1.6 1.7.6.7 1.1 1.4 1.7 2.1.9 1.2 1.6 2.5 2.3 3.9.6 1.2 1.2 2.4 1.5 3.7.5 2.2.9 4.4.8 6.6 0 1.6.1 3.3-.2 4.9-.8 4.1-1.8 8.3-3.5 12.2-.9 2.5-2.2 4.8-3.4 7.2-.7 1.4-1.6 2.6-2.5 3.8-1.5 2.1-3.6 3.6-5.8 4.9-1.6 1-3.5 1.6-5.3 2-2 .5-4.1.4-6.2.3-1.6-.1-3.3-.4-4.9-.8-2.3-.5-4.6-1.2-6.8-1.9-2.4-.8-4.9-1.7-7.3-2.7-1.4-.6-2.8-1.1-4.4-1.3h.3c-.7-1.7-1.7-3.2-2.9-4.5-1.4-1.7-3.1-3.1-4.9-4.3-1.2-.8-2.5-1.3-3.7-1.9-1.8-.8-3.6-1.5-5.6-1.8-1.6-.3-3.2-.2-4.8.1-.7.1-1.3.5-2.1.4-.3-.1-.5.1-.7.2-1 .7-2.1 1.2-3.2 1.7-.9.4-1.7.8-2.6 1.1-1.3.5-2.7.7-3.9 1.3-1.7.7-3.4 1.8-4.5 3.3-1.2 1.6-2.1 3.3-3.1 5.1-.5.9-1.2 1.8-2.2 2.3-1.9 1.2-4.3 1.4-6.4 1.7-1.4.2-2.7.8-3.7 1.7.3-.8 1-1.3 1.3-2.1.5-1.1.5-2.3.6-3.5-.1-.9-.2-1.7-.3-2.6-.4-1.3-.7-2.7-.9-4.1-.1-1.2-.2-2.4.2-3.6.4-1.4.8-2.7 1.6-3.9.5-.8 1.2-1.5 1.9-2.2 1.1-.9 2.3-1.7 3.5-2.5.7-.5 1.3-.9 1.8-1.6.7-.8 1-1.9 1.2-2.9.4-1.8.2-3.6 0-5.4-.2-2.2.2-4.4 1.1-6.4 1.4-2.6 3.9-4.5 6.7-5.5 2-.7 4.1-.8 6-1.8 2.1-1 4-2.5 5.1-4.5.8-1.4 1.4-2.8 2.4-4.1 1.1-1.6 2.8-2.8 4.4-3.8 2.5-1.4 5.3-2.3 8.2-2 1.6.2 3 1.1 4.3 2 1.2.9 2.6 1.2 4.1 1.4 1.6 0 3.2.3 4.7-.5s2.6-2.3 4-3.3c2.4-1.2 4.8-2.2 7.4-2.6z"/><path fill="#396e76" d="M65.9 74.4c1.6-.3 3.2-.4 4.8-.1 1.9.3 3.8 1 5.6 1.8 1.3.6 2.6 1.1 3.7 1.9 1.8 1.2 3.5 2.6 4.9 4.3 1.2 1.3 2.2 2.8 2.9 4.5h-.3c-1.5 0-3 0-4.5.1-.8 0-1.6.3-2.4.6-1.2.5-2.3 1-3.4 1.7-1.2.8-2.5 1.6-3.5 2.6-1.9 1.8-3.3 4-5.1 5.9-1.2 1.3-2.5 2.5-3.8 3.7-1.4 1.2-3 2.3-4.8 2.7-1.6.3-3.4.3-4.9-.6-1-.6-2.2-1.1-3.4-.9-1.1.2-2 .8-3 1.3-.9.5-2 .7-3.1.8-.8.1-1.8 0-2.5-.5-.7-.6-1-1.4-1.3-2.2-.3-.9-.4-1.9-.4-2.9 0-.4 0-.9-.4-1.2-.7-.6-1.7-.6-2.5-.6-.6 0-1.2 0-1.8.1-1.3 0-2.6-.4-3.5-1.4-.5-.8-.3-1.9.1-2.7 1-1 2.3-1.5 3.7-1.7 2.2-.3 4.5-.5 6.4-1.7.9-.5 1.6-1.4 2.2-2.3 1-1.7 1.9-3.5 3.1-5.1 1.1-1.5 2.8-2.6 4.5-3.3 1.3-.6 2.6-.8 3.9-1.3.9-.3 1.7-.8 2.6-1.1 1.1-.5 2.2-1 3.2-1.7.2-.2.5-.3.7-.2 1-.1 1.6-.4 2.3-.5z"/><path fill="#38312d" d="M172.8 203.6c-.1-1-.2-2-.4-2.9-1.1-4.4-2.7-8.7-5.5-12.3-1.3-1.8-2.9-3.4-4.4-5-3.3-3.1-7.3-5.4-11-8.1-3.6-2.7-7.2-5.5-10.5-8.5-1.6-1.5-3.2-3.1-4.6-4.8-1.4-1.7-2.8-3.3-4-5.1-.7-1-1.2-2.2-1.8-3.3-.5-1-1-1.9-1.5-2.9-.7-1.4-1.3-2.8-1.9-4.3-.5-1-1.1-2-1.4-3.1-.3-.7-.6-1.5-1.3-1.9-.5-.2-1 .1-1.4.2-.3 0-.7-.1-1 0-.8.2-1.4.6-2.2 1-3.2 1.4-6.7 2.6-10.2 2.8-1.4.2-2.9.4-4.4.5-1.7.2-3.4.2-5.1.3H96c-1.8-.1-3.6-.2-5.5-.4-2.8-.3-5.5-.8-8.1-1.8-2.3-.9-4.6-1.9-6.6-3.3-.4-.3-.9-.6-1.5-.5-.2.1-.3.3-.4.5-.8 1.8-1.9 3.4-3.1 4.9-.4.4-.8.7-1.3.9-1.1.5-2.2 1-3.4 1.4-3 1.1-6.2 1.8-9.3 2.7-4.1 1.2-8.4 2.1-12.5 3.4-1.7.5-3.4 1.2-5.1 1.8-2.4.9-4.8 1.9-7.2 3-2.3 1.2-4.7 2.2-6.8 3.8-2.8 2-5.5 4.2-7.6 6.9-1.4 1.8-2.5 3.8-3.4 5.8-1.1 2.3-2.1 4.7-2.9 7.1-.8 2.4-1.5 4.8-1.9 7.3-.3 1.9-.7 3.7-.9 5.6-.1 1-.2 2-.4 2.9-.3 1.7-.4 3.4-.7 5.1v.1h165.4z"/><path fill="#f2844f" d="M110.1 45.4c.2-.1.5-.1.6.2.1.4-.2.8-.4 1.1-1.9 3.5-3.6 7.1-4.3 11-.5 2.3-.1 4.6.6 6.8.4 1.2 1 2.3 1.8 3.3.7.8 1.4 1.5 2.3 2.1 1.1.8 2.3 1.4 3.3 2.3.6.6 1.2 1.1 1.8 1.8.5.6 1 1.3 1.4 2 1.2 1.8 1.6 4 1.7 6.1.6.2 1.2.3 1.8.6.2.1.3.1.5.1.3 1.5 1.1 2.8 1.7 4.2.7 1.1 1.3 2.4 2 3.5.8 1.2 1.3 2.7 2.3 3.8-.4 1.4-.5 2.9-.8 4.4-.4 2.6-.8 5.2-1.3 7.7-.4 2.8-.7 5.5-1.1 8.3-.3 3.3-.6 6.6-.8 10 0 .9-.1 1.7-.1 2.6v4.7c.1 1.5.2 3 .4 4.5.1 1.4.4 2.7.6 4.1.1 1 .3 2 .2 3.1-.2.9-1 1.4-1.8 1.8-2.4 1-4.9 1.8-7.5 2.4-1.9.4-3.7.9-5.6 1.1-2.4.3-4.8.4-7.2.6-2.5.2-5 0-7.4-.2.9-.7 1.9-1.3 2.7-2.1 1.4-1.2 2.7-2.5 4.1-3.8 1.4-1.3 2.7-2.8 3.9-4.3 1.4-1.8 2.6-3.7 3.7-5.7 1.1-1.9 2.3-3.7 3.3-5.6 2-3.8 3.8-7.7 5.2-11.8.8-2.2 1.4-4.4 2.1-6.6.9-2.6 1.5-5.2 2.3-7.8.1-.4.3-.8.5-1.3.1-.3-.1-.5-.2-.8-.3.6-.5 1.2-.9 1.8-.2.4-.4.8-.5 1.2-.5 1.6-1.2 3.3-2 4.8-.4.7-.8 1.4-1.1 2.2-.6 1.2-1.4 2.2-2.1 3.4-.8 1.5-1.6 2.9-2.6 4.3-1.9 2.8-3.9 5.5-6.4 7.7-1.6 1.6-3.5 3-5.3 4.3-2.7 1.8-5.6 3.5-8.7 4.6-1.2.5-2.6.7-3.9.5-.9-.1-1.9-.2-2.8-.4-.8-.2-1.5-.6-2.2-1-.9-.4-1.9-.7-2.7-1.4-.6-.5-1.2-.9-1.8-1.4-.8-.8-1.4-1.7-2.1-2.6 0 .1-.1.3-.1.4 0-.3 0-.6-.2-.9-.9-1.4-1.6-3-2.4-4.5-.9-1.7-1.6-3.4-2.5-5.1-.4-.8-.7-1.6-1.1-2.3 1-.5 1.7-1.4 2.4-2.2.9-1.2 1.4-2.7 1.3-4.2 0-1.7-.3-3.6-1.6-4.9-1-1.1-2.4-1.6-3.8-1.8-.9-.1-1.8 0-2.7.2-.5-1.3-.7-2.8-1.2-4.1 1-.8 1.9-1.7 2.9-2.3 1.4-.9 3-1.6 4.2-2.9.8-.7 1.3-1.7 2.2-2.2.7-.4 1.4-.7 2.1-1 .5-.2 1.1-.2 1.6-.5.3-.6.1-1.3.2-2 0-.3.2-.7-.1-.8-.4-.2-.8.1-1.1.2-.5-.2-.7-.8-.8-1.3-.1 0-.2-.1-.3-.2-.2.2-.3.5-.5.7-1.3.4-2.7 0-4.1.1.5-1 1-1.9 1.4-2.9.5-1.2.9-2.4 1.7-3.5 1.1-1.5 2.6-2.8 4.4-3.4 1.8-.6 3.8-.8 5.5-1.8 1.8-1.1 3.1-2.9 4-4.9.5-1 .9-2 1.2-3.1.2-.9.6-1.7 1.2-2.4 1.1-1.2 2.5-2 4-2.7 1.1-.6 2.3-1.1 3.4-1.8 1.5-.9 2.9-2 3.9-3.4.9-1.1 1.6-2.3 2.3-3.5.7-1 1.5-2 2.2-3 .6-.9 1.2-1.7 2.1-2.3.2-.1.2-.3 0-.4.1-.1.2-.2.3-.2v.3c.2-.1.3-.1.5-.2 0-.2.1-.4.1-.5-.4.1-.8.1-1.3.2.6-.6 1.1-.9 1.5-1.1z"/><path fill="#e56324" d="M108.8 46.2c.4 0 .9-.1 1.3-.2 0 .2-.1.3-.1.5-.2.1-.3.1-.5.2v-.3c-.1.1-.2.2-.3.2-.2.1-.2.3 0 .4-.8.6-1.5 1.5-2.1 2.3-.7 1-1.5 2-2.2 3-.8 1.2-1.4 2.4-2.3 3.5-1.1 1.4-2.4 2.5-3.9 3.4-1.1.7-2.2 1.3-3.4 1.8-1.4.8-2.9 1.6-4 2.7-.6.7-1 1.5-1.2 2.4-.3 1.1-.7 2.1-1.2 3.1-.9 1.9-2.2 3.7-4 4.9-1.7 1-3.6 1.2-5.5 1.8-1.8.6-3.3 1.9-4.4 3.4-.8 1-1.2 2.3-1.7 3.5-.4 1-.9 1.9-1.4 2.9 1.4 0 2.7.3 4.1-.1.2-.2.3-.5.5-.7.1 0 .2.1.3.2.1.5.3 1.1.8 1.3.4-.1.8-.4 1.1-.2.3.2.1.6.1.8-.1.6.1 1.4-.2 2-.5.3-1.1.3-1.6.5-.7.3-1.4.6-2.1 1-.9.5-1.5 1.5-2.2 2.2-1.2 1.2-2.8 1.9-4.2 2.9-1.1.7-1.9 1.6-2.9 2.3-.6-1.8-1.1-3.6-1.5-5.5-.6-3.1-1.4-6.2-1.9-9.3-.4-2.2-.5-4.4-.5-6.7 0-.3 0-.7.2-1 .7-.8 1.5-1.4 2.2-2.1.6-.7 1.2-1.5 1.6-2.2.7-1.2 1.1-2.6 2.1-3.6.9-.9 2-1.6 3.3-1.8 1.7-.2 3.5 0 5.2-.4.8-.2 1.6-.4 2.3-.9.8-.6 1.5-1.2 2.1-1.9.8-1 1.2-2.2 1.7-3.3.7-1.6 1.8-3.1 3.3-4 1.4-.8 3-1.2 4.5-1.2 1.7 0 3.4.3 5.1.5 1.4.1 2.9 0 4.3-.4 1-.2 2.1-.7 2.9-1.4 1.3-1.2 2.3-2.7 3.5-4 .7-.9 1.7-1.8 2.8-2.5z"/><path fill="#f6caa1" d="M109 47.1c-.2-.1-.1-.4 0-.4.3 0 .2.3 0 .4z"/><path fill="#f95939" d="M126.4 64.2c1-.4 2.1-.5 3.2-.3.6.1 1.3.1 1.9.4 1.2.5 2.4 1.3 3.3 2.3 1.4 1.4 2.4 3.2 2.8 5.1.3 1.2.5 2.5.7 3.7.2 3.2-.1 6.4-1.4 9.3-.9 1.9-2.2 3.6-3.6 5.2-1.6 1.7-3.7 3.2-6 3.7-.1.2-.1.4-.2.7-.9-1.2-1.5-2.6-2.3-3.8-.8-1.1-1.3-2.3-2-3.5-.7-1.4-1.5-2.7-1.7-4.2-.2 0-.4-.1-.5-.1.2 0 .3-.1.5-.2.1-1.8-.3-3.7-.5-5.5-.3-1.9-.2-3.8.3-5.6.5-1.5 1-3.1 2-4.3 1-1.3 2.1-2.4 3.5-2.9z"/><path fill="#fe7354" d="M137.2 77.9c-.1-.7-.1-1.3 0-2 .1.6.1 1.3 0 2z"/><path fill="#f95939" d="M99.3 95.4c1.7-.3 3.4.1 4.9.9.6.4 1.2.7 1.7 1.3.5.7 1 1.5 1.3 2.4.3.9.2 1.8.2 2.7-.1 1.3-.5 2.7-1.5 3.7-.8.9-1.9 1.6-3 2.1-.5.2-1.1.4-1.7.4-.9 0-1.9.1-2.8-.2-1.4-.3-2.7-1-3.5-2.2-.7-.9-1.1-2-1.1-3.2 0-.6-.1-1.2 0-1.8.2-1.8.9-3.5 2.3-4.7.4-.4 1-.6 1.6-.8.3-.3.9-.5 1.6-.6z"/><path fill="#e56324" d="M121.6 101.4c.4-.6.6-1.2.9-1.8.1.2.3.5.2.8-.1.4-.3.8-.5 1.3-.8 2.6-1.5 5.2-2.3 7.8-.7 2.2-1.3 4.4-2.1 6.6-1.4 4.1-3.3 8-5.2 11.8-1 1.9-2.2 3.8-3.3 5.6-1.1 2-2.3 3.9-3.7 5.7-1.2 1.5-2.5 3-3.9 4.3-1.4 1.3-2.7 2.6-4.1 3.8-.9.8-1.8 1.4-2.7 2.1-1.2-.1-2.4-.2-3.6-.4-1.3-.2-2.7-.6-4-.8-1.4-.3-2.7-.8-4-1.3-1.9-.7-3.9-1.2-5.6-2.5-.6-.4-1.2-.7-1.7-1.3-.4-.4-.6-.9-1-1.4.2-.7.6-1.2.8-1.9.4-1.6.6-3.3.9-4.9.3-1.8.6-3.6.6-5.4 0-.5 0-1 .2-1.5 0-.1.1-.3.1-.4.7.9 1.3 1.8 2.1 2.6.5.5 1.2.9 1.8 1.4.8.6 1.8.9 2.7 1.4.7.3 1.4.8 2.2 1 .9.2 1.8.3 2.8.4 1.3.2 2.7 0 3.9-.5 3.1-1.1 5.9-2.8 8.7-4.6 1.9-1.3 3.7-2.7 5.3-4.3 2.5-2.2 4.6-4.9 6.4-7.7 1-1.4 1.8-2.9 2.6-4.3.7-1.1 1.5-2.2 2.1-3.4.4-.7.7-1.5 1.1-2.2.9-1.5 1.5-3.1 2-4.8-.1-.5.1-.9.3-1.2z"/><path fill="#f95939" d="M66.7 102.2c.9-.2 1.8-.3 2.7-.2 1.4.2 2.9.7 3.8 1.8 1.2 1.3 1.6 3.2 1.6 4.9 0 1.5-.4 3-1.3 4.2-.6.9-1.4 1.7-2.4 2.2-1.3-2.6-2.2-5.4-3.2-8.1-.5-1.6-.8-3.2-1.2-4.8z"/><path fill="#e56324" d="M83 107.4c.5-.5 1-.9 1.7-1.1.1.2.2.4.1.6-.4 1.2-1.4 2.2-1.6 3.5-.1.6-.4 1.1-.8 1.5-.5.6-1.2.9-2 1-.5 0-.7-.5-.9-.9-.2-.7-.1-1.4-.1-2.1 0-.4.3-.7.6-1 .4 0 .8-.1 1.1-.4.6-.3 1.3-.5 1.9-1.1z"/><path fill="#396f79" d="M102.4 32.4c2-.4 4.1-.1 6.1.4 1.1.3 2 .9 2.9 1.6 1.2 1 2.5 1.8 3.8 2.7-.2 0-.3 0-.5-.1-1.7-.9-3.2-2-4.8-3-1.2-.7-2.7-.9-4.1-1.1-1.3-.2-2.5-.1-3.8.2-1.6.5-2.9 1.6-4.5 2.2-.2.1-.5 0-.8 0 .7-.5 1.4-.9 2.1-1.4 1.2-.5 2.3-1.2 3.6-1.5zm-26 3.3c1.8-.2 3.7-.3 5.5.1v.4c-2.3-.1-4.6-.1-6.8.8-1 .4-2 .9-2.8 1.6-.8.7-1.4 1.5-2.1 2.2-.6.6-1.4 1.1-2.2 1.5-.3.1-.7.1-1 0 .9-.4 1.7-1 2.4-1.7.9-1 1.7-2.1 2.8-2.9 1.2-1.1 2.7-1.7 4.2-2z"/><path fill="#396e78" d="M78.5 40c1.5-1 3.3-1.8 5.1-1.9 2-.3 4 .4 6 .6.7 0 1.3.2 2 .2 1.5 0 3 .1 4.4-.3 0 .1.1.3.1.3-.7.4-1.6.4-2.5.6-1.3.1-2.7.2-4 .2-1.3-.1-2.5-.4-3.8-.6-1.5-.2-3.1-.1-4.5.5-1.2.5-2.3 1.1-3.2 2.1-.9 1-1.6 2.1-2.6 3-1.3 1.1-3 1.8-4.8 2.2-1.1.3-2.2.5-3.3.7-1.5.4-2.9 1.2-4.2 2.2-1.6 1.4-2.8 3.2-3.6 5.2-.9 2.1-1.4 4.4-2.8 6.2-1.3 2-3.4 3.1-5.5 4-1.1.5-2.3.8-3.3 1.5-1 .8-1.4 2-2.3 2.8.2-1 .7-1.9 1.3-2.8.7-1 1.8-1.4 2.9-1.8 2.1-.8 4.1-1.8 5.6-3.5.8-1.1 1.4-2.2 1.9-3.5l.9-2.4c.9-2.5 2.2-4.8 4.2-6.6 1.5-1.3 3.3-2.2 5.2-2.6 2.2-.5 4.6-.7 6.5-2.1 1.8-1 2.6-3 4.3-4.2z"/><path fill="#396f78" d="M102.7 39.3c1.7-.4 3.5-.5 5.1 0 1.2.4 2.4.8 3.4 1.5 0 .1 0 .2.1.3h-.3c-1.6-1-3.6-1.3-5.4-1.4-1.5.1-3 .2-4.4.9-.5.2-1 .6-1.5.7V41c.7-.8 1.8-1.5 3-1.7z"/><path fill="#b0d6dd" d="M84.1 43.4c1.8-.3 3.6-.5 5.3-.7v.3c-2.2.4-4.4.7-6.6 1.3-1.1.3-2 1-2.8 1.8-.5.4-1 1-1.7.9 1-.8 1.7-1.9 2.8-2.6 1-.6 2-.8 3-1z"/><path fill="#add5dc" d="M107.9 44.7c.8-.2 1.6-.5 2.4-.5v.3c-1 .3-2.1.6-3.1 1-1.8.8-3.6 1.7-5 3-.6.6-1.2 1.2-1.9 1.7-.2.2-.5.3-.8.3.3-.5.8-.9 1.1-1.4.7-.9 1.5-1.6 2.3-2.3 1.5-.8 3.2-1.6 5-2.1z"/><path fill="#386e78" d="M100 44.8c.4-.2.7-.5 1.1-.6 0 .2 0 .4-.2.6-.6.6-1.4 1-2.1 1.4-1.7 1-3.7 1.4-5.6 1.4-1.6 0-3.1-.4-4.6-.4-1.3.1-2.7 0-4 .4-1.2.4-2.3.9-3.3 1.7-1.7 1.5-3.1 3.4-4.4 5.3-.6.9-1.3 1.8-2.2 2.5-1.6 1.3-3.6 2.2-5.6 2.4-1.6.3-3.3.4-4.9 1.1-1.8.8-3.4 2.2-4.3 4-.9 1.4-1.5 3-2.4 4.3-.5.8-1.1 1.5-1.8 2.1-1.4 1.3-2.7 2.6-4.3 3.4-1.4.8-3 1.1-4.5 1.8-1 .4-1.9.8-2.9 1.3-1.3.7-2.5 1.7-3.3 2.9-.7 1-1.2 2.2-1.4 3.4-.1-.1-.2-.2-.3-.2.1-2.1 1.1-4.1 2.6-5.5 1.4-1.3 3.2-2 4.9-2.8 1.2-.5 2.5-.9 3.7-1.4 2-.9 3.6-2.4 5.2-3.9 1.8-1.7 2.6-4.1 3.9-6.2.9-1.5 2.2-2.8 3.8-3.7 2.1-1.2 4.6-1.3 6.9-1.8 1-.2 2-.7 2.9-1.2 1-.6 2-1.4 2.6-2.3 1.6-2.3 3.2-4.7 5.4-6.4.9-.7 2-1.3 3.1-1.6 1.4-.5 2.8-.5 4.2-.5 1.3-.1 2.6.3 3.9.4.9 0 1.9.1 2.8-.1 1.8-.4 3.6-1 5.1-1.8z"/><path fill="#396f78" d="M58 48.8c.1-.1.3-.1.4-.1-.1.4-.5.6-.8.9-1.2 1-2.5 2-3.5 3.2-1.1 1.2-1.9 2.5-2.7 3.9-.5.8-1.3 1.7-2.3 1.5v-.3c.7-.3 1.3-1 1.6-1.7.6-1.2 1.3-2.4 2.3-3.4 1.6-1.5 3.3-2.8 5-4z"/><path fill="#aed6dc" d="M85.4 52.4c1.3-.4 2.7-.7 4.1-.7.4 0 .7.1 1.1.1v.2c-1.4-.1-2.9.3-4.2.6-1.3.3-2.5 1-3.4 2-.4.4-.7 1-1.2 1.2.5-1.6 2-2.9 3.6-3.4z"/><path fill="#b6d7dd" d="M68.4 63.9c.9-.5 1.9-.7 2.9-.6 0 .1.1.2.1.2-1.8.1-3.4 1-4.8 2.1-1 .8-1.9 1.7-2.5 2.7-.2.3-.4.7-.7.9.4-1.2 1.2-2.1 2-3 .9-.8 1.9-1.6 3-2.3z"/><path fill="#cc492f" d="M126.7 72.1c.3-1.4 2-2.6 3.4-2 1.3.6 1.8 2 2 3.3.3 1.9-.1 3.8-.8 5.5-.6 1.3-1.1 2.6-2 3.7h-.3c.6-1.1 1.1-2.3 1.6-3.5.8-2 1.2-4.4.5-6.5-.3-.7-.7-1.5-1.6-1.7-1 0-1.7.7-2.4 1.3-.1-.1-.3-.1-.4-.1z"/><path fill="#fdb38f" d="M95.4 73.8c1.6-.8 3.4-.6 5-.5 1.5.1 3 .3 4.3.9v.4c-1.7-.5-3.5-.6-5.3-.6-.7 0-1.4.1-2.2.1-.6.1-1.3.2-1.9.1.1-.1.1-.3.1-.4z"/><path fill="#45362f" d="M92.1 79c2-.8 4.1-1.2 6.1-1.4 2.2-.1 4.4 0 6.5.8.6.2 1.2.5 1.8.7v.1h.1c.2.1.3.2.6.2v.2c-1.4.1-2.9.3-4.3.5-2.1.5-4.1 1.2-6.1 2-2.7 1.1-5.5 2.1-8.2 3.4-.4.2-.7.4-1.1.5-.4 0-.6-.4-.8-.8-.2-.5-.3-1.1-.1-1.7h-.1c0-.7.4-1.3.8-1.8 1.4-1.1 3.1-2 4.8-2.7z"/><path fill="#396e78" d="M116.1 59.1c.2 1.7.6 3.3 1 4.9.2.7.4 1.3.7 1.9.2.3.3.7.6.8 0-.3-.1-.5-.2-.8-.5-.9-.7-1.8-1-2.7v.1c0-.6-.2-1.1-.3-1.7-.7-3.4-.2-6.8-.1-10.2 0-1.2-.1-2.3-.4-3.5-.1-.6-.5-1.1-.8-1.6-.1 0-.2-.1-.2-.1.1.6.4 1.1.5 1.6.8 3.8-.2 7.6.2 11.3zm-6.7.8c.1-2.4 1-4.7 2-6.8.4-1 .9-1.9 1.1-3l.1.1v-.6h-.3v.3c-.5 1.3-1.1 2.5-1.7 3.8-.9 2.1-1.6 4.4-1.7 6.7 0 1.9.7 3.8 1.8 5.4 1 1.3 2 2.5 3 3.8l.3.3c-1-1.6-2.3-3-3.2-4.7-.9-1.6-1.5-3.5-1.4-5.3zm22.8-4.7c.4 2.2.5 4.5.4 6.7-.1.3-.2.6-.2.9h.4c0-.2.1-.3.1-.5.3-2.3.5-4.8-.3-7.1h-.4zm-2.9.3c-.1-1.3-.1-2.5-.2-3.7-.1-1.6-.3-3.2-.9-4.6-.5-1.2-1.3-2.2-2.2-3.2-1.1-1.2-2.5-1.9-3.9-2.7-.2-.1-.4-.1-.6 0 1.1.8 2.3 1.4 3.3 2.3 1.5 1.3 2.8 2.9 3.3 4.8s.6 3.8.8 5.7c.1.6 0 1.3.2 1.9-.1 1.5.3 3.1 0 4.6h.3c.1-.8.1-1.7.1-2.5-.2-.8-.1-1.7-.2-2.6zm-5.7 1.3c-.1-1.1-.2-2.1-.3-3.1-.2-2.2-.3-4.5-1.4-6.5-.9-1.6-2.2-2.9-3.8-3.8-.2-.1-.4-.1-.5-.2.2.4.6.7 1 .9 1 .7 1.8 1.6 2.5 2.6.9 1.4 1.3 3 1.5 4.6.3 2.1.5 4.3.8 6.4 0 .4.1.8.2 1.1.1.3.1.7.4.9 0-.6-.1-1.1-.2-1.6-.1-.3-.1-.8-.2-1.3zm11.9.5h-.3c-.2 1.9-.1 3.9-.4 5.8-.1.4-.3.9-.5 1.2h.3c.4-.5.6-1.1.7-1.8.4-1.7.5-3.5.2-5.2zm-9 3c.1.7.3 1.3.4 2 0 .2.1.3.2.5.1-.8-.1-1.6-.3-2.4-.1-.1-.2-.1-.3-.1zm-5.7 1.7c0 .6.2 1.1.4 1.6l.9 2.7h.3c-.4-1.4-.7-2.9-1.4-4.2-.1-.1-.2-.1-.2-.1zm-2 11.3h.2c-.1-.6-.5-1-.8-1.5-.6-.7-1.1-1.5-1.6-2.3-.2-.3-.4-.5-.6-.8h-.3c.4.8.8 1.6 1.3 2.3.7.8 1.3 1.5 1.8 2.3zm.7 4.4c-.1-.7-.4-1.3-.7-2-.3-.7-.6-1.4-1.1-2.1-.1-.2-.3-.3-.5-.4-.1.1-.1.2-.2.3.2.1.4.3.5.5.6 1.2 1.3 2.3 1.8 3.6 0 .1.2.1.2.1zm.5 1.7c0 1 .4 1.9.5 2.8h.2c-.1-1-.2-1.9-.5-2.8h-.2zm-1 .3c.1.8.5 1.5.6 2.3.1 0 .2.1.2.1 0-.7-.1-1.4-.4-2.1-.1-.2-.3-.2-.4-.3z"/><path fill="#45362f" d="M69.2 82.5c1.4-.1 2.8-.2 4.3 0 .7.1 1.5.1 2.2.4.6.3 1.3.5 1.9.9.5.4.9.9 1.2 1.5.2.2.1.4.1.6.1.3.2.5.2.8l-.3-.6c-.1.2-.1.3-.2.5-1.6.1-3.1-.4-4.7-.1-1.1.1-2.3.1-3.4.2-1.7.2-3.3.5-5 .7-.8.1-1.6.3-2.4.1l-.3-.3c-.3-1.1-.6-2.2-.5-3.4.7-.4 1.5-.8 2.3-.9 1.5-.2 3-.4 4.6-.4z"/><path fill="#75989c" d="m39 83.5.3.3c-.1.2 0 .6-.3.7v-1z"/><path fill="#b75a34" d="M78.6 86.6c.1-.2.1-.3.2-.5l.3.6c.2 1 .1 2 0 3.1-.3 2.8-.9 5.5-1.3 8.3-.4 2.4-.9 4.8-1 7.3 0 .8-.1 1.8.3 2.6.4.7 1.3.9 2 .8 1.9-.3 3.4-1.6 5-2.5.2-.1.4-.1.6-.2.4-.6.8-1.4.4-2.1-.2-.4-.8-.4-1.2-.5.1-.5.7-.4 1.1-.3.7.3.9 1.3.7 2-.3.9-1 1.5-1.7 2-1.2.7-2.2 1.5-3.5 2-.9.4-2 .6-2.9.2-.8-.3-1.3-1.1-1.4-1.9-.2-1 0-2.1 0-3.1.1-1.6.4-3.1.6-4.6.4-2.6.9-5.2 1.4-7.7.2-1 .3-2.1.5-3.1-.1-.9-.2-1.6-.1-2.4z"/><path fill="#160e0b" d="M95.7 86.8c.4-.1.9 0 1.2.4.3.6.4 1.3.3 1.9-.1.5-.3 1.1-.8 1.4-.3.2-.9.2-1.1-.2-.5-.9-.5-2-.1-3 .1-.2.3-.3.5-.5zm-25.2 2.8c.4-.2 1-.1 1.1.3.2.6.3 1.3.2 1.9-.1.4-.2 1-.5 1.2-.3.1-.8.2-1-.1-.4-.6-.4-1.3-.4-2 0-.4.1-1 .6-1.3z"/><path fill="#b95d38" d="M97.5 91.8c.4-.1.8-.4 1.2-.4-.6.7-1.5.9-2.3 1.1-.8.2-1.6.2-2.3.1v-.3c1.1-.1 2.3-.2 3.4-.5z"/><path fill="#feb38f" d="M102.3 92.2c.4-.2.8-.6 1.3-.8v.3c-.9 1-2.2 1.5-3.3 2.1-1.4.6-2.8 1.5-4.4 1.1v-.3c2.3-.3 4.4-1.3 6.4-2.4z"/><path fill="#b95d38" d="M70.5 94.6c1.1 0 2.3-.1 3.3-.6v.3c-.9.5-2 .6-3 .7-.5 0-1.1.1-1.5-.3.4-.1.8 0 1.2-.1z"/><path fill="#fcb390" d="M80.9 95.4c.1-.3.3-.5.5-.6.4.5.2 1.1.1 1.6-.4 1.9-.7 3.8-.9 5.7-.1.7-.1 1.4-.3 2.1h-.4c-.1-1.4.1-2.8.2-4.2.2-1.6.3-3.1.8-4.6z"/><path fill="#b95b34" d="M112.1 96.5c0-.2.2-.3.4-.4.2.4 0 .9-.1 1.4-.5 1.4-1.3 2.7-2.2 3.9-1.5 2-3.4 3.7-5.1 5.6-.8.9-1.7 1.8-2.5 2.7h-.3c.1-.3.3-.5.6-.8 2-2.4 4.2-4.6 6.1-7 1.3-1.8 2.4-3.5 3.1-5.4z"/><path fill="#2d5861" d="M57.6 80c.2-.2.6-.3.6-.6-.9 0-1.6.6-2.3 1.1-1.4 1.2-2.6 2.8-3.3 4.5 0 .1-.1.2-.1.3h.3c1-2.2 2.7-4.2 4.8-5.3zm-3.3 10.5c-.2-.1-.4.2-.4.4.3 0 .5-.1.8-.1l-.1-.1c.3-.2.6-.3.8-.6 1.4-1.2 2.3-3 3.4-4.5.6-.8 1.4-1.6 2-2.4v-.3h-.3l-2.4 2.4c-1.3 1.7-2.2 3.8-3.8 5.2zm-3.9-1.3.9-1.2c.3-.4.7-.8.9-1.2h-.3c-.6.7-1.2 1.3-1.8 2.1-.6.7-1.1 1.5-1.9 2.1-.9.8-2.1 1.3-3.3 1.6-1.3.3-2.7.3-4 .9-.8.3-1.5.8-1.6 1.7.5 0 .8-.4 1.2-.6 1.3-.6 2.7-.8 4.1-1.1 1.2-.2 2.3-.7 3.3-1.4 1.2-.8 1.8-1.9 2.5-2.9zm10.2 3.4c.7-.9 1.5-1.9 2.2-2.8v-.4h-.3c-.6.6-1.1 1.3-1.6 2-.3.5-.7 1-1 1.6.4 0 .5-.2.7-.4zm-3.6.1c.1-.1.2-.3.2-.5H57c-.3.5-.7.8-1.1 1.1-.9.8-1.9 1.6-3 2.2-1.3.7-2.8 1-4.1 1.6-.9.4-1.8 1-2.2 2h.3c.5-.5 1-1 1.7-1.3 1.2-.6 2.5-.9 3.7-1.4 1.1-.5 2-1.2 2.8-2 .8-.4 1.4-1 1.9-1.7zm3.6 4.4c-1.4 1.3-3 2.5-4.9 3-.3 0-.6.1-.9.2.4.3.9.3 1.3.2 1.3-.2 2.5-.7 3.4-1.6.8-.8 1.6-1.6 2.3-2.5.2-.2.3-.5.4-.7h-.3c-.4.4-.9.9-1.3 1.4z"/><path fill="#bc5e3a" d="M120.3 105.3c.4-1 .8-1.9 1.2-2.8-.4 1.1-.9 2.2-1.3 3.4-.5 1.4-1.3 2.6-1.9 3.9-1 2-2.4 3.9-3.6 5.8-1.3 2.1-2.7 4.1-4.3 5.9-1.2 1.6-2.6 3-4.1 4.3-1.8 1.6-3.7 3-5.7 4.4-.9.6-2 1.1-3 1.6-1.2.5-2.3 1.3-3.6 1.7-1.5.5-3 1-4.5 1-1.7.1-3.4-.4-5.1-.8v-.2c.1 0 .3 0 .4-.1.6.1 1.3.4 1.9.5.9 0 1.7.2 2.6.1 1.5-.1 2.9-.5 4.3-1 2.3-.8 4.6-1.8 6.6-3.1 1.9-1.3 3.7-2.9 5.5-4.4 1.4-1.2 2.7-2.5 3.9-3.9 3.1-3.6 5.5-7.8 8-11.8 1-1.5 1.9-2.9 2.7-4.5-.1 0 0 0 0 0z"/><path fill="#b86138" d="M82.5 108.9h.2c.3 1.2.6 2.6.4 3.8-.1.1-.3.2-.4.2-.2-.3-.1-.7-.1-1.1 0-.9-.2-1.9-.1-2.9z"/><path fill="#bb5c3c" d="M80.8 109.7h.3c.4 1.2.6 2.5.3 3.8-.1 0-.3.1-.4.1 0-1.3-.1-2.6-.2-3.9z"/><path fill="#ffb38e" d="M108.1 110.5h.4c-.4 1.3-1.3 2.4-2.1 3.5-1 1.3-2 2.6-3.3 3.8l-.2-.2c1.2-1.4 2.3-2.8 3.3-4.3.6-1 1.2-1.9 1.9-2.8z"/><path fill="#f95939" d="M81.4 113.5c2.9-.7 6-.8 8.9-.1.5.1.8.5 1.1.8-1.6.5-3.2 1.1-4.8 1.5-1.4.4-2.8.6-4.3.9-.8.1-1.7.2-2.5.1-1 0-1.9-.3-2.8-.5h-.1c.4-1 1.3-1.6 2.2-2 .6-.2 1.2-.5 1.8-.6.3-.1.4-.1.5-.1z"/><path fill="#a3343e" d="m86.7 115.7 4.8-1.5c.1 0 .2.1.3.1 0 .1 0 .3-.1.4-.9.4-1.8.6-2.7.9-1.8.7-3.8 1.2-5.7 1.5-2 .4-4.1.4-6-.1-.1-.1-.2-.3-.3-.4 0-.1.1-.2.2-.3.9.2 1.9.4 2.8.5.8 0 1.7 0 2.5-.1 1.4-.4 2.8-.6 4.2-1z"/><path fill="#f95939" d="M89 115.6c.9-.3 1.8-.5 2.7-.9 0 1.1-.5 2.1-1.1 3-.6.8-1.2 1.6-2 2.1-.6.4-1.2.8-1.9.9-.5.1-1 .3-1.6.3-.9 0-1.8.1-2.7-.1-.8-.2-1.5-.3-2.2-.7-.8-.5-1.6-1.2-2.2-1.9-.3-.4-.5-.8-.7-1.3 2 .5 4 .5 6 .1 1.9-.3 3.8-.8 5.7-1.5z"/><path fill="#fab28c" d="M88 117.2c.5-.2 1-.6 1.5-.6-.2.4-.7.6-1.1.9-.6.3-1.2.7-1.9.8-.2 0-.3-.1-.4-.1.5-.5 1.3-.7 1.9-1z"/><path fill="#ba5d38" d="M82.6 123.8c.7-.6 1.7-.8 2.6-.7 1.2.1 2.5.3 3.7.4.2 0 .6 0 .5.4-.8-.1-1.5-.1-2.3-.2-1.2-.1-2.4-.3-3.5.1-.4.1-.7.3-1.1.2.1 0 .1-.2.1-.2z"/><path fill="#fdb693" d="M84.7 125.7c.9-.4 1.8-.4 2.8-.3.7 0 1.4.3 2 .6v.3c-.6-.1-1.1-.3-1.7-.4-1-.1-2.1.1-3.1.1v-.3z"/><path fill="#bf6743" d="M77.5 127.6h.3c1.5 2 3.3 3.8 5.5 4.9.6.3 1.2.5 1.7.8-.1 0-.3 0-.4.1v.2c-1.4-.5-2.6-1.3-3.8-2.2-1.3-.9-2.3-2.2-3.2-3.5-.1 0-.1-.1-.1-.3z"/><path fill="#b95b37" d="M86.7 140.5c0-.7-.1-1.4.2-2 .1 0 .3.1.4.2.1.9 0 1.7.3 2.6.3 1.2.7 2.5 1.6 3.5v.3c-.2-.1-.4 0-.5-.2-1.2-1.3-1.7-2.9-2-4.4z"/><path fill="#150f0c" d="M70.7 147.4c.4 0 .6.4.8.7.3.5.6 1 1 1.4.6.5 1 1.2 1.5 1.7 1 1 2.2 1.9 3.3 2.8 1.6 1.4 3.5 2.6 5.4 3.5 2.1.9 4.2 1.5 6.3 2.3 1.2.4 2.3.9 3.5 1.1 1.3.3 2.6.6 4 .7 1.7.2 3.4.2 5.1.2 1.8-.1 3.5.1 5.3-.3 2.4-.3 4.8-.9 7.1-1.6 1.6-.5 3.2-1.2 4.7-2 1.7-.9 3.4-1.9 4.8-3.3.8-.9 1.7-1.7 2.5-2.7.7-.8 1-1.9 1.8-2.6h.3c0 .7-.4 1.2-.7 1.8-.5.9-1.1 1.7-1.7 2.4-.9.9-1.8 1.9-2.9 2.7-1.9 1.4-4 2.5-6.2 3.4-1.2.6-2.5.9-3.7 1.2-2.4.7-4.9 1.2-7.4 1.4-3 .1-6 .1-9-.1-1.4-.2-2.9-.5-4.3-.8-1.2-.2-2.3-.7-3.4-1-2.4-.9-4.8-1.5-7.1-2.6-1-.5-2.1-1.1-3-1.7-1.3-.9-2.5-1.9-3.6-2.9-.8-.7-1.7-1.4-2.3-2.3-.5-.7-1.1-1.2-1.5-1.9-.3-.4-.4-.9-.7-1.3.1 0 .1-.1.1-.2zM60.4 165c2.2-.1 4.3 1 6.3 1.8 1.3.6 2.6 1.2 4 1.8-.1 0-.3.1-.4.1-.4 0-.7-.2-1-.4-2.2-.9-4.5-1.9-6.8-2.6-.7-.2-1.4-.3-2-.6-.1 0-.1-.1-.1-.1zm10.2 3.7c.4.2.8.3 1.1.6v.3c-.6-.2-1.1-.4-1.7-.7.1-.1.5-.2.6-.2zm46.6 9.3c1.1-.3 2.3-.4 3.3-.9v.4c-1 .5-2.1.7-3.1 1-1.3.3-2.7.8-4.1.8-.2 0-.4-.2-.6-.3.3-.1.6-.1.8-.2 1.3-.3 2.5-.5 3.7-.8z"/><path fill="#150f0c" d="M112.5 178.7h1.2c-.3 0-.6.1-.8.2l.6.3c-.3 0-.6 0-.8-.1-.2-.2-.2-.3-.2-.4zm-89.1 4.8h.3c.3 1.2.7 2.5.8 3.7.3 1.8.3 3.7.2 5.6 0 .6 0 1.2-.1 1.9-.2.7-.2 1.4-.3 2-.1.6-.1 1.1-.2 1.7 0-1.4.2-2.7.1-4.1.1-2.7 0-5.4-.5-8.1 0-.9-.2-1.8-.3-2.7zm1 20.1c.5-2.6 1.2-5.1 1.9-7.6.8-2.5 1.5-4.9 2.1-7.5.2-1 .6-2 .5-3.1-.1 0-.2 0-.3-.1-.4 1.1-.7 2.3-1.1 3.5-.7 2.6-1.5 5.2-2.2 7.8-.7 2.3-1.2 4.6-1.6 7h.7zm84.1-15.5c1.4-.3 2.9-.3 4.3-.8v.3c-1 .5-2.1.5-3.1.7-1.4.2-2.8.5-4.2.5 1.3-.2 2.7-.5 4.1-.6-.4 0-.7-.1-1.1-.1z"/><path fill="#150f0c" d="M93 188.6c1.1-.5 2.3-.8 3.6-.9 1.6-.1 3.2.2 4.7.4 1.6.2 3.2.3 4.8.2.8 0 1.7-.2 2.5-.2.4.1.7.1 1.1.1-1.4.1-2.7.4-4.1.6-3.8.3-7.6-1.1-11.3-.1-.4.1-.8.2-1.3.2v-.3zm-71.2 5.8h.3c.1.6.3 1.2.4 1.8-.1-.1-.2-.2-.2-.3-.1.1-.1.3-.2.4-.1-.6-.2-1.3-.3-1.9zm2.3 2.6c.1-.9 0-1.8.2-2.7.1 1.4-.1 2.7-.1 4.1.1-.6.1-1.1.2-1.7.1-.7 0-1.4.3-2 0 1.2-.2 2.4-.3 3.6-.1 1.4-.3 2.8-.7 4.2h-.3c.5-1.8.5-3.7.7-5.5zm17.9-2c.7 0 1.3.3 1.8.7 1.9 1.6 3.4 3.5 5.4 4.9.9.7 2 1.2 3.2 1.5v.3c-1.1-.2-2.1-.5-3-1.1-2.1-1.3-3.9-3.1-5.6-4.8-.5-.5-1.1-1-1.8-1.2v-.3z"/><path fill="#150f0c" d="M22.5 202.1c0 .5 0 1-.1 1.4h.6c.2-2.5.2-5-.5-7.4-.1-.1-.2-.2-.2-.3-.1.1-.1.3-.2.4.4 2 .5 4 .4 5.9zm116.2 1.5c.1-.2.1-.5.1-.7h-.4c-.1.2-.3.5-.4.7h.7zm3.4 0v-.2c-.2 0-.4 0-.5.2h.5z"/></g></svg>