<svg xml:space="preserve" xmlns:xlink="http://www.w3.org/1999/xlink" enable-background="new 0 0 180 180" viewBox="0 0 180 180" xmlns="http://www.w3.org/2000/svg"><defs><path id="a" d="M0 0h180v180H0z"/></defs><use xlink:href="#a" fill="#56a2b0" overflow="visible"/><clipPath id="b"><use xlink:href="#a" overflow="visible"/></clipPath><g clip-path="url(#b)"><path fill="#193857" d="M83.1 25.5c1.2-.2 2.3-.4 3.5-.5.7-.1 1.4 0 2.1.1.8.1 1.5.6 2.3.6 1.4 0 2.8.1 4.1-.2 1.1-.2 2.3-.4 3.5-.4 1.9.1 3.9.3 5.8.9 1.2.4 2.2 1 3.2 1.7.6.4 1.2.8 1.7 1.2.9.8 1.8 1.5 2.7 2.1.8.6 1.8.8 2.7 1.2 1.4.5 2.7 1.4 4 2.1 1.2.6 2.3 1.4 3.2 2.4 1.2 1.2 2.3 2.4 3.4 3.8.5.7 1.2 1.3 1.4 2.1.2.9.6 1.7.9 2.6.3 1.2.7 2.4.9 3.6.2 1.5.2 3 .3 4.4.1 3.1 0 6.3-.4 9.4-.3 2.5-.6 5-1 7.4-.8 4.3-1.7 8.7-2.7 13-.3 1.2-.6 2.5-.9 3.7 0 .7-.3 1.2-.4 1.9-.1.4.3.6.3.9-.1.8-.4 1.6-.3 2.4.1.5.8.5 1 .1.6-1.7 1.2-3.5 2.2-5.1.2 1.3-.1 2.7-.8 3.8-.6 1-.9 2-1.5 3-1 1.7-2.1 3.4-3.4 4.8-1.6 1.8-3.6 3.1-5.3 4.7-1.6 1.4-3.2 2.8-4.7 4.2-1.6 1.5-3.4 2.8-5.2 4.1-1.5 1-3 2-4.4 3.1-3.3-.2-6.5-.9-9.8-.6-1.9.1-3.8.3-5.7.7-1.5.3-2.9.8-4.4 1.3-2.9-1.1-5.6-2.7-8-4.6-1.2-1-2.3-2.2-3.3-3.5-1.3-1.8-2.4-3.8-3.5-5.8-1.4-2.5-2.6-5.1-4-7.6-.8-1.4-1.6-2.8-2.2-4.3-.6-1.6-1.1-3.4-1.5-5.1-.2-.7-.1-1.4-.5-2-.5-1.1-1-2.2-1.3-3.4-.3-1-.4-2.1-.6-3.2-.2-1.9-.6-3.8-.3-5.7 0-.8.1-1.7.2-2.5.1-1.4.7-2.8.6-4.3 0-1.5-.6-2.9-.7-4.4-.1-1.7-.2-3.5-1.1-5.1-.4-.7-.7-1.6-1.3-2.3-.9-1.2-2-2.3-2.3-3.8-.3-1.3-.3-2.8.2-4.1.4.8.7 1.6 1.2 2.4.5.9 1.2 1.7 2 2.4 1 1 1.8 2.2 2.4 3.4.9 1.5 2.1 2.9 3.8 3.6 1.3.5 2.6.8 3.9 1.2.4.1.9.2 1.4.3 0-.2 0-.3-.1-.5-.4-.2-.8-.4-1.3-.5-1.1-.4-2.3-.9-3.3-1.5-.9-.5-1.8-1.2-2.4-2.1-.6-.8-.9-1.8-1.4-2.6-.5-.9-1-1.7-1.7-2.4-1.1-1-2-2.1-2.6-3.5-.8-1.5-1.9-3-1.9-4.7 0-.2.1-.4.1-.5.6-.1 1.3-.1 2-.2.9 0 1.8-.2 2.8-.1 1.8.2 3.5 1 4.8 2.2 1 1 1.7 2.3 2.6 3.3.9 1.2 2.2 2.3 3.6 2.8 1 .4 2.2.3 3.2.3 1.2 0 2.4-.2 3.6-.2 1.7-.1 3.3.5 4.6 1.6.8.6 1.5 1.3 2.1 2 .8 1 1.2 2.3 1.9 3.3s1.3 2 1.9 3c.2.2.3.5.6.6.3 0 .7-.3.6-.6-.1-1-.5-1.9-.7-2.9-.4-2-.9-4-2.1-5.6-1.1-1.5-2.5-2.8-4.2-3.7-1.4-.6-3-1.1-4.5-1.1-1.7 0-3.4.2-5 0-.6-.1-1.2-.4-1.6-.9-.8-.8-1.3-1.9-1.9-2.8-1.6-2.6-4.5-4.4-7.5-4.9-.7-.1-1.3-.1-2-.2.9-.5 2-.9 3-1.1.2-.1.5-.1.7-.3.6-.8 1-1.7 1.8-2.3 1.3-.2 2.6-.1 3.9.1 1.4.2 2.6 1 3.6 2 1.1 1.1 1.8 2.4 2.7 3.6.6.7 1.3 1.5 2.1 2 1.1.7 2.4 1.2 3.8 1.2 1.6 0 3-.6 4.6-.6 1.3-.1 2.7.2 3.9.8 1.7.9 3.2 2.4 3.9 4.2 1.2 2.6 1.6 5.5 2.5 8.1h.4c-.4-1.7-.7-3.4-.9-5.1-.2-1.9-.8-3.8-1.8-5.4-1.2-1.6-2.8-3-4.7-3.6-1.4-.4-2.9-.4-4.3-.2-1.3.2-2.6.6-3.9.4-1.4-.2-2.6-1-3.5-2.1-1.3-1.5-2.2-3.3-3.6-4.7-.8-.8-1.9-1.4-3-1.8-1-.3-2-.3-3-.4 1.4-.7 3.1-.9 4.7-.8.9.1 1.8.3 2.8.4.7.3 1.2.8 1.9 1.1.8.4 1.5.8 2.3 1.2 1.7.8 3.5 1 5.4 1 1.1 0 2.1-.2 3.1-.6 2.2-.6 4.2-1.7 6.4-2 1.3-.2 2.6-.3 3.8.2 1 .4 1.8 1.1 2.5 1.9 1.4 1.7 3.3 3 5.5 3.1 1.7.2 3.4-.4 5.2-.1.8.1 1.5.6 2.2 1.1 1.1.8 2.4 1.7 2.9 3 1.2 3 1.5 6.2 2.1 9.4.1.8.3 1.6.6 2.4.1 0 .2-.1.3-.1-.5-1.7-.6-3.4-.8-5.1-.2-1.9-.2-3.9-.6-5.8-.3-1.2-.8-2.3-1.7-3.1-.8-.8-1.8-1.5-2.8-2.1-1.4-.9-3.1-.9-4.6-.8-1.2.1-2.4.3-3.5-.1-1-.3-1.9-.9-2.7-1.6-.7-.6-1.3-1.4-2-2.1-1.2-1.2-2.8-1.9-4.5-1.9-1.5 0-3 .2-4.5.6-1.8.6-3.5 1.3-5.4 1.6-2 .2-4.1 0-6-.7-1-.4-1.9-.8-2.9-1.3.9-.6 1.9-1 2.8-1.6 1-.7 2.2-1.2 3.3-1.6.7.1 1.6.1 2.4-.1z"/><path fill="#41709e" d="M88.7 29.6c1.4-.5 3-.7 4.5-.6 1.7 0 3.3.7 4.5 1.9.7.7 1.2 1.5 2 2.1.8.7 1.7 1.3 2.7 1.6 1.1.3 2.3.2 3.5.1 1.6-.1 3.2-.1 4.6.8 1 .6 1.9 1.3 2.8 2.1.9.8 1.4 2 1.7 3.1.4 1.9.4 3.8.6 5.8.2 1.7.3 3.4.8 5.1-.1 0-.2.1-.3.1-.3-.8-.5-1.6-.6-2.4-.6-3.2-.9-6.4-2.1-9.4-.5-1.3-1.8-2.2-2.9-3-.7-.5-1.4-1-2.2-1.1-1.7-.4-3.4.2-5.2.1-2.2-.1-4.2-1.4-5.5-3.1-.7-.8-1.5-1.5-2.5-1.9-1.2-.5-2.5-.4-3.8-.2-2.3.3-4.3 1.4-6.4 2-1 .3-2.1.6-3.1.6-1.8.1-3.7-.2-5.4-1-.8-.4-1.6-.8-2.3-1.2-.7-.3-1.2-.9-1.9-1.1.7.1 1.4-.2 2-.5.1 0 .2-.1.3-.1.9.5 1.9.9 2.9 1.3 1.9.7 4 .9 6 .7 1.8-.5 3.6-1.2 5.3-1.8zm-24.4.7c.1-.1.3-.2.4-.2 1 .2 2 .1 3 .4 1.1.4 2.2.9 3 1.8 1.5 1.4 2.3 3.2 3.6 4.7.9 1.1 2.1 1.9 3.5 2.1 1.3.2 2.6-.3 3.9-.4 1.4-.2 2.9-.2 4.3.2 1.9.6 3.5 2 4.7 3.6 1.1 1.6 1.6 3.5 1.8 5.4.2 1.7.5 3.4.9 5.1H93c-.9-2.7-1.3-5.6-2.5-8.1-.8-1.8-2.2-3.2-3.9-4.2-1.2-.7-2.6-.9-3.9-.8-1.5.1-3 .6-4.6.6-1.3 0-2.7-.5-3.8-1.2-.8-.5-1.5-1.3-2.1-2-1-1.2-1.6-2.5-2.7-3.6-1-1-2.2-1.7-3.6-2-1.3-.2-2.6-.3-3.9-.1.8-.5 1.6-.9 2.3-1.3z"/><path fill="#41709e" d="M70.8 32h1c-.3.1-.6.2-1 0zm-16.6 4.6c.8-.5 1.6-1 2.4-1.3.7.1 1.3.2 2 .2 3 .5 5.9 2.3 7.5 4.9.6 1 1.1 2 1.9 2.8.4.5 1 .8 1.6.9 1.7.2 3.4 0 5 0s3.1.4 4.5 1.1c1.7.9 3.1 2.2 4.2 3.7 1.2 1.6 1.7 3.7 2.1 5.6.2 1 .6 1.9.7 2.9.1.4-.3.6-.6.6-.3-.1-.4-.4-.6-.6-.6-1-1.3-2-1.9-3-.6-1.1-1-2.4-1.8-3.4-.6-.8-1.3-1.4-2.1-2-1.3-1-3-1.6-4.6-1.6-1.2 0-2.4.2-3.6.2-1.1 0-2.2 0-3.2-.3-1.5-.5-2.7-1.5-3.6-2.8-.9-1.1-1.5-2.4-2.6-3.3-1.3-1.2-3-2-4.8-2.2-.9-.1-1.8.1-2.8.1-.7 0-1.3 0-2 .2.2-.7.5-1.4 1-1.9.4-.4.9-.6 1.3-.8z"/><path fill="#41709e" d="M54.4 41.1c-.1-.5-.1-1 0-1.5v1.5zM51.9 43c-.2-1-.4-2.1-.1-3.2-.1 1.8 1.1 3.2 1.9 4.7.6 1.3 1.5 2.5 2.6 3.5.7.7 1.2 1.5 1.7 2.4.5.9.8 1.8 1.4 2.6.6.9 1.4 1.6 2.4 2.1 1.1.6 2.2 1.1 3.3 1.5.4.1.9.3 1.3.5 0 .2 0 .3.1.5-.5-.1-.9-.1-1.4-.3-1.3-.4-2.6-.7-3.9-1.2-1.7-.6-2.9-2.1-3.8-3.6-.7-1.2-1.4-2.4-2.4-3.4-.8-.7-1.4-1.5-2-2.4-.5-.8-.8-1.6-1.2-2.4 0-.3.2-.8.1-1.3z"/><path fill="#dc9eb5" d="M130.6 60.8c-.1-.4-.1-.8 0-1.2v1.2zm61.7 175.5c0-.8 0-1.6-.1-2.4v-.4c-.1-.2-.3-.4-.5-.6v-6.3c-.1-1.9-.3-3.8-.5-5.7-.7-7.5-1.8-15-3.6-22.4-.8-3-1.6-6.1-2.7-9-.2-.7-.5-1.3-.8-2-.1-.1-.3-.7-.3-.7-.1-.3-.3-.6-.4-.9l-1.8-3.6c-.7-1.2-1.4-2.3-2.1-3.4-.4-.6-.8-1.1-1.2-1.7-.1-.2-.5-.6-.5-.7-.2-.2-.4-.5-.6-.7-.6-.7-1.1-1.4-1.7-2-3.1-2-6.4-3.9-9.5-5.8-2.7-1.6-5.4-3.2-8.1-4.9-1.9-1.2-3.7-2.4-5.5-3.6-3.4-2.2-7-4.2-10.4-6.4-3.8-2.4-7.6-4.9-10.9-8-2.3-2.1-4.5-4.5-5.4-7.5-1.1-1.1-2.1-2.2-2.8-3.6-.6-1.1-1.1-2.1-1.8-3.2-.7-1.3-1.5-2.5-1.8-3.8-.5-1.9-1.3-3.6-2-5.4-.3-.7-.8-1.3-1.1-2-.2-.5-.4-.9-.6-1.4-.5-1.1-1.2-2-2.1-2.7-1.2-1.1-2.7-1.8-4.3-1.9-1.5 0-3 .4-4.5.6-.8.1-1.5.4-2.3.5-.6.1-1.1-.1-1.7-.1-3.3-.2-6.5-.8-9.8-.6-1.9.1-3.8.3-5.7.7-1.5.3-2.9.8-4.4 1.3-1.6.7-3.1 1.5-4.6 2.3-2.3 1.5-4.6 3.1-7 4.5-1.6.8-3.2 1.6-4.9 2.2-.2-.4-.4-.8-.7-1-.5-.3-1.2-.3-1.7 0-.7.3-1.3.9-1.8 1.4-1 1-1.9 2.3-2.7 3.5-1 1.6-1.9 3.3-2.6 5.1-.5 1.4-1 2.7-1.5 4.1-.6 1.4-.9 3-1.6 4.3-.5.8-.8 1.7-1.3 2.5-.8 1.2-1.9 2.2-2.9 3.2-.7.7-1.6 1.1-2.3 1.6-.9.7-1.8 1.5-2.7 2.2l-3 2.1c-.8.6-1.7 1.1-2.5 1.8-.6.5-1.2 1.1-1.8 1.6-2.7 2.2-5.7 4-8.3 6.3-1.5 1.3-3 2.6-4.5 4-1 .9-2.1 1.7-2.9 2.7-.6.7-1.2 1.3-1.9 1.9-.7.6-1.3 1.4-1.9 2.2-1.3 1.8-2.7 3.4-4.1 5.1-.4.5-.7 1-1.1 1.6-.7.8-1.4 1.7-2 2.5-1.3 1.6-2.5 3.3-3.6 5.1-2.1 3.3-4.1 6.8-5.8 10.4-1.9 3.9-3.4 8.2-4.7 12.3-1.3 3.9-2.4 7.8-3.2 11.8-1 4.3-1.7 8.6-2.2 12.9h203.3z"/><path fill="#fef2db" d="M98.7 128.8c0-.2 0-.5-.2-.6h-.6c-.2.3-.3.6-.4.9-.3.7-.5 1.3-.7 2-.4.1-.7.2-1.1.3 0-.1-.1-.1-.1-.2 0-.3 0-.7-.2-1-.2-.3-.6-.5-1-.4-2.8-2.4-7-2-10.4-1.6-4.3.4-8.5 1-12.8 1.7-2.4.4-4.7.8-7.1 1.3H64c-.3-.2-.8-.2-1.1 0-.6.3-.5 1.1-1 1.5-.5.4-.6 1.1-.6 1.6-.2 2.4.1 4.8.1 7.2 0 .9.2 1.9-.1 2.8-.4 2-.1 4 .5 5.9.4 1.2.7 2.4 1.3 3.5.4.8.8 1.6 1.4 2.4 1.8 2.5 3.5 5.2 5.1 7.8.6 1 1 2.1 1.5 3.2.9 2.3 1.8 4.5 3 6.7.6 1.1 1.1 2.2 1.6 3.3 1 2.1 1.5 4.3 1.7 6.6.1 1.2.5 2.4 1.1 3.5.2.4.3.8.7 1 .5.2.9-.3 1.1-.7.3-.9.2-1.9.4-2.9.1-.5.5-.7.6-1.2.2-.5.3-1.1.7-1.6.6-.8.7-1.8 1-2.8 1.1-3.7 2-7.5 3.3-11.2.3-1 .7-2.1 1.3-3 1.2-2 2.4-4 3.7-5.9.9-1.5 1.9-2.9 2.7-4.4.6-1.1.8-2.3 1.1-3.5.3-1.2.4-2.5.5-3.7.2-1.6.4-3.2.5-4.9.2-1.6.4-3.1.7-4.6.3-1.2.8-2.4 1.3-3.5.3-.6.6-1.2.5-1.8 0-.5-.5-1-.4-1.5 0-.5.3-1.3.5-2.2z"/><path fill="#e56324" d="M78.1 56.3c1.7-.2 3.4 0 5.1 0 .5 0 1 .1 1.5.2 1.1.2 2.1.8 3.2 1 1.8.4 3.7 1 5.6.8 1-.1 2.1-.3 3.1-.2.6.1 1.3.1 1.9.2 1.3.1 2.7-.1 4 .1 1 .2 2 .6 3 .9.5.2 1.1.1 1.6.2 1 .1 1.9.7 2.8 1 .3.1.5.2.7.3-.4.1-.9.1-1.3 0-1.1-.2-2.2-.2-3.3-.2-.9 0-1.8.3-2.7.4-1.1.2-2.2.3-3.2.9-1.4.8-3 1.4-4.6 1.8-2.6.5-5.3.7-8 .2-1.9-.3-3.9-.1-5.7.6-1.6.6-2.8 1.8-4.2 2.5-1.5.8-3.1 1.3-4.7 1.4-1.1 0-2.2 0-3.3.2-.8.2-1.6.6-2.3 1.1-.8.5-1.2 1.4-1.9 1.9-1.1.9-2.3 1.9-3.8 2-.2 0-.5 0-.7.1.1-1.5.5-3 .7-4.6.2-2.4.8-4.7 1.5-7 .6-1.9 1.2-3.8 1.8-5.6.6.1 1.1.4 1.7.4.8 0 1.6.2 2.4.3 1.9.2 3.8-.2 5.6-.5 1.2 0 2.4-.2 3.5-.4z"/><path fill="#f2844f" d="M103.4 61.3c.9-.2 1.8-.4 2.7-.4 1.1 0 2.2 0 3.3.2.4.1.9 0 1.3 0 .8.2 1.5.7 2.1 1.1.5.4 1.2.5 1.7.8.3.2.4.6.6.9.6 1.8.6 3.8.4 5.6-.2 1.9-.1 3.8.1 5.7.1 1.3.4 2.6.6 3.8.3 1.3.3 2.7.4 4.1.1 1.5-.5 2.9-.8 4.3-.3 1.3-1 2.5-.9 3.9v4c0 .5-.2 1-.2 1.6h.5c-.1 1.5-.4 2.9-.5 4.4-.1 1.5-.5 2.9-1 4.3.1.1.2.3.2.4-.3.1-.5.2-.6.5-.3.9-.6 1.8-.8 2.7h.8c-.2.1-.4.1-.5.4-.4 1-.9 2-1.4 3-.9 2.1-2 4.2-3.1 6.3-.5 1-1 2-1.7 2.9-.6.9-1 1.8-1.6 2.7-1.9 3-4.1 5.9-6 8.9-1.4 2-3.1 3.9-4.5 5.8-.8 1.1-1.7 2.2-2.6 3.3h-.1c-.7-.3-1.5-.1-2.2.1-.9.2-1.8.3-2.6.5s-1.6.1-2.4.2c-1.3.2-2.6.3-3.9.3-1.7-.1-3.3.3-4.9 0-.8-.1-1.6-.2-2.4-.2-3-.1-5.8-1.5-8.5-2.6v.5c-.4-.9-1.1-1.6-1.6-2.5-.5-1-.9-2-1.3-3.1-.4-1.3-.8-2.6-.9-4-.2-2-.4-4.1-.6-6.2-.2-1.7-.5-3.5-.7-5.2-.2-1.9-.7-3.7-1.1-5.5-.2-.8-.3-1.7-.5-2.5-.3-1.5-.5-3-.8-4.5 0-.2-.3-.4-.5-.5.2 0 .3.1.5.1-.2-1-.3-2-.4-3-.1-1.8.1-3.6.1-5.4 0-.7 0-1.5-.1-2.2 0-.7.2-1.4.3-2.2.1-1 .1-1.9.2-2.9.1-1.1.3-2.1.6-3.1.3-1.2.4-2.5.7-3.7.6-.9.6-2 .8-3 .4-.9.5-1.9.7-2.9.1-.5 0-1.1.1-1.6.2-1.1.2-2.2.4-3.3.2 0 .5 0 .7-.1 1.5-.1 2.7-1.1 3.8-2 .7-.6 1.1-1.4 1.9-1.9.7-.5 1.4-.9 2.3-1.1 1.1-.2 2.2-.2 3.3-.2 1.7-.1 3.3-.6 4.7-1.4 1.5-.7 2.7-1.9 4.2-2.5 1.8-.7 3.8-.9 5.7-.6 2.6.5 5.4.2 8-.2 1.6-.4 3.2-.9 4.6-1.8 1.2-.7 2.3-.8 3.4-1z"/><path fill="#f95939" d="M52.9 80.2c2.1-.4 4.5.5 5.6 2.4.1.5 0 1.1.1 1.6.1.3.3.5.4.7-.3 1.2-.4 2.5-.7 3.7-.3 1-.4 2.1-.6 3.1-.1 1-.1 1.9-.2 2.9-.1.7-.3 1.4-.3 2.2 0 .7.1 1.4.1 2.2.1 1.8-.1 3.6-.1 5.4.1 1 .2 2 .4 3-.2 0-.3-.1-.5-.1-.3-.1-.6-.3-.9-.4-.7-.5-1.4-1-2-1.8-1.1-1.4-2.1-2.8-2.8-4.5-.6-1.2-1.2-2.4-1.6-3.7-.5-1.5-1.1-3-1.4-4.6-.3-1.3-.4-2.7-.4-4.1 0-1.2.2-2.4.5-3.6.2-.9.6-1.8 1.2-2.5.3-.4.8-.6 1.1-.9.7-.4 1.4-.8 2.1-1z"/><path fill="#f99d73" d="M104.9 80.8c.6 0 1.3-.2 1.9-.2 0 .2-.1.3-.1.5-.9-.1-1.7-.1-2.6-.1.3-.2.6-.2.8-.2z"/><path fill="#fdb38f" d="M101.2 81.2c1-.1 2-.3 2.9-.3.9 0 1.7 0 2.6.1.5.1 1.2-.1 1.6.4-.5.2-1.1.1-1.6.1-2.5 0-5.1.4-7.6.7H98V82c1.2-.2 2.2-.6 3.2-.8z"/><path fill="#e56324" d="M62.1 82.7c-.1-.3 0-.8.4-.8.5-.1.8.5 1.2.5.4-.1.7-.5 1.1-.5.8 0 1.6.3 2.3.5 1.5.5 2.9 1.1 4.3 1.7.8.3 1.6.3 2.4.5.8.2 1.5.5 2.3.5.9 0 1.8.2 2.7.5.6.2 1.1-.1 1.7 0 .4 0 .7.5.5.9-.2.5-.6.8-.9 1.2 0 .3.2.6.2.9-.1.4-.3.7-.5 1.1-.8 1.6-1.7 3.2-2.2 4.9-.2.5-.4 1.1-.5 1.6-.2.5-.6.9-.7 1.5-.7 2.3-1.4 4.5-2.1 6.8-.2.6-.5 1.1-.6 1.8-.1.4-.5.7-.5 1.2-.1.5-.1 1-.2 1.5s-.2 1-.1 1.5c.1.6.2 1.3.1 1.9-.2.1-.5.2-.6 0-.7-1-1-2.3-.9-3.6-.1-1.7.2-3.5.6-5.1.5-2.4 1.1-4.7 1.9-7 .1-.2.1-.4.2-.6-.8.2-1.6.5-2.4.8-.4.1-.7.2-1.1.2-.8 0-1.5.2-2.3.1-.6 0-1.2-.3-1.9-.4-1.3-.2-2.6-.8-3.3-1.8-.4-.6-1-1.1-1.1-1.8.5 0 1 .3 1.4.5 1.1.4 2.3.7 3.5 1 1.3.3 2.5.5 3.8.6 1.3 0 2.6-.3 4-.5.4-1 .5-2.1.9-3.2.2-.7.5-1.3.7-2-.7.3-1.3.7-2 .9-1.6.6-3.4 1.1-5.1.9-.8-.1-1.6-.3-2.3-.7-.6-.3-.9-1-1.4-1.4-.8-.7-1.4-1.6-1.9-2.5-.4-.8-.9-1.5-1.1-2.4-.1-.8-.4-1.2-.5-1.7z"/><path fill="#f5a072" d="M96.7 82.5c.4-.4 1-.4 1.5-.5v.2h1.1c-.4.2-.8.2-1.2.3-.6 0-1 .1-1.4 0z"/><path fill="#f95939" d="M123.4 86.9c1-.4 2.1-.4 3.2-.6.9-.1 1.8.1 2.4.7.6.6 1.2 1.2 1.6 2 .3.7.3 1.5.2 2.2-.1 1.1-.2 2.2-.6 3.2-.4 1-.9 2-1.5 3-1.3 2.1-3.1 3.8-5 5.4-1.5 1.2-2.9 2.4-4.5 3.4-1.1.7-2.2 1.5-3.4 2-.8.3-1.5.8-2.4.9h-.8c.3-.9.5-1.8.8-2.7.1-.3.4-.4.6-.5-.1-.1-.2-.3-.2-.4.5-1.4.9-2.8 1-4.3.1-1.5.3-2.9.5-4.4.9-2.6 2.4-5 3.8-7.4.3-.5.8-.8 1.2-1.1 1-.5 2-1 3.1-1.4z"/><path fill="#e56324" d="M95.6 88.5c.6-.1 1.1 0 1.6.1.7.2 1.3-.1 2 0 1.8.3 3.7.2 5.5.4 1.5.1 2.9.3 4.3.4.4 0 .7.3 1 .3.5 0 1 .3 1.5.6.1.5-.4.9-.8 1.2-1.4.9-3 1.5-4.7 1.6-.3 0-.5.3-.8.4-1.1-.1-2-.8-3.1-1-1.2-.2-2.5-.6-3.6-1.3-.9-.5-1.9-1.1-2.6-1.9-.1 0-.2-.4-.3-.8z"/><path fill="#f89f72" d="M80.3 95c0-.4.3-.8.7-.9 0 .5-.2.9-.5 1.3 0-.2-.1-.3-.2-.4z"/><path fill="#fdb391" d="M80.3 95c.1.1.1.2.2.3-1.5 3.2-2.5 6.6-3.4 10.1-.3.9-.5 1.8-.7 2.8-.2.4-.4.7-.6 1.1h-.3c.2-.7.3-1.4.4-2.1.4-1.9.9-3.7 1.5-5.5.5-1.8 1.3-3.6 2.1-5.3.2-.6.5-1 .8-1.4z"/><path fill="#fcb390" d="M96.2 95.5c.6-.1 1.3 0 1.9 0 .7 0 1.3.3 2 .4.8.2 1.7.4 2.5.6.3.1.7.1 1 .3-2.5-.2-4.9-.6-7.4-1-.1 0 0-.2 0-.3z"/><path fill="#e56324" d="M92.8 96.8c.3-.1.6 0 .9.1 1.6.4 3.2.7 4.8 1.1 3 .6 6.1.8 9.2.8 0 .2.1.6-.1.7-.5.3-1 .8-1.6.9-1.9.5-3.8.5-5.7.6-.5 0-1.1.1-1.6 0-.4 0-.7-.4-1.1-.4-1.6-.1-3-.9-4.2-2-.5-.5-.9-1.2-.6-1.8zm-13.7 14.7c.3 0 .7-.1.9.3.1.4-.3.8-.5 1.1-1.2 1.1-2.3 2.1-3.5 3.1-.4.3-.9.5-1.4.7-.4.1-.8-.2-.8-.6 0-.6.2-1.3.2-1.9.1-.4 0-1 .4-1.3.4-.4 1.1-.3 1.6-.6 1-.4 2.1-.7 3.1-.8z"/><path fill="#f79e72" d="M72.2 120.6c.8-.1 1.6 0 2.4 0-.3.1-.7.1-1 .2.1.1.1.2.2.3-.6-.1-1.1-.1-1.7-.3 0-.1 0-.2.1-.2z"/><path fill="#fcb390" d="M74.5 120.5c.8-.1 1.6 0 2.3 0 1 .1 2.1.3 3.1.7.5.2 1 .3 1.4.5-.1.3-.5.2-.7.2-2.3-.4-4.6-.6-6.9-.9-.1-.1-.1-.2-.2-.3.4 0 .7-.1 1-.2z"/><path fill="#e56324" d="M70.2 123.9c.8-.1 1.7-.4 2.5-.5 2.8-.1 5.6.7 8.5.9.9.1 1.9 0 2.7.3 1.2.5 2.4 1 3.4 1.6-.1.6-.5 1.1-.9 1.6-.1.2-.3.4-.6.4-1.1-.1-1.9-.8-3-.8-1.5 0-2.9-.4-4.4-.2-1.4.2-2.9.4-4.3.6-.6.1-1.4.1-1.9-.3-.3-.4-.4-.9-.7-1.2-.6-.7-1.2-1.5-1.3-2.4z"/><path fill="#e66729" d="M74.4 137.4c.7-.2 1.4-.2 2.1-.1.8.1 1.7.2 2.5.5.2.1.1.3.2.4-.6 0-1.2-.1-1.8-.1-1 0-1.9 0-2.9.2-.3.1-.7.2-1 0 .1-.5.5-.8.9-.9z"/><path fill="#e56324" d="M65 140.8c2.8 1.1 5.5 2.5 8.5 2.6.8 0 1.6 0 2.4.2 1.6.2 3.3-.1 4.9 0 1.3 0 2.6-.1 3.9-.3.8-.1 1.6 0 2.4-.2.9-.2 1.8-.3 2.6-.5.7-.2 1.5-.4 2.2-.1-.5.8-1.2 1.5-1.8 2.3-1.4 1.8-2.9 3.5-4.5 5.2-1 1-1.8 2.1-2.9 3-.4.3-.7.8-1.2 1-.5.2-1 0-1.4-.3-.4-.3-.6-.8-1-1.2-1.9-1.2-3.5-2.8-5.4-4.1-.8-.5-1.4-1.1-2.2-1.7-.4-.4-.9-.7-1.3-1.1.1-.1.2-.1.3-.2-.4.1-.7-.2-1-.4-.9-.7-1.8-1.3-2.6-2.1-.6-.6-1.3-1.1-1.9-1.6v-.5z"/><path fill="#193857" d="M61.4 79.4c.6-.9 1.6-1.5 2.7-1.7 1.8-.2 3.6 0 5.3.5 2.5.8 4.7 2.1 6.9 3.4.8.5 1.6.9 2.3 1.5.6.7 1.5 1.2 2.2 1.8v.3c-.6.3-1.2.7-1.9.8-.6.1-1.2 0-1.8-.1-1.2-.2-2.4-.6-3.6-1-1-.3-2-.8-3-1.2-2-.9-4.2-1.5-6.5-1.7-.8-.1-1.6.3-2.4.3-.4 0-.7-.4-.7-.8.2-.6.4-1.3.5-2.1z"/><path fill="#cc492f" d="M51.6 83.6c.2 0 .4-.1.6-.1.4.2.7.5.9.8.6.7 1 1.6 1.4 2.5.6 1.2 1.1 2.5 1.5 3.9.2.7.5 1.3.4 2-.3.1-.7.1-.8-.3-.7-2.1-1.7-4-2.8-5.9-.4-.6-.8-1.3-1.1-1.9-.1-.4-.1-.7-.1-1z"/><path fill="#193857" d="M104.8 84.6c.8 0 1.6-.2 2.4-.1 1.2.1 2.6.2 3.7.8 1 .6 2 1.3 2.3 2.5.2.7.4 1.4.3 2.1-.5 0-.9.4-1.4.3-1.1-.2-2.1-.6-3.2-.8-1.4-.3-2.9-.4-4.4-.6-1.6 0-3.2-.1-4.8-.2-1.8-.3-3.8-.3-5.5-1.2-.4-.2-.8-.8-.4-1.2.5-.3 1-.5 1.6-.5.8.1 1.6-.3 2.4-.4 2.4-.2 4.7-.4 7-.7z"/><path fill="#15100d" d="M69 88.4c.5-.1.9.3 1.2.6.4.5.2 1.2.1 1.7-.1.6-.3 1.2-.8 1.6-.3.3-.9.2-1.2-.1-.9-1.1-.5-3.1.7-3.8zm35.8 3.8c.5-.3 1.2 0 1.4.6.3.8.1 1.8-.4 2.5-.3.5-1 .7-1.5.5-.6-.3-.7-1.1-.6-1.7.3-.8.5-1.6 1.1-1.9z"/><path fill="#d15f29" d="M93.3 98.5c.1 0 .2-.1.3-.1.4.4 1 .4 1.3.9.9.9 2 1.3 3.2 1.5 1.5.3 3.1.1 4.6-.2.6-.1 1.2-.3 1.9-.3v.4c-1.4.7-2.9.8-4.4 1.1-1.6.3-3.2.1-4.7-.7-.9-.4-1.5-1.2-1.9-1.9-.2-.2-.2-.5-.3-.7z"/><path fill="#cc492f" d="M127.2 89.9c-.3-.1-.7-.1-1.1 0-1.1.3-2.1 1-3 1.7-1.8 1.2-3.2 2.9-4.4 4.7-.5.8-1.1 1.5-1.6 2.4-.5.5-.8 1.2-1.2 1.8-.2.3-.3.6-.3.9.2 0 .4-.1.6-.3.4-.5.8-1.1 1.1-1.7.7-.9 1.3-1.8 2.1-2.6 1.6-1.9 3.4-3.7 5.6-5 .7-.4 1.5-.7 2.2-1.1v-.8z"/><path fill="#d05e27" d="M75.3 118.2c2-.2 4 .1 5.8.8 1.2.5 2.4 1 3.7 1.5.8.3 1.5.7 2.3 1 1 .3 2 .5 2.9.9-1.1.3-2.3 0-3.3-.4-1.3-.4-2.7-.9-4.1-1.2-2.3-.6-4.5-1.6-6.9-1.3-1.5.2-2.9.4-4.4.4-1.2 0-2.5.1-3.7-.3v-.4c1.8-.1 3.5-.3 5.3-.6.8-.2 1.6-.3 2.4-.4z"/><path fill="#b95d38" d="M102.6 70.7c-.4-.3-.9-.4-1.4-.6-1.1-.4-2.2-.9-3.4-1.1-1.1-.2-2.3-.3-3.5-.2-.9.1-1.8.2-2.7.4-.7.1-1.4.2-2.1.1-.9-.1-1.6-.5-2.4-.9-.6-.3-1.3-.4-1.9-.5-1.1-.1-2.1-.1-3.2 0-1.3.1-2.6.1-3.9.1.4.2.8.4 1.3.5 1.8.3 3.6-.1 5.4.1.7.2 1.4.2 2 .5 1 .5 2 1 3.1 1 1.4.1 2.6-.4 4-.4 2 0 4 .5 5.9.9 1 .2 2 .6 3 .6 0-.3 0-.4-.2-.5zM97.5 72c-2.1-.6-4.3-1.2-6.5-1-1.2.1-2.4.3-3.5-.1-1-.2-1.9-.7-3-.7-.7-.2-1.4-.1-2.1-.1-1.4 0-2.8.6-4.1 1 .8.1 1.6 0 2.4-.2 1.1-.3 2.2-.2 3.3-.1 1.5.4 2.9 1.2 4.5 1.3 1.2.1 2.3-.3 3.5-.3 1.7 0 3.3.4 4.9.9 1.6.4 3.3.9 4.9.6v-.4c-1.5.1-3-.5-4.3-.9zM85 75.1c-.3.3-.3.8-.5 1.2-.3 1-.5 2-.5 3 0 .7-.1 1.3 0 2-.1.9 0 1.8.3 2.7h.4c0-.9.1-1.7 0-2.6.1-1.7.3-3.5.6-5.2.1-.3.1-.6.1-.9 0-.3-.2-.3-.4-.2zm2.7 1.6c-.7 2.3-.6 4.7-.6 7.1 0 .4-.1.8.1 1.1.1.1.2.1.3.2v-1.2c.1-.7.1-1.3.1-2 .1-1.3.2-2.6.4-4 .1-.9.4-1.8.3-2.7-.3.5-.5 1-.6 1.5zM73.2 96.2c-.5 0-.9.3-1.4.1v-.4c-.6.3-1.3.5-1.9.8-1.5.3-3.1 0-4.4-.9-.4-.3-.7-.7-1.1-.9-.2-.1-.5-.1-.7.1.3.8.8 1.6 1.6 2 1.1.7 2.5 1.1 3.8.7 1.1-.3 2.3-.4 3.4-.9.2-.1.5-.3.7-.6zm1.6 8.3c.1-.4.3-.8.4-1.2.5-1.8 1.1-3.6 1.7-5.4.5-1.6 1.2-3.1 1.8-4.6.6-1.5 1.2-3.1 1.9-4.5.4-.8.9-1.7.8-2.6h-.5c-.5 1-.9 2-1.3 2.9-.6 1.1-1 2.4-1.6 3.5-.9 2-1.7 4-2.4 6.1-.5 1.7-1 3.4-1.6 5.1-.7 2.3-1.5 4.6-1.5 7 0 .7.2 1.4.9 1.7 1 .6 2.3.3 3.4.1 1.4-.2 2.7-.7 4-1.3v-.3c-.6.1-1.1.2-1.7.3-1.1.3-2.2.3-3.3.4-.6 0-1.2 0-1.8-.3-.3-.1-.3-.4-.3-.7 0-1.1.1-2.1.3-3.2.2-1 .6-2 .8-3zm-13.3 2.7c-.3-.5-.4-1.1-.7-1.7-.2 1.2.4 2.3.7 3.4.4 1.6 1.2 3.1 1.5 4.7h.7c-.2-1.1-.7-2.1-1-3.1-.4-1.1-.7-2.2-1.2-3.3zm6.5 6.5c-1.3 2.1-2.2 4.3-2.9 6.7-.4 1.3-.5 2.6-.5 4-.1 1.1 0 2.2.2 3.2h.5v-3.4c0-.3.1-.5.1-.8.2-1.8.7-3.5 1.3-5.1.7-1.7 1.6-3.3 2.6-4.9.6-1.1 1.3-2.1 1.6-3.3h-.4c-.9 1.1-1.7 2.4-2.5 3.6zm36-3.6c-.9.9-1.8 1.8-2.5 2.8-.9 1.2-1.6 2.5-2.3 3.8-.4.8-.9 1.6-1.1 2.5.2 0 .4-.1.5-.3.5-.9 1-1.9 1.6-2.8 1.1-1.8 2.7-3.3 4.1-5 .4-.5.8-1.1.8-1.8-.5 0-.8.5-1.1.8zm-13.2 3.3c-.2-.6-.3-1.2-.6-1.7-.1-.2-.3-.2-.4-.3-.2.7-.1 1.5.1 2.2l.9 3.6c.4 1.5.6 3.1.8 4.6.1.9.1 1.8.2 2.6 0 1.1 0 2.2-.1 3.3-.1 1.2-.3 2.3-.3 3.4h.4c.4-1.7.7-3.3.8-5.1.6-2.9.3-5.9-.4-8.8-.4-1.2-.9-2.5-1.4-3.8zm-7.3 13.9c-1.6-.6-3.2-1.2-4.9-1.1-1.7.1-3.3.6-4.9 1-.4.1-.7.2-1 .4.2.1.4.2.7.3.7 0 1.4 0 2.1-.1 1.4-.2 2.9-.7 4.3-.6 1.6.1 3.1.7 4.7 1.1.4.3.9.5 1.4.6v-.4c-.3-.3-.7-.4-1-.5-.4-.4-1-.5-1.4-.7z"/><path fill="#775b76" d="M107.2 134.7c1.1-.3 2.3-.5 3.4 0 .7.3 1.4.8 1.9 1.4.2.2.1.5.1.7-.5-.2-.8-.5-1.3-.7-1.3-.6-2.8-.7-4.1-.1-1 .4-1.6 1.2-2.3 1.9-.7.6-1 1.5-1.4 2.4-1 2.3-1.8 4.6-3 6.8-1.3 2.6-2.9 5.1-4.4 7.6-1.5 2.9-3.3 5.6-5.3 8.2-.9 1.1-1.6 2.4-2.1 3.7-.6 1.8-1 3.7-1.7 5.6-.8 2.3-1.5 4.6-2.2 7-1.1 4-2.5 7.9-4 11.8-.3.7-.5 1.4-.7 2.2-.3 1.7-.8 3.4-.8 5.2v1c-.2-.6-.2-1.2-.2-1.7 0-.6-.1-1.2-.2-1.8-.1-.6 0-1.2 0-1.8.1.5.1.9.1 1.4.2-.8.2-1.7.4-2.5.6-3.4 2.3-6.4 3.4-9.6.6-1.6 1-3.3 1.4-4.9.7-2.3 1.3-4.7 2.1-7s1.2-4.8 2.5-7c.4-.7.9-1.4 1.4-2.1 1.5-2 2.9-4.1 4.1-6.3.8-1.4 1.5-2.8 2.3-4.2.7-1.1 1.3-2.4 1.9-3.6 1-1.8 1.9-3.7 2.7-5.7.6-1.4 1.2-2.8 2-4.2.5-.7.8-1.5 1.4-2.1.8-.7 1.6-1.3 2.6-1.6z"/><path fill="#775b76" d="M52.8 142.3c.8 0 1.7-.2 2.3.5.4.6 1 1.2 1.4 1.8.6 1.1 1.2 2.3 1.7 3.4.6 1.3 1.4 2.6 2.1 3.9 1.1 1.8 1.9 3.8 3.1 5.6.7 1 1.4 1.9 2.1 2.8.5.7 1.1 1.5 1.6 2.3.6 1.1 1 2.2 1.6 3.3 1.2 2.4 1.9 5 3.1 7.4 1 2.2 2 4.5 2.6 6.9.4 1.5.7 3 1.4 4.4.4.8.7 1.6 1 2.5.8 2.3 1.9 4.5 2.4 6.8-.1.6-.2 1.2 0 1.8.1.6.2 1.2.2 1.8 0 .6 0 1.2.2 1.7.2 1.5.1 2.9 0 4.4-.1 1.8-.3 3.6-.7 5.3-.2 1.2-.5 2.4-.7 3.6-.6 3.1-.6 6.3-.4 9.4 0 2.6.3 5.2 0 7.8-.2 1.6-.1 3.2 0 4.8 0 .4.2.8 0 1.1-.2.2-.6.1-.7-.1-.4-1-.2-2.1-.4-3.2-.2-1.9.3-3.7.1-5.6 0-1.9-.2-3.8-.2-5.7-.2-2.9-.1-5.8.4-8.7.1-1.2.4-2.4.6-3.6.6-3.2.8-6.4 1-9.6 0-.4.1-.8.1-1.2.2-1-.1-1.9-.3-2.9-.1-1-.6-1.8-.9-2.7-.5-1.6-1.2-3.1-1.8-4.6-.3-.8-.6-1.6-1-2.3-1.1-2.2-1.4-4.7-2.2-7-.8-2.5-2-4.8-3-7.3-.4-1.1-.8-2.2-1.3-3.3-.4-1-.9-1.9-1.4-2.9-.5-1.1-1-2.2-1.7-3.2-.6-.9-1.2-1.9-1.9-2.8-.8-1.1-1.7-2.1-2.3-3.2-.4-.8-.9-1.6-1.2-2.4-.6-1.2-1.3-2.3-1.9-3.4-.7-1.2-1.1-2.5-1.8-3.8-.5-.9-.9-1.9-1.5-2.7-.6-.3-1.5-.3-2-.8.3.1.3-.1.3-.3z"/><path fill="#ba9f80" d="M88.3 161.8c-1.2-1.6-2.3-3.3-3.6-4.9-.7-.9-1.7-1.6-2.6-2.4-.4-.3-.8-.7-1.3-.6-.6 0-.9.5-1.3.9-2.4 2.4-4.5 5.1-6.4 8-.6.6-1.1 1.4-1.6 2.2-.4.7-1 1.3-1.3 2.1.6-.2.8-.8 1.2-1.2.7-.9 1.5-1.8 2.1-2.8 2.4-2.8 4.8-5.7 7.4-8.4.5.6 1.1 1.1 1.7 1.6.9.8 1.6 1.8 2.4 2.7 1.3 1.4 2.5 3 3.8 4.4.1.2.4.1.6.1-.2-.5-.8-1.1-1.1-1.7z"/></g></svg>