<?xml version="1.0" encoding="utf-8"?>
<!-- Generator: Adobe Illustrator 25.2.0, SVG Export Plug-In . SVG Version: 6.00 Build 0)  -->
<svg version="1.1" id="Layer_1" xmlns="http://www.w3.org/2000/svg" xmlns:xlink="http://www.w3.org/1999/xlink" x="0px" y="0px"
	 viewBox="0 0 180 180" style="enable-background:new 0 0 180 180;" xml:space="preserve">
<style type="text/css">
	.st0{clip-path:url(#SVGID_2_);}
	.st1{fill:#DC9EB5;}
	.st2{fill:#D1434F;}
	.st3{fill:#E56324;}
	.st4{fill:#F2844F;}
	.st5{fill:#F95939;}
	.st6{fill:#B65A35;}
	.st7{fill:#B95D38;}
	.st8{fill:#38312D;}
	.st9{fill:#5C4846;}
	.st10{fill:#160E0B;}
	.st11{fill:#FDB796;}
	.st12{fill:#CC492F;}
	.st13{fill:#B95934;}
	.st14{fill:#9C2946;}
	.st15{fill:#CA6A9A;}
	.st16{fill:#CD729D;}
	.st17{fill:#CD6F9C;}
	.st18{fill:#CB6797;}
	.st19{fill:#CC6C9A;}
	.st20{fill:#CC6D9B;}
	.st21{fill:#CA6898;}
	.st22{fill:#D27CA6;}
</style>
<g>
	<defs>
		<rect id="SVGID_1_" width="180" height="180"/>
	</defs>
	<use xlink:href="#SVGID_1_"  style="overflow:visible;fill:#1DBC74;"/>
	<clipPath id="SVGID_2_">
		<use xlink:href="#SVGID_1_"  style="overflow:visible;"/>
	</clipPath>
	<g class="st0">
		<g>
			<path class="st1" d="M179.2,235c0-0.3,0-0.5,0-0.8c0.1-1-0.3-2-0.4-3c-0.2-1-0.3-2.1-0.6-3.1c-0.8-2.6-1.4-5.3-2.4-7.8
				c-0.9-2.1-1.6-4.4-2.6-6.4c-0.9-1.7-1.5-3.6-2.6-5.2c-1.3-1.9-2.7-3.7-4.2-5.5c-1.6-1.9-3.2-3.8-5.1-5.5
				c-1.4-1.4-2.9-2.5-4.4-3.7c-2.1-1.5-4.5-2.6-6.7-3.8c-0.8-0.5-1.6-0.9-2.4-1.4c-2.3-1.2-4.7-2.3-7-3.5c-1.8-1-3.6-1.9-5.4-2.9
				c-0.9-0.5-1.8-1.2-2.8-1.6c-1.2-0.6-2.5-1.2-3.8-1.1c-1.4,0-2.8,0.5-4.2,0.9c-1.1,0.4-2,0.9-3.1,1.3c-1.5,0.6-3.2,0.7-4.8,0.9
				c-1.1,0.1-2.2,0.2-3.3,0.2c-2,0-3.9,0.3-5.9,0.5c-2.9,0.3-5.8,0.6-8.7,0.4c-3-0.1-6-0.4-9-0.7c-2.8-0.3-5.5-0.6-8.3-1
				c-2.8-0.4-14.9-2.4-18.1-2.9c-2.9-0.5-5.8-0.9-8.7-1.1c-1.6-0.1-3.3-0.1-4.9-0.1c-1.1,0-2.1,0-3.1,0.5c-1.1,0.5-2.1,1.2-3.2,1.7
				c-1.4,0.7-2.7,1.6-4.1,2.4c-1.1,0.6-2.2,1.2-3.3,1.8c-4.1,2.3-8,4.8-11.8,7.5c-0.6,0.5-1.2,0.9-1.9,1.4c-2.1,1.5-3.8,3.3-5.6,5.1
				c-1.7,1.7-3,3.7-4.2,5.7c-1.2,1.9-2.1,3.9-3.1,5.8c-0.9,1.9-1.7,3.9-2.6,5.8c-1,2.1-1.8,4.2-2.5,6.4c-1,2.5-1.8,5-2.7,7.5
				c-0.5,1.5-1.1,3-1.3,4.6c0,0.3-0.1,0.6-0.1,0.9H179.2z"/>
			<path class="st2" d="M80.1,27.2c0.8-0.1,1.7-0.1,2.5,0c1.4,0.1,2.7,0.6,3.7,1.5c0.6,0.5,1.1,1.1,1.6,1.8c0.2,0.3,0.5,0.6,0.9,0.6
				c1.5,0.1,2.8-1,4.2-0.6c1.3,0.3,2.3,1.4,3.1,2.3c0.4,0.5,1.1,0.6,1.7,0.4c1.9-0.4,3.4-1.9,5.2-2.5c1.2-0.4,2.4-0.7,3.6-0.7
				c1.1,0,2.1,0.1,3.1,0.4c1,0.3,2.1,0.6,3.1,1.1c0.8,0.4,1.5,0.9,2.2,1.4c1,0.7,1.7,1.7,2.3,2.7c0.5,0.7,0.8,1.6,0.9,2.4
				c0,0.8,0,1.5-0.1,2.3c-0.1,0.6-0.2,1.2,0,1.7c0.3,0.3,0.7,0.1,1.1,0.2c1.1,0,2.3-0.1,3.2,0.6c0.9,0.8,1.2,2,1.4,3.1
				c0.2,1,0,2.1,0.2,3.1c0,0.2,0.2,0.5,0.5,0.5c1.1,0,2.1-0.5,3.1-0.3c1,0,2.1,0.4,2.6,1.3c0.7,1,0.4,2.3,0.1,3.4
				c-0.1,0.7-0.5,1.4-0.1,2c0.3,0.5,1,0.4,1.5,0.4c2.4-0.2,4.9-0.3,7.3,0.1c1.2,0.2,2.5,0.5,3.6,1.1c1.4,0.7,2.5,1.8,3.4,3
				c0.5,0.7,1,1.5,1.2,2.3c0.4,1.1,0.7,2.3,0.8,3.6c0.1,2.2-0.1,4.5-1.2,6.4c-0.6,1.1-1.4,2.1-2.3,3c-0.8,0.8-1.8,1.6-2.5,2.5
				c-0.7,0.9-1.1,2.1-0.9,3.2c0.1,1.2,0.7,2.3,1.5,3.1c0.8,1,1.9,1.8,3,2.5c0.8,0.5,1.7,1,2.3,1.7c0.7,0.7,1.2,1.5,1.6,2.3
				c0.5,0.9,0.8,2,0.7,3c-0.1,0.9-0.3,1.8-0.8,2.5c-0.7,1.3-1.6,2.6-2.3,4c-0.5,1.2-0.8,2.5-0.8,3.7c0.1,1.4,0.3,2.7,0.9,4
				c1,2,2.5,3.8,3.6,5.7c0.6,0.9,0.9,2,0.9,3c0,2-0.3,4-1.6,5.6c-1.2,1.4-3,2.3-4.8,2.6c-1.5,0.1-3.1-0.1-4.5,0.2
				c-1.2,0.4-2.3,1.2-2.8,2.4c-0.7,1.5-0.6,3.1-1.2,4.6c-0.4,0.8-1.1,1.4-1.8,1.9c-0.9,0.6-1.9,1.1-2.9,1.4c-1.3,0.4-2.7-0.1-4,0.3
				c-0.6,0.2-1,0.7-1.5,1c-0.9,0.5-1.9,0.7-2.9,0.9c-0.9,0.1-1.8,0.1-2.7-0.1c-0.8-0.2-1.8,0.2-2.2,0.9c-0.4,0.7-0.6,1.5-1.1,2.2
				c-0.6,1-1.7,1.7-2.7,2.2c-0.8,0.5-1.8,0.4-2.6,0.2c-1.8-0.5-3.8-0.1-5.6-0.8c-0.8-0.3-1.3-1-2.1-1.3c-1,0.2-1.7,1-2.5,1.6
				c-0.8,0.6-1.9,0.6-2.9,0.8c-2,0.2-3.9,0.3-5.9,0.3c-5.9-0.2-11.9-0.4-17.6-2.3c-1.6-0.5-3.1-1.2-4.4-2.3c-1-0.9-2-1.8-2.8-2.9
				c-0.3-0.4-0.7-0.9-1.3-1.1c-0.5-0.1-0.9,0.2-1.3,0.4c-1.2,0.7-2.3,1.7-3.7,2c-1.3,0.2-2.6-0.2-3.8-0.8c-0.9-0.4-1.5-1.3-1.9-2.2
				c-0.3-0.6-0.6-1.3-1.2-1.5c-0.9-0.1-1.6,0.4-2.3,0.8c-1.1,0.7-2.6,1.3-4,0.9c-1.1-0.2-2.1-1-2.6-2c-0.4-0.7-0.8-1.7-1.7-2
				c-1.7-0.3-3.3,0.8-5,0.6c-1.4-0.1-2.7-0.8-3.8-1.6c-0.9-0.7-1.7-1.5-2.3-2.5c-0.7-1-1.1-2.3-0.9-3.5c0.1-0.9,0.3-1.9,0.8-2.7
				c0.3-0.6,0.8-1.3,0.6-2.1c-0.1-0.6-0.3-1.3-0.8-1.7c-0.5-0.3-1-0.2-1.5-0.2c-1.1,0-2.3-0.9-2.4-2c-0.1-1.3,0.5-2.6,1.6-3.4
				c0.7-0.5,1.6-1.1,1.8-2c0-1.1-0.4-2.2-1.2-3c-0.9-0.9-2.2-1.3-3.3-2c-1.2-0.9-1.9-2.3-2.3-3.8c-0.3-1.2-0.3-2.5-0.1-3.8
				c0.2-1.7,1.3-3.2,2.6-4.4c1.5-1.6,3.5-2.7,5.7-2.9c0.7-0.1,1.4-0.2,2.1-0.5c0.7-0.3,1.5-0.7,2-1.4c0.7-1.1,0.5-2.5,0.1-3.7
				c-0.3-0.8-1.1-1.2-1.5-2c-0.6-1.1-0.6-2.6,0.2-3.7c0.5-0.8,1.3-1.4,2-2.1c0.6-0.5,0.8-1.4,0.8-2.1c0-1.5-0.4-3-1.1-4.3
				c-0.3-0.6-0.7-1.1-1-1.8c-0.7-1.4-1.1-3-0.9-4.6c0.3-2.9,1.7-5.8,4.1-7.5c1.5-1.3,3.5-1.8,5.3-2.4c1.8-0.6,3.7-0.8,5.6-1.2
				c1.4-0.3,2.8-1.1,3.5-2.3c0.4-0.8,0.9-1.6,0.8-2.6c-0.1-2.6-1.2-5.1-1.1-7.7c0-1.6,0.3-3.3,1.1-4.8c0.9-1.5,2.2-2.9,3.7-3.8
				c0.5-0.3,1-0.4,1.5-0.7c1.1-0.7,2.2-1.3,3.5-1.6c1-0.3,2.1-0.2,3.2-0.1c0.8,0.1,1.6,0.5,2.4,0.6c0.6,0.1,1.3,0.2,2,0.2
				c1.3-0.1,2.6-0.2,3.8-0.8C77.5,28.5,78.6,27.5,80.1,27.2z"/>
		</g>
		<g>
			<path class="st3" d="M92.4,57.9c1.3-0.3,2.7-0.3,4.1-0.3c1.7,0.1,3.4,0.3,5,0.6c1.9,0.3,3.8,0.7,5.6,1.5c1.3,0.5,2.4,1.3,3.4,2.2
				c0.9,0.7,1.7,1.6,2.6,2.3c1,0.9,2.1,1.9,2.9,3c1.4,1.7,2.3,3.7,3.1,5.7c1.1,2.6,2.2,5.2,2.9,7.9c0.1,0.5,0.3,1.1,0.3,1.6
				c-1-0.2-1.7-1-2.3-1.7c-0.4-0.5-0.8-1-1.4-1.3c-0.6-0.3-1.2-0.7-1.6-1.3c-0.6-0.8-1.4-1.3-1.9-2.2c-0.2-0.4-0.4-0.9-0.9-1
				c-0.7-0.2-1.4-0.3-2.1-0.6c-0.7-0.3-1.4-0.4-2-0.8c-0.8-0.4-1.3-1.2-1.6-2.1c-0.2-0.6-0.3-1.4-1-1.5c-1-0.2-1.9,0.4-2.8,0.7
				c-0.9,0.3-1.9,0.5-2.8,0.1c-0.8-0.4-1.1-1.4-1.6-2.1c-1.1,0.2-1.9,0.8-2.9,1.2c-0.9,0.4-2,0.4-2.9-0.1c-0.5-0.2-0.9-0.6-1.5-0.7
				c-0.9-0.1-1.9,0.2-2.6,0.8c-1.1,0.9-2,2-3.3,2.5c-1.4,0.5-2.8,0.1-4.2,0c-0.7-0.1-1.3,0.3-1.7,0.9c-0.8,1.1-1.3,2.4-2.4,3.3
				c-0.9,0.7-1.9,1.2-2.8,1.7c-1.1,0.6-2.4,1.1-3.2,2.1c-1.1,1.3-1.6,3-2.6,4.4c-1,1.5-2.3,2.8-3.4,4.2c-0.6,0.7-1.1,1.5-1.6,2.3
				c-0.1-0.7,0-1.5,0-2.2c0-2.3,0.2-4.7,0.5-7c0.4-2.4,1.2-4.8,2-7.2c0.9-2.3,2-4.5,3.7-6.4c1.5-1.7,3.2-3.3,5-4.7
				c0.6-0.5,1.3-0.9,2-1.3c2.2-1.4,4.4-2.8,6.9-3.5c1.1-0.3,2.1-0.6,3.2-0.8C89.8,58.3,91.1,58.2,92.4,57.9z"/>
			<path class="st4" d="M97.5,70.1c1-0.4,1.8-1.1,2.9-1.2c0.5,0.7,0.8,1.6,1.6,2.1c0.9,0.5,1.9,0.3,2.8-0.1c0.9-0.3,1.8-0.9,2.8-0.7
				c0.7,0.1,0.8,0.9,1,1.5c0.2,0.9,0.8,1.6,1.6,2.1c0.6,0.3,1.4,0.5,2,0.8c0.7,0.3,1.4,0.4,2.1,0.6c0.5,0.1,0.6,0.6,0.9,1
				c0.4,0.9,1.3,1.4,1.9,2.2c0.4,0.6,1,1,1.6,1.3c0.6,0.3,1,0.7,1.4,1.3c0.6,0.8,1.3,1.6,2.3,1.7l0.1,0c0.3,2.1,0.6,4.2,0.6,6.3
				c0,1.5,0.1,2.9,0.1,4.4c0,1.3,0.2,2.6,0.1,3.9c-0.1,0.5,0,0.9-0.1,1.4c-0.5,1-0.5,2.1-0.6,3.1c-0.2,1.3-0.5,2.5-0.7,3.8
				c-0.4,2-1,4-1.3,6.1c-0.6,1.1-0.7,2.4-1.3,3.6c-0.5,1-1,1.9-1.5,2.9c-0.5,0.9-1.1,1.8-1.7,2.7c-0.8,1.3-1.8,2.4-2.6,3.7
				c-0.5,0.8-0.9,1.7-1.6,2.4c-0.7-0.9-1.1-2-1.8-2.9c-0.9-1.2-1.9-2.3-2.9-3.4c-0.8-0.8-1.5-1.7-2.3-2.4c-1.1-0.9-2.2-1.8-3.4-2.7
				c-0.8-0.6-1.7-1-2.5-1.5c-1.2-0.6-2.5-0.9-3.8-1c-1.7-0.2-3.5,0.1-5.1,0.5c-1.2,0.3-2.4,0.7-3.4,1.5c-1.4,1-2.6,2.3-3.9,3.4
				c-1.4,1.3-2.5,2.9-3.7,4.3c-0.8,0.9-1.4,1.9-2.1,2.8c-1.2-0.4-1.7-1.5-2.6-2.3c-0.5-0.5-1-1.1-1.5-1.7c-0.6-0.7-1.3-1.3-1.7-2.2
				c-1.1-1.9-2-3.9-2.6-6c-0.3-1.1-0.7-2.1-1-3.2c-0.4-1.4-0.5-2.8-0.8-4.2c-0.1-0.5-0.2-0.9-0.3-1.4c0.1-1.7-0.1-3.5-0.4-5.1
				c-0.4-2-0.6-4-0.6-6c0-0.6-0.1-1.2,0-1.8c0.5-0.8,1-1.5,1.6-2.3c1.1-1.4,2.5-2.7,3.4-4.2c1-1.4,1.6-3.1,2.6-4.4
				c0.8-1,2.1-1.5,3.2-2.1c1-0.5,2-1,2.8-1.7c1.1-0.9,1.6-2.2,2.4-3.3c0.4-0.6,1-0.9,1.7-0.9c1.4,0.1,2.9,0.5,4.2,0
				c1.3-0.6,2.2-1.7,3.3-2.5c0.7-0.6,1.7-0.9,2.6-0.8c0.5,0.1,1,0.4,1.5,0.7C95.5,70.4,96.6,70.5,97.5,70.1z"/>
			<path class="st5" d="M125.1,97.8c0.7-0.3,1.5-0.4,2.3-0.5c0.8-0.1,1.7-0.1,2.4,0.2c1.4,0.5,2.7,1.5,3.2,2.9
				c1,2.6,0.9,5.4,0.9,8.1c-0.1,1.6-0.4,3.1-1,4.6c-0.6,1.9-1.4,3.6-2.4,5.3c-0.6,1-1.5,1.8-2.3,2.7c-0.8,0.9-1.8,1.6-2.7,2.4
				c-1,0.7-2,1.4-3.1,1.8c-1,0.4-2.1,0.8-3.1,1.1c-0.9,0.3-1.9,0.3-2.9,0.3c0.5-2.3,1.4-4.5,2-6.8c0.4-1.2,0.6-2.5,0.9-3.8
				c0.4-1.5,1.2-3,1.1-4.6c0.3-2.1,0.9-4.1,1.3-6.1c0.2-1.3,0.6-2.5,0.7-3.8c0.2-1,0.1-2.2,0.6-3.1
				C123.8,98.4,124.4,98.1,125.1,97.8z"/>
			<path class="st5" d="M59.8,99.3c1.2-0.3,2.4-0.5,3.6-0.3c0.6,0,1.1,0.3,1.6,0.5c0.3,0,0.5,0,0.8-0.1c0.3,1.7,0.5,3.4,0.4,5.1
				c-0.1,0.5-0.2,0.9-0.1,1.4c0.2,1.4,0.3,2.8,0.6,4.2c0.1,0.6,0.3,1.3,0.4,1.9c0.4,3,0.9,6.1,1.7,9c0.2,0.6,0.4,1.2,0.6,1.8
				c0.2,0.5,0.2,1.1,0.3,1.7c-1.1-0.1-2-0.6-3.1-0.8c-1.1-0.3-2.1-0.6-3.2-0.9c-1.4-0.4-2.6-1.2-3.9-1.8c-1.4-0.9-2.8-1.8-3.7-3.2
				c-1.2-2-2.3-4.1-2.8-6.4c-0.4-1.9-0.3-3.8,0.2-5.6c0.3-1.2,0.9-2.5,1.8-3.4c0.6-0.7,1.2-1.4,2-1.9C58,99.9,58.9,99.5,59.8,99.3z"
				/>
			<path class="st6" d="M66.1,105.9c-0.1-0.5,0-0.9,0.1-1.4c0.1,0.5,0.2,0.9,0.3,1.4c0.3,1.4,0.4,2.9,0.8,4.2c0.3,1.1,0.7,2.1,1,3.2
				c0.6,2.1,1.5,4.1,2.6,6c0.5,0.8,1.2,1.4,1.7,2.2c0.5,0.6,1,1.1,1.5,1.7c0.8,0.8,1.4,1.9,2.6,2.3c0.7-0.9,1.3-2,2.1-2.8
				c1.3-1.4,2.3-3,3.7-4.3c1.3-1.2,2.5-2.4,3.9-3.4c1-0.7,2.2-1.2,3.4-1.5c1.7-0.4,3.4-0.7,5.1-0.5c1.3,0.1,2.6,0.4,3.8,1
				c0.9,0.5,1.7,0.9,2.5,1.5c1.1,0.9,2.3,1.7,3.4,2.7c0.9,0.7,1.6,1.6,2.3,2.4c1,1.1,2,2.2,2.9,3.4c0.7,0.9,1.1,2,1.8,2.9
				c0.7-0.7,1-1.6,1.6-2.4c0.8-1.3,1.8-2.4,2.6-3.7c0.6-0.9,1.1-1.8,1.7-2.7c0.4-0.4,0.8-0.7,1-1.1c0.2-0.4,0.4-0.8,0.6-1.2
				c0,0.1,0,0.3,0.1,0.4c-0.3,1.3-0.5,2.5-0.9,3.8c-0.6,2.3-1.5,4.5-2,6.8c-0.3,1.3-0.6,2.6-1,3.9c-0.5,0.8-0.8,1.7-1.3,2.4
				c-0.7,1.2-1.5,2.2-2.3,3.4c-0.6,0.9-1.2,1.9-1.9,2.7c-0.7,0.9-1.6,1.6-2.4,2.4c-1,0.9-2.2,1.5-3.4,2c-1.8,0.8-3.7,1.3-5.6,1.7
				c-1.5,0.2-3.1,0.4-4.6,0.3c-1.6-0.1-3.2-0.5-4.8-1c-1.1-0.4-2.2-0.6-3.2-1c-1.8-0.9-3.5-1.8-5-3c-1.1-1-2.2-1.9-3.2-3
				c-0.9-1-1.7-2-2.6-3.1c-1.3-2-2.4-4.1-3.4-6.3c-0.3-0.7-0.9-1.3-1.2-2c-0.2-0.5-0.4-0.9-0.6-1.4c0,0,0-0.1-0.1-0.2
				c-0.1-0.6-0.1-1.1-0.3-1.7c-0.2-0.6-0.4-1.2-0.6-1.8c-0.8-3-1.3-6-1.7-9c-0.1-0.7-0.3-1.3-0.4-1.9
				C66.4,108.7,66.3,107.3,66.1,105.9z"/>
			<path class="st4" d="M91.8,119.5c1-0.2,2-0.1,3-0.1c1.2,0,2.4-0.1,3.6,0.2c1,0.2,2,0.4,3,0.6c0.9,0.2,1.8,0.8,2.6,1.2
				c0.9,0.4,1.6,1.1,2.3,1.7c0.7,0.5,0.9,1.4,1.1,2.2c0.3,1,0.3,2.1,0.3,3.1c0,1-0.1,2-0.5,2.9c-0.8,2.1-2.2,4-4,5.5
				c-0.8,0.8-1.9,1.3-2.9,1.7c-1.5,0.6-3.1,0.7-4.7,0.9c-3.1,0.2-6.3-0.1-9.2-1.3c-2.2-0.9-4.4-2.2-5.8-4.1c-0.8-1-1.2-2.2-1.5-3.4
				c-0.4-1.1-0.6-2.2-0.7-3.3c0-0.5-0.1-1.2,0.4-1.6c1.3-1.2,2.4-2.6,3.9-3.6c1.2-1,2.7-1.6,4.2-1.9
				C88.5,119.9,90.1,119.8,91.8,119.5z"/>
			<path class="st3" d="M69.8,124.7c0.2,0.5,0.4,0.9,0.6,1.4c0.3,0.7,0.9,1.3,1.2,2c1,2.2,2.1,4.3,3.4,6.3c0.8,1.1,1.7,2.1,2.6,3.1
				c1,1.1,2.1,2,3.2,3c1.5,1.2,3.3,2.2,5,3c1,0.4,2.2,0.7,3.2,1c1.6,0.5,3.2,0.9,4.8,1c1.5,0.1,3.1-0.1,4.6-0.3
				c1.9-0.3,3.8-0.9,5.6-1.7c1.2-0.6,2.4-1.2,3.4-2c0.8-0.8,1.7-1.5,2.4-2.4c0.7-0.9,1.3-1.8,1.9-2.7c0.7-1.2,1.6-2.2,2.3-3.4
				c0.5-0.8,0.8-1.7,1.3-2.4c0,1.1-0.3,2.1-0.4,3.2c-0.1,0.6,0,1.2-0.2,1.7c-1.2,2-2.3,4-3.5,5.9c-1.4,2-2.9,4.1-4.4,6
				c-0.8,1-1.6,2-2.6,2.8c-0.8,0.6-1.6,1.3-2.5,1.8c-1.1,0.6-2.2,1.4-3.4,1.9c-0.4,0.2-0.9,0.4-1.3,0.2c-0.8-0.3-1.7-0.1-2.5,0.2
				c-0.9,0.4-1.7,1-2.3,1.7c-0.7,0.8-1.4,1.6-1.8,2.6c-0.2,0.4-0.3,1-0.8,1.2c-0.9,0.4-2,0.5-3,0.7c-2.6,0.4-5.2,0.1-7.7-0.8
				c-1.8-0.8-3.6-1.6-5.2-2.6c-1.6-1.1-2.9-2.5-3.9-4.1c-0.2-0.3-0.3-0.6-0.4-0.9c0.5-1.4,0.9-2.8,1.1-4.3c0.3-2,0.2-4,0.2-6
				c-0.1-2.5-0.2-5.1-0.4-7.6c-0.2-2.5-0.4-5-0.5-7.5C69.9,126,69.7,125.4,69.8,124.7z"/>
			<path class="st4" d="M111.3,141.6c1.3-1.9,2.3-4,3.5-5.9c-0.1,3.4-0.7,6.7-0.5,10.1c0,1.5,0.1,3,0.3,4.6c0.1,3.2,0.7,6.3,1.3,9.4
				c0.4,2.2,0.9,4.3,1.9,6.3c1.1,2.3,2.2,4.6,4,6.4c2.5,2.4,5.3,4.5,7.9,6.7c0.4,0.3,0.9,0.6,1.1,1.2c0.3,0.7-0.2,1.5-0.4,2.2
				c-0.9,2.2-2.1,4.2-3.3,6.2c-1.4,2.2-2.8,4.4-4.4,6.4c-1.1,1.3-2.2,2.7-3.4,3.9c-1.1,1.1-2.3,2.1-3.5,3.2
				c-0.8,0.8-1.7,1.4-2.6,2.1c-1.7,1.3-3.7,2.4-5.5,3.5c-3.7,2-7.8,3-12,3.4c-1.4,0.1-2.8,0.3-4.2,0.3c-1.7,0-3.4-0.2-5-0.5
				c-1.3-0.2-2.5-0.6-3.8-1c-1.2-0.4-2.5-0.7-3.7-1.2c-2.3-0.9-4.7-1.8-6.8-3c-2.9-1.7-5.4-4-8.1-6c-2.1-1.7-4.1-3.6-6-5.5
				c-1.5-1.5-2.8-3.1-4.1-4.8c-1.5-1.9-2.7-3.9-3.9-6c-0.4-0.8-0.9-1.6-1.2-2.4c-0.3-0.8-0.6-1.6-1-2.3c-0.2-0.3,0-0.7,0.2-0.9
				c0.5-0.5,1.2-0.9,1.8-1.3c0.8-0.6,1.6-1.2,2.3-1.8c1.2-0.9,2.2-2.1,3.3-3.1c0.8-0.7,1.5-1.5,2.2-2.2c3.3-3.2,6.4-6.7,8.7-10.7
				c1.4-2.1,2.5-4.4,3.2-6.7c0.1,0.3,0.2,0.6,0.4,0.9c1.1,1.6,2.3,3.1,3.9,4.1c1.6,1.1,3.4,1.9,5.2,2.6c2.4,1,5.1,1.2,7.7,0.8
				c1-0.1,2-0.3,3-0.7c0.5-0.2,0.6-0.8,0.8-1.2c0.4-1,1.1-1.8,1.8-2.6c0.6-0.7,1.4-1.3,2.3-1.7c0.8-0.3,1.7-0.5,2.5-0.2
				c0.4,0.2,0.9,0,1.3-0.2c1.2-0.5,2.2-1.3,3.4-1.9c0.9-0.5,1.7-1.2,2.5-1.8c1-0.8,1.7-1.9,2.6-2.8
				C108.4,145.7,109.9,143.7,111.3,141.6z"/>
		</g>
		<g>
			<path class="st7" d="M119.2,115.2c0.6-1.1,0.7-2.4,1.3-3.6c0,1.6-0.8,3-1.1,4.6c0-0.1,0-0.3-0.1-0.4c-0.2,0.4-0.4,0.8-0.6,1.2
				c-0.2,0.5-0.7,0.8-1,1.1C118.1,117.1,118.7,116.1,119.2,115.2z"/>
			<path class="st8" d="M99.6,89.3c0-1.5,0.7-2.9,1.6-4c0.5,0.3,0.2,0.9,0.2,1.3c0.4-0.3,0.8-0.6,1.2-0.9c0.2,0.2,0.4,0.4,0.6,0.6
				c0.1,0,0.2-0.1,0.3-0.1c0.5-0.3,1.1-0.5,1.7-0.7c0,0.2,0.1,0.3,0.1,0.5c2.2-0.6,4.5-0.3,6.6,0.4c1.6,0.6,3.3,1.3,4.5,2.5
				c0.8,0.7,1.4,1.5,2,2.4c0.2,0.3,0.6,0.8,0.2,1c-0.9,0.4-1.9,0.3-2.9,0.2c-2-0.1-4-0.5-5.9-1.1c-3-1-6-1.8-9.1-2
				C100.2,89.4,99.9,89.4,99.6,89.3z"/>
			<path class="st9" d="M102.6,85.7c0.3-0.2,0.6-0.3,0.9-0.4c0,0.3,0,0.6-0.1,0.8c-0.1,0-0.2,0.1-0.3,0.1
				C103,86.1,102.8,85.9,102.6,85.7z"/>
			<path class="st8" d="M78.5,86.1c1.2-0.3,2.4-0.4,3.6-0.4c1.7,0,3.4-0.1,5.1,0.5c0.5,0.2,0.8,0.7,1,1.1c0.2-0.1,0.4-0.2,0.6-0.3
				c0.2,0.6,0.3,1.3,0.2,1.9c-1,0.5-2.1,0.6-3.2,0.8c-2.8,0.5-5.6,0.9-8.4,1.5c-1.2,0.2-2.3,0.5-3.5,0.8c-0.9,0.3-1.9,0.5-2.8,0.9
				c-0.3,0.1-0.7,0.4-0.9,0c-0.4-0.9-0.5-2.1,0-3c0.7-1.3,2-2.1,3.3-2.6C75.3,86.9,76.9,86.5,78.5,86.1z"/>
			<path class="st7" d="M78.3,92.9c1-0.3,2-0.5,3-0.5c0.5,0,1-0.1,1.5,0.1c0,0.1,0.1,0.2,0.1,0.2c-0.5,0.2-1,0.1-1.5,0.2
				c-1.1,0.2-2.2,0.4-3.2,0.8c-0.4,0.1-0.7,0.2-1.1,0.3c0-0.1,0-0.3,0-0.4C77.4,93.3,77.8,93,78.3,92.9z"/>
			<path class="st7" d="M105.5,93.5c0.6-0.3,1.4-0.4,2.1-0.4c0.8-0.1,1.7-0.1,2.5,0.1c0.2,0,0.4,0.2,0.6,0.3c-1,0.1-2,0-3,0.1
				c-0.9,0.1-1.7,0.4-2.6,0.4C105.2,93.8,105.3,93.6,105.5,93.5z"/>
			<path class="st10" d="M79.2,94.1c0.4-0.1,0.8,0.2,1,0.5c0.3,0.6,0.3,1.4,0.1,2.1c-0.1,0.4-0.3,0.9-0.7,1.1
				c-0.4,0.2-0.8-0.1-1-0.4c-0.4-0.8-0.3-1.7-0.1-2.5C78.6,94.6,78.8,94.2,79.2,94.1z"/>
			<path class="st10" d="M108.8,94.6c0.5,0,0.8,0.4,0.9,0.9c0.1,0.6,0,1.3-0.3,1.8c-0.2,0.4-0.7,0.6-1.1,0.5
				c-0.3-0.1-0.5-0.4-0.6-0.7c-0.1-0.6,0-1.3,0.3-1.9C108.1,94.9,108.4,94.6,108.8,94.6z"/>
			<path class="st7" d="M77,98.9c1.7-0.2,3.3-0.1,5-0.4c0,0.1,0,0.3,0,0.4c-1,0.3-2.1,0.5-3.2,0.6c-0.5,0-1,0-1.4-0.1
				C77.1,99.3,77.1,99.1,77,98.9z"/>
			<path class="st11" d="M92.2,98.7c0.1,0,0.3,0,0.3,0c0.1,0.9-0.2,1.8-0.4,2.6c-0.5,1.6-0.9,3.2-1.3,4.8c-0.1,0-0.2,0.1-0.3,0.1
				c0.1-1.2,0.4-2.4,0.6-3.6C91.5,101.3,91.7,100,92.2,98.7z"/>
			<path class="st7" d="M105.6,98.7c0.4,0,0.8,0,1.3,0c1.4,0.1,2.9,0.1,4.4,0.1c0,0.1,0,0.2,0,0.3c-1.4,0.3-2.7,0.3-4.1,0.2
				c-0.4,0-0.9,0-1.3-0.2C105.6,99.1,105.6,98.9,105.6,98.7z"/>
			<path class="st5" d="M111.1,103.1c1.3,0,2.7,0.1,3.9,0.8c1.3,0.8,2.1,2.3,2.3,3.8c0.1,1.6-0.3,3.2-1,4.6c-0.8,1.5-2,2.9-3.6,3.6
				c-1.4,0.6-3,0.5-4.5,0.1c-1.3-0.4-2.3-1.5-3-2.7c-1.7-2.9-0.7-7,2.2-8.8c0.5-0.2,1-0.4,1.5-0.7
				C109.4,103.4,110.2,103.2,111.1,103.1z"/>
			<path class="st5" d="M77.8,104.5c0.9-0.1,1.7-0.1,2.6,0.1c1.4,0.2,2.7,1,3.6,2.1c1,1.5,1.3,3.4,1,5.1c-0.2,1.4-0.9,2.7-1.9,3.7
				c-1.4,1.5-3.6,2.3-5.6,2.2c-1.9-0.3-3.6-1.4-4.7-2.9c-0.9-1.4-1.2-3.1-0.9-4.8c0.3-1.6,1.2-3,2.4-4
				C75.4,105.2,76.6,104.7,77.8,104.5z"/>
			<path class="st12" d="M61.5,105c0.2-0.1,0.5-0.1,0.7-0.1c0,0.6-0.6,0.9-0.8,1.5c-0.5,1.5-0.3,3.1,0.1,4.6c0.4,1.5,1,2.9,1.9,4.1
				c0.2,0.3,0.3,0.5,0.5,0.8c-0.3-0.1-0.5-0.2-0.7-0.5c-1.1-1.4-1.9-3-2.4-4.6c-0.4-1.3-0.7-2.8-0.3-4.1
				C60.7,106.1,60.9,105.4,61.5,105z"/>
			<path class="st13" d="M93.5,109.7c0.1-0.9,1.3-1.1,2-0.9c0,0.6-0.6,0.8-1.1,0.9C94.1,109.8,93.8,109.7,93.5,109.7z"/>
			<path class="st7" d="M94.7,110.7c0.6-0.2,1.3-0.3,1.9-0.3c-0.1,0.6-0.6,1.2-1,1.7c-0.6,0.8-1.3,1.6-1.9,2.4
				c-0.6,0.6-1.1,1.3-1.9,1.7c-0.6,0.2-1.2-0.4-1.2-1c-0.2-1.4,0.1-2.7,0.2-4.1c0.6-0.1,1.2-0.1,1.7-0.1
				C93.4,111.1,94.1,111,94.7,110.7z"/>
			<path class="st7" d="M97.3,108.7c-0.3,0.3-0.4,0.7-0.6,1c-0.3,0.3-0.8,0.5-1.2,0.5c-1.2,0-2.3,0.3-3.4,0.4
				c-1.1,0.1-2.4,0.2-3.4-0.4c-0.2-0.5-0.1-1.1,0-1.7c0.2-1,0.5-2,0.8-3c0.8-2.6,1.4-5.3,1.8-8c0.3-1.9,0.3-3.8-0.1-5.6
				c-0.2-1.1-0.8-2.3-1.9-2.8c0.4,0.7,1.1,1.3,1.3,2.1c0.4,1.5,0.6,3,0.5,4.6c-0.2,1.9-0.5,3.7-0.9,5.5c-0.5,2.4-1.3,4.8-1.9,7.2
				c-0.1,0.7-0.4,1.6,0.2,2.1c0.7,0.5,1.7,0.5,2.5,0.5c0.6-0.1,1.2-0.1,1.7-0.1c0.7,0.1,1.4,0,2.1-0.3c0.6-0.2,1.3-0.3,1.9-0.3
				C97.2,110,97.6,109.3,97.3,108.7z"/>
			<path class="st12" d="M126.9,103.9c-0.5-0.5-1.2-0.8-1.9-0.7c0.4,0.4,1,0.7,1.4,1.2c0.8,1,1.3,2.3,1.2,3.5
				c-0.1,1.5-0.7,2.9-1.4,4.2c-0.6,1-1.2,2-1.9,2.9c-0.5,0.5-1.1,1-1.5,1.6c0.8-0.2,1.3-0.8,1.8-1.4c1.5-2,3-4.1,3.5-6.6
				C128.5,107,128.1,105.1,126.9,103.9z"/>
			<path class="st12" d="M90,122.6c1-0.1,1.9-0.4,2.9-0.4c2.1-0.2,4.3,0,6.4,0.4c1.1,0.2,2.3,0.1,3.3,0.6c-3.2,0.5-6.5,0.2-9.8,0.3
				c-1.5-0.1-3,0.1-4.5,0.3c-1.2,0.1-2.4,0.2-3.5,0.5c-0.5,0.1-1.1,0.1-1.6,0.1c0.4-0.3,0.9-0.4,1.4-0.5c0.9-0.3,1.8-0.6,2.8-0.9
				C88.2,122.7,89.1,122.7,90,122.6z"/>
			<path class="st3" d="M87,126.6c1.6-0.7,3.3-0.9,5-1c1.6,0,3.2,0.2,4.7,0.7c0,0.7-0.5,1.3-0.9,1.8c-0.4,0.6-1,1.2-1.8,1.4
				c-1.3,0.1-2.5,0.1-3.8,0.3c-0.6,0-1.1,0.2-1.7,0.1c-0.3-0.2-0.5-0.6-0.7-0.9C87.4,128.2,87,127.5,87,126.6z"/>
			<path class="st14" d="M76.2,32.7c1.3-0.9,3-0.9,4.5-0.6c1.1,0.2,2.3,0.7,2.9,1.8c0.2,0.2,0.2,0.5,0.2,0.7c-0.1,0-0.2,0-0.3,0
				c-0.3-0.6-0.8-1.2-1.5-1.5c-1.2-0.5-2.6-0.6-3.9-0.5c-0.7,0.1-1.3,0.3-2,0.5C76.2,33.1,76.2,32.9,76.2,32.7z M103.4,36.1
				c-0.3,0.2-0.2,0.6-0.2,1c0.1,0,0.2,0,0.3,0c0.1-0.2,0.2-0.5,0.4-0.6c0.7-0.4,1.5-0.5,2.3-0.6c1.3-0.1,2.7-0.1,4,0.4
				c0.5,0.2,0.9,0.5,1.3,0.6c0-0.5-0.5-0.7-0.9-1c-1.4-0.7-3-0.8-4.5-0.7C105.2,35.2,104.1,35.3,103.4,36.1z M62.3,36.5
				c-1.1,1-1.6,2.5-1.8,3.9c-0.3,1.6-0.4,3.3,0.2,4.8c0.1,0.1,0.1,0.2,0.2,0.3c0-0.2,0-0.4,0-0.6c-0.4-2.2-0.1-4.6,0.8-6.6
				c0.3-0.7,0.7-1.3,1.3-1.8c0.3-0.2,0.6-0.2,0.9-0.3c-0.1-0.1-0.2-0.2-0.4-0.3C63.1,35.8,62.6,36.1,62.3,36.5z M87.6,37.4
				c0,0.2,0,0.3,0,0.5c1.6-0.4,3.3-0.6,4.9-0.1c0.6,0.2,1.1,0.7,1.4,1.3c0.1,0,0.2,0,0.3,0c-0.3-1.3-1.6-1.9-2.8-2.1
				C90.1,36.8,88.7,36.7,87.6,37.4z M73,37.9c-1,0.2-2,0.6-2.6,1.4c-0.5,0.6-1,1.5-0.6,2.3c0.3-1.3,1.3-2.4,2.5-2.8
				c1.3-0.5,2.7-0.7,4.1-0.4c0.5,0.1,1,0.5,1.5,0.6c0-0.4-0.4-0.5-0.6-0.7C76,37.6,74.4,37.6,73,37.9z M81.9,42.2
				c-0.8,0.4-1.5,1-1.8,1.8c-0.1,0.4,0.1,0.7,0.4,0.9c0.1-0.3,0.1-0.8,0.4-1c0.5-0.6,1.3-1.1,2.1-1.3c0.6-0.2,1.3-0.4,2-0.3
				c0.5,0,0.9,0.4,1.4,0.5c0-0.1,0-0.3,0-0.4c-0.4-0.3-0.8-0.5-1.2-0.6C84,41.5,82.8,41.8,81.9,42.2z M64.9,42.2c-0.2,1,0,2,0,3
				c0,1.2,0,2.3-0.4,3.5c-0.1,0.5-0.4,0.9-0.6,1.4c0.2-0.1,0.4-0.3,0.5-0.5c0.4-0.7,0.6-1.5,0.8-2.3c0.2-1.2,0.2-2.4,0.1-3.6
				c-0.1-0.5-0.1-1-0.1-1.5C65.2,42.2,65,42.2,64.9,42.2z M99.5,43.7c-0.4,0.2-0.9,0.5-0.9,1c0.2,0.4,0.4,0,0.7-0.1
				c1.1-0.7,2.4-0.8,3.6-0.9c0.6,0,1.1,0.2,1.6,0.3c0-0.1,0-0.3-0.1-0.4c-0.5-0.3-1-0.4-1.5-0.4C101.7,43.1,100.5,43.3,99.5,43.7z
				 M109.6,44.1c-0.2,0.1-0.4,0.2-0.5,0.4c0.2,0.4,0.7,0.1,1.1,0.2c1.3,0.2,2.5,0.8,3.4,1.8c0.4,0.5,0.6,1.1,0.9,1.6
				c0.1-0.2,0.2-0.4,0.1-0.6c-0.3-1.3-1.4-2.2-2.5-2.8C111.4,44.2,110.5,43.9,109.6,44.1z M60.8,45c0,0.2,0,0.4,0,0.6
				c-0.1-0.1-0.2-0.2-0.2-0.3c0.1,0.4,0.3,0.8,0.5,1.2C61.4,45.9,61.1,45.5,60.8,45z M88,48.1c-0.2,0.3-0.1,0.6,0,0.9
				c0.2,0,0.3,0,0.5,0c0-0.3,0.1-0.6,0.3-0.7c0.9-0.6,2-0.8,3-0.7c0.9,0,1.8,0.5,2.4,1.2c0.1-0.1,0.3-0.2,0.4-0.2
				c-0.8-1.3-2.4-1.8-3.9-1.7C89.7,47,88.6,47.2,88,48.1z M117.4,47.8c-0.1,0.4,0.3,0.7,0.5,1c0.5,0.9,0.8,1.8,0.8,2.8
				c0.1,0.5-0.2,1-0.3,1.4c0.1,0,0.3,0,0.4,0c0.7-1,0.5-2.3,0.3-3.4c-0.2-0.7-0.4-1.4-0.9-1.8C117.9,47.8,117.6,47.9,117.4,47.8z
				 M69.5,49.5c-0.2,1.3-0.4,2.5-0.7,3.8c0.1,0,0.2,0,0.3,0c0.2-0.4,0.3-0.8,0.4-1.3c0.3-1.3,0.6-2.5,0.7-3.8
				c-0.1-0.1-0.2-0.2-0.3-0.3C69.6,48.4,69.6,49,69.5,49.5z M77,51.8c-0.8,1.4-1.8,2.7-2.7,4c-0.2,0.3-0.5,0.5-0.7,0.8
				c0,0.1,0.1,0.2,0.1,0.2c0.6-0.2,1-0.6,1.3-1.1c1.2-1.5,2.2-3.2,3.1-5c0.1-0.2,0.1-0.4,0.1-0.6C77.7,50.6,77.4,51.2,77,51.8z
				 M97.7,52.9c-0.3,0.2-0.4,0.5-0.3,0.8c0.8-0.6,1.8-0.9,2.8-1c1-0.2,2,0,2.8,0.6c0-0.1,0-0.2,0.1-0.4c-0.7-0.7-1.8-0.8-2.7-0.8
				C99.4,52.2,98.4,52.3,97.7,52.9z M81.9,54.7c-0.4,0.5-0.9,1-0.8,1.7c0.4-0.3,0.6-0.8,1-1.1c0.7-0.7,1.5-1.4,2.4-1.8
				c0.6-0.3,1.2-0.5,1.8-0.7c0-0.1,0-0.2,0-0.3C84.6,52.7,83,53.5,81.9,54.7z M108.7,53.4c-0.3,0-0.3,0.3-0.3,0.6
				c1.1,0.2,1.9,1,2.4,1.9c0.4,0.6,0.4,1.3,0.5,1.9c0.1,0,0.3,0,0.4,0c0.2-1.3-0.3-2.5-1.2-3.5C110.1,53.8,109.4,53.3,108.7,53.4z
				 M62.1,55.8c-1.5,0.6-3.1,1-4.7,0.6c-0.5-0.1-1-0.2-1.4-0.1c-0.3,0-0.4,0.3-0.4,0.5c0.4,0,0.8-0.1,1.2,0c0.8,0.2,1.6,0.5,2.5,0.4
				c1.9-0.2,3.8-1,5.1-2.5c-0.1,0-0.2-0.1-0.3-0.2C63.4,54.9,62.8,55.5,62.1,55.8z M89.6,56.2c-0.7,0.4-1.6,0.6-2.3,1
				c0.1,0,0.3,0.1,0.4,0.2c0.8-0.1,1.5-0.5,2.2-0.9c0.5-0.3,1-0.7,1.2-1.3C90.6,55.5,90.2,55.9,89.6,56.2z M122,57.8
				c-0.6,0.8-0.5,2,0.1,2.8c0.7,1.1,1.8,1.7,3,2c0.1-0.1,0.2-0.3,0.3-0.3c-0.6-0.3-1.3-0.5-1.9-1c-0.6-0.5-1.1-1.3-1.2-2.1
				c0-0.6,0.4-0.9,0.5-1.5C122.5,57.5,122.1,57.4,122,57.8z M66.3,60.4c-0.9,0.5-1.9,0.9-2.9,1.1c-0.6,0.1-1.3-0.1-1.9-0.1
				c0,0.5,0.6,0.6,1,0.7c1.2,0.2,2.3-0.4,3.4-0.9c0.9-0.4,1.7-1,2.3-1.7c0.2-0.2,0.1-0.4,0.2-0.6C67.7,59.4,67,60,66.3,60.4z
				 M76.2,59.3c-0.8,1.4-2.1,2.6-3.6,3.3c-0.6,0.3-1.3,0.4-2,0.4c0,0.1,0,0.2,0,0.4c0.8,0.2,1.7,0.2,2.4-0.2
				c1.5-0.9,2.9-2.1,3.6-3.8C76.5,59.3,76.4,59.3,76.2,59.3z M50.1,59.6c0.1,0.1,0.2,0.2,0.2,0.3c0.2-0.1,0.3-0.2,0.4-0.5
				C50.5,59.5,50.3,59.6,50.1,59.6z M48.1,60.3c-1.4,0.6-2.7,1.4-3.9,2.4c-0.8,0.7-1.4,1.6-1.6,2.7c-0.1,0.7-0.2,1.5,0.2,2.2
				c0.3-0.7,0.1-1.5,0.3-2.2c0.4-1.6,1.7-2.7,3-3.5c1.2-0.9,2.7-1.5,4.2-1.9c-0.1-0.1-0.2-0.2-0.2-0.3C49.5,59.9,48.8,60,48.1,60.3z
				 M136.9,60c0,0.2,0,0.3,0,0.5c1.2,0.3,2.5,0.5,3.5,1.4c0.8,0.8,1.5,1.8,1.5,2.9c0,0.5-0.3,1-0.5,1.4c0.1,0,0.3,0,0.4,0
				c0.3-0.5,0.6-1,0.6-1.6c0-1.5-0.9-3-2.1-3.9C139.3,60.1,138.1,59.8,136.9,60z M116.7,62.2c0.4,1.2,0.9,2.3,1.7,3.2
				c0.4,0.5,0.8,0.9,1.4,1.2c0-0.3-0.2-0.5-0.4-0.6c-0.7-0.7-1.3-1.6-1.7-2.5c-0.4-1-0.8-2-0.6-3.1c-0.1,0-0.3,0-0.4,0
				C116.4,60.9,116.5,61.6,116.7,62.2z M128.6,60.8c0.3,0.2,0.6,0.5,0.8,0.7c0.6,0.6,1.3,1,2,1.4c1,0.5,2.1,0.9,3.3,1
				c0.3,0,0.7,0,1-0.1c0-0.1,0-0.2,0-0.3c-0.5,0-1,0-1.4-0.1c-1.3-0.4-2.7-0.9-3.8-1.7c-0.5-0.3-0.9-0.8-1.4-1.1
				C128.9,60.4,128.8,60.6,128.6,60.8z M50.5,65.7c-0.4,0.4-0.7,0.8-0.8,1.4c0.1,0,0.2,0,0.3,0c0.2-0.3,0.3-0.6,0.6-0.8
				c1.3-1.3,2.9-2,4.5-2.7c0-0.1-0.1-0.2-0.1-0.3C53.4,63.9,51.8,64.6,50.5,65.7z M64.6,68.5c-1.1,1.2-1.5,2.7-2.1,4.2
				c-0.6,1.8-1.1,3.7-0.5,5.5c0.1,0,0.3,0,0.4,0c-0.5-1.6,0-3.2,0.5-4.8c0.6-1.7,1.3-3.4,2.5-4.7c0.3-0.4,0.8-0.5,1.2-0.5
				c-0.1-0.2-0.2-0.5-0.4-0.5C65.6,67.6,65,68.1,64.6,68.5z M131.1,68.1c-0.4,1.2-0.7,2.4-0.8,3.6c-0.1,0.9,0.1,1.7,0.6,2.5
				c0.1,0,0.3,0,0.4,0c-0.2-0.6-0.5-1.2-0.4-1.8c0-1.2,0.5-2.4,0.9-3.6c0.1-0.3,0.2-0.7-0.1-0.9C131.3,67.8,131.1,67.9,131.1,68.1z
				 M124.1,69.6c-0.8,0.8-1.1,2.1-1.1,3.2c0,1.2,0.3,2.5,1.2,3.4c0.3,0.3,0.6,0.6,1.1,0.6c0-0.2,0-0.4-0.2-0.5
				c-0.4-0.4-0.7-0.7-0.9-1.2c-0.6-1.5-0.4-3.1,0.3-4.5c0.1-0.4,0.7-0.6,0.6-1.1C124.6,69.4,124.3,69.3,124.1,69.6z M136,70.9
				c-0.4,1.2-0.5,2.5-0.1,3.7c0.2,0.4,0.4,0.9,0.9,0.9c-0.2-0.5-0.5-1-0.5-1.6c-0.1-1.3,0.2-2.8,1.1-3.8c0-0.1,0.1-0.2,0.1-0.4
				C136.6,69.5,136.2,70.3,136,70.9z M141.6,70.4c0,0.6,0.2,1.2,0.2,1.8c0,1.2-0.5,2.5-1.4,3.4c-0.3,0.3-0.7,0.5-0.8,1
				c0.5,0.1,0.8-0.3,1.2-0.6c1.2-1,1.8-2.6,1.8-4.1c0-0.5,0-1.1-0.3-1.6C142.1,69.9,141.6,70,141.6,70.4z M54.2,73.4
				c-0.5,0.5-1,1.3-0.8,2.1c0.1,0,0.2,0,0.4,0c0.1-0.4,0.2-0.8,0.5-1.1c0.6-0.8,1.4-1.4,2.2-1.9c0.6-0.4,1.3-0.5,2-0.8
				c-0.1-0.1-0.2-0.1-0.3-0.2C56.6,71.6,55.3,72.4,54.2,73.4z M44.6,73.7c-0.7,0.6-1.3,1.4-1.7,2.2c-0.2,0.5-0.1,1-0.1,1.5
				c0.1,0,0.2,0,0.2,0.1c0.1-0.6,0.2-1.3,0.6-1.8c0.7-1,1.6-1.9,2.6-2.6c0.6-0.4,1.3-0.7,1.9-1c0-0.1,0-0.3,0-0.4
				C46.8,72.1,45.6,72.7,44.6,73.7z M56.2,78.5c-1,1-1.5,2.3-1.9,3.6c-0.5,1.7-0.6,3.6,0,5.3c0.1-0.1,0.3-0.2,0.2-0.4
				c-0.1-0.8-0.3-1.5-0.2-2.3c0.1-0.8,0.2-1.6,0.4-2.3c0.3-1.1,0.7-2.2,1.4-3.2c0.3-0.4,0.7-0.7,0.9-1.1
				C56.8,78.2,56.5,78.3,56.2,78.5z M45.8,80.7c-0.4,1.2,0.1,2.4,0.5,3.6c0.5,1.1,1,2.1,2,2.9c-0.2-0.6-0.7-1.1-1-1.7
				c-0.6-1.1-1-2.2-1.1-3.4c0-1.4,0.6-2.7,1.3-3.8C46.5,78.7,46.1,79.8,45.8,80.7z M132,80.1c-0.8,0.5-1.2,1.5-1.1,2.4
				c0.1,1.8,1.1,3.4,2.5,4.5c0-0.4-0.3-0.7-0.5-1c-0.8-1-1.3-2.2-1.3-3.5c-0.1-0.9,0.4-1.9,1.2-2.4c0-0.1,0-0.2,0-0.3
				C132.5,80,132.2,79.9,132,80.1z M124.3,84.2c0,1,0.5,1.8,1,2.6c0.7,0.9,1.7,1.7,2.8,1.7c0.1-0.2,0-0.4-0.2-0.4
				c-0.6-0.2-1.2-0.5-1.6-0.9c-0.6-0.7-1.2-1.6-1.3-2.6c-0.1-0.5,0.2-0.9,0.1-1.4C124.6,83,124.3,83.7,124.3,84.2z M135.9,83.9
				c-0.4,1-0.2,2.2,0.2,3.1c0.5,1.1,1.3,2.2,2.6,2.6c0-0.1,0-0.3,0-0.4c-0.4-0.3-0.8-0.6-1.1-1c-0.7-0.8-1-1.9-1.1-2.9
				c-0.1-0.6,0.1-1.1,0-1.7C136.3,83.6,136,83.6,135.9,83.9z M61.1,85.2c-0.7,0.8-1.1,1.8-1.4,2.7c-0.4,1.2-0.8,2.5-0.9,3.7
				c0,0.6,0,1.3,0.5,1.7c0.1-0.6-0.1-1.2,0-1.8c0.2-1.5,0.7-3,1.3-4.4c0.3-0.8,0.7-1.4,1.1-2.2C61.4,85,61.2,85,61.1,85.2z
				 M49.1,91.2c0,0.1,0,0.3,0,0.4c0.3,0.2,0.6,0.5,0.7,0.8c0.2,0.5,0.3,1.1,0.3,1.7c0,1.2-0.2,2.4-0.6,3.6c-0.2,0.6-0.6,1.2-0.9,1.7
				c0.1,0,0.2,0,0.3,0c1.1-1.3,1.6-3,1.8-4.7c0.1-1,0.2-2.1-0.4-2.9C50,91.5,49.5,91.3,49.1,91.2z M128.3,92.9
				c0,0.6,0.5,1.1,0.9,1.5c1.1,1,2.4,1.4,3.8,1.7c0-0.1,0-0.3,0-0.4c-1.3-0.4-2.7-0.9-3.6-2c-0.3-0.3-0.5-0.7-0.4-1.1
				c0.1-0.5,0.5-0.8,0.8-1.1C128.8,91.3,128.3,92.1,128.3,92.9z M141.6,93.3c0,0.2,0,0.3,0,0.5c0.5,0.1,0.9,0.4,1.2,0.8
				c0.8,1.1,1.4,2.4,1.5,3.8c0,0.5-0.2,1-0.3,1.5c0.1,0,0.3,0,0.5,0c0.2-0.4,0.4-0.9,0.4-1.4c0.1-1.5-0.5-3-1.4-4.2
				C143,93.7,142.4,93.2,141.6,93.3z M40.4,94.9c-1.5,1.2-2.3,3.2-2.2,5.1c-0.1,1.3,0.6,2.6,1.6,3.5c0-0.2,0-0.4-0.2-0.6
				c-0.6-0.7-0.9-1.7-1-2.6c-0.1-1.5,0.5-3.1,1.4-4.3c0.4-0.5,0.9-0.9,1.4-1.4c0.2-0.1,0.2-0.3,0.2-0.5
				C41.2,94.2,40.8,94.6,40.4,94.9z M135.6,94.7c0,0.2,0,0.5,0.2,0.6c0.6,0.6,1.2,1.2,1.6,1.9c0.6,0.9,1.1,2,1.1,3.1
				c0,0.2,0.2,0.4,0.3,0.5c0.3-0.4,0.2-0.9,0.1-1.4c-0.2-1.4-0.9-2.7-1.8-3.8C136.8,95.1,136.3,94.6,135.6,94.7z M31.5,98.1
				c-0.2,1.5-0.1,3.1,0.5,4.6c0.3,0.6,0.7,1.4,1.4,1.6c-0.3-0.5-0.7-0.9-0.9-1.4c-0.4-0.8-0.5-1.7-0.6-2.6c0-1.4,0.1-2.9,0.9-4.1
				c0.2-0.4,0.7-0.6,1-0.8c-0.1-0.1-0.3-0.2-0.4-0.2C32.2,95.5,31.6,96.9,31.5,98.1z M56.7,97.5c-1.1,0.5-2.2,1.2-2.7,2.3
				c0,0.2,0,0.3,0,0.5c0.1,0,0.3,0,0.3-0.1c0.3-0.5,0.7-0.9,1.1-1.3c1-0.8,2.3-1.5,3.7-1.3c0-0.1,0-0.3,0-0.3
				C58.3,97.1,57.5,97.2,56.7,97.5z M53.8,100.6c0.1,0,0.3,0,0.4,0c0-0.2,0.1-0.3,0.1-0.5c-0.1,0-0.3,0-0.3,0.1c0-0.2,0-0.3,0-0.5
				C53.9,100.1,53.9,100.4,53.8,100.6z M49.9,104c-0.6,0.7-1,1.6-1.5,2.4c-0.5,1-1,2.1-1.3,3.2c0,0.3-0.1,0.5-0.1,0.8
				c0.1,0,0.2,0,0.2,0c0.8-2.2,2-4.2,3.3-6.2c0.2-0.2,0.1-0.5,0-0.7C50.2,103.7,50,103.8,49.9,104z M137.3,105.6
				c-0.7,0.6-1,1.6-0.9,2.5c0.1,1.3,0.6,2.5,1.3,3.6c0.4,0.5,0.7,1,1.3,1.3c-0.2-0.3-0.4-0.6-0.6-0.9c-0.5-0.7-0.9-1.5-1.2-2.4
				c-0.3-1-0.5-2-0.1-3c0.2-0.5,0.6-0.9,0.9-1.3C137.7,105.4,137.5,105.5,137.3,105.6z M141.3,106.7c-0.4,0.4-0.4,0.9-0.4,1.5
				c0,1,0.2,1.9,0.5,2.8c0.3,1,0.8,1.9,1.6,2.5c0-0.2,0-0.4-0.1-0.6c-0.8-1.1-1.1-2.5-1.3-3.9c-0.1-0.8-0.1-1.7,0.5-2.5
				C141.7,106.6,141.4,106.4,141.3,106.7z M39.1,109.5c-0.7,1-1.2,2.1-1.4,3.3c-0.1,0.8-0.1,1.6-0.1,2.4c0,1.2,0.3,2.4,0.7,3.6
				c0.1,0.1,0.2,0.1,0.3,0.2c0-0.1,0-0.1-0.1-0.2c-0.6-1.8-0.7-3.7-0.4-5.6c0.2-1.3,0.7-2.5,1.4-3.5c0.1-0.2,0.1-0.4,0.1-0.6
				C39.4,109.1,39.2,109.2,39.1,109.5z M46.6,111.1c0.1,0,0.2,0.1,0.2,0.1c0.2-0.2,0.3-0.5,0.4-0.8c-0.1,0-0.2,0-0.2,0
				c0-0.3,0.1-0.5,0.1-0.8C46.8,110.1,46.6,110.6,46.6,111.1z M52.6,113.8c-0.4,0.9,0,1.8,0.4,2.5c0.8,1.4,2,2.7,3.5,3.3
				c-0.1-0.2-0.1-0.4-0.3-0.5c-0.8-0.6-1.5-1.3-2.1-2.1c-0.7-1-1.2-2.1-1.1-3.3C52.9,113.8,52.7,113.8,52.6,113.8z M145.6,115.1
				c0,0.1-0.1,0.3-0.2,0.4c0.5,0.6,0.8,1.3,0.6,2c-0.2,1.5-1.1,2.9-2.5,3.6c0,0.1,0,0.2,0,0.3c0.2,0,0.4,0,0.6-0.1
				c1-0.5,1.8-1.5,2.3-2.5c0.4-0.8,0.6-1.7,0.4-2.6C146.6,115.6,146.2,115,145.6,115.1z M135.2,115.2c0,0.5,0.1,1.1,0,1.6
				c-0.1,0.8-0.4,1.5-0.8,2.1c-0.5,0.9-1.1,1.8-2,2.2c0,0.1,0,0.3,0,0.4c1.2-0.4,2-1.5,2.6-2.5c0.6-1,1.2-2.3,0.8-3.5
				C135.8,115.3,135.5,115.2,135.2,115.2z M43.7,118c-0.3,1,0.2,2.1,0.8,2.9c0.6,0.9,1.5,1.7,2.5,2.1c0-0.1,0-0.2,0.1-0.2
				c-1.5-0.7-2.5-2.1-2.9-3.6c-0.2-0.6,0.1-1.1,0.1-1.7C44.1,117.7,43.8,117.8,43.7,118z M50.7,118c-0.4,0.9-0.1,2,0.2,2.9
				c0.6,1.3,1.3,2.5,2.3,3.5c0.4,0.4,0.8,0.7,1.3,0.9c-0.5-0.5-1.1-0.9-1.5-1.5c-1-1.3-1.6-2.8-1.9-4.4c-0.1-0.6,0-1.1,0-1.7
				C50.9,117.7,50.7,117.8,50.7,118z M38.3,118.7c0.3,0.7,0.7,1.6,1.5,1.9c-0.3-0.7-0.8-1.3-1.2-1.9c0,0.1,0,0.1,0.1,0.2
				C38.5,118.8,38.4,118.8,38.3,118.7z M137.6,122.2c-0.8,1.1-1.8,2.1-3.1,2.6c0,0.1,0,0.3,0,0.4c1.6-0.4,2.8-1.6,3.8-2.9
				c0.5-0.7,1-1.4,1.1-2.2c-0.1-0.1-0.3-0.2-0.4-0.2C138.5,120.6,138.1,121.5,137.6,122.2z M62,125.7c0.1,0.1,0.2,0.3,0.2,0.4
				c1.5-0.2,3.1,0.3,4.2,1.4c-0.1-0.2-0.1-0.4-0.2-0.7c-0.7-0.6-1.5-1-2.3-1.3C63.3,125.3,62.6,125.3,62,125.7z M125.8,126.7
				c-0.8,1.1-2.1,1.8-3.4,2.3c-1.1,0.5-2.5,0.6-3.6,0c0,0.1,0,0.3,0,0.3c0.6,0.6,1.5,0.8,2.3,0.7c1.1-0.1,2.1-0.6,3-1.1
				c0.8-0.5,1.8-1.1,2.1-2.1C126,126.7,125.9,126.7,125.8,126.7z M130.2,126.7c0,0.4,0.2,0.8,0.2,1.3c0,0.6-0.2,1.1-0.5,1.6
				c-0.5,0.9-1.2,1.6-2.1,2.1c0,0.1,0,0.3,0,0.4c0.5,0,1-0.3,1.4-0.6c0.9-0.7,1.6-1.6,2-2.7c0.2-0.7,0.2-1.5-0.2-2.1
				C130.8,126.6,130.4,126.6,130.2,126.7z M66.3,126.8c0.1,0.2,0.1,0.4,0.2,0.7c0.1,0.3,0.3,0.6,0.5,0.9
				C67.1,127.7,66.8,127.1,66.3,126.8z M58.1,126.8c-0.1,0.1-0.2,0.2-0.2,0.3c0.5,0.9,1.2,1.7,2.1,2.2c0.8,0.3,1.7,0.6,2.6,0.5
				c0.1-0.1,0.3-0.1,0.4-0.2c-0.3-0.1-0.6-0.1-0.9-0.2c-0.8-0.2-1.7-0.5-2.4-1C59.2,127.9,58.7,127.3,58.1,126.8z M48.9,127.4
				c-0.1,0.6,0.1,1.1,0.4,1.5c0.6,0.8,1.4,1.2,2.3,1.6c0.5,0.2,1.1,0.5,1.7,0.5c0.3,0,0.5,0,0.8,0c-0.1-0.1-0.3-0.1-0.4-0.2
				c-0.7-0.3-1.5-0.5-2.1-0.9c-1-0.6-1.9-1.4-2.2-2.6C49.2,127.4,49,127.4,48.9,127.4z M62.1,129.4c0.3,0.1,0.6,0.1,0.9,0.2
				c-0.1,0.1-0.3,0.1-0.4,0.2c0.5,0,0.9-0.2,1.3-0.4c0-0.1,0-0.3,0-0.4C63.3,129.3,62.7,129.5,62.1,129.4z M132.8,129.7
				c0.2,0.1,0.3,0.1,0.5,0.2c-0.3,0.7-0.7,1.4-1.2,2c-0.3,0.4-0.7,0.6-1,1c0.3,0,0.6,0.1,0.8-0.1c0.9-0.7,1.6-1.6,2-2.7
				c0.1-0.4,0.1-1-0.4-1C133.1,129,132.9,129.4,132.8,129.7z M53.7,130.9c0.1,0.1,0.3,0.1,0.4,0.2c-0.3,0-0.5,0-0.8,0
				c0.5,0.3,1.2,0.1,1.7,0c0-0.1,0-0.2,0-0.3C54.6,130.9,54.1,130.9,53.7,130.9z M118.3,132.7c0.2,0.3,0.4,0.6,0.8,0.8
				c1.2,0.7,2.7,0.8,4.1,0.7c1-0.1,2.1-0.5,2.5-1.4c-0.5,0-0.8,0.4-1.2,0.6c-0.7,0.3-1.5,0.3-2.2,0.3c-1.2-0.1-2.3-0.3-3.4-0.9
				C118.6,132.7,118.4,132.7,118.3,132.7z M58.8,133c0,0.8,0.6,1.5,1.4,1.8c1,0.4,2.1,0.5,3.1,0c0.6-0.3,1-1,1.3-1.5
				c-0.1,0-0.3,0-0.4,0c-0.2,0.4-0.5,0.8-0.9,1c-0.7,0.5-1.7,0.4-2.5,0.2c-0.8-0.2-1.4-0.7-1.8-1.4C59,133,58.8,133,58.8,133z"/>
			<g>
				<path class="st7" d="M96.4,151.2c-0.1,0-0.3,0-0.3,0c0,0.9,0.3,1.7,0.5,2.5c0.3,1.1,0.4,2.2,0.5,3.3c0.2,1.6-0.2,3.2-0.3,4.8
					c-0.2,0.6-0.4,1.2-0.5,1.8c0.5-0.4,0.7-1,0.7-1.6c0.4-0.9,0.4-1.9,0.6-2.9C97.9,156.4,97.4,153.7,96.4,151.2z"/>
				<path class="st7" d="M89.8,156.2c0-1.5,0.2-3.1-0.3-4.6c-0.1,0-0.2,0-0.3-0.1c0,1.4,0,2.8,0,4.3c0,1.4,0.2,2.8,0.5,4.2
					c0.2,0.9,0.4,1.8,0.8,2.7c0,0.4,0.3,0.7,0.5,1c0.1-0.7-0.3-1.3-0.6-1.9C90.1,159.9,89.7,158.1,89.8,156.2z"/>
			</g>
			<path class="st15" d="M45.5,181.4c0.7,0,1.1,0.6,1.4,1.2c0.8,1.4,1.5,2.9,2.1,4.4c-0.1,0-0.3,0-0.4,0c-0.9-1.8-2-3.6-3.2-5.2
				C45.4,181.7,45.4,181.5,45.5,181.4z"/>
			<path class="st16" d="M42.8,182.7c0.1-0.2,0.3,0,0.5,0.1c0.1,0.4,0.1,0.8,0.1,1.2c0,0.9,0,1.8,0,2.7c-0.1,0-0.3,0-0.4,0
				c-0.2-1-0.2-2-0.4-2.9C42.6,183.3,42.5,182.9,42.8,182.7z"/>
			<path class="st17" d="M47.4,189.3c0.5-0.2,0.7,0.4,0.9,0.7c0.9,1.7,2.1,3.2,3.6,4.4c0,0.1,0,0.3,0,0.4c-0.8-0.3-1.3-0.9-1.9-1.4
				c-0.8-0.8-1.6-1.7-2.2-2.7C47.5,190.2,47.2,189.8,47.4,189.3z"/>
			<path class="st18" d="M37.5,208c0.2,0,0.3,0,0.5,0c0.5,0.9,0.9,1.9,1.7,2.6c0.6,0.6,1.4,1,2,1.6c0.9,0.9,1.8,1.8,2.6,2.8
				c0.4,0.4,0.7,0.9,0.9,1.4c-0.5-0.3-0.8-0.8-1.1-1.2c-0.8-0.9-1.7-1.8-2.6-2.5c-0.8-0.7-1.8-1.2-2.4-2
				C38.3,209.9,37.9,208.9,37.5,208z"/>
			<path class="st19" d="M22.9,212.7c0.5,0.1,0.7,0.6,1,1c1.3,1.6,3.3,2.6,4.6,4.2c1.3,1.4,2.6,2.8,3.4,4.6c-0.1,0-0.2,0.1-0.2,0.1
				c-0.9-1.6-2.2-2.9-3.5-4.1c-1.5-1.4-3.4-2.4-4.6-4.2C23.2,213.8,23,213.3,22.9,212.7z"/>
			<path class="st20" d="M55.7,223.2c0.9-0.1,1.7,0.2,2.6,0.5c2,0.7,3.9,1.6,5.8,2.4c2.1,0.9,4.4,1.4,6.6,1.6c0,0.1,0,0.2,0,0.3
				c-2.8-0.1-5.6-0.8-8.2-1.8c-2-0.8-3.9-1.7-6-2.3c-0.6-0.2-1.1-0.2-1.7-0.1C55,223.5,55.3,223.2,55.7,223.2z"/>
			<path class="st20" d="M28.5,229c0.4,1.2,0.8,2.3,1.3,3.4c0.4,0.9,0.8,1.8,1.3,2.6h0.5c-1-2.1-1.7-4.2-2.4-6.4
				c-0.4-1.1-0.7-2.3-1.6-3.2c-0.1,0-0.3,0-0.4,0c0.1,0.3,0.3,0.6,0.4,0.9C28.1,227.2,28.3,228.1,28.5,229z"/>
			<g>
				<path class="st21" d="M137.3,204.6c-1,1.4-2.2,2.5-3.4,3.6c-0.8,0.7-1.8,1.4-2.9,1.7c-0.4,0.1-0.7,0.2-1,0.5
					c1.2,0.2,2.4-0.3,3.4-1c1.1-0.7,2-1.7,2.9-2.7c0.6-0.8,1.4-1.6,1.6-2.6C137.7,204.2,137.5,204.4,137.3,204.6z"/>
				<path class="st21" d="M160.9,208.2c-1,0.6-1.8,1.5-2.7,2.3c-1.7,1.6-2.4,4.1-4.4,5.4c0,0.1,0,0.3,0,0.4c1.2-0.1,2.1-1.2,2.8-2.1
					c0.9-1.3,1.7-2.7,2.7-3.8c0.5-0.6,1.1-1,1.5-1.6c0.6-0.4,1.2-1,1.4-1.7C161.6,207.3,161.1,207.7,160.9,208.2z"/>
				<path class="st21" d="M143.6,220.3c0.7-0.8,1.4-1.7,2.2-2.5c1.3-1.3,2.7-2.3,4.3-3.3c0.7-0.5,1.6-1.1,1.8-2.1
					c-0.7,0.1-1.1,0.6-1.7,0.9c-1.5,0.9-3.1,1.7-4.3,3c-0.7,0.8-1.4,1.6-2,2.4c-0.4,0.6-0.8,1.1-0.9,1.8
					C143.1,220.5,143.4,220.5,143.6,220.3z"/>
				<path class="st21" d="M100.9,220.7c-2.7,0.3-5.4,0.4-8.1,0.7c-1.2,0.1-2.4,0.4-3.4,1.1c0.1,0.1,0.1,0.3,0.2,0.4
					c1-0.1,2-0.4,3.1-0.6c1.6-0.2,3.3-0.4,4.9-0.6c1.2-0.2,2.3-0.3,3.4-0.6C100.9,221,100.9,220.8,100.9,220.7z"/>
				<path class="st21" d="M145.7,235C145.7,234.9,145.7,234.9,145.7,235c0.6-1.4,1.1-2.8,1.8-4.1c0.9-1.8,1.5-3.7,2.6-5.5
					c0.7-1.2,1.6-2.4,2.2-3.8c0.1-0.2,0-0.5,0-0.7c-0.3,0-0.7,0.1-0.9,0.4c-0.9,1.3-2,2.4-2.8,3.8c-1.1,1.7-1.7,3.7-2.3,5.6
					c-0.5,1.3-0.9,2.7-1.2,4.1c0,0.1,0,0.1,0,0.2H145.7z"/>
				<path class="st21" d="M111.1,227.7c-0.6,0-1.1,0.2-1.7,0.3c-2.2,0.3-4.5,0.1-6.7,0c-1,0-2,0.1-2.9,0.7c0,0.1,0,0.3,0,0.4
					c0.7-0.2,1.4-0.4,2.1-0.4c0.9,0,1.8,0.1,2.6,0.1c1.5,0.1,3,0,4.5-0.3c0.9-0.2,1.9-0.3,2.7-0.8c0.5,0,1-0.5,1.4-0.8
					c-0.1,0-0.2-0.1-0.3-0.1C112.3,227.1,111.7,227.4,111.1,227.7z"/>
				<path class="st21" d="M153.7,235c0.2-1.8,0.5-3.6,1-5.4c0.2-0.7,0.5-1.3,0.5-2c-0.2-0.6-0.9-0.3-1,0.1c-1.1,2.2-1.4,4.7-1.4,7.2
					H153.7z"/>
				<path class="st21" d="M141.2,235c0.1-0.2,0.2-0.5,0.3-0.7c0.5-1.1,1.1-2.1,1.6-3.2c0.5-1.1,0.8-2.3,0.6-3.5c-0.2,0-0.4,0-0.5,0
					c-0.3,1.1-0.7,2.2-1.2,3.2c-0.5,1.1-1.1,2.1-1.4,3.3c-0.1,0.3-0.2,0.6-0.2,0.9H141.2z"/>
			</g>
			<path class="st22" d="M46.9,235h0.5c-0.1-0.1-0.1-0.2-0.2-0.2c-1.2-1.6-2.3-3.3-3-5.1c-0.1-0.3-0.3-0.5-0.6-0.5
				c0.1,1.8,1.3,3.2,2.2,4.5C46.2,234.1,46.6,234.5,46.9,235z"/>
			<path class="st20" d="M38.2,230.7c0-0.7-0.2-1.4-0.3-2.1c-0.3-1.6-0.4-3.3-1-4.9c-0.4-1-0.8-1.9-1.4-2.8
				c-0.1-0.3-0.4-0.4-0.7-0.5c0.1,0.8,0.6,1.4,0.8,2.1c1.1,2.8,1.6,5.8,2.3,8.8c0.1,0.6,0.3,1.1,0.4,1.7c0.1,0,0.2,0,0.3,0
				C38.6,232.3,38.5,231.5,38.2,230.7z"/>
		</g>
	</g>
</g>
</svg>
