<svg xml:space="preserve" xmlns:xlink="http://www.w3.org/1999/xlink" enable-background="new 0 0 180 180" viewBox="0 0 180 180" xmlns="http://www.w3.org/2000/svg"><defs><path id="a" d="M0 0h180v180H0z"/></defs><use xlink:href="#a" fill="#c72de2" overflow="visible"/><clipPath id="b"><use xlink:href="#a" overflow="visible"/></clipPath><g clip-path="url(#b)"><path fill="#d0434e" d="M90.2 29.2c1.6-.2 3.2-.1 4.8-.1 1.4 0 2.7.2 4.1.4 1.8.3 3.6 1.1 5.2 1.8.9.5 1.9.9 2.8 1.4 1.4.8 2.9 1.5 4.2 2.5 1.2.8 2.3 1.7 3.4 2.6 2 1.6 3.8 3.6 5.4 5.6.7 1 1.3 2 1.9 3.1.9 1.5 1.5 3.1 2.3 4.7 1.1 2.3 1.8 4.8 2.4 7.3.5 2.1.5 4.3.7 6.5.1 2.8.1 5.5-.2 8.3-.1 1.1-.2 2.2-.3 3.4-.2 1.7-.5 3.4-.8 5-.4 2.2-.9 4.3-1.3 6.5-.2 1.2-.4 2.4-.5 3.7-.2 1.6-.3 3.2-.2 4.7 0 1.4.1 2.8.3 4.2.2 1.3.3 2.7.7 4 1.2 4.1 2.6 8.1 3.4 12.3.3 1.9.6 3.9.7 5.9 0 1.5.1 3 0 4.5-.1 1.1 0 2.2-.1 3.3 0 .9-.1 1.8-.1 2.6 0 2.6-.5 5.1-.8 7.7-.4 2.4-.7 4.9-1.3 7.3-.2.8-.2 1.7-.3 2.5-.1 0-.2.1-.3.1-1.1-.3-2-.9-3-1.4-1.4-.7-2.8-1.6-4.1-2.4-1.6-1-3-2.2-4.1-3.6-.5-.7-.8-1.4-1.2-2.1-.5-1-.7-2-1.1-3-.4-1.2-.6-2.5-.6-3.7-.2-1.3-.1-2.6-.1-3.9-.1-2.5.5-4.9.6-7.3 0-1.4.1-2.9-.2-4.3-.2-.8-.6-1.6-1-2.4-.4-.7-.9-1.4-1.5-2-.8-.7-1.6-1.4-2.6-1.8-1.3-.6-2.7-1.1-4.1-1.4-1.3-.3-2.7-.1-4 0-2.5.2-5 .4-7.6.6-3.9.4-7.8 1.1-11.6 1.6-1 .1-1.9.2-2.9.5-1.3.4-2.6.9-3.9 1.5-2.3 1-4.4 2.6-6.1 4.5-.7.8-1.3 1.8-1.7 2.8-.7 1.8-1.1 3.7-1 5.7-.1 2.9.6 5.7.6 8.6 0 1.4 0 2.7-.2 4.1-.1.5-.1 1-.3 1.5-.4 1.1-1 2-1.6 3-.4.8-1 1.5-1.5 2.2-.2.3-.4.6-.7.8-.3.2-.6.4-.8.7-.4-.9-.7-1.8-1.1-2.7-.5-1.1-.8-2.3-1.3-3.4-.6-1.7-1.2-3.5-1.7-5.2-.4-1.3-.6-2.7-.9-4.1-.3-1.1-.5-2.2-.8-3.4-.2-1.2-.3-2.4-.5-3.6-.5-3.6-.9-7.3-1.1-10.9-.2-2.4-.1-4.8-.1-7.1 0-2.1 0-4.1.2-6.2.1-1.6.3-3.1.4-4.7.3-3.7.3-7.4.1-11.1-.1-2.3-.4-4.6-.5-7-.1-1.6-.3-3.3-.5-4.9 0-1.1-.1-2.2-.1-3.4-.1-1.6 0-3.3 0-4.9.1-2.9.3-5.8.8-8.6.4-1.6.6-3.3 1-4.9.4-1.8.8-3.7 1.7-5.3.8-1.6 1.6-3.2 2.7-4.7 2-2.8 4.5-5.1 7.2-7.2 1.6-1.3 3.4-2.4 5.3-3.3 1.8-.8 3.6-1.5 5.4-2 1.5-.4 3.1-.5 4.6-.8.9-.2 1.9-.3 2.8-.3.6 0 1.3 0 1.9.1.8-.4 1.8-.6 2.7-.9.6 0 1.3 0 2-.1z"/><path fill="#fef3db" d="M177 220.9c.4-.7.7-1.5.6-2.4-.4-7.8-1.8-15.6-4.2-23-1.3-3.8-2.8-7.6-4.6-11.2-1.7-3.5-3.7-6.7-6.2-9.7l-1.2-1.2c-.1-.1-.1-.2-.2-.3-1.6-2.3-3.7-4.3-6.2-5.6l-.9-.9c-.6-.6-1.3-1-2.1-1.1-.2-.2-.5-.4-.7-.5-1.9-1.2-3.8-2.4-5.8-3.4-1.4-.7-2.7-1.4-4.1-2.1-1.7-.9-3.5-1.9-5.2-2.7-1.4-.7-2.7-1.4-4.1-2.1-1.5-.8-3.1-1.5-4.5-2.6-.4-.3-1-.5-1.3-.9-.1 0-.2.1-.3.1-1.1-.3-2-.9-3-1.4-1.4-.7-2.8-1.6-4.1-2.4-1.6-1-3.1-2.1-4.1-3.6-.5-.7-.8-1.4-1.2-2.1-.5-1-.7-2-1.1-3-.4-1.2-.6-2.5-.6-3.7-.2-1.3-.1-2.6-.1-3.9-.1-2.5.5-4.9.6-7.3 0-1.4.1-2.9-.2-4.3-.2-.8-.6-1.6-1-2.4-.4-.7-.9-1.4-1.5-2-.8-.7-1.7-1.3-2.6-1.8-1.3-.6-2.7-1.1-4.1-1.4-1.3-.3-2.7-.1-4 0-2.5.1-5 .4-7.6.6-3.9.4-7.8 1.1-11.6 1.6-1 .1-1.9.2-2.9.5-1.3.4-2.6.9-3.9 1.5-2.3 1-4.4 2.6-6.1 4.5-.7.8-1.3 1.8-1.7 2.8-.7 1.8-1.1 3.7-1 5.7-.1 2.9.6 5.7.6 8.6 0 1.4 0 2.7-.2 4.1-.1.5-.1 1-.3 1.5-.4 1.1-1 2-1.6 3-.4.8-1 1.5-1.5 2.2-.2.3-.4.6-.7.8-.3.2-.6.4-.8.7-1.3 1.4-2.8 2.7-4.4 3.8-2.7 2.2-5.8 3.9-8.8 5.7-2 1.2-4 2.3-6.1 3.4-3.3 1.9-6.4 4-9.4 6.3-1.6 1.2-3.1 2.3-4.6 3.6-1.4 1.3-2.8 2.5-4.1 3.9-1.2 1.2-2.5 2.4-3.6 3.8-.3.4-.6.7-.9 1.1-.7.5-1.4 1.1-2.1 1.6-1.1.9-2 2.1-2.9 3.3-1 1.3-1.9 2.7-2.7 4.1-1.6 2.9-2.8 6.1-3.6 9.3-.9 3.5-1.4 7-1.9 10.5-.5 3.6-1 7.1-1.5 10.7H177z"/><path fill="#88b5bd" d="M109 120.4c.2-.2.4-.5.8-.6 0 .5-.4.7-.6 1-.2.3-.2.7-.5.9-1.5 1.4-3 2.8-4.4 4.3-1.8 1.9-3.7 3.7-4.9 6.1-.9 1.5-1.8 3-2.9 4.4-2.3 2.8-5.6 4.9-9.3 5-1 .1-2 .1-3-.2-1.7-.4-3.2-1.3-4.4-2.4-.8-.7-1.5-1.4-2.1-2.3-.4-.7-1.2-1-1.8-1.6-1.5-1.3-3.2-2.5-4.6-3.9-1.4-1.3-2.6-2.9-3.1-4.7-.2-.8-.3-1.5-.4-2.3-.1-.6-.2-1.2-.1-1.9 0-.2.2-.2.3-.2.1.1.1.3.2.4.8.2.8 1.2 1.6 1.3.3.6.8.9 1.3 1.3.2.2.5.2.7.2.2.3.4.6.7.9.3.4.7.5 1.1.7.7.4 1.3 1 2 1.2.7.3 1.4.7 2.1 1.2.4.3.9.4 1.2.7.5.6 1.3.8 1.9 1.2.2.2.3.5.6.6.9.3 1.8.6 2.6.9.6.2 1.2.3 1.8.7.4-.1.8-.1 1.1-.1 1.4.1 2.8.1 4.2-.1 1.8-.6 3.6-1.3 5.3-2.2.8-.5 1.7-1 2.4-1.7.3-.4.7-.6 1.1-1 .2-.2.5-.3.7-.6.3-.4.4-.9.8-1.3.8-.8 1.7-1.4 2.6-1.9.8-.4 1.4-1 2-1.6.6-.6 1.3-1 1.9-1.7.3.1.7-.3 1.1-.7z"/><path fill="#f2844f" d="M84.3 43.4c.4-.3.8-.7 1.2-1.1 1.1 1.2 2.4 2.3 3.8 3.1H89c.5.8 1.1 1.4 1.7 2.1 1.1 1.2 2.1 2.4 3.3 3.5 2.6 2.2 5.5 4 8.5 5.5 3 1.4 6 2.9 8.7 4.9 2.7 2.1 5.1 4.5 6.8 7.5.5.8.9 1.6 1.2 2.4.1.3.3.6.4.9.1.3.1.6.1.9.1 1.3.1 2.7.1 4 0 1.5-.2 3.1-.2 4.6-.1 1.2-.2 2.4-.4 3.6-.2 1.5-.6 2.9-.9 4.3-.5 2-1 4-1.7 6-.3 1.1-.7 2.2-1.1 3.3-.4 1-.7 2-1 3.1-.4 1.6-1.1 3.2-1.7 4.7-1 2.4-2.1 4.7-3.2 7v-.3c-.2.4-.5.6-.7 1-.8 1.6-1.5 3.2-2.5 4.7-.7 1.2-1.5 2.3-2.2 3.5-.5.8-1.1 1.6-1.7 2.3-.3.4-.7.8-.8 1.3-.5.7-1.1 1.3-1.6 1.9-.8.9-1.8 1.5-2.6 2.3-.5.4-.9.8-1.5 1-.8.5-1.7.8-2.6 1.2-1.4.4-2.8.6-4.3.7-1.2.1-2.4 0-3.6-.1-1.8-.2-3.6-.7-5.2-1.7-1-.6-2-1.2-2.9-2-.1-.1-.3-.1-.5-.2h.4v-.2c-.6-.2-1-.8-1.5-1.3-2-1.9-3.7-4.2-5.2-6.5-.3-.5-.6-1.1-1-1.6-.4-.6-.8-1.1-1.1-1.8-.1.2-.2.4-.2.6-.6-1-1.2-2.1-1.7-3.1-.7-1.2-1.1-2.6-1.8-3.8-1.2-2.6-2.5-5.1-3.4-7.8-.1-.1-.1-.3-.2-.4-.2-.7-.3-1.4-.6-2-.7-2.1-1.3-4.2-1.8-6.4-.2-.8-.4-1.5-.5-2.3.4.6.7 1.2 1 1.8.8 1.8 1.5 3.7 2.1 5.7 0 .2.1.4.1.6 0 0 .1 0 .2.1 0-.8-.2-1.5-.4-2.3l-.6-3c-.3-1.1-.7-2.3-1.1-3.4-.8-1.9-1.4-3.8-1.9-5.8-.3-1.2-.5-2.5-.5-3.8 0-1.1-.1-2.3 0-3.4 0-1.4.2-2.9.4-4.3v.4c.3-.6.5-1.2.8-1.8.7-1.5 1.4-3 2.3-4.4 1-1.7 2.2-3.3 3.5-4.8 2.3-2.6 5.1-4.8 7.7-7.1 1.1-1 2.3-1.9 3.4-3 1.7-1.6 3.4-3.2 4.9-4.9 1.1-1.2 2.1-2.6 3.1-3.9.5-.6.9-1.2 1.2-1.9 0-.1-.1-.1-.2-.1z"/><path fill="#ed5e2d" d="M80.4 45.8c1.4-.7 2.7-1.6 3.9-2.4h.2c-.3.7-.8 1.3-1.2 1.9-1 1.3-2 2.6-3.1 3.9-1.5 1.8-3.3 3.3-4.9 4.9-1.1 1-2.3 2-3.4 3-2.6 2.3-5.4 4.5-7.7 7.1-1.3 1.5-2.5 3.1-3.5 4.8-.9 1.4-1.6 2.9-2.3 4.4-.3.6-.5 1.2-.8 1.8v-.4c.2-1.4.4-2.8.7-4.2.7-3 1.9-5.8 3.6-8.4 1-1.7 2.3-3.3 3.6-4.7.9-1.1 1.9-2.1 2.9-3 .9-.8 1.7-1.5 2.6-2.3 3-2.4 6.1-4.6 9.4-6.4zm8.6-.5h.3c.8.4 1.6.9 2.4 1.3 1.4.7 2.8 1.5 4.4 2 .8.3 1.6.6 2.5.9 1.8.6 3.5 1.3 5.2 2 1.8.7 3.6 1.5 5.2 2.7.8.5 1.4 1.2 2.1 1.9.9.9 1.7 1.8 2.4 2.8.8 1 1.6 2 2.2 3.1 1.3 2 2.3 4.1 2.9 6.4.3 1.2.8 2.4 1 3.7-.2-.3-.3-.6-.4-.9-.3-.9-.8-1.7-1.2-2.4-1.7-2.9-4.1-5.4-6.8-7.5-2.7-1.9-5.7-3.5-8.7-4.9-3-1.5-5.9-3.4-8.5-5.5-1.2-1.1-2.3-2.3-3.3-3.5-.6-.6-1.2-1.3-1.7-2.1zm33.5 37.6c.2-1.4.4-2.8.5-4.2 1.1 0 2.2.2 3.1.9.6.5 1.1 1.2 1.3 2 .3 1.1.2 2.3.2 3.5 0 2.2-.4 4.4-1 6.4-.5 1.6-1.1 3-2 4.4-1.3 2.2-2.9 4.2-4.8 5.7 0-1.4.1-2.8.2-4.2.2-2.4.7-4.8 1.2-7.2.3-2.4.9-4.8 1.3-7.3zm-20.4-3.6c1.9-.1 3.8-.1 5.7.1.7.1 1.5.3 2.2.4.2.1.7 0 .6.4-.2.1-.4.3-.6.5-.4.5-1.1.7-1.7 1-2 1.3-4.2 2.4-6.6 2.9-1.1.2-2.2.3-3.3.1-.7-.1-1.3.1-2 0-.9-.1-1.9 0-2.8-.1-.9-.1-1.8-.1-2.7-.3-.2 0-.4-.2-.4-.5.1-1.2 1-2.2 1.9-2.9.3-.2.7-.1.9-.3.2-.1.4-.3.6-.3 1.4-.3 2.8-.4 4.1-.7 1.4-.1 2.8-.2 4.1-.3zm-32.6.5c1-.1 1.9-.1 2.9 0 1.2-.1 2.4.2 3.6.4 1.1.2 2.3.4 3.4 1 .7.4 1.3.9 1.9 1.4.1.1.1.2.1.4-.1.1-.3.1-.5.2-2.1.3-4.1.5-6.2.9-1.1.1-2.2.5-3.3.6-.8-.1-1.7 0-2.5-.1-1.3.1-2.5-.2-3.7-.4-.9-.2-1.7-.4-2.6-.7-.6-.2-1.2-.5-1.8-.7-.5-.2-1-.2-1.4-.5-.2-.1-.2-.4-.1-.5.3-.1.6-.1.9-.3.2-.1.4-.4.6-.4.9-.3 2-.3 2.9-.5 2-.4 3.9-.6 5.8-.8zm-18.9 1.9c.6-.8 1.5-1.4 2.5-1.6.5-.1 1.1-.1 1.6 0 .1 1.2.2 2.4.4 3.6.2 1.2.6 2.5.9 3.7.3.8.6 1.6.9 2.5.5.9.9 1.8 1.3 2.7 0 .8.3 1.5.5 2.3.5 2.1 1.1 4.3 1.8 6.4.3.6.5 1.3.6 2v.3c-.8 0-1.6-.2-2.4-.4-.8-.1-1.6-.2-2.3-.6-1.1-.5-2-1.4-2.9-2.1-1.2-1-1.9-2.5-2.7-3.9-.9-1.5-1.5-3.2-1.8-5-.2-1.1-.3-2.3-.2-3.4.2-1.5.2-3 .7-4.4.4-.7.6-1.5 1.1-2.1z"/><path fill="#f2844f" d="M126.3 88.2c.4 0-.1.3 0 0z"/><path fill="#ed5e2d" d="M85.1 104.8c.3 0 .7-.1 1 0 .3.1.3.4.2.6-.2.4-.5.8-.7 1.3-.4.6-.8 1.3-1.4 1.8-.2.2-.6.1-.8-.1-.2-.4-.2-.9-.3-1.3-.1-.6-.2-1.2-.1-1.8 0-.2.2-.3.4-.3.6 0 1.2-.1 1.7-.2zm23.8 9.6c.2-.3.5-.6.7-1v.3c-.1 1-.2 1.9-.3 2.9-.2 1.3-.2 2.7-.5 4-.3.5-.8.9-1.2 1.3-1.5 1.3-3.2 2.6-4.9 3.7-.3.2-.7.4-1 .5.1-.5.5-.9.8-1.3.6-.8 1.2-1.5 1.7-2.3.7-1.2 1.5-2.3 2.2-3.5 1-1.4 1.7-3 2.5-4.6zm-40.5 3.9c.1-.2.1-.4.2-.6.2.7.7 1.2 1.1 1.8.4.5.6 1.1 1 1.6 1.5 2.3 3.2 4.6 5.2 6.5.5.5.9 1 1.5 1.3v.2H77c-.6-.1-1-.5-1.6-.8-1.8-.9-3.4-2.2-5-3.4-.3-.2-.7-.5-.8-.9 0-.1-.2-.2-.3-.3-.1-.3-.2-.6-.3-1-.1-.9-.3-1.8-.4-2.6-.1-.6-.2-1.2-.4-1.8h.2zm16.3.6c1-.3 2-.4 3-.3 1.2.1 2.4.2 3.4.8.6.3 1.3.5 1.9.8.3.1.5.4.7.6-.3 0-.5-.2-.8-.2-.4.1-.8 0-1.1-.1-1-.1-2.1-.3-3.2-.3-1.2 0-2.5-.1-3.7.1-1 .2-2 .4-3 .7.7-1 1.7-1.8 2.8-2.1z"/><path fill="#fcb492" d="M72.1 61c.3-.2.6-.4.9-.5 0 .2.1.4-.2.5-2.1 1.3-3.8 3-5.5 4.7h-.4c0-.6.5-1 .8-1.3 1.5-1.3 2.9-2.5 4.4-3.4z"/><path fill="#91332e" d="M125.2 63.3c-.4-2.2-.8-4.4-1.6-6.5-.8-2.2-1.8-4.4-3.1-6.4-1.4-2-2.9-3.9-4.5-5.8-1.8-1.9-3.6-3.9-5.7-5.4-1.4-1-2.8-2.1-4.3-3-1.5-.9-3-1.9-4.6-2.5-1.3-.5-2.5-.9-3.8-1.3-1.3-.4-2.6-.6-3.8-1-.9-.2-1.9-.4-2.9-.5-.5-.2-1-.1-1.6-.2 0 .1 0 .2-.1.2.2.1.4.2.7.2 1.7.2 3.3.5 4.9 1 3.5.8 6.9 1.9 10 3.8 1.3.8 2.6 1.6 3.8 2.6 1.3.9 2.6 1.9 3.8 3 1.8 1.7 3.6 3.6 5.1 5.6 1.4 1.8 2.9 3.7 3.9 5.8 1 1.8 1.8 3.8 2.3 5.8.5 1.8.8 3.7 1.2 5.5.3 1.5.4 3 .4 4.5 0 1.3-.2 2.6-.3 3.9 0 .5-.2.9-.1 1.4l-.1-.1c-.1.5-.2 1.1-.3 1.6-.1.4-.2.8-.2 1.3 0 0 .1-.1.2-.1.3-1 .6-2 .6-3v-.1c.2-1.1.4-2.2.4-3.3.3-2.3.1-4.7-.3-7z"/><path fill="#91332e" d="M89 34.9h-.3c.1.4.4.6.7.9 1.3 1.4 2.8 2.6 4.4 3.7 1.5 1 3 2 4.6 2.7l6.6 3.3c2.7 1.4 5.3 2.8 7.8 4.6 1.5 1.1 2.9 2.2 4.3 3.5.1.1.2.3.4.3v.1c.3.2.5.4.7.7h.1c0 .2.1.2.3.2-.2-.3-.4-.5-.7-.8-.3-.4-.7-.8-1.1-1.1-2.7-2.5-5.7-4.7-8.9-6.5-1.9-1.1-3.8-2-5.7-3-1.5-.8-3.1-1.5-4.6-2.3-1.5-.9-3-1.8-4.4-2.8-1.2-.8-2.3-1.8-3.4-2.8-.3-.2-.6-.5-.8-.7zM69.2 50.2c3.1-2.4 6.5-4.3 9.8-6.4 1.8-1.2 3.8-2.4 5.2-4.1.3-.3.6-.7.5-1.2-.8 1.2-2 2.2-3.2 3.1-1.5 1.1-3 2.1-4.5 3-1.9 1.1-3.7 2.3-5.6 3.6-1.6 1.1-3.1 2.3-4.6 3.6-4.2 3.7-7.7 8.3-9.5 13.6-.1.2-.1.4-.1.6l-.1-.1c-.9 2.9-1.4 5.9-1.4 9 0 .8-.1 1.7-.1 2.5 0 .4-.1.8.1 1.2.2-2.6.3-5.2.7-7.8.2-1.5.6-2.9.9-4.3.7-2.6 2-4.9 3.4-7.1 2.3-3.6 5.2-6.7 8.5-9.2zm52.1 22.5c-.1-1.5-.1-3-.4-4.5-.4-2-.9-3.9-1.7-5.7-1-2.2-2.2-4.3-3.7-6.3-.7-1-1.6-1.8-2.5-2.7-.9-.9-1.9-1.6-2.9-2.3-1.1-.8-2.3-1.4-3.4-2-1.9-1-4-1.7-6-2.6-1.7-.7-3.5-1.4-5.1-2.2-1.7-.9-3.3-1.8-4.8-2.9-.9-.7-1.6-1.6-2.1-2.6-.6-1-.9-2-1.3-3.1-.1-.2-.1-.4-.1-.6-.4 0-.3.4-.2.7.2 1.2.7 2.3 1.3 3.4.6 1 1.3 2 2.3 2.7 1 .7 2 1.4 3.1 2 .8.4 1.6.9 2.4 1.3 1 .5 2.1.9 3.2 1.4 1 .4 2.1.9 3.1 1.3 3.2 1.2 6.3 2.7 9 4.8 1 .8 2 1.7 2.8 2.7 3.9 4.3 6.2 10 6.5 15.8.1 1.2.1 2.4.1 3.6-.1.4-.1.8-.1 1.2-.2 2.5-.3 4.9-.8 7.4.2 0 .2-.3.3-.4.5-2.2.6-4.5.8-6.7 0-.4.1-.8 0-1.2.3-1 .2-1.8.2-2.5z"/><path fill="#91332e" d="M84.8 42c-.5.7-1.2 1.3-1.9 1.9-1 .8-2.2 1.3-3.3 2-.8.5-1.6.9-2.4 1.3-1 .6-1.9 1.2-2.8 1.8-.8.6-1.6 1.2-2.5 1.8-.2.2-.5.3-.7.5-.6.4-1.1.9-1.7 1.3-1 .8-2 1.7-2.9 2.6-1.3 1.4-2.4 2.9-3.4 4.5s-2 3.2-2.8 4.9c-.4.7-.7 1.5-1 2.2-.7 1.6-1.3 3.2-1.6 5 0 .2-.1.5.1.6.3-2.2 1.3-4.2 2.1-6.2.2-.6.6-1.1.8-1.7 1.4-2.5 2.9-4.9 4.6-7.1 1.2-1.6 2.7-3 4.2-4.3 1.3-1.2 2.8-2.1 4.2-3.2 2.5-1.7 5.2-3 7.8-4.6 1.3-.7 2.4-1.7 3.3-2.9.4-.4.4-.9.4-1.4-.2.3-.3.6-.5 1zM58.3 54.8c-.3.6-.6 1.2-.7 1.9 0 0 .1-.1.2-.1.2-.7.5-1.3.8-1.9.9-1.8 2-3.5 3.1-5.2 1.6-2.4 3.4-4.6 5.4-6.7 2.8-2.9 6.1-5.3 9.8-6.8 2.3-1.1 4.8-1.6 7-2.7 0 0 0-.1.1-.2-1.3.4-2.6.9-3.9 1.3-.8.3-1.7.5-2.5.8-1.7.7-3.4 1.4-4.9 2.4-3.6 2.2-6.5 5.3-9.1 8.6-.7.9-1.4 2-2.1 2.9v.2l-.1-.1c-1 1.9-2.1 3.7-3.1 5.6z"/><path fill="#91332e" d="M54.7 64.7c0-1.1.3-2.2.4-3.3.1-.4.1-.8.2-1.1.3-1.5.6-2.9 1-4.4.6-2.4 1.5-4.6 2.7-6.7 1.6-2.9 3.6-5.6 6-7.8 1.5-1.4 3-2.6 4.7-3.7 1.2-.8 2.5-1.6 3.8-2.2 1.6-.8 3.3-1.5 5-2.1 1.7-.6 3.5-1 5.3-1.5-.3-.1-.6-.1-.9 0-3.3.6-6.3 1.8-9.3 3.3-1.5.7-2.9 1.6-4.2 2.5-2.7 1.8-5.2 3.9-7.2 6.4-1.4 1.7-2.6 3.6-3.7 5.6-.9 1.7-1.7 3.4-2.2 5.3-.5 1.7-.9 3.4-1.1 5.2-.1.5-.2 1-.2 1.4-.1.2-.1.4-.1.5-.1 1.2-.3 2.3-.3 3.5.1-.4.1-.7.1-.9zm68.8 1.7-.1.1c0-.3 0-.7-.1-1-.2-1.4-.5-2.8-.8-4.1-.5-2.1-1.4-4.1-2.4-6-1.1-2.1-2.4-4.1-4-5.9-1.5-1.7-3.2-3.2-5-4.7-2.5-2-5.2-3.7-8-5.3-.3-.2-.6-.5-1-.5h.1c-1.4-.8-2.9-1.6-4.4-2.4-1.9-1.1-4-2-6-2.8-1.2-.4-2.4-.9-3.6-1 0 0 0 .1.1.2 1.1.3 2.1.7 3.2 1.1 2 .8 4.1 1.6 6 2.7 1.5.8 3 1.6 4.4 2.4 2.4 1.4 4.7 2.9 7 4.5 2.1 1.5 4.1 3.1 5.9 5 1.8 1.8 3.4 3.8 4.6 6.1 1 1.8 1.8 3.6 2.4 5.5.6 2 1 4.1 1.4 6.2l.1.1c-.1.2 0 .5 0 .7.2 1.1.3 2.2.3 3.3.1-.1.2-.2.2-.4.1-1.3-.1-2.5-.3-3.8z"/><path fill="#91332e" d="M118.9 70.1c-.3-1.2-.6-2.5-1.1-3.7-.8-2-1.7-4-2.9-5.7-.8-1.1-1.6-2.3-2.5-3.4l-.1.1c0-.3-.3-.4-.4-.7-1.5-1.8-3.3-3.4-5.4-4.5-1.9-1.1-3.9-1.9-5.9-2.7-2.1-.7-4.1-1.7-6.2-2.4-1.8-.8-3.6-1.7-5.4-2.6-.8-.4-1.3-.5-1.9-1.2l-.6-.5c0-.4-.5-.9-.6-1.3-.3-1-.5-2-.5-3.1-.1-2.8.2-3 .1-4.7 0-.3 0-.6-.1-.8h-.3c-.2.6-.1 1.2-.1 1.8 0 .8-.1 1.5 0 2.2.1.6-.1 1.3.1 1.8-.1.4.1.8.1 1.3s.1 1 .3 1.5l.1-.1c0 .3.1.6.3.8.5 1.1 1.5 1.9 2.5 2.5 1.8 1 3.7 1.9 5.6 2.7l3.3 1.2c1.9.8 3.9 1.4 5.8 2.2 1.6.7 3.2 1.4 4.6 2.4 1.6 1 3 2.4 4.3 3.9 1.3 1.7 2.6 3.4 3.7 5.3.6 1.1 1.1 2.2 1.5 3.3.3.7.6 1.3.8 2.1.3.9.5 1.7.7 2.6.1.9.3 1.8.4 2.7.3 1.7.3 3.5.2 5.2 0 2.2-.3 4.3-.5 6.5.2-.2.1-.5.2-.8l.3-3c.3-2.4.4-4.8.2-7.3-.2-1-.3-2.3-.6-3.6zm4.7 3.3c-.1.4-.2.9-.2 1.3 0 .5-.2 1-.1 1.5-.1.7-.1 1.5-.3 2.3.1.1.3.2.4.3.1-.7.1-1.4.1-2 .2-1.2.2-2.3.1-3.4zM54.4 75c.1-2.5.2-5 .6-7.5.3-1.8.9-3.5 1.4-5.2.3-.6.5-1.1.8-1.7.3-.7.7-1.3 1.1-2 .7-1.3 1.6-2.6 2.5-3.8 1.2-1.5 2.5-3 3.9-4.3 1.2-1.2 2.6-2.3 3.9-3.5.3-.3.7-.5 1-.8 1.7-1.3 3.4-2.4 5.2-3.5 2.1-1.2 4.2-2.5 6.1-4 1.3-.9 2.5-2 3.5-3.3v-.3c-.4.1-.6.5-.9.7-1.3 1.3-2.7 2.5-4.2 3.5-1.4 1-2.9 1.9-4.4 2.7-2 1.2-3.8 2.5-5.6 3.9-1.5 1.2-3 2.5-4.4 3.8-1.5 1.4-2.8 2.9-4.1 4.5-1 1.2-1.9 2.6-2.7 4-.7 1.2-1.3 2.4-1.8 3.6-.4 1-.7 2.1-1 3.1-.7 2.2-.9 4.6-1 6.9v2.5c-.1.5 0 1.1 0 1.6 0 .8 0 1.5.1 2.3.1 0 .2 0 .2-.1-.3-.9-.1-2-.2-3.1z"/><path fill="#453730" d="M64.8 79.4c1.2-.3 2.5-.5 3.8-.5 1.5 0 3.1 0 4.6.2 2 .3 4.1.7 5.8 1.7.5.3 1.1.5 1.3 1.1-.4 0-.8 0-1.2-.1-.9-.2-1.8-.2-2.6-.4-1.1-.2-2.2-.4-3.3-.4-1.5-.1-2.9-.1-4.4-.1-1.8.1-3.6.3-5.4.5-1 .2-2 .2-3.1.3h-.4c.1-.4.4-.8.8-.9 1.4-.4 2.7-1.1 4.1-1.4zm45.9.7c-.7-.3-1.3-.7-2-.9-1.3-.5-2.6-.6-4-.8-1.5-.2-3-.2-4.4-.2-1.9.2-3.8.3-5.6 1.2-1 .5-2.1 1.2-2.9 2.1-.2.2-.1.4-.1.6.5-.3 1-.3 1.5-.4 1.3-.3 2.6-.6 3.9-.8 3.4-.8 7-.7 10.5-.7.7.2 1.4.2 2.1.3.4.1.9 0 1.3 0v-.2c-.1-.1-.2-.2-.3-.2z"/><path fill="#ba6442" d="M80.9 82.6h.3c.3.3.5.6.6 1 .4 1.1.4 2.3.6 3.5.2 1.6.6 3.2.6 4.8 0 1.9.1 3.8-.2 5.7-.2 1.7-.6 3.4-1 5.1-.1.6-.3 1.1-.2 1.7.1.3.4.4.7.5.9.1 1.7.1 2.6-.1.6-.1 1.2.1 1.9 0v.3c-.5.3-1.1.3-1.6.4-.8.1-1.7.1-2.5 0-.5 0-1.2-.2-1.4-.7-.2-1 .2-2.1.4-3.1.4-1.8.7-3.6.9-5.5.1-1.3 0-2.7 0-4 0-2-.4-4.1-.7-6.1-.1-1-.3-2.1-.8-3-.2-.2-.2-.3-.2-.5z"/><path fill="#16100d" d="M68.9 83.6c.4-.1.8 0 1 .4.3.4.3 1 .3 1.5 0 .4-.2.9-.6 1.1-.3.2-.8.4-1.2.1-.4-.3-.5-.8-.5-1.3s0-1 .2-1.4c.2-.2.5-.3.8-.4zm31.1.2c.3-.2.6-.1.9-.1.5.4.6 1 .6 1.6 0 .6-.2 1.3-.7 1.6-.4.3-1 .1-1.3-.3-.3-.5-.3-1.1-.2-1.6.1-.5.3-1 .7-1.2z"/><path fill="#cc492f" d="M122.5 85.1c0-.2 0-.4.1-.6 0 .3.3.4.4.6.5 1 .3 2.2.1 3.3-.5 2-1.1 3.9-2.2 5.6h-.3c0-.1.1-.3.1-.4.4-.6.7-1.2.9-1.9.5-1.3.9-2.6 1.1-4 .1-.8.1-1.8-.2-2.6zm-69.1 1.7c.3-.6.7-1.3 1.4-1.5.1 0 .2.1.3.1v.2c-.7.3-1 1.1-1.2 1.8-.3 1.7.1 3.6 1 5.1.9 1.5 2 2.8 3.4 3.9.1.1.2.3.3.4-.1 0-.3-.1-.4-.1-.9-.5-1.6-1.2-2.3-2-1.2-1.4-2.3-3.1-2.6-5-.3-1-.3-2 .1-2.9z"/><path fill="#fcbb9c" d="M66.5 86.6c.5 0 1 .2 1.5.4.9.2 1.8.5 2.7.6v.2c-1 .1-1.9-.2-2.9-.3-.5-.1-.9-.2-1.3-.5v-.4z"/><path fill="#b75d38" d="M106.1 87.7c-.3.3-.7.5-1 .8-1.4.8-2.8 1.5-4.4 1.7-.7.1-1.4.1-2.1-.1-.6-.1-1.2-.1-1.8-.4v-.1c-.2-.1-.4-.2-.6-.1-.2.3.1.6.4.8.6.3 1.3.5 1.9.6 1.5.3 3 .1 4.4-.6.8-.4 1.6-.9 2.3-1.5.5-.2.8-.6 1.2-1-.1 0-.2-.2-.3-.1zm-32.1.4c-.2.2-.5.4-.7.6-1.4.8-3.1 1.5-4.7 1.3-1.1-.2-2.3-.5-3.2-1.2-.1-.1-.3-.1-.5-.1 0 .3.2.5.4.6.8.7 1.8 1 2.8 1.3 1 .2 2.2.2 3.1-.2.9-.4 1.7-.9 2.5-1.5l.6-.6v-.2H74z"/><path fill="#fcb897" d="M84.3 93.2h.3c.2.5.2 1.1.2 1.6 0 1.3-.3 2.6-.4 3.9-.2.9-.2 1.8-.7 2.7h-.2c0-.4.2-.7.2-1.1.4-2.4.5-4.8.6-7.1z"/><path fill="#f95939" d="M102 94.1c1.3-.2 2.7.1 3.9.7 1.1.6 1.8 1.6 2.4 2.7.9 2.2.7 4.8-.4 6.9-.6 1.1-1.5 2-2.6 2.6-1.2.7-2.7 1.1-4.1.8-1.2-.2-2.5-.6-3.4-1.4-.8-.6-1.4-1.5-1.7-2.4-.3-.9-.6-1.8-.4-2.7.1-.6.3-1.1.4-1.7.2-.7.7-1.4 1-2 .5-.9 1.2-1.7 2-2.3.8-.6 1.8-1 2.9-1.2z"/><path fill="#fcbea3" d="M54.4 94.4h.2c.8.9 1.7 1.6 2.6 2.4v.3c-.8-.5-1.5-1-2.2-1.6-.3-.3-.6-.6-.6-1.1z"/><path fill="#fcbb9c" d="M65.2 95.1c.7.1 1 .8 1.5 1.2h.2l-.1.1c-.1.1-.3.2-.4.2-.3-.4-.7-.7-1.1-1.1-.2-.1-.1-.2-.1-.4z"/><path fill="#8c2b26" d="M121.3 95.6c.2-.2.5-.3.8-.2.2.1.3.4.2.6-.2.4-.5.7-.9.6-.1-.1-.2-.2-.3-.2 0-.3 0-.6.2-.8z"/><path fill="#f95939" d="M66.9 96.3c1.4-.7 3-.7 4.5-.4.9.2 1.7.6 2.4 1.1 1.7 1.2 2.9 3.1 3 5.2.1 1.9-.8 3.8-2.2 5.1-.9.9-2.1 1.4-3.4 1.7-1.5.3-3.1 0-4.4-.7-1.7-.9-3-2.4-3.5-4.2-.3-1.3 0-2.6.3-3.9.4-1.4 1.3-2.8 2.6-3.5.7.7 1.5 1.4 2.1 2.2.1-.1.1-.2.2-.2-.5-.8-1.2-1.5-1.8-2.2l.2-.2z"/><path fill="#cc492f" d="M58.2 96.4c.5.3 1 .6 1.4.9v.2c-.3 0-.6-.2-.9-.3-.2-.1-.5-.3-.7-.5.1 0 .3.1.4.1 0-.2-.1-.3-.2-.4z"/><path fill="#fba886" d="M66.3 96.6c.1-.1.3-.2.4-.2.6.7 1.3 1.4 1.8 2.2-.1.1-.1.2-.2.2-.5-.8-1.3-1.5-2-2.2z"/><path fill="#fcb492" d="M57.4 98.9c.3-.1.6-.2.9-.1.2.1.3.4.3.7-.1.2-.3.4-.5.6-.2-.1-.3-.2-.5-.2-.1-.3-.1-.6 0-.9 0-.2-.1-.1-.2-.1z"/><path fill="#8c2b26" d="M57.2 100c-.3-.4-.1-.9.2-1.2h.3c-.1.3-.1.6 0 .9.2.1.3.2.5.2-.3.4-.8.4-1 .1z"/><path fill="#fcb897" d="M87 101.5c.7-.4 1.7 0 2 .7.1.2.1.5-.1.6-.3-.2-.4-.6-.7-.7-.4-.1-.7-.1-1.1-.2-.1-.1-.1-.2-.1-.4z"/><path fill="#fcbb9c" d="M82.7 103.2c-.1-.2.1-.4.2-.3.4.3.7.7 1.1.9v.3c-.5-.1-1-.4-1.3-.9z"/><path fill="#b65b36" d="M86.2 103.1c.4-.1.9-.2 1.3 0v.4c-.5.4-1.3.4-1.9.3 0-.3.3-.6.6-.7z"/><path fill="#b95d38" d="M114 103.9c-.2.5-.5.9-.6 1.4-.4.9-.7 1.7-1.2 2.6-1 2-1.7 4.1-2.8 6.2-.5.9-1 1.7-1.5 2.6-.4.8-1 1.6-1.5 2.3-.5.8-.9 1.6-1.5 2.4-.5.6-.9 1.3-1.4 2-.8 1-1.5 2.2-2.4 3.2-.6.8-1.3 1.5-1.9 2.3-.7.6-1.4 1.1-2.2 1.6-.4.3-.8.5-1.2.8h-.1c-1.4.9-3.1 1.2-4.7 1.7-.6.2-1.2.2-1.7.3-.5 0-.9.1-1.4.1-1.3-.1-2.5-.4-3.7-.8-.6-.2-1.3-.3-1.8-.6-.8-.3-1.5-.7-2.2-1.1-1.1-.6-1.9-1.5-2.8-2.2-.7-.5-1.2-1.2-1.9-1.8-.7-.7-1.4-1.5-2.1-2.3-1.4-1.6-2.5-3.5-3.7-5.2-.7-1.1-1.5-2.1-2.1-3.2-.6-1-1.1-2-1.7-3-1.3-2.4-2.5-4.8-3.7-7.2-.3-.6-.5-1.3-.9-1.9-.1.1-.2.2-.1.4.1.6.3 1.2.6 1.8.7 1.8 1.5 3.7 2.4 5.4.1.1.2.3.3.5.3.7.7 1.3 1.1 1.9.8 1.4 1.5 3 2.5 4.3.4.5.7 1 1.1 1.5.7 1.1 1.5 2.1 2.2 3.1 1 1.5 2.1 2.8 3.3 4.1.7.7 1.4 1.5 2.2 2.1.9.7 1.6 1.6 2.6 2.1.7.4 1.5.9 2.2 1.2.8.4 1.8.6 2.6.9 1 .4 2 .5 3 .6.6.1 1.3 0 1.9 0 .9.1 1.8-.2 2.7-.5 1-.4 2.1-.5 3.1-1.1.3-.1.6-.2.8-.4 1-.6 1.9-1.2 2.8-1.9.6-.5 1.2-1 1.7-1.5 1.1-1.2 2.1-2.4 3-3.7 1-1.3 1.9-2.7 2.7-4.1.7-1.1 1.3-2.4 2.1-3.5 1.1-1.5 1.9-3.1 2.8-4.7.4-.8.7-1.7 1.1-2.5.5-.9.9-1.9 1.2-2.9.1-.5.3-.9.4-1.3.3-.5.5-1.2.7-1.7-.1-.3-.2-.3-.3-.3z"/><path fill="#b95d38" d="M86.1 107.5h.2c.2 1 .1 2-.2 3 0 .1-.2.1-.3.1.2-1 .3-2 .3-3.1z"/><path fill="#f95939" d="M86.1 111.7c.5 0 1-.1 1.5-.1 2.4 0 4.7.7 6.7 2-1.2 0-2.4 0-3.6-.2-.9-.1-1.8-.2-2.7-.1-.9 0-1.7.2-2.6.2-.6.1-1.2 0-1.8 0-.8 0-1.6.3-2.3.5-.9.3-1.8.6-2.7.8 0-.4.4-.6.7-.8.4-.2.8-.5 1.2-.7.4 0 .8-.1 1.2-.3 1.1-.3 2.1-.7 3.2-.9.3 0 .9 0 1.2-.4z"/><path fill="#fbaf8d" d="M81.9 112.5c.8-.5 1.8-.6 2.7-.7.5 0 1-.1 1.5-.1-.3.4-.9.4-1.3.5-1.1.2-2.1.6-3.2.9-.4.2-.8.2-1.2.3.4-.4 1-.6 1.5-.9z"/><path fill="#8c2b26" d="M85.3 113.6c.9 0 1.7-.3 2.6-.2.9-.1 1.8 0 2.7.1 1.2.1 2.4.2 3.6.2.6 0 1.1.1 1.7.2v.3l-.1-.2c-.3.2-.7.2-1.1.2-.8-.1-1.6 0-2.4 0-.7 0-1.4-.2-2.1-.2-1.2 0-2.3-.1-3.5.1-1.1.2-2.3 0-3.5.1-1.8.4-3.6.8-5.3 1.4-.1-.1-.2-.1-.3-.2v-.2c.3-.1.5-.2.8-.3.9-.2 1.8-.5 2.7-.8.8-.3 1.5-.6 2.3-.5h1.9z"/><path fill="#f95939" d="M94.7 114.1c.4 0 .8 0 1.1-.2v.2c-.6.4-1 1-1.6 1.4-1.1.9-2.5 1.4-3.8 1.6-1.2.2-2.4.4-3.6.5-1.3.2-2.5 0-3.8-.2-1.3-.2-2.7-.6-3.9-1.1-.4-.2-.9-.4-1.2-.7 1.7-.6 3.5-1 5.3-1.4 1.1-.1 2.3.1 3.5-.1 1.1-.2 2.3-.1 3.5-.1.7 0 1.4.2 2.1.2.8-.2 1.6-.2 2.4-.1z"/><path fill="#fba886" d="M91.4 114.5c.5-.3 1.1-.1 1.7 0 .4.1.9 0 1.3.1 0 .1.1.2.1.2-.5.2-1 .1-1.5.2-.6 0-1.1 0-1.7-.1 0-.2 0-.3.1-.4z"/><path fill="#fa7a60" d="M84.5 115.6c.2-.1.4-.1.5 0 0 .2-.4.2-.5 0z"/><path fill="#fcbb9c" d="M85.9 123.5c.9-.3 1.9-.3 2.9-.3 1.1.1 2.1.1 3.1.5v.3c-.6-.1-1.2-.3-1.8-.3-1.2 0-2.4-.1-3.6.1h-.6c-.1-.1-.1-.2 0-.3z"/><path fill="#76a1a9" d="M68.2 123.5c.1-.2.3-.3.4-.5.2.3.5.5.7.8h.2c-.5-1.2-.4-2.6-.8-3.8-.4.1-.7.4-.9.7-.1.2-.2.4-.4.6v.4c-.1.2-.3.3-.4.5-.2.1-.4.4-.5.6-.9 1.6-1.6 3.5-1.5 5.4.3-.2.2-.6.2-1 .3-1.9 1.1-3.8 2.3-5.2.2.3.4.5.6.8-.1.3-.4.5-.4.8-.3.3-.4.7-.5 1-.4 1.1-.7 2.2-.9 3.4-.2.7-.2 1.5-.2 2.3h.2c0-.5.1-1 0-1.5.5-1.9 1.1-3.6 1.9-5.3zm1 1.1c-.9 2-1.4 4.1-1.8 6.3 0 .1 0 .3.1.3.4-1.6.7-3.3 1.2-4.8.3-.8.6-1.7 1.2-2.4-.4-.1-.6.3-.7.6z"/><path fill="#a3343e" d="M64.6 112.5v-.7c-.1-.2-.2-.3-.3-.5-.1.2-.2.5-.1.7.1 1.2.3 2.3.5 3.4.3 1.5.6 3.1 1 4.6h.3c-.4-2.5-.8-5-1.4-7.5zm-.8 9.5c0-.4-.1-.8-.2-1.2-.8-4.1-1.3-8.2-2-12.2-.1-.4-.1-.9-.2-1.3v-1.8c-.2.3-.2.6-.2 1 0 .6-.1 1.3.1 1.9.2 1.8.5 3.6.7 5.4.5 2.9 1 5.8 1.8 8.6 0 .3.1.6.4.7 0-.4-.2-.8-.2-1.2l-.2.1zm-2.1 10.9v-.4c-1.3-5.4-1.9-10.9-2.3-16.5-.2-3.6-.3-7.3-.8-10.9-.1-.5.1-1-.2-1.4-.2 1-.1 2 0 3 .3 3.7.5 7.5.8 11.2.4 5.3 1.2 10.5 2.6 15.6v.1c0 .6.3 1.1.4 1.7.3 1 .6 2 1.2 2.8l.2-.2c-.8-1.6-1.1-3.4-1.6-5.1l-.3.1zm-2.9 1-.1.1c0-.8-.4-1.6-.5-2.4-1.4-5.8-2-11.9-2.2-17.8-.1-3.2-.1-6.3-.6-9.4-.1-.5-.2-.9-.2-1.4-.1-.2 0-.5-.3-.6 0 0-.1.1-.1.2 0 .5 0 1 .2 1.5 0 1.1.2 2.2.2 3.3.2 3.4.2 6.9.5 10.3.2 3.1.5 6.2 1 9.2.4 2.5 1.1 5 1.8 7.4v.2l.1.1c0 .4.2.8.3 1.2.3 1 .6 1.9.9 2.9.6 1.9 1.1 3.8 1.9 5.6h.2c-.4-.9-.6-1.8-.9-2.7-.9-2.6-1.6-5.1-2.2-7.7zm64.9-16.4c-.1-2.2-.4-4.4-.9-6.6-.2-1.1-.5-2.3-.7-3.4-.2-1.4-.6-2.9-.5-4.3h-.2c0 .3-.1.7-.1 1 .1 1.6.4 3.3.7 4.9.2.9.3 1.8.6 2.6.1 1.1.4 2.3.5 3.4.3 2.5.4 5.1.4 7.6 0 5.1-.6 10.3-1.3 15.4-.1.6-.2 1.1-.2 1.7l-.1-.1c-.2 1.4-.4 2.8-.7 4.1-.1.3-.2.6-.3 1 .4-.5.5-1.1.6-1.7.2-1 .5-2 .6-3v-.1c1-4.8 1.5-9.6 1.7-14.5.1-2.8.1-5.4-.1-8zm-6.2 3.8-1.2-11.1c-.1-2.7 0-5.4.2-8 .1-.7.2-1.5.3-2.2.2-1.4.3-2.9.7-4.3h-.1c-.5 1.7-.8 3.6-1 5.4-.4 2.9-.5 5.8-.5 8.7 0 1.4.2 2.8.4 4.2.2 2.5.5 5 .8 7.6.4 3.7.8 7.4.8 11.1 0 2.5 0 5-.1 7.5-.1.6 0 1.3-.2 1.9h.2c.2-1.2.2-2.3.3-3.5 0-.5.1-1 0-1.5.1-.2.1-.4.1-.6 0-1 .1-2 .1-3 .1-4.2-.3-8.2-.8-12.2z"/><path fill="#a3343e" d="M121.1 125c-.3-1.2-.4-2.4-.6-3.5l-.1.1v-.7c-.4-2.6-.7-5.2-.8-7.8-.3-3.6-.1-7.2.1-10.9.1-2.7.4-5.4.8-8.1 0-.1.1-.3.1-.4.3-1.7.8-3.4 1.1-5.1.2-1.2.6-2.3.8-3.5 0-.2 0-.4.1-.6.5-1.9.6-3.9.9-5.8-.1-.1-.3-.2-.4-.3-.4 3.2-.9 6.4-1.7 9.5-.4 2.1-1 4.3-1.4 6.4-.4 1.7-.4 3.4-.6 5.1-.2 2.3-.3 4.6-.3 6.9 0 2.6 0 5.1.3 7.7 0 .6.1 1.1.2 1.7.3 2.2.6 4.5.9 6.7.1.9.3 1.8.5 2.7 0-.1.1-.1.1-.1zm5.4-2.1v-.6c-.2-.9-.3-1.7-.5-2.6-.1.9.2 1.8.2 2.7.1.3 0 .6.2.9v1.2c0 1.7 0 3.4-.2 5.1-.2 2.7-.5 5.5-.9 8.2-.4 2.4-.9 4.7-1.4 7v.4l-.1-.1c-.3 1.1-.4 2.3-.9 3.3.1 0 .2-.1.2-.1.4-.9.6-1.8.8-2.7.6-2.3 1.1-4.6 1.6-6.9.5-2.7.7-5.4 1-8.1.2-2.6.4-5.2 0-7.7zm-11.4 6.9c.2-2.9.1-5.8-.1-8.7-.2-2.6-.7-5.2-1-7.8-.1-.9-.1-1.9-.2-2.8 0-.7.1-1.3 0-1.9.1-.8.1-1.6.1-2.4 0-.5.2-1.1.2-1.6-.4 1-.6 2.2-.6 3.3v.1c0 .3 0 .6-.1.9-.2 2.5.1 5.1.4 7.6.4 2.7.8 5.4.8 8.1.1 2.2-.1 4.4 0 6.6 0 1.1 0 2.1.1 3.2-.1.6 0 1.2 0 1.7.1 1.4.2 2.7.4 4.1 0 .2.1.5.3.6-.4-3-.4-6-.4-8.9.1-.7.2-1.4.1-2.1z"/><path fill="#76a1a9" d="M66.8 149c-.4.8-.7 1.7-1.3 2.4.1 0 .2 0 .2-.1.6-.8 1-1.7 1.4-2.7.8-2 1.7-4 2.1-6.2.1-.8.3-1.6.1-2.4h-.2c0 .8 0 1.5-.2 2.2-.4 2.4-1.2 4.6-2.1 6.8zm0 4.3c.4-.5.7-1.2 1-1.8 1.2-2.6 2.4-5.3 2.8-8.1h-.2c-.3 1-.5 1.9-.8 2.9-.7 2-1.5 4-2.4 6-.1.3-.3.6-.4 1zm1.6 1.1c.5-.2.7-.8 1-1.2.9-1.8 1.7-3.7 2.2-5.6.2-.8.5-1.6.4-2.4-.1.1-.2.3-.2.5-.5 2.6-1.5 5.1-2.6 7.5-.2.4-.6.7-.8 1.2zm-4.5-6.2c.9-1.3 1.7-2.7 2-4.3.2-1.4.6-2.8.6-4.2 0-1.4 0-2.7-.1-4.1 0-1-.2-1.9-.2-2.9H66c-.2.8 0 1.6 0 2.4 0 1.7.1 3.4.1 5.1 0 1.1-.3 2.1-.5 3.2-.2 1.2-.6 2.3-1.1 3.4-.2.5-.5.9-.7 1.3-.5.5-.8 1.2-1.3 1.8h.3c.3-.5.7-1.1 1.1-1.7zm45.9-28.4c.2.2.5.4.6.7.7 1.2.9 2.5 1 3.9 0 .4-.1.8-.2 1.2-.2 1.2-.2 2.4-.3 3.7 0 .5-.2 1-.1 1.5.1.6 0 1.3 0 1.9 0 .7 0 1.5-.1 2.2 0 1.2.3 2.4.5 3.5.2 1 .4 1.9.7 2.8.4 1 .8 2 1.6 2.7.5.6 1.1 1.2 1.7 1.8.3.3.6.7 1 .9 0-.3-.3-.6-.4-.8-.7-.8-1.5-1.6-2.2-2.4-1.1-1.5-1.5-3.3-1.9-5.1-.3-1.1-.5-2.3-.5-3.4v-4.2c.1-2 .3-3.9.5-5.8 0-1.1-.1-2.2-.4-3.3-.2-.7-.4-1.4-1-1.9-.1-.1-.2-.1-.2-.3.1-.1.2-.3.3-.4.3-.5.2-1.2.1-1.8.6.2 1.3.6 1.5 1.2v-.2c-.1-.2-.3-.3-.4-.5-.3-.2-.6-.5-1-.7-.5-.3-.8-.8-1.2-1.1-.4.6-.2 1.2-.3 1.9-.1.9-.1 1.8-.4 2.7.5.1.8-.3 1.1-.7z"/><path fill="#76a1a9" d="M109.6 122.4c.4 1 .3 2.1.4 3.2 0 1.5-.2 3.1-.3 4.6-.1 1.4-.3 2.8-.3 4.3.1 1.1 0 2.2.2 3.3.1 1.2.3 2.4.6 3.6.2.8.6 1.6 1 2.4.5 1 1.1 1.9 1.7 2.8.5.6 1 1 1.6 1.5.3.2.5.5.8.8 0-.4-.3-.6-.5-.9-.3-.3-.5-.6-.8-.9-1.3-1.3-2.2-2.9-2.9-4.6-.4-.8-.5-1.7-.7-2.5-.3-1.2-.4-2.5-.4-3.8 0-.9-.2-1.9-.1-2.8.2-2.1.3-4.3.5-6.4.1-.8 0-1.7 0-2.5s-.1-1.6-.4-2.3c-.2-.5-.8-.9-1.3-.9v.3c.4 0 .7.3.9.8z"/><path fill="#76a1a9" d="M108.5 123.9c.4 1 .6 2.1.5 3.2-.1 1.4-.5 2.7-.6 4.1-.2 1.4-.5 2.7-.4 4.1.1 1-.1 1.9-.1 2.9v.1c0 2.8.8 5.6 2.1 8.1.8 1.6 2 2.9 3.1 4.3h.3c-.8-1.1-1.5-2.2-2.2-3.3-1-1.6-1.7-3.3-2.2-5.1-.4-1.4-.5-2.9-.7-4.3 0-1 0-2.1.1-3.1 0-3.1 1.2-6 1-9.1 0-.7-.2-1.3-.4-2-.3-.7-1.1-1.3-1.9-1.3v.4c.6-.1 1.2.3 1.4 1zm-1.5 21.4c.8 2.1 1.7 4.2 2.8 6.1.1.2.2.5.5.6 0-.1-.1-.3-.1-.4-.9-1.9-1.8-3.8-2.5-5.8-.7-1.9-1.1-4-1.3-6-.1-.6 0-1.2-.1-1.8-.2.6-.2 1.3-.2 2 0 1.8.3 3.6.9 5.3z"/><path fill="#76a1a9" d="M117.5 146.9h-.3c-.1.3-.1.6-.2.8-1 1.7-2.4 3.1-3.8 4.5-1.3 1.2-2.7 2.3-4.2 3.3-1.6 1-3.4 1.7-5.1 2.5-2 .8-4 1.6-6.1 2.2-1.4.3-2.8.6-4.3.7-2.8.3-5.6.2-8.4-.1h-.6.6c-1.4-.2-2.8-.5-4.2-.8-1.1-.2-2.2-.5-3.3-.8-1.1-.3-2.2-.5-3.2-1-.9-.4-1.8-.8-2.7-1.3-.9-.4-1.7-1-2.6-1.4-.7-.4-1.4-.8-2.1-1.1-.6-.5-1.2-.9-1.8-1.4-.5-.5-1.1-.9-1.7-1.4 1.4-1.8 2.5-3.9 3.2-6.1.5-1.7 1-3.4 1.2-5.1.1-1.2.2-2.5 0-3.7-.2.4-.2.9-.2 1.3 0 .5-.1 1-.1 1.5-.1 1.5-.5 3-.9 4.5-.7 2.7-1.9 5.2-3.4 7.5-.4-.3-.8-.7-1.1-1.1-.3-.3-.5-.6-.9-.8-.2-.1-.3.1-.3.3.7.7 1.4 1.3 2.1 2 .3.3.8.6 1.1.8.7.5 1.4 1.2 2.1 1.6 1.1.8 2.4 1.4 3.6 2.1 1.3.8 2.8 1.5 4.2 2.1 1 .5 2.1.7 3.1 1 1.3.3 2.6.7 3.9.9 1.2.2 2.5.5 3.7.6 1.9.3 3.8.4 5.7.4 2.4 0 4.8-.3 7.1-.9 2.1-.5 4.2-1.3 6.2-2.1 2.1-.8 4.1-1.7 6-3.1 1.3-.9 2.5-1.9 3.6-3.1 1.3-1.5 2.7-2.9 3.8-4.6.3-.2.3-.4.3-.7zm-63 47.5c-.6-.4-1.1-.8-1.6-1.3-2.1-1.9-3.6-4.3-5.8-6-.7-.6-1.6-.8-2.4-1.4v.2c.6.6 1.5.9 2.2 1.5.7.6 1.4 1.3 2 2 1.8 1.9 3.5 4 5.9 5.3 0-.1-.2-.2-.3-.3zm-33.6 0c0 .4.2.8.2 1.2.2 1 .2 2 .4 3.1.3 1.3.6 2.5 1.1 3.8.5 1.3 1.2 2.6 1.8 3.8.9 1.7 2.2 3.1 3.2 4.7.7 1.1.9 2.4 1.2 3.6.2.9.3 1.8.2 2.7-.4 1.2-.8 2.3-1 3.5h.6c0-.2.1-.5.1-.7.3-1.1.6-2.1 1.1-3.1.5-.5.6-1.3.6-2 .1-.3 0-.7 0-1-.1-.9 0-1.8-.2-2.6-.2-1.2-.6-2.4-1-3.6-.4-1.1-1-2.2-1.5-3.2-.8-1.6-1.5-3.3-2.1-5-.2-.6-.4-1.1-.5-1.7h-.2c-.1.7.2 1.4.3 2.1l.1-.1c.1.8.5 1.6.7 2.3.5 1.2 1 2.5 1.6 3.6.4.8.8 1.5 1 2.3.7 2 1.1 4 1.4 6.1-.1.7.1 1.4-.2 2.1h-.1c-.1-1.1-.3-2.2-.7-3.2-.2-.7-.4-1.4-.8-2-.6-1.1-1.3-2-2-3.1-1.1-1.6-2-3.3-2.7-5-.8-1.7-1.3-3.5-1.6-5.3-.2-1.1-.3-2.2-.7-3.3 0-.3-.1-.6-.3-.8-.1-.1-.2-.2-.3-.1 0 .3.1.6.2.9h.1zm89.3 7.9c-1.9.9-3.8 1.7-5.7 2.5-.9.4-1.7 1-2.4 1.8-.1.1-.1.3-.2.5.4-.1.6-.5.9-.7.6-.6 1.3-1 2.1-1.2 2.1-.7 4-1.8 5.9-2.8.9-.5 1.8-.9 2.4-1.8-.2 0-.3.1-.4.2-.7.6-1.7 1-2.6 1.5zm-76.9 15.3c-.3 1.1-.5 2.2-.7 3.3h.6c.1-.5.2-1 .3-1.4.4-1.9 1.2-3.7 1.5-5.7.4-1.9.2-3.9-.2-5.7-.3-1.2-.5-2.5-.9-3.7v-.8h-.3c-.1.5-.1 1.1.1 1.6.1.8.2 1.6.4 2.4.4 2 .7 4.1.3 6.1-.2 1.3-.7 2.5-1.1 3.9zm116.8-6.1c.1-1 .2-1.9-.1-2.9-.1-1-.4-1.9-.6-2.9-.3-1.2-.5-2.4-1.1-3.6-.7-1.6-1.5-3.1-2.2-4.6-.8-1.5-1.4-3.1-2.2-4.6-.5-1-.9-2.1-1.3-3.1h-.3c-.1.5.1.9.3 1.3.3.9.7 1.8 1.1 2.7.5 1.1.9 2.2 1.5 3.3.9 1.9 1.9 3.7 2.7 5.6.8 1.7 1 3.7 1.6 5.5-.6 1.2-.2 2.6-.3 3.8-.2 1.1-.1 2.3-.2 3.4-.3-.8-.5-1.5-.6-2.3-.2-1.3-.2-2.7-.3-4-.1-1.2-.5-2.3-.9-3.4-.6-1.5-1.7-2.8-2.5-4.2-.3-.5-.8-1-.8-1.6h-.2c-.1.8.3 1.5.6 2.1.4.7.8 1.3 1.2 2 .8 1.3 1.4 2.8 1.8 4.3.3 1.5.2 3 .4 4.5.2 1.6.6 3.1 1.2 4.5.2.5.1 1 .2 1.5.1.4.2.9.7.9.2-.4.1-.8.1-1.2 0-.4-.2-.8-.1-1.3 0-1.1-.1-2.3 0-3.4.1-.8.2-1.5.3-2.3z"/></g></svg>