<svg xml:space="preserve" xmlns:xlink="http://www.w3.org/1999/xlink" enable-background="new 0 0 180 180" viewBox="0 0 180 180" xmlns="http://www.w3.org/2000/svg"><defs><path id="a" d="M0 0h180v180H0z"/></defs><use xlink:href="#a" fill="#ef1d72" overflow="visible"/><clipPath id="b"><use xlink:href="#a" overflow="visible"/></clipPath><g clip-path="url(#b)"><path fill="#193857" d="M91.7 21.3c.1 0 .3.1.4.2-.4 1-.5 2-.5 3 1.4-.3 2.9-.5 4.3-.4 1.3 0 2.7.1 4 .4 1.5.3 2.9.6 4.4 1 2.1.7 4.2 1.3 6.2 2.4 2.1 1 4.1 2.2 5.9 3.5 1.2.9 2.3 1.8 3.4 2.8 2.1 2 4.1 4.1 5.7 6.5.8 1.1 1.5 2.3 2.2 3.5.9 1.7 1.5 3.5 2.2 5.3.3 1 .8 1.9 1 2.9.2 1.1.4 2.3.5 3.5.6 3.3.6 6.6.6 9.9-.1 1.4 0 2.8-.1 4.2-.1 1.4-.4 2.8-.6 4.2-.3 1.7-.8 3.4-.7 5.1.2.1.4.2.6.2.3 0 .5-.3.6-.5 1-.3.6-1.9 1.2-2.4-.3 1.3-.9 2.5-1.3 3.8-.6 1.3-1.1 2.6-2 3.7-.8 1.1-1.6 2.2-2.7 3.1-1.4 1.2-2.8 2.6-4.7 2.9-1.4.1-2.8 0-4.1-.4l-3.9-1.5c-1.2-.4-2.3-.8-3.5-1.2-1.6-.6-3.3-1-4.9-1.5-3.3-1-6.5-2.4-9.9-3.5-4.3-1.3-8.8-2-13.2-2.5-2.6-.3-5.3-.1-7.9.1-2.4.2-4.8.5-7.1 1.1-1.5.4-3.1.8-4.6 1.3-.5.1-1 .4-1.5.2-.4-.2-.4-.6-.5-1-.6-2.7-1-5.5-1.3-8.3-.4-2.9-.3-5.8-.3-8.8 0-1.7.1-3.4.2-5.2.1-1.6.4-3.3.7-4.9.2-1 .3-2 .6-3 .7-2.1 1.6-4.1 2.7-6 .8-1.3 1.3-2.7 2.2-3.9 2.1-3.3 5-6.1 8.1-8.4 1.9-1.4 3.9-2.7 6-3.9 1-.5 2-.9 3-1.3.8-.3 1.6-.4 2.3-.8 0-.6.2-1.1.4-1.7.4-1 .9-2 1.5-2.8.1 0 .3.1.3.1v.4c.2.3.1.7.1 1 0 .5.1 1 .1 1.5.7-.9 1.3-1.8 2.1-2.6.7-.5 1.2-.9 1.8-1.3z"/><path fill="#fff" d="M54.8 147.9c0-.2 0-.2.2-.2 0 .2-.1.3-.2.2z"/><path fill="#dfaf33" d="M189.1 231c.7-1 1.2-2.3 1.1-3.6 0-.8-.2-1.5-.5-2.3-.3-3.7-.8-7.5-1.4-11.1-.5-3.1-1.2-6.3-2.2-9.3-1.7-5.4-4.2-10.6-7.8-15-.1-.1-.1-.2-.2-.3-.7-1.3-1.7-2.6-2.8-3.7-.2-.2-.5-.4-.7-.7-1.2-1.5-2.7-2.8-4.3-3.7-2.5-2.4-5.4-4.5-8.4-6.1-.3-.3-.7-.7-1.1-1-.9-.7-2-1.3-2.9-2-1-.7-2.1-1.2-3-1.9-3.7-2.7-7.9-4.7-11.8-7.1-2-1.1-4-2.3-6.1-3.4-2-1.1-4-2.2-6.1-3.1-1.8-1-3.5-2-5.2-3.2-1-.7-2-1.3-2.8-2.1-.5-.5-1.1-1-1.6-1.5-.9-.9-1.9-1.7-2.7-2.7-1-.9-2.2-1.6-3.5-1.8-1-.1-2 0-3 0-2.1.2-4.2.1-6.4 0-1.9 0-3.8 0-5.7-.1-1.2-.1-2.4 0-3.6.1-3.2.2-6.5.3-9.7.6-3.2.3-6.4.6-9.7.9-2.9.2-5.9.3-8.9.2-3.3-.1-6.6-.7-10-.3-.9.2-1.8-.5-2.8-.2-1.1.3-2.1 1-3.1 1.7-1.7 1.2-3.2 2.4-4.8 3.7-2.8 2.2-5.7 4.4-8.7 6.5-3.4 2.3-14.7 9.7-16.8 11.2-1.8 1.3-3.6 2.5-5.3 3.8-1.5 1.1-3 2.3-4.4 3.5-2.2 1.9-4.5 3.7-6.5 5.9-.5.2-1 .6-1.4 1-4.6 5.3-7.9 11.3-10.4 17.9-2.3 6.2-3.6 12.7-4.4 19.3-.4 3.3-.6 6.5-.7 9.8h200.3z"/><path fill="#e56324" d="M80.4 40.1h.4c.5.7 1 1.5 1.6 2.2.9 1.2 1.9 2.4 2.9 3.6.6.7 1.1 1.5 1.8 2.1 1.2 1.2 2.5 2.4 3.8 3.6 1.1.9 2.3 1.7 3.3 2.7 1.1.9 2.1 1.9 3.2 2.7.6.4 1.1.9 1.7 1.3.6.4.9 1.1 1.5 1.5.7.8 1.3 1.8 1.9 2.8.5-.9 1-1.9 1.3-2.9.2-.6.2-1.2.4-1.8.3-1 .6-1.9.7-2.9.9 1.6 2 3 2.5 4.8.4-.9.7-1.8 1-2.7.3-.9.4-1.8.7-2.7.3-.8.5-1.5.7-2.3.8.8 1.6 1.8 2.2 2.8.5.9.8 1.9 1.2 2.8.8-1.7 1.5-3.5 2.1-5.3.4-1.2.5-2.4.6-3.6.7.5 1.4.9 2.1 1.3.8.5 1.2 1.4 1.7 2.1.3-.9.5-1.7.7-2.6l.3-.9c.2.2.3.5.5.7-.5 1.9-1.4 3.8-2.3 5.5-.4.5-.6 1.2-1.2 1.6-.4-.7-.6-1.4-.7-2.2-.8 1.5-1.6 3.1-2.6 4.4-.3.4-.6.8-1 1.1-.2.2-.6.1-.8-.1-.8-.7-1.3-1.8-2-2.6-.5.9-.7 1.9-1.2 2.7-.5.7-1 1.5-1.5 2.2-.1.2-.3.5-.5.3-.5-.5-.6-1.2-1-1.8-.3.8-.3 1.7-.8 2.5-.4.7-.9 1.5-1.4 2.2-.7-.4-1.1-1.1-1.8-1.6-.4.9-1.1 1.7-1.6 2.6-.4.8-1 1.5-1.7 2.2-.2.2-.4.2-.6.2-.7-2-2-3.7-3-5.5-.4-.7-.8-1.5-1.4-2.1-.3-.4-.7-.7-.9-1.2-.2-.4-.4-.7-.6-1.1-.8-1.1-1.3-2.4-2-3.5-.9-1.4-1.9-2.6-2.9-3.9-1.6-2.1-3.3-4.1-4.6-6.4-.9-1.4-1.6-2.8-2.5-4.2-.3-.2-.2-.5-.2-.6z"/><path fill="#f2844f" d="M80 40.4c.1 0 .3 0 .3-.1 0 .1-.1.2-.1.4.9 1.4 1.7 2.8 2.5 4.2 1.3 2.3 3 4.3 4.6 6.4 1 1.3 2 2.5 2.9 3.9.7 1.2 1.3 2.4 2 3.5.2.3.4.7.6 1.1.2.5.6.8.9 1.2.5.6 1 1.4 1.4 2.1 1 1.8 2.2 3.5 3 5.5.2 0 .5 0 .6-.2.6-.7 1.2-1.4 1.7-2.2.5-.9 1.2-1.6 1.6-2.6.6.5 1 1.3 1.8 1.6.5-.7.9-1.4 1.4-2.2.5-.8.5-1.7.8-2.5.4.6.5 1.3 1 1.8.2.2.4-.1.5-.3.5-.7 1.1-1.4 1.5-2.2.5-.8.7-1.9 1.2-2.7.7.8 1.1 1.9 2 2.6.2.2.6.3.8.1.4-.3.7-.7 1-1.1 1-1.4 1.8-2.9 2.6-4.4.1.8.3 1.5.7 2.2.5-.4.8-1.1 1.2-1.6 1-1.7 1.9-3.6 2.3-5.5.4.6 1 1.2 1.5 1.8.8 1.2 1.7 2.4 2.4 3.7.8 1.4 1.3 2.9 1.8 4.4.4 1.5.8 3 .9 4.5.2 1.2.3 2.3.4 3.5.2 1.6.1 3.3.1 4.9.1 3.1-.4 6.2-.9 9.3h-.2c-.7 1.5-.9 3.2-1.1 4.8-.4 2.2-.8 4.3-1.3 6.5-.4 1.6-.9 3.1-1.4 4.6-.3 1-.7 1.9-1 2.8 0 0-.1.1-.2.1-.3.9-.8 1.6-1.3 2.4-.8 1.3-1.6 2.5-2.5 3.7-1.6 2.2-3.4 4.3-5.2 6.4 0 .4.1.7-.1 1.1v-.9c-1 .6-1.9 1.4-2.8 2.1-2.3 2-4.5 4.3-7 6.1-1.2.8-2.2 1.7-3.4 2.4-.9.6-1.9 1.2-2.8 1.7-.9.5-1.9.9-2.9 1.2-1.3.4-2.7.8-4 .9-1.4.1-2.7-.2-4.1-.5-1.3-.4-2.5-.9-3.6-1.5-1.8-.9-3.5-2-5-3.3-2.7-2.3-5.2-4.9-7.8-7.4-1.4-1.3-2.7-2.7-4-4.1-.4-.6-.8-1.2-1.3-1.7-.7-.8-1.2-1.7-2.1-2.3-.6-1-1.1-2-1.5-3.1-.6-1.4-1-2.9-1.3-4.3-.3-1.5-.5-3-.6-4.5 0-.4-.1-.8-.1-1.2.2-.8.2-1.7.4-2.5.1-1 .2-1.9.2-2.9.2-3.1.6-6.2 1-9.3.4-2.3.6-4.7 1.1-7 .2-1.3.4-2.6.5-3.8.1-.7.3-1.4.1-2.1.2-1.1.5-2.2.8-3.3.8-2.5 1.7-5 2.7-7.5.4-1.3 1-2.6 1.8-3.7.3-.5.7-.9.9-1.4.4-.9 1.1-1.6 1.7-2.3 1.5-1.8 3.3-3.3 5.1-4.7 1.8-1 3.5-2 5.3-2.6z"/><path fill="#f95939" d="M49.6 63.4c1.1-1.6 2.9-2.9 4.9-2.7 1 .1 2.1.3 3 .8.7.4 1.4.9 1.9 1.5.7.7 1.4 1.4 1.7 2.3.1.6.1 1.3.4 1.8.1-.4.1-.7.2-1.1.2.7-.1 1.4-.1 2.1-.1 1.3-.3 2.6-.5 3.8-.4 2.3-.7 4.7-1.1 7-.5 3.1-.8 6.2-1 9.3 0 1-.1 1.9-.2 2.9-.1.8-.1 1.7-.4 2.5-.1-.8-.1-1.6-.1-2.4-.3 0-.5-.3-.8-.4-1.2-.6-2.3-1.5-3.2-2.4-1.3-1.4-2.6-2.9-3.7-4.5-1.3-1.8-2-3.9-2.7-6-.6-1.9-.9-3.7-.9-5.6.1-1.6.1-3.2.5-4.8.4-1.5 1.2-2.8 2.1-4.1z"/><path fill="#e56324" d="M71.7 73.5c2.8-.3 5.6-.3 8.3.3.5.1 1.1.2 1.6.4.6.2 1.2.2 1.8.3.3.1.6.4.9.4 1 .2 2 .2 2.8.9 0 0-.1.1-.1.2-1.1-.2-2.2-.5-3.3-.7-1.1-.2-2.2-.2-3.4-.3-.7-.1-1.4.1-2 .1-2.6.2-5.2.4-7.8 0-.8-.1-1.5-.2-2.3-.4-.3-.1-.4-.4-.5-.6.4-.1.7-.3 1.1-.3 1 0 1.9-.1 2.9-.3z"/><path fill="#f95939" d="M130.6 75.6c1.3-.6 2.8-.9 4.2-.9 1-.1 2 .2 3 .5 1.1.5 2.2 1.2 2.8 2.3.7 1.3.9 2.8.9 4.3-.1 2.2-.9 4.2-1.9 6.2-1 2-2.6 3.8-4.1 5.4-.8.8-1.7 1.6-2.6 2.4-1.5 1.3-3.1 2.4-4.9 3.1-1.8.8-3.8 1.2-5.7 1.4.3-1 .7-1.9 1-2.8.5-1.5 1-3.1 1.4-4.6.5-2.1 1-4.3 1.3-6.5.2-1.6.4-3.3 1.1-4.8h.2c0 .2 0 .3-.1.5.2-.7.7-1.4 1-2 .6-1.1 1.2-2.1 1.7-3.3.2-.4.2-.9.7-1.2z"/><path fill="#e56324" d="M101.8 77.5c.5 0 1 .2 1.5.1 2.2.1 4.5 0 6.7.1 1 0 2 .1 3 .1s2.1 0 3.1.3c1.4.2 2.8.7 4.1 1.4-.1.1-.2.2-.3.1-.5-.1-1-.3-1.5-.4-.6-.1-1.1-.2-1.7-.2-1 0-1.9-.1-2.9-.1-1 .4-2 .3-3 .4-2.3.2-4.5 0-6.7-.7-.7-.2-1.5-.4-2.2-.7-.1-.1-.4-.3-.1-.4zM86.2 94.2c.3 0 .5.2.7.3.8.7 1.7 1.5 2.6 2.1.8.4 1.6.7 2.5 1 1.4.4 2.8.1 4.2-.3.6-.2 1.2-.5 1.8-.7.3 0 .4.4.2.6-1 .9-2.1 1.8-3.4 2.4-1 .4-1.9 1-2.9 1.2-.6.1-1.1.1-1.7.1-.9 0-1.7-.5-2.2-1.2-.5-.8-.9-1.7-1.1-2.6-.3-.8-.6-1.5-.8-2.3-.3-.2-.2-.6.1-.6zm-24.1 12.6c.8.6 1.4 1.5 2.1 2.3.5.5.9 1.1 1.3 1.7 1.3 1.4 2.5 2.8 4 4.1 2.5 2.5 5.1 5 7.8 7.4 1.5 1.3 3.2 2.4 5 3.3 1.2.6 2.4 1.2 3.6 1.5 1.3.3 2.7.6 4.1.5 1.4-.1 2.7-.5 4-.9 1-.3 2-.7 2.9-1.2 1-.5 1.9-1.2 2.8-1.7 1.2-.7 2.3-1.6 3.4-2.4 2.6-1.7 4.7-4 7-6.1.9-.7 1.7-1.5 2.8-2.1v.9c-.2 1.4-.3 2.7-.5 4.1-.1 1.7-.2 3.3-.2 5 0 1.1.1 2.3 0 3.4 0 .4 0 .8-.1 1.2-1.2.3-2.3.7-3.5 1-2.1.5-4.2 1.1-6.2 2-2.4 1.1-4.8 2.3-7.4 3.1-1.3.4-2.7.8-4 1.1-.2-.8-.4-1.7-.9-2.4 0 0-.1 0-.2.1-.1.8.2 1.6.3 2.5-2.6.4-5.3.5-8 .9 0-.8.1-1.6.1-2.4 0-.2-.1-.4-.3-.6-.1 0-.2.1-.2.2-.2 1-.3 2-.4 3-2.1.3-4.1.9-6.1 1.6-1.1.4-2.2.9-3.3 1.4-2.5 1-5 2.2-7.4 3.3-1.3.6-2.7.9-4.1 1.1-.6.1-1.3.3-1.9.1 1.2-2.3 2.1-4.8 2.5-7.3l.6-4.2c.2-1.9.4-3.8.6-5.8.1-.7.1-1.4.1-2.1.2-2 .2-3.9.4-5.9l.3-5.1c.2-1.5.3-3 .4-4.5-.6-.6-.9-1.4-1.4-2.1z"/><path fill="#e56324" d="M82.7 107.1c.3-.1.6.1.9.1.7.2 1.5.4 2.2.6 1.3.2 2.7.5 4 .7 1.2.2 2.5.4 3.7.3.9-.1 1.8-.1 2.8-.2.2 0 .5.2.4.4 0 .3-.5.2-.6.5-.6 1-1.3 1.9-1.6 2.9-.1.3-.4.5-.7.5-.5-.1-1-.3-1.5-.5-2-.7-4.2-.5-6.3-.5-.6 0-1.2.2-1.8.1-.4-.1-.1-.6-.2-.9-.2-.6-.2-1.2-.5-1.8-.3-.6-.6-1.3-.9-1.9-.1.1 0-.2.1-.3z"/><path fill="#f2844f" d="M112.2 127.9c0-.4.1-.8.1-1.2 0 2.6.1 5.1.5 7.6.4 2.9.9 5.9 1.9 8.7.3.9.6 1.8 1.1 2.7.4.6.5 1.4.8 2 .1.7-.3 1.3-.7 1.8-.9 1.8-2.2 3.3-3.6 4.7-1 .8-1.8 1.8-2.8 2.6-.7.5-1.2 1.2-1.9 1.7-.8.6-1.5 1.3-2.2 1.8-1.9 1.4-4 2.7-6.1 3.7-1.2.6-2.4 1.1-3.6 1.6-3.4 1.5-7 2.2-10.7 2.7-1.3.1-2.6.2-4 .1-1.7-.1-3.4-.3-5.1-.7-.9-.2-1.8-.5-2.7-.8-2.2-.8-4.4-1.7-6.4-2.8-1.2-.6-2.3-1.4-3.4-2.2-1.4-1-2.8-2.1-4-3.3-.8-.8-1.6-1.6-2.2-2.6-.8-1.1-1.5-2.3-2.2-3.4-.4-.8-.9-1.5-1-2.4-.1 0-.3 0-.3.1-.3-.3.1-.7.3-1 .7-.7 1.3-1.4 2-2 1.1-1 2-2.3 2.7-3.6.6.1 1.3 0 1.9-.1 1.4-.2 2.8-.5 4.1-1.1 2.5-1.1 4.9-2.2 7.4-3.3 1.1-.5 2.1-1 3.3-1.4 2-.7 4-1.3 6.1-1.6-.1 1.2-.2 2.5.2 3.7.4 1.3.9 2.6 1.9 3.6.1.1.4.3.5.1 0-.2-.2-.3-.3-.5-.6-.8-.9-1.7-1.2-2.6-.4-1.4-.3-2.9-.3-4.4 2.7-.3 5.3-.4 8-.9.1 1.3.3 2.6.3 3.9 0 1.4-.2 2.9-.7 4.2h.4c.4-.6.6-1.3.8-2 .5-2.1.4-4.2.1-6.3 1.3-.3 2.7-.7 4-1.1 2.5-.8 4.9-2 7.4-3.1 2-.8 4.1-1.4 6.2-2 1.1-.3 2.2-.6 3.4-.9z"/><path fill="#b65a35" d="M90 132.6s.1 0 .2-.1c.5.7.7 1.6.9 2.4.4 2.1.4 4.2-.1 6.3-.2.7-.3 1.4-.8 2h-.4c.6-1.3.7-2.8.7-4.2 0-1.3-.2-2.6-.3-3.9 0-.8-.3-1.6-.2-2.5zm-7.9.4c.1.2.3.4.3.6 0 .8-.1 1.6-.1 2.4 0 1.5-.1 3 .3 4.4.3.9.6 1.9 1.2 2.6.1.2.3.3.3.5-.1.2-.4.1-.5-.1-1-1-1.5-2.3-1.9-3.6-.4-1.2-.2-2.5-.2-3.7.1-1 .3-2 .4-3 0 0 .1-.1.2-.1zm8.5 24.3c.2.1.2.4 0 .5-.6.7-1.3 1.4-2.1 1.9-1.2.7-2.7 1.2-4.1 1-1.2-.2-2.1-1.1-2.7-2.1 0-.1.1-.2.1-.2.5-.1.9.4 1.3.7.7.6 1.6.9 2.4.8 1.4-.1 2.8-.6 3.9-1.4.5-.4.8-.8 1.2-1.2z"/><path fill="#997c30" d="M117.3 158.1c1.1-1.6 2.4-3.2 3.1-5 .3-.8.9-1.5.7-2.4h-.3c-.2.8-.6 1.5-.9 2.2-.6 1.6-1.7 2.9-2.6 4.3-1.3 1.9-2.8 3.6-4.4 5.3-1.2 1.3-2.6 2.5-4.1 3.5-1.3 1-2.7 2-4.1 2.9-1 .6-2 1.2-3 1.7-2.1 1-4.2 2.1-6.5 2.9-2.5.9-5.1 1.6-7.7 2.2-2.3.5-4.7.6-7.1.4-1.9-.3-3.8-.5-5.7-.8-2.5-.4-4.9-1.1-7.2-2.1-1.1-.4-2.2-.9-3.3-1.5-1.7-1-3.4-2.1-4.9-3.4-1.7-1.5-3.3-3.1-4.7-4.9-1.3-1.8-2.5-3.7-3.4-5.7-.4-1.1-.7-2.2-1.1-3.3-.2-.7-.3-1.4-.5-2.1h-.3c0 .8.2 1.6.4 2.4.4 1.1.7 2.2 1.1 3.3.8 2.1 2.1 4.1 3.5 5.9 1.2 1.7 2.8 3.1 4.3 4.6 1.7 1.6 3.6 2.8 5.6 3.9 1.6.9 3.3 1.5 5 2.1 2.7.9 5.5 1.5 8.4 1.8 1.3.2 2.6.4 4 .4 3 .1 5.9-.4 8.8-1.1 2.8-.7 5.5-1.6 8-2.8 2.1-1 4.3-2 6.3-3.2 1.7-1 3.2-2.2 4.8-3.4 1.2-.8 2.3-1.8 3.3-2.8 1.6-1.7 3.2-3.4 4.5-5.3zM51.5 179c.1-.2 0-.4 0-.6-.1.1-.2.3-.3.4-.7.6-1.4 1.2-2.2 1.8-1.3 1-2.5 1.9-3.7 2.9-.6.5-1.2 1-1.8 1.6-.7.4-1.1 1.1-1.8 1.5v.3c.7-.3 1.2-.9 1.7-1.4v-.1h.1c.8-.7 1.6-1.3 2.5-2 2-1.3 4.2-2.5 5.5-4.4zm83.5 8.6c-1.6-.2-3.2-.3-4.7-.5-.9-.2-2-.1-2.8.5-.1.1-.3.1-.5.2.4.1.7-.1 1.1-.2.6-.1 1.2-.1 1.8 0 .6.1 1.3.3 1.9.3 1.4.2 2.8.1 4.1.1.8 0 1.7 0 2.4-.4v-.4c-.9.6-2.2.2-3.3.4zm20.1 10.2h-.3c-.2.9-.5 1.9-.7 2.8l-1.8 6c-.4 1.3-.6 2.6-1 3.9-.4-2.7-1.1-5.3-1.3-7.9 0-.3 0-.5-.1-.7h-.4c-.1.2-.1.5-.1.7-.1 1.6.2 3.3.4 4.9.2 1.2.5 2.4.9 3.6.1.4.3.8.1 1.2-.3 1.2-.5 2.3-.8 3.5-1.1-1.1-1.7-2.5-2.4-3.8-.5-.9-1-1.9-1.7-2.7-.1-.2-.4-.1-.6-.1 0 .1.1.3.1.4.5 1.2 1 2.3 1.6 3.5.5 1.1 1.1 2.1 2 2.9.3.2.6.4.8.8-.1.5-.2 1-.2 1.5-.2 1.6-.4 3.3-.5 4.9 0 1.3-.1 2.6.1 3.9h.5c.1-.3.1-.5.2-.8.1-1 .2-2 .2-3 .3-2.3.7-4.6 1.1-6.9.5-2.8 1.3-5.4 1.8-8.2.4-2.5 1.2-4.9 1.7-7.4.3-1.1.6-2 .4-3zm-59.8 1.1c-.7-.2-1.5-.2-2.2.1 0 .1-.1.2-.1.2h.8c.7 0 1.4.3 2 .6 2.6 1 5.1 2.3 7.5 3.6.5.3 1 .4 1.3.8h.2v-.3c-1-.8-2.2-1.4-3.3-2.1-1.8-1.2-4-2.1-6.2-2.9zm-79.8 2.6c.1.7.4 1.3.6 2 .6 2.2 1.2 4.5 1.5 6.7.2 1.4.5 2.7.8 4.1.3 1.4.8 2.6 1.1 4 .6 2.7 1.3 5.4 1.7 8.1.2 1.3.7 2.5.6 3.8h.2c0 .2.1.5.1.7h.8v-.4c-.1-1.6-.3-3.3-.6-4.9-.2-1-.4-2-.7-3v-.4c.4-.4.6-.9.9-1.4.8-1.1 1.3-2.4 1.8-3.6.4-1 .7-2.1.9-3.1 0-.3.1-.8-.3-.8-.3 1.4-.8 2.7-1.3 4-.5 1.1-.9 2.3-1.5 3.3-.3.4-.4.9-.5 1.4h-.2c-.3-1.4-.7-2.8-1.1-4.1h.4c0-.4.1-.9.1-1.3.3-1.7.9-3.3 1-5 .2-1.5.3-3 .1-4.5.1-.5 0-1 0-1.5l-.2-.2c-.2.9-.2 1.8-.2 2.7 0 .5-.1 1-.1 1.5-.1 1.7-.4 3.4-.7 5.1-.1.5-.2 1-.2 1.5l-.1-.1c-.1.6-.1 1.1-.2 1.7-.4-1.4-.6-2.8-.9-4.2-.6-3.1-1.4-6.2-2.3-9.2-.3-1.1-.8-2.2-1.2-3.3-.2-.6-.5-1.2-.7-1.8h-.2c.1.8.4 1.6.6 2.4v-.2zm48.4 19.2c-1.8.6-3.5 1.4-5.2 2.2-1.3.6-2.5 1.4-3.7 2.1-.7.4-1.4.6-2.2.8-.7 0-1.5.2-2.2.2.7.4 1.6.4 2.4.3.3 0 .5 0 .8-.2.9-.1 1.7-.5 2.4-.9 2.1-1.1 4.2-2.3 6.3-3.3.9-.4 1.8-.7 2.6-1.3v-.3c-.5-.1-.8.3-1.2.4zm56.2.4c-2.1.1-4.2-.2-6.3-.5-.5-.1-.9 0-1.3.1.4.3 1 .2 1.4.3 1.3.3 2.7.5 4.1.5 1.1 0 2.3 0 3.4-.5 0-.1 0-.2.1-.2-.4 0-.9.3-1.4.3z"/><path fill="#102438" d="m107.1 41.2.2.2s.1.1.1.2h.1v.2l.4.4c.9 1.3 1.7 2.8 2.3 4.3.1.2.2.4.2.6.1.3.2.6.4 1 .2.5.4 1 .5 1.5h.1v.4h.1c.1.3.1.6.2.8h.1v.3c.1.2.1.3.2.5 0 .2.1.4.1.5h.1v.5h.1v.5c.1.3.1.5.2.8 0 .2 0 .5-.1.7v-.8h-.1v-.6h-.1v-.5h-.1c0-.3-.1-.6-.2-.8 0-.2-.1-.4-.1-.5h-.1V51h-.1v-.3c-.2-.5-.3-1-.5-1.4 0-.1-.1-.3-.1-.4h-.1c-.1-.2-.1-.4-.2-.5l-.3-.6c-.1-.2-.2-.4-.2-.6-.7-1.5-1.4-3-2.3-4.5-.2-.3-.4-.7-.6-1h-.1l.1-.2h-.2c-.1-.2-.1-.3 0-.3zm3.7.2h.3v.4h.2c0 .1 0 .2-.1.2h.1c.1.3.2.5.3.8.1.3.3.6.4 1 .2.5.3.9.5 1.4 0 .1.1.2.1.4.1.3.2.6.2.9h.1v.3c.1.2.1.4.1.5h.1c.1.5.3 1 .3 1.5h.1v.6h.1c0 .2 0 .4-.1.6 0-.1-.1-.4-.1-.5h-.1c0-.3-.1-.6-.2-1h-.1V48h-.1v-.4h-.1c-.1-.4-.2-.8-.3-1.1 0-.1-.5-1.6-.6-1.8 0-.1-.1-.2-.1-.4 0-.1-.1-.2-.1-.4-.2-.4-.3-.9-.5-1.3 0-.1-.1-.3-.1-.4h-.1c0-.2-.1-.5-.2-.8zm-28.4.3c.4-.1.8 0 1.2-.2.1 0 .3.1.4.2-.1 0-.3.1-.4.1-.4.1-.9.1-1.3.2-1.2.3-2.4.8-3.6 1.3V43c.9-.7 2-1 3.1-1.3.2.1.4.1.6 0zm22.2.4c-.1-.2-.1-.4 0-.6v.3h.1l.3.6c.2.4.5.8.7 1.2.3.6.6 1.2.8 1.8 0 .1.1.2.1.4.1.3.2.6.2.8 0 .2.1.3.1.5s.1.3.1.5c.1.4.2.8.2 1.3h.1v.7h.1v.8h.1c0 .7-.1 1.5 0 2.2-.1-.1-.2-.2-.2-.3l-.2.2c.1-.1.1-.2.2-.3v-1.5c-.1-.2-.1-.4-.1-.7h-.1c0-.5-.2-.9-.2-1.3h-.1v-.3c-.1-.2-.1-.3-.2-.5 0-.2-.1-.4-.1-.5h-.1v-.3c-.1-.1-.1-.2-.2-.4 0-.1-.1-.2-.1-.4-.3-.7-.5-1.4-.8-2.1 0-.7-.4-1.4-.7-2.1zm-15.2-.2c.3.2.5.3.8.5.3.2.6.3.8.5l2.4 1.5c1.3.8 2.3 1.9 3.4 3 1.9 2 3 4.7 4 7.3.1.3.2.6.4 1 0 .1.1.2.1.3 0 .1.1.3.1.4h.1v.4h.1v.5h.1c0 .2-.1 1-.1.2h-.1c-.1-.4-.2-.7-.3-1.1h-.1c-.1-.2-.1-.4-.2-.5l-.3-.6c-1-2.3-2-4.6-3.5-6.6-.6-.8-1.3-1.4-2-2.1-.7-.6-1.3-1.2-2-1.7-1-.7-2-1.3-3-2-.2-.1-.4-.3-.5-.4h-.3c.1-.4.1-.5.1-.6z"/><path fill="#102438" d="M95.4 42.5c.2 0 .4 0 .5.2 1.5 1.5 3.1 2.9 4 4.8.4.8.7 1.6 1 2.4.1.3.2.6.2.8 0 .2.1.3.1.5s.1.4.1.6h.1v.4l.3 1.2c.1.5.2.9.2 1.4h.1v.8l.1-.1v.7h.1v.9h.1v.8c-.1-.3-.1-.6-.2-.9v-.7l-.1.1v-.6h-.1v-.7h-.1c0-.6-.3-1.1-.3-1.7h-.1V53c-.1-.3-.2-.6-.3-1 0-.2-.1-.4-.1-.5h-.1v-.3c-.1-.1-.1-.2-.2-.4 0-.1-.1-.2-.1-.4-.1-.2-.1-.3-.2-.5-.4-1.2-1-2.3-1.7-3.4-.9-1.2-1.9-2.3-2.9-3.4 0-.1-.1-.2-.1-.2h-.1c0-.1.1-.2.1-.2-.1-.1-.2-.1-.3-.2zm4.9.2v.2h.2v.1c1.8 1.4 3.2 3.3 4.2 5.3 0 .1.1.2.1.3h.1v.2h.2v.2h.2c0 .1 0 .2-.1.2h.2v.2h.1c.1.3.2.5.3.8h.1c.1.2.1.4.2.6h.1v.4h.2c0 .1-.1.2-.1.3h.2v.4h.1v.4h.2c0 .1-.1.2-.1.2h.2v.4h.1v.4l.2-.1v.4h.2v.4l.2-.1v.4h.2v.4h.1c0 .3.1.6.2.9h.1v.6c.1 0 .2-.1.3-.2-.2.2-.2.4-.2.7-.1-.2-.1-.3-.2-.5 0-.3-.1-.7-.1-1h-.1v-.4h-.1c-.1-.5-.3-1-.4-1.4h-.1V53h-.1v-.4l-.1.1c-.1-.2-.1-.3-.2-.4v-.2h-.2v-.4h-.2c0-.1.1-.2.1-.3h-.1c-.1-.2-.1-.4-.2-.6h-.1c0-.1.1-.2.1-.3h-.1c-.1-.4-.3-.7-.5-1.1l-.3-.6c-1.1-2-2.5-3.9-4.1-5.5-.1-.1-.2-.3-.3-.4h-.1c-.7 0-.6-.1-.6-.2zM85 43.9c.5-.3 1.2-.2 1.7-.1 1.1.2 2.2.5 3 1.2v.2h-.3c-.6-.4-1.4-.7-2.2-.8-.7-.1-1.5-.3-2.3-.1.2-.2.1-.3.1-.4zm6.4 3.5c.3 0 .5 0 .8.2 2 1.1 3.6 2.6 5 4.4.8 1.1 1.7 2.1 2.4 3.2.1.2.2.4.4.6h.1v.2c.1.2.3.4.4.6 0 .1.1.2.1.3h.1v.2h.2c0 .1 0 .2-.1.2h.1c.2.4.4.8.5 1.2h.1c0 .2.1.3.1.5h.1c0 .1-.1.2-.1.3h.2c0 .1-.1.2-.1.3h.2c0 .1-.1.2-.1.3h.1c.1.3.2.5.3.8-.3-.5-.5-1-.8-1.5-.1-.1-.1-.3-.2-.4h-.1c0-.1 0-.2.1-.2h-.2c0-.1 0-.2.1-.2h-.2c0-.1.1-.2.1-.2h-.1c-.1-.2-.2-.3-.2-.5-.1-.2-.8-1.3-.9-1.5-.1-.1-.2-.2-.2-.4-.8-1.2-1.8-2.3-2.7-3.5-1.4-1.8-3.3-3.3-5.3-4.5-.1-.2-.1-.3-.2-.4z"/><path fill="#fbbb9e" d="M79.5 48.5s0-.1.1-.2c0 .1 0 .2.1.2s.2 0 .2-.1v.3c-.1 0-.2.1-.3.1-.2.1-.3.1-.5.2v.1c-.1 0-.2-.1-.3-.1v.2c-.1 0-.2-.1-.2-.1v.2h-.2c-.1 0-.2.1-.3.1v.1c-.1 0-.2 0-.2-.1v.1c-.7.3-1.3.8-1.9 1.3l-.4.4c-.2.2-.4.5-.6.7 0 0-.1.1-.2.1v.3l-.2.2v-.2c-.1 0-.2 0-.3-.1h.2c0-.1-.1-.2-.1-.3h.1c0-.1.1-.2.1-.3.1-.2.2-.3.3-.5.1-.1.2-.3.3-.4.2-.3.5-.6.8-.9.4-.3.9-.6 1.3-1 .1 0 .2-.1.3-.1v-.1c.1 0 .2.1.2.1v-.2c.1 0 .2.1.2.1v-.2c.1 0 .2.1.2.1v-.1c.2-.1.4-.1.5-.2.4.4.6.4.8.3z"/><path fill="#f95939" d="M52.5 65.7c1.3-.2 2.3.8 3.1 1.6 1.2 1.5 2.1 3.3 2.7 5.2.4 1.3.6 2.6.7 4h-.4c-.2-2-.8-4-1.7-5.7-.8-1.6-1.9-3.2-3.5-4.2-.3-.2-.6-.3-1-.3 0-.1-.1-.2-.2-.3.1 0 .2-.2.3-.3z"/><path fill="#193857" d="M70.6 70.6c1.8-.9 3.8-1.4 5.8-1.4 1 0 1.9.3 2.9.3 1.2 0 2.3.4 3.5.6 1.1.2 2 .7 3 1.2 1.1.5 2.1 1.1 3 2v-.6c.1.1.2.1.3.2h.1c.1.2.2.4.4.6.2.3.5.6.5 1.1 0 .1.1.2.2.3v-.4l-.1-.1c-.2-.3-.2-.6-.3-.9 0-.1-.1-.3-.1-.4h.3c.7.8.8 2.1.5 3.1-1.2.3-2.4-.1-3.6-.3-2.2-.3-4.4-1.1-6.6-1.3-2.1-.2-4.1-.4-6.2-.3-1.2.1-2.5.1-3.7 0-1.1 0-2.3-.1-3.4-.3-.2 0-.2-.2-.2-.3.9-1.3 2.2-2.4 3.7-3.1zm32.9 3.5c.7-.6 1.6-.7 2.5-.9 2.3-.3 4.6-.1 6.9.2 1.2.1 2.4.5 3.6.8 1.1.3 2.2.6 3.1 1.3 1 .8 1.9 1.7 2.6 2.7.3.4.8.8.6 1.3 0-.1-.1-.2-.1-.2-.4.1-.8.2-1.1.1-1.7-.3-3.5-.6-5.3-.7-3.4-.2-12.8-.8-14.2-.9h-1c0-.1-.1-.2-.2-.2.1-.4.1-.9.2-1.3.2-.7.5-1.4.9-2.1h.5c-.2.5-.5 1-.7 1.5.6-.7 1.2-1.2 1.7-1.6z"/><path fill="#150f0c" d="M77.4 76.4c.5-.1 1 0 1.3.5.6.9.3 2.3-.7 2.8-.5.3-1.1.2-1.5-.2-.7-.6-.7-1.8-.1-2.5.3-.2.6-.4 1-.6z"/><path fill="#b95d38" d="M99.2 81.7c.4-1.5 1-2.9 1.9-4.1 0 .1.1.2.2.2h.1c-1.2 2.5-2 5.2-2.4 7.9-.1.9-.2 1.8-.3 2.8v2.7c0-.1-.1-.2-.1-.3h-.1c0-1.6-.1-3.2.1-4.8 0-1.6.2-3.1.6-4.4z"/><path fill="#f95939" d="M133.9 80.2c.8-.5 1.7-.9 2.6-.8.1.1.2.2.3.4-.4.2-.9.2-1.4.4-2 .9-3.6 2.5-5.1 4.2-1.5 1.8-3 3.7-3.7 5.9h-.3c0-.9.4-1.7.8-2.4 1.1-2.1 2.6-3.9 4.2-5.6.8-.9 1.7-1.6 2.6-2.1z"/><path fill="#b95d38" d="M80.8 81.1c.4-.2.8-.5 1.3-.6v.3c-1.4 1-3.1 1.3-4.7 1.3-1.5 0-3.2-.1-4.3-1.2v-.5c1.2.7 2.6.9 4 1 1.3.2 2.5.2 3.7-.3z"/><path fill="#150f0c" d="M110.8 81.1c.8-.4 1.8.3 1.8 1.1.1 1.1-.6 2.3-1.8 2.3-1.1 0-1.8-1.4-1.2-2.4.3-.3.7-.8 1.2-1z"/><path fill="#b95d38" d="M114.9 82.8v-.3c.2.1.2.3.2.5h-.2c-.6.7-1.1 1.5-2 2v.1c-.1 0-.2-.1-.2-.1v.2h-.4c0-.1 0-.2.1-.2-.1 0-.2-.1-.2-.1h.3v-.3c.1-.1.2-.1.3-.2.3-.3.7-.6 1.1-.9.3-.3.6-.6 1-.7z"/><path fill="#f95939" d="M66 85.8c1.2-1.4 2.9-2.5 4.7-2.5 2.1-.1 4.3.7 5.8 2.2.9 1 1.6 2.3 1.7 3.7.2 1.9-.5 3.9-1.9 5.3-1 1.1-2.3 1.6-3.7 2-.6 1.8-1.1 3.9-.4 5.8 0 .2.1.4.1.5H72c-1-1.9-.6-4.2 0-6.2-1.2.1-2.4-.1-3.6-.5-1.7-.6-3.2-2-3.6-3.8-.2-.8-.4-1.6-.4-2.5-.1-1.5.6-2.9 1.6-4z"/><path fill="#b95d38" d="M108.2 85.9c1.9.1 3.8.3 5.7-.3 0 .4-.4.6-.7.7-1 .3-2 .3-3 .4-.7 0-1.5 0-2-.5v-.3zm-15 .9h.3v.3h.3c-.1.4-.1.8-.2 1.2-.1.4-.2.8-.3 1.1h-.1v.4H93v.4h-.2v.4h-.1c-.2.6-.4 1.1-.7 1.6-.1.2-.2.2-.3.3-.1.1-.1.3-.1.4h-.2v-.3c.4-.5.4-1.2.7-1.7v-.3h.1v-.4h.1c0-.2 0-.4.1-.5l.3-.9c0-.2.1-.3.1-.5v-.4h.2c0-.2 0-.4.1-.7.1-.1.1-.3.1-.4z"/><path fill="#f95939" d="M107.3 89.8c1.1-.8 2.5-1.3 3.9-1.3 1.7-.1 3.4.6 4.8 1.7 1.3.9 2.2 2.4 2.5 4 .3 1.2-.1 2.4-.6 3.5-.8 1.7-1.9 3.4-3.6 4.3-1.1.6-2.4.8-3.7.7-.3 0-.7-.1-1-.1 0 1.9-.7 3.7-1.7 5.3h-.4s.1-.1.2-.1c.1-.2.2-.3.2-.5.1-.2.2-.3.2-.5.6-1.4.9-2.9.9-4.4-1.6-.5-3.3-1.4-4.1-3-.9-1.6-1.2-3.6-.8-5.4.6-1.8 1.8-3.2 3.2-4.2z"/><path fill="#b95d38" d="M86.2 91.4h.3c-.3.6-.7 1.2-.6 1.9.3.6.9.9 1.5 1.2 1.1.5 2.2 1.1 3.2 1.9.5.4 1.1.6 1.8.7 1 .2 2-.2 2.9-.4 1-.2 2-.3 2.9-.8.8-.7 1-1.9 1-2.9h.2c.2.6.2 1.2.1 1.7-.1.7-.3 1.4-.9 1.8-.8.5-1.8.6-2.8.8-1.2.2-2.3.7-3.5.5-.9-.2-1.8-.5-2.5-1.1-.9-.7-1.9-1.3-3-1.8-.6-.3-1.1-.7-1.4-1.4-.2-.7.3-1.5.8-2.1zm4.4 7.5h.4c0 .6-.4 1.1-.6 1.7-.2.4-.3.8-.4 1.1h-.4c.2-1 .5-2 1-2.8zm-12.2 1.9c.5-.3 1.1-.4 1.7-.4 3.3 0 6.4 1.3 9.7 1.4 1.1.2 2.2.3 3.3.6.8.2 1.7.3 2.6.5 1.4.3 2.8.7 4.2 1.1.5.2 1.2.3 1.4.8-.1 0-.2-.1-.2-.1-.6-.1-1.1-.3-1.7-.2-1 0-1.9-.1-2.9-.1-1.6 0-3.1-.2-4.7-.4-2.1-.4-4.3-.7-6.4-1.2l-4.8-1.2c-.8-.2-1.6-.2-2.3-.3.1-.2.1-.4.1-.5zm-14.6 8.3c.5.1.9.6 1.2.9 1.2 1.4 2.6 2.6 4 3.8 1.1 1.1 2 2.3 3.2 3.3 1.1 1 2.2 2 3.3 2.9 1.2 1.1 2.5 2.1 3.8 3.1.8.6 1.7 1.1 2.6 1.6 1.9 1.1 4 1.8 6.2 2.3.6.1 1.1.2 1.7.2.8.1 1.6-.2 2.4-.2.6 0 1.1-.3 1.7-.5 1-.4 1.9-.8 2.7-1.4.7-.5 1.5-.8 2.3-1.3 1.2-.7 2.3-1.6 3.5-2.3 1.2-.7 2.3-1.6 3.4-2.5l5.1-3.9c.3-.2.6-.5.9-.7h.2v.2c-.7.8-1.6 1.4-2.4 2.1-.9.8-1.8 1.6-2.7 2.3-.9.6-1.7 1.3-2.6 2-1.1.8-2.3 1.5-3.4 2.3-1.6 1.2-3.3 2.1-5 3.1-1 .5-2 .8-3 1.2-.6.2-1.3 0-1.9.2-1.3.4-2.7.1-4-.3-3.5-.8-6.7-2.6-9.4-4.9-.8-.6-1.6-1.3-2.4-2-1.1-.9-2.2-1.9-3.3-2.9-1.6-1.4-3-3.1-4.6-4.7l-3.3-3.6c-.2 0-.2-.2-.2-.3z"/><path fill="#b95d38" d="M84 114.9c1.7-.3 3.5-.4 5.2 0 1.2.3 2.4.5 3.6.9.1 0 .2.1.4.1l.9.3c.1 0 .2.1.3.1 0 0-.1.1-.1.2l-.9-.3c-.3-.1-.6-.1-1-.2-1.8-.4-3.6-.8-5.4-.8-1.1 0-2.2.1-3.3 0 0-.1 0-.2.1-.2-.1 0 0-.1.2-.1z"/><path fill="#cc492f" d="M137.2 83.4c-.1-1.4-1.2-2.7-2.6-2.9-1.3-.2-3.3.1-4.2 1.2-.3.4.2.9.5.5.4-.5 1-.7 1.7-.9.7-.1 1.4-.3 2.1-.1 1.4.3 2 1.9 1.7 3.2-.3 1.4-1.2 2.5-2.2 3.4-1.1 1-2.3 1.9-3.6 2.7-.4.3 0 .9.4.6 1.5-1 3-2.1 4.3-3.4 1.1-1.1 2-2.6 1.9-4.3zM56 76.2c-.6-1.4-1.2-2.8-2-4-.7-1.1-1.6-2.2-2.8-2.9-.4-.2-.8.4-.4.6 1.2.7 2 1.8 2.7 3 .7 1.2 1.4 2.5 1.9 3.9 1 2.7 1.6 5.5 1.6 8.4 0 .5.7.5.7 0 0-3.1-.6-6.1-1.7-9z"/></g></svg>