<?xml version="1.0" encoding="utf-8"?>
<!-- Generator: Adobe Illustrator 25.2.0, SVG Export Plug-In . SVG Version: 6.00 Build 0)  -->
<svg version="1.1" id="Layer_1" xmlns="http://www.w3.org/2000/svg" xmlns:xlink="http://www.w3.org/1999/xlink" x="0px" y="0px"
	 viewBox="0 0 180 180" style="enable-background:new 0 0 180 180;" xml:space="preserve">
<style type="text/css">
	.st0{clip-path:url(#SVGID_2_);}
	.st1{fill:#4E3E37;}
	.st2{fill:#56A2B0;}
	.st3{fill:#F2844F;}
	.st4{fill:#E56324;}
	.st5{fill:#FCB796;}
	.st6{fill:#201A17;}
	.st7{fill:#150F0C;}
	.st8{fill:#FCB391;}
	.st9{fill:#B95D38;}
	.st10{fill:#CC492F;}
	.st11{fill:#F95939;}
	.st12{fill:#FCBC9D;}
	.st13{fill:#FFFFFF;}
	.st14{fill:#FA7D62;}
	.st15{fill:#B75C38;}
	.st16{fill:#A33E29;}
	.st17{fill:#FB9D7B;}
	.st18{fill:#2B5D66;}
	.st19{fill:#FEF3DB;}
	.st20{fill:#3C6971;}
	.st21{fill:#517981;}
	.st22{fill:#FEF2DB;}
	.st23{fill:#467179;}
	.st24{fill:#5A8188;}
</style>
<g>
	<defs>
		<rect id="SVGID_1_" width="180" height="180"/>
	</defs>
	<use xlink:href="#SVGID_1_"  style="overflow:visible;fill:#43D176;"/>
	<clipPath id="SVGID_2_">
		<use xlink:href="#SVGID_1_"  style="overflow:visible;"/>
	</clipPath>
	<g class="st0">
		<g>
			<path class="st1" d="M90,25.6c1.5-0.2,3.1-0.4,4.6-0.3c0.9,0.2,1.9-0.1,2.8,0.1c1.7,0.2,3.4,0.3,5.1,0.9c2.2,0.7,4.4,1.5,6.5,2.4
				c3.1,1.3,6.1,2.9,8.7,5c2.5,1.8,4.5,4,6.4,6.4c1.6,2,3.3,4.1,4.4,6.4c0.7,1.4,1.3,2.9,1.8,4.4c0.8,1.9,1.4,4,1.8,6
				c0.6,3.1,0.9,6.2,0.9,9.4c0,2.4-0.3,4.8-0.5,7.2c-0.2,1.8-0.4,3.6-0.8,5.3c-0.6,2.2-1.1,4.5-2,6.6c-0.5,1.3-1.1,2.5-1.6,3.7
				c-0.8,1.8-1.7,3.5-2.7,5.2c-1.1,1.9-2.1,3.9-3.3,5.8c-0.7,1.2-1.5,2.3-2.2,3.5c0.6,0,0.7-0.7,1.3-0.7c0.1,0,0.3,0.1,0.4,0.1
				c0.1,0.1,0.2,0.3,0.3,0.4c0.3-0.4,0.8-0.7,1-1.1c0.9-2.3,1.9-4.5,2.5-6.9c0.1,0,0.2,0,0.3,0c0.2,0.8-0.1,1.6-0.3,2.3
				c-0.4,1.6-1,3.2-1.6,4.8c-0.2,0.4,0,0.8-0.2,1.1c-0.3,0.5-0.7,1-0.9,1.5c-0.5,1.2-1.1,2.3-1.7,3.4c-0.6,1.2-1,2.5-1.6,3.7
				c-0.9,2-1.9,4-2.7,6.1c-0.7,1.7-1.2,3.4-1.6,5.1c-0.3,1.1-0.5,2.3-0.6,3.4c-0.1,0.7-0.3,1.4-0.1,2c0.8,2.9,1.4,5.9,1.1,9
				c0,1.6-0.2,3.2-0.4,4.8c-0.2,1.3-0.7,2.6-1.2,3.9c-0.4,0.8-0.7,1.6-1.1,2.4c-0.8-0.7-1.6-1.3-2.2-2.2c-1.3-1.9-2.3-3.9-3.1-6
				c-0.3-0.9-0.5-1.8-0.8-2.7c-0.3-1.3-0.5-2.7-0.7-4.1c-0.4-2.7-0.1-5.5-0.1-8.3c0-1,0.1-2.1,0.1-3.1c0.9-0.3,2-0.5,2.8-1
				c-0.9,0-1.9,0.3-2.8,0.5c0-1.2,0.2-2.4-0.1-3.6c-0.1-0.4-0.2-0.8-0.3-1.1c-1.3,0.2-2.6,0.7-3.9,1c-0.9,0.2-1.8,0.4-2.7,0.3
				c-1.3-0.1-2.6-0.3-3.8-0.2c-1.5,0.2-3.1,0.2-4.6,0.4c-1.1,0.1-2.3,0.2-3.3-0.2c-1-0.4-2-0.7-2.9-1.3c-1-0.6-2-1.3-2.9-2
				c-2.1-1.6-4.3-2.8-6.3-4.4c-1.2-1-2.4-2.1-3.5-3.2c-2.5-2.5-5.2-4.8-7.9-7.1c-1.3-1.1-2.5-2.2-3.7-3.4c-1.3-1.4-2.1-3.2-2.8-4.9
				c-0.6-1.7-1.3-3.4-1.6-5.3c-0.4-1.4-0.6-2.9-0.9-4.4c-0.4-2.6-0.7-5.1-1.1-7.7c-0.3-2.1-0.4-4.2-0.4-6.3c0.2-3,0.5-6,0.8-9
				c0.4-2.4,0.7-4.9,1.5-7.2c0.8-2.1,1.7-4.2,2.7-6.1c2.2-3.9,5-7.5,8.2-10.5c1.8-1.5,3.6-2.9,5.6-4.1c0.9-0.6,2-1,3-1.5
				c1.2-0.7,2.4-1.3,3.8-1.8c1-0.3,2-0.7,3-1c1.3-0.3,2.6-0.5,3.9-0.9C87.3,26.1,88.6,25.8,90,25.6z"/>
			<path class="st2" d="M3.9,231.6c0,1.5,0.1,3.1,0.3,4.6c0.1,0.6,0.1,1.1,0.2,1.7h171c0-0.6,0-1.3-0.1-1.9c0-1.1-0.1-2.2-0.1-3.3
				c-0.1-1.1,0-2.2-0.1-3.3c-0.1-1.3,0-2.6-0.2-3.9c-0.1-4.3-0.5-8.7-0.9-13c-0.4-3.9-0.8-7.7-1.6-11.5c-0.9-4.4-1.6-8.8-3.3-12.9
				c-0.8-1.9-1.5-3.8-2.6-5.6c-0.9-1.5-2-2.9-3.2-4.3c-2.9-3.4-6.2-6.5-9.9-8.9c-1.8-1.2-3.7-2.1-5.6-3.1c-1.7-0.8-3.5-1.5-5.4-2.2
				c-1.1-0.4-2.1-0.8-3.2-1.1c-2.3-0.6-4.4-1.6-6.6-2.4c-1.2-0.5-2.5-1-3.7-1.6c-3.8-1.9-7.5-4-11-6.4c-1.8-1.1-3.6-2.4-5.2-3.8
				c-0.8-0.7-1.6-1.3-2.2-2.2c-1.3-1.9-2.3-3.9-3.1-6c-0.3-0.9-0.5-1.8-0.8-2.7c-0.3-1.3-0.5-2.7-0.7-4.1c-0.4-2.7-0.1-5.5-0.1-8.3
				c0-1,0.1-2.1,0.1-3.1c0.9-0.3,2-0.5,2.8-1c-0.9,0-1.9,0.3-2.8,0.5c-2.3,0.5-4.6,1-6.9,1.6c-4.3,1.1-8.5,2.5-12.4,4.5
				c-3.5,1.8-6.9,3.8-10.3,5.9c-2,1.3-3.9,2.6-5.7,4.2c-1.4,1.3-2.6,2.9-3.8,4.3c-0.6,0.7-1.5,1-2.2,1.6c-1.1,0.8-2.1,1.7-3.1,2.7
				c-2.4,2.3-5,4.4-7.7,6.3c-1.7,1.2-3.4,2.4-5.3,3.4c-1.7,0.9-3.5,1.9-5.2,2.8c-3.8,2.1-7.7,3.9-11.4,6c-4.1,2.2-8,4.5-11.7,7.3
				c-2.9,2.3-5.6,5.1-7.8,8.1c-1.2,1.7-2.4,3.4-3.4,5.3c-0.9,1.7-1.4,3.5-2,5.4c-1,3.2-1.5,6.5-1.9,9.8c-0.3,2.5-0.7,5-0.9,7.6
				c-0.2,3-0.5,6-0.5,9c0,1.5-0.2,3.1-0.1,4.6c-0.1,1.7-0.1,3.3-0.1,5C3.9,228.7,3.8,230.2,3.9,231.6z"/>
		</g>
		<g>
			<path class="st3" d="M89.6,45c2.8-0.2,5.6-0.2,8.4,0.2c2.3,0.3,4.6,0.8,6.8,1.6c1,0.4,2,0.8,3,1.3c1.4,0.6,2.7,1.5,3.9,2.5
				c1.3,0.9,2.6,2,3.7,3.2c1,1.4,1.9,2.8,2.7,4.4c0.3,0.6,0.4,1.2,0.7,1.8c1.2,3.1,1.6,6.4,2.1,9.7c0.4,2.5,1,4.9,1.5,7.3
				c0.3,1.6,0.8,3.2,1.2,4.8c0.2,0.9,0.6,1.7,0.7,2.6c0.1,0.7,0.2,1.5,0.4,2.2c0.1-0.1,0.2-0.1,0.3-0.2c0-0.1,0.1-0.2,0.1-0.3
				c0,0.5-0.1,0.9-0.2,1.4c-0.2,2.4-0.8,4.9-1.4,7.2c-0.9,3.1-1.9,6.2-3.2,9.2c0.2,0,0.3,0,0.5,0c-0.2,0-0.3,0-0.5,0
				c-0.8,1.8-1.6,3.7-2.5,5.5c-0.5,1-1,1.9-1.5,2.9c-0.7,1.5-1.6,3-2.4,4.5c-0.7,1.5-1.7,2.8-2.7,4.2c-1.3,1.8-2.8,3.5-4.2,5.2
				c-1.2,1.3-2.6,2.4-4,3.5c-1.2,0.8-2.4,1.6-3.6,2.3c-0.9,0.6-2,0.9-3,1.2c-0.8,0.2-1.5,0.5-2.3,0.6c-0.4,0.1-0.8,0.1-1.1,0.3
				c-0.8-0.1-1.5-0.1-2.3-0.2c-2.4-0.4-4.7-1.1-6.9-2.2c-1.6-0.8-3-1.8-4.5-2.7c-1.8-1.2-3.4-2.6-4.9-4c-1.4-1.3-2.6-2.8-3.9-4.2
				c-1-1.1-1.8-2.5-2.8-3.6c-0.1-0.6-0.4-1.3-0.9-1.7c0,0-0.2-0.1-0.2-0.1c-1.8-2.6-3.2-5.5-4.5-8.4c-0.5-1-0.8-2.1-1.2-3.2
				c-0.3-0.9-0.6-1.7-0.7-2.6c-0.2-0.8-0.5-1.6-0.6-2.5c-0.7-2.6-0.8-5.3-1.1-7.9c-0.2-1.7-0.3-3.4-0.2-5.1c0-0.9,0-1.9,0.2-2.8
				l0-0.2c0,0.1,0.1,0.2,0.2,0.2c0.2-0.6,0.5-1,0.7-1.6c0.3-1.2,0.9-2.3,1.4-3.4c1-2.3,1.7-4.7,2.4-7c0.7-2.3,1.4-4.6,2.2-6.9
				c0.6-2,1.4-4,2.3-5.8c1.1-2.1,2.7-3.9,4.3-5.6c0.5-0.6,1.1-1.1,1.8-1.5c1.4-1,2.9-1.8,4.4-2.6c1.9-1,3.9-1.8,6.1-2.2
				C86,45.6,87.8,45.1,89.6,45z"/>
			<path class="st4" d="M50.6,77c1.2-0.7,2.5-1.3,3.8-1.2c1.5,0,3.2,0.3,4.3,1.5c0,0.8-0.1,1.6-0.2,2.4c-0.1,0.7-0.2,1.3-0.1,2
				c0.1,0.4,0,0.7-0.1,1.1c-0.2,0.9-0.1,1.9-0.2,2.8c-0.1,1.7,0,3.4,0.2,5.1c0.3,2.6,0.4,5.3,1.1,7.9c0.1,0.8,0.5,1.6,0.6,2.5
				c-1-0.1-2.1-0.1-3.1-0.5c-1.9-0.7-3.3-2.1-4.7-3.5c-1.2-1.3-2.3-2.8-3.1-4.4c-0.6-1-1.1-2-1.5-3c-0.5-1.6-1-3.2-0.9-4.9
				c0-1.8,0.5-3.5,1.4-5C48.8,78.7,49.6,77.7,50.6,77z"/>
			<path class="st4" d="M125.4,78.6c1.9-1.5,4.4-2.1,6.8-1.7c1.2,0.2,2.3,0.8,3.2,1.6c0.6,0.5,1.1,1.1,1.5,1.9
				c0.3,0.7,0.5,1.4,0.5,2.1c0.3,2.4-0.3,4.8-1.3,6.9c-1.8,3.7-4.3,7.1-7.2,10c-1.6,1.6-3.5,3-5.6,3.9c-0.8,0.3-1.6,0.6-2.5,0.6
				c-0.2,0-0.3,0-0.5,0c1.3-3,2.3-6.1,3.2-9.2c0.6-2.4,1.2-4.8,1.4-7.2c0-0.5,0.2-0.9,0.2-1.4c0.1-2.3,0.2-4.7,0.1-7
				C125.3,78.9,125.3,78.7,125.4,78.6z"/>
			<path class="st4" d="M84.4,109.7c0.5-0.2,1,0.1,1.5,0.2c1.4,0.3,2.7,0.8,4.1,0.9c1.5,0,2.9-0.5,4.3-1c0.3-0.1,0.9-0.3,0.9,0.1
				c0.1,0.2-0.2,0.3-0.4,0.4c-0.8,0.4-1.7,0.6-2.6,1c-0.4,0.3-0.8,0.4-1.3,0.6c-1.6,0.9-3.2,1.7-5,2c-0.3,0.1-0.7,0.1-0.9,0
				c-0.2-0.1-0.2-0.4-0.3-0.6c-0.1-0.5-0.2-0.9-0.3-1.4c-0.1-0.5,0-1-0.1-1.5C84.3,110.2,84.1,109.9,84.4,109.7z"/>
			<path class="st4" d="M66.6,115.3c0,0,0.1,0,0.2,0.1c0.5,0.4,0.7,1.1,0.9,1.7c1,1.1,1.8,2.5,2.8,3.6c1.3,1.4,2.5,2.9,3.9,4.2
				c1.6,1.4,3.2,2.8,4.9,4c1.5,0.9,2.9,1.9,4.5,2.7c2.2,1.1,4.5,1.8,6.9,2.2c0.8,0.1,1.5,0.1,2.3,0.2c-1,0.6-2.1,0.6-3.1,1
				c-1.1,0.3-2.2,0.8-3.4,1.1c-2.2,0.7-4.3,1.6-6.5,2.5c-2.4,1-4.6,2.3-6.9,3.4c-1.8,1-3.7,1.9-5.5,2.9c-0.9,0.6-1.9,1.1-2.8,1.7
				c-0.3,0.2-0.6,0.5-1,0.6c-0.1,0-0.3-0.1-0.3-0.2c0-0.6,0.4-1.2,0.6-1.7c0.9-1.9,1.4-3.9,1.9-5.8c0.7-2.9,1.2-6,1.5-9
				c0.1-1.2,0.2-2.4,0.3-3.5c0-1.6,0.1-3.2,0-4.7c0-0.9-0.2-1.8-0.3-2.7c-0.1-0.8-0.3-1.6-0.5-2.4C67.1,116.6,66.9,115.9,66.6,115.3
				z"/>
			<path class="st4" d="M90.1,121.8c1.4-0.1,2.7-0.3,4.1-0.4c-0.4,0.9-0.7,1.9-1,2.8c-1-0.2-2-0.3-3-0.2c-0.9,0.1-1.9,0.3-2.8,0.4
				c-0.6-0.8-1-1.8-1.4-2.8C87.3,121.8,88.7,122,90.1,121.8z"/>
		</g>
		<g>
			<path class="st5" d="M76.8,54.1c1.4-1.4,3.4-2.2,5.3-2.5c0,0.1,0,0.2,0,0.3c-0.8,0.3-1.7,0.5-2.4,1c-1.2,0.6-2.3,1.4-3.2,2.3
				c-0.2,0.2-0.5,0.4-0.8,0.6C75.9,55.1,76.4,54.6,76.8,54.1z"/>
			<g>
				<path class="st6" d="M97,28.9c-0.1-1.1-0.1-2.2-0.8-3.1c-0.1,0.5,0.1,0.9,0.2,1.3c0.2,1.3,0.2,2.6,0.3,3.9
					c0,2.4,0.1,4.9-0.1,7.3c-0.1,1.4-0.2,2.8-0.4,4.2c0,0.3-0.1,0.6-0.1,1c-0.1,0.3-0.1,0.6-0.1,0.9c0.1,0,0.2,0,0.3,0
					c0.1-0.2,0.1-0.4,0.2-0.5c0.2-1.1,0.3-2.1,0.5-3.2c0.3-2.7,0.3-5.4,0.2-8.1C97,31.3,97.1,30.1,97,28.9z"/>
				<path class="st6" d="M93.7,27.8c-0.4,1.3-0.8,2.6-1,3.9c-0.3,1.5-0.5,3-0.6,4.5c-0.1,2.2-0.4,4.3-0.3,6.5c0,0.5,0.1,1,0.3,1.5
					c0.1-0.1,0.1-0.2,0.2-0.4c0-0.6,0-1.1,0-1.7c-0.1-1.6,0.1-3.2,0.2-4.8c0.2-2.2,0.4-4.5,1-6.6c0.4-1.3,0.7-2.7,1.2-4
					c0.1-0.2,0.1-0.4,0.1-0.6C94,26.5,93.9,27.2,93.7,27.8z"/>
				<path class="st6" d="M99.7,27.2c-0.2-0.4-0.4-0.8-0.8-1l0,0.2l-0.2,0c0.3,0.8,0.8,1.6,1.1,2.4c0.8,2.5,1.3,5,1.4,7.6
					c0,1.1,0.1,2.2,0.1,3.2c-0.1,1.8-0.1,3.7-0.7,5.4c0,0.1,0.1,0.2,0.1,0.3c0.1,0,0.2,0,0.3-0.1c0.2-0.4,0.3-0.8,0.4-1.2
					c0.3-1.6,0.4-3.3,0.5-5c0.1-2.9-0.2-5.8-1-8.6C100.6,29.3,100.3,28.2,99.7,27.2z"/>
				<path class="st6" d="M90.6,26.5c-0.8,1.7-1.5,3.4-2,5.2c-0.8,2.7-1,5.5-1.2,8.2c-0.1,1.5-0.1,3-0.1,4.4c0,0.3,0.1,0.6,0.3,0.9
					c0.1-1.1,0-2.2,0-3.2c0-0.9,0.1-1.8,0.1-2.7c0.1-0.6,0.1-1.1,0.2-1.7c0.2-2.3,0.7-4.6,1.4-6.8c0.5-1.4,1.1-2.7,1.6-4.1
					c0-0.1-0.1-0.2-0.1-0.3C90.8,26.4,90.7,26.5,90.6,26.5z"/>
				<path class="st6" d="M106.4,35.2c-0.3-2.6-1-5.1-2.1-7.4c-0.3-0.5-0.5-1-1-1.3c0,0.1,0,0.2,0,0.3c1.9,3.5,2.8,7.5,2.9,11.4
					c0,1.9,0.1,3.7-0.3,5.6c-0.1,0.4-0.3,0.9-0.3,1.3l-0.1,0c-0.1,0.4-0.2,0.8-0.3,1.2c0.5,0,0.5-0.6,0.6-1c0.6-1.5,0.8-3.1,0.8-4.7
					C106.6,38.8,106.7,37,106.4,35.2z"/>
				<path class="st6" d="M88.3,26.9c-0.2,0-0.5,0-0.6,0.2c-2.1,2.4-3.7,5.1-4.8,8.1c-0.9,2.3-1.5,4.7-1.6,7.1c-0.1,0.8,0,1.6,0,2.4
					c0,0.5,0.1,0.9,0.2,1.4c0.1,0.1,0.2,0.3,0.3,0.4c0.1-0.1,0.2-0.3,0.3-0.4l-0.2,0c-0.1-0.7-0.1-1.5-0.1-2.2
					c0.1-1.4,0.2-2.8,0.5-4.2c0.6-2.6,1.5-5.1,2.7-7.4c0.8-1.5,1.8-2.9,2.8-4.3C88,27.6,88.3,27.3,88.3,26.9z"/>
				<path class="st6" d="M82.9,28.7c0-0.1,0-0.3,0-0.4c-0.2,0.1-0.4,0.2-0.5,0.3c-0.5,0.5-1,1.1-1.4,1.7c-2.3,3.3-3.6,7.1-4.3,11.1
					c-0.4,1.9-0.5,3.9-0.3,5.8l0,0.1c0,0.4,0.1,0.8,0.4,1c0.1-0.4,0-0.9,0-1.3c0-0.4,0-0.8,0-1.2c0.1-0.5,0.1-1,0.1-1.5
					c0.2-2.6,0.8-5.2,1.6-7.7c0.7-2.1,1.7-4.1,2.9-5.9C81.8,30,82.3,29.2,82.9,28.7z"/>
				<path class="st6" d="M73.7,35.3c0.7-1.7,1.5-3.4,2.8-4.8c0-0.1,0-0.2,0-0.3c-0.1,0-0.2,0-0.2,0c-0.6,0.5-1.1,1.1-1.5,1.7
					c-1,1.7-1.7,3.6-2.4,5.4c-0.9,2.6-1.3,5.4-1.4,8.2c0,1.8,0.1,3.8,0.9,5.5c0.1,0,0.2,0,0.4,0c-0.1-0.1-0.2-0.3-0.3-0.4
					c-0.7-2.6-0.7-5.3-0.4-8C71.9,40.2,72.7,37.7,73.7,35.3z"/>
				<path class="st6" d="M109.1,31.3c-0.4-1.1-1.1-2.2-1.9-3.1c-0.1,0-0.2,0-0.2,0.1c0.2,0.6,0.5,1.1,0.8,1.6
					c0.3,0.6,0.6,1.1,0.8,1.7l0,0c0.8,2.2,1.4,4.4,1.7,6.6c0.3,2.3,0.4,4.7-0.1,7c0,0.2-0.1,0.5-0.1,0.7c-0.1,0.2-0.1,0.5-0.2,0.7
					l0,0c-0.2,0.6-0.3,1.3-0.3,1.9c0.1,0,0.2,0,0.2,0c0.1-0.5,0.3-1,0.4-1.5c0-0.1,0-0.3,0-0.4l0,0.2c0.3-0.9,0.4-1.9,0.5-2.8
					c0.2-1.3,0.2-2.7,0.2-4.1C111,36.9,110.2,34,109.1,31.3z"/>
				<path class="st6" d="M112.9,31.7c-0.3-0.4-0.6-0.8-0.9-1.2c-0.1,0-0.2,0-0.3,0c0.2,0.6,0.6,1.1,0.9,1.6l0-0.1
					c0.2,0.6,0.6,1.1,0.8,1.7c0.8,1.9,1.3,3.9,1.4,6c0.1,1.1,0.1,2.3,0.1,3.4c-0.1,0.5-0.1,0.9-0.1,1.4l-0.1-0.2
					c-0.3,2-0.7,4-1.4,5.9c0.1,0,0.2,0,0.3,0c0.4-0.6,0.6-1.4,0.7-2.1c0.2-0.6,0.3-1.2,0.4-1.8l0-0.1c0.1-0.6,0.2-1.2,0.3-1.8
					c0.4-2.5,0.4-5.2-0.1-7.7C114.7,35.1,114,33.3,112.9,31.7z"/>
				<path class="st6" d="M68.7,38.9c0.7-1.9,1.5-3.8,2.8-5.5c0-0.1,0.1-0.2,0.1-0.3c-0.2,0-0.5,0-0.6,0.2c-0.9,1.1-1.5,2.3-2.1,3.6
					c-0.9,2.2-1.5,4.5-1.9,6.8c-0.3,1.9-0.5,3.8-0.4,5.6c0.1,2,0.5,4,1.1,5.9c0,0,0.1,0.1,0.1,0.2c0.1,0.4,0.2,0.9,0.6,1.2
					c0-0.5-0.1-1-0.3-1.5l0,0.1c0-0.4-0.2-0.8-0.3-1.2c-0.6-2.3-0.9-4.7-0.7-7C67.3,44.3,67.8,41.5,68.7,38.9z"/>
				<path class="st6" d="M119.5,42.1c0-1.3-0.1-2.6-0.3-3.9c-0.2-1-0.4-2.1-0.8-3c-0.3-0.6-0.6-1.2-1.1-1.6
					c-0.1-0.1-0.2-0.2-0.3-0.3c-0.1,0-0.2,0-0.3,0.1c0.1,0,0.2,0.1,0.2,0.1c0,0.1-0.1,0.2-0.1,0.2l0.1,0c1,1.3,1.4,3,1.6,4.5
					c0.3,1.6,0.3,3.2,0.4,4.8c0.1,2.2-0.2,4.5-0.9,6.6c-0.3,1.3-0.9,2.5-1.6,3.7c-0.1,0.2-0.4,0.5-0.1,0.7c0.3,0,0.4-0.3,0.5-0.6
					c1.1-1.8,1.8-3.8,2.2-5.9C119.6,45.7,119.7,43.9,119.5,42.1z"/>
				<path class="st6" d="M65.3,37.9c-0.9,2.3-1.6,4.7-2,7.2c-0.3,1.7-0.5,3.3-0.5,5c0,1.3,0.1,2.7,0.3,4c0.2,1.7,0.7,3.3,1.2,4.9
					c0.2,0.8,0.6,1.5,1.1,2.1c0.1,0,0.2-0.1,0.3-0.1c-0.5-0.6-0.6-1.4-0.8-2.1c-0.9-2.7-1.5-5.5-1.5-8.3c0-0.7,0-1.4,0-2l0.1,0
					c0.3-3.6,1.1-7.1,2.3-10.4c0.1-0.2,0.1-0.4,0.1-0.7C65.6,37.5,65.4,37.6,65.3,37.9z"/>
				<path class="st6" d="M121.4,55.7c1.5-3.3,2.3-7,2.2-10.7c-0.1-1.4-0.2-2.8-0.4-4.2c-0.1-0.9-0.5-1.8-0.7-2.7
					c-0.1-0.3-0.2-0.6-0.3-0.8c-0.1,0-0.2,0-0.3,0c0.1,0.4,0.2,0.8,0.3,1.2l0-0.2c0,0.7,0.3,1.3,0.4,1.9c0.3,1.5,0.4,2.9,0.4,4.4
					c0.2,3.3-0.3,6.7-1.5,9.9c-0.4,1.1-0.9,2.2-1.5,3.1c-0.1,0.1-0.2,0.3-0.2,0.4l0-0.1c-0.2,0.3-0.4,0.6-0.6,1
					c0.3,0,0.5-0.2,0.7-0.4l0-0.1C120.5,57.7,120.9,56.7,121.4,55.7z"/>
				<path class="st6" d="M123.2,60.9c1.4-2.4,2.4-4.9,3-7.6c0.5-1.7,0.7-3.5,0.7-5.3c0-1.3,0-2.7-0.2-4c0-0.1,0-0.3-0.1-0.4
					c-0.1-0.3-0.2-0.8-0.6-0.7c0.1,0.5,0.2,1,0.3,1.5c0,2.3,0.2,4.7-0.3,7c-0.5,2.6-1.3,5.2-2.5,7.6c-0.7,1.4-1.4,2.9-2.6,3.9
					c0,0.1,0,0.2,0,0.3c0.2,0,0.4,0,0.5-0.2C122.2,62.4,122.8,61.7,123.2,60.9z"/>
				<path class="st6" d="M125.3,65.4c1.1-1.6,1.9-3.4,2.5-5.2c0.6-1.6,1.1-3.2,1.6-4.8c0.3-1.1,0.6-2.2,0.6-3.3
					c0.1-0.4,0.1-0.9,0-1.3c0-0.2,0-0.4,0-0.6c-0.1,0-0.2,0-0.3,0l0-0.2c-0.2,0.4,0,0.8-0.1,1.2c0,1.1-0.3,2.1-0.5,3.2
					c-0.6,2.7-1.5,5.3-2.7,7.8c-0.9,2-2.1,3.8-3.6,5.4c-0.5,0.5-1.1,0.9-1.1,1.7C123.1,68.1,124.3,66.8,125.3,65.4z"/>
				<path class="st6" d="M60.5,59.5c-0.4-1.4-0.7-2.8-1-4.2c0-0.5-0.1-1-0.1-1.5c-0.1-1.6,0.1-3.2,0.3-4.9c0.1-0.8,0.3-1.5,0.3-2.3
					l0.1,0c0.1-0.9,0.3-1.8,0.6-2.6c0.1-0.2,0.1-0.4,0.1-0.6c-0.7,0.9-1,2.1-1.1,3.3c-0.6,2.4-0.8,4.8-0.7,7.3
					c0,0.7,0.1,1.5,0.3,2.2c0,0.1,0,0.2,0,0.3c0.5,3,1.4,6,3.1,8.5c0.6,0.8,1.1,1.6,1.8,2.2c0-0.1,0-0.2,0-0.3
					c-0.5-0.6-0.9-1.4-1.3-2.1C61.9,63.2,61,61.4,60.5,59.5z"/>
				<path class="st6" d="M129.8,65.2c1.1-2.1,1.9-4.4,2.3-6.7c0.1-0.4,0.1-0.8,0.1-1.2c-0.1,0-0.2,0-0.3,0c-0.1,0.3-0.1,0.6-0.2,0.9
					c-0.6,2.6-1.5,5.2-2.8,7.6c-1,1.9-2.2,3.7-3.6,5.4c-0.8,0.9-1.8,1.9-2.9,2.4c0,0.1,0,0.2,0,0.3c0.7,0,1.2-0.5,1.7-0.9
					c0.7-0.6,1.4-1.3,2-2C127.5,69.3,128.8,67.3,129.8,65.2z"/>
				<path class="st6" d="M61.1,73.4c-0.4-1.5-1.1-2.9-2-4.2c-1.3-1.9-2.3-4-3.1-6.2c-0.5-1.4-0.9-2.9-1.2-4.4c0-0.5,0-0.9-0.1-1.4
					c-0.1,0-0.2,0-0.2,0c-0.1,0.6-0.2,1.3,0.1,1.9c0,0.7,0.2,1.5,0.4,2.2c0.5,2,1.2,3.9,2.2,5.6c1.1,2.2,2.7,4.1,3.6,6.3l0.1,0
					c0,0.1,0,0.2,0,0.2c0.1,0,0.2,0,0.3,0c0,0,0-0.1,0-0.1L61.1,73.4z"/>
				<path class="st6" d="M132.4,65.3c-0.7,2-1.5,4-2.6,5.9c-1,1.8-2.1,3.4-3.5,4.9c-0.4,0.4-1,0.7-1,1.3c0.1,0,0.2,0,0.4,0
					c1-0.9,1.8-1.9,2.7-2.9c0.9-1.1,1.6-2.3,2.3-3.5c0.6-0.9,1-1.9,1.4-2.9c0.3-0.9,0.7-1.7,0.8-2.7
					C132.7,65.3,132.6,65.3,132.4,65.3z"/>
				<path class="st6" d="M57,73.2c-0.7-1.1-1.5-2.2-2.2-3.3c0-0.2,0-0.3-0.1-0.5c-0.1,0-0.2,0-0.3,0c0,0.2,0,0.5,0.1,0.7l0.1-0.2
					c0,0.5,0.4,0.9,0.6,1.3c0.7,1.1,1.4,2.2,2.1,3.3c0.4,0.6,0.9,1.1,1.2,1.6c0.1,0.2,0.3,0.4,0.5,0.6c0-0.2,0-0.3-0.1-0.5
					C58.3,75.2,57.7,74.2,57,73.2z"/>
			</g>
			<path class="st1" d="M105.1,76.7c1.6-0.7,3.2-1.2,5-1.1c1.3,0,2.5,0.4,3.7,0.9c1.2,0.5,2.5,0.9,3.6,1.6c0.2,0.1,0.3,0.3,0.4,0.4
				c-1.6,0.1-3.2-0.3-4.9-0.5c-1.8-0.2-3.7-0.2-5.4,0.3c-3.5,1-6.8,2.6-10.4,3.5c0-0.2,0-0.3,0-0.5c1.3-0.8,2.6-1.4,3.8-2.3
				C102.3,78.2,103.7,77.4,105.1,76.7z"/>
			<path class="st1" d="M83.2,79.4C83,79,82.6,79,82.3,78.9c-0.2-0.1-0.4-0.2-0.6-0.3c-1.8-0.8-3.4-2.1-5.3-2.6
				c-1.8-0.5-3.7-0.8-5.6-0.5c-1.9,0.5-3.8,1.3-5.5,2.4c-0.6,0.3-1.2,0.6-1.6,1.1c0.8,0.3,1.6,0.1,2.4,0c0.7-0.1,1.4-0.2,2.1-0.3
				c1.4-0.3,2.9-0.4,4.4-0.4c1.4,0,2.9,0.2,4.3,0.4c1.7,0.3,3.5,0.6,5.3,0.7c0.3-0.1,0.5,0,0.8,0l0-0.1L83.2,79.4z"/>
			<path class="st7" d="M106.4,86.7c0.4-0.4,1.2-0.4,1.4,0.2c0.2,0.6,0.5,1.2,0.5,1.8c-0.2,0.6-0.3,1.2-0.3,1.8
				c-0.1,0.4-0.4,0.7-0.8,0.9c-0.5,0.2-1,0-1.3-0.5c-0.4-0.7-0.4-1.6-0.3-2.3C105.8,87.9,105.9,87.2,106.4,86.7z"/>
			<path class="st7" d="M72.4,87.4c0.4-0.1,0.9,0.2,1.1,0.6c0.3,0.6,0.3,1.3,0.2,2c0,0.4-0.1,0.9-0.4,1.2c-0.5,0.6-1.6,0.5-1.9-0.2
				c-0.4-0.8-0.3-1.8-0.1-2.7C71.5,87.9,72,87.6,72.4,87.4z"/>
			<path class="st8" d="M108.3,88.7c0.2-0.1,0.5-0.2,0.8-0.1c0.4,0.3,0.2,0.8,0.1,1.2c-0.1,0.4-0.4,0.7-0.7,0.9
				c-0.1-0.1-0.3-0.2-0.4-0.3C108,89.9,108.1,89.3,108.3,88.7z"/>
			<path class="st9" d="M104.3,92.7c2.1,0,4.3-0.2,6.2-1.1c0,0.1,0,0.2-0.1,0.3c-0.3,0.3-0.8,0.4-1.2,0.6c-1.6,0.5-3.3,0.9-4.9,0.4
				C104.4,92.9,104.3,92.8,104.3,92.7z"/>
			<path class="st9" d="M70.1,93.1c1.8,0.4,3.8,0.2,5.6-0.5c0,0.1,0,0.2,0,0.3c-0.9,0.5-1.8,0.8-2.8,0.9c-0.9,0.1-1.9,0-2.8-0.4
				C70.1,93.3,70.1,93.2,70.1,93.1z"/>
			<path class="st5" d="M65.2,92.8c0.1,0,0.2,0,0.3,0c0.6,0.6,1.2,1.2,1.9,1.6c1,0.6,2.1,1,3.2,1.3c0,0.1,0,0.2,0,0.4
				c-1.1-0.1-2.2-0.5-3.2-1C66.4,94.8,65.4,94,65.2,92.8z"/>
			<g>
				<path class="st10" d="M55.5,92.3c-1.2-1.6-2.1-3.6-2.3-5.6c0-1-0.1-2.1,0.3-3c0.4-1,1.4-1.8,2.4-2.2c0.5-0.2,1-0.2,1.4-0.2
					c0-0.2,0-0.4-0.2-0.5c-0.4-0.3-0.9-0.2-1.3-0.1c-1.6,0.4-3,1.7-3.5,3.4c-0.6,1.8-0.3,3.8,0.4,5.5c0.8,1.8,1.9,3.6,3.6,4.8
					c0.4,0.3,0.7,0.6,1.2,0.6c0-0.1,0-0.3,0-0.4C56.8,93.8,56.1,93.1,55.5,92.3z"/>
				<path class="st10" d="M131.1,83.2c-0.7-1-2.1-1.4-3.3-1.1c-0.3,0.1-0.9,0.4-0.5,0.8c0.7-0.3,1.4-0.2,2.1,0
					c0.7,0.2,1.2,0.8,1.4,1.5c0.4,1.9-0.1,3.8-0.8,5.6c-0.9,2-2.2,3.9-3.4,5.7c-0.4,0.3-0.7,0.7-1,1.1c0.2,0,0.4,0,0.6-0.1
					c0.4-0.4,0.9-0.8,1.2-1.3c0.2-0.2,0.4-0.4,0.5-0.7c0.9-1.2,1.7-2.5,2.5-3.8c0.8-1.4,1.4-3,1.5-4.6
					C131.7,85.3,131.7,84.1,131.1,83.2z"/>
			</g>
			<path class="st11" d="M108,96.1c1.5-0.2,2.9,0.2,4.2,0.8c1.3,0.6,2.4,1.7,2.9,3.1c0.4,0.9,0.4,1.9,0.3,2.9
				c-0.2,1.1-0.5,2.3-1.1,3.2c-0.4,0.7-1.1,1.3-1.7,1.9c-0.9,0.8-2.3,1.1-3.5,1.2c-1.2,0-2.5-0.3-3.5-1c-0.8-0.5-1.4-1.2-1.9-2
				c-0.8-1-1.3-2.2-1.3-3.4c-0.1-1.6,0.7-3.2,1.7-4.4C105.2,97.2,106.5,96.3,108,96.1z"/>
			<path class="st12" d="M90,97.1c0.1,0,0.2,0,0.3,0c0.4,1.5,0.1,3,0.1,4.4c-0.1,1,0,2.1-0.2,3.1c-0.1,0-0.2,0-0.3,0
				c-0.1-1.5,0-3.1-0.1-4.6C89.8,99.1,89.8,98.1,90,97.1z"/>
			<path class="st11" d="M71.1,98c1.5-0.4,3.1,0.1,4.5,0.8c1.1,0.6,2.1,1.5,2.8,2.5c1,1.4,1.1,3.4,0.5,5c-0.5,1.5-1.8,2.6-3.2,3.3
				c-1.4,0.6-3.1,0.9-4.6,0.4c-1.6-0.5-3.2-1.3-4.3-2.6c-1-1.2-1.1-2.9-0.7-4.3c0.4-1.5,1.3-2.7,2.4-3.8
				C69.2,98.7,70.2,98.3,71.1,98z"/>
			<path class="st13" d="M110.8,99.7c0.3,0.2,0.6,0.5,0.8,0.7C111.3,100.3,111,100,110.8,99.7z"/>
			<path class="st14" d="M71,100c0.1,0,0.3,0,0.2,0.1c-0.2,0.1-0.4,0.2-0.5,0.1C70.7,100.1,70.9,100,71,100z"/>
			<path class="st13" d="M106.5,106.3c0.4,0.1,0.8,0.2,1.2,0.4C107.3,106.6,106.9,106.5,106.5,106.3z"/>
			<path class="st15" d="M97.3,107.4c0-0.5-0.2-1.1-0.3-1.6c-0.1,0-0.2,0-0.3,0c0,0.5,0.1,1,0.1,1.5c-0.1,0.4-0.1,1-0.4,1.3
				c-0.3,0.3-0.7,0.7-1.1,0.8c-0.5,0.1-1.1,0.2-1.6,0.4c-0.7,0.3-1.5,0.7-2.3,0.7c-2.2,0.1-4.2-0.8-6.4-1c-0.3,0-0.7,0.1-1-0.3
				c-0.6-0.8-0.3-1.9-0.2-2.8c-0.1,0-0.3,0-0.4,0c-0.5,0.6-0.6,1.4-0.5,2.2c0.1,0.4,0.2,0.9,0.7,1.1c0.9,0.5,2,0.6,3,0.8
				c1.5,0.4,3.1,0.6,4.6,0.7c1.3,0,2.5-0.7,3.7-1.2c0.7-0.2,1.6-0.3,2.1-1C97.3,108.6,97.5,107.9,97.3,107.4z"/>
			<path class="st15" d="M89.5,113c0-0.5,0-1.1,0.5-1.4c0.1,0.1,0.3,0.2,0.4,0.3c0.1,0.4,0,0.8-0.1,1.2c-0.1,0.7-0.2,1.4-0.5,2.1
				c-0.2,0-0.3,0-0.5,0C89.4,114.5,89.4,113.7,89.5,113z"/>
			<path class="st11" d="M86.7,115.7c1.4-0.2,2.9-0.3,4.4-0.2c1.2,0,2.4,0.3,3.5,0.4c1.4,0.2,2.7,0.6,4.1,1c0.3,0.1,0.5,0.4,0.6,0.6
				c0,0.3-0.1,0.6-0.1,0.9c-0.4,0.5-0.9,0.6-1.4,1c-1,0.7-2.1,1.1-3.3,1.5c-1.9,0.6-3.9,0.5-5.8,0.5c-0.9,0-1.8-0.1-2.7-0.2
				c-1.2-0.1-2.3-0.4-3.5-0.7c-0.8-0.2-1.5-0.6-2-1.2c-0.2-0.3-0.2-0.7,0.1-1c0.4-0.4,1-0.7,1.6-1C83.6,116.5,85.1,116.1,86.7,115.7
				z"/>
			<path class="st16" d="M90.4,117c0.2,0,0.4,0,0.6,0c0.7,0,1.4-0.1,2.2,0c1.5,0,2.9,0.2,4.4,0.3c0.6,0,1.1,0.2,1.6,0.4
				c-0.1,0.2-0.2,0.5-0.5,0.4c-1.6,0-3.2-0.3-4.8-0.3c-2.4-0.1-4.8,0.1-7.2,0.3c-1.6,0.2-3.3,0.4-4.9,0.9c-0.4,0.1-0.8,0.3-1.2,0.2
				c-0.3-0.2-0.1-0.6,0.2-0.7c1.6-0.5,3.2-1,4.8-1.1C87.2,117.2,88.8,117.3,90.4,117z"/>
			<path class="st17" d="M89.3,119c1.6,0.1,3.2-0.1,4.8-0.2c-0.4,0.4-1,0.4-1.6,0.5c-0.7,0.1-1.4,0.2-2.1,0.1
				c-0.6-0.1-1.2,0.1-1.8-0.2C88.7,118.9,89.1,119,89.3,119z"/>
			<path class="st9" d="M105.5,127.8c-1.3,1-2.7,2-4.1,2.8c-1.2,0.7-2.4,1.4-3.7,2c-0.8,0.4-1.7,0.6-2.6,0.9
				c-1.2,0.2-2.4,0.5-3.6,0.3c-1-0.2-2.1-0.2-3.1-0.5c-1-0.3-1.9-0.5-2.9-0.8c-1.3-0.5-2.6-1-3.9-1.7c-0.7-0.4-1.3-0.8-2-1.2
				c-1.4-0.9-2.7-1.8-3.9-2.9c-0.8-0.7-1.6-1.5-2.3-2.3c-0.8-0.9-1.6-1.8-2.3-2.7c-1-1.3-2-2.5-3-3.9c0.7,1.5,1.7,2.9,2.7,4.2l0,0
				c0.5,0.7,1.1,1.4,1.7,2.1c1.1,1.4,2.4,2.8,3.8,3.9c0.9,0.7,1.8,1.4,2.8,2c0.8,0.5,1.6,1.1,2.5,1.6c1,0.5,2,0.9,3,1.3
				c1.2,0.5,2.5,0.8,3.8,1.2c1.3,0.3,2.5,0.4,3.8,0.5c1.3,0.1,2.5-0.1,3.7-0.6c1.4-0.4,2.6-1.1,3.9-1.8c0.8-0.4,1.6-0.8,2.3-1.4
				c0.2-0.1,0.3-0.2,0.4-0.3c0.9-0.8,1.8-1.6,2.7-2.3C105.5,128,105.5,127.9,105.5,127.8z"/>
			<path class="st18" d="M99.2,137.1c1.7-1.1,3.3-2.3,5-3.4c0,0.1,0,0.2,0,0.3c-1.8,1.3-3.6,2.7-5.4,4.1c-1.8,1.4-3.6,2.7-5.4,3.9
				c-1.1,0.7-2.3,1.3-3.4,1.9c-3.8,2.3-8,3.8-12.2,5.2c-3.4,1-6.9,1.8-10.4,2.4c-0.1,0-0.2-0.1-0.4-0.1c0.1-0.1,0.1-0.2,0.2-0.3
				c5.3-0.9,10.5-2.3,15.5-4.3c2.1-0.9,4.1-1.8,6.1-2.9c1.7-1,3.5-1.9,5.1-3C95.8,139.6,97.4,138.3,99.2,137.1z"/>
			<path class="st19" d="M79.1,140.2c0.7-0.2,1.5-0.1,2.1,0.3c0.3,0.1,0.5,0.5,0.3,0.8c-0.1,0.3-0.5,0.2-0.8,0.3
				c0,0.2,0.1,0.6-0.2,0.7c-0.5,0.2-1-0.1-1.4-0.3c-0.1,0.3-0.2,0.6-0.3,0.9c-0.2,0.3-0.7,0.2-0.7-0.2c-0.1-0.6,0-1.3,0.3-1.9
				C78.4,140.4,78.8,140.3,79.1,140.2z"/>
			<g>
				<path class="st6" d="M117.3,112c-0.4,1-1,1.9-1.5,2.9c-1.2,2.2-2.1,4.6-2.5,7c-0.2,0.7-0.2,1.4-0.3,2.1
					c-0.2,1.2-0.3,2.5-0.3,3.7c-0.1,0.9,0,1.9,0.1,2.8c0.2,1.3,0.5,2.5,0.7,3.8l0,0.1c0,1.1,0.2,2.1,0.1,3.2
					c-0.1,1.1-0.3,2.2-0.6,3.3c-0.3,1.2-0.7,2.4-1.3,3.6c-0.2,0.4-0.5,0.8-0.4,1.2c0.1,0,0.2,0,0.3,0c1.2-2.1,1.8-4.4,2.3-6.7
					c0.3-1.2,0.2-2.4,0.2-3.6c0-0.7,0-1.5-0.2-2.2c-0.2-1.2-0.5-2.5-0.6-3.7c0-1.7-0.1-3.5,0.2-5.2c0.1-0.9,0.1-1.8,0.3-2.6
					c0.2-1,0.4-1.9,0.7-2.9c0.5-1.5,1.1-2.8,1.8-4.2C116.7,113.7,117,112.8,117.3,112C117.3,112,117.3,112,117.3,112z"/>
				<path class="st6" d="M111.4,121.9c-0.1,0.1-0.2,0.1-0.3,0.2c-0.4,1.3-0.7,2.7-0.8,4.2c-0.1,1.4-0.2,2.8,0,4.2
					c0,0,0.1,0.1,0.1,0.1c0,0,0,0.1,0,0.1c0,1.1,0.2,2.1,0.2,3.2c0,1.5,0.1,3.1-0.1,4.6c-0.2,1.5-0.6,3-1.1,4.5
					c-0.1,0.2-0.1,0.4-0.2,0.6c0.3,0,0.5-0.1,0.6-0.3c0.3-0.6,0.5-1.2,0.7-1.8c0.3-1.1,0.7-2.2,0.8-3.3c0.2-1,0.1-2.1,0.1-3.1
					c0-1.7-0.2-3.3-0.4-5c-0.1-2.2,0-4.4,0.4-6.6C111.4,122.9,111.5,122.4,111.4,121.9z"/>
				<path class="st6" d="M108.2,129.4c-0.1,2.2,0.1,4.5,0,6.7c-0.1,1.1-0.2,2.2-0.5,3.2c-0.1,0.2-0.3,0.5,0,0.6
					c0.2,0.1,0.2-0.1,0.4-0.2c0.4-1.2,0.6-2.4,0.7-3.6c0.1-1.1,0.1-2.2,0-3.3c0-2-0.1-4,0.1-6c0.1-0.6,0.2-1.1,0.2-1.7
					c-0.1,0-0.2,0-0.3,0C108.3,126.5,108.2,128,108.2,129.4z"/>
			</g>
			<path class="st18" d="M63.2,147.9c0.4-0.2,0.7-0.6,1.2-0.6c0,0.1,0,0.2,0,0.3c-0.7,0.6-1.4,1.1-2.1,1.6c-1.1,0.7-2.1,1.4-3.1,2.2
				c-0.6,0.5-1.4,0.8-1.9,1.5c-0.1-0.1-0.1-0.3-0.2-0.4c0.6-0.7,1.5-1.2,2.2-1.7c0.4-0.3,0.9-0.6,1.3-1
				C61.5,149.1,62.3,148.5,63.2,147.9z"/>
			<path class="st20" d="M59.1,152.7c2.7-0.6,5.4-1.2,8.2-1.6c-0.1,0.1-0.1,0.2-0.2,0.3c0.1,0,0.2,0.1,0.4,0.1
				c-1.6,0.3-3.3,0.5-4.9,0.9c-1.2,0.3-2.5,0.5-3.8,0.8C58.9,153,59,152.8,59.1,152.7L59.1,152.7z"/>
			<path class="st21" d="M56.5,153.4c0.8-0.3,1.7-0.6,2.5-0.7c-0.1,0.1-0.2,0.3-0.3,0.4c-0.8,0.3-1.6,0.5-2.3,0.7
				c-1,0.3-2.1,0.5-3.1,0.9c0,0,0-0.1,0-0.1C54.4,154,55.5,153.8,56.5,153.4z"/>
			<path class="st19" d="M69.4,157c-0.2-0.4,0-0.9,0.4-0.9c0.4-0.1,0.6,0.4,0.9,0.7c0.2-0.1,0.4-0.2,0.6-0.2c0.2,0,0.4,0.1,0.6,0.2
				c0.3-0.1,0.8-0.3,0.9,0.1c0.1,0.5-0.3,0.9-0.7,1.2c-0.4,0.4-1.1,0.2-1.7,0.2C69.9,158,69.6,157.5,69.4,157z"/>
			<path class="st19" d="M54.9,164c0.2-0.3,0.5-0.3,0.8-0.2c0.4,0.2,0.5,0.7,0.7,1c0.4-0.3,0.8-0.9,1.4-0.9c0.4,0.2,0.2,0.8,0.2,1.1
				c0.3,0.1,0.7,0,0.9,0.3c0.1,0.4-0.2,0.7-0.4,1c-0.6,0.5-1.4,0.5-2.2,0.5c-0.3-0.5-1-0.8-1.2-1.4C54.7,165,54.6,164.5,54.9,164z"
				/>
			<path class="st22" d="M129,167.6c0.2-0.1,0.4-0.3,0.7-0.4c0.2,0,0.5,0,0.4,0.3c0.1,0.9-0.5,1.7-1.1,2.3c-0.2,0.2-0.5,0.1-0.7,0.1
				c-0.5-0.1-1-0.2-1.3-0.6c-0.3-0.2-0.4-0.7,0-0.9c0.4-0.1,0.8,0,1.1,0c0-0.4-0.2-0.9,0.2-1.1C128.6,167.3,128.8,167.5,129,167.6z"
				/>
			<path class="st22" d="M106.7,175.5c0.1-0.5,0.8-0.5,1.1-0.1c0.2,0.2,0.3,0.5,0.4,0.7c0.3-0.2,0.5-0.5,0.8-0.7
				c0.3-0.2,0.8-0.1,0.9,0.3c0,0.3,0,0.5-0.1,0.8c0.4,0,0.8,0,1.1,0.1c0.4,0.2,0.3,0.8-0.1,1c-0.7,0.3-1.4,0.3-2.2,0.3
				c-0.6,0-1.1-0.3-1.4-0.8C107,176.7,106.5,176.2,106.7,175.5z"/>
			<path class="st22" d="M33,176.8c0.3-0.2,0.6-0.5,0.9-0.5c0.3,0,0.3,0.4,0.4,0.6c0.3-0.1,0.6-0.3,0.9-0.1c0.1,0.3,0.3,0.8,0,1
				c-0.6,0.6-1.4,1-2.2,1.1c-0.4,0-0.7-0.3-0.9-0.5c-0.4-0.4-0.6-0.9-0.5-1.5c0.1-0.4,0.5-0.6,0.8-0.5
				C32.7,176.5,32.9,176.7,33,176.8z"/>
			<path class="st22" d="M62.3,180c0.2-0.4,0.5-0.9,1-1c0.4,0,0.5,0.3,0.7,0.6c0.3-0.1,0.5-0.3,0.8-0.2c0.3,0.2,0.2,0.6,0.1,0.9
				c-0.3,0.6-0.7,1.2-1.2,1.6c-0.3,0.2-0.6,0.4-0.9,0.3c-0.8-0.2-1.6-0.7-1.9-1.5c-0.1-0.4-0.1-1.1,0.4-1.3
				C61.7,179.3,62,179.7,62.3,180z"/>
			<path class="st22" d="M88,183.4c0.2-0.1,0.5,0.1,0.5,0.3c0,0.3,0,0.6,0,0.8c0.4-0.1,0.9-0.4,1.3-0.3c0.3,0,0.3,0.4,0.1,0.6
				c-0.5,0.7-1.5,1-2.2,1.5c-0.2,0.1-0.6,0.3-0.8,0.1c-0.2-0.3-0.2-0.7-0.5-1c-0.5-0.4-1-0.9-1-1.5c0-0.4,0.6-0.6,0.9-0.4
				c0.3,0.3,0.5,0.7,0.7,1C87.3,184.1,87.5,183.7,88,183.4z"/>
			<path class="st22" d="M146,187.3c0.2-0.1,0.3-0.1,0.5,0c0.3,0.3,0.3,0.7,0.4,1c0.3-0.3,0.6-0.6,1-0.9c0.2-0.1,0.6-0.1,0.6,0.2
				c0,0.5-0.3,1-0.7,1.3c-0.1,0.2-0.4,0.1-0.6,0.2c-0.2,0.3-0.4,0.7-0.7,0.6c-0.5,0-1.1,0.2-1.5-0.2c-0.2-0.2-0.1-0.5,0.1-0.6
				c0.3-0.1,0.6-0.1,0.9-0.1C145.9,188.3,145.8,187.8,146,187.3z"/>
			<path class="st22" d="M124.4,193c0.3-0.1,0.6,0.1,0.7,0.4c0,0.3,0,0.5,0,0.8c0.4,0,0.8-0.1,1.2,0c0.4,0.2,0.3,0.8,0,1
				c-0.5,0.3-1.2,0.4-1.8,0.5c-0.6,0.1-1.2-0.4-1.6-0.8c-0.4-0.3-0.7-0.8-0.6-1.4c0.1-0.3,0.5-0.4,0.7-0.3c0.3,0.2,0.4,0.5,0.6,0.7
				C123.7,193.6,123.9,193.1,124.4,193z"/>
			<path class="st23" d="M98.3,197.5c0.1,0,0.2,0,0.2,0.1c0.7,1.5,1.5,2.9,2.3,4.3c0,0-0.1-0.1-0.2-0.2c0,0.1,0,0.3,0,0.4
				C99.6,200.7,98.9,199.1,98.3,197.5z"/>
			<path class="st24" d="M28.6,202.4c0-0.5,0.1-1,0.3-1.5c0.1,0.1,0.2,0.2,0.2,0.4c0,0.4-0.1,0.7-0.2,1.1c0-0.2,0-0.5-0.1-0.7
				C28.8,201.9,28.7,202.1,28.6,202.4z"/>
			<path class="st18" d="M28.6,202.4c0.1-0.2,0.2-0.5,0.3-0.7c0,0.2,0.1,0.5,0.1,0.7c-0.2,1.6-0.4,3.1-0.8,4.7
				c-0.6,2.4-1.1,4.9-1.6,7.3c-0.6,2.9-1.4,5.8-2.1,8.7c-0.5,2-0.8,3.9-1.3,5.9c-0.1,0.3-0.2,0.6-0.3,0.8c0-0.2,0-0.3-0.1-0.5
				c0.9-5.2,2.1-10.4,3.2-15.6c0.5-2.5,1.1-5,1.7-7.5C28.1,205,28.2,203.7,28.6,202.4z"/>
			<path class="st18" d="M100.5,202.1c0-0.1,0-0.3,0-0.4c0,0,0.1,0.1,0.2,0.2c1,1.5,1.9,3.2,2.6,4.9c1,2.2,1.8,4.5,2.9,6.7
				c1.1,2.2,2.2,4.5,3.5,6.6c1.1,1.8,1.9,3.8,2.9,5.7c1.1,2.3,2.3,4.5,3.7,6.6c0.7,1,1.4,2,2.2,3c0,0.1,0,0.2,0,0.3
				c-0.1,0-0.2,0-0.3,0c-1.4-1.5-2.6-3.2-3.7-5c-1.4-2.3-2.7-4.6-3.8-7c-0.9-2-2.1-3.9-3.1-5.9c-1-2.2-2.2-4.3-3.1-6.5
				c-0.8-1.8-1.5-3.6-2.2-5.4C102,204.5,101.2,203.4,100.5,202.1z"/>
			<path class="st22" d="M66.9,203c0.3-0.4,0.6-0.9,1.1-1c0.4-0.1,0.5,0.3,0.6,0.5c0.3-0.1,0.6-0.3,1-0.2c0.3,0.2,0.3,0.7,0.2,1
				c-0.2,0.5-0.7,0.8-1.1,1c-0.4,0.2-0.9,0.4-1.4,0.4c-0.3,0-0.5-0.2-0.7-0.3c-0.4-0.3-0.8-0.7-0.9-1.2c-0.1-0.2-0.1-0.6,0.2-0.7
				C66.3,202.5,66.6,202.8,66.9,203z"/>
			<path class="st22" d="M89.9,203.4c0.1,0,0.3,0,0.4,0.1c0.1,0.3,0.1,0.7,0.1,1c0.4-0.2,0.9-0.5,1.4-0.3c0.2,0.3,0,0.7-0.2,1
				c-0.4,0.4-0.8,0.8-1.3,1c-0.5,0.2-1-0.2-1.4-0.6c-0.3-0.3-0.8-0.7-0.8-1.2c0-0.3,0.2-0.6,0.5-0.6c0.3,0,0.5,0.3,0.7,0.5
				C89.4,204,89.6,203.6,89.9,203.4z"/>
			<path class="st18" d="M127.2,213.8c0.1,0,0.2,0,0.2-0.1c0.4,1,1.1,1.8,1.8,2.7c1.5,2,3.2,4,4.4,6.3c0.7,1.5,1.3,3,2,4.5
				c0.9,1.9,1.8,3.8,3.1,5.6c0,0.1-0.1,0.3-0.1,0.3c-1.1-1.2-1.9-2.6-2.6-4c-1-1.9-1.9-3.9-2.9-5.9c-1.4-2.8-3.6-5.2-5.3-7.9
				C127.4,214.8,127.1,214.3,127.2,213.8z"/>
			<path class="st18" d="M44.2,215.1c0.1-0.2,0.3-0.2,0.4-0.2c-0.9,2.3-1.4,4.7-2,7.1c-0.7,2.8-1.4,5.6-2.2,8.4
				c-0.3,1.3-0.6,2.7-1,4c-0.1,0-0.2,0-0.3,0c0-0.6,0.3-1.1,0.3-1.7c0.5-2.8,1.2-5.5,1.9-8.3c0.6-2.4,1.2-4.8,1.9-7.2
				C43.5,216.5,43.8,215.7,44.2,215.1z"/>
			<path class="st22" d="M19.8,219.4c0.7,0.1,1.3-0.3,2-0.4c0.4,0.1,0.4,0.6,0.3,0.9c-0.1,0.6-0.4,1.3-0.8,1.8
				c-0.1,0.2-0.4,0.3-0.6,0.3c-0.4-0.7-1.2-1.1-1.5-1.9C19.2,219.8,19.4,219.3,19.8,219.4z"/>
			<path class="st19" d="M54.4,225c0.2-0.2,0.6-0.2,0.7,0.1c0.1,0.4,0,0.7-0.1,1.1c0.3-0.1,0.6-0.2,0.9-0.2c0.5,0.1,0.5,0.8,0.1,1.1
				c-0.6,0.4-1.4,0.6-2.1,0.6c-0.7-0.1-1.4-0.5-1.6-1.2c-0.2-0.4-0.2-0.9,0.2-1.1c0.5-0.2,0.8,0.3,1,0.6
				C53.9,225.7,54.1,225.3,54.4,225z"/>
			<path class="st21" d="M22.9,229.9c0.1-0.3,0.2-0.6,0.3-0.8c-0.1,1.2-0.4,2.4-0.4,3.6c-0.1,0-0.2,0-0.3,0
				c-0.1-1.1,0.1-2.2,0.3-3.3C22.9,229.5,22.9,229.7,22.9,229.9z"/>
			<path class="st22" d="M122.5,234.4c0-0.3,0.5-0.5,0.7-0.3c0.1,0.2,0.2,0.4,0.3,0.6c0.4-0.2,0.7-0.6,1.2-0.5
				c0.3,0.1,0.4,0.5,0.3,0.7c-0.2,0.4-0.6,0.7-0.7,1.1c-0.7,0.3-1.5,0.3-2.2,0c-0.3-0.1-0.3-0.5-0.2-0.7c0.3-0.1,0.6-0.1,0.9,0
				C122.6,235,122.5,234.7,122.5,234.4z"/>
		</g>
	</g>
</g>
</svg>
