<?xml version="1.0" encoding="utf-8"?>
<!-- Generator: Adobe Illustrator 25.2.0, SVG Export Plug-In . SVG Version: 6.00 Build 0)  -->
<svg version="1.1" id="Layer_1" xmlns="http://www.w3.org/2000/svg" xmlns:xlink="http://www.w3.org/1999/xlink" x="0px" y="0px"
	 viewBox="0 0 180 180" style="enable-background:new 0 0 180 180;" xml:space="preserve">
<style type="text/css">
	.st0{clip-path:url(#SVGID_2_);}
	.st1{fill:#764074;}
	.st2{fill:#492646;}
	.st3{fill:#4F3E37;}
	.st4{fill:#38312D;}
	.st5{fill:#FFFFFF;}
	.st6{fill:#AC3064;}
	.st7{fill:#C36D8E;}
	.st8{fill:#E56324;}
	.st9{fill:#F2844F;}
	.st10{fill:#F95939;}
	.st11{fill:#FBBB9E;}
	.st12{fill:#41233F;}
	.st13{fill:#422440;}
	.st14{fill:#15100D;}
	.st15{fill:#FCBB9A;}
	.st16{fill:#B75B37;}
	.st17{fill:#FCB492;}
	.st18{fill:#BD6A49;}
	.st19{fill:#FCB591;}
	.st20{fill:#B95D38;}
	.st21{fill:#DA4E33;}
	.st22{fill:#912F1C;}
	.st23{fill:#FB9D7B;}
	.st24{fill:#FCB896;}
	.st25{fill:#2E251F;}
	.st26{fill:#3D213A;}
	.st27{fill:#3D213B;}
	.st28{fill:#3C203A;}
	.st29{fill:#3C2039;}
	.st30{fill:#3E223D;}
	.st31{fill:#3E213C;}
	.st32{fill:#3F223D;}
	.st33{fill:#532E52;}
	.st34{fill:#743F71;}
	.st35{fill:#422441;}
	.st36{fill:#764072;}
	.st37{fill:#723E6F;}
	.st38{fill:#743E70;}
	.st39{fill:#502C4D;}
	.st40{fill:#3E213B;}
	.st41{fill:#512A4E;}
	.st42{fill:#723D6E;}
</style>
<g>
	<defs>
		<rect id="SVGID_1_" width="180" height="180"/>
	</defs>
	<use xlink:href="#SVGID_1_"  style="overflow:visible;fill:#E51C1C;"/>
	<clipPath id="SVGID_2_">
		<use xlink:href="#SVGID_1_"  style="overflow:visible;"/>
	</clipPath>
	<g class="st0">
		<g>
			<path class="st1" d="M85.9,24.5c2.4-0.7,5-1,7.5-0.3c1.4,0.5,2.6,1.4,3.7,2.4c0.9,0.8,1.4,1.8,2.4,2.5c0.5,0.4,1,0.6,1.6,0.6
				c1.3,0.2,2.6-0.2,3.8-0.5c1.3-0.4,2.7-0.8,4.1-0.9c1.9-0.2,4,0.2,5.7,1c1.5,0.8,3,1.7,4.1,3c1.3,1.4,2.1,3.2,2.5,5
				c0.2,1.1,0.5,2.1,0.6,3.2c0,0.8,0.1,1.7,0.5,2.4c0.2,0.4,0.5,0.8,0.9,0.9c0.7,0.2,1.4,0.1,2.1,0.2c2.1,0.3,4.2,0.9,6.1,2
				c1.4,0.8,2.6,2,3.6,3.3c0.9,1.2,1.6,2.5,2,3.9c0.3,1.3,0.4,2.7,0.1,4c-0.4,1.8-1,3.6-1.3,5.5c-0.2,1.3-0.2,2.7,0.5,3.8
				c0.4,0.8,1.2,1.4,2,1.9c0.7,0.5,1.6,0.9,2.4,1.3c1.7,0.8,3.1,2.1,4.4,3.5c1.4,1.6,2.6,3.5,3.1,5.6c0.2,1.1,0.4,2.3,0.2,3.4
				c-0.2,1.4-0.9,2.7-1.6,4c-0.4,0.8-1,1.5-1.1,2.4c-0.2,0.9,0.1,1.8,0.4,2.7c0.5,1.2,1.5,2.1,2,3.3c0.2,0.5,0.5,0.9,0.8,1.4
				c0.8,1.2,1.2,2.6,1.2,4c0,1.9-0.5,3.8-1.3,5.6l-0.1,0c-0.3,0.1-0.7,0.2-0.9,0.3c-1.1,0.6-2.5,0.8-3.7,0.6
				c-1.1-0.2-2.2-0.5-3.3-0.6c-1.9-0.2-3.9,0.2-5.5,1.3c-0.8,0.5-1.5,1.2-2.1,1.9c-0.6,0.7-1.1,1.5-1.8,2.1
				c-0.5,0.4-1.2,0.3-1.7,0.2c-0.8-0.3-1.1-1.1-1.5-1.7c-0.8-1.2-1.9-2.3-3.4-2.5c-0.8,0-1.7-0.1-2.4,0.2c-1,0.5-1.5,1.5-2.1,2.4
				c-0.3-0.2-0.6-0.5-0.8-0.8c-0.6-0.7-1.1-1.5-1.4-2.4c-0.3-0.8-0.3-1.6-0.5-2.4c-0.2-1.5,0.1-3,0.2-4.5c0.1-1.3,0.2-2.7,0-4
				c-0.2-1.1-0.6-2.1-1.1-3.1c-0.4-0.6-0.8-1.3-1.3-1.7c-0.2,0.3-0.3,0.7-0.4,1c-0.3,1.2-0.6,2.4-0.8,3.6c-0.1,0.6-0.1,1.1-0.2,1.7
				c-0.3-0.8-0.3-1.7-0.6-2.5c-0.2-0.6-0.3-1.1-0.3-1.7c0.2-1.9,0.5-3.9,1.4-5.6c0.7-1.7,1.6-3.4,1.9-5.2c0.2-2,0-4.1-0.6-6.1
				c-0.5-1.4-1.2-2.7-2.1-3.9c-1.4-2-3.4-3.6-5.5-4.7c0.3,1.3,0.8,2.5,1.4,3.6c0.4,0.8,0.7,1.7,1.4,2.4c0.8,0.9,1.3,2.1,2,3.1
				c0.5,0.9,0.8,1.9,0.9,3c-0.5-0.6-0.8-1.4-1.1-2.1c-0.5-1.1-1.3-2-1.9-3c-0.5-0.8-1-1.5-1.5-2.2c-0.6-0.8-0.9-1.9-1.4-2.7
				c-0.5-0.9-0.9-1.8-1.5-2.7c-0.5-0.8-0.7-1.8-1.3-2.6c-0.9-1.5-2.2-2.7-3.4-4c-1.2-1.3-2.6-2.5-4.1-3.6c-1.8-1.3-3.8-2.2-5.9-2.7
				c-2.7-0.7-5.4-1.2-7.9-2.5c-0.9-0.5-1.7-1.2-2.5-1.6c-1.5-0.8-2.9-2-4.2-3.2c-0.4-0.4-0.8-0.8-1.3-1.1c-0.3-0.2-0.7-0.2-1,0
				c-0.2,0.3-0.1,0.6,0,0.9c0.5,1.5,1.4,2.9,2.6,4.1c1.2,1.3,2.6,2.3,4,3.4c1.5,1.2,3.3,1.9,5.2,2.5c1.3,0.4,2.5,0.8,3.7,1.2
				c1,0.3,1.9,0.7,2.7,1.4c0.8,0.6,1.7,1,2.5,1.6c0.7,0.6,1.4,1.2,2.1,1.8c0.7,0.7,1.4,1.4,2.2,2.1c0.6,0.5,1.3,1,1.7,1.7
				c0.5,1,1.1,2,1.8,2.8c0.4,0.4,0.7,0.9,0.9,1.5c0.3,0.6,0.4,1.3,0.8,1.8c0.2,0.3,0.6,0.2,0.9,0.3c0.4,0,0.6,0.5,0.9,0.8
				c0.6,0.8,1.6,1.4,2,2.4c0.3,0.6,0.5,1.1,0.8,1.7c0.3,0.6,0.4,1.3,0.5,1.9c0.2,1,0.5,2,0.6,3c0.1,0.5,0,1-0.2,1.5
				c-0.3,0.9-0.6,1.7-0.8,2.6c-0.2,0.8-0.3,1.5-0.6,2.2c-0.3,0.6-1,0.8-1.4,1.3c-0.4,0.7-0.3,1.5-0.3,2.2c0.1,1,0.1,2.1,0.3,3.1
				c0.2,0.8,0.4,1.6,1.1,2c0.3,0.2,0.8,0.4,0.7,0.8c0,1.5,0.1,3.1,0,4.6c-0.5,0.3-0.9,0.7-1.2,1.2c-0.4,0.7-0.5,1.5-0.5,2.3
				c-0.1,1.6,0,3.2,0.3,4.7c0.3,1.5,0.7,3,1.6,4.3c0.6,0.7,1.4,1.3,2.3,1.4c0.7,0.1,1.3-0.2,1.9-0.4c0.7,0.8,1.3,1.5,2.1,2.1
				c0.8,0.6,1.7,1.1,2.8,1.2c0.9,0.1,1.7-0.5,2.6-0.2c-1,0.5-2,0.5-3.1,0.6c-1.6,0-3.1-0.1-4.7-0.4c-1.2-0.3-2.5-0.6-3.6-1.2
				c-0.9-0.5-1.7-1-2.5-1.6c-0.9-0.7-1.7-1.6-2.7-2.2c-0.8-0.5-1.8-0.8-2.7-0.8c-1.4,0.1-2.6,0.8-3.9,1.3c-3.3,1.3-7,1.4-10.5,1.4
				c-1.9,0-3.8-0.1-5.7-0.1c-2.9-0.2-5.9-0.6-8.8-0.7c-1.3,0-2.6-0.1-3.8-0.1c-2.2,0-4.4-0.5-6.6-0.6c-0.8-0.1-1.7-0.1-2.5-0.2
				c-0.8-0.1-1.6,0-2.5,0c-0.8,0-1.7,0-2.5-0.2c1.1,0.1,2.2,0.2,3.4,0.1c-0.3-2.4-1.2-4.7-1.8-7.1c-0.2-0.8-0.4-1.8-0.9-2.5
				c-0.4-0.5-0.9-0.6-1.5-0.8c-0.2-1.8,0-3.5,0-5.3c0-1.1,0-2.2,0-3.3c0.1-1.2,0.1-2.5,0.1-3.7c0-1-0.5-2-0.4-3.1
				c0.1-1.8,0-3.6,0.1-5.4c0.1-1.3,0-2.6,0.1-4c0.1-1,0.1-2,0-3c0-0.2,0-0.5,0.1-0.7c0.2-0.3,0.6-0.5,0.8-0.9
				c0.2-0.5,0.2-1.1,0.3-1.6c0.3-2.5,0.6-4.9,1-7.3c0.2-1.1,0.4-2.1,0.7-3.2c0.2-0.7,0.7-1.2,1-1.8c0.8-1.5,1.5-3.2,2.2-4.7
				c0.2-0.5,0.3-1.1,0.6-1.6c2.2-3.3,5-6.1,7.9-8.7c0.3-0.3,0.7-0.6,1-0.9c0.4-0.3,1-0.3,1.5-0.6c0.3-0.2,0.5-0.5,0.8-0.6
				c0.4-0.1,0.8-0.1,1.2-0.3c0.4-0.2,0.8-0.4,1.2-0.5c0.3-0.1,0.7-0.2,1-0.4c0.1-0.4,0-0.8,0-1.2c-0.1-2.5,0.2-4.9,0.6-7.4
				c0.1-0.6,0.1-1.2,0.2-1.8c0.1-0.7,0.3-1.4,0.5-2.1c0.9-1.3,2.1-2.4,3.3-3.4C81.9,26,83.9,25.1,85.9,24.5z"/>
			<path class="st1" d="M65.9,28.9c1.1-0.3,2.2-0.3,3.3-0.4c1.7,0.1,3.4,0.2,5.1,0.7c0.9,0.3,1.7,0.7,2.4,1.3
				c-0.4,0.7-0.5,1.6-0.8,2.3c-0.3,1-0.9,1.8-1.2,2.8c-0.3,1.2-1,2.2-1.7,3.1c-0.7,0.8-1.6,1.4-2.6,1.8c-1.6,0.8-3.5,1.1-5.1,1.8
				c-1.4,0.5-2.6,1.3-3.7,2.3c-1.3,1.3-2.3,2.8-3.5,4.2c-1.6,1.5-3.2,3.1-4.2,5.1c-0.5,0.9-1.1,1.8-1.4,2.8
				c-0.4,1.1-0.3,2.3-0.5,3.4c-0.2,0.8-0.2,1.7-0.1,2.6c0.2,1.4,0.1,2.9,0.1,4.3c0,0.9,0.2,1.7,0.1,2.6c0,0.8-0.2,1.6-0.3,2.4
				c-0.2-1.1-0.4-2.3-0.7-3.4c-0.5-1.4-0.6-2.8-1-4.2c-0.9,0.7-1.7,1.5-2.5,2.4c-1.4,1.5-2.4,3.4-2.8,5.4c-0.2,1-0.2,2-0.3,3
				c-0.1,0.9,0.1,1.8,0.1,2.7c0,1-0.3,2-0.5,3c-0.4,1.4-0.9,2.8-1.3,4.1c-0.3,0.8-0.7,1.6-0.9,2.4c-0.1,0.6-0.2,1.3-0.3,1.9
				c-0.1,0.8-0.1,1.6-0.4,2.3c-0.1-0.2-0.2-0.3-0.3-0.5c-0.2-1.3,0.1-2.7,0.3-4c0.2-1.2,0.3-2.5,0.6-3.7c0.2-0.7,0.7-1.4,0.8-2.1
				c0.1-0.4,0.1-0.9,0.2-1.3c-1.2,1.1-2.5,2.4-3.3,3.9c-0.5,0.9-0.8,1.8-1,2.8c-0.3,1.8-0.1,3.7,0.1,5.5c0.1,1.6,0.1,3.3-0.5,4.8
				c-0.6,1.5-1.7,2.6-2.4,4c-0.5,1-0.7,2.1-0.9,3.1c-0.7-1.1-0.7-2.5-0.5-3.7c0.1-0.8,0.5-1.7,0.3-2.5c-0.3-1-1.2-1.8-2.3-2
				c-0.9-0.2-1.8-0.2-2.7-0.6c-1.6-0.7-2.7-2.2-3.4-3.7c-0.9-1.8-0.9-4-0.4-5.9c0.5-2,1.9-3.7,3.3-5.2c1.1-1.2,2.4-2.3,3.4-3.6
				c0.7-0.8,1-1.9,1.1-2.9c0.3-1.9-0.1-3.9-0.2-5.8c-0.1-1.6,0-3.3,0.4-4.9c0.4-1.4,1-2.8,1.9-4c1.3-1.9,3-3.5,5.1-4.3
				c0.7-0.3,1.6-0.4,2.2-0.9c0.6-0.6,1.1-1.3,1.5-2c0.3-0.7,0.6-1.3,0.7-2.1c0.4-2.2,1.4-4.2,2.9-5.9c1.3-1.4,2.9-2.6,4.7-3.4
				c0.8-0.4,1.7-0.6,2.4-1.1c0.6-0.4,1.1-0.9,1.6-1.5c0.5-0.5,0.7-1.2,1-1.9c0.4-1.3,1-2.6,1.8-3.6c0.8-1.1,1.9-2,3.1-2.6
				C63.8,29.6,64.8,29.2,65.9,28.9z"/>
			<path class="st2" d="M75.9,32.8c0.3-0.8,0.5-1.6,0.8-2.3c0.1,0.1,0.2,0.2,0.2,0.2c-0.2,0.7-0.4,1.4-0.5,2.1
				c-0.1,0.6-0.1,1.2-0.2,1.8c-0.4,2.4-0.7,4.9-0.6,7.4c0,0.4,0,0.8,0,1.2c-0.3,0.2-0.7,0.3-1,0.4c-0.4,0.1-0.8,0.4-1.2,0.5
				c-0.4,0.2-0.8,0.1-1.2,0.3c-0.3,0.1-0.5,0.4-0.8,0.6c-0.4,0.3-1,0.3-1.5,0.6c-0.4,0.3-0.7,0.6-1,0.9c-2.9,2.6-5.7,5.4-7.9,8.7
				c-0.3,0.5-0.4,1.1-0.6,1.6c-0.7,1.6-1.4,3.2-2.2,4.7c-0.3,0.6-0.8,1.1-1,1.8c-0.3,1-0.5,2.1-0.7,3.2c-0.4,2.4-0.7,4.9-1,7.3
				c-0.1,0.5-0.1,1.1-0.3,1.6c-0.1,0.4-0.5,0.6-0.8,0.9c-0.1,0.2-0.1,0.5-0.1,0.7c0,1,0,2,0,3c-0.1,1.3,0,2.6-0.1,4
				c-0.1,1.8,0,3.6-0.1,5.4c-0.1,1,0.4,2,0.4,3.1c0,1.2,0,2.5-0.1,3.7c-0.1,1.1,0,2.2,0,3.3c0,1.8-0.2,3.5,0,5.3
				c0.5,0.2,1.1,0.3,1.5,0.8c0.5,0.7,0.7,1.6,0.9,2.5c0.6,2.3,1.5,4.6,1.8,7.1c-1.1,0.1-2.2-0.1-3.4-0.1c-1.2-0.2-2.4-0.6-3.5-1
				c-1.5-0.6-3-1.3-4.1-2.5c-0.8-0.8-1.2-1.9-1.8-2.8c-0.4-0.8-1.3-1.1-2.1-1.3c-1-0.2-1.9,0.1-2.9,0.1c-1.2,0.1-2.4-0.2-3.5-0.8
				c-0.9-0.5-1.7-1.3-2.3-2.1c-0.1-0.1-0.2-0.2-0.1-0.3c0.3-1.1,0.4-2.2,0.9-3.1c0.7-1.4,1.8-2.6,2.4-4c0.6-1.5,0.6-3.2,0.5-4.8
				c-0.2-1.8-0.5-3.7-0.1-5.5c0.1-1,0.5-1.9,1-2.8c0.8-1.5,2-2.7,3.3-3.9c0,0.4-0.1,0.9-0.2,1.3c-0.2,0.8-0.6,1.4-0.8,2.1
				c-0.3,1.2-0.4,2.5-0.6,3.7c-0.2,1.3-0.5,2.7-0.3,4c0,0.2,0.1,0.4,0.3,0.5c0.2-0.8,0.2-1.5,0.4-2.3c0.1-0.6,0.2-1.3,0.3-1.9
				c0.2-0.8,0.6-1.6,0.9-2.4c0.4-1.4,0.9-2.8,1.3-4.1c0.3-1,0.5-2,0.5-3c0-0.9-0.2-1.8-0.1-2.7c0.1-1,0.2-2,0.3-3
				c0.4-2,1.3-3.9,2.8-5.4c0.8-0.8,1.6-1.6,2.5-2.4c0.4,1.4,0.5,2.8,1,4.2c0.4,1.1,0.6,2.3,0.7,3.4c0.2-0.8,0.3-1.6,0.3-2.4
				c0-0.9-0.1-1.7-0.1-2.6c-0.1-1.4,0-2.9-0.1-4.3c-0.1-0.9-0.1-1.7,0.1-2.6c0.2-1.1,0.2-2.3,0.5-3.4c0.3-1,0.9-1.9,1.4-2.8
				c1-2,2.6-3.5,4.2-5.1c1.2-1.4,2.2-2.9,3.5-4.2c1.1-1,2.3-1.8,3.7-2.3c1.7-0.7,3.5-1,5.1-1.8c1-0.4,1.9-1,2.6-1.8
				c0.7-0.9,1.4-2,1.7-3.1C75,34.7,75.6,33.8,75.9,32.8z"/>
			<path class="st2" d="M74.6,45.7c0.3-0.2,0.7-0.2,1,0c0.5,0.3,0.8,0.7,1.3,1.1c1.3,1.2,2.6,2.3,4.2,3.2c0.9,0.5,1.7,1.1,2.5,1.6
				c2.4,1.3,5.2,1.8,7.9,2.5c2.1,0.5,4.1,1.4,5.9,2.7c1.5,1.1,2.9,2.2,4.1,3.6c1.2,1.3,2.4,2.5,3.4,4c0.5,0.8,0.8,1.8,1.3,2.6
				c0.5,0.9,1,1.8,1.5,2.7c0.5,0.9,0.8,1.9,1.4,2.7c0.5,0.7,1,1.5,1.5,2.2c0.6,1,1.4,1.9,1.9,3c0.4,0.7,0.6,1.5,1.1,2.1
				c0-1-0.3-2.1-0.9-3c-0.6-1.1-1.1-2.2-2-3.1c-0.6-0.7-1-1.6-1.4-2.4c-0.5-1.2-1.1-2.4-1.4-3.6c2.1,1.1,4.1,2.7,5.5,4.7
				c0.9,1.2,1.6,2.5,2.1,3.9c0.6,2,0.8,4,0.6,6.1c-0.3,1.8-1.2,3.5-1.9,5.2c-0.8,1.8-1.1,3.7-1.4,5.6c-0.1,0.6,0.1,1.2,0.3,1.7
				c0.3,0.8,0.3,1.7,0.6,2.5c0.1-0.5,0.2-1.1,0.2-1.7c0.1-1.2,0.5-2.4,0.8-3.6c0.1-0.4,0.2-0.7,0.4-1c0.5,0.5,1,1.1,1.3,1.7
				c0.6,0.9,1,2,1.1,3.1c0.2,1.3,0.2,2.7,0,4c-0.1,1.5-0.4,3-0.2,4.5c0.1,0.8,0.2,1.6,0.5,2.4c0.3,0.9,0.9,1.7,1.4,2.4
				c0.2,0.3,0.5,0.6,0.8,0.8c0.6-0.9,1.2-1.9,2.1-2.4c0.8-0.3,1.6-0.3,2.4-0.2c1.5,0.1,2.6,1.3,3.4,2.5c0.4,0.6,0.7,1.5,1.5,1.7
				c0.5,0.2,1.2,0.3,1.7-0.2c0.7-0.6,1.2-1.4,1.8-2.1c0.6-0.7,1.3-1.4,2.1-1.9c1.6-1,3.6-1.5,5.5-1.3c1.1,0.1,2.2,0.5,3.3,0.6
				c1.3,0.2,2.6,0,3.7-0.6c0.3-0.2,0.6-0.3,0.9-0.3c-0.3,0.7-0.6,1.2-1,1.8c-0.6,0.9-1.3,1.7-2.1,2.3c-0.8,0.6-1.8,1-2.8,1.2
				c-0.9,0.2-1.7,0-2.6,0.3c-0.8,0.3-1.6,0.8-2,1.6c-0.4,0.9-0.6,1.8-0.9,2.7c-0.3,0.9-0.9,1.8-1.7,2.3c-1.2,0.8-2.7,1-4.1,1
				c-0.9,0-1.8-0.2-2.7-0.6c-0.9-0.4-1.5-1.1-2.3-1.6c-0.4-0.2-0.9-0.3-1.3-0.1c-0.6,0.4-1.1,1-1.6,1.4c-0.7,0.6-1.5,1.2-2.4,1.5
				c-0.9-0.3-1.7,0.3-2.6,0.2c-1-0.1-1.9-0.6-2.8-1.2c-0.8-0.6-1.4-1.4-2.1-2.1c-0.6,0.3-1.2,0.5-1.9,0.4c-0.9-0.1-1.8-0.7-2.3-1.4
				c-0.9-1.2-1.4-2.8-1.6-4.3c-0.2-1.6-0.3-3.1-0.3-4.7c0.1-0.8,0.1-1.6,0.5-2.3c0.3-0.5,0.8-0.8,1.2-1.2c0.1-1.5,0-3.1,0-4.6
				c0-0.4-0.4-0.6-0.7-0.8c-0.7-0.5-1-1.3-1.1-2c-0.2-1-0.2-2.1-0.3-3.1c0-0.8-0.1-1.6,0.3-2.2c0.3-0.6,1.1-0.7,1.4-1.3
				c0.3-0.7,0.4-1.5,0.6-2.2c0.2-0.9,0.5-1.8,0.8-2.6c0.2-0.5,0.2-1,0.2-1.5c-0.2-1-0.4-2-0.6-3c-0.1-0.6-0.2-1.3-0.5-1.9
				c-0.3-0.6-0.6-1.1-0.8-1.7c-0.4-1-1.4-1.5-2-2.4c-0.3-0.3-0.5-0.7-0.9-0.8c-0.3-0.1-0.7,0-0.9-0.3c-0.4-0.5-0.5-1.2-0.8-1.8
				c-0.2-0.5-0.5-1-0.9-1.5c-0.7-0.9-1.3-1.8-1.8-2.8c-0.4-0.7-1.1-1.2-1.7-1.7c-0.8-0.7-1.5-1.4-2.2-2.1c-0.7-0.6-1.4-1.2-2.1-1.8
				c-0.8-0.6-1.7-1-2.5-1.6c-0.7-0.7-1.7-1.1-2.7-1.4c-1.2-0.4-2.5-0.9-3.7-1.2c-1.8-0.6-3.6-1.3-5.2-2.5c-1.3-1.1-2.8-2.1-4-3.4
				c-1.2-1.1-2.1-2.5-2.6-4.1C74.5,46.4,74.4,46,74.6,45.7z"/>
			<g>
				<path class="st3" d="M172.3,168.8c0.1,0.1,0.2,0.2,0.3,0.2c0,0,0,0,0,0C172.5,169,172.4,168.9,172.3,168.8z"/>
				<path class="st4" d="M198.2,225.5c-0.3-2.6-0.5-5.2-0.5-7.8c-0.7-3.5-1.6-7-2.6-10.5c-1.4-4.7-3.2-9.3-5.2-13.8
					c-0.9-2.1-1.9-4.1-3-6.1c-0.5-0.9-1-1.8-1.5-2.6c-0.1-0.2-0.3-0.5-0.4-0.7c-0.1-0.2-0.3-0.3-0.4-0.5c0,0-0.1-0.1-0.1-0.2
					c-0.3-0.5-0.6-0.9-0.9-1.4c-2.5-3.5-5.2-6.9-8.1-10c-0.8-0.8-1.6-1.7-2.4-2.5c-0.2-0.1-0.3-0.2-0.5-0.4
					c-0.2-0.1-0.6-0.6-0.8-0.7c-0.4-0.4-0.8-0.7-1.2-1.1c-0.1-0.1-0.2-0.2-0.3-0.2c-1-1.3-2.1-2.6-3.2-3.9c-0.9-1.1-1.6-2.3-2.5-3.4
					c-1.1-1.4-1.9-2.9-3-4.3c-1.3-1.6-2.6-3.1-4.1-4.5c-0.8-0.7-1.4-1.5-2.2-2.2c-1.5-1.5-3.1-3-4.8-4.4c-1.6-1.4-3.2-2.8-4.4-4.5
					c-1.3-1.8-2.5-3.5-3.9-5.1c-1.5-1.7-2.6-3.8-3.8-5.7c-1.1-1.6-2.5-2.9-3.9-4.2c-0.8-0.7-1.4-1.5-2.1-2.2c-0.7-0.6-1.5-1-2.4-1.2
					c-1.5-0.3-3-0.3-4.5-0.2c-1.3,0.2-2.6,0.6-3.8,1.3c-1.5,0.8-2.9,1.8-4.2,2.8c-1.8,1.3-3.6,2.8-5.3,4.3c-1.4,1.2-2.9,2.4-4.7,2.9
					c-2.6,0.8-5.3,0.8-7.9,1.2c-3.1,0.5-6.1,1.1-9.1,1.7c-1.8,0.4-3.7,0.8-5.3,1.6c-0.4,0.2-0.8-0.2-1.2,0.1c-0.4,0.2-0.7,0.6-1,0.8
					c-1.8,1.2-3.4,2.6-4.7,4.2c-1.5,1.9-2.4,4.1-3.3,6.3c-0.4,0.9-0.7,1.7-1,2.6c-0.5,1.3-0.9,2.7-1.5,4c-1.3,3-2.6,6.2-4.9,8.7
					c-1.3,1.4-3,2.4-4.4,3.7c-1.4,1.3-2.9,2.5-4.2,3.9c-1.6,1.7-3.1,3.5-4.5,5.4c-1.3,1.9-2.5,3.8-3.7,5.8c-0.9,1.4-1.8,2.8-2.8,4.1
					c-1.5,1.9-3.2,3.8-5,5.6c-1.2,1.1-2.4,2.2-3.5,3.4c-3,3.2-5.8,6.6-8.4,10.2c-1.1,1.5-1.9,3.1-2.7,4.8c-0.4,0.4-0.7,0.8-1,1.3
					c-1.4,2.4-2.5,5-3.5,7.7c-0.3,0.5-0.6,1.1-0.9,1.6c-0.4,0.6-0.6,1.4-0.6,2.1c-0.4,0.9-0.9,1.7-1.3,2.6H198.2z"/>
			</g>
			<path class="st5" d="M108.6,135.5c1.2-0.2,2.4-0.2,3.6-0.1c1.9,0.3,3.9,0.6,5.5,1.7c0.9,0.6,1.8,1.4,2.5,2.3
				c0.7,0.9,1.1,2,1.2,3.2c0.2,1.1-0.1,2.1-0.3,3.2c-0.3,1.2-0.6,2.5-1.2,3.6c-0.5,0.9-1,1.7-1.6,2.5c-0.7,1-1.4,2.1-2.3,3
				c-0.3-0.5-0.7-1.1-1.4-1c-0.6-0.1-1.1,0.3-1.5,0.8c-0.4,0.4-0.9,0.7-1.3,1c-0.3,0.2-0.7,0.4-1,0.5c-0.6-0.2-1.2-0.4-1.7-0.1
				c-0.7,0.4-1.2,1.1-1.8,1.6c-1.6,1.5-3.2,3.1-4.8,4.7c-0.4,0.4-1,0.3-1.4,0.2c0.1-0.5,0.3-1,0.2-1.5c-0.2-0.8-0.9-1.4-1.7-1.5
				c-0.7,0-1.5,0.2-2.2,0.3c-1,0.1-2,0.3-3,0c-1.1-0.3-2.3-0.3-3.4-0.1c-0.1-0.7-0.1-1.4-0.2-2c0-0.5,0-1-0.1-1.4
				c0-0.2-0.3-0.3-0.5-0.4c-0.5,0.7-0.4,1.5-0.4,2.3c-0.1-0.2-0.2-0.5-0.5-0.6c-0.3-0.1-0.7,0-1,0.1c-0.1-0.6-0.2-1.3-0.2-1.9
				c0.6-1.3,1-2.7,1.4-4.1c0.3-0.8,0.6-1.5,1-2.2c0.6-1.1,1.4-2.1,2.2-3.1c2.4-3.2,5.2-6.1,8.6-8.2
				C103.6,136.8,106.1,135.9,108.6,135.5z"/>
			<path class="st6" d="M113.2,154.6c0.4-0.4,0.9-0.8,1.5-0.8c0.6,0,1.1,0.5,1.4,1c0.1,0.7-0.1,1.4-0.5,1.9c-0.7,0.8-1.3,1.6-2,2.4
				c-0.8,0.6-1.4,1.5-2.2,2.2c-3.2,3.2-6.3,6.5-9.9,9.3c-0.5,0.4-1.2,0.6-1.7,1.1c-1.1,1.3-2.3,2.5-3.6,3.6
				c-0.8,0.7-1.4,1.6-2.2,2.3c-1,1-2.1,1.9-3.2,2.6c-0.8,0.5-1.4,1.3-2.3,1.8c-0.3,0.1-0.8,0.1-0.9-0.3c-0.1-0.4,0.4-0.6,0.3-1
				c-0.2-0.9-0.2-1.8-0.3-2.7c-0.1-2.9-0.4-5.8-0.6-8.7c0-1.3,0.1-2.7-0.2-4c-0.3-1.8-0.5-3.6-0.7-5.4c-0.1-0.8,0-1.7-0.1-2.5
				c0-0.7-0.2-1.4,0.1-2.1c0.3-0.6,1.2-0.7,1.6-0.2c0.2,0.2,0.3,0.4,0.5,0.7c0,0.6,0.1,1.3,0.2,1.9c0.3-0.1,0.7-0.2,1-0.1
				c0.2,0.1,0.4,0.4,0.5,0.6c0,0.2,0.1,0.3,0.1,0.5c0-0.6,0-1.2,0.1-1.8c0-0.2,0.2-0.4,0.4-0.5c0.3,0.6,0.3,1.3,0.3,2
				c0-0.2,0.1-0.4,0.1-0.6c0,0.7,0.1,1.4,0.2,2c1.1-0.3,2.3-0.3,3.4,0.1c1,0.3,2,0.1,3,0c0.7-0.1,1.4-0.4,2.2-0.3
				c0.8,0,1.5,0.7,1.7,1.5c0.1,0.5-0.1,1-0.2,1.5c0.5,0.1,1.1,0.2,1.4-0.2c1.6-1.5,3.2-3.1,4.8-4.7c0.6-0.5,1.1-1.2,1.8-1.6
				c0.6-0.3,1.2-0.1,1.7,0.1c0.4-0.1,0.7-0.3,1-0.5C112.3,155.3,112.8,155,113.2,154.6z"/>
			<path class="st7" d="M90.2,156c0.2,0.1,0.5,0.1,0.5,0.4c0.1,0.5,0.1,0.9,0.1,1.4c0,0.2-0.1,0.4-0.1,0.6c0-0.7,0-1.3-0.3-2
				c-0.2,0.2-0.4,0.3-0.4,0.5c-0.1,0.6-0.1,1.2-0.1,1.8c0-0.2-0.1-0.3-0.1-0.5C89.9,157.6,89.8,156.7,90.2,156z"/>
		</g>
		<g>
			<path class="st8" d="M72.8,44c0.9-0.3,1.7-0.7,2.6-1c0.7,0.8,0.8,1.9,1.3,2.8c0.5,0.9,1,1.8,1.6,2.6c1,1.1,2.1,2.3,3.4,3.1
				c0.9,0.5,1.8,1.1,2.8,1.5c2.4,1,4.9,2,7.3,3.3c0.8,0.4,1.6,0.9,2.4,1.5c1,0.8,1.9,1.7,2.8,2.6c1.4,1.4,2.5,3,3.5,4.7
				c0.9,1.6,1.9,3.2,3.1,4.7c1.5,1.7,3.2,3.3,4.5,5.1c1,1.3,1.7,2.8,2,4.4c0.3,1.5,0.4,3.1,0.3,4.6c-0.1,1.1-0.4,2.2-0.8,3.2
				c-0.7,1.5-1.8,2.8-2.1,4.5c-0.2,0.9-0.3,1.9,0.2,2.7c0.4,0.7,1,1.3,1.3,1.9c0.9,1.5,1.5,3.3,1.4,5.1c0,1.5-0.5,2.8-1.1,4.1
				c-0.8,1.8-1.1,3.8-0.5,5.7c0.5,1.6,1.6,3.1,3,4c0.8,0.5,1.5,0.9,2.3,1.3c1,0.4,2,0.7,2.9,1.1c0.8,0.3,1.7,0.8,1.9,1.7
				c0.2,0.9,0.8,1.6,1.2,2.3c0.6,1.1,1.2,2.2,1.7,3.2c-0.9,0.4-1.8,0.6-2.7,0.8c-1.1,0.2-2.2,0.4-3.2,0.1c-1.3-0.2-2.7-0.6-3.8-1.6
				c-1.3-1.1-2.3-2.5-3-4c-0.6-1.1-0.9-2.4-1.8-3.4c-0.6-0.8-1.5-1.4-2.4-2c-0.9-0.5-1.7-1.1-2.2-2c-0.8-1.5-1.2-3.3-1-5
				c0.1-1,0.6-1.9,1-2.8c0.5-1.3,1.2-2.5,1.4-3.9c0.2-1.3-0.1-2.7-0.7-3.9c-0.4-0.8-1-1.5-1.6-2.2c-0.6-0.7-1.4-1.3-1.9-2.2
				c-0.6-0.9-1.2-1.9-1.4-3c-0.2-0.9-0.3-1.9-0.2-2.8c0.2-1.8,1.1-3.5,1.1-5.4c0-0.8-0.2-1.7-0.6-2.4c-0.5-0.9-1.2-1.6-1.9-2.2
				c-1.5-1.3-2.4-3.1-3-5c-0.7-2,0-4.1-0.5-6.1c-0.2-1.1-1-2-1.8-2.7c-0.9-0.9-2-1.7-2.9-2.6c-0.7-0.7-1.5-1.2-2.2-1.7
				c-1.7-1.2-3.2-2.6-4.6-4.1c-0.6-0.6-1.2-1.2-1.8-1.9c-0.6-0.7-1.1-1.6-1.7-2.3c-1.4-1.6-2.5-3.6-2.9-5.7
				c-0.1-0.3-0.1-0.6-0.4-0.7c-0.3-0.1-0.5,0.1-0.7,0.3c-0.4,0.4-0.8,0.8-1.2,1.1c-0.7,0.6-1.2,1.3-1.9,2c-1.5,1.6-3,3.3-4.3,5
				c-1.4,1.7-2.7,3.4-3.9,5.2c-1.8,2.7-4,5.2-5.6,8.1c-0.3,0.6-0.5,1.4-1.1,1.9c-0.4,0.3-0.6,0.7-0.9,1.2c0-0.1,0-0.2,0-0.2
				c0.2-1.1,0.6-2.2,0.9-3.3c0.8-2.7,1.8-5.3,3-7.9c0.9-2.1,2-4.1,3.4-6c1.2-1.7,2.7-3.2,4.4-4.5c1.2-1,2.7-1.8,4.2-2.3
				C72,44.4,72.4,44.2,72.8,44z"/>
			<path class="st9" d="M74.4,44.3c0.2-0.2,0.4-0.4,0.7-0.3c0.3,0.1,0.4,0.4,0.4,0.7c0.4,2.1,1.5,4.1,2.9,5.7
				c0.6,0.7,1.1,1.6,1.7,2.3c0.5,0.7,1.2,1.2,1.8,1.9c1.4,1.5,2.8,3,4.6,4.1c0.8,0.5,1.6,1,2.2,1.7c0.9,0.9,2,1.7,2.9,2.6
				c0.8,0.8,1.6,1.6,1.8,2.7c0.6,2-0.2,4.1,0.5,6.1c0.7,1.8,1.6,3.7,3,5c0.7,0.7,1.5,1.4,1.9,2.2c0.4,0.7,0.7,1.6,0.6,2.4
				c0,1.9-0.9,3.6-1.1,5.4c-0.1,0.9,0.1,1.9,0.2,2.8c0.2,1.1,0.9,2,1.4,3c0.5,0.8,1.3,1.4,1.9,2.2c0.6,0.7,1.2,1.4,1.6,2.2
				c0.6,1.2,1,2.6,0.7,3.9c-0.2,1.4-0.9,2.6-1.4,3.9c-0.4,0.9-0.9,1.8-1,2.8c-0.2,1.7,0.1,3.5,1,5c0.5,0.9,1.3,1.5,2.2,2
				c0.9,0.5,1.8,1.1,2.4,2c0.8,1,1.2,2.3,1.8,3.4c0.7,1.5,1.7,2.9,3,4c1,0.9,2.4,1.3,3.8,1.6c1.1,0.2,2.2,0.1,3.2-0.1
				c0.9-0.2,1.8-0.4,2.7-0.8c1.4,2.7,2.9,5.4,4.5,8c0.4,0.6,0.8,1.2,1.1,2c0.2,0.6,0.8,0.8,1,1.4c0.3,0.7-0.1,1.5-0.3,2.1
				c-0.4,1.2-1.1,2.3-1.7,3.5c-0.9,1.7-2,3.3-3.1,4.8c-1.2,1.6-2.3,3.3-3.6,4.9c-1.3,1.6-2.8,3.1-4.3,4.6c-1.8,1.7-3.9,3-6,4.3
				c-1.6,0.9-3.1,1.9-4.8,2.6c-2.6,1.1-5.5,1.5-8.3,1.2c-2-0.2-4-0.7-5.8-1.6c-1-0.5-1.9-1.1-2.8-1.8c0.2-1.2,0.2-2.4,0.4-3.6
				c0.7-4.4,1.8-8.7,3.3-12.9c0.9-2.7,2-5.3,3.3-7.8c0.5-0.9,1-1.8,1.4-2.8c0.5-1.4,1.1-2.7,1.6-4.1c0.4-0.9,0.7-1.9,1.1-2.8
				c0.5-1.1,0.9-2.2,1.3-3.3c0.4-1,0.8-1.9,1-2.9c-0.9,0.7-1.8,1.4-2.7,2.2c-0.3,0.3-0.8,0.5-1.2,0.7c-0.7,0.3-1.3,0.7-1.9,1
				c-1.2,0.7-2.3,1.3-3.5,2.1c-1,0.7-2.1,1-3.2,1.5c-1.2,0.5-2.3,1.1-3.6,1.4c-1.2,0.3-2.4,0.5-3.7,0.7c-0.8,0.1-1.7,0.3-2.5,0.3
				c-0.7,0-1.5-0.1-2.1,0.2c0,0.2,0,0.4-0.1,0.6c-0.1-0.1-0.1-0.3-0.2-0.4c-1.5-0.2-3.1-0.4-4.6-0.9c-1.6-0.4-3-1.1-4.4-1.9
				c-0.9-0.5-1.7-1.3-2.4-2c-0.8-0.7-1.7-1.5-2.4-2.4c-1.2-1.4-2-3-2.8-4.6c-1.1-2-1.8-4.1-2.6-6.2c-0.8-2.2-1.5-4.5-2.1-6.8
				c0.3,0.1,0.7,0.3,1,0.3c0.7-0.1,1.3-0.4,2-0.7c1-0.4,1.9-1.1,2.5-2c1-1.4,1.4-3.1,1.4-4.8c0.1-2-0.7-3.9-1.9-5.5
				c-0.8-1.1-2-1.9-3.3-2.2c-0.9-0.2-1.8-0.1-2.7,0.1c-0.3,0.1-0.6,0.2-0.7,0.4c-0.1,0.3-0.2,0.6-0.2,0.9c-0.1-0.9-0.1-1.7-0.1-2.6
				c0-1.9-0.1-3.9,0.1-5.8c0.1-3.3,0.4-6.6,0.9-9.8c0.3-1.4,0.6-2.9,0.9-4.3c0.1-0.5,0.2-1,0.4-1.4c0,0.1,0,0.2,0,0.2
				c0.2-0.4,0.5-0.9,0.9-1.2c0.6-0.5,0.7-1.2,1.1-1.9c1.6-2.9,3.8-5.4,5.6-8.1c1.2-1.8,2.5-3.5,3.9-5.2c1.4-1.7,2.8-3.4,4.3-5
				c0.6-0.6,1.2-1.4,1.9-2C73.6,45.1,74,44.7,74.4,44.3z"/>
			<path class="st8" d="M64.7,76.2c0.8-0.1,1.6-0.1,2.4-0.1c0.4,0,0.7,0.3,1,0.3c0.2,0,0.5,0,0.7,0c0.3,0.1,0.6,0.3,0.9,0.3
				c0.3,0,0.6,0,0.9,0.2c0.7,0.5,1,1.4,1.1,2.3c0.1,2-0.3,4.1-0.9,6c-0.2,0.7-0.7,1.2-0.8,1.9c-0.2,0.9-0.5,1.8-0.8,2.7
				c-0.2,0.5-0.4,1-0.5,1.5c-0.2,0.9-0.5,1.8-0.8,2.7c-0.4,1.1-0.7,2.2-1.1,3.3c-0.2,0.7-0.4,1.5-0.6,2.2c0,0.2-0.2,0.3-0.3,0.5
				c0-0.3,0-0.6,0-0.9c0.2-1.7,0.3-3.4,0.5-5.1c0.2-1.8,0.3-3.6,0.3-5.4c-0.6,0.1-1.2,0.4-1.8,0.4c-0.9,0.1-1.9,0.5-2.8,0.2
				c-0.2-0.1-0.4-0.2-0.4-0.4c0.2-0.3,0.6-0.4,0.9-0.6c0.4-0.3,0.8-0.7,1.1-1c0.7-0.6,1.2-1.5,1.7-2.3C65.9,84,66,83,66.2,82
				c0.1-0.6,0-1.2-0.1-1.8c-0.3-1.1-0.6-2.2-1.1-3.3C64.7,76.7,64.7,76.5,64.7,76.2z"/>
			<path class="st10" d="M54.3,91.2c0.9-0.2,1.8-0.3,2.7-0.1c1.3,0.3,2.5,1.1,3.3,2.2c1.2,1.6,2,3.5,1.9,5.5
				c-0.1,1.7-0.5,3.4-1.4,4.8c-0.6,0.9-1.5,1.5-2.5,2c-0.6,0.3-1.3,0.7-2,0.7c-0.4,0-0.7-0.1-1-0.3c-0.6-2.5-1-5.1-1.3-7.6
				c-0.2-2-0.4-4-0.5-6c0-0.3,0-0.6,0.2-0.9C53.8,91.4,54.1,91.3,54.3,91.2z"/>
			<path class="st10" d="M90.4,92.1c1.8-0.2,3.7,0.4,5.1,1.6c0.6,0.5,1.3,1,1.7,1.6c0.8,1,1.3,2.3,1.3,3.6c0,1.7-0.2,3.5-1.2,5
				c-0.4,0.7-0.9,1.3-1.5,1.9c-1.3,1.5-3.1,2.4-5,2.6c-2,0-4.1-0.6-5.7-1.9c-1.2-1-1.9-2.4-2.2-3.9c-0.6-2.8,0.3-6,2.4-8
				c0.5-0.5,1-1.1,1.7-1.4C88,92.8,89.2,92.2,90.4,92.1z"/>
			<path class="st8" d="M74.4,102.1c0.3-0.2,0.6-0.2,0.9-0.2c0.1,0.6-0.3,1.1-0.5,1.6c-0.4,0.8-0.7,1.6-1.2,2.4
				c-0.3,0.5-0.5,1-0.9,1.4c-0.2,0.2-0.4,0-0.5-0.1c-0.4,0.3-0.9,0.7-1.5,0.8c-0.7,0.2-1.4-0.2-2-0.6c-0.4-0.2-0.3-0.7-0.3-1.1
				c0-0.6,0-1.1,0.2-1.7c0.1-0.3,0.5-0.3,0.8-0.4c0.6-0.1,1.1-0.5,1.7-0.6c0.7-0.2,1.3-0.4,2-0.6C73.6,102.9,73.9,102.3,74.4,102.1z
				"/>
			<path class="st8" d="M67.7,113.8c1.4,0.4,2.8,0.6,4.2,0.6c1.4,0,2.9-0.2,4.3-0.5c0.4-0.1,0.9-0.1,1.3,0.1c0,1-0.8,1.7-1.4,2.4
				c-0.5,0.6-1.1,1.3-1.9,1.4c-0.8,0-1.7-0.2-2.5-0.2c-0.7,0-1.3,0.1-2,0.1c-0.3,0-0.5-0.3-0.7-0.5c-0.3-0.6-0.5-1.3-0.8-1.9
				C68,114.8,67.6,114.3,67.7,113.8z"/>
			<path class="st8" d="M98.5,122.6c0.8-0.8,1.8-1.5,2.7-2.2c-0.3,1-0.7,2-1,2.9c-0.4,1.1-0.8,2.2-1.3,3.3c-0.4,0.9-0.7,1.8-1.1,2.8
				c-0.5,1.4-1.1,2.7-1.6,4.1c-0.4,1-0.9,1.9-1.4,2.8c-1.3,2.5-2.4,5.1-3.3,7.8c-1.5,4.2-2.7,8.5-3.3,12.9c-0.2,1.2-0.2,2.4-0.4,3.6
				c-1-0.9-1.9-2.2-2.1-3.7c0-0.5-0.1-0.9-0.2-1.4c-0.1-0.4,0-0.9,0-1.3c-0.3-0.5-0.9-0.8-1.1-1.4c-0.2-0.8,0.2-1.5,0.2-2.3
				c-0.2-0.5-0.7-0.8-0.8-1.3c-0.2-0.8,0.2-1.6,0.3-2.5c-0.5-0.2-1-0.2-1.3-0.5c-0.6-0.6-0.8-1.5-0.5-2.3c0.1-0.4,0.4-0.9,0.3-1.4
				c-0.3-0.4-0.9-0.4-1.3-0.8c-0.2-0.3-0.4-0.7-0.6-1.1c-0.2,0-0.4,0-0.6,0c-0.5-1.2-0.9-2.5-1.3-3.7c-0.4-1-0.8-1.9-1.2-2.9
				c-0.3-1-0.7-1.9-0.8-2.9c0-0.2,0-0.4,0.1-0.6c0.7-0.3,1.4-0.2,2.1-0.2c0.8,0,1.7-0.2,2.5-0.3c1.2-0.2,2.5-0.4,3.7-0.7
				c1.2-0.3,2.4-0.9,3.6-1.4c1.1-0.5,2.2-0.8,3.2-1.5c1.1-0.7,2.3-1.4,3.5-2.1c0.6-0.4,1.2-0.8,1.9-1
				C97.7,123.2,98.2,123,98.5,122.6z"/>
			<path class="st10" d="M80.2,140.8c0.2,0,0.4,0,0.6,0c0.2,0.4,0.3,0.8,0.6,1.1c0.3,0.4,0.9,0.4,1.3,0.8c0.1,0.5-0.2,0.9-0.3,1.4
				c-0.3,0.8-0.1,1.7,0.5,2.3c0.4,0.3,0.9,0.4,1.3,0.5c-0.1,0.8-0.5,1.6-0.3,2.5c0.1,0.5,0.6,0.8,0.8,1.3c0,0.8-0.5,1.5-0.2,2.3
				c0.2,0.6,0.8,0.9,1.1,1.4c0,0.4-0.1,0.9,0,1.3c0.1,0.4,0.2,0.9,0.2,1.4c-0.3-0.9-0.7-1.7-1-2.5c-0.6-1.6-1.1-3.3-1.6-5
				c-0.7-2.1-1.3-4.2-2-6.2C80.8,142.4,80.5,141.6,80.2,140.8z"/>
		</g>
		<g>
			<g>
				<path class="st11" d="M85.1,68.7C84,68.9,83,69,82,69.4c-0.6,0.2-1.2,0.6-1.7,1c-0.3,0.1-0.7,0.3-0.8,0.7
					c0.4-0.1,0.8-0.2,1.1-0.3c2.4-1.1,5-1.5,7.6-1.9c0.5-0.1,1,0,1.4-0.4C88,68.3,86.5,68.5,85.1,68.7z"/>
				<path class="st12" d="M58.4,72c1.8-0.7,3.8-0.6,5.8-0.7c1.6-0.1,3.3,0,4.7,0.9c0.2,0.1,0.3,0.2,0.5,0.4c0.5,0.8,0.8,1.7,1.3,2.4
					c-0.1-0.8-0.2-1.6-0.1-2.5c0.2,0.3,0.5,0.6,0.7,0.9c0.2,0.5,0.3,1,0.4,1.6c0.1,0.5,0.1,1.1,0,1.6c-0.1,0.3-0.1,0.5-0.2,0.8
					c-0.1,0-0.3,0-0.4,0c-1.8-0.1-3.5-0.5-5.3-0.5c-1.5-0.1-3,0.1-4.5,0.2c-0.7,0.1-1.4,0.1-2.1,0.1c-1.7,0.2-3.3,0.6-4.9,0.8
					c-0.2,0-0.4-0.1-0.5-0.1c0.1-1.2,0.5-2.3,0.4-3.4c0.1-0.5,0.4-1.2,0.9-1.4c0.5-0.2,1-0.5,1.6-0.7C57.1,72.2,57.8,72.2,58.4,72z"
					/>
				<path class="st13" d="M83.4,71.9c1.3-0.4,2.6-0.5,4-0.6c2.6-0.1,5.1,0.2,7.6,0.8c1.7,0.5,3.5,1.1,5,2.1c0.5,0.3,1,0.6,1.5,1
					c1,0.9,1.6,2.1,1.9,3.4c0.1,0.6,0.3,1.1,0.3,1.6c-0.6-0.2-1.1-0.5-1.6-0.7c-2.1-0.9-4.4-1.6-6.7-2.1c-2.5-0.5-5-0.7-7.5-0.1
					c-0.5,0.1-1,0.1-1.6,0.2c-1.8,0.2-3.5,1-5.3,1c-0.4,0.1-0.6-0.3-0.7-0.6c-0.2-0.5-0.4-0.9-0.5-1.4c-0.1-0.4,0-0.9,0-1.3
					c0.1-0.5,0.2-1,0.4-1.5c0.3,0.7,0.2,1.6,0.4,2.3c0.3-0.8,0.2-1.7,0.6-2.4C81.7,72.9,82.5,72.3,83.4,71.9z"/>
				<path class="st14" d="M61.3,81.5c0.5-0.3,1.1,0,1.4,0.4c0.2,0.3,0.3,0.6,0.2,1c0,0.7,0,1.4-0.4,2c-0.3,0.4-0.8,0.6-1.3,0.4
					c-0.4-0.2-0.7-0.7-0.7-1.1c0-0.7,0-1.4,0.2-2C60.9,81.8,61.1,81.6,61.3,81.5z"/>
				<path class="st14" d="M91.5,82.3c0.8-0.5,1.9,0.2,1.9,1.1c0,0.8-0.2,1.5-0.4,2.2c-0.3,0.7-1.1,1.1-1.8,0.7
					c-0.6-0.3-0.8-0.9-0.7-1.5C90.5,84,90.6,82.8,91.5,82.3z"/>
				<path class="st15" d="M94.6,87.5c0.8-0.2,1.5-0.4,2.2-0.7c0,0.2,0,0.3,0,0.5c-0.8,0.5-1.7,0.9-2.5,1.2c-0.5,0.2-1.1,0.4-1.6,0.2
					c-0.5-0.1-1-0.2-1.5-0.4C92.2,87.9,93.4,87.8,94.6,87.5z"/>
				<path class="st16" d="M57.1,87.2c0.8,0.1,1.5,0.3,2.3,0.6c1.2,0.3,2.4,0.5,3.6,0.4c0.6,0,1.2-0.2,1.8-0.2c0,0.2,0,0.4,0,0.6
					c-0.3,0.2-0.7,0.3-1.1,0.4c-1,0.2-2.1,0.2-3.1,0.2c-1.2-0.1-2.4-0.5-3.2-1.4C57.2,87.6,57.2,87.4,57.1,87.2z"/>
				<path class="st17" d="M72.9,88.2c0.1-0.2,0.4-0.3,0.6-0.4c-0.2,0.5-0.5,1-0.7,1.5c-0.3,0.7-0.6,1.4-0.9,2.1
					c-0.9,2.3-1.8,4.5-2.7,6.8c-0.2,0.5-0.4,1-0.8,1.4c0-0.3,0.1-0.7,0.2-1c0.2-0.6,0.2-1.2,0.4-1.8c0.6-2,1.5-3.9,2.3-5.9
					C71.7,90,72.3,89.1,72.9,88.2z"/>
				<path class="st18" d="M87.8,88.6c0.3-0.1,0.6-0.3,1-0.2c1.1,0.2,2.2,0.5,3.4,0.5c0.8,0,1.6,0.1,2.4-0.1c0.3-0.1,0.5-0.1,0.8-0.1
					c0,0.1,0,0.2,0,0.4c-1.3,0.6-2.7,0.6-4.1,0.6c-1.2,0-2.3-0.4-3.5-0.6C87.8,88.9,87.8,88.8,87.8,88.6z"/>
				<path class="st19" d="M90.4,98.8c0.7-0.6,1.2-1.5,2.2-1.6c0.1,0.1,0.2,0.2,0.2,0.3c-0.4,0.8-1.2,1.3-1.7,2
					c-0.6,0.7-1.2,1.4-1.8,2.1c-0.4,0.4-0.7,0.9-1.1,1.4c-0.1,0.1-0.2,0.2-0.4,0.2c-0.2-0.1-0.1-0.4,0-0.5c0.2-0.5,0.6-1,0.9-1.5
					C89.1,100.3,89.6,99.4,90.4,98.8z"/>
				<path class="st20" d="M73.6,102.3c-1.5,0.4-3.1,0.9-4.6,1.2c-0.5,0-1,0.1-1.4-0.1c-0.5-0.2-0.8-0.7-0.9-1.2
					c-0.2-1.7,0.2-3.4,0.7-5.1c0.6-1.8,1.2-3.6,1.9-5.4c0.5-1.3,1.1-2.5,1.6-3.7c0.4-1,0.8-2,1.2-3.1c0.4-1.2,0.6-2.4,0.7-3.7
					c0-0.8,0-1.7-0.1-2.5c-0.2-0.7-0.6-1.4-1-2c-0.1,0.3-0.1,0.5-0.2,0.8c-0.1,0-0.3,0-0.4,0c0.3,0.6,0.6,1.1,0.7,1.7
					c0.2,1.1,0.3,2.3-0.1,3.4c-0.5,1.7-1.2,3.4-1.8,5.1c-0.7,2.3-1.7,4.5-2.4,6.8c-0.7,2-1.5,4-1.8,6.1c-0.1,0.8-0.2,1.6,0,2.3
					c0.2,0.9,0.9,1.6,1.8,1.7c1.1,0.2,2.2,0.1,3.2-0.3c1.1-0.4,2.2-0.8,3.2-1.4c0.5-0.2,1-0.4,1.4-0.7c0.2-0.1,0.2-0.3,0.3-0.5
					C74.9,101.7,74.2,102,73.6,102.3z"/>
				<path class="st21" d="M68.7,106.4c1,0,2-0.3,3.1-0.3c1-0.1,2,0,3,0.1c1.4,0.2,2.8,0.3,4,1.1c0.4,0.2,0.7,0.6,0.9,1.1
					c-0.8-0.2-1.6,0-2.4,0c-1.4,0.1-2.8,0.3-4.3,0.2c-1.5-0.1-2.9-0.4-4.4-0.4c-1,0-2.1-0.1-3.1,0.4c0-0.1,0-0.3,0-0.4
					c0.1-0.3,0.3-0.6,0.6-0.7C66.9,106.9,67.8,106.4,68.7,106.4z"/>
				<path class="st10" d="M65.7,110.2c-0.3-0.6-0.3-1.4-0.2-2c0,0.1,0,0.3,0,0.4c0,0.1,0,0.3,0,0.4c0.5,0.1,1,0.2,1.5,0.1
					c1.4-0.1,2.8-0.1,4.2,0.1c1.4,0.1,2.8,0.3,4.2,0.2c1.1-0.1,2.2-0.1,3.2-0.3c0.5-0.1,0.9-0.1,1.4-0.1c0.3,0.6,0.1,1.4-0.2,2
					c-0.7,1.2-2.2,1.7-3.5,2c-2.4,0.5-4.9,0.5-7.3-0.2C67.7,112.2,66.4,111.4,65.7,110.2z"/>
				<path class="st22" d="M65.5,108.5c1-0.5,2-0.4,3.1-0.4c1.5,0,3,0.3,4.4,0.4c1.4,0.1,2.9,0,4.3-0.2c0.8-0.1,1.6-0.2,2.4,0
					c0.1,0,0.2,0.1,0.4,0.1c0,0.2,0,0.3-0.1,0.5c-0.5,0-0.9,0-1.4,0.1c-1.1,0.2-2.2,0.2-3.2,0.3c-1.4,0.1-2.8,0-4.2-0.2
					c-1.4-0.1-2.8-0.1-4.2-0.1c-0.5,0-1,0-1.5-0.1C65.5,108.8,65.5,108.6,65.5,108.5z"/>
				<path class="st23" d="M69.2,109.9c0.6-0.2,1.2-0.1,1.9-0.2c1,0,2,0.2,3.1,0.1c0.9,0,1.8,0,2.8-0.1c-0.3,0.5-1,0.4-1.5,0.4
					c-2.1,0.1-4.1,0.2-6.2,0C69,110.2,69.1,109.9,69.2,109.9z"/>
				<path class="st24" d="M68.8,120.8c0.7-0.4,1.4-0.9,2.2-1c1.2-0.1,2.5-0.2,3.6,0.4c0.1,0.1,0.2,0.2,0.3,0.3
					c-0.1,0.2-0.4,0.1-0.6,0.1c-1.1-0.1-2.2,0-3.3-0.1c-0.6,0-1.1,0.2-1.7,0.3C69.1,121,69,120.9,68.8,120.8z"/>
				<g>
					<path class="st25" d="M128.5,137.1c0.1,0,0.1-0.1,0.2-0.1c0.2-0.7,0.5-1.3,0.7-2c0.1-0.6,0.1-1.1,0.1-1.7c0-1.2,0-2.4-0.2-3.4
						c-0.4-2.1-1.4-4-3.2-5.1c0.1,0.1,0.1,0.3,0.2,0.4c0.7,0.8,1.1,1.8,1.3,2.9c0.3,0.9,0.5,1.9,0.7,2.8c0.2,1.8,0.3,3.7,0.3,5.5
						C128.5,136.6,128.5,136.9,128.5,137.1z"/>
					<path class="st25" d="M57.9,173.5c0.6,0.6,1.3,0.9,1.9,1.3c1.3,0.8,2.6,1.6,3.8,2.4c1.5,1.1,3,2,4.3,3.3
						c0.9,0.8,1.6,1.7,2.4,2.5c0.9,0.9,1.7,2,2.3,3.1c0.6,0.9,1.1,1.9,1.5,2.9c0.1,0.3,0.3,0.7,0.5,1c-0.7,0.5-1.4,0.9-2,1.4
						c-1.4,1-2.8,2-4,3.2c-1.6,1.6-2.9,3.6-3.5,5.7c-0.3,1.1-0.7,2.2-0.8,3.4c-0.3,0.7-0.2,1.5-0.3,2.3c0,1.2-0.4,2.4-0.7,3.6
						c-0.4,1.3-0.7,2.5-1.1,3.8c-0.9,3.3-1.7,6.7-2,10.2c-0.1,0.6-0.1,1.2-0.2,1.8h1c0.2-1.4,0.3-2.9,0.5-4.3
						c0.3-2.5,0.9-4.9,1.4-7.3c0.2-1.1,0.5-2.1,0.7-3.2c0.4-1.4,0.7-2.9,0.8-4.4c0-1.5,0.5-2.9,1-4.3c0.3-0.9,0.6-1.8,1-2.7
						c0.1,0,0.2,0.2,0.2,0.2c0.4-0.4,0.9-0.7,1.3-1.1c0.4-0.3,0.8-0.6,1.2-0.9c1.2-0.9,2.6-1.8,4-2.3c2.6-1,5.4-1.3,8.1-1.7
						c1.3-0.2,2.6-0.3,4-0.2c1.3,0.1,2.7,0.3,4,0.5c1.6,0.4,3.3,0.4,4.9,0.6c1.5,0,3,0.2,4.6,0.1c1.7,0,3.5,0,5.2,0
						c2.4,0.1,4.8,0.4,7.2,1c2.3,0.6,4.6,1.2,6.6,2.5c0.8,0.6,1.8,1,2.7,1.4c1,0.4,1.9,0.8,2.8,1.1c1.5,0.5,3.1,0.9,4.6,1.1
						c1,0.3,2,0.2,3,0.3c0.2,0,0.4,0.1,0.7,0.1c0.4-0.1,0.7-0.4,1-0.7c0.3-0.1,0.4-0.4,0.6-0.6c0.9-1.1,1.7-2.4,2.2-3.7
						c0.4-0.9,0.8-1.8,1.1-2.8c0.3-0.8,0.5-1.6,0.9-2.4c1.5-3.5,2.5-7.3,2.8-11.1c0.1-1.5,0.6-3,0.9-4.6c0.5-2.3,1.1-4.5,1.8-6.7
						c0.2-0.4,0.3-0.9,0.5-1.3c0.7-2.4,1.4-4.9,1.8-7.4c0.2-0.7,0.2-1.4,0.3-2.1c0.4-2.6,0.7-5.2,0.6-7.8c-0.1-0.7,0-1.4-0.2-2.1
						c0-1,0-1.9-0.1-2.9c0-1.6-0.1-3.1-0.3-4.6c0,0,0-0.1,0-0.1c-0.5-1.3-1.1-2.5-1.9-3.5c0,0.2,0,0.4,0.1,0.6l0.1-0.1
						c0.2,0.6,0.3,1.2,0.5,1.8c0.3,0.9,0.3,1.8,0.5,2.8c0.2,1.8,0,3.5,0.2,5.3c0,0.5,0.1,1.1,0.2,1.6c0,0.7,0.1,1.5,0.2,2.2
						c0.1,1,0,2.1-0.1,3.2c-0.1,1.6-0.4,3.2-0.6,4.7c-0.4,1.5-0.8,3.1-1.1,4.6c-0.5,1.3-0.8,2.6-1.4,3.9c-0.3,1.1-0.9,2-1.3,3
						c-0.6,1.5-1.3,2.9-1.7,4.5c-0.2,0.8-0.4,1.6-0.5,2.5c-0.2,1.3-0.2,2.5-0.4,3.8c-0.2,1.3-0.4,2.5-0.6,3.8
						c-0.4,2.5-1.3,4.9-2.2,7.2c-0.5,1.3-1,2.7-1.7,4c-0.6,1.1-1.1,2.3-1.8,3.4c-0.1,0.2-0.2,0.4-0.5,0.4c-0.6,0-1.2-0.3-1.9-0.5
						c-0.8-0.3-1.6-0.6-2.4-0.7c-1.5-0.3-2.9-0.6-4.3-1.2c-1.5-0.6-3.1-1.1-4.6-1.9c-1.6-0.7-3.4-1-5.1-1.6
						c-0.7-0.2-1.5-0.2-2.2-0.4c-1.7-0.4-3.5-0.8-5.2-0.9c-2.7-0.2-5.4-0.1-8.1-0.1c-1.6,0-3.2-0.1-4.8-0.2
						c-1.4-0.1-2.8-0.3-4.2-0.4c-1-0.2-2.1-0.2-3.2-0.3c-1.6-0.1-3.3,0-4.9,0.3c-2.4,0.3-4.8,0.6-7,1.5c-1.7,0.6-3.4,1.5-4.7,2.8
						c-0.7,0.5-1.2,1.3-1.9,1.8c1-1.9,2.5-3.5,4.1-5c2.4-2.1,5.1-3.9,7.8-5.7c2-1.2,3.8-2.6,5.8-3.7c0.8-0.5,1.7-0.9,2.5-1.5
						c0.4-0.2,1-0.5,1-1c-0.4,0-0.7,0.2-0.9,0.5c-2.3,0.8-4.4,2.1-6.4,3.5c-1.7,1.2-3.5,2.4-5.2,3.6c-0.7-2-1.9-3.9-3.2-5.6
						c-0.7-1-1.6-1.9-2.4-2.8c-0.7-0.7-1.4-1.4-2.1-2.1c-1-0.8-2-1.6-3-2.3c-1.7-1.3-3.5-2.5-5.4-3.4c-0.5-0.3-1-0.7-1.6-0.6
						C57.7,173,57.6,173.3,57.9,173.5z"/>
					<path class="st25" d="M67.5,188.9c0.1,0,0.2,0,0.3,0c0.1-0.6-0.3-1.1-0.6-1.6c-1-1.7-2.3-3.1-3.8-4.3c-0.8-0.5-1.6-1.1-2.5-1.1
						c0,0.1,0,0.2,0,0.3c0.9,0.6,1.8,1.2,2.6,1.9C65.1,185.5,66.5,187,67.5,188.9z"/>
					<path class="st25" d="M144.5,225.5c0.3-2.3,0-4.7,0.2-7c0.1-1.3,0.2-2.5,0.5-3.8c0.5-2.1,1.2-4.2,1.8-6.3
						c0.7-2.3,1.6-4.5,2.6-6.7c1.2-2.4,2.6-4.8,4.1-7c1.1-1.6,2.1-3.3,3.2-4.9c1.4-2,2.8-4,4.1-6c0.3-0.6,0.9-1.1,1-1.7
						c-0.5,0.4-0.8,0.9-1.2,1.4c0,0-0.1,0-0.1,0.1c-0.6,1.1-1.4,2-2.3,2.8c-0.8,1.1-1.5,2.2-2.2,3.3c-1.1,1.7-2.5,3.1-3.6,4.8
						c-2.7,3.9-4.9,8.2-6.4,12.8c-0.7,2.3-1.3,4.6-1.8,6.9c-0.3,1.4-0.4,2.8-0.4,4.2c-0.1,0.9-0.1,1.8-0.1,2.7c0,1.5-0.1,3,0.1,4.5
						H144.5z"/>
					<path class="st25" d="M85.7,190.6c1,0,1.9,0,2.9-0.1c1-0.1,2.1,0.1,3.1,0.1c1.9,0.3,3.8,0.6,5.6,0.9c2.2,0.4,4.5,0,6.7-0.3
						c2-0.2,4-0.4,5.9-0.3c1,0.1,2,0.2,3,0.3c1.6,0.2,3.2,0.5,4.8,1.1c0.8,0.3,1.6,0.8,2.3,1.1c0.3,0.2,0.6,0.4,1,0.6
						c0.8,0.4,1.5,1,2.2,1.4c0.1-0.2,0.3-0.4,0-0.5c-0.8-0.7-1.7-1.4-2.7-2c-1-0.7-2.1-1.4-3.3-1.9c-1.3-0.5-2.7-0.7-4-0.9
						c-1.2-0.1-2.5-0.3-3.7-0.3c-1.4,0-2.9,0-4.3,0.1c-2.5,0.3-5.1,0.9-7.7,0.5c-1.5-0.2-3-0.6-4.5-0.7c-2.5-0.4-5-0.2-7.4,0.4
						C85.7,190.3,85.7,190.5,85.7,190.6z"/>
					<path class="st25" d="M139.5,225.5c0-0.6,0-1.2,0-1.8c0-1,0.1-2,0.1-3c0.1-1.3,0.2-2.5,0.3-3.8c0.3-2.4,0.9-4.8,1.5-7.2
						c1.1-4.3,2.9-8.3,4.6-12.3c0.2-0.5,0.5-1,0.5-1.6c-0.2,0-0.3,0-0.5,0c-0.3,0.4-0.5,0.8-0.7,1.2c-1.1,2-2.1,4.1-3,6.3
						c-1,2.4-1.8,5-2.4,7.5c-0.5,2.5-1.1,5.1-1.2,7.7c-0.2,2.3-0.1,4.7,0.3,7H139.5z"/>
					<path class="st25" d="M71.6,206.7c0.5,0.2,1.1,0.2,1.7,0.2c1-0.1,1.9-0.8,2.4-1.7c0.7-1,0.7-2.2,0.5-3.3
						c-0.1-0.6-0.4-1.2-0.9-1.6c-0.9-0.8-2.1-1.3-3.2-1.2c-0.7,0-1.3,0.3-1.8,0.8c-0.4,0.4-0.6,0.9-0.9,1.4
						c-0.2,0.3-0.5,0.7-0.6,1.1c-0.2,1,0.1,2.2,0.8,2.9C70.1,206,70.8,206.5,71.6,206.7z"/>
					<path class="st25" d="M81.8,205.8c-0.4,0.3-0.8,0.5-1.2,0.8c-2,1.2-4,2.3-6.2,3c-1.6,0.5-3.3,1.1-4.4,2.4
						c-0.4,0.3-0.6,0.8-0.5,1.2c0.2,0,0.5-0.1,0.7-0.3c0.5-0.4,1.2-0.8,1.8-1.1c1.5-0.8,3.2-1.1,4.7-1.8c1-0.5,1.9-1.1,2.8-1.6
						c0.7-0.5,1.3-0.9,1.9-1.4c0.6-0.3,1-0.8,1.5-1.2c0.2-0.2,0.4-0.3,0.5-0.5c0-0.2-0.1-0.3-0.2-0.5
						C82.7,205.2,82.3,205.5,81.8,205.8z"/>
					<path class="st25" d="M40.1,216.4c0.5,1.5,0.7,3,0.9,4.5c0.1,1.2,0.3,2.3,0.4,3.5c0,0.3,0,0.7,0,1h1c0.1-0.6,0.2-1.1,0.4-1.7
						c0.4-1.7,0.8-3.3,1.3-4.9c0.2-0.8,0.6-1.6,0.9-2.4c0.4-0.8,0.5-1.7,0.7-2.6c0.2-1.1,0.1-2.3,0.1-3.4c0-0.5-0.1-1-0.1-1.6
						c-0.2-1.1-0.3-2.3-0.7-3.4c-0.1-0.3-0.6-0.6-0.7-0.2c0.1,0.8,0.3,1.7,0.3,2.5c0,2.1,0,4.2-0.2,6.2c-0.1,0.9-0.2,1.8-0.5,2.7
						c-0.4,1.3-0.9,2.6-1.3,3.9c-0.2,0.5-0.4,1-0.6,1.6c0-2-0.3-4.1-0.8-6c-0.5-1.9-1.1-3.8-2.4-5.4c-0.4-0.4-0.8-0.9-1.4-0.8
						c-0.1,0.5,0.3,1,0.5,1.4C38.6,213,39.5,214.7,40.1,216.4z"/>
					<path class="st25" d="M136.5,225.5c0-1.2,0.1-2.4,0.3-3.6c0-0.1,0-0.2,0.1-0.3c0-0.5,0-1,0.1-1.5c0.1-2.3,0.4-4.6,0.9-6.9
						c0.2-0.6,0.3-1.1,0.4-1.7c-0.3,0.1-0.6,0.1-0.7,0.4c-0.3,0.7-0.4,1.5-0.6,2.3c-0.3,1.4-0.6,2.7-0.8,4.1
						c-0.4,2.4-0.4,4.8-0.2,7.1H136.5z"/>
				</g>
			</g>
			<path class="st26" d="M83.9,30.7c0.9-0.6,2-0.6,3-0.6c1.6,0.2,3.2,0.8,4.5,1.7c1.6,1.3,2.9,2.9,3.8,4.8c0.1,0.2,0,0.4-0.1,0.6
				c-0.5-0.3-0.7-1-1.1-1.5c-1.1-1.4-2.4-2.7-4-3.4c-1.5-0.7-3-1.2-4.7-1.1c-0.5,0-1,0.1-1.6,0.2C83.4,31.2,83.7,30.9,83.9,30.7z"/>
			<path class="st27" d="M65.5,35.3c0.9-1,2-1.8,3.3-2.2c0,0.1,0,0.2,0,0.3c-0.3,0.4-0.8,0.5-1.2,0.8c-0.8,0.6-1.4,1.4-1.8,2.3
				c-0.5,1.1-0.8,2.4-1.7,3.2c-0.9,0.9-2.2,1.4-3.4,1.7c-0.6,0.1-1.3,0.4-1.8,0.8c-0.6,0.5-1.1,1.1-1.8,1.5
				c-0.2-0.6,0.2-1.2,0.6-1.7c0.5-0.6,1.1-1.3,1.9-1.5c0.6-0.2,1.3-0.3,1.9-0.5c0.9-0.4,1.6-0.9,2.2-1.7
				C64.2,37.3,64.7,36.2,65.5,35.3z"/>
			<path class="st28" d="M105.3,35.7c1.1-0.2,2.2-0.3,3.2-0.1c1.4,0.3,2.7,1,3.5,2.2c0.6,0.8,0.7,1.8,1.1,2.7
				c0.3,0.8,1.1,1.3,1.8,1.7c0.9,0.4,1.8,0.4,2.7,0.8c0.9,0.5,1.7,1.1,2.1,2c0.5,0.9,0.5,1.9,0.6,2.9c0.2,1.7,0.9,3.3,2.3,4.4
				c0.4,0.4,1,0.7,1.5,1c0.2,0.1,0.2,0.4,0.2,0.5c-1.3,0.1-2.4-0.7-3.3-1.5c-0.6-0.5-1.1-1.1-1.4-1.7c-0.4-1-0.6-2.1-0.6-3.1
				c-0.1-0.8-0.1-1.7-0.6-2.3c-0.5-0.7-1.2-1.2-2-1.4c-0.8-0.2-1.6-0.3-2.4-0.7c-0.8-0.4-1.5-1-1.9-1.8c-0.5-0.9-0.6-2-1.2-2.8
				c-0.8-0.9-2-1.5-3.1-1.6c-1.6-0.1-3.1,0.5-4.7,0.4c-1-0.1-2.2-0.4-2.5-1.4c0.9,0.3,1.7,0.9,2.6,0.8
				C104,36.5,104.6,35.8,105.3,35.7z"/>
			<path class="st29" d="M86.4,36.7c0.3,0,0.3,0.3,0.4,0.5c0.5,1.2,0.6,2.6,1.5,3.6c0.7,0.9,1.6,1.6,2.7,1.9
				c1.5,0.3,3.1,0.1,4.6,0.4c0.7,0.1,1.4,0.5,2.1,0.9c1.7,0.9,3,2.6,3.8,4.3c0.5,1,1.2,1.9,2.3,2.3c1.1,0.5,2.4,0.3,3.6,0.7
				c1.7,0.5,3.4,1.4,4.5,2.9c1,1.4,1.7,3,2.4,4.5c0.5,1.1,1,2.2,1.7,3.2c0.1,0.2,0.3,0.4,0.2,0.6c-0.1,0.3-0.5,0.3-0.7,0.1
				c-0.4-0.4-0.7-0.8-1-1.3c-1-1.4-1.7-3.1-2.8-4.5c-0.6-0.8-1.2-1.6-2-2.3c-0.8-0.7-1.8-1.1-2.8-1.5c-0.6-0.2-1.1-0.3-1.7-0.4
				c-1-0.1-2-0.4-2.9-0.9c-0.7-0.4-1.2-1-1.7-1.6c-0.7-0.9-1-2.1-1.7-3c-1-1.4-2.4-2.6-4.1-3c-1.5-0.4-3.1-0.1-4.6-0.6
				c-1-0.4-1.9-1.2-2.6-2.1c-0.7-0.9-0.9-2-1.2-3C86.3,37.9,86.2,37.3,86.4,36.7z"/>
			<path class="st30" d="M79.4,40.1c0.5,0.1,0.9,0.3,1.2,0.6c1.4,1.4,2.1,3.3,3.4,4.8c1,1.3,2.2,2.3,3.6,3.2c0.6,0.4,1.2,0.6,1.8,1
				c0,0.1,0,0.2,0,0.3c-0.2,0-0.3,0-0.5,0c-1.9-0.7-3.7-1.8-5.2-3.2c-0.8-0.8-1.3-1.7-1.9-2.6c-0.7-1.2-1.4-2.4-2.3-3.5
				C79.3,40.4,79.4,40.2,79.4,40.1z"/>
			<path class="st31" d="M100,41.1c0.3,0,0.7,0,1,0.2c1,0.4,1.8,1.1,2.7,1.4c1.3,0.5,2.7,0.7,4,1.3c0.6,0.3,1.2,0.7,1.4,1.4
				c-0.7-0.5-1.3-0.9-2.1-1.2c-1-0.4-2.1,0-3.2-0.3c-1-0.2-1.8-0.7-2.6-1.4c-0.4-0.3-0.8-0.6-1.2-0.9C99.9,41.5,100,41.3,100,41.1z"
				/>
			<path class="st32" d="M114.2,49.2c0.2-0.1,0.4,0,0.6,0.2c0.5,0.5,0.9,1,1.2,1.6c0.6,1.2,1.1,2.5,1.9,3.6c0.2,0.2,0.3,0.5,0.3,0.9
				c-0.2,0-0.5,0-0.6-0.1c-1.4-1.5-2.1-3.5-3.2-5.2C114.2,49.8,114,49.5,114.2,49.2z"/>
			<path class="st33" d="M50.7,49.9c0.2,0.4,0.2,0.9,0.2,1.4c0,0.6,0.1,1.2,0,1.7c0-0.5-0.1-1-0.2-1.5c-0.1,0.5-0.2,1-0.4,1.5
				c0-0.4,0-0.8,0.1-1.3C50.6,51.1,50.6,50.5,50.7,49.9z"/>
			<path class="st13" d="M126.8,50.4c-0.1-0.3,0.4-0.4,0.6-0.4c0.8,0.2,1.6,0.7,2.2,1.3c0.6,0.6,1,1.5,1.3,2.3
				c0.5,1.3,0.8,2.6,0.6,4c0,0.3-0.2,0.6-0.4,0.8c-0.2-0.4-0.1-0.8-0.1-1.1c0-0.8-0.2-1.6-0.5-2.3c-0.5-1.4-1.2-2.8-2.4-3.7
				C127.7,51,127.2,50.8,126.8,50.4z"/>
			<path class="st34" d="M58.4,51.4c0.3-0.3,0.9-0.5,1.2-0.1c-0.4,0.4-0.8,0.8-1.1,1.3c-1.3,1.8-2.2,3.8-2.9,5.9
				c-0.3,0.8-0.5,1.6-0.7,2.3c0-1,0.2-2,0.4-2.9c0.2-1.3,0.6-2.6,1.2-3.8C56.9,53.1,57.5,52.1,58.4,51.4z"/>
			<path class="st27" d="M50.7,51.5c0.1,0.5,0.2,1,0.2,1.5c0,1.1-0.3,2.1-0.6,3.1c-0.3,0.8-0.9,1.5-1.7,1.9
				c-0.9,0.5-1.9,1.1-2.7,1.7c-0.3,0.3-0.8,0.5-1.1,0.8c-0.7,0.9-1.1,1.9-1.8,2.7c-0.3,0.4-0.4,0.9-0.7,1.3c0-1.4,0.5-2.8,1.3-3.9
				c0.9-1.4,2.3-2.4,3.7-3.1c0.7-0.3,1.5-0.5,2-1.2c0.6-1,0.8-2.1,1.1-3.2C50.5,52.5,50.6,52,50.7,51.5z"/>
			<path class="st12" d="M94.4,51.7c0.2-0.1,0.5,0.1,0.7,0.2c1,0.8,2.3,1.1,3.4,1.5c1.2,0.5,2.5,1,3.5,1.9c0.4,0.3,0.7,0.7,0.9,1.2
				c-0.1,0-0.2,0-0.3,0c-0.3-0.2-0.6-0.6-0.9-0.8c-1-0.7-2.2-1.1-3.4-1.5c-1.3-0.3-2.6-0.7-3.6-1.6C94.5,52.4,94.2,52,94.4,51.7z"/>
			<path class="st27" d="M121.1,58.5c0.1,0,0.2,0.1,0.2,0.1c0.1,1.1,0.3,2.2,0.7,3.3c0.3,1,1.1,1.8,2,2.2c1,0.5,2,1,2.7,1.8
				c0.9,1,1.4,2.3,1.6,3.6c0.2,0.9,0.3,1.9,0,2.8c-0.4,1-1.1,2-1.1,3.1c0,0.9,0.5,1.7,1,2.5c0.7,1.1,1.2,2.3,1.4,3.6
				c0.1,0.5,0.1,1.1-0.4,1.5c-0.1-0.1-0.2-0.2-0.2-0.2c0-1.6-0.8-3-1.8-4.2c-0.6-0.8-1.1-1.7-1.1-2.8c0-0.8,0.2-1.7,0.6-2.4
				c0.3-0.6,0.6-1.2,0.6-1.9c0-1-0.2-1.9-0.4-2.8c-0.3-0.9-0.7-1.7-1.4-2.3c-0.9-0.8-2.1-1.2-2.9-2c-0.5-0.5-0.9-1-1.1-1.7
				c-0.3-1.1-0.5-2.2-0.4-3.4C120.9,59,121,58.7,121.1,58.5z"/>
			<path class="st32" d="M125.9,58.5c0.6,0.1,0.9,0.7,1.2,1.1c1,1.4,1.5,3.1,2.5,4.5c0.3,0.5,0.7,0.9,1.1,1.3
				c-1.2-0.5-2-1.7-2.7-2.8C127.1,61.3,126.6,59.8,125.9,58.5z"/>
			<path class="st35" d="M106,59.6c0.4,0,0.7,0,1,0.2c0.5,0.4,0.9,0.9,1.2,1.5c0.7,1.1,1.4,2.3,2.3,3.2c0.4,0.4,0.9,0.6,1.3,1
				c0,0.1,0,0.2,0,0.3c-0.3,0-0.6-0.1-0.8-0.2c-1.7-1-2.9-2.7-3.9-4.4C106.9,60.6,106.4,60.2,106,59.6z"/>
			<path class="st27" d="M116,67.7c0.4,0.1,0.5,0.5,0.7,0.8c0.6,1,1.7,1.4,2.5,2.1c1.4,1.1,1.9,2.9,1.9,4.5c0,1.4,0.1,2.8-0.4,4.1
				c-0.1,0-0.3,0-0.4,0c0.1-1.7-0.1-3.4-0.4-5c-0.2-0.9-0.5-1.7-1.1-2.4c-0.7-0.8-1.6-1.3-2.2-2.1C116.2,69.1,116,68.4,116,67.7z"/>
			<path class="st27" d="M37.7,71.3c0.5-0.9,1-1.9,1.9-2.4c-0.3,1-0.7,2-0.9,3c-0.2,1-0.3,2.1-0.1,3.1c0.2,1.2,0.4,2.3,0.3,3.5
				c-0.1,1.1-0.5,2.2-0.9,3.2c-0.3,0.7-0.6,1.4-1.1,2c-0.2,0.2-0.4,0.5-0.7,0.5C36,84.2,36,84.1,36,84c0.2-0.4,0.5-0.7,0.7-1
				c0.3-0.7,0.5-1.4,0.8-2.1c0.2-0.6,0.4-1.1,0.3-1.7c-0.1-0.9-0.3-1.7-0.5-2.6c-0.2-1-0.2-2.1-0.1-3.2
				C37.3,72.7,37.3,71.9,37.7,71.3z"/>
			<path class="st36" d="M48.8,73.5c0-0.7,0-1.5,0.3-2.2c0.2,0.6,0.3,1.2,0.5,1.7c0.2,0.8,0.5,1.6,0.4,2.4c-0.1,1-0.3,2.1-0.8,3
				c-0.5,1-1.3,1.8-2,2.6c-0.6,0.7-1,1.4-1.7,2.1c0.1-0.7,0.2-1.4,0.6-2c0.5-0.8,1.1-1.6,1.5-2.4C48.6,77.2,48.7,75.3,48.8,73.5z"/>
			<path class="st27" d="M135.5,74.8c-0.2-0.5-0.3-1.2,0.2-1.7c0.3,0.3,0.3,0.8,0.5,1.2c0.7,1.3,2.4,1.8,3.2,3.1
				c0.6,1,1.1,2.1,1.1,3.3c0.1,1.3-0.2,2.7-1,3.8c-0.8,1-1.3,2.3-1.4,3.5c-0.2,1.1,0.2,2.2,0.2,3.4c0,1.1,0.1,2.3-0.1,3.4
				c-0.1-1.1-0.1-2.3-0.5-3.3c-0.3-0.9-0.6-1.9-0.6-2.8c0-1.5,0.4-2.9,1.1-4.2c0.4-0.7,0.9-1.5,1-2.4c0.3-1.4-0.1-2.8-0.8-4.1
				c-0.3-0.5-0.7-0.9-1.2-1.3C136.4,76.2,135.8,75.6,135.5,74.8z"/>
			<path class="st26" d="M133,79c0.2,0,0.4-0.2,0.5,0c0.3,0.3,0.5,0.8,0.7,1.2c0.5,1.1,0.8,2.2,0.7,3.4c-0.1,1.1-0.6,2.2-0.9,3.3
				c-0.3,1.1-0.6,2.3-0.7,3.4c0,0.3-0.1,0.6-0.2,0.9c-0.2-0.1-0.4-0.3-0.4-0.6c-0.1-2.2,0.5-4.4,0.9-6.6c0.2-0.9,0.1-1.8-0.1-2.7
				C133.3,80.6,133,79.8,133,79z"/>
			<path class="st32" d="M32.2,82.4c0.1-0.2,0.1-0.5,0.4-0.5c0.2,0.7,0.5,1.5,0.1,2.2c-0.5,1.1-1.2,2.2-1.5,3.3
				c-0.3,1-0.5,2.1-0.4,3.1c0,0.7,0.4,1.3,0.4,2c-0.7-0.5-1-1.3-1-2.2c-0.1-1.6,0.2-3.1,0.7-4.6C31.2,84.6,31.9,83.5,32.2,82.4z"/>
			<path class="st31" d="M122,83.9c0.1-0.2,0.3-0.2,0.5-0.2c0,0.7-0.2,1.4-0.3,2.1c-0.1,0.7,0,1.5,0.3,2.2c0.5,0.9,1.3,1.7,1.6,2.7
				c0.6,1.5,0.8,3,0.8,4.6c0,2.2-0.8,4.2-1.8,6.1c-0.2,0.3-0.4,0.7-0.7,1c0-0.3,0.1-0.7,0.1-1c0.2-0.8,0.6-1.6,0.8-2.4
				c0.5-1.5,0.6-3.1,0.4-4.6c-0.2-1.3-0.4-2.6-1-3.8c-0.4-0.9-1.2-1.6-1.5-2.6C121,86.6,121.3,85,122,83.9z"/>
			<path class="st37" d="M43.8,88.6c0.2-0.3,0.4-0.5,0.8-0.5c-0.2,0.6-0.5,1.1-0.7,1.7c-0.3,1.1-0.3,2.3-0.2,3.4
				c0.2,1.8,0.4,3.5,0.4,5.3c0,0.6,0,1.2-0.2,1.8c-0.1,0.2-0.3,0.2-0.4,0.2c0.2-2.9-0.7-5.6-0.7-8.5C42.8,90.9,43.2,89.6,43.8,88.6z
				"/>
			<path class="st38" d="M48.8,90.4c0.1-0.2,0.3-0.1,0.5-0.1c0,1-0.2,2-0.3,3c-0.2,1.6,0.2,3.2,0.1,4.9c0,1.3-0.1,2.7-0.9,3.8
				c-0.1,0-0.2,0-0.4-0.1c0.6-1.4,0.7-3,0.4-4.5c-0.1-0.8-0.4-1.6-0.5-2.4c-0.1-1.1,0.1-2.2,0.4-3.2C48.4,91.3,48.5,90.8,48.8,90.4z
				"/>
			<path class="st26" d="M128.6,92.6c0.2-0.6,0.3-1.3,0.9-1.6c0.1,0.2,0.3,0.3,0.3,0.5c0,0.6-0.2,1.1-0.2,1.7
				c-0.2,1.3-0.2,2.6,0.2,3.9c0.4,1.4,1,2.8,1.5,4.2c0.2,0.8,0.2,1.6,0.1,2.5c-0.1,0-0.2,0-0.4,0.1c-0.2-0.8-0.3-1.7-0.6-2.4
				c-0.4-1-1-1.9-1.5-2.8C127.9,96.8,127.9,94.6,128.6,92.6z"/>
			<path class="st39" d="M138.3,91.4c0.2,0.5,0.2,1.1,0.2,1.6c0.1,1.1-0.1,2.3-0.7,3.3c-0.1,0-0.2,0-0.3,0c0.1-0.6,0.4-1.2,0.4-1.9
				c0.1-1-0.2-1.9-0.3-2.8c0.4,1.1,0.4,2.2,0.5,3.3C138.4,93.7,138.3,92.5,138.3,91.4z"/>
			<path class="st40" d="M141.5,96.9c0.5,0.2,0.7,0.8,1,1.3c0.4,0.7,1,1.4,1,2.2c0,1.1-0.2,2.3-0.7,3.4c-0.2,0.4-0.4,0.8-0.8,1
				c-0.2,0.1-0.3-0.2-0.5-0.3c0.3-0.5,0.6-1,0.7-1.6c0.3-1.3,0.2-2.6-0.2-3.9C141.8,98.3,141.5,97.6,141.5,96.9z"/>
			<path class="st41" d="M121.9,103.4c0.1-0.7,0.5-1.4,0.8-2c-0.1,0.3-0.1,0.7-0.1,1c0.2-0.3,0.4-0.7,0.7-1
				c-0.2,0.6-0.5,1.2-0.8,1.8C122.3,103.3,122.1,103.3,121.9,103.4z"/>
			<path class="st42" d="M51.2,101.9c0.2,0,0.3,0,0.5,0c0.1,0.3,0.1,0.7,0,1.1c-0.3,1-0.7,1.9-1.3,2.8c-0.3,0.4-0.5,0.8-0.9,1.1
				c-0.1,0.1-0.3,0-0.5,0c0.2-0.6,0.6-1.1,0.9-1.7c0.4-0.9,0.8-1.7,1.1-2.7C50.9,102.3,51,102.1,51.2,101.9z"/>
		</g>
	</g>
</g>
</svg>
