<?xml version="1.0" encoding="utf-8"?>
<!-- Generator: Adobe Illustrator 25.2.0, SVG Export Plug-In . SVG Version: 6.00 Build 0)  -->
<svg version="1.1" id="Layer_1" xmlns="http://www.w3.org/2000/svg" xmlns:xlink="http://www.w3.org/1999/xlink" x="0px" y="0px"
	 viewBox="0 0 180 180" style="enable-background:new 0 0 180 180;" xml:space="preserve">
<style type="text/css">
	.st0{clip-path:url(#SVGID_2_);}
	.st1{fill:#764074;}
	.st2{fill:#38312D;}
	.st3{fill:#F2844F;}
	.st4{fill:#F95939;}
	.st5{fill:#E56324;}
	.st6{fill:#150F0C;}
	.st7{fill:#FDB697;}
	.st8{fill:#45362F;}
	.st9{fill:#160E0B;}
	.st10{fill:#FCB48E;}
	.st11{fill:#BE6547;}
	.st12{fill:#B65B36;}
	.st13{fill:#FBB38E;}
	.st14{fill:#B65A35;}
	.st15{fill:#FBB48F;}
	.st16{fill:#FBA187;}
	.st17{fill:#FFFFFF;}
	.st18{fill:#CC492F;}
	.st19{fill:#FBB898;}
	.st20{fill:#FFB18D;}
	.st21{fill:#4F2A4D;}
</style>
<g>
	<defs>
		<rect id="SVGID_1_" width="180" height="180"/>
	</defs>
	<use xlink:href="#SVGID_1_"  style="overflow:visible;fill:#EDBD43;"/>
	<clipPath id="SVGID_2_">
		<use xlink:href="#SVGID_1_"  style="overflow:visible;"/>
	</clipPath>
	<g class="st0">
		<g>
			<g>
				<path class="st1" d="M170.4,191C170.4,191,170.4,190.9,170.4,191c-0.7-3.4-1.9-6.7-3.5-9.7c-1.6-3.1-3.5-5.9-5.8-8.4
					c-2.1-2.5-4.5-4.7-7-6.8c-0.9-0.8-1.9-1.5-2.9-2.2c-2.8-3.2-6.3-5.9-9.9-8.1c-2.7-1.7-5.2-3.8-7.5-6c-2-1.9-4.3-3.3-6.3-5.2
					c-2-1.7-3.6-3.9-5.8-5.3c-2.7-1.6-5.2-3.5-7.8-5.3c-1.7-1.3-3.8-1.6-5.8-1.9c-4.2-0.7-8.6-0.7-12.9-0.7
					c-8.1,0.3-16.3,1.5-24.2,3c-1.5,0.2-3.1,0.6-4.6,0.2c-1.2,0.1-2.4,0.5-3.6,0.8c-1.4,0.3-2.7,0.8-3.8,1.7c-1,0.9-1.9,1.9-2.8,2.9
					c-2.2,2.2-4.6,4.3-7.2,6.1c-2,1.4-3.9,2.9-5.8,4.4c-2.7,2.3-5.2,5-8,7.1c-2.9,2-5.8,4-8.8,5.9c-0.2,0.2-0.4,0.3-0.6,0.4
					c-0.3,0.2-0.6,0.3-0.9,0.5c-1.5,0.7-2.9,1.5-4.3,2.4c-2.9,1.9-5.6,4.1-8,6.6C10,176,7.8,179,6,182.1c-1.6,2.8-3,5.8-4.2,8.9
					H170.4L170.4,191z"/>
				<path class="st2" d="M104.9,30.5c2-0.7,4.1-1.1,6.1-1.1c1.1,0,2.4,0.3,3,1.3c0.4,0.9,0.1,2-0.5,2.7c-1.3,1.6-3.2,2.7-4.7,4.1
					c1.7-1.1,3.6-2.2,5.8-2.3c0.9,0,1.8,0,2.6,0.5c0.7,0.5,0.7,1.6,0.4,2.3c-0.5,1-1.3,1.9-2,2.7c1.3-0.6,2.7-1.2,4.2-1.4
					c0.5,0,1.2-0.1,1.4,0.5c0.1,0.8-0.5,1.5-1,2.1c-1.7,2-4.2,3.1-6.7,3.8c0.9,0.9,2,1.7,2.9,2.8c2.7,2.7,4.5,6.1,5.5,9.8
					c0.6,2,1,4,0.9,6c-0.1,2.3-0.2,4.6-0.6,6.8c-0.3,1.4-0.9,2.8-1.5,4.2c-0.4,0.8-0.4,1.7-0.6,2.7c-0.3,1.7-0.7,3.3-1.4,4.9
					c-0.3,0.8-0.8,1.5-1.4,2.1c-2.2,2.2-4.6,4.2-7.4,5.6c-2.4,1.2-5.1,1.9-7.8,2c-3.2,0-6.4-0.1-9.7-0.1c-1.9-0.1-3.9-0.2-5.8-0.4
					c-2-0.2-4.1-0.6-6.2-0.8c-1.9-0.2-3.8-0.3-5.7-0.3c-1.7,0-3.6,0.1-5.3-0.4C68,90.1,67,89,66.2,87.8c-2.8-4.1-4.5-8.8-5.6-13.6
					c-0.7-2.7-0.8-5.5-0.7-8.2c0.2-3.1,0.3-6.3,1.3-9.3c0.6-2,1.4-3.9,2.5-5.7c0.7-1.1,1.4-2.2,2.5-2.9c1.4-0.9,2.9-1.8,4.6-1.7
					c0-1.4,0.2-2.8,0.8-4.1c0.6-1.5,1.2-3,2.2-4.1c0.9-0.9,1.9-1.6,3.1-2.2c1.4-0.6,2.9-1.3,4.5-1.3c3.4-0.1,6.9,0,10.4-0.2
					c2-0.2,4.1-0.2,5.9-0.9C100.4,32.5,102.6,31.4,104.9,30.5z"/>
			</g>
			<g>
				<path class="st3" d="M84.6,44.1c4.5-1.7,9.4-2.8,14.2-2.8c1.3,0.2,2.6,0.3,3.8,0.8c0.7,0.3,1.4,0.6,2,0.9
					c1.4,0.8,2.9,1.4,4.4,1.8c0.7,0.2,1.4,0.5,2,0.7c0.8,0.3,1.4,0.9,2,1.3c0,1.3,0,2.6,0,3.9c-0.2,2,0.1,4.1,0.3,6.2
					c0.3,3,0.8,5.8,1.2,8.8c0.2,1.3,0.5,2.7,0.8,4c0.1,2.3,1,4.5,0.9,6.7c0,2-1.1,3.8-1,5.7l-0.1,0.2c-1,1.7-1.4,3.7-2,5.6
					c-0.6,2.4-1.2,4.8-1.8,7.2c-0.4,1.3-0.8,2.5-1.5,3.6c-0.2,0.3-0.3,0.7-0.4,1.1c-1.1,0.4-1.9,1.2-2.8,1.7
					c-1.2,0.7-2.5,1.1-3.7,1.6c-2.6,0.9-5.3,0.5-8,0.5c-2.7-0.2-5.5,0.2-8.2,0.2c-3,0-6.1,0-9-1.1c-2.7-1-5.2-2.5-7.2-4.5
					c-0.9-1.1-1.8-2.1-2.6-3.3c0.2,1,0.6,2,1,3c0.7,1.4,1.2,3,2,4.4c0.6,1.2,1.4,2.3,2,3.5c0.6,1.1,1.6,2.2,2.1,3.4
					c0.5,1.2,1.2,2.3,1.7,3.6c0.6,1.2,1.5,2.5,2.8,3c1.4,0.4,2.7-0.2,4-0.6c1.6-0.5,3.2-0.5,4.8-0.5c3,0.2,5.6,1.6,8.6,2
					c0.7,0.2,1.3,0.6,2,0.7c2.5,0.6,4.8,1.5,7.2,2.3c1.1,0.3,2.2,0.8,3.3,1.1c0-0.6,0.1-1.2,0.1-1.7c0,2.4,0.1,4.8,0.3,7.1
					c0.5,3.6,0.2,7.3,0.5,10.9c0.4,2.2-0.2,4.4-0.7,6.6c-0.6,2.6-1.5,5.2-2.8,7.5c-0.9,1.6-1.7,3.2-2.8,4.7c-0.9,1.2-1.9,2.5-3,3.6
					c-1,1.2-2.2,2.2-3.4,3.2c-1.3,1.1-2.5,2.2-3.8,3.3c-1.1,0.8-2.2,1.7-3.5,2.2c-0.9,0.5-1.9,1-2.9,1.3c-0.8,0.3-1.7,0-2.5,0.1
					c-1.6-0.2-3.2-0.8-4.5-1.9c-1.3-0.9-2.5-1.9-3.6-2.9c-2.2-2.3-4.2-4.7-6-7.3c-1.2-1.6-2.2-3.3-3.3-4.8c-0.9-1.6-2-3.2-2.8-4.9
					c-1.1-3-0.7-6.3-0.4-9.5c0.1-1.8,0.3-3.6,0.6-5.3c0.6-3.6,0.6-7.3,1-10.9s0.7-7.3,0.6-10.9c-0.2-3.2,0.2-6.4,0-9.5
					c0.3-0.8,0.2-1.7,0.3-2.5c0.4-4,0.2-8,0.2-12c-0.1-1.1-0.1-2.1-0.4-3.1c0.2-1.1-0.1-2.3,0-3.4c-0.2-2.3,0-4.7,0.5-7
					c0.8-2.4,1.4-4.8,1.7-7.3c0.6-3.3,0.6-6.6,1.1-9.9c0.2-1.5,0.6-3,1-4.4c0.1-0.4,0.3-0.9,0.8-1.1c1.4-0.7,2.7-1.5,4-2.3
					C78.6,46.3,81.6,45.1,84.6,44.1z"/>
				<path class="st4" d="M120.4,75.4c1.7-0.1,3.3,0.9,4.2,2.4c1.1,1.7,1.3,3.7,1.3,5.6c0,1.6-0.6,3.1-1.1,4.7s-1.1,3.3-2,4.7
					c-1.4,2.3-3.1,4.4-5.4,5.9c-1.7,1.1-3.9,1.8-6,1.2c-0.6,0-1.1-0.3-1.7-0.4c-0.1,0-0.2,0-0.3,0.1c0.1-0.4,0.2-0.7,0.4-1.1
					c0.7-1.1,1.1-2.3,1.5-3.6c0.6-2.4,1.3-4.7,1.8-7.2c0.5-1.9,0.9-3.9,2-5.6c0,0,0.1,0,0.2,0.1c0.8-1.3,1.7-2.5,2.6-3.8
					C118.7,77.5,119.6,76.5,120.4,75.4z"/>
				<path class="st4" d="M59.6,78.3c1-0.5,2.2-0.2,3.1,0.4c1.9,1.1,3,3,3.9,4.9c0.3,1,0.3,2.1,0.4,3.1c0,4,0.2,8-0.2,12
					c-0.1,0.8,0,1.7-0.3,2.5c-0.7-0.2-1.4-0.1-2-0.3c-1.9-0.6-3.3-2-4.6-3.4c-1.8-2.2-2.9-4.8-3.8-7.5c-0.8-2.4-0.7-5.1,0.2-7.5
					C56.9,80.8,57.8,79,59.6,78.3z"/>
				<path class="st5" d="M67.9,94.9c0.8,1.1,1.7,2.2,2.6,3.3c2,2,4.5,3.4,7.2,4.5c2.9,1.1,6,1,9,1.1c2.7,0,5.5-0.3,8.2-0.2
					c2.7,0,5.5,0.4,8-0.5c1.3-0.5,2.5-0.9,3.7-1.6c1-0.5,1.8-1.4,2.8-1.7c0.1,0,0.2,0,0.3-0.1c0,1.1,0,2.1,0,3.1
					c0,0.9-0.3,1.7-0.7,2.5c0.2,0,0.5,0,0.8,0.1c-0.2,4.5,0.1,9.1-0.1,13.7c0,0.6-0.1,1.2-0.1,1.7c-1.1-0.3-2.2-0.8-3.3-1.1
					c-2.4-0.8-4.8-1.7-7.2-2.3c-0.7-0.2-1.3-0.6-2-0.7c-2.9-0.5-5.6-1.9-8.6-2c-1.6,0-3.3-0.1-4.8,0.5c-1.3,0.4-2.7,1-4,0.6
					c-1.3-0.5-2.2-1.7-2.8-3c-0.6-1.2-1.2-2.3-1.7-3.6c-0.5-1.2-1.4-2.2-2.1-3.4c-0.6-1.2-1.4-2.3-2-3.5c-0.8-1.4-1.3-3-2-4.4
					C68.5,96.9,68.1,95.9,67.9,94.9z"/>
			</g>
			<g>
				<path class="st5" d="M94.6,62.4c0.6-1.1,1.5-2.3,2.9-2.5c0,0.1,0,0.3,0,0.3c0.1,0,0.2,0.2,0.3,0.2c0-0.2,0.1-0.4,0.1-0.5
					c1-0.2,2-0.1,3,0c-1,0.8-2,1.6-2.8,2.7c-0.8,1.2-1.4,2.5-1.7,3.9c-0.1,0.6-0.3,1.4,0.1,1.9c0.6,1,1.5,2.2,1.1,3.4
					c-0.2,0.4-0.6,0.9-1.1,0.9c0.1-0.5,0.6-0.8,0.6-1.3c0.1-1.1-0.7-1.9-1.1-2.8c-0.4-1-1.3-1.8-1.6-2.8
					C94.2,64.8,94,63.5,94.6,62.4z"/>
				<path class="st5" d="M109.1,105.2c0.4-0.8,0.6-1.6,0.7-2.5c0.1,0.8,0.1,1.7,0.1,2.5C109.6,105.2,109.3,105.2,109.1,105.2z"/>
				<path class="st6" d="M103.1,34.1c2-0.8,4-1.8,6.1-2.4c-0.7,0.5-1.6,0.9-2.4,1.3c-1.2,0.6-2.4,1.2-3.6,1.7
					c-1.8,0.7-3.7,1.1-5.6,1.4c-1.4,0.2-2.9,0.5-4.3,0.3C96.6,35.8,99.9,35.3,103.1,34.1z"/>
				<path class="st6" d="M109.1,34.1c0.3-0.1,0.5-0.2,0.8-0.2c-1.2,1.1-2.7,1.6-4.1,2.2c-1.3,0.5-2.8,1.1-4.2,0.8
					C104.1,36.2,106.7,35.3,109.1,34.1z"/>
				<path class="st6" d="M77.4,39.6c1.6-1.4,3.4-2.7,5.5-3.4c0.1,0,0.3,0.1,0.3,0.1c-1.9,0.8-3.6,1.9-5.2,3.3
					c-1.2,1.1-2.1,2.5-2.5,4c-0.2,0.8-0.3,1.6-0.6,2.3c-0.1-0.5-0.1-1,0-1.5C75.2,42.6,76.1,40.8,77.4,39.6z"/>
				<path class="st6" d="M83,39.1c1.4-0.8,2.9-1.6,4.5-1.9c-0.3,0.2-0.7,0.4-1.1,0.6c-1.7,0.6-3.3,1.6-4.8,2.7
					c-1.7,1.2-3,2.9-3.8,4.7c0.1-1.2,0.7-2.2,1.4-3.1C80.2,40.9,81.6,40,83,39.1z"/>
				<path class="st6" d="M107.4,39.8c2.3-0.8,4.6-1.7,6.8-2.7c-0.5,0.8-1.4,1.1-2.2,1.5c-1.2,0.5-2.3,1.1-3.6,1.4
					C108.2,40,107.8,39.9,107.4,39.8z"/>
				<path class="st6" d="M91.4,39.1c1.9-0.3,3.8-0.5,5.7-0.3c-0.3,0.2-0.7,0.3-1.1,0.3c-2.3,0.1-4.5,0.4-6.7,1.1
					c-1,0.3-1.8,0.9-2.8,1.3C87.8,39.9,89.7,39.4,91.4,39.1z"/>
				<path class="st6" d="M67,50.2c0.4-0.3,0.8-0.7,1.3-0.6c-0.2,0.6-0.9,0.8-1.3,1.2c-1.9,2-2.8,4.6-3.6,7.2
					c-0.5,1.4-0.6,2.8-0.7,4.3c-0.3-2.6,0.5-5,1.4-7.4C64.9,53.2,65.7,51.5,67,50.2z"/>
				<path class="st6" d="M114.9,49.6c0.3,0.3,0.6,0.6,0.6,1.1c0.5,1.8,0.8,3.6,0.8,5.5c-0.1,2.1-0.2,4.3-0.6,6.4
					c-0.1,0.6-0.3,1.1-0.5,1.6c0.6-2.7,0.8-5.4,0.7-8.2C116,53.8,115.4,51.7,114.9,49.6z"/>
				<path class="st7" d="M79.2,52.2c1.4-0.9,3.3-0.8,4.9-0.6c-0.9,0.1-1.9,0.1-2.8,0.3C80.7,52,79.9,52.2,79.2,52.2z"/>
				<path class="st6" d="M68,52.9c0.3-0.4,0.8-0.8,1.2-1c-0.5,0.8-1.1,1.4-1.4,2.2c-1.1,2.3-1.9,4.7-2.4,7.2c-0.2,1-0.2,2-0.2,3.1
					c-0.4-0.8-0.3-1.8-0.2-2.7c0.3-1.7,0.8-3.4,1.3-5.1C66.6,55.3,67.1,54,68,52.9z"/>
				<path class="st6" d="M117.9,52.2c0.4,0.4,0.6,1,0.8,1.6c0.6,2.4,0.5,5,0.4,7.5c0,1.2-0.1,2.3-0.3,3.4c-0.1,0.6-0.2,1.3-0.7,1.7
					c0.6-2.2,0.6-4.5,0.6-6.8C118.6,57.1,118.3,54.6,117.9,52.2z"/>
				<path class="st8" d="M81.8,53.5c1.5-0.3,3.2-0.4,4.6,0.3c1.4,0.9,2.4,2.5,2,4.2c-0.3,0.1-0.7,0-1,0c-1.3-0.2-2.7-0.4-4-0.5
					c-2.4,0.2-4.8,0.3-7.2,1c-1.6,0.5-3.1,1.4-4.6,2.2c-0.1-0.6,0.3-1,0.5-1.4c1-1.6,2.3-2.9,4-3.7C77.9,54.6,79.8,53.8,81.8,53.5z"
					/>
				<path class="st8" d="M96,54.9c0.9-0.7,2.2-0.8,3.3-0.7c3.5,0.4,6.9,1.6,9.9,3.4c0.8,0.5,1.5,1.1,2.2,1.8c-0.2,0-0.5,0-0.7,0
					c-3.7-0.7-7.4-1.6-11.2-1.8c-1.5,0-2.9,0.1-4.4,0.3c-0.3,0-0.6,0-0.8-0.2C94.7,56.8,95.2,55.7,96,54.9z"/>
				<path class="st9" d="M77,63.1c0.4-0.3,1.1-0.2,1.1,0.4c0.2,0.8,0.3,1.9-0.2,2.6c-0.4,0.5-1.2,0.2-1.3-0.5
					C76.5,64.8,76.2,63.6,77,63.1z"/>
				<path class="st6" d="M66.1,66.5c0.3-1.1,0.4-2.4,1.2-3.3c-0.7,2.5-1.4,5.1-1.6,7.7C65.4,69.4,65.8,67.9,66.1,66.5z"/>
				<path class="st6" d="M121.2,63c1.1,1.9,0.4,4.1-0.2,5.9c-0.6,1.7-0.9,3.5-2,4.9c0.9-2.2,1.6-4.4,2-6.8
					C121.3,65.8,121.2,64.4,121.2,63z"/>
				<path class="st9" d="M103.8,63.6c0.5-0.3,1.2,0,1.2,0.5c0,0.8-0.2,1.6-0.6,2.3c-0.4,0.5-1.4,0.2-1.4-0.5
					C102.9,65.1,103.1,64.1,103.8,63.6z"/>
				<path class="st10" d="M89.2,66.8c0.8-0.6,1.9-0.7,2.8-0.5c0.3,0,0.5,0.3,0.7,0.5C91.6,66.6,90.4,66.8,89.2,66.8z"/>
				<path class="st6" d="M62.9,69.6c-0.1-1.1-0.3-2.3,0.2-3.3c0.1,2,0.2,4,0.6,5.9c0.2,1.3,0.6,2.5,0.7,3.8
					C63.7,73.9,63.2,71.7,62.9,69.6z"/>
				<path class="st11" d="M74.8,67.1c0.9-0.1,1.8,0,2.7,0.1c0.8,0,1.6-0.1,2.4-0.1c-1.1,0.5-2.3,0.5-3.5,0.4
					C75.9,67.5,75.3,67.3,74.8,67.1z"/>
				<path class="st12" d="M102.1,67.5c1.4,0.2,2.8,0.2,4.2,0c-0.2,0.3-0.5,0.5-0.9,0.5c-0.9,0.2-1.9,0.3-2.8,0.1
					C102.4,68.1,102.2,67.8,102.1,67.5z"/>
				<path class="st6" d="M117.3,68.8c0.3,0.2,0.6,0.3,0.6,0.6c0.2,1.6,0,3.1-0.2,4.7c-0.1,0-0.3,0-0.3,0
					C117.5,72.3,117.4,70.6,117.3,68.8z"/>
				<path class="st13" d="M74.1,69.7c1.5-0.1,3.1-0.1,4.6-0.1c-0.9,0.5-1.9,0.5-2.8,0.5C75.3,70.1,74.6,70.2,74.1,69.7z"/>
				<path class="st14" d="M86.5,71.8c0.1-1.3,1.7-1.7,2.7-1.3c0.2,0.3,0.3,0.6,0.4,0.9c-0.3,0.9-1.4,1.2-2.3,1.2
					C86.9,72.6,86.5,72.2,86.5,71.8z"/>
				<path class="st14" d="M93.4,70.8c0.6-0.2,1.3,0,1.9,0.3c0.3,0.2,0.7,0.6,0.6,1c-0.1,0.5-0.7,0.5-1,0.5c-0.6,0-1.4,0-1.9-0.5
					C92.5,71.6,92.9,70.9,93.4,70.8z"/>
				<path class="st15" d="M102.1,73.2c0.8-0.7,1.9-0.7,2.9-0.6c0.9,0.1,1.8,0.1,2.5,0.7c-0.9,0-1.8-0.2-2.7-0.3
					C104,72.9,103,73.1,102.1,73.2z"/>
				<path class="st4" d="M74.3,73.2c1.7-0.2,3.6,0,4.8,1.3c1.7,1.7,1.4,4.8-0.4,6.4c-1.4,1.2-3.3,1.8-5.1,1.6
					c-1.3-0.2-2.6-0.9-3.4-2c-0.7-0.9-0.7-2.3-0.4-3.4c0.4-1.5,1.6-2.5,2.8-3.3C73.2,73.4,73.8,73.2,74.3,73.2z"/>
				<path class="st4" d="M105.1,74.8c1.3-0.2,2.6,0,3.8,0.6c1.3,0.6,2.3,1.7,2.5,3.1c0.2,2.4-1.4,4.8-3.8,5.4
					c-1.7,0.4-3.4-0.1-4.8-1c-1.2-0.8-2.1-2.1-2.1-3.5s0.8-2.7,1.9-3.5C103.4,75.4,104.2,74.9,105.1,74.8z"/>
				<path class="st16" d="M104.2,76C104.3,76.1,104.3,76.1,104.2,76L104.2,76z"/>
				<path class="st5" d="M83.6,77.9c1-0.6,1.9-1.2,3.1-1.5c0.8-0.2,1.7,0,2.5,0c0.7,0,1.5-0.2,2.2,0.1c1.2,0.3,2.2,1.1,3.3,1.8
					c1.3,0.9,2.4,2.2,3.1,3.7c0.3,0.7,0.5,1.6,0.6,2.3c-0.1-0.1-0.4-0.3-0.5-0.5c-0.1,0-0.2,0.2-0.2,0.2c-3.1-1.3-6.4-1.7-9.7-1.8
					c-2.3,0.1-4.5,0.2-6.7,0.7c-0.7,0.2-1.4,0.2-2.2,0.3c0.4-1,1.1-1.9,1.7-2.7C81.5,79.5,82.4,78.5,83.6,77.9z"/>
				<path class="st17" d="M85.5,79c1.3-0.5,2.7-0.7,4.1-0.8c0.6-0.1,1.3,0.1,1.9,0.3c1.6,0.6,3.1,1.5,4.4,2.8c0.8,0.8,1.4,1.6,2,2.5
					c-2.1-0.8-4.4-1.2-6.6-1.4c-3.7-0.4-7.5-0.1-11.1,0.6C81.7,81.3,83.4,79.9,85.5,79z"/>
				<path class="st18" d="M120.9,82.7c0.2-0.3,0.6-0.3,0.9-0.3c-1.3,1.3-2.2,3-3.1,4.7c-0.7,1.3-1.4,2.7-1.9,4.1
					c-0.2,0.6-0.4,1.2-0.8,1.7c0.4-2.3,1.5-4.4,2.5-6.5C119.2,85.1,119.8,83.7,120.9,82.7z"/>
				<path class="st19" d="M86.5,83.4c0.5-0.5,1.3-0.5,1.9-0.5c1.3,0.1,2.5,0.1,3.8,0.5c-0.7,0.1-1.4,0.1-2.1,0
					C88.9,83.4,87.7,83.5,86.5,83.4z"/>
				<path class="st18" d="M59.9,84.3c1.1,0.7,1.7,1.9,2.1,3.1c0.8,2.4,1.6,4.8,1.8,7.4c-0.5-2.8-1.2-5.6-2.4-8.1
					C61,85.8,60.4,85.1,59.9,84.3z"/>
				<path class="st5" d="M84.2,85.6c0.4-0.2,0.9-0.3,1.3-0.3c1.9-0.1,3.9-0.2,5.8,0.1c0.5,0,0.9,0.2,1.3,0.5c-0.5,0.8-1,1.6-1.3,2.5
					c-0.5,0.1-0.9,0.1-1.4,0.1c-1.5-0.1-3,0.1-4.5,0.2C85.2,87.6,84.8,86.5,84.2,85.6z"/>
				<path class="st20" d="M84.3,92.7c0.6-0.3,1.1-0.6,1.8-0.6c1.4-0.2,2.9-0.2,4.4,0c0.4,0,0.8,0.2,1.1,0.4c-1.2,0-2.4-0.2-3.6-0.1
					C86.7,92.4,85.5,92.6,84.3,92.7z"/>
				<path class="st7" d="M81.4,126.2c0.6,2.1,0.6,4.3,0.6,6.4c0,2,0.1,4.1-0.6,6c0.1-1,0.3-1.9,0.3-2.9c0.1-2,0-4-0.2-6
					C81.5,128.6,81.3,127.4,81.4,126.2z"/>
				<path class="st21" d="M57.7,143.3c0.3,1.4,0,2.8,0,4.2c-0.1,3,1,5.8,2.3,8.4c0.8,1.8,1.8,3.6,2.7,5.4c-1.2-2-2.3-4.2-3.3-6.3
					c-1-2-1.8-4.1-1.9-6.4C57.3,146.9,57.5,145.1,57.7,143.3z"/>
				<path class="st21" d="M113.1,146.1c0-0.3,0-0.5,0.1-0.8c0.2,0.2,0.4,0.5,0.4,0.8c0.2,1.6-0.1,3.1-0.5,4.7
					c-0.5,1.9-1.2,3.8-2.4,5.4c-0.1,0.2-0.4,0.3-0.6,0.3c0.5-0.9,1.1-1.9,1.5-2.9C112.6,151.3,113,148.7,113.1,146.1z"/>
				<path class="st21" d="M54.3,146.2c0.1,0,0.3,0.2,0.4,0.2c0.2,0.9,0.2,1.8,0.4,2.7c0.8,3.4,2.3,6.7,4.1,9.7c0.3,0.6,0.9,1.2,1,2
					c-0.5-0.4-0.8-1-1.2-1.6c-1.4-2.1-2.6-4.4-3.6-6.7C54.6,150.6,53.9,148.4,54.3,146.2z"/>
				<path class="st21" d="M102.9,161.3c0.9-0.9,1.7-1.9,2.3-3.1c0.1,0.3,0.2,0.7,0,1.1c-0.5,1.2-1.4,2.2-2.3,3.1
					c-1.3,1.3-2.5,2.6-3.6,4.1c-0.3,0.5-0.6,0.9-1.1,1.2c0-0.2,0-0.5,0.2-0.7C99.6,164.9,101.1,162.9,102.9,161.3z"/>
				<path class="st21" d="M105.5,167c0.5-0.5,0.9-0.9,1.6-1c-0.3,0.8-0.9,1.3-1.4,1.9c-0.9,1.1-1.8,2.2-2.6,3.4
					c-0.2,0.3-0.5,0.7-0.9,0.6C103.1,170.1,104.1,168.4,105.5,167z"/>
				<path class="st21" d="M85.3,169.5c-0.8,0-1.6-0.1-2.3-0.4c-0.1,0-0.2-0.1-0.3-0.2c-0.1,0-0.3,0-0.4-0.1
					c-0.3-0.2-0.5-0.3-0.7-0.5l0,0c0.8,0.7,1.5,1.6,2.3,2.3c0.5,0.5,1.1,0.9,1.6,1.4l0,0l0,0c0.2-0.1,0.3-0.2,0.5-0.3l0,0
					c0,0,0,0,0-0.1c1-0.3,1.6-1.3,2.3-2c0.3-0.3,0.8-0.6,0.8-1.1C88.1,169.4,86.8,169.5,85.3,169.5z"/>
				<path class="st21" d="M93,170.9c0.3-0.4,0.8-0.9,1.3-0.9c-0.3,0.9-1,1.5-1.5,2.3c-0.5,0.6-0.7,1.4-1,2c-0.1,0-0.3,0.1-0.4,0.1
					C91.6,173.1,92.2,171.9,93,170.9z"/>
				<path class="st21" d="M84.7,170.3c0.2-0.2,0.6,0,0.4,0.3C85,170.8,84.6,170.5,84.7,170.3z"/>
				<path class="st21" d="M132.1,191c0.1-1.9,0.3-3.7,0.8-5.5c1.1-4.6,2.8-9.1,5-13.3c0.1-0.2,0.2-0.5,0.1-0.7
					c-0.4,0-0.6,0.4-0.8,0.7c-1.3,2-2.2,4.3-3.1,6.6c-0.8,2.3-1.6,4.7-2,7.1c-0.3,1.6-0.3,3.1-0.4,4.7c0,0.2,0,0.3,0,0.4H132.1
					L132.1,191z"/>
				<path class="st21" d="M74.5,173.2c0.3-0.2,0.6,0,0.9,0c1.6,0.8,3,1.9,4.4,3c0.8,0.7,1.8,1.4,2,2.5c-0.6-0.2-0.9-0.8-1.5-1.2
					C78.5,176,76.5,174.6,74.5,173.2z"/>
				<path class="st21" d="M135.1,191c0.1-0.5,0.2-0.9,0.3-1.4c0.8-4.1,1.9-8.1,3.6-11.9c0.2-0.6,0.5-1.1,0.5-1.7
					c-0.3,0.2-0.5,0.5-0.7,0.8c-1.2,2-2,4.1-2.7,6.3c-0.9,2.6-1.3,5.2-1.7,7.9L135.1,191L135.1,191z"/>
				<path class="st21" d="M24.4,191H25c-0.5-4.1-1.4-8.1-2.4-12.2c-0.2-0.6-0.4-1.2-0.8-1.7c-0.1,0-0.3,0-0.4,0
					c0,0.7,0.3,1.3,0.5,1.9C22.8,183,23.7,186.9,24.4,191z"/>
				<path class="st21" d="M27,191h0.8c0-0.4-0.1-0.8-0.2-1.2c-0.4-2.2-0.8-4.3-1.4-6.4c-0.4-1.3-0.7-2.7-1.3-4
					c-0.1-0.3-0.4-0.4-0.6-0.6c1.1,3.9,2.2,7.9,2.8,12C27,190.9,27,191,27,191z"/>
				<path class="st21" d="M78,179.7c0.5-0.1,0.9,0.3,1.3,0.5c1.2,0.8,2,2,2.3,3.4c0.1,0.3,0.2,1-0.3,0.6c-0.3-0.6-0.6-1.3-1-1.9
					c-0.5-0.8-1.4-1.3-2-2C78,180.2,77.9,180,78,179.7z"/>
				<path class="st21" d="M85.3,181.6c0.1-0.1,0.3-0.2,0.4-0.3c0.8,1.4,1.1,3,1.5,4.5c0.1,0.5,0.3,1.1,0,1.6c-0.6-0.9-0.7-1.9-1-2.9
					C85.9,183.6,85.4,182.7,85.3,181.6z"/>
			</g>
		</g>
	</g>
</g>
</svg>
