<svg xml:space="preserve" xmlns:xlink="http://www.w3.org/1999/xlink" enable-background="new 0 0 180 180" viewBox="0 0 180 180" xmlns="http://www.w3.org/2000/svg"><defs><path id="a" d="M.2 0H180v179.8H.2z"/></defs><use xlink:href="#a" fill="#f9269a" overflow="visible"/><clipPath id="b"><use xlink:href="#a" overflow="visible"/></clipPath><g clip-path="url(#b)"><path fill="#aed4db" d="M-4 225c0 .3-.1.5-.1.8h166c0-.5-.1-.9-.1-1.4-.1-1.6-.1-3.1-.2-4.6-.1-7-.4-14-1-20.9-.4-6.2-1.1-12-3-18.1-.9-2.9-2-5.3-3.7-8-.4-.6-.8-1.2-1.2-1.9-.4-.5-.7-.9-1.2-1.5-1-1.1-2.1-2.1-3.3-3.1-.6-.5-.9-.7-1.6-1.2-.6-.4-1.2-.9-1.9-1.3-1.3-.8-2.7-1.6-4-2.3-2.7-1.4-5.5-2.7-8.3-4-.1 0-.1-.1-.2-.1h-.2c-.3 0-.4.3-.4.4-.1-.1-.3-.1-.4-.2-.6 1.1-1.9 1.5-3.1 1.7-1.3.2-2.7.2-4 .2h-1.9c-1.3 2.6-3.3 4.9-5.4 6.9-3.7 3.3-7.9 5.9-11.5 9.4-1.4 1.4-2.8 3-3.2 5-.5 2.9 1.1 6 .1 8.7-1.6 4.1-8.1 4.7-9.5 8.9-.8 2.2.1 4.9-1.2 6.8-1.3 1.9-4.5 2.5-4.6 4.9 0 1 .5 1.8.8 2.8.7 2.6-1.7 5.4-4.4 5.4-2.7.1-5.1-2.1-5.7-4.7-.2-.8-.2-1.7-.6-2.4-1.1-2.1-4.1-1.9-6.6-2.3-5.6-.8-9.4-7.7-7.2-12.9 1.3-3.1 4.4-5.7 4.4-9.1 0-2.4-1.6-4.5-2.9-6.6-3.6-5.7-5.4-12.6-5-19.3.1-1.6.5-3.5 2.1-4 .6-.2 1.3-.1 1.9-.3.6-.2 1.2-.9.8-1.5-10.7 5.4-22.6 7.9-33.8 12.2S8.5 178.7 3.8 189.7c-.8 1.8-1.3 3.6-1.8 5.4-.1.4-.2.7-.3 1-.4 1.2-.7 2.5-1 3.7-.2.9-.4 1.8-.5 2.7-.1.4-.2.7-.2 1-.4 1.5-1.7 7.6-2 9.2-.1.7-.2 1.3 0 2 0 .2 0 .4-.1.6-.2 1-1.5 7.4-1.9 9.7z"/><path fill="#b65a35" d="M90.2 27.9c2.6-.5 5.3-.6 8-.6.8 0 1.7 0 2.6.1 1.2.2 2.5.4 3.7.8 1.3.4 2.6 1 3.8 1.6 1.9.9 3.8 2 5.4 3.4 2.7 2.2 5.2 4.8 7.2 7.6.9 1.2 1.6 2.6 2.4 3.9.7 1.2 1.3 2.4 1.9 3.6.8 1.5 1.3 3.1 1.8 4.7.6 2 1.1 4.1 1.2 6.2.1 1.8 0 3.6 0 5.4 0 2.2-.6 4.4-1.3 6.5-.5 1.8-1.5 3.5-2.3 5.2-1 1.9-1.7 3.9-2.4 5.9-.9 2.4-1.3 4.9-1.3 7.4v3.7c.2 1.4.5 2.8 1.1 4.1.6 1.6 1.5 3.1 2.3 4.6 1.7 3 3 6.3 3.4 9.8 0 1 .2 2.1-.1 3.2-.4 1.7-1.3 3.2-2.5 4.4-1.1 1.1-2.4 1.9-3.3 3.2-.7 1-.8 2.3-.3 3.4.7 1.7 2.2 2.9 2.9 4.6.5 1.5.5 3.2-.2 4.6-.4.9-.9 1.7-1.4 2.5-.4.7-.5 1.6-.5 2.4.1 1.3.9 2.5 1.3 3.7.4 1.1.6 2.2.6 3.4 0 .9.1 1.8.1 2.7 0 1.2-.4 2.5-.7 3.7-.1 0-.2-.1-.4-.2-.1.3-.2.5-.4.8.2 0 .3.1.5.2-.4 1.9-1 3.8-2 5.5-1.2 2.1-2.8 3.8-4.4 5.5-1.3 1.2-2.6 2.5-4.1 3.5-2.3 1.7-4.7 3.3-6.8 5.3-.8.8-1.8 1.6-2.5 2.6l-1.2 1.8c-.5.8-.8 1.9-.9 2.9-.1.5 0 1.1.2 1.7.4.8.5 1.7.5 2.6 0 1.1.1 2.2-.3 3.3-.6 1.3-1.4 2.6-2.8 3.3-.9.4-1.7 1-2.5 1.7-1.2.9-2.7 1.5-3.7 2.7-1 1.4-1 3.3-1 4.9.1 1.2-.2 2.5-1 3.5-.7.9-1.6 1.5-2.5 2.1-.8.5-1.6 1.1-1.9 1.9-.3.9-.1 2 .4 2.8s.6 1.8.6 2.8c0 .5-.3.9-.6 1.2-.5.5-1 1-1.7 1.3-.7.4-1.5.4-2.2.5-1 .1-2.1 0-3-.4-.7-.2-1.3-.7-1.7-1.3-.9-1.2-1.2-2.7-1.3-4.1-.1-.6-.1-1.3-.4-1.8-.4-.6-1.1-.7-1.7-.8-1.6-.3-3.3-.2-4.8-.6-1.7-.4-3.4-1.2-4.8-2.4s-2.5-3-2.8-4.9c-.4-2.6.2-5.4 1.5-7.7.6-1.1 1.5-2 2.1-3 .4-.7.9-1.3 1.3-2.1.4-.9.2-2.1-.1-3-.4-1-.8-2.1-1.2-3.1-1.2-2.1-2.5-4.2-3.6-6.4-.8-1.8-1.4-3.7-2-5.6-.3-.9-.5-1.9-.6-2.9-.4-2.7-.2-5.5 0-8.2 0-.7.1-1.3.2-2 1.5-.4 2.9-1 4.5-1.5 0-.2.1-.4.1-.7-1.5.4-2.9 1-4.4 1.4 1.2-4.1 3.5-7.7 6.2-10.9 1.2-1.5 2.6-2.9 3.9-4.4 1.3-1.4 2.5-2.8 3.9-4.1 1.1-1.1 2.3-2.2 3.3-3.4 1.3-1.6 2.7-3.2 4.1-4.8 1.1-1.4 2.2-2.9 2.6-4.7.6-2.6.7-5.3.3-7.9-.6-3.6-2-7-3.5-10.2-2-4.1-4.2-8.2-6.8-12-1.3-2-2.6-3.9-4-5.7-.8-1-1.6-2.1-2.6-2.9-.6-.6-1.3-1.1-2.1-1.4-1.1-.5-2.3-.6-3.4-.9-1.2-.4-2.6-.6-3.6-1.5-.6-.6-1-1.3-1.3-2.1-.8-1.7-1.2-3.6-1.2-5.4h-.2c0-.6.2-1.1.2-1.7 0-.8.1-1.7.4-2.5.3-.8.2-1.6.2-2.3v-4.3c-.1-1.6-.1-3.1-.1-4.7 0-2.6.4-5.1 1-7.6.5-2.1 1.4-4.1 2.4-6.1 1.1-2.1 2.5-4.1 4.1-5.8 1.7-1.7 3.6-3.2 5.6-4.5 1-.7 2.1-1.2 3.3-1.7 1.9-.9 3.9-1.6 5.9-2.2 1.3-.4 2.6-.5 3.9-.8 2.5-.6 4.9-1.8 7.5-2.3z"/><path fill="#f2844f" d="M81.9 43c.6-.2 1.2-.4 1.8-.2 1.6.4 3.2.7 4.7 1.1.6.1 1.2.2 1.9.4h-.4c.9.7 2.1 1.2 3 1.9 1.4 1 2.8 2.1 4.1 3.2 1.1.9 2.3 1.7 3.4 2.6 1.1.9 2.3 1.8 3.3 2.8 1.6 1.4 2.9 2.9 4.3 4.6 1.7 2 3.2 4.2 4.8 6.4 1.2 1.7 2.3 3.4 3.3 5.2.5.8 1.1 1.7 1.5 2.6.5 1 .8 2.1 1.3 3.2 0-.4 0-.7.1-1 .2 1.1 0 2.1 0 3.2 0 2.2-.4 4.4-1.1 6.6-1.4 4.4-4.2 8.2-6.7 12-1.2 1.8-2.4 3.6-3.3 5.5-.6 1.2-1 2.5-1.1 3.9 0 .3 0 .6-.1.9-.6 1-1.1 2.1-1.7 3.1-.8 1.4-1.8 2.8-2.7 4.1-1 1.5-2.1 3-3.4 4.2-.9.9-2.1 1.6-2.9 2.5-1.2 1.2-2.8 2.1-4.2 3-1.2.7-2.6 1-4 1.5-1.2.4-2.4.8-3.6.7-.4 0-.9.2-1.3.3-2.3.3-4.7-.1-6.8-1.1-1.5-.7-2.8-1.7-4-2.8-1.5-1.3-2.7-2.9-4-4.5s-2.5-3.3-3.7-5c-.8-1.2-1.7-2.5-2.7-3.7-.4-.8-.9-1.5-1.3-2.3-.7-1.5-1.3-2.9-1.7-4.5-.3-1.2-.6-2.4-1-3.6-.1-.3-.2-.6-.1-.8.3-1 .2-2 .2-3V84.4c0-1 .2-2 .2-2.9 0-1.7.2-3.5.4-5.2-.1 0-.2 0-.3.1v-.2c.4-.9.6-1.9.9-2.9.8-2.6 1.8-5.1 2.9-7.6.5-1.2 1.1-2.3 1.7-3.4.6-1.1 1.3-2.2 1.9-3.3.8-1.5 1.8-2.9 2.8-4.3.8-1 1.6-2 2.5-3 .9-1.1 2.1-2.1 3.2-3 1.6-1.3 3.2-2.5 4.9-3.7.9-1 1.9-1.6 3-2z"/><path fill="#e56324" d="M89.9 44.3h.4c1.2.3 2.3.8 3.3 1.3.9.5 1.9.8 2.9 1.2.8.4 1.7.8 2.5 1.2 1.4.7 2.8 1.3 4.1 2.1 2.1 1.2 4 2.7 5.8 4.3 1.3 1.2 2.5 2.4 3.6 3.7.6.8 1.4 1.6 2 2.5.8 1.3 1.7 2.6 2.1 4.1.5 1.4 1 2.8 1.4 4.2.7 2.1.9 4.4.9 6.6 0 .4 0 .7-.1 1-.4-1-.8-2.1-1.3-3.2-.4-.9-1-1.7-1.5-2.6-1-1.8-2.1-3.5-3.3-5.2-1.6-2.1-3.1-4.4-4.8-6.4-1.3-1.6-2.7-3.2-4.3-4.6-1.1-1-2.2-1.9-3.3-2.8-1.1-.9-2.3-1.7-3.4-2.6-1.3-1.1-2.7-2.1-4.1-3.2-.8-.4-1.9-.9-2.9-1.6z"/><path fill="#f95939" d="M53.6 68.6c1-.4 2.1-.5 3.2-.3.3.1.3.4.3.6.2 2.3.7 4.6.9 7v.2c.1 0 .2 0 .3-.1-.2 1.7-.4 3.5-.4 5.2 0 1-.2 2-.2 2.9v11.6c0 1 .1 2.1-.2 3 0-.2-.1-.4-.1-.6-.3-.4-.8-.4-1.2-.5-.5-.1-.9-.4-1.3-.7-.9-.7-1.9-1.2-2.7-2-1.9-1.5-3.3-3.5-4.3-5.7-.4-1.1-1-2.2-1.3-3.3-1.4-4.5-.6-9.5 2.2-13.3 1.1-1.7 2.7-3.3 4.8-4zm69.1 11.9c.1-.2.4-.2.5-.2.7 0 1.2.5 1.6.9 1.3 1.2 1.7 3.1 1.6 4.8-.2 2.1-1 4.1-2.1 5.8-.8 1.2-1.9 2.2-3 3.2-.6-.7-.5-1.6-.6-2.5-.1-1.5 0-3 .1-4.6.1-1.7.4-3.3.9-4.8.4-.8.6-1.8 1-2.6z"/><path fill="#e56324" d="M105 110.9c.6-1 1-2.1 1.7-3.1-.2 2.3-.6 4.6-1.4 6.7-.5 1.2-1 2.5-1.7 3.7-.6 1-1.2 2-2.2 2.6-1.5 1.1-3.1 2-4.6 3-1.9 1.1-3.5 2.5-4.6 4.4-1 1.9-1.5 4-2.4 5.9-.9 2.1-2.1 4.2-4.1 5.6-1.2.8-2.5 1.7-3.9 2.3-1.9-.8-3.5-2.2-5-3.6-1.6-1.4-2.9-3-4.1-4.7-1.1-1.5-1.9-3.1-2.9-4.6-1.2-2.1-2.2-4.3-3.3-6.5-.9-1.7-1.8-3.4-2.5-5.3-.4-1.2-1-2.4-1.5-3.5-.4-.8-.6-1.7-1-2.6-.1-.4 0-.7 0-1 .9 1.2 1.8 2.4 2.7 3.7 1.2 1.7 2.4 3.4 3.7 5 1.2 1.6 2.5 3.2 4 4.5 1.2 1.1 2.5 2.1 4 2.8 2.1 1 4.5 1.4 6.8 1.1.4-.1.8-.4 1.3-.3 1.2.1 2.5-.3 3.6-.7 1.3-.4 2.7-.8 4-1.5 1.5-.8 3-1.8 4.2-3 .9-.9 2.1-1.6 2.9-2.5 1.4-1.2 2.4-2.7 3.4-4.2 1.1-1.5 2.1-2.8 2.9-4.2z"/><path fill="#f2844f" d="M76.8 138.4c-1.6-1.4-2.9-3-4.1-4.7-1.1-1.5-2-3.1-2.9-4.6-1.2-2.1-2.2-4.3-3.3-6.5-.9-1.7-1.8-3.4-2.5-5.3-.4-1.2-1-2.4-1.5-3.5-.4-.8-.6-1.7-1-2.6-.1 1.1 0 2.1 0 3.3 0 1.5.1 3 .1 4.6.1 1.5.1 3 .2 4.6 0 1.6.1 3.1.1 4.7v5.7c-.2 2.7-.6 5.4-1.3 8-.3 1.2-.8 2.5-1.2 3.7-.5 1.2-1.1 2.4-1.9 3.4-.5.7-1.2 1.3-1.8 2.1-1.4 1.6-2.9 3.1-4.6 4.4-.8.7-1.7 1.4-2.5 2.1-1.8 1.3-3.7 2.5-5.5 3.6-1.2.8-2.5 1.4-3.8 2.1-1 .5-2 1.1-3 1.5-.4.2-.7.4-1.1.6-.1 0-.2.1-.2.1-.1 0-.2.1-.3.1-.1.1-.3.1-.4.2-.3.9-.2 1.9-.2 2.8.1 1.7.2 3.3.5 5 .2 1.2.7 2.4 1.2 3.5.5 1.2 1.1 2.3 1.8 3.3 1 1.4 2.5 2.5 3.7 3.7.9.8 2 1.4 3 2.1.8.5 1.8.8 2.7 1.2 1.3.6 2.8 1.1 4.2 1.5 1.2.3 2.4.4 3.6.6 1.6.2 3.2.2 4.8.2 1 0 2 0 3-.1 1.2-.2 2.5-.4 3.7-.5.4 0 .9 0 1.3-.3-.2-.3-.3-.7-.4-1-.1-.4-.4-.8-.8-1.1-.6-.7-1.2-1.4-1.7-2.1-.5-.7-1.1-1.3-1.6-2-1.2-1.6-2.5-3.2-3.2-5-.5-1.3-.7-2.8-.6-4.2.1-1.9.7-3.7 1.5-5.5.8-1.7 1.9-3.2 3-4.6 0-.7-.2-1.4-.2-2.1 0-1.8.2-3.6.9-5.3.6-1.6 1.3-3.1 2.3-4.5 1.1-1.6 2.4-3 4-4.1 1.4-1 2.8-2.1 4.4-2.7 2.1-.9 4.4-1.2 6.4-2.3-1.6-1.4-3.2-2.7-4.8-4.1zm50.6 17.5c-1.3-.8-2.7-1.7-3.7-2.8-.6 1.1-1.5 2-2.4 2.9-1 1.1-1.4 2.6-2.5 3.7-.3.4-.8.6-1.1 1-.2.4-.4.8-.7 1.1-.6.7-1.2 1.5-1.9 2.1-.8.6-1.7 1.1-2.2 2-.4.8-.4 1.7-.7 2.6-.4 1.1-1.1 2.1-1.9 2.9-.7.7-1.7 1.1-2.3 1.9-.9 1.2-.8 2.9-1 4.4-.2.9-.6 1.8-1.1 2.6.7-.2 1.2-.6 1.9-.9 1.8-.8 3.6-1.7 5.4-2.6 3.3-1.7 6.4-3.9 9.3-6.2 3.2-2.6 5.8-5.8 7.9-9.2.6-1 1-2.1 1.3-3.3-1.5-.8-2.9-1.4-4.3-2.2z"/><path fill="#e56324" d="M116.4 161.2c.4-.2.8-.4 1.3-.6-.2.4-.4.8-.7 1.1-.6.7-1.2 1.5-1.9 2.1-.8.6-1.7 1.1-2.2 2-.4.8-.4 1.7-.7 2.6-.4 1.1-1.1 2.1-1.9 2.9-.7.7-1.7 1.1-2.3 1.9-.9 1.2-.8 2.9-1 4.4-.1.9-.6 1.8-1.1 2.6-.8.6-1.8.9-2.7 1.4-.6.3-1.1.5-1.7.7-.3-1-.7-2-1.2-2.9-.4-.7-.8-1.5-.8-2.4 0-.6.1-1.3.6-1.7.5-.5 1.1-.9 1.3-1.7.2-.8.6-1.5.4-2.3-.1-.7-.4-1.4-.4-2.1 0-.9.7-1.7 1.5-2.1.8-.4 1.7-.5 2.6-.5.8-.1 1.8 0 2.6-.4s1.4-1 1.8-1.7c.4-.6.8-1.3 1.5-1.7.8-.6 1.8-.8 2.8-.9.8-.3 1.5-.4 2.2-.7zM61 167.6c.8-1.7 1.9-3.2 3-4.6.4 1.9 1.1 3.7 1.8 5.4.6 1.8 1.2 3.6 2 5.3.3.9.8 1.8 1.1 2.7.5 1.3.7 2.8.9 4.2 0 1 .2 2 0 2.9-.4 1.7-1 3.4-2 4.9-.2-.3-.3-.7-.4-1-.1-.4-.5-.8-.8-1.1-.6-.7-1.2-1.4-1.7-2.1-.5-.7-1.1-1.3-1.6-2-1.2-1.6-2.5-3.2-3.2-5-.5-1.3-.7-2.8-.6-4.2.2-1.8.7-3.7 1.5-5.4zm23.4-71.9c.8-.1 1.5.4 2.1.7.5.3 1.1.5 1.6.6.1.6-.4 1-.8 1.5-.4.4-.8 1.1-1.5 1.2-.4 0-.8.1-1.1-.3-.3-.4-.3-.8-.3-1.2 0-.8-.1-1.7 0-2.5zm-5 16.4c1.1-.8 2.6-1.2 3.9-1 .8.1 1.6.6 2.3 1.2.4.4.9.8 1.2 1.3-1.1 0-2.1-.4-3.3-.4-1.6-.2-3.1-.1-4.7-.4.2-.3.4-.5.6-.7z"/><path fill="#dc9eb5" d="M86.5 29.9c.9-.1 1.8 0 2.6.5.7.5.6 1.4.3 2.1-.6 1.3-1.7 2.4-2.5 3.6 1.3-.1 2.7-.3 4-.3 3.6-.1 7.1.2 10.6 1.3.8.4 1.7.6 2.5 1.1 1.7.9 3.4 2 5 3.3 1.1 1 2.1 2 3 3.1.7.8 1.3 1.7 2 2.5s1.2 1.8 1.7 2.8c.4.8.8 1.6 1.1 2.5l-1.2-1.5s.1 0 .2.1c-.3-.1-.6-.8-.8-1.1-.3-.4-.7-.7-1.1-1-.7-.6-3.7-3.1-3.9-3.2-.8-.5-1.7-1-2.5-1.5-1.1-.6-2.2-1.2-3.3-1.6-2.6-1-5.4-1.8-8.2-2.1-1.3-.1-2.6-.4-3.9-.4-1.4-.1-2.9 0-4.3 0-.9 0-1.7.1-2.6.1-.8 0-1.5 0-2.3.1.3-.2.5-.4.7-.6.2-.2.3-.6.7-.7.4-.1.7-.1 1-.1 1.2-.1 2.5-.5 3.7-.6 1-.1 2-.2 2.9-.7-2.1-.2-4.2.1-6.3.3.4-.4.6-.8.8-1.3-.8.3-1.4.9-2 1.5-.4.4-.9.8-1.4 1.2l-.6-.6c.7-.8 1.5-1.5 2.2-2.3s1.5-1.6 2-2.5c-.8.7-1.4 1.7-2.2 2.4-.7.7-1.4 1.5-2.1 2.2l-.3-.3c.4-.5.9-1.1 1.2-1.7-.6.4-1.1.8-1.5 1.4-.4 0-.9-.1-1.3-.1.7.5 1.5 1 2.1 1.6-.9.2-1.9 0-2.9-.2-.6-.1-1.2-.2-1.7 0 .6.3 1.2.4 1.8.6-1.2.4-2.3.9-3.3 1.6-.3.2-.4.5-.5.8 1.3-.3 2.4-1 3.7-1.3.3-.1.7 0 1 .1-1 .6-2.1 1.1-3 1.7-1.9 1.2-3.6 2.5-5.4 3.9-.7.6-1.3 1.3-2.1 1.9-1.7 1.4-3 3.1-4.4 4.8-.7.9-1.3 1.8-1.9 2.8-1 1.6-1.9 3.2-2.7 4.8-1.2 2.3-2.3 4.6-3.4 6.8-.2.3-.4.6-.5.9-.2-.2-.4-.3-.4-.5 0-.7.3-1.4.4-2.1.3-1.3.7-2.5 1.1-3.8.3-.9.5-1.8.9-2.6.9-2.1 2-4.1 3.1-6 1.5-2.3 3-4.6 4.8-6.5 1.2-1.3 2.5-2.6 4-3.7 1.4-1 2.8-2.1 4.3-3 .8-.4 1.6-.8 2.3-1.2-1-.4-2-.5-3-.9s-2-.8-2.9-1.3c-.8-.4-1.4-1-1.8-1.7-.3-.5-.2-1.2.2-1.7s1.2-.7 1.8-.7c1.4 0 2.6.6 3.8 1.2 1.4.8 2.9 1.5 4.3 2.3.4.3.9.6 1.4.9.3-.9.6-1.8 1-2.7.4-1.2 1-2.3 1.9-3.2.5-.8 1.2-1.4 2.1-1.5zm-2.5 4c-.4.8-.8 1.7-1 2.6.6-.4.9-1.1 1.3-1.7.6-1 1.2-2.1 1.6-3.3-.9.6-1.5 1.5-1.9 2.4zm-7 2.6c1.2.4 2.3 1 3.6 1.2-.3-.2-.5-.4-.8-.6-1.2-.6-2.5-1.2-3.7-1.8-1-.5-2-.9-3-1.3-.5-.1-1.1-.4-1.5 0l5.4 2.5z"/><path fill="#c96a98" d="M84.4 36.4c.8-.8 1.3-1.7 2.2-2.4-.5.9-1.2 1.7-2 2.5-.7.8-1.5 1.5-2.2 2.3l.6.6c.5-.4.9-.8 1.4-1.2.6-.6 1.2-1.2 2-1.5-.2.5-.5.9-.8 1.3 2.1-.3 4.2-.6 6.3-.3-.9.4-1.9.6-2.9.7-1.2.1-2.5.5-3.7.6-.4 0-.7 0-1 .1-.4 0-.4.4-.7.7-.2.3-.4.5-.7.6-.7.5-1.5.8-2.3.5-.3-.1-.7-.2-1-.1-1.2.4-2.4 1.1-3.7 1.3.1-.3.3-.6.5-.8 1-.7 2.2-1.2 3.3-1.6-.6-.1-1.2-.3-1.8-.6.6-.1 1.2-.1 1.7 0 .9.2 1.9.4 2.9.2-.7-.6-1.4-1.1-2.1-1.6.4 0 .9.1 1.3.1.4-.5.9-1 1.5-1.4-.3.6-.7 1.2-1.2 1.7l.3.3c.7-.5 1.4-1.2 2.1-2z"/><path fill="#803f26" d="M67.4 39.8c.4-.2.8-.4 1.2-.5-.6.5-1.3.8-2 1.3-1.7 1.2-3.1 2.8-4.3 4.4-.7 1-1.4 2-2 3.1-.3.5-.4 1-.7 1.5 0-.7.4-1.4.7-2 .9-1.8 2.1-3.4 3.4-4.9 1.1-1 2.3-2.1 3.7-2.9zm2.9.2c.5-.2 1.1-.4 1.7-.4-.7.4-1.6.7-2.2 1.2-3.2 1.9-5.4 4.9-7.4 7.9-.6 1-1.3 2-1.8 3.1-.1.2-.2.5-.4.7.2-1 .8-1.9 1.3-2.8 1.2-2 2.5-4 4.1-5.8 1.2-1.6 2.8-3 4.7-3.9z"/><path fill="#dc9eb4" d="M80.3 39.9c.8 0 1.7-.1 2.5 0-.5.6-1.3.8-2.1.5-.2 0-.3-.3-.4-.5z"/><path fill="#fdb391" d="M78 48.2c.9-.7 2-.8 3-1-.6.6-1.4.9-2.1 1.4-1.9 1.1-3.5 2.6-5 4.3-.5.5-.8 1.2-1.5 1.7 0-.3.1-.7.3-.9 1.6-2.2 3.4-4 5.3-5.5z"/><path fill="#febfa1" d="M71.9 67.3c.6-.6 1.4-.6 2.2-.7 1.4 0 2.7.1 4.1.4.8.2 1.6.4 2.2.8-.8 0-1.7-.3-2.5-.5-1.3-.2-2.6-.3-3.9-.2-.8.2-1.4.3-2.1.2z"/><path fill="#b65a35" d="M84 72.4c-1-.7-2.1-1-3.2-1.4-1.2-.4-2.4-.6-3.6-.8-1.6-.3-3.3-.4-4.9-.2-1.4.2-2.8.6-4.2.9-1 .2-2 .6-2.9 1.1-.3-.1-.5 0-.7.2.8 0 1.7.1 2.5 0 .3 0 .7 0 1 .1 1.7.3 3.3.1 5 .4 1.6.2 3.2.4 4.8.8 1.4.3 2.8.4 4.2.8 1.1.3 2.3.4 3.4.3 0-1.2-.7-1.8-1.4-2.2zm9.9 4.1c1.9-.9 3.9-1.9 6.1-1.8 1.7-.1 3.2.5 4.7 1 2 .7 4 1.6 5.7 2.8.7.6 1.3 1.3 2.1 1.9.2.1.4.5 0 .5-.7-.1-1.4-.5-2.1-.7-2-.7-4-1.4-6-1.8-1.9-.3-3.7-.6-5.6-.7l-3.6-.3c-.5-.1-1.1 0-1.6 0 .1-.2.2-.4.2-.6.1-.2.1-.3.1-.3z"/><path fill="#160e0b" d="M76.6 76.3c.3 0 .6 0 .8.3.4.4.4 1.1.3 1.7s-.2 1.2-.6 1.6-1 .4-1.4 0c-.3-.3-.4-.7-.4-1.1 0-.7.2-1.5.7-2.1.1-.2.3-.3.6-.4z"/><path fill="#b75b36" d="M92.4 78.1c-.8 1.3-1.5 2.7-1.9 4.1-.4 1.5-.7 3-.8 4.6-.2 2.9-.2 5.9 0 8.9 0 .3.1.7-.2.9-.7 0-1.3-.4-2-.6-1-.2-1.9-.8-2.9-.9 0 .2 0 .4.2.6.8.6 1.6 1.2 2.6 1.3.8.2 1.7.5 2.5.2.4-.2.6-.7.7-1.2.1-1.4 0-2.8 0-4.2 0-2.9 0-5.9.7-8.7.4-1.6 1-3.2 1.8-4.6.2-.4.5-.8.7-1.2.1-.2.2-.4.2-.6-.8.3-1.2.8-1.6 1.4z"/><path fill="#bc603d" d="M71.4 81.1c1 .1 1.7.8 2.6 1 .8.3 1.6.2 2.4.2v.4c-1.2.4-2.7.3-3.8-.4-.5-.2-1.1-.5-1.2-1.2z"/><path fill="#160e0b" d="M101.4 82c.4-.1.9.1 1.1.5.3.5 0 1.2-.1 1.7s-.4 1.1-1 1.4c-.4.2-1.1 0-1.3-.4-.3-.6-.1-1.3.1-2 .2-.5.6-1.1 1.2-1.2z"/><path fill="#febf9d" d="M88.5 85.6h.3c0 1.2-.2 2.3-.2 3.4-.1 1.3 0 2.6.2 4l-.2.1c-.5-1.5-.4-3.1-.4-4.7-.1-1 0-1.9.3-2.8z"/><path fill="#cc492f" d="M53.4 84.9c-.4-1.7-.6-3.5-.2-5.3.2-1.2.6-2.3 1.4-3.2.4-.4 1-.7 1.6-.8 0-.2 0-.6-.4-.6-1-.2-1.8.6-2.3 1.4-1.2 2-1.3 4.4-.9 6.6.2 1.1.4 2.2.9 3.3.2.8.7 1.4 1 2.1h.4c-.3-.8-.7-1.5-1.1-2.2-.1-.4-.3-.8-.4-1.3z"/><path fill="#b95e3a" d="M100 88.1c.3 0 .6.1.9.2 1 .4 2.1.6 3.1.6.4 0 .9-.1 1.4-.1 0 .1.1.2.1.3-1.2.5-2.5.4-3.8.3-.6-.1-1.7-.5-1.7-1.3z"/><path fill="#cc492f" d="M67.9 97.6c-.7-1.9-1.5-3.7-2.5-5.4-.4-.8-.6-1.7-1.1-2.5-.2 1.3.5 2.5 1.1 3.6.8 1.4 1.4 2.8 2.1 4.2h-.1c.4 1 .8 2 1.1 3 0 0 .2 0 .3.1-.3-.9-.6-2-.9-3z"/><path fill="#d1434f" d="M72.7 98.5c.1-.3.4-.2.7-.2 1.2.2 2.5.5 3.7.7 1.2.1 2.5.1 3.8.1.8 0 1.7-.1 2.4.3.2.1.3.1.5.2s.4.3.7.4h1c.4 0 .7-.1 1-.2.8-.2 1.6 0 2.3.2 1 .3 2 .9 3 1.2 1.5.4 2.9 1 4.6 1-.3 1.8-1.5 3.2-2.6 4.5-.6.8-1.6 1.4-2.5 2-1.8 1.1-3.9 1.9-6.1 1.9-.9 0-1.7-.2-2.6-.3-.8-.1-1.7-.3-2.5-.6-1.4-.6-2.9-1.3-4-2.5-.6-.6-1.2-1.3-1.7-2-.6-.7-1.1-1.5-1.4-2.3-.4-.6-.6-1.3-.6-2.1.1-.7-.1-1.5.3-2.3z"/><path fill="#fff" d="M75.2 99.7c1.4.2 2.8.6 4.2.8 1.3.2 2.7.4 4.1.4.8 0 1.6.3 2.5.4 1.2.2 2.3.4 3.5.5 1.4.2 2.7.4 4.1.6-.1.9-.6 1.7-1 2.5s-1.4 1.2-2.1 1.6c-1.9.8-3.9 1.2-6 1.2-1.5 0-2.9-.4-4.2-1-1-.4-1.9-1-2.7-1.6-.6-.5-1.2-1.1-1.5-1.9-.2-.6-.4-1.2-.5-1.9-.3-.4-.2-1-.4-1.6z"/><path fill="#cc492f" d="M104.4 99.6c-.8.7-1.5 1.4-2.2 2.1-.4.4-.8.7-1.1 1.2h-.2c-.3.4-.5.8-.7 1.2.4 0 .8-.4 1-.8.1 0 .2-.1.3-.2 1.3-1.4 2.9-2.5 4.2-3.8.3-.3.5-.8.6-1.2-.6.3-1.2.9-1.9 1.5z"/><path fill="#f09280" d="M76 105c.8.7 1.4 1.5 2.2 2.1.5.4 1.1.6 1.6 1-.8-.1-1.6-.5-2.3-1-.7-.4-1.2-1-1.7-1.7.1-.2.1-.3.2-.4z"/><path fill="#c06946" d="M61.5 109.8c.5.4.9 1.1 1.3 1.7.3.4.6.8.8 1.3l-.3.6c-.7-.8-1.2-1.8-1.7-2.7-.1-.3-.1-.7-.1-.9z"/><path fill="#fdb796" d="M79.8 115.4c1.9-.2 3.8.1 5.7.7v.4c-.9 0-1.8-.3-2.8-.4-1.2-.1-2.4 0-3.6-.1.1-.3.3-.6.7-.6z"/><path fill="#b95d38" d="M106.1 109.9c-1.7 2.6-3.4 5.3-5.7 7.5-.6.8-1.4 1.3-2 2.1-.4.6-1 1.1-1.6 1.6-.8.8-1.7 1.3-2.6 1.9-.9.7-2 1.2-2.9 1.8-.4 0-.7.2-1 .4-.8.4-1.6.7-2.4.9-1.2.1-2.2.5-3.4.7-.8.1-1.7 0-2.5.1-1.4-.1-2.9 0-4.2-.6-1-.3-2-.8-2.9-1.3-.7-.5-1.5-.9-2.1-1.5-.8-.7-1.7-1.5-2.5-2.4-.9-1-1.7-2-2.5-3-1-1.2-1.8-2.5-2.8-3.7-.5-.6-.9-1.3-1.4-1.9l-.3.6c1.6 2.4 3.2 4.9 5.2 6.9.6.6 1.1 1.3 1.7 1.9 1.4 1.5 3 2.9 4.8 3.9.8.5 1.8.8 2.7 1 1.4.4 2.9.6 4.5.4 2.1.1 4-.4 6-.9.5-.2 1.1-.4 1.6-.6.7-.3 1.4-.4 2-.9.1 0 .3-.1.4-.1 1-.5 2.1-1.2 3-1.8 1.2-.7 2.1-1.6 3.2-2.5.8-.8 1.7-1.5 2.3-2.4.9-1.2 2.1-2.3 2.9-3.6 1.1-1.4 1.9-3 2.8-4.6-.1.1-.2.1-.3.1z"/><path fill="#58a4b2" d="M134.8 180.2c.2-.5.2-1.2.7-1.5 0 1.2-.3 2.4-.6 3.6-.7 2.4-1.7 4.7-2.8 6.9-1.2 2.3-2.4 4.6-3.4 7.1-2.1 5.2-3.7 10.6-5.1 16.1-.1.4-.3.8-.4 1.2.1-.7.2-1.3.2-2 .1-1.2.5-2.4.8-3.5 1.3-5.1 2.8-10.2 5-15 1.1-2.3 2.3-4.5 3.3-6.8.9-1.9 1.7-4 2.3-6.1z"/><path fill="#61a9b7" d="M117.2 187.7h.4c-.8 1.8-2.4 3.1-3.8 4.4-.6.5-1.3 1.1-2 1.4-.3.1-.6.2-.9.2.1-.6.8-.8 1.2-1.2 1.8-1.4 3.9-2.7 5.1-4.8z"/><path fill="#59a4b2" d="M126.5 189.6c.1-.4.2-.8.7-.9-.2 2.5-1.1 4.9-2 7.1-.9 2.4-1.9 4.9-2.6 7.4-.9 3.1-1.5 6.2-1.9 9.5-.1.9-.2 1.8-.4 2.7-.1.6-.2 1.2-.3 1.9 0-1.3.1-2.6.1-3.9 0-1.1.2-2.2.4-3.3.4-2.9.8-5.7 1.7-8.4.9-2.8 2-5.5 3.1-8.2l1.2-3.9z"/><path fill="#69adba" d="M25.4 189.2h.4c.6 1.8 1.7 3.3 2.9 4.8.7.8 1.3 1.7 2 2.5.3.3.5.7.7 1.1-.6-.4-1-.9-1.4-1.4-1.1-1.2-2.2-2.5-3.2-3.9-.6-.9-1.4-1.9-1.4-3.1z"/><path fill="#89bfc7" d="M132.9 196.7c.1 0 .2 0 .4.1-.4 1-.9 2.1-1.4 3.1l-.1-.2h-.2c.4-1.1.8-2.1 1.3-3z"/><path fill="#58a4b1" d="M15.7 198.3c-.1-.2 0-.4.1-.7.4.6.7 1.4 1.1 2.1.6 1 1.1 2 1.6 3.1 1.5 3.7 2.8 7.6 3.3 11.6.3 2.8.7 5.6.8 8.3v1.7l-.3-.6c-.2-.6-.1-1.2-.2-1.9-.5-5-1.2-10.1-2.9-14.9-.6-1.8-1.2-3.6-2.1-5.4-.5-1-1.1-2.1-1.4-3.3z"/><path fill="#70b1bd" d="M131.5 199.5h.2l.1.2c-1.9 4.4-3.8 8.8-5.3 13.4-.4 1.4-.8 2.9-.9 4.3 0 .4-.2.8-.3 1.2h-.3c.1-1 .1-2.1.4-3 .5-2.4 1.4-4.7 2.2-7 1.2-3 2.5-6 3.9-9.1z"/><path fill="#59a5b3" d="M96.9 200.5c.3.2.5.4.6.8.2.8-.4 1.6-.9 2.2-1.4 1.7-2.7 3.5-3.8 5.4-.4.8-.8 1.7-1.1 2.5-.1.3-.4.2-.6.3.5-1.9 1.4-3.7 2.4-5.4.7-1.1 1.4-2.2 2.3-3.2.4-.4.8-.8 1-1.3.2-.3.1-.8.1-1.3z"/><path fill="#6cafbb" d="M13.3 204.1h.3c-.3 4.8.5 9.6 1.8 14.2.2.8.6 1.7.8 2.5 0 0 0 .1-.1.1 0 0-.1.1-.1.2-1.8-5-3.3-10.3-2.9-15.6 0-.5.1-1 .2-1.4z"/><path fill="#5ba7b4" d="M112.1 204.5c.2-.2.4-.3.7-.4-.2.7-.8 1.1-1.2 1.5-1.6 1.4-3.3 2.7-5 3.9-.9.7-2 1.1-2.7 2l-.5.5c-.2-.7.4-1.2.8-1.6.9-.8 1.9-1.4 2.9-2.1 1.5-1.1 3.4-2.3 5-3.8z"/><path fill="#803f26" d="M103.2 33.5c1.3.6 2.7 1.2 3.9 2.1 1.6 1 3 2.3 4.3 3.6 1.6 1.5 3 3.2 4.4 4.9.4.5.8 1.1 1.3 1.5-.1-.5-.4-.9-.8-1.4-1.2-1.7-2.6-3.3-4.1-4.9-1.3-1.3-2.7-2.6-4.3-3.6-1.4-.9-2.9-1.7-4.5-2.4-2.4-1.1-5-2.1-7.7-2.1.8.3 1.7.4 2.5.6 1.8.4 3.4 1.1 5 1.7z"/><path fill="#803f26" d="M95 33.7c1.2.1 2.4.2 3.6.4 1.6.4 3.1 1 4.6 1.7 1.9.8 3.7 1.9 5.3 3.2 2.7 2.1 5.1 4.4 7.1 7.1.4.6.9 1.2 1.3 1.7.2.3.5.6.8.8-.1-.4-.2-.7-.4-.9-.4-.6-.9-1.3-1.4-1.9-1.8-2.2-3.7-4.5-6-6.3-3.1-2.5-6.6-4.5-10.5-5.7-1-.3-2.1-.4-3.1-.5-1.6-.1-3.2 0-4.7.4 1 .2 2.2-.1 3.4 0zm13.2 15.8c-1.1-.8-2.1-1.4-3.3-2.1-.6-.4-1.3-.8-2-1-1.8-.8-3.5-1.7-5.4-2.2-.8-.2-1.6-.5-2.4-.5 1.2.6 2.6.8 3.9 1.3 1.9.8 3.8 1.7 5.6 2.7 3.1 1.8 5.9 4.1 8.4 6.8 1.5 1.7 2.8 3.5 4.1 5.3.4.6.8 1.3 1.4 1.8-.5-1.1-1.2-2.1-1.9-3-1.1-1.6-2.2-3.2-3.5-4.6-1.4-1.7-3.1-3.2-4.9-4.5z"/><path fill="#803f26" d="M115.6 50.9c-.8-1-1.7-1.8-2.7-2.6-.4-.3-.8-.6-1.3-.8.4.3.8.6 1.1 1 .5.7 1.2 1.2 1.8 1.9 1.5 1.9 3 3.8 4.3 5.9.4.7.7 1.5 1.1 2.2.2.7.5 1.4.6 2.1.2.8.3 1.7.4 2.5.1 1.2.3 2.5.3 3.7 0 1.3.2 2.6 0 3.9 0 .5 0 1-.1 1.5-.1 2.1-.6 4.2-.9 6.3-.1.9-.4 1.7-.4 2.6-.3.8-.3 1.6-.4 2.3-.2 1.1-.4 2.1-.5 3.2.4-.8.4-1.7.6-2.5.1-.8.4-1.5.4-2.2.3-.9.5-1.8.7-2.7.5-3.1 1.2-6.2 1.2-9.4 0-2.5-.1-5.1-.6-7.6 0-.3 0-.6-.1-.9-.2-1-.5-2.1-.9-3-.7-2.2-1.9-4.2-3.3-6-.6-.4-1-.9-1.3-1.4zm8.5 58.6c-.3-1.6-1.1-2.9-1.8-4.4-.6-1.5-1.5-2.9-2.2-4.4-.4-1-.7-2-.9-3-.4-1.4-.6-2.9-.8-4.3-.1-.7.1-1.4.1-2.1-.2.6-.3 1.2-.3 1.9 0 1.5.1 3 .5 4.5.3 1.2.6 2.5 1.2 3.6.6 1.3 1.4 2.6 2 3.9.8 1.6 1.9 3.2 1.9 5-.1 1.7-.4 3.5-1.4 5-.9 1.3-2.2 2.4-3.2 3.6-.8 1-1.3 2.2-1.6 3.4-.4 2-.6 4.1-.4 6.2 0 0 .2 0 .3.1-.1-1.9.1-3.8.5-5.7.3-1.4.8-2.7 1.7-3.8.9-1.2 2.2-2.2 3-3.5.8-1.1 1.2-2.4 1.3-3.7.2-.8.3-1.6.1-2.3zM94 155.9c2.6-1.8 4.8-4.3 6.1-7.2.9-2.1 1.2-4.3 1.1-6.6 0-2.3.6-4.5 1.7-6.4.8-1.2 1.7-2.4 2.9-3.4.9-.8 1.8-1.7 2.7-2.5 1.2-1.1 2.2-2.3 3.2-3.6 1-1.3 1.8-2.8 2.4-4.3.7-2.1 1.2-4.3.9-6.5-.2-1.5-.2-3-.4-4.6-.2-1.9 0-3.8.2-5.7 0-.5 0-1 .2-1.5.1-.7.4-1.2.7-1.9-.7.7-1.1 1.7-1.1 2.8-.4 2.2-.6 4.4-.4 6.6l.3 3.9c.1 1.2 0 2.3-.1 3.5-.4 1.8-.9 3.7-1.8 5.3-.8 1.5-1.8 2.7-2.9 4-1.7 2-4 3.6-5.8 5.5-1.4 1.7-2.5 3.7-2.9 5.8-.4 1.9-.2 3.8-.4 5.7-.1 1.1-.4 2.2-.7 3.2-1.2 3-3.5 5.6-6.2 7.3-1.5.9-3 1.7-4.6 2.5-1.2.6-2.5 1.4-3.5 2.3-.9.8-1.7 1.7-2.3 2.7-2 3.4-2.5 7.8-.9 11.4.7 1.7 1.7 3.2 1.9 5 .2 1.5.2 3.1-.3 4.6-.5 1.6-1.7 2.8-2.9 4-.8.8-1.5 1.7-2.1 2.6-.9 1.6-1.4 3.6-.8 5.4.3 1 1 1.9 1.7 2.7 1.1 1.1 1.7 2.5 2.1 4h.4c-.1-1.2-.4-2.3-1-3.3-.6-1.1-1.5-1.9-2.1-3-.6-1.2-.6-2.8-.2-4.1.5-1.6 1.6-3 2.8-4.1 1.2-1.1 2.2-2.4 2.7-4 .6-1.8.5-3.8.2-5.7-.2-1-.6-1.9-1-2.8-.7-1.5-1.3-3-1.5-4.6-.2-2.2.1-4.6 1.1-6.6.6-1.5 1.6-2.8 2.9-3.8 1.4-1.2 3.1-2 4.7-2.9.8-.5 1.9-1.1 3-1.7z"/><path fill="#803f26" d="M116.8 141.5c-.3-.5-.8-.9-.9-1.5-.2-.6-.3-1.3-.2-2 .2-.9.5-1.7.8-2.6.3-.9.8-1.8.9-2.8h.1c0-.5.1-1.1-.2-1.5-.1.5-.2 1-.3 1.6-.7 1.7-1.5 3.3-1.9 5.1-.2 1.1 0 2.3.6 3.1 1.1 1.4 1.5 3.3 1.2 5-.2 1.5-.6 2.9-1.2 4.3-1 1.8-2.3 3.5-4 4.7-2.4 1.7-5.3 2.5-8 3.6-1.6.5-3.1 1.2-4.6 2-1.4.8-2.8 1.7-3.9 2.9-1.3 1.3-2.5 2.9-3.1 4.7-.5 1.5-.4 3.1-.3 4.6.1 1.2.2 2.3-.2 3.4-.3.7-.9 1.2-1.4 1.8-.5.8-1 1.7-.9 2.6 0 1.1.4 2.1 1 2.9.5.8.8 1.8.7 2.8-.1.9-.2 1.8-.6 2.6-.8 1.5-2.4 2.4-3.1 3.9-.5 1-.7 2.1-.7 3.3 0 .7 0 1.4.1 2.1 0 .5 0 1 .1 1.5h.3v-2.7c.1-1.4.3-2.8 1-4.1.6-1.1 1.6-1.8 2.3-2.7 1-1.1 1.2-2.7 1.2-4.1 0-1-.3-2-.8-2.8s-.9-1.6-.9-2.5c0-.8.3-1.5.7-2.1.5-.8 1.2-1.3 1.6-2.1.3-.8.4-1.7.3-2.5 0-1.7-.4-3.3 0-5 .3-1.4 1-2.7 1.9-3.8 2.1-2.7 5.1-4.5 8.2-5.7.5-.2 1-.3 1.4-.5l.9-.3c1.9-.7 3.8-1.3 5.6-2.3 1.1-.6 2.1-1.3 3-2.2 1.1-1.1 2-2.3 2.7-3.6.8-1.5 1.2-3.2 1.3-4.8.3-1.5 0-3-.7-4.3z"/><path fill="#803f26" d="M110.8 133.1c.6-.6 1.1-1.3 1.7-2 0 0-.1-.2-.1-.3-.7.7-1.4 1.4-2 2.2-1.3 1.6-2.4 3.5-2.5 5.6-.2 2.1.8 4.1.7 6.2-.1.8-.2 1.7-.5 2.5-.3.9-.9 1.7-1.4 2.4-1 1.5-2.3 2.8-3.8 3.8-1.6 1.1-3.2 2.1-4.8 3-2.4 1.6-5 3.1-7.1 5.1-.8.8-1.7 1.7-2.4 2.7-1 1.3-1.7 2.9-1.7 4.6 0 2 .7 3.9.7 5.9 0 .9-.1 1.9-.3 2.8h.4c.7-2.1.6-4.4.3-6.6-.2-1.2-.3-2.5 0-3.6.6-2.2 2.3-4 3.8-5.6.4-.3.8-.7 1.2-1.1 1.6-1.2 3.3-2.3 5-3.4.9-.6 1.9-1.1 2.9-1.7 1.7-1.1 3.3-2.1 4.8-3.5 1-1 1.8-2.2 2.6-3.4.8-1.2.9-2.6 1-4 .2-2.1-.9-4.1-.7-6.2 0-2 1-3.8 2.2-5.4zm-32.3 26.4c.6-1.3 1.6-2.4 2.8-3.3 1.2-1 2.6-1.8 4-2.7 1.8-1.1 3.9-1.9 5.7-3 2.7-1.9 4.8-4.6 5.8-7.8.4-1.1.3-2.4.4-3.5-.4.3-.4.8-.5 1.2 0 .6-.2 1.2-.3 1.8-.5 1.8-1.5 3.4-2.7 4.9-1 1.2-2.2 2.3-3.6 3.1-.8.4-1.7.9-2.5 1.3-1.7.7-3.2 1.7-4.7 2.6-1.3.9-2.7 1.9-3.8 3.1-1.3 1.5-2 3.3-2.2 5.3-.2 1.7-.4 3.4-.1 5.1.3 1.7 1.1 3.2 1.7 4.7.1.8.4 1.6.6 2.4.4 1.8.6 3.7.5 5.6h.1c0-2.2-.1-4.4-.6-6.6-.1-.6-.2-1.2-.5-1.7-.2-.9-.6-1.7-.8-2.6-.7-2.2-.6-4.6-.3-6.8.3-1.2.5-2.2 1-3.1z"/><path fill="#803f26" d="M78.8 205.5c-.7-.4-1.5-.8-2.3-1.1-1.7-.5-3.3-1.1-4.8-2.1-1-.7-1.5-1.8-2-2.9-.5-1.2-.5-2.6-.1-3.9.6-2 1.8-3.7 3.2-5.4.7-.8 1.4-1.7 1.9-2.6 1-1.7 1.6-3.6 1.9-5.6.2-1.2.3-2.4.2-3.5-.2-1.7-.8-3.3-1.5-5-.5-1.3-1.2-2.5-1.7-3.7-.4-.7-.8-1.3-1-2.1-.6-1.9-1.1-3.9-.8-5.9.2-2.9 1.5-5.7 3.6-7.8 1.3-1.3 2.9-2.5 4.6-3.3 2.1-.9 4.4-1.8 6.5-2.9.7-.2 1.3-.6 2-.9 1.2-.6 2.1-1.5 2.9-2.4 1.4-1.7 2.4-3.8 2.9-6 .3-1.2.4-2.5.8-3.7.7-2 1.9-3.7 3.4-5.2 1-1 2.3-1.7 3.4-2.6.6-.2 1.2-.7 1.7-1.1 2.1-1.2 3.5-3.2 4.5-5.4.8-1.7 1.2-3.7 1.4-5.5.3-1.8 0-3.7.2-5.6 0-1.3.4-2.6.9-3.8-.4.5-.7 1.2-.8 1.8-.5 1.8-.4 3.6-.4 5.4-.1 3.1-.7 6.2-2.3 8.9-.8 1.5-2.1 2.7-3.5 3.7-.7.5-1.5.9-2.2 1.6-.1 0-.2 0-.3.1-1.3.9-2.7 1.9-3.8 3.1-1.7 1.8-2.9 4.1-3.2 6.5-.1 1.1-.3 2.2-.6 3.3-.7 2.3-2.1 4.6-4.1 5.8-1.1.7-2.2 1.1-3.4 1.6-1.4.7-2.9 1.2-4.3 1.8-1.5.6-3 1.2-4.3 2.2-1.4 1.1-2.7 2.2-3.7 3.7-1.2 1.7-2.1 3.7-2.3 5.7-.2 1.2-.3 2.5 0 3.8.2 1.3.6 2.6 1.1 3.8.8 1.8 1.9 3.5 2.6 5.4.7 1.8 1.5 3.7 1.4 5.7-.1 3.3-1.2 6.6-3.3 9.2-1.2 1.4-2.4 2.9-3.3 4.6-.9 1.7-1.4 3.7-.9 5.5.4 1.5 1.1 3 2.4 4 .8.6 1.8.9 2.8 1.3 1.6.6 3.4.8 4.9 1.7v.1c.6.4 1.2.8 1.7 1.4.4.4.5.9.9 1.3-.5-1.2-1.8-2.2-2.9-3z"/><path fill="#73b5c0" d="M26.6 207.6c.7 0 1.3.4 1.9.8.7.5 1.2 1.2 1.6 2 .9 1.6 1.7 3.2 2.4 4.9-.1 0-.2.1-.3.2-.6-1.5-1.4-2.9-2.3-4.3-.5-.8-1-1.6-1.7-2.2-.4-.6-1.2-.9-1.6-1.4z"/><path fill="#68aeba" d="M38.4 208.4c.1 0 .3-.1.4-.1 1.2 1 1.7 2.5 2.5 3.7.5.9 1 1.8 1.7 2.6.2.2.2.4.2.7-1-.8-1.7-1.9-2.3-2.9-.7-1.1-1.2-2.3-2-3.3-.3-.2-.4-.4-.5-.7z"/><path fill="#5ea8b5" d="M18.1 216.3c.3 2.1.3 4.3.3 6.5v3h.2c0-.1 0-.2.1-.3.1-.8.1-1.6.2-2.3.2-3.6.4-7.2-.7-10.7-.4-1.2-.9-2.1-1.4-3.2h-.4c0 .9.5 1.7.8 2.5.4 1.3.7 2.9.9 4.5z"/><path fill="#81bac4" d="M123 213.3c.1-.5.2-1.1.4-1.6 0 .7-.1 1.3-.2 2 .1-.4.3-.8.4-1.2-.1.8-.2 1.6-.5 2.4 0 .2-.3.3-.4.4.1-.8.3-1.4.3-2z"/><path fill="#6bb0bb" d="M58.6 213.5c-.1-.2.1-.4.4-.4.8.3 1.4.8 2 1.3 1.3 1.2 2.6 2.5 3.6 4.1-.1 0-.2.1-.3.2-1-1.6-2.4-2.8-3.8-4-.6-.4-1.3-.8-1.9-1.2z"/><path fill="#87bbc6" d="M119.7 218.4c.2-1.7.1-3.4.4-5 0 1.3-.1 2.6-.1 3.9.1-.6.2-1.2.3-1.9 0 1-.1 2.1-.3 3.1 0-.1-.2-.1-.3-.1z"/><path fill="#9bc7c8" d="M32.4 215.3c.2.6.4 1.2.7 1.7-.1 0-.2 0-.3.1-.3-.5-.5-1.1-.7-1.6.1-.1.3-.2.3-.2z"/><path fill="#90c4c2" d="M64.3 218.7c.1 0 .2-.1.3-.2.3.5.5 1 .6 1.6-.5-.4-.7-.9-.9-1.4z"/><path fill="#97c5c9" d="M18.1 225.7h.2c.1-1 .1-2 0-3-.2.8 0 1.7-.2 2.5-.9-1.4-1.2-3-2-4.5 0 0 0 .1-.1.1 0 0-.1.1-.1.2.5 1.5 1.1 3 1.9 4.4.2.1.3.2.3.3z"/><path fill="#83b9c3" d="M22.6 225.7c0-1 .1-2-.1-3v1.7l-.3-.6v1.9h.4z"/></g></svg>