<?xml version="1.0" encoding="utf-8"?>
<!-- Generator: Adobe Illustrator 25.2.0, SVG Export Plug-In . SVG Version: 6.00 Build 0)  -->
<svg version="1.1" id="Layer_1" xmlns="http://www.w3.org/2000/svg" xmlns:xlink="http://www.w3.org/1999/xlink" x="0px" y="0px"
	 viewBox="0 0 180 180" style="enable-background:new 0 0 180 180;" xml:space="preserve">
<style type="text/css">
	.st0{clip-path:url(#SVGID_2_);}
	.st1{fill:#38312D;}
	.st2{fill:#764074;}
	.st3{fill:#FFF3DB;}
	.st4{fill:#E56324;}
	.st5{fill:#F2844F;}
	.st6{fill:#F95939;}
	.st7{fill:#B95D38;}
	.st8{fill:#CC492F;}
	.st9{fill:#4F2A4D;}
	.st10{fill:#B95F3B;}
	.st11{fill:#160E0B;}
	.st12{fill:#FDB897;}
	.st13{fill:#BA9F80;}
	.st14{fill:#150F0C;}
</style>
<g>
	<defs>
		<rect id="SVGID_1_" width="180" height="180"/>
	</defs>
	<use xlink:href="#SVGID_1_"  style="overflow:visible;fill:#7A2DE8;"/>
	<clipPath id="SVGID_2_">
		<use xlink:href="#SVGID_1_"  style="overflow:visible;"/>
	</clipPath>
	<g class="st0">
		<g>
			<path class="st1" d="M187.4,209.7c-4.1-12.5-9.1-24.8-14.9-36.7c-0.9-1.8-1.7-3.6-3-5.1c0,0-0.1-0.1-0.2-0.2
				c-0.7-1.3-1.5-2.6-2.5-3.7c-1-1.2-2.2-2.1-3.4-3c-0.8-0.7-1.8-1.2-2.8-1.7c-0.9-0.4-1.9-0.7-2.8-1c-2.6-1-5.2-2.1-7.8-3.1
				c-2.5-1-4.9-2.2-7.3-3.3c-2.5-1.1-4.9-2.2-7.4-3.4c-1.1-0.5-2.3-1-3.3-1.6c-1.1-0.6-2.2-1.1-3.3-1.8c-1-0.7-2.1-1.3-3.1-1.9
				c-1-0.7-2.2-1.1-3.3-1.7c-0.4-0.4-0.7-0.8-1.1-1.2s-0.7-0.9-1.2-1.1c-0.1,0-0.2,0-0.3,0c0.4,0.4,0.8,0.8,0.9,1.3
				c0.2,1.1,0.2,2.3-0.1,3.3c-0.3,1.1-0.5,2.2-0.9,3.2c-0.8,2.1-1.6,4.2-2.5,6.2c-1,2.2-2,4.5-3,6.7c-1.2,2.5-2.5,5-3.8,7.4
				c-1.7,3.4-3.4,6.9-5.4,10.2c-0.8,1.1-1.3,2.3-1.9,3.6c-1.2,2.5-2.5,5-4,7.4c-0.1,0.2-0.4,0.2-0.6,0.3c-1-0.5-2-0.8-3-1.2
				c-2.5-0.9-5-1.9-7.4-3.2c-2-1.1-4.1-2-6.1-3.3c-1-0.7-2-1.3-2.9-2.1s-1.9-1.5-2.8-2.3c-0.6-0.5-1.2-1-1.8-1.5
				c-1.6-1.4-2.9-3-4.3-4.7c-0.8-1.1-1.7-2.1-2.4-3.2c-0.4-0.6-0.8-1.2-1.2-1.7c-0.6-0.6-1-1.3-1.5-2.1c-1.2-1.9-2.1-4-3.1-6
				c-0.5-1.1-1-2.3-1.4-3.4c-1-2.9-2.2-5.7-2.8-8.7c-0.2-1-0.6-2-0.4-3.1c0.1-0.8,0.4-1.5,0.8-2.3c0,0-0.2-0.1-0.2-0.2
				c-0.2,0.1-0.3,0.2-0.4,0.4c-0.8,0.9-1.7,1.7-2.5,2.6c-0.3,0.4-0.6,0.8-0.9,1.1c-1,0.9-2.1,1.7-3.1,2.7c-1,0.9-2.1,1.7-3.1,2.5
				c-1.5,1-3,2.2-4.5,3.2c-2.1,1.3-3.9,2.9-5.7,4.5c-0.9,0.8-1.9,1.7-2.9,2.5c-1.8,1.4-3.5,2.9-5.3,4.3c-1,0.8-2,1.7-2.9,2.5
				c-1.2,1-2.4,2-3.6,2.9c-0.8,0.6-1.7,1.2-2.4,2c-1.2,1.2-2.5,2.2-3.7,3.4c-0.8,0.4-1.4,0.9-1.9,1.7c-3.7,5.3-6.7,11-9,17.1
				c-0.7,1.7-1.2,3.5-1.7,5.2c-1.2,3.7-2.2,7.4-2.9,11.2L187.4,209.7L187.4,209.7z"/>
			<path class="st2" d="M87.4,25.5c1.2-0.1,2.5-0.1,3.7-0.1c2,0,4.1,0,6.1,0.1c3.5,0.1,6.9,1,10,2.5c1.4,0.6,2.7,1.5,3.9,2.5
				c0.5,0.3,1.1,0.6,1.6,1c1.2,1.1,2.5,2.2,3.4,3.5c1.3,1.8,2.6,3.7,3.6,5.8c0.7,1.5,1.4,3,1.7,4.6c0.3,1.4,0.8,2.8,1.1,4.1
				c0.6,2.8,0.8,5.6,1.1,8.4c0.2,2.8,0.7,5.5,0.7,8.3c0,0.6,0,1.2,0,1.9c0.2,1.1,0.1,2.1,0,3.2c-0.3,1.9-0.3,3.8-1,5.6
				c-0.8,2-1.4,4-2.4,5.8c-0.4,0.7-0.6,1.5-1.1,2.2c-0.5,0.8-1,1.5-1.7,2.1c-0.9,0.7-2.1,0.8-3.2,0.9c-1,0.1-2.1,0.1-3,0
				c-2.5-0.1-5,0-7.4,0.1c-3.4,0.2-6.8,0.8-10.1,1.2c-3.5,0.5-7,0.7-10.6,0.9c-3.2,0.2-6.4,0.5-9.6,0.9c-2.5,0.3-5,0.5-7.5,0.8
				c-1.2,0-2.4,0.1-3.5-0.3c-0.7-0.2-1.2-0.8-1.6-1.3c-1.3-1.6-2.2-3.4-3.1-5.2c-0.8-1.5-1.4-3-2.2-4.5c-0.8-1.4-1.4-2.9-2.2-4.4
				c-0.5-1-1-2.1-1.4-3.2c-0.5-1.3-1-2.6-1.4-3.9c-0.3-1-0.6-2.1-0.8-3.1c-0.3-2.1-0.2-4.3,0-6.5c0.2-1.4,0.6-2.9,0.9-4.2
				c0.5-1.8,1.1-3.6,1.9-5.3c1.4-3,3.5-5.6,6.1-7.7c1.3-1.1,2.6-2.1,4.1-3c1.8-1,3.7-1.8,5.7-2.4c0.5-1.6,1.4-3,2.6-4.2
				c1.1-1.1,2-2.3,3.3-3.2c0.9-0.7,2-1.2,3-1.7c0.9-0.4,2-0.6,3-0.9c0.9-0.3,1.9-0.4,2.8-0.6C85,25.7,86.2,25.6,87.4,25.5z"/>
			<path class="st3" d="M63.3,131c0.4-0.5,0.8-0.9,1.4-1.2c0.2-0.1,0.4,0,0.6,0c0,0.3,0,0.6-0.1,0.9c2.1,0.4,4.1,1.1,6.2,1.3
				c3.1,0.4,6.2,1,9.4,1c1.5,0.1,2.9,0,4.4,0c0.8,0,1.7,0,2.5-0.1c2.9-0.2,5.8-0.4,8.7-0.8c3.4-0.3,6.7-0.7,10.1-1.2
				c1.3-0.3,2.6-0.4,3.9-0.5c0.7,0,1.5-0.1,2.2,0.1c1,0.3,1.5,1.2,2.3,1.9c1,0.8,1.9,1.8,2.6,2.9c0.6,1,1.2,2,1.9,2.9
				c0.3,0.4,0.6,0.7,0.8,1c-0.1,0-0.2,0-0.3,0c0.4,0.4,0.8,0.8,0.9,1.3c0.2,1.1,0.2,2.3-0.1,3.3c-0.3,1.1-0.5,2.2-0.9,3.2
				c-0.8,2.1-1.5,4.2-2.5,6.2c-1,2.3-2,4.5-3,6.7c-1.2,2.5-2.5,5-3.8,7.4c-1.7,3.4-3.4,6.9-5.4,10.2c-0.8,1.1-1.3,2.3-1.9,3.6
				c-1.2,2.5-2.5,5-4,7.4c-0.1,0.2-0.4,0.2-0.6,0.3c-1-0.5-2-0.8-3-1.2c-2.5-0.9-5-1.9-7.4-3.2c-2-1.1-4.1-2-6.1-3.3
				c-1-0.7-2-1.3-2.9-2.1s-1.9-1.5-2.8-2.3c-0.6-0.5-1.2-1-1.8-1.5c-1.6-1.4-2.9-3-4.3-4.7c-0.8-1.1-1.7-2.1-2.4-3.2
				c-0.4-0.6-0.8-1.2-1.2-1.7c-0.6-0.6-1-1.3-1.5-2.1c-1.2-1.9-2.1-4-3.1-6c-0.5-1.1-1-2.3-1.4-3.4c-1-2.9-2.2-5.7-2.8-8.7
				c-0.2-1-0.6-2-0.4-3.1c0.1-0.8,0.4-1.5,0.8-2.3c0,0-0.2-0.1-0.2-0.2c1.6-2.6,2.5-5.7,4.2-8.2C62.5,131.5,62.9,131.3,63.3,131z"/>
		</g>
		<g>
			<path class="st4" d="M74.6,42.8c0.5-0.2,1.1,0.1,1.6,0.1c1.7,0,3.3,0.5,4.9,0.6c1.1,0.1,2.1,0.5,3.1,0.7c2.2,0.5,4.3,1.2,6.4,2.1
				c1.1,0.4,2.1,0.9,3.2,1.5s2.1,1.4,3.2,2.1c1.1,0.7,2.3,1.1,3.5,1.6c2.1,1.1,3.7,2.7,5.7,3.8c0.8,0.4,1.4,0.9,2.1,1.5
				c1.1,0.9,2.1,1.8,3.2,2.7c1.1,1.2,2.2,2.2,3.3,3.4c0.8,1,1.6,2.1,2.2,3.2c0.4,0.8,0.8,1.6,1.2,2.3c-0.1,0.2-0.4,0-0.5,0
				c-0.8-0.4-1.7-0.8-2.4-1.3c-0.9-0.7-1.8-1.5-2.7-2.2c-1.9-1.4-4-2.7-5.9-4.1c-2.2-1.5-4.3-3.2-6.6-4.6c-1.2-0.8-2.5-1.3-3.7-1.9
				C94.5,53.8,93,53,91.5,52c-2.3-1.4-4.8-2.4-7.2-3.7c-2.1-1.2-4-2.6-6.2-3.7C76.9,44.1,75.6,43.6,74.6,42.8z"/>
			<path class="st5" d="M73.3,43.3c0.4-0.3,0.8-0.4,1.3-0.5c1,0.9,2.3,1.3,3.4,1.9c2.1,1,4.1,2.5,6.2,3.7c2.3,1.3,4.9,2.4,7.2,3.7
				c1.5,0.9,3.1,1.8,4.8,2.4c1.2,0.6,2.5,1.1,3.7,1.9c2.3,1.3,4.4,3,6.6,4.6c2,1.4,4,2.7,5.9,4.1c0.9,0.7,1.7,1.6,2.7,2.2
				c0.8,0.5,1.6,0.9,2.4,1.3c0.2,0,0.4,0.2,0.5,0c0.6,0.9,1.6,1.5,2.4,2.2c0.4,0.4,1.2,0.8,1.2,1.5c0.1,1.4,0,2.9-0.2,4.3
				c0,0.2,0,0.5-0.1,0.7c-0.3,0.3-0.3,0.7-0.4,1.1c-0.2,0.9-0.2,1.8-0.3,2.7c-0.1,1.6-0.2,3.1-0.3,4.6c-0.1,1-0.1,2.1-0.2,3.1
				c-0.1,1.1-0.1,2.3,0,3.4c0.2,2.2-0.2,4.4,0,6.6h0.2c-0.6,1.6-0.9,3.3-1.2,4.9c-0.3,1.7-0.8,3.4-1.3,5.1c-0.8,2.8-2,5.4-3.3,8
				c-0.6,1.3-1.4,2.5-2,3.7l-0.1-0.2c-0.7,1-1.4,2-1.9,3.1c-0.4,1-1.2,1.7-1.7,2.6c-1.1,2-2.4,3.9-3.4,5.9c-0.7,1.2-1.5,2.4-2.5,3.3
				c-0.8,0.9-2,1.6-3.3,1.8c-1.6,0.5-3.2,0.6-4.8,0.6c-1.7,0.1-3.4,0.1-5,0.1c-1.4-0.1-2.9,0-4.3-0.3c-1.6-0.3-3-0.9-4.4-1.6
				c-1.4-0.7-2.8-1.5-3.9-2.7c-1.4-1.5-2.5-3.2-3.5-5c-1.7-2.9-3.4-5.9-5.1-8.8c-0.8-1.2-1.6-2.3-2.5-3.3c-0.5-0.7-1.2-1.3-1.7-2.1
				c-0.4-0.6-0.9-1.2-1.4-1.8c-0.2-0.2-0.4-0.4-0.6-0.4h-0.1c-0.9-1.5-1.7-3.1-2.3-4.7c-0.3-1-0.7-2-0.8-3l0.1-0.1
				c0.2-0.3,0.2-0.6,0.3-0.9c0.3-2.9,0.6-5.8,1-8.7c0.2-2.1,0.6-4.1,0.4-6.2c-0.1-0.8-0.1-1.6-0.4-2.4c0.1-0.8,0.3-1.6,0.4-2.4
				c0.1-1.9-0.4-3.7-0.7-5.6c-0.1-1.7-0.1-3.4,0.7-4.9c0.7-1.4,1.5-2.9,1.8-4.5c0,0,0.3-0.1,0.4-0.1c0.5-0.9,0.9-1.9,1.3-2.9
				c0.7-1.7,1.5-3.5,1.7-5.4c0.3-1.4,0.3-2.8,0.5-4.1c0.2-1.6,0.4-3.2,1-4.7c0.5-1.7,1.4-3.3,2.4-4.7c0.2-0.3,0.5-0.6,0.6-0.9
				c0-0.1,0.1-0.2,0.2-0.3C71.7,44.5,72.5,43.9,73.3,43.3z"/>
			<path class="st4" d="M68.8,47.3c0.6-0.7,1.2-1.3,1.9-1.9c-0.1,0.4-0.4,0.6-0.6,0.9c-1,1.5-1.8,3-2.4,4.7c-0.5,1.5-0.8,3.1-1,4.7
				c-0.2,1.4-0.2,2.8-0.5,4.1c-0.2,1.9-1,3.6-1.7,5.4c-0.4,1-0.8,2-1.3,2.9c-0.1,0-0.3,0.1-0.4,0.1c0.3-1.1,0.6-2.2,0.8-3.3
				c0.4-1.6,0.7-3.3,0.8-4.9c0-1.3,0.1-2.5,0.2-3.8C65,52.8,66.6,49.8,68.8,47.3z"/>
			<path class="st6" d="M127.5,71.6c1.2-0.5,2.6-0.9,4-0.7c1.4,0.2,2.7,0.8,3.6,2c1.1,1.2,1.6,2.9,1.7,4.5c0,1.7-0.2,3.4-0.6,5.1
				c-0.7,2.6-1.8,5.1-3.4,7.3c-0.8,1.1-1.6,2.1-2.5,3.1c-1.1,1.2-2.5,2.2-3.8,3.2c-0.8,0.6-1.7,1.2-2.5,1.7
				c-1.1,0.7-2.3,0.9-3.6,0.9h-0.2c-0.2-2.2,0.2-4.4,0-6.6c0-1.1-0.1-2.3,0-3.4c0.1-1,0-2.1,0.2-3.1c0.2-1.6,0.2-3.1,0.3-4.6
				c0.1-0.9,0.1-1.8,0.3-2.7c0.1-0.4,0.1-0.8,0.4-1.1c0,0.7-0.2,1.4-0.3,2.1c0.5-1.9,1.3-3.7,2.2-5.4c0.1-0.2,0.2-0.4,0.4-0.6
				C124.9,72.6,126.2,72.1,127.5,71.6z"/>
			<path class="st6" d="M48,77.9c1.2-0.8,2.7-1.1,4.1-0.8c1.7,0.2,3.5,1,4.6,2.4c0.8,1.2,1.4,2.5,2.1,3.8c0.4,1.2,1.1,2.2,1.7,3.3
				c0-0.3,0-0.6,0.1-0.8c0.3,0.8,0.4,1.6,0.4,2.4c0.2,2.1-0.2,4.2-0.4,6.2c-0.4,2.9-0.8,5.8-1,8.7c0,0.3,0,0.7-0.3,0.9
				c-0.8-0.3-1.6-0.3-2.3-0.6c-1.5-0.4-2.9-1.2-4.4-2c-1-0.5-1.8-1.2-2.7-2c-0.9-1-1.8-2-2.5-3.2c-1.4-2.1-2.6-4.5-2.9-7
				c-0.2-2.3-0.1-4.7,0.6-7C45.6,80.5,46.6,78.8,48,77.9z"/>
			<path class="st4" d="M62.4,111.7c0.3,0,0.4,0.2,0.6,0.4c0.5,0.6,1,1.2,1.4,1.8c0.5,0.8,1.2,1.4,1.7,2.1c0.9,1.1,1.7,2.1,2.5,3.3
				c1.7,2.9,3.3,5.9,5.1,8.8c1.1,1.7,2.1,3.5,3.5,5c1.1,1.2,2.5,2,3.9,2.7s2.9,1.2,4.4,1.6c1.4,0.3,2.9,0.2,4.3,0.3
				c1.7,0,3.4,0,5-0.1c1.6,0,3.3-0.1,4.8-0.6c1.2-0.3,2.4-0.9,3.3-1.8c1-1,1.7-2.1,2.5-3.3c1.1-2,2.3-3.9,3.4-5.9
				c0.5-0.9,1.2-1.7,1.7-2.6c0.6-1.1,1.2-2.1,1.9-3.1c0,0,0,0.1,0.1,0.2c-0.2,0.7-0.1,1.5-0.1,2.2c0,1.9,0,3.7,0,5.6
				c0,1.1,0.2,2.3,0.2,3.4c0.1,1.3,0.3,2.7,0.9,3.9c0.1,0.9-0.3,1.9-0.7,2.7c-1.9,3.1-3.4,6.4-5.5,9.3c-0.6,0.9-1.3,1.9-2,2.9
				c-0.8,1.1-1.6,2.2-2.4,3.3c-1,1.2-1.9,2.6-2.9,3.8c-1.4,1.7-2.9,3.3-4.4,5c-1.2,1.5-1.9,3.3-2.5,5c-0.2,0.6-0.4,1.2-0.4,1.8
				c-0.9-2-2-3.9-3.5-5.5c-0.9-1-1.9-2.1-3-2.9c-0.8-0.7-1.6-1.3-2.4-2.1s-1.7-1.4-2.7-2c-1.2-0.7-2.3-1.7-3.5-2.5
				c-1.1-0.8-2.2-1.6-3.2-2.5c-1.1-0.8-1.9-1.9-2.9-2.8c-1.2-1.1-2.1-2.4-3.1-3.5c-1.2-1.4-2-3.2-2.6-5c-0.4-1.4-0.9-2.8-1.1-4.3
				c-0.1-0.5-0.2-1-0.2-1.6c-0.2-1.5-0.8-2.9-0.7-4.5c0.1-1.2,0.3-2.3,0.4-3.4c0-2.5-0.2-4.9-0.5-7.4c-0.2-1.2,0-2.5-0.2-3.7
				c-0.1-0.8,0-1.7-0.3-2.4C63.2,112.7,62.7,112.2,62.4,111.7z"/>
		</g>
		<g>
			<path class="st4" d="M96.6,99.5c0.3-0.3,0.5-0.8,1-0.7c0.3,0,0.4,0.4,0.3,0.6c-0.1,0.4-0.4,0.8-0.6,1.3c-0.5,0.8-1.3,1.5-1.9,2.3
				c-0.4,0.6-0.8,1.1-1.3,1.6s-0.9,1.2-1.5,1.7c-0.7,0.6-1.7,0.8-2.6,0.5c-1.1-0.3-1.7-1.3-2.3-2.2c-0.4-0.7-1.1-1.3-1.5-2.1
				c-0.3-0.5-0.7-1-0.8-1.7c0.1-0.3,0.4-0.4,0.8-0.4c0.3,0.1,0.5,0.2,0.8,0.3c0.2,0,0.4-0.1,0.7,0c0.2,0.1,0.3,0.3,0.5,0.4
				c1.5,0.2,2.9,0.6,4.4,0.7c0.7,0,1.2-0.3,1.9-0.5C95.1,100.7,96,100.3,96.6,99.5z"/>
			<path class="st4" d="M97.5,113.5c0.6-0.2,1.2-0.5,1.8-0.5c0,0.5-0.5,0.8-0.8,1.2c-0.6,0.6-0.9,1.3-1.4,1.9
				c-0.4,0.6-0.8,1.2-1.3,1.7c-0.3,0.4-0.6,0.8-1.1,1c-1.6,0.5-3.3,0.5-4.9,0.7c-0.6,0-1.4,0.3-1.9-0.2c-0.3-0.3-0.7-0.4-0.9-0.7
				c-0.8-1-1.7-2.1-2.6-3c-0.5-0.5-0.9-1.2-1.6-1.7c0,0,0.2-0.1,0.3-0.2c0.9,0.1,1.8,0.4,2.7,0.4c0.5,0,1,0.2,1.5,0.3
				c2.8,0.4,5.7,0.1,8.5-0.3C96.4,114.1,97,113.7,97.5,113.5z"/>
			<g>
				<path class="st7" d="M99.9,62.8c-1.7-0.2-3.5-0.3-5.2-0.4c-1.4,0-2.9-0.1-4.3,0c-2.8,0.1-5.5,0.4-8.2,1.2
					c-0.9,0.3-1.9,0.5-2.7,1c-0.5,0.1-1,0.3-1.4,0.7c0.6,0,1.2-0.1,1.8-0.4c1.5-0.4,2.9-0.9,4.5-1.1c3.6-0.6,7.3-0.4,10.9-0.5
					c1.6,0,3.2,0.1,4.8,0.2c0.9,0,1.7,0.2,2.6,0.1c0-0.1,0-0.3,0-0.3C101.7,63,100.8,62.9,99.9,62.8z"/>
				<path class="st7" d="M94.1,64.1c-1.7,0-3.4,0.1-5,0.3c-1.6,0.1-3.2,0.4-4.7,0.8c-0.4,0.1-0.9,0.3-1.3,0.6c1-0.1,2-0.4,2.9-0.5
					c2.8-0.5,5.7-0.6,8.5-0.6c2.6,0,5.3,0.4,7.9,0.6c0-0.1,0-0.2,0-0.3C99.6,64.6,96.9,64.2,94.1,64.1z"/>
				<path class="st7" d="M96.6,66.3c-2.5-0.3-5.1-0.4-7.7-0.2c-0.4,0-0.8,0.1-1.3,0.2c0,0.1,0,0.2,0.1,0.3c2.7,0.1,5.4-0.1,8.1,0.1
					c0.7,0,1.4,0.1,2.1,0c0-0.1,0-0.2,0-0.3C97.4,66.4,97,66.4,96.6,66.3z"/>
			</g>
			<path class="st7" d="M94,73.4c0-0.1,0.2-0.2,0.3-0.3c0,1.7,0.8,3.3,1.2,5c-0.4-0.3-0.5-0.8-0.7-1.3C94.4,75.7,93.9,74.6,94,73.4z
				"/>
			<path class="st7" d="M88.3,73.5c0.5,0.6,0.5,1.4,0.7,2.1c0.1,1.2,0.1,2.4-0.2,3.5c-0.1,0-0.2,0-0.3,0c0.2-1.1,0.3-2.2,0.2-3.3
				C88.6,75.1,88.3,74.3,88.3,73.5z"/>
			<path class="st8" d="M125,77.3c1-0.8,2.2-1.2,3.4-1.4c1.1-0.1,2.3,0.1,2.9,1c0.8,1,0.7,2.4,0.4,3.5c-0.1,0.1-0.1,0.2-0.2,0.3
				c0-0.7,0.2-1.4,0-2.1c-0.1-0.7-0.5-1.4-1.2-1.7c-1.3-0.5-2.8-0.1-4,0.4c-0.9,0.4-1.6,1.1-2.4,1.5C124,78.2,124.6,77.7,125,77.3z"
				/>
			<path class="st2" d="M116.7,79.1c-1-0.1-1.9-0.6-2.9-0.7c-0.9,0-1.9-0.3-2.8-0.3c-1.3-0.1-2.6-0.5-3.9-0.5s-2.6,0-3.9,0
				c-1,0.1-2.1,0.3-3.1,0.4c-0.6,0-1.2,0-1.8,0.1c-0.7-0.2-1.1-0.7-1.6-1.2s-0.9-1.3-0.6-2.1c0.4,0.4,0.7,0.9,1,1.4
				c-0.4-0.8-0.6-1.6-0.5-2.4c0.1,0,0.2,0,0.3,0c0.3,0.8,0.5,1.7,0.8,2.6c0,0,0.1-0.1,0.1-0.2c-0.5-1.1-0.5-2.3-0.5-3.4
				c0.3-0.8,1.1-1.4,2-1.5s1.8-0.2,2.7-0.1c1.5,0.1,2.9,0.4,4.4,0.8c1.7,0.5,3.4,0.9,4.7,2c1.1,0.4,1.9,1.1,2.8,1.8
				c0.4,0.1,0.7,0.4,1,0.6c0,0.1,0,0.3,0,0.4c-0.4-0.1-0.8-0.3-1.2-0.5c-0.7-0.1-1.4-0.2-2.1-0.2c1.1,0.1,2.1,0.4,3.1,0.9h0.1
				c0.4,0.2,0.8,0.5,1.2,0.9c-0.4,0-0.6-0.1-0.9-0.3c-0.4-0.2-0.9-0.3-1.4-0.4S112.6,77,112,77c0.8,0.2,1.5,0.5,2.2,0.8
				C115.1,78.2,116,78.5,116.7,79.1z M86.9,74.6c0,0.4-0.1,0.7-0.1,1c-0.1-0.6-0.3-1.2-0.6-1.7c-0.4,0.2-0.4,0.6-0.4,0.9
				c-0.7-0.5-1.1-1.3-1.6-2c-0.1,0-0.3,0-0.4,0c0,0.4,0.1,0.9,0,1.3c-0.6-0.3-1.2-0.6-1.8-0.8c-1.2-0.4-2.4-0.4-3.6-0.5
				c-1.1,0-2.2,0.1-3.3,0.6c-1,0.4-2,0.8-2.9,1.3c-1.2,0.7-2.5,1.2-3.6,2c-0.6,0.4-1.2,0.8-1.7,1.4c0.1,0,0.3,0,0.4,0
				c0.5-0.2,1.1-0.5,1.6-0.8c-0.7,0.6-1.3,1.2-1.9,1.8c-0.4,0.4-0.8,0.7-1,1.2c0.4-0.1,0.8-0.4,1.2-0.5c-0.2,0.7-0.9,1.1-1,1.8
				c0.8-0.3,1.6-0.9,2.5-1.3c2.5-1,5.2-1.5,7.9-1.9c1.7-0.1,3.4-0.2,5.1,0c1.6,0.1,3.1,0.2,4.7,0c0.4,0,0.5-0.4,0.6-0.6
				c0.4-1,0.6-2.1,0.3-3.1C87,74.6,86.9,74.6,86.9,74.6z"/>
			<path class="st8" d="M131.6,78.6c0.2,0.7,0,1.4,0,2.1c0.1-0.1,0.1-0.2,0.2-0.3c-0.1,0.8-0.5,1.5-0.8,2.2
				c-0.8,1.7-1.8,3.2-2.9,4.7c-0.6,0.8-1.2,1.7-2.1,2.3c0.4-0.6,0.9-0.9,1.3-1.5c1.1-1.3,2-2.7,2.8-4.2
				C131,82.3,131.6,80.4,131.6,78.6z"/>
			<path class="st9" d="M88.5,27c0.5-0.2,1.1-0.1,1.7-0.1c0.5,0,1,0,1.6,0.1c1.3,0,2.5,0.3,3.8,0.4c2.3,0.3,4.6,0.8,6.8,1.7
				c1.8,0.7,3.5,1.7,5,2.9c1.2,0.9,2.4,1.8,3.5,2.9h0.1c0.9,0.8,1.8,1.6,2.7,2.5c0.4,0.4,0.9,0.6,1,1.2c-0.5-0.3-1-0.8-1.4-1.2
				c-0.9-0.8-1.8-1.6-2.7-2.4c-1.8-1.5-3.7-2.9-5.7-4.1c-2.3-1.2-4.9-2.1-7.4-2.6c-1.4-0.2-2.8-0.4-4.2-0.7c-1-0.2-2.1-0.2-3.1-0.4
				C89.5,27.2,89,27.2,88.5,27z M75.5,31.6c1.1-1.1,2.3-2,3.6-2.9c0.2-0.1,0.4-0.4,0.5-0.6c-0.5,0.2-0.9,0.5-1.3,0.8
				c-1.2,0.8-2.5,1.8-3.5,2.9c-0.8,0.8-1.6,1.6-2.4,2.4c-0.9,0.9-1.7,1.9-2.1,3.2c0.1,0,0.2,0,0.4,0.1c0.2-0.2,0.4-0.5,0.5-0.8
				c1.1-1.8,2.6-3.4,4.1-4.9C75.3,31.8,75.4,31.7,75.5,31.6z M88,29.3c3.7,0,7.4,0.7,10.9,1.9c2.9,0.9,5.7,2.3,8.3,3.9
				c2,1.2,3.9,2.6,5.6,4.2c0.4,0.4,0.8,0.8,1.2,1.2c0.2,0.2,0.4,0.6,0.8,0.5c-0.5-0.8-1.2-1.5-1.9-2.2c-4.7-4.4-10.6-7.6-16.8-9.2
				c-1.5-0.4-3.1-0.6-4.6-0.8c-1.6-0.1-3.2,0-4.8,0c-0.2,0-0.7,0.1-0.4,0.4C86.8,29.4,87.4,29.4,88,29.3z M75.4,35
				c2-1.6,4-3,6.1-4.4c0.5-0.4,1.1-0.6,1.5-1.1c-0.1,0-0.3,0-0.4,0c-2,1.2-3.9,2.5-5.8,3.9c-1.5,1.2-3.1,2.3-4.3,3.8
				c-0.4,0.4-0.8,0.9-0.8,1.6c0.2-0.1,0.3-0.2,0.4-0.4C72.9,37,74.1,36,75.4,35z M81.2,34.1c1.2-0.6,2.5-1.2,3.8-1.5
				c0-0.1,0-0.2,0-0.3c-0.5,0-1,0.1-1.5,0.3c-2.2,0.8-4.3,1.9-6.2,3.1c-1.7,1.1-3.5,2.2-4.9,3.7c-0.2,0.1-0.1,0.3-0.1,0.5
				c0.8-0.5,1.4-1.1,2.1-1.7C76.5,36.7,78.8,35.3,81.2,34.1z M113.8,43.8c-2.1-1.9-4.3-3.6-6.6-5.2c-3.7-2.6-7.9-4.6-12.4-5.7
				c-1.4-0.3-2.8-0.5-4.2-0.6c-0.5,0-1,0-1.6,0.2c0.8,0.1,1.6,0.1,2.5,0.2c3.6,0.5,7,1.6,10.3,3.2c2.4,1.1,4.5,2.5,6.6,4
				c1.8,1.3,3.5,2.6,5.2,4.1c0.3,0.2,0.5,0.5,0.9,0.6C114.4,44.3,114.1,44.1,113.8,43.8z M80.7,37.4c2.2-0.8,4.4-1.4,6.7-1.6
				c0.2,0,0.4-0.1,0.6-0.1c-0.2-0.3-0.6-0.2-0.8-0.2c-2.9,0.2-5.6,1.1-8.3,2.1c-1.3,0.5-2.6,1.1-3.8,1.9c-0.6,0.4-1.2,0.8-1.6,1.4
				c0.4,0.1,0.6-0.2,0.9-0.3C76.2,39.1,78.4,38.2,80.7,37.4z M99.2,39.4c4.4,1.9,8.6,4.3,12.4,7.2c0-0.1,0-0.3,0-0.4
				c-3.4-2.8-7.3-5-11.2-6.9c-2.5-1.2-5-2.1-7.7-2.6c-0.6-0.2-1.2-0.4-1.9-0.1c0.4,0.2,0.8,0.4,1.2,0.4
				C94.5,37.5,96.9,38.3,99.2,39.4z M87.5,39.6c1.2,0.2,2.5,0.5,3.7,0.8c2.5,0.7,4.9,1.4,7.2,2.3c0.2,0,0.4,0.1,0.5,0.1h-0.1
				c0.6,0.3,1.2,0.5,1.8,0.7s1.2,0.5,1.8,0.7c0-0.1,0-0.2,0-0.3c-1-0.4-2-0.9-3-1.2c-3-1.2-6.1-2.2-9.2-3.1
				c-2.7-0.8-5.6-0.9-8.4-0.6c-2,0.2-4,0.6-5.9,1.4c-0.7,0.3-1.5,0.6-2,1.2c0.6,0,1.1-0.3,1.6-0.5c1.5-0.5,3-1,4.6-1.2
				C82.6,39.4,85.1,39.2,87.5,39.6z M119.1,44.1c0.6,1.2,1.2,2.4,1.7,3.6c0,0.2,0.2,0.4,0.4,0.4c-0.5-1.8-1.3-3.5-2.2-5.2
				c-0.5-1-1.1-2-2.1-2.5c0,0-0.2,0.1-0.3,0.1c0.4,0.4,0.8,0.8,1.1,1.2C118.3,42.4,118.7,43.3,119.1,44.1z M58.6,56.3
				c-0.1,1.3-0.3,2.7,0.2,4c0.1-0.1,0.2-0.2,0.2-0.4c-0.2-1.5,0-3.1,0.2-4.6c0.4-2.1,0.8-4.2,1.6-6.2c0.9-2.5,2.3-4.6,4.1-6.5
				c0.5-0.5,1.1-1,1.8-1.4L66.6,41c-1,0.2-1.7,1-2.5,1.7c-2.1,2.1-3.5,4.8-4.3,7.6C59.2,52.3,58.8,54.3,58.6,56.3z M85.2,41.9
				c2.9,0.1,5.8,0.8,8.6,1.6c2.9,0.9,5.8,2,8.5,3.3c1.4,0.7,2.8,1.5,4.1,2.2c0.6,0.5,1.3,0.8,2,1.3c0.4,0.2,0.7,0.5,1.1,0.4
				c-0.8-0.7-1.7-1.2-2.7-1.8c-2-1.2-3.9-2.4-6-3.4c-2.1-0.9-4.2-1.8-6.3-2.5c-3.1-0.9-6.2-1.7-9.5-1.7c-1-0.1-2,0-3,0
				c-1.5,0-2.9,0.2-4.4,0.3c-0.6,0-1.3,0-1.8,0.5c1,0.1,2,0,2.9,0c0.6,0,1.3,0,1.9-0.1C82.2,42,83.7,41.9,85.2,41.9z M67,43.2
				c0.3-0.4,0.8-0.7,1-1.1c-0.2-0.2-0.5,0-0.7,0.1c-1.8,1.6-3.1,3.6-4,5.7c-0.8,1.7-1.2,3.6-1.6,5.4c0,0.3-0.1,0.6-0.1,0.9
				c-0.1,0.2-0.2,0.4-0.2,0.6c-0.2,1.2-0.4,2.5-0.3,3.8c0,0.2,0,0.5,0.2,0.6c0-0.4,0-0.8,0.1-1.3c0-0.9,0.3-1.8,0.3-2.8
				c0.3-1.3,0.5-2.7,0.9-4.1C63.4,48.2,64.9,45.4,67,43.2z M66.2,46.2c-0.9,1.2-1.5,2.5-2,3.9c-0.6,1.6-1.1,3.2-1.5,4.8
				c-0.2,0.8-0.4,1.6-0.4,2.4h-0.1c0,0.5-0.1,1.1,0,1.7c0.1,0,0.2,0,0.3,0c0-0.4,0-0.9,0.1-1.3c0.3-2.2,1-4.3,1.7-6.4
				c0.4-1.2,0.9-2.5,1.7-3.7c1-1.7,2.4-3.2,4-4.4c0.3-0.3,0.7-0.4,0.7-0.9c-0.3,0-0.5,0.1-0.8,0.2C68.4,43.5,67.2,44.8,66.2,46.2z
				 M115.7,44c0.6,0.7,1.1,1.4,1.7,2.1c0.8,1.2,1.7,2.4,2.5,3.7c0,0,0.2,0,0.2-0.1c-0.8-1.4-1.7-2.7-2.5-4.1
				c-0.6-0.9-1.2-1.9-2.2-2.5c-0.2-0.1-0.4-0.1-0.6-0.1C115.1,43.5,115.4,43.7,115.7,44z M108.5,53.8c-1.7-1.4-3.5-2.7-5.4-3.9
				c-4.5-2.9-9.5-5-14.7-6.2c-0.4-0.1-0.8-0.2-1.2-0.2c-0.4-0.2-0.8-0.2-1.2-0.3c-0.8-0.1-1.7-0.4-2.5-0.3l0.1,0.2
				c1.1,0.3,2.2,0.6,3.3,0.7c1.9,0.4,3.7,1,5.6,1.7c2.5,0.8,4.9,2,7.2,3.2c4.1,2.3,7.9,5.2,11.4,8.3c1.8,1.6,3.6,3.3,5.1,5.1
				c0.2,0.2,0.4,0.4,0.6,0.4c-0.1-0.4-0.5-0.8-0.8-1.1C113.9,58.5,111.2,56.1,108.5,53.8z M118.2,56c0.2,0.2,0.4,0.3,0.6,0.4
				c-0.1-0.2-0.2-0.3-0.3-0.4c-1.7-1.7-3.4-3.4-5.2-5.1c-1.7-1.6-3.4-3.2-5.3-4.4c-0.6-0.4-1.2-0.8-1.9-0.8c0.4,0.4,1.1,0.7,1.6,1.1
				C111.4,49.6,114.8,52.8,118.2,56z M112.8,45.7l-0.2,0.1c0.4,0.4,0.9,0.8,1.3,1.3c1,1,1.8,2.2,2.6,3.3c0.5,0.7,1.1,1.4,1.5,2.2
				c0.1,0.2,0.2,0.3,0.4,0.4c0-0.3-0.1-0.6-0.3-0.8c-0.6-1-1.2-2-2-3c-0.6-0.9-1.2-1.8-2-2.5C113.8,46.3,113.4,45.9,112.8,45.7z
				 M119.2,52.4c0,0.7,0.5,1.2,0.8,1.9c0.9,2,1.9,4,2.5,6.1c0,0.2,0.2,0.3,0.3,0.4c-0.1-1.1-0.5-2.1-0.9-3c-0.6-1.7-1.2-3.3-2.1-4.8
				C119.6,52.7,119.4,52.5,119.2,52.4z M121.3,67.6c0,0,0.2,0,0.3,0c-0.2-1-0.5-2.1-0.9-3c-1.6-3.7-3.8-7.2-6.8-9.9
				c-0.3-0.2-0.7-0.6-1.1-0.5c2.3,2.4,4.4,4.9,6,7.7C119.8,63.8,120.8,65.6,121.3,67.6z M57.6,58.9c0,0,0.1,0,0.2-0.1
				c0-0.3,0-0.6-0.1-0.9c-0.1-0.8,0-1.7,0-2.6c0.1-0.5,0.1-1.1,0.2-1.6c0.4-3,1.2-6,2.8-8.7c0.5-0.8,0.9-1.5,1.6-2.1
				c0.1-0.1,0.2-0.2,0.2-0.4c-0.7-0.1-1.1,0.6-1.4,1c-2.2,2.6-2.9,6.1-3.4,9.4c-0.1,0.6-0.2,1.2-0.2,1.7c-0.2,0.4-0.1,0.9-0.1,1.4
				C57.4,57.1,57.3,58,57.6,58.9z M52,59.7c0.1-1,0.4-2,0.5-3c0,0-0.2,0-0.3,0.1c-0.6,2.1-0.8,4.3-0.7,6.5c0,0.8,0,1.6,0.1,2.4
				c0,0.3,0,0.6,0.3,0.8c0-0.6-0.2-1.3-0.2-1.9C51.7,63,51.8,61.4,52,59.7z M122.4,65.3c0-0.6-0.2-1.2-0.4-1.7
				c-0.4-1.3-1-2.5-1.7-3.8c-0.4-0.8-0.8-1.6-1.4-2.2c-0.1-0.1-0.3-0.1-0.4-0.2c0.1,0.4,0.4,0.7,0.6,1c0.6,0.9,1.1,1.8,1.6,2.8
				c0.5,1.1,1.1,2.1,1.4,3.3C122.1,64.8,122.2,65.1,122.4,65.3z M53.8,69.7c0,0,0.2,0,0.3,0.1c-0.5-2.2-0.5-4.5-0.5-6.7
				c0-0.9,0.2-1.8,0.3-2.8c-0.1,0-0.2,0-0.3,0.1c-0.5,1.9-0.4,3.9-0.3,5.9C53.3,67.4,53.4,68.5,53.8,69.7z M61.1,61.8
				c0,0.5,0,0.9,0,1.4c-0.1,1.4-0.4,2.8-0.7,4.1c-0.3,1.2-0.5,2.4-1.1,3.4c0.1,0,0.2,0,0.3,0c0.6-1,0.9-2.1,1.2-3.2
				c0.4-1.3,0.8-2.7,0.9-4.1c0-0.7,0.1-1.4-0.2-2.1C61.3,61.6,61.2,61.7,61.1,61.8z M117.6,63.5c0,0.3,0,0.6,0.1,0.8
				c0.6,1.4,1.3,2.8,2.2,4c0.5,0.7,1,1.4,1.7,1.9c-1.7-1.9-2.8-4.2-3.8-6.5C117.8,63.7,117.7,63.6,117.6,63.5z M56,65.9
				c0.2-0.8,0.2-1.6,0.4-2.4c0.1-1.3,0.3-2.6,0-3.8c-0.1,0-0.3,0-0.4,0c-0.1,1.5,0,3-0.1,4.5c-0.2,0.8-0.2,1.7-0.2,2.5
				c0.1,0,0.2,0,0.3-0.1C55.9,66.4,56,66.1,56,65.9z M123.8,68.5c-0.1-1.1-0.3-2.2-0.7-3.3c-0.1,0-0.3,0-0.3,0
				c0.1,0.7,0.4,1.4,0.5,2.1c0.2,1.3,0.4,2.6,0.4,3.9h0.1C123.9,70.3,123.9,69.4,123.8,68.5z M122.1,68c0,0-0.1,0.1-0.2,0.2
				c0.2,1,0.6,1.9,0.8,2.8c0.1,0.3,0.1,0.7,0.4,0.9c0.1-0.9-0.2-1.7-0.4-2.6C122.4,68.8,122.3,68.3,122.1,68z M52.6,69.3
				c0,0-0.2,0-0.3-0.1c0,1,0.5,1.9,0.8,2.8c0.4,1,0.8,2,1.5,2.9c0-0.1,0-0.2,0-0.3C53.8,73,53,71.2,52.6,69.3z M58,70.4
				c0.4-1.6,1-3.1,1.4-4.7c0.2-0.8,0.4-1.6,0.3-2.4c-0.1,0-0.3,0-0.4,0c-0.2,0.9-0.3,1.8-0.5,2.7c-0.3,1.4-0.8,2.8-1,4.2v-0.1
				c-0.2,0.5-0.3,1-0.4,1.5c0.1,0,0.2,0,0.3,0C57.9,71.2,58,70.8,58,70.4z M55.9,71.5c0.3-0.4,0.4-0.8,0.4-1.2
				c0.2-0.4,0.2-0.8,0.3-1.2c0.6-2.2,1.4-4.4,1.3-6.6c0-0.2-0.1-0.3-0.2-0.4c-0.1,0.2-0.2,0.4-0.2,0.7c-0.1,1.1-0.3,2.2-0.5,3.3
				c-0.3,1.4-0.8,2.8-0.9,4.2C55.9,70.6,55.7,71.1,55.9,71.5z M55.5,72.6c0,0.6,0.1,1.2,0.3,1.9c0.3,1,0.7,2,1.1,3
				c0.1,0,0.2,0,0.3,0c-0.5-1.7-1.2-3.5-1.3-5.4C55.7,72.2,55.5,72.4,55.5,72.6z M58.9,78.2c0-0.5-0.3-1-0.4-1.5
				c-0.3-1.2-0.4-2.5-0.4-3.7c-0.1,0-0.3,0-0.4,0c-0.1,0.4-0.1,0.9-0.1,1.3c0.1,1.3,0.5,2.6,1.1,3.8C58.7,78.1,58.8,78.2,58.9,78.2z
				 M58.1,79.1c0,0.5,0.4,0.9,0.6,1.4c0.4,0.7,0.7,1.5,1,2.3c0,0,0.1-0.1,0.2-0.1c-0.2-0.9-0.5-1.8-0.9-2.6
				C58.8,79.7,58.7,79.1,58.1,79.1z"/>
			<path class="st10" d="M86,79.8h0.2c0.6,1.2,1.2,2.6,1.3,4c0.3,1.7,0.3,3.3,0.1,5c-0.1,1.6-0.5,3.2-0.9,4.7
				c-0.4,1.4-0.7,2.9-1.6,4c-0.1,0-0.3,0-0.4,0c0.1-0.5,0.4-1,0.5-1.5c-0.6,0.4-1.1,1-1.3,1.7c-0.2,0.6,0.3,1.1,0.8,1.4
				c0.6,0.4,1.3,0.5,2,0.7c1.3,0.4,2.7,0.6,4.1,0.9c0.9,0.2,1.9,0.4,2.9,0.2c0.8-0.3,1.4-0.8,2.1-1.2c1-0.6,2.1-1.3,2.5-2.5
				c0.2-0.6-0.2-1.2-0.1-1.8c0.3,0,0.6-0.1,0.8,0.1c0.4,0.5,0.6,1.2,0.3,1.9c-0.4,1.1-1.4,1.8-2.3,2.5c-0.8,0.5-1.7,1-2.6,1.4
				c-0.6,0.3-1.3,0.2-2.1,0.2c-1,0-2-0.3-2.9-0.4c-1.4-0.2-2.9-0.5-4.2-1c-0.8-0.3-1.4-0.8-1.7-1.6c-0.3-0.9,0.3-1.9,0.9-2.5
				c0.4-0.5,1-0.8,1.6-1c0.7-2.7,1.4-5.5,1.4-8.4c0.1-1.4-0.1-2.9-0.4-4.2C86.5,81.6,85.9,80.7,86,79.8z"/>
			<path class="st7" d="M111.7,80.5c0.9-0.3,1.9-0.7,2.9-0.7c0,0.1,0,0.3,0,0.4c-1.3,0.4-2.7,0.9-4,1.6c-0.7,0.3-1.2,0.8-1.9,1
				c0-0.2,0-0.5,0.2-0.7C109.6,81.3,110.7,80.9,111.7,80.5z"/>
			<path class="st11" d="M76.4,80.2c0.4-0.1,0.8,0,1,0.4c0.3,0.5,0.1,1.1,0,1.7c-0.1,0.5-0.2,1.1-0.8,1.3c-0.5,0.3-1.1-0.1-1.2-0.6
				c-0.2-0.6-0.1-1.3,0.1-1.9C75.8,80.6,76,80.3,76.4,80.2z"/>
			<path class="st7" d="M71.3,80.8c0.1,0,0.2-0.2,0.3-0.2c0.9,0.1,1.8,0.5,2.5,1.1c0.2,0.1,0.2,0.3,0.2,0.5
				c-0.6-0.1-1.1-0.4-1.7-0.6C72.2,81.3,71.6,81.3,71.3,80.8z"/>
			<path class="st11" d="M106,80.9c0.5-0.1,1,0.2,1.2,0.6c0.2,0.6,0.1,1.3,0,1.9c-0.1,0.5-0.4,1.1-0.9,1.4c-0.4,0.1-0.9,0-1.2-0.3
				c-0.4-0.6-0.4-1.3-0.3-2C105,81.9,105.3,81.1,106,80.9z"/>
			<path class="st7" d="M68.8,81.2c0.8-0.2,1.7,0.1,2.4,0.4c1,0.4,2,1,2.8,1.6c0,0.1,0,0.3,0,0.4c-0.7-0.2-1.2-0.6-1.9-0.8
				c-1.1-0.5-2.2-0.8-3.3-1.1C68.8,81.4,68.8,81.2,68.8,81.2z"/>
			<path class="st7" d="M112.8,81.6c0.5-0.3,1-0.5,1.6-0.6c0,0.1,0,0.3,0,0.4c-1.6,1.1-3.2,2.1-4.8,3.1c-0.7,0.4-1.3,0.9-2.1,0.9
				c0-0.4,0.3-0.7,0.6-1C109.5,83.3,111.1,82.4,112.8,81.6z"/>
			<path class="st8" d="M50.5,83.4c1-0.4,2.2-0.4,3.1,0.4c1,0.8,1.4,2.1,1.7,3.3c0.2,0.8,0.4,1.7,0.4,2.6c0,0.4,0,0.7,0,1
				c0-0.3-0.1-0.5-0.2-0.8C55.1,88.2,55,86.5,54,85c-0.4-0.7-1.1-1.2-1.9-1.3c-0.7,0-1.6,0.1-2,0.7c-0.4,0.5-0.4,1.1-0.6,1.7
				c0,0.1-0.1,0.3-0.2,0.4c0-0.5-0.1-0.9,0-1.4C49.3,84.4,49.8,83.7,50.5,83.4z"/>
			<path class="st7" d="M71.6,83.8c0.6,0.1,1.1,0.4,1.7,0.6c0.8,0.3,1.7,0.5,2.5,0.6c1.5,0.2,3,0,4.5-0.2c0.7-0.1,1.4-0.4,2.1-0.4
				c-0.1,0.4-0.5,0.4-0.8,0.5c-1.2,0.4-2.5,0.6-3.8,0.8c-1,0.1-2.1,0-3.1-0.3c-0.9-0.3-1.8-0.5-2.6-1C71.7,84.2,71.6,84,71.6,83.8z"
				/>
			<path class="st8" d="M49.2,87c-0.1-0.6-0.1-1.2,0-1.8c0,0.5,0,0.9,0,1.4c0-0.1,0.1-0.3,0.2-0.4c0,0.3,0,0.6,0,1
				C49.4,87.1,49.3,87,49.2,87z"/>
			<path class="st7" d="M101.7,85.4c0.6,0,1.2,0.5,1.7,0.6c1.8,0.5,3.6,0.4,5.4,0.3c1,0,2-0.2,2.9-0.4c0,0.1,0,0.2,0,0.3
				c-1.1,0.5-2.3,0.5-3.5,0.7c-1.9,0.2-3.9,0.3-5.7-0.6C102.2,86,101.8,85.8,101.7,85.4z"/>
			<path class="st7" d="M79.4,86.1c0.7-0.1,1.2-0.4,1.9-0.5c-0.2,0.4-0.6,0.4-0.9,0.6c-1.3,0.4-2.8,0.7-4.1,0.8
				c-1.2,0.1-2.4-0.3-3.3-0.8c0-0.1,0-0.2,0-0.3c0.7,0.2,1.4,0.6,2.1,0.7C76.5,86.6,77.9,86.4,79.4,86.1z"/>
			<path class="st7" d="M101.4,86.8c0.7,0.2,1.4,0.5,2.1,0.7c2,0.4,4.1,0.3,6.1,0.1c0.5,0,1-0.2,1.6-0.2c-0.3,0.4-0.8,0.4-1.2,0.5
				c-1.4,0.2-2.9,0.3-4.4,0.3C104.1,88.2,102.5,87.9,101.4,86.8z"/>
			<path class="st12" d="M70.8,87.2c0.8,0,1.5,0.4,2.2,0.5c1.8,0.5,3.7,0.8,5.6,0.6c0.2,0,0.4,0,0.6,0.1c0.1,0.3-0.3,0.3-0.5,0.3
				c-1.7,0.2-3.4,0.1-5.1-0.2c-1-0.2-2-0.5-2.8-1.1C70.8,87.5,70.8,87.3,70.8,87.2z"/>
			<path class="st12" d="M91,88.7c0.1-0.4,0.1-0.9,0.6-1.1c0,2-0.2,3.9-0.3,5.8c-0.1,1.2,0,2.4,0,3.5c-0.1,0-0.2,0-0.3,0
				c-0.3-1.4-0.2-2.9-0.2-4.3C90.8,91.3,90.8,90,91,88.7z"/>
			<path class="st8" d="M55.7,89.6c0,0.1,0.1,0.3,0.1,0.4c0.2,1.4,0.2,2.8,0.1,4.1c0,0.3,0,0.6-0.3,0.7c0-0.8,0-1.7,0-2.5
				s-0.2-1.6-0.1-2.5c0,0.3,0.1,0.5,0.2,0.8C55.7,90.3,55.7,89.9,55.7,89.6z"/>
			<path class="st8" d="M122.5,91.7c1.2-0.9,2.5-1.6,4-2c0,0.1,0.1,0.2,0.1,0.3c-1.1,0.5-2.1,1-3.1,1.7c-0.7,0.4-1.4,0.9-1.8,1.7
				c-0.1,0-0.2,0-0.3,0C121.3,92.7,121.9,92.1,122.5,91.7z"/>
			<path class="st8" d="M127,90.5c0.2-0.1,0.4-0.2,0.5-0.2c-0.3,0.8-1.2,1.1-1.9,1.5c-0.9,0.4-1.8,1-2.5,1.7c-0.4,0.4-0.5,0.9-1,1.2
				c0.2-1.2,1.2-2,2.1-2.6C125,91.3,126,91,127,90.5z"/>
			<path class="st8" d="M50.3,92.5c0.5,0.3,0.7,1,1.1,1.5c1.2,1.7,2.5,3.1,4.1,4.4c0.4,0.3,0.7,0.6,0.9,0.9
				c-0.5-0.2-0.9-0.5-1.3-0.8c-1.3-1.1-2.6-2.2-3.6-3.6C51,94.1,50.5,93.3,50.3,92.5z"/>
			<path class="st8" d="M52.5,97.1c0.2,0.1,0.4,0.3,0.5,0.5c0.4,0.5,0.9,0.9,1.5,1.3c0.7,0.5,1.4,0.9,2.1,1.3
				c0.3,0.1,0.7,0.3,0.9,0.6c-0.6,0-1.2-0.3-1.8-0.6c-1.1-0.6-2.1-1.3-2.9-2.3C52.6,97.6,52.5,97.4,52.5,97.1z"/>
			<path class="st7" d="M93.5,102.4c0.3,0.2,0.2,0.5,0.3,0.8c0.1,1.3-0.1,2.5-0.4,3.8c-0.1,0-0.3,0.1-0.4,0.2
				C93.4,105.6,93.2,104,93.5,102.4z"/>
			<path class="st7" d="M91.8,102.7c0.1,0,0.2,0,0.3,0c0.3,1.7-0.4,3.3-0.7,5c0.2,0,0.4,0,0.6,0c-0.2,0-0.4,0-0.5,0.1
				c-0.2-0.2-0.3-0.4-0.5-0.6c0.1-0.1,0.3-0.3,0.3-0.5C91.5,105.4,91.7,104,91.8,102.7z"/>
			<path class="st4" d="M99.1,106.8c1.2,0,2.5-0.6,3.7-0.3c0,0.3-0.1,0.5-0.2,0.8c-1.3,0.5-2.8,0.6-4.1,0.9
				c-1.8,0.5-3.7,0.8-5.6,0.9c-3.1,0.1-6.2-0.1-9.3-0.3c-1.7-0.1-3.3-0.4-5-0.4c-0.5,0-1,0-1.5,0.2c-0.1,0.1-0.1,0.3-0.2,0.4
				c-0.2,0-0.3,0-0.5,0c0-0.3,0-0.5,0-0.8c0.3-0.3,0.8-0.5,1.2-0.5c0.5,0,1-0.2,1.5-0.2c1.2-0.2,2.5-0.1,3.7-0.1
				c1.3,0.1,2.6,0,3.9-0.2c1.2-0.2,2.4-0.4,3.5-0.3c0.3,0,0.6,0.1,0.8,0.4c0.2,0.2,0.3,0.4,0.5,0.6c0.2,0,0.4,0,0.5-0.1
				c0.4-0.1,0.6-0.4,0.9-0.6c0.1-0.1,0.3-0.1,0.4-0.2C95.2,106.9,97.2,106.7,99.1,106.8z"/>
			<path class="st4" d="M78.9,110.7c0.8,0.4,1.4,0.8,2.1,1.4C80.1,111.9,79.4,111.4,78.9,110.7z"/>
			<path class="st4" d="M91.3,114.3c1-0.3,2.1-0.4,3.1-0.6c-0.1,0.1-0.2,0.2-0.3,0.2C93.1,114.1,92.2,114.3,91.3,114.3z"/>
			<path class="st7" d="M118.1,82.4c0,3,0.4,6,0.4,9c0,1.1,0,2.3-0.1,3.4c0,0.6,0,1.2-0.1,1.7c0.1,1-0.1,2-0.2,3
				c-0.2,1.7-0.4,3.5-0.8,5.2c0,0.2-0.1,0.3-0.3,0.4c0-0.5,0.1-1,0.2-1.6c0.3-2,0.4-4.1,0.6-6.1c0-0.5,0-1,0.1-1.4
				c0.2-4.3-0.4-8.7-0.2-13C117.8,82.8,117.9,82.5,118.1,82.4z M62,99.5c0-2.6,0.4-5.3,0.8-7.9c0.2-1.2,0.2-2.4,0.2-3.5
				c0-0.2,0-0.4,0-0.5c-0.2,0.2-0.3,0.4-0.3,0.7c-0.2,1.1-0.2,2.3-0.4,3.4c-0.2,1.7-0.4,3.3-0.6,5c-0.1,1.7-0.2,3.4-0.1,5.1
				c0.1,2.9,0.8,5.7,1.6,8.4c0.3,0.8,0.6,1.6,1,2.3c0.1,0,0.2,0,0.3,0c-0.4-0.9-0.8-1.7-1.1-2.7C62.5,106.5,61.9,103,62,99.5z
				 M120.2,93.5c0-0.9,0-1.9,0-2.9c-0.1-2.3-0.2-4.6-0.3-7c0-1.6-0.2-3.1-0.1-4.7c0.1-0.4,0.2-0.9,0.2-1.4c-0.3,0-0.4,0.4-0.4,0.6
				c-0.3,1.2-0.2,2.4-0.3,3.5c0,2.9,0.1,5.9,0.4,8.9c0.1,0.6,0,1.2,0.2,1.8c0,1.6,0.1,3.1-0.1,4.6c0,0.7-0.2,1.3-0.2,2
				c0.1-0.1,0.2-0.2,0.2-0.4c0.2-1,0.3-2,0.4-2.9C120.3,95,120.4,94.3,120.2,93.5z M78.8,97.6c-0.6,0.7-1.3,1.3-2.1,1.9
				c-1.5,1.2-3,2.3-4.3,3.7c-1.3,1.5-2.3,3.3-2.5,5.3c-0.1,1.2,0,2.5,0.5,3.7c0.5,1.3,1.2,2.6,2.1,3.7c0.1,0,0.3,0,0.3,0
				c-0.3-0.7-0.7-1.2-1-1.9c-0.8-1.8-1.5-3.7-1.2-5.8c0.3-2.1,1.7-4,3.2-5.4c1.2-1.1,2.4-2.1,3.7-3.2c0.7-0.6,1.5-1.2,2-2h0.1
				c0.2-0.3,0.4-0.6,0.3-0.9C79.4,96.9,79.1,97.2,78.8,97.6z M108.6,104.8c-0.4-1.5-0.9-2.9-1.8-4.2c0-0.1-0.1-0.3-0.1-0.4
				c-0.3-0.5-0.6-1-0.9-1.5c-0.2-0.4-0.5-0.8-0.9-0.9c0.1,0.4,0.3,0.7,0.5,1c0.5,0.7,0.8,1.6,1.2,2.4v-0.1c0.7,1.7,1.3,3.3,1.5,5.1
				c0.3,1.9,0.1,3.9-0.2,5.8c-0.3,1.7-0.6,3.4-1.1,5c0.1,0,0.2,0,0.3,0c0.7-1.3,1-2.9,1.4-4.3C109.1,110.1,109.3,107.4,108.6,104.8z
				 M69.5,104.5c0.5-1.1,1.3-2.1,2.1-2.9c0.2-0.2,0.3-0.4,0.4-0.6c-0.3,0-0.6,0.1-0.8,0.3c-1.1,1-2,2.2-2.5,3.6
				c-0.5,1.5-0.6,3.1-0.6,4.7c0,0.8,0,1.7,0.2,2.4c0.1-0.2,0.3-0.4,0.2-0.6c-0.1-0.8-0.1-1.6,0-2.4
				C68.7,107.5,68.8,105.9,69.5,104.5z M109.4,103c0.5,1.5,0.8,3.1,0.8,4.7c0,2.2-0.6,4.4-1.5,6.4c0.4-0.2,0.5-0.7,0.7-1.1
				c0.3-0.8,0.5-1.6,0.8-2.4c0.4-1.6,0.6-3.3,0.2-5C110.2,104.8,110,103.8,109.4,103z M60.8,105.8c-0.2-1.8-0.4-3.5-0.4-5.3
				c0-2.1,0.1-4.3,0.4-6.5c0.1-1.4,0.4-2.8,0.4-4.2c0-0.8,0-1.7-0.2-2.6c0-0.4,0-0.8-0.4-1c0,0.6,0.2,1.2,0.2,1.9c0,0.6,0,1.2,0,1.8
				c-0.3,2.2-0.7,4.3-0.8,6.6c-0.2,2.3,0,4.6,0.2,7c0.1,0.8,0.1,1.7,0.4,2.5c0,1,0.4,2,0.8,2.9c0.1,0,0.2,0,0.3-0.1
				c-0.2-0.6-0.4-1.1-0.5-1.7C61,106.7,60.9,106.2,60.8,105.8z M88.9,120.8c2.3-0.3,4.7-0.5,7-0.6c0-0.1,0-0.2,0-0.3
				c-2.5,0-5.1,0-7.6,0.4c-0.5,0.1-1,0.1-1.4,0.5C87.6,121,88.2,120.8,88.9,120.8z M97.4,121.4c-3.7,0.1-7.3,0.1-10.9,0.8
				c-0.1,0-0.2,0.1-0.3,0.2c0.8,0,1.7-0.1,2.5-0.2c2-0.1,3.9-0.4,5.8-0.4c1.2,0,2.4,0,3.6-0.2C98,121.4,97.7,121.4,97.4,121.4z"/>
			<g>
				<path class="st7" d="M111.8,121.2c-0.4,0.4-0.7,0.9-0.9,1.4c-0.7,1.3-1.7,2.5-2.4,3.9c-1.2,1.8-2.4,3.7-3.6,5.4
					c-0.8,1.3-1.7,2.6-3,3.5c-1.1,0.8-2.5,0.8-3.8,1.3c-1.5,0.5-3,0.6-4.6,0.8c-1.5-0.1-3,0-4.6-0.1c-1.7-0.1-3.3-0.3-5-0.5
					c-0.8-0.1-1.5-0.4-2.2-0.7c-0.6-0.2-1.2-0.4-1.7-0.8c-0.2-0.1-0.4-0.3-0.6-0.4c-0.6-0.8-1.5-1.2-2.1-2.1c-1.2-1.5-2.4-3-3.3-4.6
					c-0.8-1.3-1.6-2.6-2.2-3.9c-1-1.9-2.1-3.7-3.2-5.5c-0.6-1-1.4-1.9-2.1-2.8c-0.6-0.8-1.3-1.4-2-2.1c-0.3-0.3-0.5-0.5-0.8-0.6
					c0.6,1,1.3,1.9,2,2.8c0.8,1.1,1.8,2.1,2.5,3.3c0.4,0.7,0.8,1.3,1.2,2c0.7,1.2,1.5,2.5,2.1,3.7c0.9,1.7,1.9,3.4,3,5
					c0.8,1.1,1.6,2.1,2.4,3.1c0.6,0.7,1.4,1.3,2.2,1.8c0.9,0.7,1.9,1.3,3,1.7c1.3,0.6,2.9,0.7,4.3,0.8c1.5,0.1,3,0.3,4.6,0.3
					c1,0,2,0.1,2.9,0c0.2,0,0.5,0,0.7,0c1.6-0.1,3.2-0.2,4.7-0.8c0.5-0.2,1.1-0.6,1.7-0.6c0.9-0.1,1.6-0.6,2.3-1.2
					c1-0.8,1.8-2,2.5-3.1c0.7-0.9,1.3-1.9,1.8-2.9c0.5-0.9,1.1-1.8,1.5-2.8h0.1c0.8-1.3,1.6-2.5,2.2-3.8c0.3-0.5,0.7-1,0.8-1.7
					C112.1,121.2,111.9,121.2,111.8,121.2z"/>
				<path class="st7" d="M76.6,128.8c0.9,1.2,1.8,2.5,3,3.5c0.4,0.3,0.8,0.5,1.2,0.7c-0.4-0.4-1-0.7-1.4-1.1c-1-1.1-1.8-2.2-2.6-3.4
					c-1.1-1.7-2.5-3.3-3.6-5c-0.3-0.4-0.5-0.8-0.8-1.1c0.1,0.8,0.6,1.5,1.1,2.2C74.4,126,75.5,127.4,76.6,128.8z"/>
				<path class="st7" d="M80.3,130.6c0.4,0.5,0.9,1,1.5,1.4c0-0.1,0-0.4-0.1-0.4c-0.4-0.4-0.8-0.8-1.2-1.2c-1.9-2.2-3.6-4.6-5.2-7.1
					l-0.2,0.1c0.2,0.9,0.8,1.7,1.3,2.4C77.7,127.5,79,129.1,80.3,130.6z"/>
			</g>
			<g>
				<path class="st7" d="M69.8,133.1c-0.6-2.5-0.7-5.1-1.8-7.4c-0.3-0.5-0.4-1-0.8-1.5c0,0.5,0,1,0.2,1.4c0.5,1.2,0.8,2.5,1.1,3.7
					c0.7,3.5,1.6,7,3,10.2c0.2,0.4,0.3,0.9,0.6,1.2h0.2c-0.1-0.5-0.4-0.9-0.6-1.4C70.8,137.5,70.3,135.3,69.8,133.1z"/>
				<path class="st7" d="M74.1,138.3c-0.5-1.7-1-3.3-1.6-4.9c-0.7-1.9-1.3-3.8-2.2-5.7c-0.2-0.4-0.2-0.8-0.7-1
					c0,0.6,0.3,1.1,0.5,1.7c1.6,3.7,2.9,7.4,4.1,11.2c0,0.8,0.3,1.5,0.4,2.2c0.1,0,0.2,0,0.3-0.1c-0.2-0.9-0.3-1.9-0.6-2.7
					C74.3,138.8,74.2,138.5,74.1,138.3z"/>
				<path class="st7" d="M105.1,144.5c-0.1-1.3,0-2.7,0.4-4c0.4-1.5,0.8-3,1.3-4.5c0.8-2.4,2-4.6,2.5-7.1c-0.1,0-0.3,0-0.4,0
					c-0.5,1.2-0.9,2.5-1.5,3.7c-1.2,2.8-2.1,5.7-2.6,8.7c-0.1,1-0.3,2.1,0,3.1C104.9,144.5,105.1,144.5,105.1,144.5z"/>
				<path class="st7" d="M108.1,135.3c-0.6,2-0.8,4.1-1.3,6.1c-0.6,2.3-1.5,4.6-2.8,6.6c0.5-0.3,0.7-0.8,1-1.2
					c0.9-1.7,1.7-3.5,2.2-5.4c0.5-1.7,0.8-3.5,1.1-5.3c0.1-0.6,0.3-1.2,0.3-1.7C108.3,134.6,108.2,135,108.1,135.3z"/>
				<path class="st7" d="M98.7,149.3c-0.4,1.3-0.9,2.6-1.4,3.9c-0.5,0.7-0.7,1.5-1,2.3c-0.4,0.9-0.9,1.8-1.2,2.8
					c0.5-0.4,0.7-1,1-1.5c0.5-1.2,1.2-2.3,1.5-3.5c0.7-1.6,1.3-3.2,1.8-4.8c0.8-2.4,1.1-4.8,1.2-7.3c0-0.8,0.4-1.4,0.5-2.1
					c-0.6,0.6-0.9,1.5-0.9,2.3C99.9,144.1,99.5,146.7,98.7,149.3z"/>
				<path class="st7" d="M90.6,151.2c-1-1.8-1.7-3.8-1.8-5.9c0-0.7,0.2-1.4,0-2.1c-0.1,0-0.2,0-0.3,0c-0.5,0.9-0.5,2.1-0.4,3.1
					c0.1,1.3,0.6,2.6,1.2,3.7c0.5,1,1.2,2,2,2.8c0.3,0.3,0.6,0.6,1.1,0.6c0-0.1,0-0.2,0-0.3C91.6,152.6,91,152,90.6,151.2z"/>
				<path class="st7" d="M81.8,148.1c-0.4-0.8-0.8-1.7-1-2.5c0-0.1-0.1-0.3-0.2-0.4c0,0.6,0,1.2,0.2,1.7c0.6,1.4,1.2,2.9,2,4.2
					c1.2,1.9,2.5,3.7,3.7,5.6c0.2,0.4,0.4,0.8,0.8,1.1c0-0.3-0.2-0.6-0.3-0.9C85.3,153.8,83.2,151.2,81.8,148.1z"/>
				<path class="st7" d="M86.6,152c-0.4-0.9-1.1-1.8-1.5-2.7c0-0.1-0.2-0.2-0.3-0.4c-0.1,0.8,0.4,1.4,0.7,2.1c1.2,2.3,2.2,4.6,3.3,7
					c0.2,0.4,0.3,0.8,0.6,1.1c-0.1-0.7-0.4-1.3-0.7-2C88.1,155.4,87.4,153.7,86.6,152z"/>
			</g>
			<path class="st13" d="M77.5,160.3c0.6-0.4,1.3-0.3,1.9,0c0.8,0.4,1.5,1,2.2,1.6c0.8,0.7,1.5,1.5,1.9,2.5c0.2,0.5,0.4,1,0.8,1.3
				c1,0.5,2.3,0.2,3.3,0.7c0.3,0.1,0.6,0.3,0.9,0.4c0.5,0,0.9,0.3,1.4,0.5c1,0.4,1.9,1.1,2.5,2.1c0.1-0.1,0.2-0.2,0.3-0.4
				c0.1,0,0.3,0.1,0.4,0.1c-0.6,1.7-1.3,3.3-2,5c0.3-0.4,0.5-0.7,0.9-1c-0.1,0.2-0.2,0.5-0.3,0.7c0.3-0.2,0.7-0.4,1-0.6
				c-0.5,0.6-1.2,1.1-1.8,1.6c-0.2,0.1-0.3,0.3-0.4,0.5c-0.4,1.1-0.7,2.3-0.9,3.5c-0.2,1.4-0.1,2.8,0,4.2c0,0.7,0.2,1.4,0.2,2.1
				c-0.2,0-0.3,0-0.5-0.1c-0.2-0.3-0.2-0.6-0.3-0.8c-0.2-1.8-0.4-3.6-0.2-5.4c0.2-1.5,0.6-2.9,1.2-4.2c0.8-1.6,1.4-3.2,2.2-4.8
				c-0.7-0.6-1.4-1.2-2.1-1.6c-1.2-0.7-2.5-1.3-3.9-1.4c-0.9-0.1-2,0-2.7-0.6c-0.8-0.6-0.8-1.7-1.5-2.5c-0.5-0.7-1.2-1.2-1.8-1.7
				c-0.5-0.4-1-0.8-1.6-1.1c-0.5-0.2-1,0.1-1.3,0.4c-0.8,0.7-1.5,1.6-2.3,2.3c-1.8,1.7-3.6,3.6-5.7,5c-0.2,0.1-0.4,0.2-0.7,0.2
				c0.1-0.4,0.5-0.6,0.8-0.9c0.9-0.8,1.8-1.5,2.7-2.4c1-1,2.1-1.9,3-3C75.9,161.8,76.6,160.8,77.5,160.3z"/>
			<path class="st13" d="M99.5,163.7c0.7-0.2,1.3,0.2,1.9,0.4c0.7,0.3,1.2,1,2,1.2c0.7-0.1,1.3-0.8,2.1-0.8c1-0.2,2,0.1,2.7,0.8
				c0.6,0.6,1.3,1,2,1.6c0.2,0.2,0.3,0.5,0.3,0.8c-0.8,0.2-1.5-0.4-2.2-0.8c-0.6-0.4-1.1-1-1.8-1.2c-0.4-0.1-0.8-0.1-1.1,0
				c-0.7,0.2-1.3,0.9-2.1,0.8c-0.8,0-1.3-0.6-1.9-1c-0.4-0.3-0.9-0.5-1.4-0.8c-0.4,0.6-0.5,1.3-0.9,2c-0.4,0.8-1,1.6-1.6,2.3
				c-0.9,1-1.9,2-2.9,2.9c-0.5,0.4-0.9,0.9-1.5,1.3c-0.4,0.2-0.7,0.4-1,0.6c0.1-0.2,0.2-0.5,0.3-0.7c1.3-1.7,2.9-3,4.4-4.6
				c0.8-1,1.6-2.1,2-3.3C98.8,164.6,98.9,164,99.5,163.7z"/>
			<path class="st13" d="M92.2,177c0.4-0.1,0.9,0.2,0.9,0.7c0.1,0.7-0.6,1.3-1.2,1.4c-0.5,0-0.8-0.6-0.6-1
				C91.5,177.7,91.7,177.1,92.2,177z"/>
			<path class="st14" d="M135.4,209.7c0.2-0.8,0.2-1.5,0.3-2.3c0.1-0.3,0.2-0.7,0.2-1c0.8-4.3,2-8.6,2.9-12.9c0.1-0.4,0.3-0.9,0-1.2
				c-0.3,0-0.3,0.3-0.2,0.5c-0.4,0.8-0.6,1.7-0.9,2.6c-0.9,2.7-1.4,5.5-1.9,8.3c-0.2,1.2-0.5,2.4-0.5,3.6c-0.2,0.5-0.2,1.1-0.3,1.7
				c0,0.2,0,0.5,0,0.8h0.4V209.7L135.4,209.7z"/>
			<path class="st14" d="M141.4,202.9c0.1-0.3,0.2-0.6,0.3-1c1.3-5,2.9-9.9,4.8-14.8c0.8-2.4,2-4.7,2.1-7.3c-0.4,0.2-0.5,0.6-0.7,1
				c-0.4,1-0.7,2-1.2,2.9c-0.9,2-1.7,4.1-2.4,6.2c-1,3.3-1.9,6.6-2.7,9.9c-0.2,1-0.5,2-0.6,3c-0.3,0.8-0.4,1.6-0.6,2.4
				c0.1,0,0.3,0,0.4,0C141.1,204.4,141.3,203.7,141.4,202.9z"/>
			<path class="st14" d="M107.5,186.8c0.8-2.1,1.9-4.2,3.2-6.2c0.6-0.9,1-2,0.8-3.1c-0.3,0.3-0.3,0.8-0.4,1.2
				c-0.3,0.8-0.9,1.5-1.4,2.3c-1.3,2.4-2.3,4.9-3.1,7.5c0.1,0,0.2,0,0.3,0C107.1,187.9,107.3,187.3,107.5,186.8z"/>
			<path class="st14" d="M107.2,192.8c1.2-1.6,2.3-3.2,3.3-4.8c0.7-1.2,1.3-2.5,1.7-3.8c-0.2,0.1-0.4,0.2-0.5,0.4
				c-0.4,0.6-0.8,1.3-1.2,2c-1.9,3-3.7,6.1-6,8.8c0,0.1,0.1,0.2,0.2,0.3C105.7,194.9,106.5,193.8,107.2,192.8z"/>
			<path class="st14" d="M29.4,207c-0.1-2.7-0.6-5.3-1.6-7.8c-0.1,0-0.3,0-0.4,0c0,0.7,0.3,1.4,0.5,2.1c0.6,2.5,0.8,5,1.1,7.4
				c0,0.3,0,0.6,0.1,0.9h0.5C29.5,208.8,29.4,207.9,29.4,207z"/>
			<path class="st14" d="M144.8,207.7c0.1-2.8,0.5-5.7,1.6-8.3c0.2-0.5,0.6-1,0.6-1.6c-0.4,0.1-0.7,0.6-0.9,0.9
				c-1.3,2.1-1.8,4.6-1.9,7c0,1.3-0.1,2.7,0.3,3.9h0.6C144.9,209.1,144.8,208.4,144.8,207.7z"/>
			<path class="st14" d="M89,193.7c0.1,0.2,0.3,0.3,0.5,0.4c0-0.1,0.1-0.2,0.2-0.3c-0.2-0.3-0.4-0.6-0.8-0.8c-1.1-1-2.1-2.1-3-3.2
				c-0.5-0.7-1.1-1.4-1.8-1.9c-0.2-0.2-0.4-0.1-0.7,0c0.4,0.5,0.8,0.9,1.2,1.4C85.9,191,87.4,192.4,89,193.7z"/>
			<path class="st14" d="M29.5,191.4c1.2,2.8,2,5.7,2.4,8.7c0.2,1.4,0.2,2.9,0.2,4.3c0.1,0,0.3,0,0.4,0c0.2-2.1,0.1-4.2-0.2-6.4
				c-0.4-2.5-0.9-5.1-1.9-7.4c-0.9-2.2-2-4.4-3.3-6.4c-0.6-0.9-1.1-2-1.2-3.1c-0.2,0-0.4,0-0.5,0.3c-0.1,1.2,0.4,2.4,1,3.5
				C27.5,187,28.5,189.2,29.5,191.4z"/>
			<path class="st14" d="M34.2,209.7c0-0.3,0-0.6-0.1-0.9c0-0.4,0-0.9-0.3-1.2c-0.2,0.1-0.5,0.3-0.5,0.5c-0.1,0.5-0.1,1.1,0,1.7
				L34.2,209.7L34.2,209.7z"/>
			<path class="st14" d="M86.8,203.3c0.3,0.2,0.5,0.5,0.9,0.7c-0.1-0.4-0.4-0.7-0.8-1c-1.9-1.7-3.7-3.4-5.5-5.2
				c-0.5-0.5-1-1.2-1.8-1.4c0.3,0.6,0.8,1.1,1.2,1.6C82.6,199.9,84.7,201.5,86.8,203.3z"/>
			<path class="st14" d="M33.7,192.1c0.5,2.7,0.8,5.5,1.4,8.2c0.6,2.9,1.3,5.8,2.6,8.4c0,0.2,0.3,0.2,0.4,0.3c0-0.6-0.4-1.2-0.5-1.7
				c-1-2.8-1.5-5.7-1.9-8.6c-0.3-2.7-0.7-5.4-1.7-8c-0.1-0.4-0.2-0.9-0.5-1.2c-0.2,0-0.2,0.2-0.2,0.4
				C33.3,190.6,33.5,191.4,33.7,192.1z"/>
		</g>
	</g>
</g>
</svg>
