<?xml version="1.0" encoding="utf-8"?>
<!-- Generator: Adobe Illustrator 25.2.0, SVG Export Plug-In . SVG Version: 6.00 Build 0)  -->
<svg version="1.1" id="Layer_1" xmlns="http://www.w3.org/2000/svg" xmlns:xlink="http://www.w3.org/1999/xlink" x="0px" y="0px"
	 viewBox="0 0 180 180" style="enable-background:new 0 0 180 180;" xml:space="preserve">
<style type="text/css">
	.st0{clip-path:url(#SVGID_2_);}
	.st1{fill:#DFAF33;}
	.st2{fill:#38312D;}
	.st3{fill:#E56324;}
	.st4{fill:#F2844F;}
	.st5{fill:#F95939;}
	.st6{fill:#FCB390;}
	.st7{fill:#FDB697;}
	.st8{fill:#150F0C;}
	.st9{fill:#CC492F;}
	.st10{fill:#503F38;}
	.st11{fill:#57463D;}
	.st12{fill:#160E0B;}
	.st13{fill:#B75A35;}
	.st14{fill:#BB6142;}
	.st15{fill:#BA5F3D;}
	.st16{fill:#B85D37;}
	.st17{fill:#FEB38E;}
	.st18{fill:#FBB48F;}
	.st19{fill:#B65B33;}
	.st20{fill:#A3343E;}
	.st21{fill:#FCA784;}
	.st22{fill:#B65B36;}
	.st23{fill:#FCB391;}
	.st24{fill:#B85A34;}
	.st25{fill:#B75A37;}
	.st26{fill:#794274;}
	.st27{fill:#783F76;}
	.st28{fill:#784276;}
	.st29{fill:#7B437A;}
	.st30{fill:#FFFFFF;}
	.st31{fill:#784279;}
	.st32{fill:#7B457A;}
	.st33{fill:#774075;}
	.st34{fill:#773F73;}
</style>
<g>
	<defs>
		<rect id="SVGID_1_" width="180" height="180"/>
	</defs>
	<use xlink:href="#SVGID_1_"  style="overflow:visible;fill:#7B27C4;"/>
	<clipPath id="SVGID_2_">
		<use xlink:href="#SVGID_1_"  style="overflow:visible;"/>
	</clipPath>
	<g class="st0">
		<g>
			<path class="st1" d="M171.1,211.5c-1.1-4.4-2.8-8.6-4.9-12.6c-2.1-4-4.9-7.7-7.7-11.2c-2.5-3.2-5.2-6.1-8.1-8.9
				c-0.8-1.1-1.4-2.3-2.2-3.4c-2.5-4.1-6-7.4-9-11.1c-2.4-3-5.1-5.7-6.7-9.2c-1.1-2.4-1.7-5-3.1-7.2c-1.2-2.2-2.7-4.3-4-6.4
				c-0.9-1.4-2.1-2.6-3-3.9c-0.6-0.9-1.6-1.4-2.6-1.9c-1.8-0.9-3.7-1.8-5.8-1.6c-2.5,0.2-4.7-1.3-7.1-1.7c-2.8-0.2-5.6,0.5-8.4-0.2
				c-2.7-0.6-5.4-0.4-8.1-0.5c-3.5-0.1-7-0.2-10.5-0.6c-3.2-0.4-6.4-0.2-9.6,0c-2.9,0.2-5.7,0.6-8.5,1.3c-2.6-1.2-5.7-0.9-8.1,0.6
				c-2.2,1.5-3.6,3.6-5.2,5.7c-0.2,0.3-0.4,0.5-0.6,0.8c-1.4,1.4-2.8,2.8-4.2,4.2c-5.4,3.9-11,7.4-16.3,11.5c-2.7,2.1-5.4,4-8.3,5.7
				c-3.5,2.1-6.8,4.4-10,6.9c-0.8,0.7-1.6,1.4-2.4,2.1c-0.7,0.2-1.4,0.6-1.9,1.1c-9.2,8.6-16.2,19.3-20.6,31c-0.4,1-0.7,2-1.1,3
				c-1.2,2.1-2.2,4.4-3,6.7H171.1z"/>
			<path class="st2" d="M81.3,21.2c5-0.8,9.9-1.9,15-1.6c1.9,0,3.8,0.4,5.8,0.5c2.7,0.2,5.3,0.9,7.9,1.6c2.1,0.5,4.2,1.4,6.4,1.1
				c2.3-0.2,4.6-0.3,6.9-0.5c2.4-0.5,4.8-1.5,7.3-1.5c1.4,0,3-0.2,4.2,0.6c1.1,0.6,1.8,2,1.5,3.2c-0.5,2.4-2,4.5-3,6.7
				c0.7,0.1,1.5,0.1,1.9,0.7c0.6,0.8,0.4,2,0.2,2.9c-0.5,1.9-1.5,3.7-2.5,5.4c1.1,0.8,1.2,2.4,0.9,3.6c-0.3,1.4-1.2,2.5-2,3.6
				c-0.7,1.1-1.4,2.2-2.1,3.3c1,0.9,0.8,2.3,0.5,3.5c-0.7,2.1-1.9,4.2-2,6.5c-0.4,2.7-0.2,5.5-1.3,8c-1.2,3.7-3.1,7.3-6.3,9.6
				c-3.3,2.4-7.4,3.6-11.4,4.6c-9.3,2.4-18.9,1.9-28.3,2.3c-3.8,0.2-7.6,0.4-11.3,0.8c-2,0.2-3.9,0.7-5.9,0.6
				c-1.7,0-3.3-0.4-4.9-0.9c-1.7-0.5-3.3-1.3-4.5-2.6c-1.5-1.7-2.3-4-2.5-6.2c-0.1-0.7,0.1-1.3,0.4-2c-0.5-1.5-0.9-3.1-1-4.7
				c-0.2-2.6-0.6-5.2-0.4-7.9c0-4.4,0.5-8.8,1.7-13.1c1.3-4.2,2.6-8.6,5.2-12.3c1.6-2.2,3-4.6,4.9-6.6
				C67.5,25.3,74.3,22.3,81.3,21.2z"/>
		</g>
		<g>
			<path class="st3" d="M113.3,48.9c0.4-0.1,0.8-0.4,1.2-0.1c0.1,2.2,0.9,4.3,1.7,6.4c0.9,2.1,1.6,4.3,2.3,6.5
				c-0.1,0.5-0.5,0.8-0.9,0.9c-2.5,0.7-5,1-7.6,1.1c-3.1,0.1-6.1-0.5-9.1-1c-2.8-0.5-5.6-1.3-8.3-2.2c-2.3-0.8-4.4-1.9-6.6-2.7
				c-3.9-1.5-7.6-3.4-11.4-5.3c-1.2-0.8-2.5-1.3-4-1.4c0.9-1,2.2-0.5,3.3-0.5c2.9-0.1,5.7,0.3,8.6,0.6c3.9,0.5,7.9,0.5,11.8,0.6
				c5.3,0.1,10.8-0.2,15.9-1.8C111.3,49.5,112.3,49.2,113.3,48.9z"/>
			<path class="st4" d="M66,58.6c1.5-2.6,2.5-5.4,4.6-7.6c1.4,0.1,2.8,0.6,4,1.4c3.7,1.9,7.4,3.8,11.4,5.3c2.2,0.8,4.3,2,6.6,2.7
				c2.7,0.9,5.5,1.7,8.3,2.2c3,0.5,6,1.2,9.1,1c2.6-0.1,5.1-0.4,7.6-1.1c0.5-0.1,0.8-0.4,0.9-0.9c0.7,2.4,1.5,4.8,2,7.3
				c0.3,1.3,0.9,2.6,1.4,3.8c0.1,0.2,0.2,0.4,0.4,0.4c-0.3,0.2-0.6,0.5-0.6,0.9c-0.5,2.6-0.8,5.2-1.2,7.8c-0.3,2.5,0,5.1-0.3,7.6
				c-0.3,2.4-0.3,4.9-0.3,7.3c0,0.4,0,1,0.5,1.1c0,0.1-0.1,0.2-0.2,0.3c0.1,1.5-0.3,3-0.5,4.4c-0.4,2.9-1.3,5.7-2.4,8.4
				c-0.4,1-1.1,1.8-1.5,2.8l0,0c-0.8,0.3-1.2,1-1.8,1.6c-1.6,1.6-3.3,3.1-5.2,4.4c-3.3,2.6-6.9,4.8-10.6,6.8c-1.3,0.7-2.7,1.2-4,1.6
				c-2.7,0.9-5.7,0.8-8.4,0c-3.1-0.7-6-2.2-8.9-3.4c-2.5-1.2-5.1-2.3-7.3-4c-2-1.4-3.8-3.1-5.5-4.8c-0.7-0.8-1.3-1.6-2.1-2.3
				c0-0.2-0.1-0.4-0.2-0.5c-1.5-1.7-2.3-3.9-2.6-6.1c-0.5-2.7-0.2-5.5-0.6-8.2c0.7-3.6,0.8-7.3,0.5-11c-0.2-2.2,0-4.4-0.7-6.6
				c-0.2-1.4-0.1-2.8-0.1-4.2c-0.1-3.1,0.9-6.1,2.5-8.7C62.4,65.3,64.2,61.9,66,58.6z"/>
			<path class="st5" d="M125,70.9c0.5-0.7,1-1.3,1.6-1.8c2.9,0.3,5.3,2.6,6.3,5.2c1,2.7,0.9,5.7,0.2,8.5c-0.9,4.4-3.5,8.2-6.6,11.3
				c-1.7,1.8-3.8,3.3-6.1,4c-0.5-0.2-0.4-0.7-0.5-1.1c-0.1-2.4,0-4.9,0.3-7.3c0.3-2.5,0-5.1,0.3-7.6c0.3-2.6,0.7-5.2,1.2-7.8
				c0-0.4,0.3-0.7,0.6-0.9C123.3,72.5,124.3,71.8,125,70.9z"/>
			<path class="st5" d="M48.2,74.9c1.2-0.7,2.8-0.6,4,0.2c1.9,1.3,3,3.4,4.7,4.9c0.5,0.5,0.9,1.2,1.4,1.6c0.6,2.1,0.5,4.4,0.7,6.6
				c0.2,3.7,0.2,7.4-0.5,11c-0.9-0.4-1.9-0.2-2.7-0.5c-5.2-1.9-9.1-6.6-10.4-11.9c-0.8-2.4-0.8-5.1-0.2-7.6
				C45.7,77.3,46.7,75.7,48.2,74.9z"/>
			<path class="st3" d="M61.8,113.9c0.8,0.7,1.4,1.6,2.1,2.3c1.7,1.7,3.5,3.4,5.5,4.8c2.2,1.7,4.8,2.8,7.3,4
				c2.9,1.2,5.8,2.7,8.9,3.4c2.7,0.8,5.7,0.9,8.4,0c1.4-0.4,2.8-0.9,4-1.6c3.7-2,7.3-4.2,10.6-6.8c1.9-1.3,3.5-2.8,5.2-4.4
				c0.6-0.6,1.1-1.3,1.8-1.6c-0.5,2.8-0.5,5.6-0.5,8.4c-4.9,1.5-9.5,4-13.8,6.8c-1.8,1.3-3.9,2.1-5.6,3.5c-1.5,1.2-3,2.3-4.6,3.5
				c-2.6,1.8-5.6,3.2-8.8,3.1c-3.1-0.1-6.3-0.5-9.2-1.7c-3.8-1.4-7.5-2.9-10.9-5.1c-0.6-0.4-1.2-0.8-1.9-1c1-3,1.2-6.1,1.4-9.2
				C62.1,119.4,62.3,116.7,61.8,113.9z"/>
			<path class="st4" d="M101.5,129.2c4.3-2.9,8.9-5.3,13.8-6.8c0,5.7,0.1,11.3,0.4,17c-0.7,2.3-2.2,4.3-3.6,6.2
				c-3,3.7-7.3,6-11.6,7.8c-2.5,1.1-5,2.1-7.3,3.4c-2,1.1-4.2,1.9-6,3.3c-0.3,0.3-0.8,0.3-1.2,0.2c-1.6-1-2.7-2.6-4.2-3.7
				c-3.1-2.3-6.4-4.4-9.6-6.6c-2.3-1.6-4.8-2.9-6.8-5c-1.1-1-2.1-2-2.9-3.3c-1.2-1.1-1.9-2.7-2.4-4.2c-0.2-0.7-0.6-1.4-0.5-2.2
				c-0.2-1.4,0.6-2.7,1-4c0.7,0.2,1.3,0.6,1.9,1c3.4,2.2,7.1,3.7,10.9,5.1c2.9,1.2,6.1,1.7,9.2,1.7c3.2,0.1,6.3-1.3,8.8-3.1
				c1.6-1.1,3.1-2.2,4.6-3.5C97.7,131.3,99.7,130.4,101.5,129.2z"/>
		</g>
		<g>
			<path class="st5" d="M109.1,90.4c1.4-0.2,2.7,0.3,3.9,0.8c1.6,0.7,2.9,2.4,2.8,4.2c0,2.4-0.7,4.9-2.6,6.5c-1.3,1.3-3.2,1.7-5,1.4
				c-2-0.2-4.2-1.2-5-3.1c-1-1.8-0.8-4.1,0.4-5.7c0.5-0.7,0.9-1.5,1.6-2.1C106.5,91.6,107.7,90.6,109.1,90.4z"/>
			<path class="st5" d="M68.9,90.7c1.4-0.4,3-0.2,4.4,0.3c2,0.9,3.3,3.1,3.4,5.3c0,1.9-0.2,4-1.5,5.5c-0.9,1.1-2.3,1.7-3.7,2.1
				c-2.6,0.5-5.6-0.7-6.9-3.1c-1.5-2.4-1.4-5.9,0.7-7.9C66.5,91.9,67.6,91,68.9,90.7z"/>
			<path class="st3" d="M94.6,99.4c0.4-0.2,0.9-0.6,1.4-0.5c-0.1,0.6-0.7,0.8-1.1,1.1c-2.2,1.4-4.3,3-6.8,3.7
				c-0.7,0.1-1.5,0.4-2.1-0.1c-1-0.7-1.5-1.8-2.2-2.7c-0.4-0.6-0.9-1.1-1-1.8c0.9-0.5,1.7,0.4,2.6,0.5c1.3,0.2,2.3,1.3,3.7,1.4
				c0.7,0,1.4,0.5,2.1,0.1C92.4,100.6,93.5,100,94.6,99.4z"/>
			<path class="st6" d="M85.3,110.7c1.3-0.5,2.8-0.3,4.2-0.4c0.1,0.2,0.2,0.5,0.2,0.7c-1.4-0.1-2.9,0.4-4.3,0.2
				C85.3,111.1,85.3,110.8,85.3,110.7z"/>
			<path class="st3" d="M82.3,114.6c3.3,0.3,6.7,0.5,10.1,0.1c0.3-0.1,0.8,0,0.9,0.3c-0.3,0.9-0.9,1.7-1.4,2.5
				c-0.5,0.8-1.5,0.1-2.2-0.1c-1.5-0.2-2.9,0.1-4.4,0.2c-0.4,0-0.7-0.4-1.1-0.6C83.4,116.5,82.7,115.6,82.3,114.6z"/>
			<path class="st7" d="M72.7,58.3c1.8-0.9,3.7-1.8,5.8-1.9c-1.3,0.5-2.8,0.9-4.1,1.6c-1.3,0.6-2.4,1.5-3.6,2.2
				C71.2,59.4,71.9,58.7,72.7,58.3z"/>
			<g>
				<path class="st8" d="M110.5,30.6c5.2-0.8,10.2-2.5,15-4.5c1.7-0.8,3.5-1.4,5-2.5c-0.3,0.1-0.7,0.2-1,0.4
					c-4.6,2.1-9.4,3.8-14.3,5.1c-4.9,1.2-9.9,2.1-15,2.2C103.6,31.7,107.1,31.1,110.5,30.6z"/>
				<path class="st8" d="M100.8,26.1c0.4,0,0.8,0,1.2,0c-1.3-0.5-2.6-0.4-3.9-0.5c-2.5-0.2-5.1-0.1-7.6,0.1
					c-6.4,0.4-12.8,1-18.9,2.9c-1.8,0.6-3.8,1.2-5.3,2.5c6.2-2.7,13-4,19.7-4.6C90.9,26,95.9,25.7,100.8,26.1z"/>
				<path class="st8" d="M100.8,36.7c3.9,0.3,7.8-0.3,11.7-1.1c4.6-1,9-2.6,13.3-4.4c1.6-0.7,3.2-1.4,4.6-2.5
					c-4.9,2.5-10.2,4.1-15.4,5.6C110.3,35.7,105.6,36.4,100.8,36.7z"/>
				<path class="st8" d="M91.1,31.5c1.7-0.1,3.5,0.2,5.1-0.4c-1.8-0.1-3.6-0.1-5.4,0c-7.4,0.1-14.8,0.6-22.1,2
					c-1.9,0.4-3.9,0.7-5.4,1.9c1.1-0.3,2.2-0.7,3.4-1C74.8,32.4,83,31.8,91.1,31.5z"/>
				<path class="st8" d="M130.2,34.9c-2.9,1.9-6.1,3.6-9.4,4.8c2.9-0.6,5.6-2.1,8.2-3.5c1.3-0.8,2.8-1.4,3.7-2.7
					C131.8,33.8,131,34.4,130.2,34.9z"/>
				<path class="st8" d="M75.7,38.7c4.7-0.1,9.3-0.3,14-0.6c2.6-0.2,5.2-0.2,7.8-0.9c-1.2,0.1-2.4,0.3-3.5,0.4
					c-8,0.4-16.1,0.8-24.2,0.5c-2.4,0-4.8-0.6-7.2-0.5C66.8,38.6,71.3,38.8,75.7,38.7z"/>
				<path class="st8" d="M113.1,40.9c-2.4,0.7-4.7,1.3-7.2,1.7c-3.2,0.5-6.4,1.1-9.6,1.1c1,0.2,1.9,0.4,2.9,0.3
					c5.1-0.4,10.1-1.4,14.9-3.1c2.2-0.8,4.6-1.5,6.5-2.9C118.2,39.2,115.7,40.1,113.1,40.9z"/>
				<path class="st8" d="M127.4,41.2c1.4-0.8,3-1.5,4.2-2.7c-1.1,0.3-2.1,1-3.1,1.5c-3.6,2.1-7.5,3.7-11.3,5.3
					c1.2-0.1,2.4-0.6,3.6-1.1C123,43.3,125.2,42.3,127.4,41.2z"/>
				<path class="st8" d="M87.2,44.5c-7.4-0.2-15-0.5-22.2-2.6c-1.1-0.3-2.1-0.8-3.3-0.8c1.6,1,3.5,1.5,5.4,2
					c6.2,1.6,12.7,1.7,19.1,1.7c2.5,0,5.1,0.1,7.5-0.7C91.6,44.3,89.4,44.5,87.2,44.5z"/>
				<path class="st8" d="M116.3,49.2c1.3,0.1,2.7,0.1,4-0.2c2.9-0.5,5.7-1.5,8.5-2.5c1.1-0.5,2.3-0.9,3.1-1.7
					c-3.1,1.4-6.3,2.4-9.5,3.2C120.4,48.4,118.4,49,116.3,49.2z"/>
				<path class="st8" d="M80.1,48.5c-4.3-0.4-8.6-1.1-12.9-2c-1.3-0.2-2.4-0.9-3.7-0.9c2,1.5,4.5,1.7,6.9,2.1
					c3.2,0.4,6.3,0.9,9.5,1.1c1.3,0.1,2.6,0.1,3.9-0.3C82.5,48.5,81.3,48.7,80.1,48.5z"/>
				<path class="st8" d="M92.1,48.5c-1.6,0-3.3-0.3-4.9-0.2c2.4,0.8,4.9,0.9,7.4,0.8c3.7-0.2,7.3-0.7,10.9-1.4c2.6-0.5,5.2-1,7.6-2
					c-1.4,0.1-2.7,0.7-4.1,1C103.5,47.7,97.8,48.5,92.1,48.5z"/>
				<path class="st8" d="M59.1,47.8c-0.4-0.1-0.7,0-0.9,0.3c-0.7,0.7-1.2,1.6-1.6,2.5c-1.3,2.6-2.4,5.3-2.9,8.2
					c-0.1,0.9-0.4,1.8-0.1,2.7c0.2-0.6,0.3-1.2,0.5-1.9c0.6-3.3,1.9-6.4,3.5-9.2C58,49.4,58.7,48.7,59.1,47.8z"/>
				<path class="st8" d="M62.5,49.9c-1.2,0.7-1.9,1.9-2.5,3c-1.9,3.4-3.4,6.9-4.3,10.6c-0.2,0.9-0.5,1.9-0.4,2.9
					c0.5-1.2,0.7-2.5,1.1-3.8c1-3.5,2.6-6.7,4.4-9.9C61.3,51.8,62.2,51,62.5,49.9z"/>
				<path class="st8" d="M123.6,52.6c1.3-0.5,2.7-0.8,3.7-1.8c-3.1,1.1-6.3,2-9.5,2.7C119.9,53.9,121.8,53.1,123.6,52.6z"/>
				<path class="st8" d="M64.1,53.9c-1.3,1.9-2.4,4.1-3.4,6.2c-1.2,2.7-2.4,5.4-3,8.3c0.4-0.5,0.6-1.1,0.8-1.7
					c1.2-3.5,2.8-6.9,4.6-10.1c1-1.8,2.2-3.4,3.5-5C65.4,51.9,64.7,53,64.1,53.9z"/>
				<path class="st8" d="M119.4,57c0.8,1.8,1,3.9,1.9,5.7c-0.3-1.9-0.7-3.8-1.4-5.7C119.8,57.1,119.5,57,119.4,57z"/>
				<path class="st8" d="M123.8,59.1c-0.1-0.8,0-1.8-0.9-2.2c0.1,1.2,0.3,2.5,0.4,3.7c0.1,1,0.1,2.1,0.4,3.1
					C124.1,62.2,123.9,60.6,123.8,59.1z"/>
				<path class="st8" d="M125.9,63.1c0,1.2-0.2,2.3-0.3,3.5c0.7-1.3,0.7-2.8,0.8-4.2c0.1-1.1,0.3-2.3-0.1-3.4
					C125.9,60.3,125.9,61.7,125.9,63.1z"/>
				<path class="st8" d="M122,66.2c0.2,1.1,0.3,2.2,0.6,3.2c0.2-1.8-0.1-3.6-0.5-5.3C121.6,64.8,121.8,65.5,122,66.2z"/>
				<path class="st8" d="M52.9,67.4c-0.2,0.5-0.4,1-0.4,1.6c0,1.7,0.2,3.5,0.8,5.1c0-1.1-0.3-2.3-0.3-3.4
					C52.9,69.6,53,68.5,52.9,67.4z"/>
				<path class="st8" d="M123.7,68.1c0.1,0.9,0.2,1.8,0.5,2.7c0-0.9,0-1.8,0-2.7C124.1,68.1,123.9,68.1,123.7,68.1z"/>
				<path class="st8" d="M55.5,68.7c-0.6,0.7-0.7,1.6-0.7,2.5c-0.1,1.5-0.1,3,0.4,4.4c0-1.1,0-2.3,0-3.4
					C55.2,71,55.5,69.9,55.5,68.7z"/>
				<path class="st8" d="M57.4,74.6c0-1,0.2-1.9-0.1-2.9c-0.4,1-0.4,2.1-0.3,3.1c0.1,1.2,0.1,2.4,0.4,3.5
					C57.5,77.1,57.4,75.8,57.4,74.6z"/>
			</g>
			<path class="st2" d="M104.9,75.1c3.4-0.5,6.9-0.2,10,1.3c1.3,0.6,2.5,1.6,3.3,2.7c-1.7,0.4-3.5,0-5.2,0.1
				c-3.8,0.1-7.8,0.3-11.4,1.9c-1.3,0.5-2.3,1.5-3.6,1.8c-0.3-1.5-0.4-3.3,0.6-4.6C100.1,76.4,102.5,75.5,104.9,75.1z"/>
			<path class="st9" d="M126.2,74.9c0.9,0.3,1.2,1.2,1.2,2.1c0,2.1-0.9,4-1.7,5.9c-0.6,1.3-1.2,2.7-2.3,3.7c1.2-1.7,1.9-3.7,2.6-5.7
				C126.7,79.1,127.1,76.9,126.2,74.9z"/>
			<path class="st2" d="M65.4,77.5C69,76.4,73,76,76.8,76.6c1.7,0.2,3.4,0.6,4.6,1.8c1.2,1.1,1.5,2.8,1.4,4.4
				c-3.5-0.2-6.9-1.2-10.4-1.6c-3.3-0.6-6.8-0.7-10-1.8C63.3,78.5,64.3,77.9,65.4,77.5z"/>
			<path class="st10" d="M112.2,80c1.1-0.6,2.5-0.5,3.8-0.5c0.9,0.1,1.8,0.1,2.5,0.6C116.4,80.1,114.3,80.2,112.2,80z"/>
			<path class="st11" d="M61.8,80.4c1.5-0.2,3.1,0.1,4.5,0.6C64.8,81.2,63.2,81,61.8,80.4z"/>
			<path class="st9" d="M50.8,81.7c-0.1-0.5,0.2-1,0.4-1.4c0.1,1,0.1,2,0.4,3c0.8,2.4,2.4,4.5,4.2,6.2c-1.6-0.9-2.7-2.3-3.6-3.8
				C51.6,84.5,50.9,83.2,50.8,81.7z"/>
			<path class="st11" d="M114.3,81.2c1.2-0.7,2.7-0.3,4,0.1C117,81.4,115.6,81.4,114.3,81.2z"/>
			<path class="st11" d="M61.7,81.6c1.2-0.3,2.4,0,3.6,0.4C64.1,82.1,62.8,82,61.7,81.6z"/>
			<path class="st12" d="M105.7,81.8c0.5-0.2,1.1,0,1.2,0.6c0.1,1-0.1,2.5-1.3,2.8c-0.8-0.2-0.8-1.2-0.7-1.8
				C105,82.8,105.2,82.1,105.7,81.8z"/>
			<path class="st12" d="M72.2,84.7c0-0.9,0.1-2.1,1-2.6c1.1,0.5,0.7,1.7,0.8,2.6c0,0.5-0.1,1.4-0.8,1.4
				C72.5,86.1,72.3,85.2,72.2,84.7z"/>
			<path class="st13" d="M104.6,86.3c1.7,0.1,3.3-0.4,5-0.5c-1.1,0.8-2.4,0.9-3.6,1.1c-1.3,0.2-2.7,0.2-4-0.3
				C102.7,86,103.7,86.4,104.6,86.3z"/>
			<path class="st14" d="M69.6,86.1c1,0.3,1.9,0.8,3,1c1.4,0.3,2.9,0.4,4.4,0.5c-1.4,0.4-2.8,0.2-4.2,0.1
				C71.6,87.5,70.2,87.2,69.6,86.1z"/>
			<path class="st15" d="M102.6,88.3c2-0.4,4.1-0.6,6.1-0.9c-1.2,0.8-2.7,0.9-4,1.2C104,88.7,103.3,88.6,102.6,88.3z"/>
			<path class="st16" d="M69.9,88c2,0.3,4,0.6,6,0.8c-1.1,0.5-2.3,0.2-3.5,0.1C71.5,88.8,70.5,88.6,69.9,88z"/>
			<path class="st7" d="M69.2,90.2c1.9,0.5,3.7,1.2,5.5,1.9C72.8,91.8,70.6,91.6,69.2,90.2z"/>
			<path class="st17" d="M89.8,90.9c0.2,0.4,0.3,0.9,0.3,1.4c-0.1,1.4-0.2,2.9-0.6,4.2C89.2,94.6,89.3,92.7,89.8,90.9z"/>
			<path class="st9" d="M65.5,92c0.7,0.6,1.2,1.4,1.8,2c1.4,1.4,2.9,2.7,4.4,3.9c0.4,0.3,0.7,0.8,1,1.2c-1.2-0.7-2.2-1.6-3.2-2.4
				c-1.3-1.1-2.7-2.1-3.6-3.5C65.6,92.9,65.5,92.4,65.5,92z"/>
			<path class="st18" d="M105.2,95.3c1.4-1.4,3.4-2.1,5.2-2.9c-0.8,1-2,1.5-3,2.1C106.7,94.9,106,95.2,105.2,95.3z"/>
			<path class="st9" d="M105.5,99.8c2.9-2.9,7.1-3.7,10.5-5.6c-0.6,1-1.8,1.3-2.7,1.8c-1.8,0.8-3.6,1.8-5.3,2.8
				C107.2,99.2,106.5,99.8,105.5,99.8z"/>
			<path class="st19" d="M82.3,96.7c0.2-0.4,0.7-0.7,1.1-0.9c-0.4,0.8-0.9,1.7-0.5,2.7c1.2,0,2.4,0.3,3.4,0.8
				c1.4,0.7,2.9,1.6,4.5,1.4c1.8-0.6,3.3-1.9,5.2-2c0.1-0.5,0.3-1,0.3-1.5c-0.2-0.5-0.4-0.9-0.6-1.3c0.4,0.2,0.9,0.3,1.1,0.7
				c0.5,0.9-0.1,1.9-0.7,2.5c-0.9,0.5-1.9,0.7-2.7,1.2c-1.1,0.6-2.2,1.4-3.6,1.2c-1.8-0.2-3.2-1.3-4.8-1.9c-0.8-0.3-1.7-0.4-2.5-0.5
				C82.2,98.3,81.9,97.4,82.3,96.7z"/>
			<path class="st5" d="M77.6,107.4c2.5-1.6,5.5-1.9,8.4-1.9c3.3,0.1,6.6,0.6,9.8,1.6c1.5,0.5,3,1.3,3.5,2.9c-3-0.8-6-1-9.1-1.3
				c-2.5-0.2-4.9,0.1-7.4-0.2c-2.1-0.3-4.3,0.2-6.3,0.7C76.8,108.6,76.9,107.8,77.6,107.4z"/>
			<path class="st20" d="M76.5,109.2c2-0.6,4.2-1,6.3-0.7c2.4,0.3,4.9,0,7.4,0.2c3,0.3,6.1,0.5,9.1,1.3c0.1,0.1,0.3,0.3,0.4,0.4
				l-0.3,0c-1.9,0-3.7-0.4-5.5-0.6c-1.5-0.1-2.9-0.3-4.4-0.4c-1.4-0.1-2.8,0.1-4.2,0.1c-1.6,0-3.2-0.3-4.8-0.1
				c-1.3,0.2-2.7,0.4-4,0.4c-0.3-0.1-0.6-0.2-0.8-0.3C76,109.4,76.2,109.3,76.5,109.2z"/>
			<path class="st5" d="M80.5,109.3c1.6-0.2,3.2,0.1,4.8,0.1c1.4,0,2.8-0.2,4.2-0.1c1.5,0.1,2.9,0.2,4.4,0.4
				c1.8,0.2,3.7,0.6,5.5,0.6c-0.4,0.7-0.8,1.3-1.6,1.5c-2.1,0.8-4.4,0.9-6.7,1.1c-3.7,0.2-7.5,0.2-11.1-0.7c-1.4-0.4-2.9-1-3.5-2.4
				C77.8,109.8,79.2,109.5,80.5,109.3z"/>
			<path class="st21" d="M85.4,110.5c1.5-0.6,3.2-0.4,4.7-0.4C88.7,110.6,87,110.8,85.4,110.5z"/>
			<path class="st22" d="M61.8,113.5c1,0.8,1.7,1.9,2.6,2.8c1.8,1.9,3.8,3.6,5.9,5.1c2.7,1.8,5.6,3.4,8.7,4.5c1.9,0.7,3.8,1.3,5.6,2
				c1.6,0.6,3.3,1.1,5,1.2c4.8-0.3,9.1-2.7,13.2-5.1c2.5-1.5,4.7-3.3,7.1-4.9c2.2-1.6,4.1-3.6,6-5.5c-1.2,1.6-2.4,3.3-4,4.6
				c-1.3,1.2-2.9,2.2-4.3,3.3c-1.8,1.3-3.6,2.5-5.5,3.5c-2.7,1.5-5.4,3-8.3,3.9c-2.6,0.7-5.3,0.9-7.9,0.1c-4.5-1.5-9-2.9-13-5.4
				c-2.2-1.2-4.3-2.7-6.1-4.4C64.9,117.4,63,115.7,61.8,113.5z"/>
			<path class="st15" d="M84.7,117.8c0.9-0.8,2.1-0.9,3.3-0.8c1.4,0.1,2.9,0.4,4.1,1.1c-1.2-0.2-2.4-0.5-3.7-0.6
				C87.2,117.5,85.9,117.8,84.7,117.8z"/>
			<path class="st23" d="M85.4,121.2c1-0.9,2.4-0.7,3.7-0.7c0.6,0,1.2,0.3,1.7,0.7C89,121.1,87.2,121.2,85.4,121.2z"/>
			<path class="st24" d="M91.2,141.4c0.7-2.6,0.7-5.4,0.9-8.1c0.3,0.2,0.7,0.3,0.7,0.7c0.2,2-0.2,4-0.6,5.9
				c-0.3,1.2-0.5,2.6-1.5,3.5C90.7,142.7,91,142,91.2,141.4z"/>
			<path class="st25" d="M81.6,134c0.1,0,0.4,0.1,0.5,0.1c-0.1,3.1,0.4,6.1,1.2,9c-0.9-0.7-1.1-1.8-1.3-2.8
				C81.6,138.3,81.1,136.1,81.6,134z"/>
			<path class="st26" d="M52.8,145.3c-0.4-1.4-0.3-3,0.2-4.4c0.1,1.6-0.1,3.2,0.5,4.7c1.1,2.7,3,5,5.2,6.8c1.6,1.3,3.4,2.5,5.2,3.6
				c2.6,1.8,5.6,3.1,8.2,4.8c2.4,1.7,4.8,3.4,7,5.3c-1.8-0.8-3.3-2.2-4.9-3.3c-3.5-2.6-7.5-4.2-11-6.6c-2.7-1.8-5.6-3.5-7.6-6.1
				C54.4,148.7,53.3,147.1,52.8,145.3z"/>
			<path class="st27" d="M120.2,151.7c1.2-1.3,2.2-2.7,3.4-4c-0.2,1.3-1.2,2.3-1.9,3.3c-2.8,3.6-6.5,6.5-10.4,8.7
				c-1.8,1.1-3.8,1.8-5.8,2.5c-2.8,1.1-5.7,2-8.5,3c-1.5,0.6-3,1.2-4.3,2.3c-0.5,0.4-1,0.8-1.6,1.1c1.3-2.1,3.6-3.1,5.8-4
				c4.3-1.6,8.7-2.9,12.8-4.9C113.5,157.7,117.1,155,120.2,151.7z"/>
			<path class="st26" d="M53.3,153.4c-0.9-1.4-2-2.7-2.3-4.4c0.7,1.6,1.8,3,2.9,4.3c2,2.4,4.6,4.3,7.1,6.1c3.4,2.2,7.1,4.1,10.5,6.2
				c1.8,1.1,3.8,1.8,5.1,3.5c-2.4-1.8-5.3-2.9-7.9-4.4c-3.4-1.9-7-3.6-10.1-6.1C56.7,157.1,54.7,155.5,53.3,153.4z"/>
			<path class="st28" d="M124,151.6c0.5-0.6,0.9-1.3,1.5-1.8c0,0.8-0.4,1.4-0.8,2c-3.1,4.6-7.7,7.8-12.6,10.2
				c-2.8,1.5-5.7,2.8-8.7,3.8c-1.9,0.6-3.8,1.2-5.7,1.9c1.9-1.3,4.2-1.7,6.3-2.6c3.8-1.3,7.5-3.2,11-5.2
				C118.3,157.7,121.6,155,124,151.6z"/>
			<path class="st29" d="M75.9,211.5h0.5c-0.2-1.9,0-3.7-0.2-5.6c-0.4-4.4-0.2-8.8-0.1-13.3c0.2-6,0.4-12,1.3-18
				c0.4-3.2,2.1-6.2,4-8.7c1.1-1.4,2.4-2.5,3.6-3.7c-3,1.7-5.1,4.7-6.7,7.8c-1.2,2.2-1.5,4.8-1.8,7.2c-0.9,7.2-0.8,14.5-1,21.8
				c0,3,0.1,5.9,0.3,8.8C75.8,209,75.8,210.3,75.9,211.5z"/>
			<path class="st26" d="M84.8,174.3c0.8,0,1.6,0.1,2.3,0.3c1.4,0.8,0.9,3.3-0.7,3.7c-1.1,0.3-2.5-0.1-3-1.2
				C83.2,176,83.9,174.8,84.8,174.3z"/>
			<path class="st30" d="M83.9,176.9c-0.2-1.1,0.6-2,1.4-2.6c0,0.1,0,0.3,0,0.4c0.6,0.1,1.5,0.1,1.8,0.7c0.4,0.9-0.1,2.1-1.1,2.3
				C85.3,178,84.3,177.7,83.9,176.9z"/>
			<path class="st31" d="M22.3,178c1.5,1.5,2.6,3.3,3.7,5.1c2.6,4.4,4.3,9.2,5.6,14.1c0.8,3.4,1.3,6.8,1.7,10.3
				c0.1,1.3,0.1,2.6,0.1,3.8c-0.4-6.4-1.7-12.7-3.8-18.8c-1.2-3.6-2.8-7.1-4.8-10.4C24,180.8,22.9,179.5,22.3,178z"/>
			<path class="st32" d="M33.8,195.7c1.1,4.5,1.7,9,2.3,13.6c0.1,0.7,0.2,1.5,0.2,2.2h0.3c0-2.3-0.3-4.6-0.8-6.8
				c-0.8-5.7-1.9-11.3-3.6-16.8c-0.9-3-1.8-6-3.2-8.8c0.4,2,1.2,3.8,1.7,5.7C31.9,188.4,33,192,33.8,195.7z"/>
			<path class="st33" d="M143.4,209.8c-0.1,0.6-0.3,1.1-0.5,1.7h0.4c0.2-0.5,0.3-1.1,0.4-1.6c0.7-1.9,0.9-3.9,1.2-5.9
				c0.4-2.3,0.5-4.6,0.4-6.9c-0.2-2.8-0.3-5.6-0.9-8.3c-0.4,1.4-0.1,2.8,0,4.2c0.1,3.3,0.6,6.5,0.2,9.8
				C144.3,205,144.1,207.5,143.4,209.8z"/>
			<path class="st34" d="M148.2,201.3c0.2-1.4,0.3-2.8,0.7-4.2c0.4,1.8,0.1,3.7-0.1,5.5c-0.4,2.5-1,5-1.8,7.4
				c-0.1,0.5-0.5,0.8-0.8,1.1C147,207.8,147.7,204.6,148.2,201.3z"/>
			<path class="st28" d="M85.1,201c1.7-0.5,2.9,1.7,2.1,3.1c-0.7,1.4-2.8,1.7-3.8,0.5C82.1,203.3,83.3,200.9,85.1,201z"/>
			<path class="st30" d="M83.5,202.2c0.8-0.3,1.6-0.9,2.4-0.6c1,0.4,1.2,1.9,0.4,2.6c-0.7,0.8-2.2,0.7-2.8-0.3
				C83.2,203.4,83.4,202.7,83.5,202.2z"/>
		</g>
	</g>
</g>
</svg>
