<?xml version="1.0" encoding="utf-8"?>
<!-- Generator: Adobe Illustrator 25.2.0, SVG Export Plug-In . SVG Version: 6.00 Build 0)  -->
<svg version="1.1" id="Layer_1" xmlns="http://www.w3.org/2000/svg" xmlns:xlink="http://www.w3.org/1999/xlink" x="0px" y="0px"
	 viewBox="0 0 180 180" style="enable-background:new 0 0 180 180;" xml:space="preserve">
<style type="text/css">
	.st0{clip-path:url(#SVGID_2_);}
	.st1{fill:#AC3062;}
	.st2{fill:#DB9DB4;}
	.st3{fill:#FFFFFF;}
	.st4{fill:#4E3E37;}
	.st5{fill:#38312D;}
	.st6{fill:#F2844F;}
	.st7{fill:#E56324;}
	.st8{fill:#F95939;}
	.st9{fill:#FDC4AA;}
	.st10{fill:#E99F86;}
	.st11{fill:#FCB999;}
	.st12{fill:#FCBEA0;}
	.st13{fill:#AC3063;}
	.st14{fill:#D08CA8;}
	.st15{fill:#150F0C;}
	.st16{fill:#B9603D;}
	.st17{fill:#FDCCB5;}
	.st18{fill:#CC492F;}
	.st19{fill:#FB9C7A;}
	.st20{fill:#A33E29;}
	.st21{fill:#ED5D3F;}
	.st22{fill:#FCC1A5;}
	.st23{fill:#B95D38;}
	.st24{fill:#B97991;}
	.st25{fill:#BA7D94;}
	.st26{fill:#CFA3B3;}
	.st27{fill:#6F1E40;}
	.st28{fill:#D2A9B8;}
</style>
<g>
	<defs>
		<rect id="SVGID_1_" width="180" height="180"/>
	</defs>
	<use xlink:href="#SVGID_1_"  style="overflow:visible;fill:#2EBF62;"/>
	<clipPath id="SVGID_2_">
		<use xlink:href="#SVGID_1_"  style="overflow:visible;"/>
	</clipPath>
	<g class="st0">
		<g>
			<path class="st1" d="M8.6,178.5c-0.6,1.9-1.5,3.8-1.9,5.8c-0.2,1.2-0.3,2.5-0.3,3.7c0,1.2,0.3,2.3,0.7,3.3
				c0.8,1.8,1.6,3.5,2.6,5.1c0.1,0.1,0.2,0.3,0.3,0.4h19.5c0,0,0-0.1,0-0.1c0.3-1.2,0.6-2.3,0.9-3.5c0.6-2.1,1.3-4.2,2.1-6.3
				c1.5-3.5,3.2-7,5.1-10.3c1.6-2.7,3.4-5.3,5.5-7.6c1.2-1.3,2.4-2.6,3.7-3.8c1.3-1.2,2.6-2.4,4-3.6c2.8-2.5,5.8-4.9,8.7-7.3
				c1.3-1.1,2.5-2.2,3.8-3.2c2.7-2.1,5.3-4.2,7.9-6.3c2.8-2.3,5.5-4.7,8-7.3c1.3-1.3,2.7-2.7,4-4c0-0.6,0.1-1.1,0.3-1.6
				c0.3,0.3,0,0.9,0.1,1.3c0.8-1,1.8-1.9,2.5-3.1c0.6-0.9,1.3-1.7,1.8-2.7c0.5-0.8,0.9-1.6,1.5-2.3l0,0l0,0c0.4-0.3,1-0.1,1.5-0.4
				c0.8-0.5,1.7-1.1,2.6-1.5c1.5-0.7,3.1-1.1,4.7-1.5c2.2-0.6,4.4-1,6.5-1.6c0.1,0,0.2,0,0.2-0.1c0,0,0.1,0,0.2,0
				c0.1,0,0.2,0,0.2-0.1c0.7-0.1,1.5-0.4,2.2-0.6c1.9-0.6,3.9-1.2,5.8-1.8c-0.8,1.1-1.6,2.2-2.4,3.3c-1.1,1.5-2.2,3-3.3,4.5
				c-1.1,1.4-2.3,2.8-3.4,4.2c-0.6,0.8-1.2,1.4-1.9,2.1c-0.1,0.1,0,0.3,0,0.4c0.1,0,0.2,0.1,0.3,0.1c0.5-0.2,0.8-0.7,1.1-1.1
				c0.7-0.8,1.3-1.7,2-2.5c0.7-0.8,1.4-1.7,2.1-2.5c1-1.3,2-2.6,2.9-3.9c1.2-1.7,2.6-3.4,3.7-5.1c0.7-1.1,1.5-2.1,2.1-3.2
				c0.8-1.3,1.6-2.6,2.4-3.9c1-1.9,2-3.8,2.9-5.7c1.7-3.6,3-7.5,3.9-11.4c0.6-2.5,1-5,1.4-7.5c0.4-2.6,0.7-5.2,0.9-7.8
				c0.1-1.8,0.3-3.7,0.1-5.5c0-1.6,0.1-3.1-0.1-4.7c-0.1-2.2-0.5-4.3-0.8-6.5c-0.2-1.4-0.5-2.8-0.8-4.2c-0.3-1.3-0.5-2.7-0.8-4
				c-0.5-2-1.2-3.9-1.9-5.8c-0.5-1.6-1.3-3.1-2.1-4.5c-0.8-1.4-1.6-2.8-2.6-4.1c-1.2-1.5-2.5-3-3.9-4.4c-1.5-1.5-3.1-2.8-4.8-4.1
				c-1.1-0.8-2.2-1.4-3.3-2.1c-1.5-0.9-3.2-1.6-4.8-2.2c-1.3-0.4-2.5-0.9-3.8-1.2c-1.4-0.4-2.8-0.5-4.2-0.7
				c-5.6-0.6-11.2,0.2-16.5,2c-1,0.4-1.9,0.9-2.9,1.3c-1,0.5-1.9,1-2.8,1.5c-0.9,0.5-1.7,1.2-2.6,1.6c-0.4,0.2-0.8,0.2-1.2,0.3
				c-0.8,0.3-1.6,0.7-2.3,1.1c-2.8,1.5-5.5,3.4-7.5,6c-0.7,0.9-1.4,1.8-2,2.7c-0.5,0.8-0.9,1.6-1.2,2.4c-0.6,1.4-1.3,2.9-1.6,4.5
				c-0.2,1.1-0.5,2.2-0.6,3.4c-0.2,2.3-0.2,4.5-0.2,6.8c0.1,0.8,0,1.6,0.1,2.4c0.1,0.7,0,1.5,0,2.2c0,1.3,0.1,2.5-0.1,3.8
				c-0.2,1.7-0.6,3.3-1.1,4.9c-0.6,1.8-1.5,3.5-2.6,5c-0.9,1.3-2,2.5-3.2,3.4c-1.6,1.2-3.4,2.3-5.2,3.3c-1.6,0.9-3.1,1.9-4.4,3.2
				c-1.1,1.1-2.3,2.3-3.2,3.6c-0.9,1.3-1.5,2.7-2,4.2c-0.6,1.6-0.9,3.2-1,4.9c-0.2,1.7-0.1,3.5-0.6,5.2c-0.4,1.5-1,2.9-1.8,4.2
				c-0.8,1.1-1.6,2.1-2.6,3.1c-0.9,0.9-1.9,1.8-2.8,2.8c-2.5,2.7-4.7,5.9-5.5,9.6c-0.3,1.3-0.6,2.7-0.6,4.1c-0.1,1.2,0,2.4,0.1,3.6
				c0.2,2.5,1,4.8,1.1,7.3c0,1.4,0.1,2.7-0.2,4.1c-0.3,1.5-1,2.9-2,4c-1.1,1.2-2.4,2.2-3.6,3.3c-1.5,1.3-2.8,2.9-3.6,4.6
				c-0.8,1.7-1.5,3.5-1.5,5.4c-0.1,1.1-0.1,2.2,0.1,3.3c0.3,1.9,1.2,3.6,2,5.4c0.6,1.2,0.9,2.4,1,3.7c0,1.2,0.1,2.4-0.1,3.6
				C9.2,176.3,8.9,177.4,8.6,178.5z"/>
			<path class="st2" d="M122.5,114.3c0.3-0.1,0.5-0.2,0.8-0.2c0.5,0.1,0.9,0.1,1.3,0.3c0.4,0.2,0.7,0.4,0.9,0.8
				c0.4,0.7,0.9,1.3,1.4,1.9c1.2,1.3,2.4,2.6,3.7,3.7c0.4,0.3,0.7,0.7,1.1,1c0.2,0.2,0.5,0.3,0.8,0.5c0.2,0.2,0.4,0.4,0.6,0.6
				c-0.1,0.3,0.2,0.6,0.2,0.8c-0.2,0.9-0.5,1.7-1.2,2.3c-1.5,1.2-2.9,2.5-4.4,3.8c-1.9,1.6-3.9,3.2-5.5,5.1
				c-0.6,0.7-1.3,1.3-1.9,1.9c-1.3,1.3-2.6,2.5-3.8,3.9c-1,1.1-2,2.3-2.9,3.6c-1,1.2-2,2.4-2.9,3.6c-1.2,1.6-2.5,3.2-3.6,4.9
				c-2.2,3-4.6,5.9-6.8,8.9c-2.7,3.6-5.1,7.5-7.1,11.6c-0.5,1-0.9,2.1-1.4,3.1c-0.1,0.2-0.2,0.4-0.3,0.6c-1.4-3.5-2.6-7-3.6-10.6
				c-0.6-2.1-1.1-4.1-1.5-6.2c-0.1-0.7-0.3-1.4-0.4-2.2c-0.1-0.6-0.2-1.3-0.4-1.9c-0.2-0.5-0.1-1.1-0.2-1.6c-0.3-1-0.4-2-0.6-3.1
				c-0.2-0.7-0.1-1.4-0.3-2c-0.2-1.3-0.2-2.7-0.4-4c-0.2-2.4-0.7-4.7-0.8-7.1c0-1.6,0-3.2,0-4.7c0-0.6,0.1-1.1,0.3-1.6
				c0.3,0.3,0,0.9,0.1,1.3c0.8-1,1.8-1.9,2.5-3.1c0.6-0.9,1.3-1.7,1.8-2.7c0.5-0.8,0.9-1.6,1.5-2.3c0,0,0,0,0,0
				c0.4-0.3,1-0.1,1.5-0.4c0.8-0.5,1.7-1.1,2.6-1.5c1.5-0.7,3.1-1.1,4.7-1.5c2.2-0.6,4.4-1,6.5-1.6c0.1,0,0.2,0,0.2-0.1
				c0,0,0.1,0,0.2,0c0.1,0,0.2,0,0.2-0.1c0.7-0.1,1.5-0.4,2.2-0.6c1.9-0.6,3.9-1.2,5.8-1.8c-0.8,1.1-1.6,2.2-2.4,3.3
				c-1.1,1.5-2.2,3-3.3,4.5c-1.1,1.4-2.3,2.8-3.4,4.2c-0.6,0.8-1.2,1.4-1.9,2.1c-0.1,0.1,0,0.3,0,0.4c0.1,0,0.2,0.1,0.3,0.1
				c0.5-0.2,0.8-0.7,1.1-1.1c0.7-0.8,1.3-1.7,2-2.5c0.7-0.8,1.4-1.7,2.1-2.5c1-1.3,2-2.6,2.9-3.9c1.2-1.7,2.6-3.4,3.7-5.1
				c2.1-0.7,4.1-1.7,6.3-2.2C121.4,114.5,122,114.4,122.5,114.3z"/>
			<path class="st3" d="M119.1,116.2c0.2-0.1,0.5-0.2,0.7-0.2C119.7,116.3,119.3,116.2,119.1,116.2z"/>
			<path class="st4" d="M105.1,119.8c0.1,0,0.2,0,0.2-0.1C105.3,119.8,105.2,119.8,105.1,119.8z"/>
			<path class="st4" d="M104.7,119.9c0.1,0,0.2,0,0.2-0.1C104.9,119.9,104.8,119.9,104.7,119.9z"/>
			<path class="st3" d="M100,122c0.5-0.1,0.9-0.2,1.4-0.3c-2,0.7-4,1.3-6,1.9c-0.7,0.2-1.5,0.4-2.2,0.5C95.4,123,97.7,122.5,100,122
				z"/>
			<path class="st4" d="M89.4,125L89.4,125C89.4,125,89.4,125,89.4,125L89.4,125z"/>
			<path class="st4" d="M83.6,135.5c0.1,0.9,0,1.9,0,2.8C83.6,137.4,83.6,136.4,83.6,135.5z"/>
			<path class="st1" d="M83.7,139.7c0-0.4-0.1-0.9,0-1.3C83.8,138.8,83.8,139.3,83.7,139.7z"/>
			<path class="st1" d="M83.8,139.9c0.2,0.1,0.1,0.4,0,0.6C83.7,140.3,83.7,140,83.8,139.9z"/>
			<path class="st1" d="M83.9,140.7c0.1,0,0.1,0.3,0,0.4C83.8,141.1,83.8,140.8,83.9,140.7z"/>
			<path class="st1" d="M84,141.5c0.1,0,0.1,0.4,0,0.4C83.9,141.7,83.9,141.6,84,141.5z"/>
			<path class="st1" d="M84.1,142.1c0.1,0,0.1,0.4,0,0.4C84,142.4,84,142.3,84.1,142.1z"/>
			<path class="st1" d="M84.2,142.8c0.1,0,0.1,0.4,0,0.4C84.1,143.1,84.1,143,84.2,142.8z"/>
			<path class="st4" d="M84.3,143.6c0.1,0,0.1,0.2,0.1,0.3C84.2,144,84.2,143.7,84.3,143.6z"/>
			<path class="st1" d="M110,147.9C110,148,110,148,110,147.9L110,147.9z"/>
			<path class="st1" d="M90.2,171.8C90.5,171.8,90,172.1,90.2,171.8L90.2,171.8z"/>
			<path class="st1" d="M90.3,172.1C90.6,172.1,90.1,172.4,90.3,172.1L90.3,172.1z"/>
			<path class="st1" d="M90.4,172.4C90.7,172.4,90.2,172.7,90.4,172.4L90.4,172.4z"/>
			<path class="st1" d="M90.5,172.7C90.8,172.7,90.3,173,90.5,172.7L90.5,172.7z"/>
			<path class="st1" d="M90.6,173C90.6,173,90.6,173,90.6,173L90.6,173z"/>
		</g>
		<path class="st5" d="M173.2,191.1c-0.1-0.4-0.2-0.7-0.4-1c0.1,0,0.2,0,0.3,0c0-0.5,0.1-0.9,0.1-1.4c0-0.2,0-0.3,0.1-0.5
			c0-0.1,0-0.2,0-0.4c0-0.8,0-1.5,0.1-2.2c0-2.7,0-5.4,0-8.1c0-1.2-0.1-2.4-0.1-3.6c-0.1-0.5-0.1-0.9-0.1-1.4
			c-0.3-2.9-0.9-5.8-1.8-8.5c-0.5-1.8-1.3-3.5-2.2-5.2c-0.6-1.2-1.3-2.2-1.9-3.4c-1.9-3.2-4.2-6-6.6-8.8c-0.7-0.7-1.4-1.4-2.1-2.1
			c-0.6-0.7-1.4-1.3-2-1.9c-1-1-2.1-2-3.2-3c-1.6-1.3-3.1-2.6-4.8-3.7c-1.6-1.1-3-2.3-4.5-3.6c-0.6-0.5-1.3-1-1.9-1.6
			c-1.3-1.3-2.7-2.5-3.8-4c-0.6-0.7-1.3-1.3-1.9-2c-0.7-0.7-1.5-1.5-2.5-1.7c-0.3-0.1-0.6-0.1-0.8,0.1c-0.1,0.3,0.2,0.6,0.2,0.8
			c-0.2,0.9-0.5,1.7-1.2,2.3c-1.5,1.2-2.9,2.5-4.4,3.8c-1.9,1.6-3.9,3.2-5.5,5.1c-0.6,0.7-1.3,1.3-1.9,1.9c-1.3,1.3-2.6,2.5-3.8,3.9
			c-1,1.1-2,2.3-2.9,3.6c-1,1.2-2,2.4-2.9,3.6c-1.2,1.6-2.5,3.2-3.6,4.9c-2.2,3-4.6,5.9-6.8,8.9c-2.7,3.6-5.1,7.5-7.1,11.6
			c-0.5,1-0.9,2.1-1.4,3.1c-0.1,0.2-0.2,0.4-0.3,0.6c-1.4-3.5-2.6-7-3.6-10.6c-0.6-2.1-1.1-4.1-1.5-6.2c-0.1-0.7-0.3-1.4-0.4-2.2
			c-0.1-0.6-0.2-1.3-0.4-1.9c-0.2-0.5-0.1-1.1-0.2-1.6c-0.3-1-0.4-2-0.6-3.1c-0.2-0.7-0.1-1.4-0.3-2c-0.2-1.3-0.2-2.7-0.4-4
			c-0.2-2.4-0.7-4.7-0.8-7.1c0-1.6,0-3.2,0-4.7c-1.3,1.3-2.6,2.7-4,4c-2.5,2.6-5.2,5-8,7.3c-2.7,2.1-5.3,4.3-7.9,6.3
			c-1.3,1-2.6,2.1-3.8,3.2c-2.9,2.4-5.9,4.8-8.7,7.3c-1.3,1.2-2.7,2.4-4,3.6c-1.3,1.2-2.5,2.5-3.7,3.8c-2.1,2.3-3.9,4.9-5.5,7.6
			c-1.9,3.3-3.6,6.7-5.1,10.3c-0.8,2.1-1.5,4.2-2.1,6.3c-0.3,1.2-0.6,2.3-0.9,3.5c0,0,0,0.1,0,0.1h143c0.1-0.1,0.2-0.3,0.3-0.5
			C172.9,194.6,173.1,192.8,173.2,191.1z"/>
		<g>
			<path class="st6" d="M72.1,196.8c0.1-0.6,0.3-1.2,0.4-1.9c0-0.1,0-0.1,0-0.2c0,0,0,0,0.1,0c0-0.1,0.1-0.2,0.1-0.2
				c-0.1-0.4,0.2-0.7,0.3-1.1c0.4-1.2,0.7-2.4,1.1-3.6c0.6-1.6,1.2-3.3,1.6-5c1.3-4.2,2.3-8.6,3.4-12.9c1.2-4.4,2.4-8.9,3.3-13.5
				c0.3-2,0.7-4,1-6c0.4-2.5,0.7-5,1.1-7.5c0.3-2.1,0.6-4.3,0.8-6.4c0.1-1.2,0.6-6.1,0.7-7.3c0.1-1.4,0.2-2.9,0.2-4.3
				c0.1-1.2,0-2.3,0-3.5c-0.1-1.2-0.3-2.5-0.5-3.7c-0.1-1.2-0.4-2.4-0.8-3.6c0.3,0.9,0.6,1.7,1,2.5c-0.1-0.5-0.4-1-0.5-1.5
				c-0.2-0.7-0.5-1.2-0.6-1.9c-0.1,0-0.3,0-0.4,0c0,0.1,0,0.2,0,0.3c-0.2-0.2-0.3-0.5-0.6-0.6c-0.8-0.3-1.6-0.6-2.4-0.9
				c-2-0.7-3.9-1.9-5.8-3c-0.9-0.6-1.7-1.3-2.6-2c-1.3-1-2.5-2.2-3.1-3.7c-0.4-0.9-0.5-2-0.6-3c-0.2-1.5-0.3-3.1-0.3-4.6
				c0-2.4-0.1-4.8-0.3-7.2c-0.2-1.9-0.6-3.8-1.1-5.7c-0.2-0.7-0.5-1.4-0.7-2.1c0.1,0,0.2,0,0.3-0.1c0.4,0.7,0.8,1.4,1,2.2
				c0.3,0.9,0.5,1.8,0.7,2.7c0.3,1.4,0.8,2.8,1.1,4.3c0.7,2.5,1.2,4.9,2,7.4c0.5,1.6,0.9,3.2,1.7,4.7c0.8,1.8,1.8,3.5,3,5
				c0.5,0.7,1.1,1.2,1.7,1.8c0.6,0.6,1.2,1.1,1.8,1.7c0.3,0.2,0.6,0.5,0.9,0.7c0.9,0.3,1.8,0.6,2.7,1.1c0.1,0.1,0.3,0.2,0.5,0.1
				c0.9-0.1,1.7-0.5,2.4-0.9c1.3-0.7,2.5-1.7,3.6-2.6c1.3-1.1,2.5-2.1,3.7-3.3c0.7-0.7,1.3-1.5,2-2.2c1.2-1.4,2.4-2.8,3.5-4.3
				c1-1.4,2.1-2.8,2.9-4.3c0.9-1.6,1.6-3.3,2.4-5c0.3-0.9,0.6-1.9,1-2.8c0,0,0.1,0.1,0.1,0.1c0,0.2-0.1,0.5,0,0.8
				c0.1,0.3-0.1,0.6-0.1,0.9c-0.1,1.3-0.3,2.7-0.6,4c-0.4,1.9-0.7,3.9-1.1,5.8c-0.5,2.3-1,4.5-1.6,6.7c-0.6,2.2-1.2,4.4-1.9,6.6
				c-0.5,1.6-1,3.2-1.5,4.9c-0.6,2.1-1.5,4.1-2.3,6.1c-0.7,1.7-1.5,3.3-2.2,5c-0.4,0.8-0.7,1.7-1.2,2.5c0.6,0.3,1.3,0.6,1.9,0.9
				c0.9,0.3,1.8,0.5,2.8,0.6c1.4,0.1,2.8,0.4,4.2,0.4c1.3,0,2.5-0.1,3.7-0.4c2-0.4,3.8-1.2,5.6-2.1c1.6-0.7,3-1.6,4.4-2.7
				c0.9-0.8,1.9-1.6,2.7-2.5c1.5-1.8,2.9-3.7,3.9-5.8c0.5-0.9,0.9-1.7,1.3-2.6c0.3-0.9,0.7-1.8,0.7-2.8c0-0.2-0.1-0.3-0.2-0.4
				c-0.6-0.9-1.3-1.7-2-2.6c-2.1-2.9-3.8-6.1-5.2-9.4c-0.6-1.3-0.9-2.6-1.4-3.9c-0.6-1.9-1.1-3.8-1.4-5.7c-0.5-2.5-1-5-1.3-7.5
				c-0.1-1.1-0.2-2.2-0.4-3.3c-0.1,0-0.2-0.1-0.3-0.1c-0.2-0.1-0.5-0.3-0.8-0.2c-1,0.3-2,0.5-3,0.4c-0.4,0-0.4-0.4-0.4-0.7
				c0.2-1.9,0.2-3.7,0.4-5.6c0.1-0.9,0.1-1.9,0.1-2.8c0-1.6,0-3.3,0-4.9c0-0.8,0.1-1.5-0.1-2.3c-0.1-0.8-0.2-1.7-0.4-2.6
				c-0.1-0.3,0-0.6,0-0.9c-0.2-0.3-0.4-0.6-0.5-1c-0.4-1.3-1.3-2.3-2.1-3.3c-0.7-1-1.7-1.7-2.6-2.4c-0.9-0.7-1.9-1.2-2.8-1.8
				c-1.1-0.6-2.2-1.2-3.4-1.7c-0.7-0.3-1.4-0.5-2.1-0.7c-1.4-0.5-2.8-0.9-4.2-1.3c-0.9-0.2-1.9-0.5-2.8-0.7
				c-1.1-0.3-2.3-0.4-3.4-0.6c-1-0.2-1.9-0.2-2.9-0.3c-0.7-0.1-1.5-0.2-2.2-0.2c-1.1-0.1-2.1-0.1-3.2-0.1c-3.1,0-6.1,0-9.2-0.3
				c-0.6,0-1.2-0.2-1.8-0.3c-0.3,0-0.3,0.3-0.4,0.5c0.2-0.1,0.3-0.2,0.4-0.4c0.1,0.1,0.1,0.1,0.2,0.2c-0.2,1.3-0.6,2.5-0.9,3.8
				c-0.2,0.9-0.4,1.8-0.7,2.7c-0.6,2.1-0.9,4.3-1.2,6.5c-0.2,2.5-0.4,5-0.4,7.5c0,1.1,0.2,2.1,0.4,3.2c0.5,2.1,1,4.2,1.3,6.4
				c0.3,1.6,0.5,3.3,0.5,4.9c0,1.1,0.1,2.1,0.1,3.2c0,0.4,0.2,0.9,0.2,1.3c-0.1,0.9,0,1.8-0.1,2.7c-0.1,1.6-0.4,3.3-0.4,4.9
				c0,0.3,0,0.7-0.1,1c-0.1,0.3-0.5,0.2-0.6,0c-0.4-1-0.6-2-0.9-3c-0.2-0.9-0.4-1.8-0.5-2.7c-0.2-1.7-0.1-3.3,0-5
				c-0.1-1.4,0.1-2.9,0-4.3c0-1.4-0.3-2.8-0.5-4.2c-0.1-0.7-0.4-1.3-0.9-1.8c-0.1-0.1-0.4-0.2-0.6-0.1c-0.4,0.3-0.6,0.9-0.7,1.3
				c-0.3,1.1-0.4,2.2-0.6,3.3c-0.2,0-0.5,0.1-0.5-0.2c-0.2-0.9-0.3-1.8-0.4-2.7c-0.2-0.9-0.2-1.8-0.6-2.6c-0.2-0.4-0.6-0.5-0.9-0.4
				c0-0.2,0-0.4,0-0.5c-0.1,0.6-0.1,1.1-0.2,1.7c-0.2,0.8-0.3,1.5-0.4,2.3c-0.1,1.2-0.4,2.3-0.5,3.5c-0.1,1.4-0.2,2.8-0.3,4.1
				c-0.1,1-0.1,1.9-0.2,2.9c-0.3,2-0.5,4-0.1,6c0.5,2.6,1,5.2,1.8,7.8c0-0.1,0-0.2,0-0.3c0.4,0.5,0.6,1.1,0.9,1.6
				c0.1-0.4,0.2-0.7,0.4-1.1c0.2-0.4,0.6-0.6,1-0.4c0.5,0.2,0.8,0.6,1.3,0.8c0.5,0,0.9-0.3,1.2-0.6c0.2-0.2,0.6-0.3,0.9-0.1
				c0.4,0.3,0.8,0.7,0.9,1.2c0.2,0.5,0.5,1.1,1.1,1.2c0.6,0.1,1.1,0.2,1.7,0.4c0,0.1,0.1,0.2,0.1,0.2c0.1-0.1,0.1-0.1,0.2-0.2
				c0.4,0.1,0.9,0.2,1.2,0.5c0.5,0.8,1,1.7,1.7,2.5c0.6,0.7,1.3,1.3,2,1.9c0.7,0.6,1.4,1,2.1,1.5c0.6,0.5,1.3,1,2,1.5
				c1,0.6,1.8,1.3,2.8,1.9c0.8,0.5,1.6,0.9,2.2,1.6c0.5,0.6,0.5,1.3,0.4,2c-0.1,0.8-0.5,1.5-0.8,2.3c-0.4,1.3-0.9,2.5-1.5,3.7
				c-0.5,1-0.8,2.1-1.4,3.1c-0.3,0.6-0.6,1.1-0.9,1.7c-1.6,4.1-3.7,8.1-6.4,11.6c0-0.1,0-0.2-0.1-0.2c-0.5,1.5-1,3-1.6,4.5
				c-0.7,1.9-1.5,3.7-2.4,5.5c-1.7,3.3-3.3,6.6-5.1,9.8c-1.9,3.3-3.8,6.7-5.8,10c-0.9,1.6-1.8,3.1-2.7,4.7c-1,1.8-2.2,3.5-3.1,5.4
				c-0.9,1.8-1.9,3.7-2.8,5.6c-0.8,1.7-1.6,3.5-2.2,5.3c-0.7,1.8-1.3,3.7-2,5.6H72.1z"/>
			<path class="st7" d="M64.6,48.7c0.2-0.1,0.3-0.2,0.4-0.4c0.1,0.1,0.1,0.1,0.2,0.2c-0.2,1.3-0.6,2.5-0.9,3.8
				c-0.2,0.9-0.4,1.8-0.7,2.7c-0.6,2.1-0.9,4.3-1.2,6.5c-0.2,2.5-0.4,5-0.4,7.5c0,1.1,0.2,2.1,0.4,3.2c0.5,2.1,1,4.2,1.3,6.4
				c0.3,1.6,0.5,3.3,0.5,4.9c0,1.1,0.1,2.1,0.1,3.2c0,0.4,0.2,0.9,0.2,1.3c-0.1,0.9,0,1.8-0.1,2.7c-0.1,1.6-0.4,3.3-0.4,4.9
				c0,0.3,0,0.7-0.1,1c-0.1,0.3-0.5,0.2-0.6,0c-0.4-1-0.6-2-0.9-3c-0.2-0.9-0.4-1.8-0.5-2.7c-0.2-1.7-0.1-3.3,0-5
				c-0.1-1.4,0.1-2.9,0-4.3c0-1.4-0.3-2.8-0.5-4.2c-0.1-0.7-0.4-1.3-0.9-1.8c-0.1-0.1-0.4-0.2-0.6-0.1c-0.4,0.3-0.6,0.9-0.7,1.3
				c-0.3,1.1-0.4,2.2-0.6,3.3c-0.2,0-0.5,0.1-0.5-0.2c-0.2-0.9-0.3-1.8-0.4-2.7c-0.2-0.9-0.2-1.8-0.6-2.6c-0.2-0.4-0.6-0.5-0.9-0.4
				c0-0.2,0-0.4,0-0.5c0.1-1,0.3-2,0.3-3c0-1.3,0.2-2.7,0.5-4c0.5-2.4,1.1-4.8,1.9-7c0.5-1.3,1.2-2.6,1.8-3.9
				C62,53.5,63.1,51,64.6,48.7L64.6,48.7z"/>
			<path class="st8" d="M112.5,59.4c1.5-0.4,3.2-0.4,4.7,0.2c0.7,0.3,1.5,0.8,2,1.3c1.1,1.3,1.8,2.9,2.3,4.5c0.4,1.5,0.5,3,0.3,4.5
				c-0.2,1.8-0.9,3.5-1.7,5.1c-1.5,2.7-3.7,4.9-6.3,6.5c-0.5,0.3-1,0.6-1.6,0.8c-0.2-0.1-0.5-0.3-0.8-0.2c-1,0.3-2,0.5-3,0.4
				c-0.4,0-0.4-0.4-0.4-0.7c0.2-1.9,0.2-3.7,0.4-5.6c0.1-0.9,0.1-1.9,0.1-2.8c0-1.6,0-3.3,0-4.9c0-0.8,0.1-1.5-0.1-2.3
				c-0.1-0.8-0.2-1.7-0.4-2.6c-0.1-0.3,0-0.6,0-0.9c0.2-0.5,0.6-0.9,1-1.4C110,60.4,111.2,59.7,112.5,59.4z"/>
			<path class="st7" d="M66.9,82.8c0.1,0,0.2,0,0.3-0.1c0.4,0.7,0.8,1.4,1,2.2c0.3,0.9,0.5,1.8,0.7,2.7c0.3,1.4,0.8,2.8,1.1,4.3
				c0.7,2.5,1.2,4.9,2,7.4c0.5,1.6,0.9,3.2,1.7,4.7c0.8,1.8,1.8,3.5,3,5c0.5,0.7,1.1,1.2,1.7,1.8c0.6,0.6,1.2,1.1,1.8,1.7
				c0.3,0.2,0.6,0.5,0.9,0.7c0.9,0.3,1.8,0.6,2.7,1.1c0.1,0.1,0.3,0.2,0.5,0.1c0.9-0.1,1.7-0.5,2.4-0.9c1.3-0.7,2.5-1.7,3.6-2.6
				c1.3-1.1,2.5-2.1,3.7-3.3c0.7-0.7,1.3-1.5,2-2.2c1.2-1.4,2.4-2.8,3.5-4.3c1-1.4,2.1-2.8,2.9-4.3c0.9-1.6,1.6-3.3,2.4-5
				c0.3-0.9,0.6-1.9,1-2.8c0,0,0.1,0.1,0.1,0.1c0,0.2-0.1,0.5,0,0.8c0.1,0.3-0.1,0.6-0.1,0.9c-0.1,1.3-0.3,2.7-0.6,4
				c-0.4,1.9-0.7,3.9-1.1,5.8c-0.5,2.3-1,4.5-1.6,6.7c-0.6,2.2-1.2,4.4-1.9,6.6c-0.5,1.6-1,3.2-1.5,4.9c-0.6,2.1-1.5,4.1-2.3,6.1
				c-0.7,1.7-1.5,3.3-2.2,5c-0.4,0.8-0.7,1.7-1.2,2.5c-0.4-0.2-0.7-0.5-1.1-0.7c-0.5-0.3-0.9-0.7-1.3-1.1c-0.8-0.7-1.5-1.6-1.9-2.7
				c-0.4-1.2-0.7-2.5-1.1-3.7c-0.5-1.3-0.9-2.7-1.4-4c-0.2-0.5-0.5-1-0.7-1.6c-0.1-0.5-0.4-1-0.5-1.5c-0.2-0.7-0.5-1.2-0.6-1.9
				c-0.1,0-0.3,0-0.4,0c0,0.1,0,0.2,0,0.3c-0.2-0.2-0.3-0.5-0.6-0.6c-0.8-0.3-1.6-0.6-2.4-0.9c-2-0.7-3.9-1.9-5.8-3
				c-0.9-0.6-1.7-1.3-2.6-2c-1.3-1-2.5-2.2-3.1-3.7c-0.4-0.9-0.5-2-0.6-3c-0.2-1.5-0.3-3.1-0.3-4.6c0-2.4-0.1-4.8-0.3-7.2
				c-0.2-1.9-0.6-3.8-1.1-5.7C67.4,84.2,67.1,83.5,66.9,82.8z"/>
			<path class="st7" d="M76.5,89.4c0.8,0,1.5,0.1,2.3,0.1c0.3,0,0.7,0.2,0.5,0.5c-0.1,0.3-0.4,0.6-0.6,0.9c-0.7,1-1.6,2-2.6,2.7
				c-0.3,0.2-0.6,0.3-0.9,0.4c-0.3,0-0.4-0.4-0.5-0.6c-0.1-0.3,0-0.6,0.1-0.9c0.2-0.9,0.3-1.8,0.6-2.7
				C75.6,89.4,76.1,89.5,76.5,89.4z"/>
			<path class="st7" d="M56.5,101.9c0.4,0.5,0.6,1.1,0.9,1.6c0.1-0.4,0.2-0.7,0.4-1.1c0.2-0.4,0.6-0.6,1-0.4
				c0.5,0.2,0.8,0.6,1.3,0.8c0.5,0,0.9-0.3,1.2-0.6c0.2-0.2,0.6-0.3,0.9-0.1c0.4,0.3,0.8,0.7,0.9,1.2c0.2,0.5,0.5,1.1,1.1,1.2
				c0.6,0.1,1.1,0.2,1.7,0.4c0,0.1,0.1,0.2,0.1,0.2c0.1-0.1,0.1-0.1,0.2-0.2c0.4,0.1,0.9,0.2,1.2,0.5c0.5,0.8,1,1.7,1.7,2.5
				c0.6,0.7,1.3,1.3,2,1.9c0.7,0.6,1.4,1,2.1,1.5c0.6,0.5,1.3,1,2,1.5c1,0.6,1.8,1.3,2.8,1.9c0.8,0.5,1.6,0.9,2.2,1.6
				c0.5,0.6,0.5,1.3,0.4,2c-0.1,0.8-0.5,1.5-0.8,2.3c-0.4,1.3-0.9,2.5-1.5,3.7c-0.5,1-0.8,2.1-1.4,3.1c-0.3,0.6-0.6,1.1-0.9,1.7
				c-1.6,4.1-3.7,8.1-6.4,11.6c0-0.1,0-0.2-0.1-0.2c0.6-1.8,1.1-3.7,1.6-5.6c0.4-1.5,0.6-3,1-4.6c0.4-2,0.5-4.1,0.4-6.2
				c0-0.3-0.3-0.5-0.5-0.6c-0.5-0.3-0.9-0.7-1.4-1c-0.7-0.5-1.3-1.1-1.9-1.6c-0.7-0.7-1.5-1.3-2.2-2.1c-0.6-0.7-1.3-1.3-1.9-1.9
				c-1.4-1.3-2.8-2.7-3.9-4.2c-1.1-1.4-2-3-2.6-4.8c-0.3-1.1-0.7-2.3-1-3.4c-0.2-0.8-0.5-1.6-0.7-2.4
				C56.5,102.1,56.5,101.9,56.5,101.9z"/>
		</g>
		<g>
			<path class="st9" d="M103,33.9c0.9-0.6,1.8-1.1,2.7-1.6c0,0.1,0,0.2,0.1,0.3c-0.7,0.6-1.6,0.9-2.2,1.5
				C103.5,34.2,103.2,34,103,33.9z"/>
			<path class="st10" d="M103,33.9c0,0,0.3,0.2,0.5,0.2c-0.2,0.2-0.4,0.4-0.6,0.6l0,0c-0.1-0.1-0.3-0.1-0.4-0.2
				C102.6,34.3,102.8,34.1,103,33.9z"/>
			<path class="st11" d="M102.3,34.5c0,0,0.1,0,0.1,0.1c0.1,0.1,0.3,0.1,0.4,0.2c-0.9,0.7-1.8,1.3-2.5,2.2c0,0-0.1,0-0.1,0
				c-0.2-0.1-0.3-0.1-0.4-0.2c0,0-0.1,0-0.1-0.1c0.5-0.2,0.8-0.6,1.1-0.9C101.2,35.3,101.8,34.9,102.3,34.5z"/>
			<path class="st12" d="M65.8,36.6c0.3-0.1,0.7-0.1,1,0c0,0.1,0,0.2,0,0.3c-1.5,0.4-3,1-4.3,1.9c-1.7,1.1-3.2,2.4-4.5,3.9
				c-1,1.2-1.8,2.5-2.4,3.9c-0.1,0.3-0.2,0.7-0.6,0.8c0-0.2,0.1-0.4,0.1-0.6c0.6-1.4,1.2-2.7,2.2-3.9c1.2-1.6,2.8-3,4.4-4.2
				C63,37.8,64.4,37,65.8,36.6z"/>
			<path class="st10" d="M99.7,36.7c0.1,0.1,0.3,0.1,0.4,0.2c-0.2,0.2-0.3,0.4-0.5,0.7l-0.1,0c-0.2,0-0.3-0.1-0.5-0.2
				c0,0-0.1,0-0.1,0C99.3,37.2,99.5,37,99.7,36.7z"/>
			<path class="st9" d="M99.1,37.4c0.1,0.1,0.3,0.1,0.5,0.2c-0.4,0.4-0.8,0.9-1.2,1.2C98.5,38.2,98.8,37.8,99.1,37.4z"/>
			<path class="st12" d="M86.6,52.8c0.8-0.1,1.5,0.1,2.3,0.3c1.2,0.4,2.5,0.8,3.7,1.3c0.8,0.3,1.5,0.7,2.1,1.4
				c-0.1,0-0.2,0.1-0.2,0.1c-1-0.8-2.2-1.3-3.4-1.7c-1.3-0.4-2.7-0.8-4-1.2C86.9,53,86.7,52.9,86.6,52.8z"/>
			<path class="st13" d="M84.6,62.2c1.7-0.3,3.4-0.3,5.1-0.2c1.7,0.1,3.4,0.4,5,1c0.5,0.2,1,0.4,1.6,0.6c0,0,0,0.1,0,0.1
				c-1,0.3-2,0.1-3,0.1c-1.7,0.1-3.4,0.1-5.1,0.5c-2.7,0.8-5.4,1.9-8.2,2.2c-0.4,0-0.8,0.1-1.1-0.2c-0.3-0.2-0.1-0.6,0-0.9
				c0.2-0.6,0.6-1,1.1-1.3C81.2,63.1,82.9,62.4,84.6,62.2z"/>
			<path class="st13" d="M60.8,66.4c0.8-0.3,1.7-0.5,2.5-0.6c2.1-0.2,4.2,0.1,6.2,0.6c0.5,0.1,0.9,0.5,1.3,0.8
				c-0.1,0.3-0.1,0.7-0.2,1c-0.7,0.2-1.3,0.4-2,0.4c-2.1,0-4.1,0.4-6.2,0.5c-1.5,0-3,0.3-4.5,0.7c-0.4,0.1-0.8,0.4-1.1,0
				c-0.1-0.3-0.1-0.6,0-0.8c0.2-0.3,0.5-0.5,0.8-0.8C58.4,67.4,59.6,66.8,60.8,66.4z"/>
			<path class="st14" d="M70.8,67.2c0.1,0.1,0.2,0.3,0.3,0.4c-0.1,0-0.2,0.1-0.3,0.1c0.1,0.1,0.1,0.2,0.2,0.3
				c-0.1,0.1-0.3,0.1-0.4,0.2C70.7,67.9,70.7,67.6,70.8,67.2z"/>
			<path class="st15" d="M88,70.6c0.6-0.3,1.5,0.2,1.5,0.9c0,0.9-0.2,1.8-0.8,2.4c-0.3,0.3-0.8,0.3-1.1,0.1
				c-0.2-0.2-0.3-0.5-0.4-0.8c-0.1-0.6,0-1.2,0.2-1.7C87.5,71.1,87.7,70.7,88,70.6z"/>
			<path class="st15" d="M63.9,74.4c0.5,0,0.9-0.4,1.3-0.2c0.4,0.2,0.5,0.7,0.6,1.1c0,0.6,0,1.2-0.1,1.7c-0.2,0.5-0.8,0.9-1.3,0.7
				c-0.5-0.3-0.6-1-0.7-1.5C63.6,75.5,63.9,75,63.9,74.4z"/>
			<path class="st16" d="M90.6,74.4c0.1-0.1,0.3-0.1,0.5-0.1c-0.3,0.6-1,1-1.6,1.4c-0.6,0.3-1.2,0.6-1.8,0.4c-0.3,0-0.5-0.2-0.8-0.3
				c0-0.1,0-0.2,0-0.3c0.5,0,1,0.1,1.5,0C89.2,75.2,90,74.9,90.6,74.4z"/>
			<path class="st17" d="M109.2,76.7c0.9-0.6,1.9-1.1,2.7-1.9c0.1,0,0.2,0.1,0.3,0.1c-0.2,0.4-0.5,0.7-0.9,0.9l0,0
				c-0.2,0-0.3,0-0.5,0.1c-0.5,0.3-1,0.6-1.5,0.8C109.3,76.8,109.3,76.8,109.2,76.7z"/>
			<path class="st18" d="M115.8,67c-0.2-0.9-0.9-1.6-1.7-2c-0.7-0.3-1.6-0.2-2.3,0.2c-0.6,0.4-1.1,1-1.5,1.6
				c-0.1,0.2-0.2,0.5-0.3,0.8c0.1,0,0.2,0,0.3,0c0.1-0.2,0.2-0.4,0.2-0.5c0.4-0.6,0.9-1.1,1.6-1.4c0.5-0.2,1.1-0.3,1.7-0.1
				c0.7,0.3,1.3,1,1.4,1.8c0.2,0.9,0,1.9-0.3,2.8c-0.7,1.7-1.6,3.3-2.7,4.8c-0.3,0.3-0.5,0.7-0.9,0.9c-0.2,0.1-0.3,0.3-0.4,0.4
				c-0.3,0.1-0.5,0.3-0.7,0.5c0.1,0.1,0.2,0.2,0.2,0.2c0.2-0.1,0.4-0.2,0.6-0.3c0.6-0.5,1.2-1,1.7-1.6c1.3-1.5,2.2-3.2,2.9-5
				C115.9,69.1,116.1,68,115.8,67z"/>
			<path class="st11" d="M60.5,76.6c0.5,0.2,0.4,0.8,0.3,1.3c-0.2,0.6-0.5,1.2-1,1.6c-0.1,0.1-0.2,0-0.4,0.1
				c0.3-0.4,0.6-0.8,0.7-1.3C60.4,77.7,60.4,77.1,60.5,76.6z"/>
			<path class="st12" d="M76.6,76.6c0.1,0,0.2,0,0.3,0c0.5,1.2,0.5,2.6,0.3,3.9c-0.2,1.2-0.4,2.3-0.8,3.4c-0.1,0.3-0.2,0.5-0.5,0.7
				c0.1-0.5,0.3-1.1,0.4-1.6c0.3-1.5,0.6-3.1,0.5-4.6C76.7,77.9,76.6,77.3,76.6,76.6z"/>
			<path class="st9" d="M96.1,77.3c0.1,0,0.2,0,0.3,0c-0.1,1.1-1.1,1.8-1.7,2.7l-0.1,0c-0.1-0.1-0.2-0.1-0.3-0.2l0,0
				C95.1,79,95.7,78.1,96.1,77.3z"/>
			<path class="st8" d="M88.2,79c0.8-0.5,1.7-0.8,2.6-0.7c1.3,0.1,2.6,0.5,3.6,1.3l0,0c-0.6,0.7-1.3,1.1-1.9,1.7
				c0.9-0.3,1.5-0.9,2.2-1.5l0.1,0c0.8,0.6,1.4,1.6,1.5,2.6c0.6,2.1-0.6,4.5-2.4,5.7c-0.9,0.5-2,1-3.1,1c-1.4,0.1-2.7-0.5-3.7-1.3
				c-0.8-0.8-1.5-1.9-1.5-3c0-0.8-0.1-1.6,0.1-2.4C85.9,81,86.9,79.8,88.2,79z"/>
			<path class="st19" d="M92.4,81.4c0.6-0.6,1.4-1.1,1.9-1.7c0.1,0.1,0.2,0.1,0.3,0.2C94,80.5,93.3,81.1,92.4,81.4z"/>
			<path class="st12" d="M66.5,83.3c0.2,0.1,0.4,0.3,0.5,0.6c0.1,0.7-0.1,1.5-0.4,2.1c-0.1,0.3-0.3,0.5-0.6,0.6
				c-0.1-0.5,0.3-0.9,0.4-1.4C66.5,84.6,66.4,83.9,66.5,83.3z"/>
			<path class="st11" d="M81.1,86.3c0.6-0.1,0.8,0.6,0.8,1.1c0,0.6,0,1.3-0.5,1.7c-0.1-0.1-0.1-0.2-0.2-0.3c0,0,0-0.1,0-0.2
				c0,0,0.2,0.1,0.2,0.2c0-0.4,0-0.8-0.1-1.2c-0.1-0.2-0.1-0.3-0.2-0.4c-0.1,0.2-0.1,0.4-0.1,0.6c0-0.2,0-0.5,0.1-0.6
				C81.2,86.8,81.1,86.5,81.1,86.3z"/>
			<path class="st9" d="M41.5,91c0.3-0.3,0.6-0.7,1-0.6c-2,1.8-3,4.4-3.6,6.9c-0.2,1-0.4,2-0.2,2.9c0,0.2,0.1,0.5,0,0.7
				c-0.6-1.2-0.4-2.6-0.1-3.9C39.2,94.8,39.9,92.6,41.5,91z"/>
			<path class="st8" d="M79.9,94.6c1-0.1,2-0.2,2.9-0.3c1.1-0.1,2.1,0,3.2,0.1c0.6,0,1.2,0.2,1.5,0.6c-0.9,0.2-1.7,0.5-2.6,0.7
				c-2.3,0.5-4.8,0.5-7.1,1.2c-1,0.4-2,0.8-3,1.2c-0.7-0.1-1.3-0.2-2-0.3c-0.3-0.1-0.6-0.2-0.6-0.5c0-0.3,0.3-0.4,0.5-0.5
				c1.1-0.5,2.1-1.1,3.2-1.4C77.3,95,78.6,94.8,79.9,94.6z"/>
			<path class="st20" d="M87.6,95L87.6,95c0,0.1,0,0.3,0,0.5c-0.3,0.1-0.7,0.3-1,0.4c-0.2,0-0.5,0.1-0.7,0.2
				c-0.4,0.1-0.9,0.2-1.3,0.3c-2,0.3-4.1,0.4-6.1,1c-1.1,0.3-2.1,1-3.3,1.1c-0.1-0.1-0.2-0.2-0.2-0.3c1-0.4,2-0.8,3-1.2
				c2.3-0.7,4.7-0.8,7.1-1.2C85.8,95.5,86.7,95.2,87.6,95z"/>
			<path class="st19" d="M86.6,95.9c0.3-0.1,0.7-0.3,1-0.4c-0.1,0.2-0.1,0.4-0.3,0.5c-0.9,0.2-1.8,0.9-2.8,0.7c0-0.1,0-0.2,0-0.3
				c0.4-0.1,0.9-0.2,1.3-0.3C86.1,96.1,86.3,96,86.6,95.9z"/>
			<path class="st21" d="M85.9,96.1c0.2-0.1,0.5-0.2,0.7-0.2C86.3,96,86.1,96.1,85.9,96.1z"/>
			<path class="st8" d="M84.5,96.7c1,0.2,1.9-0.4,2.8-0.7c-0.7,1.5-1.9,2.7-3.1,3.8c-1.6,1.5-3.8,2.3-6.1,2.2c-1.5-0.1-3-1.4-3-3
				c0-0.2,0-0.5,0-0.7c1.2-0.1,2.2-0.8,3.3-1.1c2-0.6,4.1-0.6,6.1-1C84.5,96.5,84.5,96.6,84.5,96.7z"/>
			<path class="st22" d="M93,102.2c0.1-0.2,0.3-0.3,0.5-0.4c-0.1,0.2-0.2,0.5-0.3,0.7c-0.8,1-1.7,1.9-2.6,2.7
				c-0.4,0.4-0.8,0.8-1.3,0.9c0.3-0.6,0.9-1,1.3-1.4C91.4,103.9,92.2,103.1,93,102.2z"/>
			<g>
				<path class="st23" d="M74.4,74.7c0.3,1.9,0.5,3.7,0.4,5.6c0,1.4-0.3,2.7-0.6,4c-0.2,1.1-0.6,2.2-0.7,3.3c0,0.4-0.1,1,0.2,1.3
					c0.4,0.5,1,0.8,1.6,0.9c0.8,0.2,1.7,0.1,2.6,0.2c0.4,0,0.9-0.2,1.3,0c0.4,0.2,0.9,0,1.3-0.2c0.4-0.2,0.6-0.7,0.7-1.1
					c0,0,0-0.1,0-0.2c0,0,0.2,0.1,0.2,0.2c0-0.4,0-0.8-0.1-1.2c-0.1-0.2-0.1-0.3-0.2-0.4c-0.1,0.2-0.1,0.4-0.1,0.6
					c0,0.1,0,0.3,0,0.4c-0.2,0.5-0.3,1.2-0.8,1.5c-0.5,0.3-1.1,0.2-1.7,0.1c-1.2-0.1-2.5,0.1-3.7-0.4c-0.4-0.2-0.8-0.5-0.8-1
					c0-1.7,0.8-3.2,1.1-4.8c0.5-2.1,0.5-4.3,0.3-6.4c-0.1-1.6-0.5-3.3-1.2-4.8c-0.2-0.5-0.5-1-0.9-1.3c0,0.5,0.3,1,0.5,1.5
					C74.1,73.1,74.3,73.9,74.4,74.7z"/>
				<path class="st23" d="M58.5,79.6c0-0.8-0.2-1.7-0.3-2.5c-0.1-0.6-0.2-1.3-0.4-1.9c-0.1-0.3-0.3-0.7-0.5-0.9
					c-0.3-0.2-0.8-0.1-0.9,0.2c-0.2,0.4-0.3,0.8-0.5,1.2c0.4-0.2,0.5-0.7,0.8-1c0.3-0.2,0.5,0.2,0.6,0.4c0.4,1.1,0.5,2.2,0.6,3.4
					c0.1,0.8,0.3,1.7,0.2,2.5c-0.2,1.6-0.2,3.2-0.4,4.8c-0.1,1,0,1.9,0,2.9c0,1.1,0,2.2,0.2,3.3c0.1,0.8,0.3,1.5,0.5,2.2
					c0.1,0.6,0.3,1.2,0.5,1.7c0.1,0,0.1,0,0.2-0.1c-0.2-0.7-0.3-1.5-0.5-2.2l0,0.1c0-0.6-0.2-1.1-0.2-1.6c-0.3-1.7-0.3-3.5-0.1-5.2
					c0.2-1.2,0.1-2.4,0.2-3.6c0-0.8,0.1-1.5,0.1-2.3c0.2-1,0.4-2,0.6-3c0.1-0.7,0.4-1.3,0.5-2c-0.1,0-0.2,0-0.2,0
					C59.1,77.2,58.8,78.4,58.5,79.6z"/>
				<path class="st23" d="M66.3,79.3c0.4-0.2,0.8-0.4,1-0.8c-0.1,0-0.3-0.1-0.4,0c-0.8,0.4-1.7,0.6-2.6,0.7c-0.2,0-0.3,0.1-0.4,0.2
					c0.2,0.1,0.3,0.2,0.6,0.3C65.1,79.7,65.8,79.5,66.3,79.3z"/>
				<path class="st23" d="M56.1,95.9c-0.4-1.8-0.8-3.5-0.9-5.4c0-1.1,0-2.1,0-3.2c0.2-0.4,0.1-0.9,0.1-1.3c0-0.6,0.1-1.1,0-1.7
					c-0.1-0.4-0.2-0.8-0.3-1.3c-0.2,0.1-0.2,0.3-0.2,0.5c0,0.7,0,1.5,0.1,2.2c0,0.2,0,0.3,0,0.5c0.1,1,0,1.9,0,2.9
					c-0.1,1.6,0.2,3.2,0.4,4.7c0.2,1.2,0.5,2.4,1,3.5c0.1,0.5,0.3,1,0.6,1.5c0,0,0.1-0.1,0.2-0.1c-0.2-0.5-0.3-1-0.6-1.5
					C56.4,96.9,56.3,96.4,56.1,95.9z"/>
				<path class="st23" d="M106,88.2c-0.1,0.2-0.1,0.4-0.1,0.6c-0.2,0.4-0.4,0.9-0.6,1.3c-0.7,2-1.7,3.9-2.6,5.7
					c-0.4,0.7-0.8,1.4-1.2,2.1c-0.3,0.5-0.6,1-1,1.5c-1.2,1.8-2.5,3.5-3.8,5.2c-0.6,0.7-1.2,1.3-1.8,2c-0.6,0.6-1.2,1.3-1.8,1.9
					c-1.7,1.8-3.7,3.2-5.9,4.4c-1.1,0.6-2.4,1.1-3.6,1.5c-0.2,0.1-0.4-0.1-0.5-0.2c-1-0.7-2.1-1.1-3.1-1.6c-0.9-0.5-1.9-0.9-2.8-1.4
					c-0.7-0.4-1.5-0.8-2.2-1.3c-1.4-1-2.6-2.2-3.8-3.5c-0.5-0.5-1-1.1-1.2-1.8c-0.2-1.6-0.3-3.2-0.6-4.8c-0.2-1.7-0.5-3.4-0.4-5.1
					c0.1-1.6,0.1-3.1-0.1-4.7c-0.1-1.3-0.3-2.5-0.5-3.8c-0.1-1-0.4-2-0.7-3c-0.2-0.4-0.4-0.8-0.8-1c-0.3-0.2-0.7-0.2-1.1-0.1
					c-0.4,0.2-0.5,0.7-0.6,1.1c-0.2,0.8-0.4,1.6-0.5,2.5c-0.3,1.2-0.2,2.5-0.3,3.7c-0.1,1.4-0.3,2.9-0.3,4.4
					c-0.1,0.8-0.1,1.6-0.3,2.4c-0.3-0.6-0.5-1.2-0.6-1.8c-0.4-1.7-0.8-3.5-0.9-5.3c0-0.7,0.1-1.4,0.1-2.1c0.1-0.4,0.1-0.8,0.1-1.2
					c0-0.8,0-1.6-0.1-2.4c-0.1-1.1-0.1-2.2-0.2-3.3C62,78.7,62,77,61,75.6c-0.1,0-0.2,0-0.3,0c0.1,0.6,0.4,1.1,0.6,1.7
					c0.5,1.7,0.6,3.5,0.8,5.2c0.1,1.2,0,2.5,0,3.7c-0.1,0.7-0.1,1.3-0.2,2c-0.3,2.1,0.2,4.2,0.7,6.2c0.2,0.9,0.5,1.8,1.1,2.6
					c0,0.6-0.2,1.1-0.2,1.7c-0.1,0.2-0.1,0.5-0.1,0.7c0.1,0,0.2,0.1,0.2,0.1c0-0.2,0.1-0.3,0.1-0.5c0.2-0.8,0.3-1.6,0.5-2.4
					c0.3-1.8,0.4-3.7,0.6-5.5c0.1-1.3,0.3-2.6,0.2-4c0.1-0.5,0.1-1,0.2-1.4c0.1-0.7,0.3-1.5,0.4-2.2c0.1-0.3,0.1-0.6,0.3-0.9
					c0.3-0.1,0.6-0.2,0.9,0c0.6,0.4,0.7,1.2,1,1.8c0.2,0.6,0.2,1.3,0.4,1.9c0,1.3,0.3,2.5,0.3,3.8c0.2,1.8,0.1,3.5,0.1,5.3
					c-0.1,0.8,0,1.7,0,2.5c0.2,1.7,0.3,3.3,0.5,5c0.1,0.7,0.1,1.4,0.3,2.1c0.1,0.4,0.5,0.7,0.7,1.1c0.3,0.3,0.5,0.6,0.8,0.9
					c0.1,0.5,0.4,0.9,0.7,1.3c0-0.2,0-0.5-0.1-0.7c0.9,0.9,1.9,1.8,2.9,2.6c1.7,1.3,3.5,2.2,5.4,3.2c1.5,0.7,3.2,1.3,4.3,2.5
					c0.2,0.3,0.4,0.5,0.7,0.7c0-0.3-0.1-0.6-0.3-0.8c-0.3-0.3-0.5-0.6-0.7-0.9c2-0.5,3.9-1.5,5.6-2.8c1.5-1.2,3.1-2.3,4.4-3.7
					c1.2-1.2,2.4-2.4,3.4-3.8c0.6-0.8,1.2-1.6,1.8-2.4c0.5-0.7,0.9-1.5,1.4-2.2c0.5-0.6,0.9-1.3,1.3-2c0.7-1.2,1.5-2.4,2.1-3.7
					c0.8-1.7,1.6-3.4,2.1-5.3c0.3-0.6,0.5-1.2,0.5-1.8C106.2,87.5,106.1,87.9,106,88.2z"/>
				<path class="st23" d="M79.6,88.9c0.2-0.1,0.1-0.4,0-0.6c-0.4-0.5-1-0.4-1.5-0.3c-0.4,0.1-1,0.3-1.1,0.8c0.5,0.2,0.9,0.1,1.4,0.2
					C78.8,89.1,79.2,89.1,79.6,88.9z"/>
				<path class="st23" d="M76.6,93.5c-0.3,0.5-0.6,0.9-0.8,1.4c0.3-0.2,0.5-0.5,0.7-0.8c0.5-0.7,1-1.4,1.3-2.2
					c0.1-0.3,0.2-0.5,0.2-0.8C78.1,91,77.9,91,77.8,91C77.5,91.8,77.1,92.7,76.6,93.5z"/>
			</g>
			<path class="st22" d="M30.9,120c0.2-0.2,0.4-0.3,0.6-0.4c-0.2,0.5-0.6,0.8-0.9,1.2c-1.6,2.3-2.3,5-2.6,7.8
				c-0.1,1.2,0,2.5,0.4,3.6c0,0-0.1,0.1-0.2,0.1c-0.9-1.5-0.7-3.3-0.5-5c0.3-1.8,0.7-3.5,1.5-5.1C29.8,121.5,30.3,120.7,30.9,120z"
				/>
			<path class="st24" d="M128.3,119.7c0.1-0.2,0.5-0.2,0.5,0.1c0.1,0.4,0.1,0.9,0,1.3c-0.2,0.7-0.4,1.4-0.6,2c-0.4,1.1-1.2,2-1.8,3
				c-0.9,1.3-2.1,2.4-3.4,3.4c-1.4,1-2.8,2.1-4.3,3c-1.4,0.7-2.8,1.4-4.1,2.2c-1.7,1-3.5,1.8-5.3,2.7c-1.9,0.9-3.7,1.9-5.6,2.8
				c-1.6,0.8-3.2,1.8-4.7,2.7c-1.7,1-3.5,2-5.2,3.1c-1.4,0.9-2.8,1.8-4,2.9c-1.3,1.1-2.4,2.5-3.5,3.8c-0.3,0.4-0.6,0.8-1.1,1
				c0-0.5,0.3-0.9,0.5-1.3c1-1.6,2.2-3,3.6-4.3c1.1-1.1,2.5-1.9,3.7-2.7c1.8-1.2,3.7-2.2,5.5-3.3c1.6-0.9,3.1-1.8,4.8-2.6
				c1.6-0.8,3.3-1.6,4.9-2.4c2-1,4-1.8,5.9-3c1.2-0.8,2.6-1.4,3.9-2.1c1.6-0.8,2.9-1.9,4.3-3c1.2-1,2.4-2,3.3-3.3
				c0.7-1,1.4-1.9,1.8-3.1c0.3-0.8,0.6-1.6,0.6-2.4C128.2,120.1,128.2,119.9,128.3,119.7z"/>
			<path class="st22" d="M41.3,127.4c0.4-0.7,0.8-1.4,1.6-1.7c0,0.1,0,0.3-0.1,0.4c-1,1-1.5,2.3-2,3.6c-0.4,1.4-0.8,2.7-0.9,4.2
				c0,0.6,0.2,1.2,0.3,1.8c-0.4-0.1-0.5-0.6-0.6-0.9c-0.2-1.3,0-2.6,0.3-3.8C40.3,129.8,40.7,128.5,41.3,127.4z"/>
			<path class="st25" d="M86.6,130.1c0.1-0.7,0.3-1.5,0.9-2c-0.7,2.1-0.9,4.5-0.4,6.6c0.5,2,1,3.9,1.5,5.9c0.2,0.9,0.2,1.8,0.2,2.8
				c0.6-0.4,1.1-0.9,1.7-1.4c0.5-0.4,1-0.8,1.5-1.2c-0.4-1.9-0.7-3.8-1.2-5.6c-0.4-1.3-0.7-2.6-1.1-3.9c-0.1-0.5-0.3-0.9-0.4-1.4
				c0-0.2,0-0.5,0-0.7c0.1,0.2,0.2,0.3,0.3,0.5c0.8,2.1,1.5,4.3,2.1,6.5c0.4,1.4,0.6,2.9,0.8,4.3c0.7-0.4,1.3-0.9,1.9-1.3
				c0.5-0.3,1-0.6,1.5-1c0-0.5-0.2-0.9-0.3-1.4c-0.4-1.2-0.9-2.4-1.5-3.4c-0.2-0.4-0.7-0.7-0.8-1.1c0.6,0.1,1,0.5,1.3,1
				c0.7,0.9,1.2,2,1.6,3.1c0.2,0.5,0.3,1,0.4,1.5c0.8-0.5,1.7-0.9,2.6-1.3c-0.1-0.8-0.8-1.3-1.1-2c-0.1-0.2-0.3-0.4-0.5-0.5
				c0-0.1,0-0.2,0-0.2c0.4,0.1,0.8,0.1,1.1,0.4c0.3,0.3,0.6,0.6,0.8,0.9c0.2,0.4,0.2,0.8,0.3,1.2c2.1-0.9,4.2-1.7,6.4-2.5
				c0.5-0.2,0.9-0.4,1.4-0.5c0.1,0,0.2,0,0.4,0c0,0.1,0,0.2,0,0.2c-2,0.9-4,1.7-6.1,2.5c-0.7,0.3-1.4,0.6-2.1,1
				c-1.6,0.7-3.1,1.6-4.5,2.6c-1.8,1.2-3.5,2.5-5.1,3.9c-1.9,1.6-3.6,3.5-5.2,5.4c-0.1,0.2-0.3,0.1-0.5,0.1c0.3-0.9,0.9-1.6,1.5-2.3
				c0.9-1,1.9-2,2.9-3c-0.1-0.2-0.3-0.4-0.2-0.7c0-0.9-0.1-1.9-0.4-2.8c-0.3-0.9-0.5-1.9-0.7-2.8c-0.3-1.1-0.6-2.3-0.8-3.4
				C86.3,132.7,86.4,131.4,86.6,130.1z"/>
			<path class="st26" d="M89.1,128.5c0.1,0,0.1-0.1,0.2-0.1c0.2,0.4,0.3,0.8,0.3,1.2c-0.1-0.2-0.2-0.3-0.3-0.5c0,0.2,0,0.5,0,0.7
				C89.2,129.4,89.1,129,89.1,128.5z"/>
			<g>
				<g>
					<path class="st27" d="M82.8,30.1c1.8-0.1,3.5,0,5.3,0.1c1.3,0.1,2.5,0.4,3.8,0.7c1.3,0.3,2.6,0.6,3.9,1c1,0.3,1.9,0.6,2.9,1
						c1.3,0.4,2.4,1.1,3.6,1.6c0,0,0.1,0,0.1,0.1c0.2-0.2,0.4-0.4,0.6-0.6c-1.4-0.6-2.8-1.4-4.3-1.9c-1.7-0.5-3.3-1.2-5.1-1.5
						c-1.8-0.4-3.7-0.9-5.6-1c-1.7-0.1-3.4-0.2-5.2,0c-2,0.1-4,0.3-6,0.5c-0.6,0-1.2,0.1-1.7,0.3c0,0.1,0,0.2,0,0.3
						c0.5,0,1.1-0.1,1.6-0.1C78.8,30.3,80.8,30.2,82.8,30.1z"/>
					<path class="st27" d="M120.1,86.8c0.9-2,1.7-4,2.3-6.1c0.6-1.9,1.1-3.9,1.4-5.9c0.2-1.3,0.4-2.7,0.6-4c0.2-2.7,0.4-5.5,0.2-8.2
						c-0.1-1.1-0.1-2.2-0.3-3.2c-0.4-2.3-0.8-4.6-1.5-6.8c-0.5-2-1.2-3.9-2.1-5.7c-0.5-1.2-1.1-2.2-1.8-3.3
						c-0.7-1.3-1.6-2.4-2.6-3.5c-0.9-1-1.7-2-2.5-2.9c-0.8-1-1.8-1.8-2.8-2.6c-0.9-0.7-1.7-1.5-2.7-2.1c-1.1-0.7-2.2-1.3-3.4-1.9
						c-2.2-1.2-4.5-2.3-6.9-3.1c-1-0.4-2-0.7-3.1-0.9c-1.2-0.3-2.3-0.4-3.5-0.6c-1-0.1-1.9-0.2-2.9-0.2c-1.7,0.1-3.3,0.3-4.9,0.9
						c-0.5,0.1-1,0.3-1.2,0.7c0.6-0.1,1.2-0.3,1.7-0.5c1.4-0.3,2.9-0.6,4.4-0.6c1.3,0.1,2.5,0.3,3.8,0.5c1.7,0.3,3.4,0.6,5,1.2
						c0.9,0.3,1.8,0.6,2.7,1c1.5,0.7,2.9,1.3,4.3,2.2c0.7,0.4,1.4,0.7,2.1,1.2c1,0.6,1.9,1.2,2.8,1.9c0.9,0.8,1.8,1.6,2.7,2.4
						c0.9,0.9,1.8,1.8,2.6,2.8c0.7,0.8,1.4,1.6,2,2.4c1.1,1.3,1.9,2.9,2.8,4.4c0.9,1.8,1.7,3.7,2.4,5.6c0.3,1.1,0.6,2.1,0.9,3.2
						c0.6,2.3,1.1,4.6,1.3,7c0.1,1.1,0.1,2.3,0.1,3.4c0,1.6-0.1,3.1-0.2,4.7c0,1.2-0.2,2.3-0.4,3.5c-0.2,1.3-0.4,2.6-0.7,3.9
						c-0.5,2.1-1.1,4.2-1.9,6.2c-0.6,1.7-1.3,3.2-2,4.9c-0.8,1.9-1.6,3.8-2.8,5.5c-0.2,0.3-0.5,0.5-0.6,0.8c0.2,0,0.3,0.1,0.5,0
						c0.6-0.4,0.9-1.1,1.3-1.7C118.4,91,119.1,88.9,120.1,86.8z"/>
					<path class="st27" d="M70.7,35.6c0.1-1.3,0.2-2.6-0.1-3.8c-0.1,0-0.2,0-0.4,0c-0.1,0.9-0.1,1.8-0.1,2.6
						c-0.1,0.4-0.1,0.8-0.2,1.2c-0.1,0.4-0.1,0.9-0.1,1.3c-0.4,1.5-1,2.9-1.6,4.3c-0.4,0.9-0.7,1.8-1.2,2.6
						c-0.4,0.7-0.8,1.4-1.2,2.1c-0.6,0.9-1.1,1.9-1.7,2.8c-0.2,0.3-0.3,0.5-0.4,0.8c-0.3,0.4-0.5,0.9-0.8,1.4
						c-0.2,0.4-0.4,0.7-0.5,1.2c0.4-0.2,0.6-0.6,0.8-0.9c0.3-0.6,0.7-1.1,0.9-1.7c0.1-0.2,0.3-0.4,0.4-0.6c0.9-1.4,1.9-2.7,2.9-4.1
						c0.7-1,1.1-2.1,1.5-3.3c0.4-1,0.8-2.1,1.1-3.1C70.4,37.4,70.8,36.5,70.7,35.6z"/>
					<path class="st27" d="M75.5,33.4c1.5,0.3,3,0.6,4.5,0.7c1.1,0.1,2.1,0.2,3.2,0.3c3.6,0.1,7.2,0.6,10.7,1.4
						c1.7,0.4,3.5,0.9,5.1,1.6c0.3-0.1,0.5-0.4,0.7-0.6c0,0-0.1,0-0.1-0.1c-1.4-0.6-2.8-1-4.3-1.4c-1.7-0.5-3.4-0.7-5.1-1
						c-2.6-0.3-5.1-0.6-7.7-0.6c-0.9,0-1.8-0.2-2.6-0.2c-1.3,0-2.6-0.3-4-0.5c-0.8-0.1-1.7-0.2-2.5-0.4c-0.3-0.1-0.6-0.2-0.9-0.2
						c0,0.1,0,0.2,0,0.2C73.4,33.1,74.4,33.3,75.5,33.4z"/>
					<path class="st27" d="M114.7,44c-1.1-1.7-2.3-3.2-3.7-4.6c-0.8-0.8-1.6-1.7-2.5-2.3c-0.9-0.6-1.7-1.3-2.7-1.7
						c-0.8-0.4-1.5-0.8-2.3-1.2c0,0-0.1,0-0.1-0.1c-0.2,0.2-0.4,0.4-0.6,0.6c0.9,0.4,1.8,0.9,2.7,1.4c0.9,0.4,1.6,1,2.4,1.6
						c1,0.6,1.7,1.5,2.5,2.4c1.2,1.4,2.5,2.8,3.5,4.4c1.1,1.8,1.9,3.8,2.6,5.8c0.7,2,1.1,4,1.5,6c0.3,1.1,0,2.2,0.3,3.3
						c0,0,0.1,0,0.2,0c0.2-0.6,0.1-1.3,0.1-1.9c0.1-1.1-0.1-2.2-0.3-3.3c-0.3-1.9-0.8-3.7-1.4-5.5C116.4,47.2,115.7,45.6,114.7,44z"
						/>
					<path class="st27" d="M110,50.9c-1-1.9-2.3-3.7-3.9-5.2c-0.8-0.7-1.6-1.4-2.5-2c-1-0.7-2-1.4-3.2-1.9c-1.5-0.7-2.9-1.4-4.4-1.9
						c-2.3-0.8-4.7-1.6-7.1-2c-2-0.3-4-0.6-6-0.7c-0.9-0.1-1.9-0.1-2.8,0c-0.7,0.1-1.4,0-2.1-0.1c-1.2,0-2.3-0.3-3.5-0.5
						c-0.5-0.1-1-0.2-1.5-0.3c-0.3-0.1-0.5-0.2-0.8-0.3c0,0.1-0.1,0.2-0.1,0.3c0.2,0.1,0.4,0.2,0.6,0.3c0.5,0.2,1.1,0.4,1.7,0.5
						c1.2,0.2,2.3,0.5,3.5,0.6c1.2,0.1,2.3,0.1,3.5,0c1.2,0.1,2.4,0.1,3.6,0.3c1.8,0.2,3.6,0.5,5.3,0.9c2,0.5,4,1.2,5.9,1.9
						c1.3,0.5,2.6,1.1,3.9,1.7c1.4,0.6,2.6,1.5,3.8,2.4c1,0.8,2,1.5,2.8,2.5c0.7,0.9,1.4,1.8,2,2.8c1.1,1.7,1.8,3.7,2.4,5.6
						c0.3,0.9,0.4,1.9,0.7,2.9c0.1,0,0.2,0,0.3,0c0.2-1.3-0.2-2.6-0.6-3.8C111.2,53.5,110.6,52.2,110,50.9z"/>
					<path class="st27" d="M82.7,42.3c2.6,0.1,5.2,0.5,7.8,0.9c1.3,0.2,2.7,0.5,3.9,1c1,0.3,2,0.6,3,1c2.4,1,4.7,2.3,6.6,4.1
						c0.7,0.6,1.1,1.4,1.6,2.2c0.6,0.9,1.1,1.9,1.5,3c0.1,0.5,0.3,1,0.5,1.6c0.1,0.4,0.3,0.7,0.5,1c0.1,0,0.2,0,0.3-0.1
						c-0.4-0.9-0.5-1.9-0.9-2.8c-0.3-1.4-1-2.7-1.8-4c-0.6-0.9-1.3-1.7-2.1-2.3c-1.1-1-2.4-1.7-3.7-2.4c-1.3-0.7-2.8-1.3-4.2-1.7
						c-1.6-0.5-3.1-1-4.8-1.2c-2.7-0.5-5.4-0.8-8.1-1c-2.2-0.2-4.4-0.2-6.6-0.5c-1.1-0.1-2.2-0.4-3.3-0.7c-0.5-0.1-0.9-0.3-1.4-0.5
						c0,0.1,0,0.2,0,0.4c0.9,0.7,2,0.9,3.1,1.2C77.2,42.1,79.9,42.1,82.7,42.3z"/>
					<path class="st27" d="M63.7,45c0.8-0.7,1.6-1.3,2.5-1.8c0.1-0.1,0.2-0.1,0.3-0.2c-0.1-0.1-0.2-0.2-0.3-0.3
						c-1,0.2-1.8,0.8-2.5,1.4c-1,0.8-1.9,1.8-2.6,2.8c-1,1.5-1.8,3.2-2.3,4.9c-0.3,1-0.5,2.1-0.7,3.1c-0.2,0.6-0.2,1.2-0.3,1.8
						c0,0.3-0.1,0.6,0.1,0.8c0.3-0.5,0.3-1.2,0.4-1.8c0.1-0.4,0.2-0.9,0.3-1.4c0.5-2,1.2-4.1,2.2-5.9C61.6,47.4,62.5,46.1,63.7,45z"
						/>
					<path class="st27" d="M107.4,56.9c-0.3-0.7-0.7-1.2-1.1-1.8c-0.8-1-1.7-2-2.7-2.8c-0.8-0.6-1.6-1.1-2.5-1.6
						c-1.3-0.6-2.5-1.3-3.8-1.8c-1.7-0.7-3.5-1.3-5.3-1.8c-2.1-0.6-4.2-1.1-6.4-1.2c-1.5-0.1-3-0.1-4.5,0c-0.9,0.1-1.8,0-2.7,0
						c-2.4,0.1-4.9,0-7.3-0.5c-0.7-0.1-1.3-0.5-2-0.5c0,0.1,0,0.2,0,0.3c0.6,0.3,1.2,0.6,1.8,0.8c2.6,0.7,5.3,0.7,8,0.6
						c1.5,0,3.1-0.1,4.6-0.1c0.8,0,1.6,0,2.4,0c3.3,0.2,6.6,1.2,9.7,2.5c1.3,0.5,2.5,1,3.7,1.7c1.1,0.6,2.2,1.1,3.2,1.8
						c1.1,0.6,1.9,1.6,2.7,2.5c0.4,0.5,0.9,1,1.3,1.5c0.5,0.9,0.9,1.8,1.3,2.7c0.2,0.4,0.3,1,0.7,1.2c0-0.6-0.3-1.2-0.5-1.7
						C107.9,57.9,107.6,57.4,107.4,56.9z"/>
					<path class="st27" d="M118.5,47.8c-0.2-0.4-0.4-0.9-0.8-1.2c0.2,0.7,0.6,1.4,0.8,2.1c0.3,1,0.7,2,1,3.1
						c0.4,1.7,0.7,3.4,0.8,5.2c0.1,1.3,0,2.6,0.2,3.9c0,0.4,0,0.7,0.1,1.1c0.1,0,0.2,0,0.2-0.1c0-0.3,0.1-0.6,0.1-0.9
						c0.2-1,0.1-2,0.1-3.1c0-1.5-0.3-2.9-0.6-4.3c-0.2-0.9-0.3-1.7-0.7-2.5c0-0.1-0.1-0.3-0.1-0.4c-0.3-0.8-0.6-1.6-1-2.4
						C118.7,48.1,118.6,47.9,118.5,47.8z"/>
					<path class="st27" d="M116.1,58.4c0.1-0.8,0.1-1.5,0-2.3c-0.1-0.8-0.3-1.6-0.4-2.4c-0.2-1.2-0.5-2.3-1-3.4
						c-0.6-1.5-1.3-3-2.2-4.3c-0.6-0.9-1.3-1.9-2.1-2.7c-1.8-1.8-3.9-3.5-6.1-4.6c-1.3-0.7-2.5-1.4-3.9-1.9c0,0-0.1,0-0.1,0
						c-0.2,0.2-0.3,0.4-0.5,0.7c1.5,0.6,2.9,1.3,4.4,2.1c2.2,1.1,4.1,2.7,5.8,4.4c2,2.1,3.4,4.8,4.4,7.5c0.6,2,1.2,4.1,1.4,6.2
						c0,0.3,0,0.6,0.1,0.9c0,0-0.1,0.1-0.1,0.1C115.7,58.7,116,58.6,116.1,58.4z"/>
					<path class="st27" d="M126.6,66.6c-0.1-2.2-0.4-4.3-0.8-6.5c-0.2-0.8-0.4-1.6-0.8-2.4c0.1,0.7,0.4,1.5,0.5,2.2
						c0.2,1,0.3,1.9,0.4,2.9c0.3,2.5,0.3,4.9,0.3,7.4c-0.1,1-0.1,2-0.2,3c-0.1,0.9-0.2,1.9-0.4,2.8c-0.2,1.5-0.4,3.1-0.7,4.6
						c-0.4,2-0.8,4-1.3,6c-0.5,2-1.1,3.9-1.9,5.8c-0.9,2.1-1.7,4.3-2.9,6.3c-0.3,0.5-0.6,1.1-1,1.6c-0.3,0.5-0.8,1-1.1,1.6
						c0.2,0,0.4,0.1,0.5-0.1c0.8-0.8,1.3-1.9,2-2.8c1.1-1.7,1.9-3.6,2.6-5.5c0.7-1.8,1.4-3.7,2-5.6c0.5-1.9,1-3.9,1.4-5.8
						c0.5-2.5,0.8-5.1,1.2-7.7c0.2-1.3,0.2-2.6,0.2-3.9C126.8,69.2,126.7,67.9,126.6,66.6z"/>
					<path class="st27" d="M118.1,83.5c0.5-1.1,0.8-2.2,1.2-3.3c0.2-0.6,0.4-1.2,0.5-1.8c0.1-0.2,0.2-0.4,0.2-0.6
						c0-0.1,0.1-0.4-0.2-0.4c-0.2,0.2-0.2,0.5-0.3,0.7c-0.4,0.8-0.7,1.7-1.1,2.5c-0.7,1.7-1.3,3.5-2.2,5.1c-0.4,0.7-0.8,1.5-1.2,2.2
						c-0.3,0.6-0.7,1.1-1,1.6l-0.1,0c0,0.1,0.1,0.3,0.1,0.4c0.1-0.1,0.2-0.2,0.3-0.3c0.3-0.4,0.6-0.8,0.9-1.2
						C116.3,86.9,117.3,85.3,118.1,83.5z"/>
					<path class="st27" d="M116.3,81.1c-0.1,0-0.2,0-0.3,0c-0.9,1.7-1.5,3.5-2.5,5.1c-0.2,0.2-0.3,0.4-0.2,0.7
						c0.2-0.1,0.3-0.3,0.4-0.4c0.8-1.1,1.6-2.3,2.1-3.6C116,82.3,116.3,81.8,116.3,81.1z"/>
				</g>
				<path class="st27" d="M21.9,175.1c0.2,1,0.2,2,0.1,3c-0.1,1.4-0.4,2.8-0.8,4.1c-0.7,2.3-1,4.8-0.7,7.3c0.2,1.7,0.9,3.3,1.6,4.9
					c0.3,0.7,0.9,1.3,1,2.1c0,0.1,0.1,0.2,0.1,0.3h0.6c0-0.2,0-0.5-0.1-0.7c-0.2-0.6-0.5-1.1-0.8-1.7c-0.6-1.4-1.2-2.8-1.5-4.2
					c-0.5-2.6-0.2-5.3,0.6-7.7c0.3-1.1,0.6-2.2,0.7-3.3c0.1-0.9,0.2-1.8,0.1-2.6c-0.1-1.2-0.3-2.3-0.6-3.4c-0.4-1.1-0.8-2.1-1.4-3.1
					c-0.8-1.5-1.6-3.1-1.9-4.8c-0.2-1.2-0.1-2.4,0-3.5c0.3-2.3,1.5-4.3,2.9-6.1c0.7-0.9,1.3-1.9,2.1-2.8c0.4-0.5,0.9-1,1.3-1.6
					c1.3-1.8,2-4.1,2-6.4c0-1.2,0-2.4-0.2-3.6c-0.3-3.3-1.9-6.4-2.2-9.8c-0.1-2.2,0-4.5,0.7-6.6c0.6-1.9,1.4-3.9,2.7-5.5
					c1.1-1.3,2.2-2.6,3.3-3.8c1.4-1.6,2.9-3.3,3.8-5.2c0.7-1.5,1.1-3.1,1.2-4.8c0.2-3.1-0.4-6.2,0.2-9.2c0.3-1.9,1.3-3.6,2.5-5.1
					c0.6-0.8,1.3-1.6,2-2.3c1.2-1.1,2.5-2.1,3.8-3.2c1.5-1.3,2.9-2.6,4.1-4.1c1-1.1,1.9-2.3,2.6-3.6c0.5-0.9,0.9-1.9,1.2-3
					c0.4-1.2,0.5-2.4,0.5-3.6c0-0.4,0-0.9-0.1-1.3c-0.1,0-0.2,0-0.3,0c-0.1,0.7-0.1,1.3-0.1,2c-0.1,0.9-0.3,1.8-0.5,2.6
					c-0.2,0.5-0.3,0.9-0.5,1.4c-0.7,1.8-2,3.4-3.3,4.9c-2.4,2.9-5.5,5-8.3,7.6c-0.6,0.6-1.1,1.3-1.7,1.9c-0.6,0.7-1.1,1.5-1.6,2.3
					c-0.9,1.6-1.3,3.5-1.4,5.4c-0.1,1.9,0.1,3.9,0.1,5.8c0,1.6-0.2,3.2-0.7,4.8c-0.5,1.5-1.4,2.9-2.4,4.1c-1.2,1.5-2.5,3-3.8,4.4
					c-1,1.1-1.9,2.3-2.6,3.6c-1.1,2.1-1.9,4.4-2.2,6.8c-0.2,1.7-0.3,3.5,0,5.2c0.4,2.3,1.2,4.6,1.7,6.9c0.2,1,0.3,2,0.4,3
					c0.1,1.2,0.1,2.4-0.1,3.7c-0.3,1.7-1,3.4-2.1,4.8c-0.7,0.8-1.4,1.6-2,2.5c-0.6,0.9-1.3,1.8-1.9,2.7c-0.9,1.3-1.6,2.7-2,4.2
					c-0.3,1-0.3,2-0.4,3c0,2.3,0.9,4.5,2,6.5C20.9,171.7,21.6,173.4,21.9,175.1z"/>
				<path class="st27" d="M21.3,136.1c0.1-0.3,0.3-0.6,0.5-0.8c0.1,0.2,0.1,0.3,0.2,0.5c-0.3-2.5-0.7-5-0.7-7.6c0-1.7,0-3.5,0.4-5.2
					c0.5-1.7,1.2-3.3,2.2-4.7c0.7-1,1.6-2,2.5-2.9c1-1,1.9-2.1,2.8-3.1c1.6-1.9,2.6-4.1,3.4-6.4c0.3-0.8,0.6-1.7,0.8-2.6
					c0.3-1.7,0.5-3.4,0.6-5.1c0.1-1.9,0.4-3.8,1-5.6c0.5-1.4,1.2-2.7,2.1-3.9c0.8-1.1,1.9-1.9,2.9-2.8c-0.5-0.1-0.9,0.2-1.2,0.5
					c-0.9,0.6-1.6,1.4-2.3,2.2c-0.3,0.4-0.5,0.7-0.8,1.1c-1.2,1.7-1.8,3.6-2.2,5.6c-0.3,1.5-0.3,3-0.5,4.5c-0.2,1.9-0.4,3.7-1.1,5.5
					c-0.5,1.5-1.1,3-1.9,4.4c-0.5,1-1.2,1.9-2,2.7c-0.8,1-1.7,2-2.6,2.9c-0.7,0.6-1.3,1.3-1.8,2.1c-1.1,1.4-1.9,3-2.5,4.6
					c-0.8,2-0.8,4.3-0.8,6.4C20.6,131,21,133.6,21.3,136.1z"/>
				<path class="st27" d="M47.8,129.7c0.7-1.5,1.8-2.7,2.8-3.9c1.6-1.9,2.8-4,3.6-6.4c0.5-1.3,0.7-2.7,0.9-4.1
					c0.2-1.3,0.2-2.6,0.4-3.8c0.3-1.1,0.7-2.3,1.4-3.2l0.1,0c0-0.2-0.1-0.3-0.1-0.5c-0.1,0-0.3,0.1-0.4,0.2
					c-0.8,0.7-1.3,1.7-1.6,2.7c-0.5,1.4-0.4,2.9-0.6,4.3c-0.2,0.9-0.3,1.8-0.5,2.7c-0.6,2.6-1.9,4.9-3.4,7c-1,1.4-2.3,2.7-3.1,4.3
					c-0.4,0.8-0.7,1.8-0.9,2.7c-0.3,1.1-0.3,2.3-0.3,3.4c0,1.3,0.5,2.6,0.5,3.9c0.1,1,0,2-0.3,3c-0.3,0.9-0.4,1.9-1,2.7
					c0.1,0,0.2,0,0.4,0c0.5-0.6,0.7-1.4,0.9-2.1c0.3-0.8,0.5-1.6,0.6-2.5c0.1-1.2,0.1-2.4-0.2-3.6c-0.2-0.9-0.1-1.8-0.1-2.6
					C46.9,132.4,47.2,131,47.8,129.7z"/>
			</g>
			<path class="st28" d="M107.4,133.2c0.6-0.3,1.3-0.4,1.9-0.5c-0.5,0.3-1,0.5-1.6,0.7c0-0.1,0-0.2,0-0.2
				C107.7,133.2,107.5,133.2,107.4,133.2z"/>
			<path class="st27" d="M14.2,168.3c0.7,1.6,1.4,3.2,2,4.9c0.3,1,0.4,2.1,0.4,3.1c0,1.2-0.4,2.3-0.8,3.4c-0.7,1.8-1.5,3.5-2,5.3
				c-0.3,1.3-0.4,2.6-0.3,3.9c0.2,1.9,1,3.7,1.9,5.3c0.5,0.8,1,1.7,1.5,2.5h0.9c-0.6-1.3-1.5-2.4-2.1-3.7c-0.4-0.9-0.8-1.7-1-2.7
				c-0.7-2.1-0.4-4.5,0.4-6.5c0.7-1.9,1.6-3.8,2.1-5.8c0.3-1.3,0.2-2.7,0-4c-0.2-1.1-0.6-2.2-1-3.3c-0.6-1.7-1.5-3.2-2.1-4.9
				c-0.4-1.1-0.7-2.2-0.7-3.4c-0.1-2.1,0.3-4.3,1.3-6.2c0.9-1.5,2.1-2.9,3.3-4.2c2.3-2.6,4-5.8,4.3-9.3c0.2-1.3,0.1-2.6,0-4
				c-0.1-1-0.2-2.1-0.4-3.1c-0.1-0.2-0.1-0.3-0.2-0.5c-0.2,0.2-0.4,0.5-0.5,0.8c0.2,1.5,0.4,2.9,0.4,4.4c0.1,2.4-0.4,4.8-1.4,7
				c-0.7,1.5-1.6,2.8-2.7,4.1c-1.2,1.3-2.3,2.6-3.3,4.1c-0.6,0.9-1,2-1.3,3.1c-0.5,2.1-0.6,4.3,0,6.3
				C13.2,166.2,13.7,167.2,14.2,168.3z"/>
			<path class="st12" d="M17.9,155.3c0.3-0.5,0.7-1,1.3-1.1c-0.3,0.5-0.8,0.9-1.1,1.5c-0.9,1.6-1.1,3.4-1.3,5.2
				c-0.2,1.7-0.2,3.5,0.1,5.2c0.1,0.6,0.4,1.2,0.5,1.7c-0.1-0.1-0.3-0.2-0.3-0.4c-0.5-1-0.6-2.1-0.7-3.2c-0.1-2.1,0-4.1,0.4-6.1
				C16.9,157.1,17.3,156.1,17.9,155.3z"/>
			<path class="st22" d="M37.5,158.4c0.1-0.2,0.3-0.4,0.6-0.4c-0.3,0.7-0.7,1.4-0.9,2.1c-0.5,2-0.6,4-0.4,6c0.1,0.6,0.2,1.2,0.5,1.7
				c0.1,0.2,0.3,0.4,0.3,0.7c-0.5-0.4-0.8-1-1-1.7c-0.4-1.4-0.4-2.8-0.3-4.2C36.4,161.2,36.7,159.7,37.5,158.4z"/>
			<path class="st15" d="M129,144.4c-2.3,2.8-4.7,5.6-7.2,8.3c-1.4,1.5-2.7,3-4,4.4c-1.2,1.2-2.3,2.5-3.6,3.7
				c-1.4,1.2-2.6,2.6-4,3.8c-1.3,1.2-2.6,2.4-3.9,3.6c-1.6,1.4-3.1,3.1-4.6,4.7c-0.4,0.5-0.9,1-1.3,1.5c-1.2,1.5-2.6,2.9-3.8,4.4
				c-0.7,1-1.4,2.1-2,3.2c-0.2,0.4-0.5,0.9-0.5,1.4c0.5,1.8,1,3.7,1.6,5.5c0.2,1.1,0.7,2.2,0.7,3.4c0,0.4-0.6,0.4-0.7,0.1
				c-0.2-0.5-0.2-1.1-0.4-1.6c-0.3-0.7-0.4-1.4-0.6-2.1c-0.4-1.2-0.8-2.3-1-3.5c-0.3-1.1-0.7-2.2-1-3.3c-0.5-1.4-0.7-2.9-1.2-4.3
				c-0.1-0.3-0.2-0.5-0.3-0.8c0.1,0,0.2-0.1,0.2-0.2c0.2,0.2,0.3,0.4,0.4,0.6c0.4,0.6,0.8,1.3,1,2c0.4,1.2,0.7,2.4,1.1,3.5
				c0.2-0.6,0.3-1.3,0.6-1.9c0.7-1.3,1.5-2.5,2.5-3.7c0.8-0.9,1.6-1.8,2.4-2.7c1.2-1.4,2.5-2.7,3.7-4c1.1-1.2,2.3-2.3,3.6-3.3
				c1.3-1.2,2.6-2.3,3.9-3.5c0.9-0.8,1.6-1.7,2.5-2.5c1.1-1.1,2.2-2.2,3.3-3.3c1.4-1.5,2.8-3.1,4.2-4.6c1.2-1.3,2.3-2.6,3.4-3.9
				c1.4-1.6,2.8-3.2,4.1-4.9c1-1.2,1.9-2.5,2.8-3.8c1.2-1.7,2.4-3.4,3.4-5.2c1.1-1.7,1.9-3.5,2.4-5.5c0.1-0.6,0.3-1.2,0.3-1.8
				c0-0.5,0-0.9,0-1.4c0.1,0,0.3,0,0.4,0.1c0.4,0.7,0.5,1.6,0.3,2.4c-0.3,2-1.1,3.8-2,5.6c-1,1.7-2.1,3.4-3.3,5
				C131.4,141.4,130.2,142.9,129,144.4z M139,128.7c-0.1,0.5,0,1-0.1,1.5c-0.1,1.2-0.5,2.3-0.9,3.4c-0.6,1.6-1.3,3.2-2.1,4.8
				c-0.2,0.5-0.6,0.8-0.9,1.3c0.1,0,0.2,0,0.4,0c0.7-0.7,1.2-1.6,1.7-2.5c0.8-1.6,1.5-3.3,2.1-5.1c0.3-1.1,0.5-2.3,0.1-3.4
				C139.2,128.7,139.1,128.7,139,128.7z M137.4,167.3c-0.8,0.9-1.4,1.9-2.1,2.9c-1.1,1.5-2.1,3.1-2.9,4.7c-0.8,1.5-1.3,3-1.9,4.6
				c-0.5,1.4-0.8,2.8-1.2,4.2c-0.2,0.8-0.3,1.6-0.5,2.4c-0.3,1-0.4,2.1-0.6,3.2c-0.1,0.5-0.3,0.9-0.2,1.4c0.1,0,0.3,0,0.4,0
				c0.6-1.5,0.8-3.2,1.2-4.8c0.3-1.6,0.8-3.1,1.3-4.6c0.4-1.1,0.8-2.1,1.2-3.2c0.7-1.7,1.5-3.3,2.4-4.9c1.1-1.8,2.4-3.5,3.4-5.4
				c0.2-0.3,0.4-0.6,0.4-1C137.9,166.7,137.7,167.1,137.4,167.3z M51,167.9c-0.3,1.4-0.1,2.8-0.2,4.1c-0.1,1.5-0.2,3-0.5,4.5
				c0.1,0,0.2,0,0.3,0c0.2-0.6,0.3-1.2,0.4-1.9c0.2-1.5,0.4-2.9,0.4-4.4c0-0.8,0-1.7-0.2-2.4C51.2,167.9,51.1,167.9,51,167.9z
				 M104.9,171c-1.4,1.3-2.6,2.8-3.9,4.3c-1.3,1.5-2.5,3.1-3.5,4.8c-0.1,0.1-0.1,0.3-0.1,0.5c0.1,0,0.2,0,0.2,0
				c0.9-1.5,2-2.8,3.1-4.1c1.2-1.4,2.4-2.7,3.6-4c1.3-1.4,2.7-2.8,3.8-4.3c-0.4,0.1-0.7,0.3-0.9,0.6
				C106.5,169.5,105.7,170.3,104.9,171z M48.9,175.6c0-1.6-0.1-3.1-0.4-4.6c-0.1-0.7-0.2-1.3-0.5-2c-0.1-0.2-0.3-0.1-0.5-0.2
				c-0.1,0.5,0.1,1,0.1,1.5c0.4,2.2,0.7,4.4,0.9,6.7c0,0.5,0.1,1.1,0.1,1.6c0,0.4-0.1,0.8,0,1.1c0.2-0.1,0.3-0.3,0.4-0.6
				c0.1-0.5,0.1-1.1,0-1.6C49,176.9,49,176.2,48.9,175.6z M128.8,177.5c0.3-0.9,0.7-1.8,1.1-2.7c0.6-1.1,1.2-2.2,1.6-3.4h0.1
				c0-0.2,0-0.4-0.1-0.5c-0.2,0.1-0.3,0.3-0.5,0.5c-0.9,1.6-1.9,3.1-2.6,4.8c-0.7,1.8-1.4,3.6-1.6,5.5c-0.2,1.6-0.4,3.1-0.3,4.7
				c0,1.2,0,2.4,0.1,3.5c0,0.2,0.2,0.4,0.4,0.5c0.1-0.1,0.2-0.1,0.3-0.2c0.2-0.8,0.1-1.5,0-2.3c-0.1-2.2,0-4.3,0.4-6.5
				C128,180.1,128.4,178.8,128.8,177.5z M169.3,182.1c-0.3-1.1-0.6-2.2-1.1-3.2c-0.7-1.4-1.8-2.4-2.7-3.7c-0.7-1.1-1.2-2.3-1.4-3.5
				c-0.1,0-0.2,0-0.3,0c-0.3,0.8-0.1,1.6,0.2,2.3c0.4,1.1,1,2.2,1.8,3.1c0.9,1.1,1.9,2.3,2.4,3.6c0.5,1.4,1.1,2.9,0.9,4.4
				c0.1,0,0.2,0,0.3,0C169.8,184.1,169.5,183.1,169.3,182.1z M120.4,174.8c-0.4,0.8-0.9,1.4-1.6,1.9c-0.9,0.6-1.8,1.4-2.6,2.2
				c-1.1,1.2-1.9,2.6-2.7,4c-0.5,0.9-1,1.7-1.4,2.7c0.1,0.2,0.4,0.1,0.4-0.1c0.7-1,1.3-2,2-3c0.9-1.3,1.8-2.6,2.9-3.7
				c0.7-0.7,1.4-1.2,2.1-1.8c0.6-0.5,1.2-1.3,1.1-2.2C120.6,174.8,120.5,174.8,120.4,174.8z M88.1,187.8c-1-1.4-1.9-2.7-2.8-4.2
				c-1.2-2-2.4-3.9-3.5-6c-0.4-0.8-0.7-1.6-1.1-2.3c-0.1,0-0.2,0-0.4,0c0,0.8,0.3,1.5,0.6,2.3c1.1,2.9,2.8,5.5,4.6,8.1
				c1,1.5,2,3,3.2,4.4c0.7,0.9,1.5,1.7,2.4,2.4c0.1,0.1,0.3,0.1,0.5,0.1c-0.2-0.8-0.9-1.4-1.4-2C89.5,189.6,88.8,188.7,88.1,187.8z
				 M166.5,184.7c-0.5-1.1-0.9-2.2-1.6-3.2c-0.1-0.2-0.5-0.4-0.6-0.1c0,0.5,0.3,1,0.5,1.5c0.6,1.7,1.5,3.2,2,4.9
				c0.1,0.3,0,0.7,0,1.1c0.2,0,0.4,0.1,0.5-0.1c0.3-0.3,0.2-0.8,0.2-1.2C167.2,186.6,166.9,185.6,166.5,184.7z"/>
			<g>
				<path class="st27" d="M29.2,185.7c0.3-1.4,0.5-2.8,0.5-4.2c0-1-0.2-1.9-0.4-2.8c-0.3-1-0.5-2.1-0.9-3.1
					c-0.4-0.8-0.8-1.6-1.3-2.3c-0.6-0.9-1.2-1.8-1.6-2.8c-0.8-1.7-1.5-3.4-1.5-5.3c-0.1-2,0.7-3.9,1.9-5.5c0.5-0.6,1-1.3,1.5-2
					c1.1-1.5,2.4-2.9,3.3-4.6c1-1.7,1.4-3.7,1.5-5.7c0.1-2.3-0.2-4.5-0.8-6.7c-0.4-1.2-0.8-2.3-1.1-3.5c-0.6-2-0.9-4-0.9-6.1
					c0.1-3,1-6,2.8-8.4c1.1-1.5,2.4-2.9,3.7-4.3c0.5-0.6,1.2-1.2,1.6-1.9c0.5-0.8,1-1.6,1.3-2.5c0.8-1.9,1.3-3.8,1.5-5.8
					c0.2-1.9,0-3.9-0.3-5.8c-0.3-1.8-0.3-3.7,0-5.6c0.3-1.5,1.2-2.9,2.3-4c0.8-0.9,1.7-1.8,2.6-2.5c1.5-1.2,2.8-2.6,4.1-4.1
					c1.1-1.2,2-2.4,2.8-3.7c2.5-3.8,3.9-8.2,4.6-12.7c0.2-1.9,0.3-3.8,0-5.7c-0.2-1.2-0.5-2.5-0.8-3.7c-0.1-0.3-0.1-0.5-0.1-0.8
					c0.1-1.4-0.1-2.7,0-4.1c0.3-1.7,0.4-3.5,0.9-5.2c0.3-1.1,0.7-2.2,1.3-3.2c0.4-0.6,0.8-1.2,1.3-1.8c0.8-0.9,1.6-1.8,2.5-2.5
					c1.1-0.8,2.4-1.5,3.6-2.2c0.9-0.5,1.9-0.9,2.9-1.4c0.2-0.1,0.2-0.3,0.3-0.4c-1.1,0-2.1,0.6-3.1,1c-1.3,0.7-2.5,1.4-3.7,2.2
					c-1.4,1-2.6,2.3-3.6,3.7c-0.8,1-1.3,2.2-1.6,3.4c-0.6,1.9-0.8,3.9-1.1,5.8c-0.2,1.4,0,2.8,0.1,4.2c-0.1,0.6,0,1.2,0.2,1.7
					c0.1,1.1,0.3,2.1,0.5,3.2c0.2,1.2,0.2,2.4,0.1,3.7c-0.3,4.5-1.4,8.9-3.6,12.9c-0.9,1.6-1.9,3.1-3,4.4c-1.5,1.7-3,3.4-4.8,4.8
					c-1.1,0.9-2.1,1.9-3,2.9c-1.1,1.2-1.9,2.6-2.2,4.2c-0.2,1.2-0.3,2.3-0.2,3.5c0,1.3,0.3,2.7,0.4,4c0.4,2.8-0.1,5.6-1,8.2
					c-0.4,1.1-0.8,2.2-1.4,3.2c-0.5,0.7-1.1,1.4-1.7,2c-1.2,1.3-2.3,2.6-3.4,4c-1,1.2-1.7,2.6-2.3,4.1c-0.9,2.2-1.2,4.6-1,7
					c0.1,1.9,0.5,3.8,1.1,5.6c0.4,1.3,0.9,2.7,1.2,4c0.5,2.3,0.6,4.8,0.1,7.1c-0.3,1.7-1.1,3.4-2.1,4.9c-0.9,1.3-1.9,2.5-2.8,3.7
					c-0.5,0.7-1.1,1.4-1.6,2.2c-0.6,1-1.1,2.2-1.2,3.4c-0.1,1.1-0.1,2.2,0.2,3.3c0.4,1.8,1.2,3.5,2.1,5.1c1,1.5,2,3,2.5,4.8
					c0.4,1.3,0.7,2.5,0.9,3.8c0.2,2.3-0.5,4.6-0.8,6.9c-0.5,2.2-0.5,4.6,0,6.8c0.2,0.7,0.4,1.5,0.9,2c0.1,0,0.3,0,0.4,0
					c0-0.1,0-0.3,0-0.4l-0.1,0.1c-0.4-0.9-0.7-1.8-0.8-2.7c-0.2-1.7-0.3-3.4,0.1-5.1C28.9,187.7,29,186.7,29.2,185.7z"/>
				<path class="st27" d="M32.7,176.5c-0.3-1.2-0.7-2.3-1.3-3.4c-0.5-0.8-0.9-1.7-1.4-2.5c-0.4-0.7-0.6-1.5-0.9-2.2
					c-0.3-1-0.6-2.1-0.4-3.1c0.3-1.7,1-3.2,2-4.6c0.5-0.8,1-1.7,1.5-2.5c0.5-0.8,1-1.7,1.3-2.6c0.4-0.9,0.7-1.7,1-2.6
					c0.3-1.2,0.3-2.4,0.4-3.6c0-1.5-0.1-2.9-0.5-4.3c-0.6-2.4-0.9-4.8-1.4-7.1c-0.3-2.1,0-4.2,0.5-6.2c0.5-2,1.3-3.9,2.3-5.7
					c0.9-1.7,2.3-3.2,3.5-4.7c1-1.4,1.8-3,2.5-4.6c0.7-1.8,1.3-3.6,1.6-5.5c0.2-1.6,0.3-3.2,0.4-4.7c0.1-1.4,0.1-2.9,0.3-4.3
					c0.2-1.8,0.6-3.6,1.6-5.2c0.7-1.3,1.6-2.4,2.6-3.5c1.1-1.2,2.1-2.4,3.1-3.7c1-1.2,1.9-2.5,2.3-4c0.2-0.3,0.2-0.8,0.2-1.2
					c-0.2,0.2-0.3,0.4-0.2,0.6c-0.3,0.5-0.5,0.9-0.8,1.4c-0.7,1.2-1.6,2.3-2.5,3.4c-0.9,1.1-1.8,2.1-2.8,3.2c-1,1.1-1.9,2.3-2.7,3.6
					c-0.9,1.5-1.3,3.2-1.5,5c-0.2,1.4-0.2,2.9-0.3,4.3c-0.1,1.2-0.2,2.3-0.3,3.5c-0.2,2.4-0.9,4.7-1.8,6.9c-0.7,1.6-1.5,3.2-2.6,4.6
					c-1.1,1.5-2.4,3-3.3,4.6c-1,1.8-1.9,3.8-2.4,5.8c-0.6,2.2-0.9,4.4-0.5,6.6c0.4,2.3,0.7,4.7,1.3,6.9c0.2,0.9,0.4,1.9,0.4,2.9
					c0,1.2,0,2.3-0.1,3.5c-0.1,1-0.5,2-0.8,2.9c-0.7,1.9-1.7,3.6-2.7,5.3c-1.1,1.6-2,3.3-2.4,5.2c-0.3,1.1-0.1,2.2,0.2,3.2
					c0.2,0.8,0.4,1.6,0.8,2.4c0.8,1.7,2,3.2,2.5,5.1c0.4,1,0.4,2.1,0.5,3.2c0,1.3-0.1,2.6-0.2,3.9c-0.1,1-0.2,2-0.4,2.9
					c0.2,0,0.4,0,0.5-0.2c0.3-0.7,0.4-1.5,0.5-2.2c0.2-1.3,0.5-2.6,0.5-3.9C32.9,178.3,32.9,177.4,32.7,176.5z"/>
				<path class="st27" d="M35.4,160c1-1.7,1.9-3.6,2.5-5.5c0.7-2.4,1-4.9,1.1-7.4c0-2.1-0.2-4.3-0.6-6.4c-0.2-0.8-0.4-1.7-0.6-2.5
					c-0.3-1.4-0.2-2.7-0.1-4.1c0.3-2.3,0.9-4.6,1.9-6.6c0.6-1.4,1.5-2.6,2.4-3.9c1-1.4,1.9-2.8,2.7-4.4c1-2.1,1.7-4.3,2.2-6.6
					c0.3-1.3,0.5-2.7,0.5-4.1c0.1-1.5,0-3,0-4.5c0.1-1,0.1-2,0.6-2.9c0.6-1.2,1.6-2.1,2.5-3c1-0.9,2.1-1.6,2.9-2.8
					c0.1-0.3,0.3-0.5,0.4-0.8c-0.3,0.1-0.5,0.2-0.6,0.5c-1.2,1.1-2.6,2-3.8,3.1c-0.9,0.8-1.7,1.7-2.2,2.9c-0.5,1.1-0.5,2.3-0.6,3.5
					c-0.1,1.6,0,3.2-0.1,4.9c-0.1,1-0.2,1.9-0.4,2.9c-0.5,2.2-1.2,4.5-2.2,6.5c-0.7,1.5-1.6,2.9-2.6,4.2c-0.9,1.2-1.7,2.4-2.4,3.7
					c-1.1,2.1-1.8,4.5-2.1,6.8c-0.1,1.1-0.1,2.2-0.1,3.3c0,1.2,0.3,2.3,0.6,3.4c0.3,1.2,0.4,2.4,0.6,3.6c0.1,1.3,0.3,2.7,0.2,4
					c-0.2,2.2-0.4,4.5-1.1,6.6c-0.7,2-1.6,3.9-2.6,5.7c-0.9,1.6-1.4,3.4-1.2,5.2c0.1,1,0.5,1.9,0.8,2.9c0.2,0.6,0.5,1.3,0.8,1.9
					c0.4,1.1,0.9,2.1,1.2,3.3c0.1,0.6,0.1,1.2,0.3,1.7l0,0c0.1,0.5,0.1,1.1,0,1.6c0.1-0.1,0.3-0.3,0.3-0.4c0.1-0.5,0.1-1,0.1-1.5
					c0,0,0,0,0,0c0,0,0,0,0,0c0.1-1.6-0.5-3.1-1.1-4.5c-0.3-0.7-0.6-1.4-0.8-2.1c-0.4-1.1-0.9-2.2-0.9-3.5c0-0.9,0.1-1.9,0.4-2.7
					C34.5,161.4,35,160.7,35.4,160z M36.5,175.5c0,0,0,0.1,0.1,0.1C36.5,175.6,36.5,175.5,36.5,175.5z M36.6,175.8
					c0-0.1,0.1-0.2,0.1-0.3C36.7,175.6,36.6,175.7,36.6,175.8z"/>
				<path class="st27" d="M46.1,151.7c0.7-1.1,1.3-2.1,1.8-3.3c0.8-1.6,1.5-3.4,2-5.1c0.3-1.2,0.6-2.5,0.8-3.7
					c0.1-1.5,0.1-3.1,0.2-4.6c0.1-2,0.5-4.1,1.6-5.8c1-1.5,2.3-2.9,3.3-4.4c1-1.4,1.8-2.9,2.2-4.5c0.3-0.9,0.4-1.9,0.4-2.9
					c0.1-1,0.3-2,0.6-3c0.2-0.6,0.5-1.2,0.5-1.8c-0.1,0-0.2,0-0.2,0c-0.7,1.2-1.2,2.4-1.4,3.8c-0.2,1.1-0.2,2.2-0.5,3.3
					c-0.4,1.5-1,2.8-1.8,4.1c-1.1,1.8-2.5,3.4-3.7,5.1c-1.2,1.7-1.6,3.8-1.8,5.9c-0.2,2.2-0.1,4.4-0.6,6.6c-0.8,3.3-1.9,6.4-3.7,9.3
					c-1,1.6-1.8,3.3-2.5,5c-0.9,2.3-0.9,4.9-0.1,7.3c0.2,0.6,0.5,1.3,0.8,1.8c0.1,0,0.2,0,0.4,0c-0.1-0.7-0.4-1.3-0.6-2
					c-0.7-2.2-0.8-4.6,0-6.7C44.6,154.7,45.3,153.2,46.1,151.7z"/>
				<path class="st27" d="M48.5,153.2c0.7-1.8,1.6-3.4,2.5-5.1c1-1.9,2.1-3.7,2.6-5.8c0.3-1,0.3-2.1,0.5-3.2
					c0.3-2.1,0.1-4.4,0.8-6.4c0.6-1.7,1.9-3.1,3.1-4.4c1-1.1,1.8-2.3,2.6-3.5c0.7-1.1,1.3-2.3,1.7-3.5c0.3-0.7,0.5-1.4,0.6-2.2
					c0.2-0.7,0.1-1.5,0-2.2c-0.1,0-0.2,0-0.3,0c-0.1,0.2-0.2,0.5-0.2,0.7c-0.2,0.7-0.3,1.5-0.6,2.2c-0.4,1.1-0.9,2.2-1.5,3.2
					c-0.4,0.8-0.9,1.4-1.3,2.2c-0.6,0.9-1.1,1.8-1.9,2.5c-0.5,0.6-1,1.2-1.5,1.8c-0.6,0.7-1.1,1.4-1.4,2.3c-0.8,1.9-0.8,4-0.9,6
					c-0.1,1.2-0.2,2.4-0.4,3.6c-0.3,2-1.3,3.8-2.2,5.6c-0.9,1.7-1.9,3.3-2.5,5.1c-0.3,1-0.7,2.1-0.9,3.2c0,0.3,0,0.5,0,0.8
					c0-0.3,0-0.5,0-0.8c-0.2,0.5-0.3,1.1-0.4,1.7c0.1,0,0.2,0,0.3,0c0.2-0.5,0.4-1,0.5-1.5c-0.1,0.2-0.2,0.3-0.3,0.5
					c0.1-0.2,0.2-0.3,0.3-0.5C48,154.7,48.2,154,48.5,153.2z"/>
				<path class="st27" d="M57.7,140.1c0.1-1.9,0.4-3.8,1.3-5.4c0.5-0.9,1.2-1.7,1.9-2.4c1.2-1.2,2.6-2.2,3.4-3.6
					c0.8-1.3,1.4-2.7,1.8-4.2c0.3-1.2,0.4-2.5,0.2-3.8c-0.1,0-0.2,0-0.3,0c-0.2,1.1-0.4,2.3-0.7,3.4c-0.5,1.7-1.3,3.4-2.4,4.9
					c-0.7,0.9-1.5,1.7-2.3,2.4c-1.3,1.3-2.5,2.7-3.1,4.4c-0.9,2.2-1,4.5-1,6.9c0,1.8-0.7,3.6-1.5,5.2c-0.9,1.8-2.2,3.4-3.2,5.1
					c-1,1.6-1.4,3.5-1.3,5.3c0.1,0.7,0.3,1.5,0.8,2c0,0,0.1-0.1,0.1-0.1c0,0-0.1,0.1-0.1,0.1c0.2,0,0.3,0,0.5,0c0-0.1,0-0.3,0-0.4
					l-0.1,0.1c-0.5-0.6-0.5-1.4-0.5-2.2c0-1.3,0.3-2.7,0.9-3.9c0.9-1.6,2-3,3-4.6c0.8-1.4,1.7-2.8,2-4.5
					C57.8,143.3,57.6,141.7,57.7,140.1z"/>
				<path class="st27" d="M64.7,135.8c1.1-1.1,2-2.2,2.8-3.4c1-1.5,1.7-3.2,2.2-4.9c0.3-1,0.3-2,0.1-3c0-0.2-0.1-0.4-0.1-0.6
					c-0.1,0-0.2,0-0.3,0c0,0,0,0.1,0,0.1c-0.1,0.4-0.2,0.9-0.2,1.3c-0.1,1.3-0.6,2.6-1.1,3.8c-0.6,1.6-1.5,3.1-2.5,4.4
					c-1.1,1.4-2.3,2.7-3.4,4c-1,1.3-1.5,2.9-1.4,4.5c0.1,1.5,0,3.1-0.4,4.6c-0.4,1.6-1,3.1-1.7,4.5c-0.4,0.9-1.1,1.6-1.6,2.4
					c-0.3,0.3-0.5,0.6-0.5,0.9c0.4-0.2,0.7-0.6,0.9-0.9l0,0c0.5-0.5,1-1,1.4-1.6c0.8-1,1.3-2.2,1.8-3.4c0.8-2.1,1-4.5,0.8-6.7
					c-0.1-1.3,0.2-2.8,1.1-3.8C63.3,137.3,64,136.5,64.7,135.8z M57.1,153.7c0,0.1,0,0.1,0,0.2C57,153.8,57.1,153.8,57.1,153.7z
					 M57.2,153.8c0,0,0.1-0.1,0.1-0.1C57.3,153.7,57.3,153.8,57.2,153.8z"/>
				<path class="st27" d="M71.9,129.7c-0.1,0-0.2,0-0.4,0c-0.3,0.7-0.7,1.4-1.1,2c-1,1.7-1.9,3.4-3,5c-0.6,0.9-1.2,1.7-1.6,2.7
					c-0.7,1.4-1.1,2.8-1.3,4.4c-0.2,1.5-0.2,3-0.6,4.5c-0.2,0.7-0.4,1.4-0.8,2c0,0,0,0,0,0c0,0-0.1-0.1-0.1-0.1c0,0.1,0,0.3,0,0.4
					c0.1,0,0.3,0,0.4,0l-0.1-0.1c0.8-0.8,1.1-2,1.6-3c0.5-1.4,0.3-3,0.7-4.4c0.3-1.6,1-3.2,1.9-4.6c1-1.5,2.1-3,2.9-4.7
					c0.5-0.9,1-1.9,1.3-2.9C71.8,130.5,72,130.1,71.9,129.7z"/>
				<path class="st27" d="M41.1,169.2c0.1,0,0.2-0.1,0.3-0.1c-0.2-0.3-0.3-0.6-0.4-0.9c-0.2-0.5-0.5-0.9-0.8-1.4
					c-0.4-0.8-0.8-1.6-1-2.5c-0.3-1.2-0.3-2.5-0.1-3.7c0.2-1.1,0.7-2.2,1.2-3.2c0.4-0.8,0.8-1.5,1.2-2.3c0.8-1.6,1.4-3.3,1.9-5.1
					c0.6-2.6,0.6-5.3,0.3-8c-0.2-1.2-0.3-2.4-0.6-3.5c-0.3-1.2-0.5-2.4-0.5-3.6c0-1.1,0-2.2,0.3-3.3c0.2-1.2,0.5-2.3,1-3.3
					c1.1-2.3,2.7-4.2,4-6.4c0.6-0.9,1.2-1.8,1.6-2.8c0.9-2,1.7-4.1,1.9-6.2c0.1-1.2,0.2-2.4,0.3-3.6c0.1-1.6,0.4-3.2,1.2-4.6
					c0.6-1,1.4-1.8,2.3-2.6c0.1,0,0.1,0,0.2,0c0-0.1,0-0.3,0-0.3c-0.2,0-0.5,0.1-0.7,0.2c-1.8,1-3,2.8-3.4,4.8
					c-0.3,1.3-0.4,2.6-0.5,4c-0.2,1.4-0.2,2.8-0.6,4.1c-0.4,1.6-1,3.3-1.8,4.8c-0.6,1.1-1.3,2.2-2,3.2c-1.1,1.6-2.2,3.2-3.1,4.9
					c-1.4,2.6-1.7,5.7-1.5,8.6c0.1,1.4,0.7,2.7,0.8,4.1c0.1,0.9,0.3,1.8,0.4,2.7c0.1,1.2,0.1,2.3,0.1,3.5c-0.2,3-1.1,6-2.5,8.6
					c-0.9,1.7-1.9,3.5-2.2,5.5c-0.1,1.2-0.2,2.4,0.1,3.6c0.2,0.8,0.6,1.6,1,2.3c0.4,0.9,1,1.7,1.5,2.6c0.2,0.1,0.3,0.1,0.5,0.1
					c0-0.1,0-0.2,0-0.4l-0.1,0C41.3,169.1,41.2,169.1,41.1,169.2z"/>
			</g>
		</g>
	</g>
</g>
</svg>
