<?xml version="1.0" encoding="utf-8"?>
<!-- Generator: Adobe Illustrator 25.2.0, SVG Export Plug-In . SVG Version: 6.00 Build 0)  -->
<svg version="1.1" id="Layer_1" xmlns="http://www.w3.org/2000/svg" xmlns:xlink="http://www.w3.org/1999/xlink" x="0px" y="0px"
	 viewBox="0 0 149.4 149.4" style="enable-background:new 0 0 149.4 149.4;" xml:space="preserve">
<style type="text/css">
	.st0{clip-path:url(#SVGID_2_);}
	.st1{fill-rule:evenodd;clip-rule:evenodd;fill:#EC4899;}
</style>
<g>
	<defs>
		<rect id="SVGID_1_" width="149.4" height="149.4"/>
	</defs>
	<clipPath id="SVGID_2_">
		<use xlink:href="#SVGID_1_"  style="overflow:visible;"/>
	</clipPath>
	<g class="st0">
		<path class="st1" d="M56.8,98.9l-3.9,16.8l22.5-0.3l1.9-7.8c-6.6-3.1-13.2-5.9-19.9-8.5L56.8,98.9z M124,117.3
			c60.7,36.9,185.9,64.4,262.3,13.7c-1.3,11.9-76.6,97.1-269.5-6.9C119.4,122.1,121.8,119.8,124,117.3z M73.8,25.7L61,81l0.6,0.2
			c6.8,2.4,13.6,5.1,20.2,8.1l6.1-24.9c2.8-0.3,5.9-0.5,7.2-0.6c11.4-0.2,14.8,8.6,14.8,19.4c0,43.3-41.6,50.3-68.2,41.2
			c-32.2-11.1-31.2-48.2,17-29.7c13.1,5,25,10.7,36.1,16.7c2.2-2.3,4.1-4.8,5.6-7.7c-12.6-6.8-25.8-12.9-40.1-18
			C-8.1,61.6-10.1,125.6,39.5,138C80,148.1,144,118.7,130.7,73c-2-8.1-7.4-14.6-17.5-16.4c10.2-5.8,15.6-15.6,15.6-24.7
			c0-12.6-10.3-24.3-33.3-24C66,8.2,38.8,28.2,38.8,49.4c0,10.3,6.4,14.1,16.7,13.9c-0.2-1.4-2.2-2.6-2.2-10.4
			c0-25.4,20.8-37.7,39.1-37.9c14.8-0.2,20.6,7.6,20.6,16.3c0,11.5-10,25.1-22.5,25.3l-0.9,0l7.3-34.3L73.8,25.7z"/>
	</g>
</g>
</svg>
